<?xml version="1.0" encoding="utf-8"?> <!-- Generator: Adobe Illustrator 13.0.0, SVG Export Plug-In . SVG Version: 6.00 Build 14948)  --> <svg version="1.2" baseProfile="tiny" id="Layer_1" xmlns="http://www.w3.org/2000/svg" xmlns:xlink="http://www.w3.org/1999/xlink" x="0px" y="0px" width="512px" height="512px" viewBox="0 0 512 512" xml:space="preserve">
<polygon points="0,0 512,0 512,512 0,512" style="fill:#ffffff; stroke:#000000;stroke-width:0"/>
<polygon points="-126.836,113.516 -113.383,73.0258 88.0234,139.944 74.5702,180.435" style="fill:#006363; stroke:#000000;stroke-width:0"/>
<circle fill="#006363" stroke="#006363" stroke-width="0" cx="-120.109" cy="93.2709" r="21.3333"/>
<circle fill="#006363" stroke="#006363" stroke-width="0" cx="81.2968" cy="160.19" r="21.3333"/>
<polygon points="470.671,260.402 448.705,223.824 630.769,114.49 652.735,151.068" style="fill:#006363; stroke:#000000;stroke-width:0"/>
<circle fill="#006363" stroke="#006363" stroke-width="0" cx="459.688" cy="242.113" r="21.3333"/>
<circle fill="#006363" stroke="#006363" stroke-width="0" cx="641.752" cy="132.779" r="21.3333"/>
<polygon points="1256,469.333 256,1469.33 -744,469.333" style="fill:#000000; stroke:#000000;stroke-width:0"/>
<polygon points="-744,42.6667 256,-957.333 1256,42.6667" style="fill:#000000; stroke:#000000;stroke-width:0"/>
<circle fill="#a64b00" stroke="#a64b00" stroke-width="0" cx="-120.109" cy="93.2709" r="21.3333"/>
<circle fill="#a64b00" stroke="#a64b00" stroke-width="0" cx="81.2968" cy="160.19" r="21.3333"/>
<circle fill="#a64b00" stroke="#a64b00" stroke-width="0" cx="459.688" cy="242.113" r="21.3333"/>
<circle fill="#a64b00" stroke="#a64b00" stroke-width="0" cx="641.752" cy="132.779" r="21.3333"/>
<circle fill="#a64b00" stroke="#a64b00" stroke-width="0" cx="446.593" cy="172.742" r="21.3333"/>
</svg>
