<?xml version="1.0" encoding="utf-8"?> <!-- Generator: Adobe Illustrator 13.0.0, SVG Export Plug-In . SVG Version: 6.00 Build 14948)  --> <svg version="1.2" baseProfile="tiny" id="Layer_1" xmlns="http://www.w3.org/2000/svg" xmlns:xlink="http://www.w3.org/1999/xlink" x="0px" y="0px" width="512px" height="512px" viewBox="0 0 512 512" xml:space="preserve">
<polygon points="0,0 512,0 512,512 0,512" style="fill:#ffffff; stroke:#000000;stroke-width:0"/>
<polygon points="-131.191,185.091 -96.5549,160.175 30.4682,336.757 -4.16804,361.672" style="fill:#006363; stroke:#000000;stroke-width:0"/>
<circle fill="#006363" stroke="#006363" stroke-width="0" cx="-113.873" cy="172.633" r="21.3333"/>
<circle fill="#006363" stroke="#006363" stroke-width="0" cx="13.1501" cy="349.214" r="21.3333"/>
<polygon points="663.649,307.329 627.529,330.04 512.676,147.37 548.797,124.66" style="fill:#006363; stroke:#000000;stroke-width:0"/>
<circle fill="#006363" stroke="#006363" stroke-width="0" cx="645.589" cy="318.685" r="21.3333"/>
<circle fill="#006363" stroke="#006363" stroke-width="0" cx="530.736" cy="136.015" r="21.3333"/>
<polygon points="1256,469.333 256,1469.33 -744,469.333" style="fill:#000000; stroke:#000000;stroke-width:0"/>
<polygon points="-744,42.6667 256,-957.333 1256,42.6667" style="fill:#000000; stroke:#000000;stroke-width:0"/>
<circle fill="#a64b00" stroke="#a64b00" stroke-width="0" cx="-113.873" cy="172.633" r="21.3333"/>
<circle fill="#a64b00" stroke="#a64b00" stroke-width="0" cx="13.1501" cy="349.214" r="21.3333"/>
<circle fill="#a64b00" stroke="#a64b00" stroke-width="0" cx="645.589" cy="318.685" r="21.3333"/>
<circle fill="#a64b00" stroke="#a64b00" stroke-width="0" cx="530.736" cy="136.015" r="21.3333"/>
<circle fill="#a64b00" stroke="#a64b00" stroke-width="0" cx="407.763" cy="239.942" r="21.3333"/>
</svg>
