<?xml version="1.0" encoding="utf-8"?> <!-- Generator: Adobe Illustrator 13.0.0, SVG Export Plug-In . SVG Version: 6.00 Build 14948)  --> <svg version="1.2" baseProfile="tiny" id="Layer_1" xmlns="http://www.w3.org/2000/svg" xmlns:xlink="http://www.w3.org/1999/xlink" x="0px" y="0px" width="512px" height="512px" viewBox="0 0 512 512" xml:space="preserve">
<polygon points="0,0 512,0 512,512 0,512" style="fill:#ffffff; stroke:#000000;stroke-width:0"/>
<polygon points="12.8584,118.437 55.5018,117.029 62.6333,333.029 19.9899,334.437" style="fill:#006363; stroke:#000000;stroke-width:0"/>
<circle fill="#006363" stroke="#006363" stroke-width="0" cx="34.1801" cy="117.733" r="21.3333"/>
<circle fill="#006363" stroke="#006363" stroke-width="0" cx="41.3116" cy="333.733" r="21.3333"/>
<polygon points="453.025,158.792 495.649,156.892 505.081,368.497 462.457,370.397" style="fill:#006363; stroke:#000000;stroke-width:0"/>
<circle fill="#006363" stroke="#006363" stroke-width="0" cx="474.337" cy="157.842" r="21.3333"/>
<circle fill="#006363" stroke="#006363" stroke-width="0" cx="483.769" cy="369.447" r="21.3333"/>
<polygon points="1256,469.333 256,1469.33 -744,469.333" style="fill:#000000; stroke:#000000;stroke-width:0"/>
<polygon points="-744,42.6667 256,-957.333 1256,42.6667" style="fill:#000000; stroke:#000000;stroke-width:0"/>
<circle fill="#a64b00" stroke="#a64b00" stroke-width="0" cx="34.1801" cy="117.733" r="21.3333"/>
<circle fill="#a64b00" stroke="#a64b00" stroke-width="0" cx="41.3116" cy="333.733" r="21.3333"/>
<circle fill="#a64b00" stroke="#a64b00" stroke-width="0" cx="474.337" cy="157.842" r="21.3333"/>
<circle fill="#a64b00" stroke="#a64b00" stroke-width="0" cx="483.769" cy="369.447" r="21.3333"/>
<circle fill="#a64b00" stroke="#a64b00" stroke-width="0" cx="320.227" cy="264.706" r="21.3333"/>
</svg>
