<?xml version="1.0" encoding="utf-8"?> <!-- Generator: Adobe Illustrator 13.0.0, SVG Export Plug-In . SVG Version: 6.00 Build 14948)  --> <svg version="1.2" baseProfile="tiny" id="Layer_1" xmlns="http://www.w3.org/2000/svg" xmlns:xlink="http://www.w3.org/1999/xlink" x="0px" y="0px" width="512px" height="512px" viewBox="0 0 512 512" xml:space="preserve">
<polygon points="0,0 512,0 512,512 0,512" style="fill:#ffffff; stroke:#000000;stroke-width:0"/>
<polygon points="-210.329,178.59 -171.882,160.09 -77.1753,356.905 -115.622,375.406" style="fill:#006363; stroke:#000000;stroke-width:0"/>
<circle fill="#006363" stroke="#006363" stroke-width="0" cx="-191.105" cy="169.34" r="21.3333"/>
<circle fill="#006363" stroke="#006363" stroke-width="0" cx="-96.3989" cy="366.155" r="21.3333"/>
<polygon points="628.98,430.772 603.083,396.864 774.223,266.156 800.121,300.064" style="fill:#006363; stroke:#000000;stroke-width:0"/>
<circle fill="#006363" stroke="#006363" stroke-width="0" cx="616.031" cy="413.818" r="21.3333"/>
<circle fill="#006363" stroke="#006363" stroke-width="0" cx="787.172" cy="283.11" r="21.3333"/>
<polygon points="1256,469.333 256,1469.33 -744,469.333" style="fill:#000000; stroke:#000000;stroke-width:0"/>
<polygon points="-744,42.6667 256,-957.333 1256,42.6667" style="fill:#000000; stroke:#000000;stroke-width:0"/>
<circle fill="#a64b00" stroke="#a64b00" stroke-width="0" cx="-191.105" cy="169.34" r="21.3333"/>
<circle fill="#a64b00" stroke="#a64b00" stroke-width="0" cx="-96.3989" cy="366.155" r="21.3333"/>
<circle fill="#a64b00" stroke="#a64b00" stroke-width="0" cx="616.031" cy="413.818" r="21.3333"/>
<circle fill="#a64b00" stroke="#a64b00" stroke-width="0" cx="787.172" cy="283.11" r="21.3333"/>
<circle fill="#a64b00" stroke="#a64b00" stroke-width="0" cx="195.395" cy="392.59" r="21.3333"/>
</svg>
