<?xml version="1.0" encoding="utf-8"?> <!-- Generator: Adobe Illustrator 13.0.0, SVG Export Plug-In . SVG Version: 6.00 Build 14948)  --> <svg version="1.2" baseProfile="tiny" id="Layer_1" xmlns="http://www.w3.org/2000/svg" xmlns:xlink="http://www.w3.org/1999/xlink" x="0px" y="0px" width="512px" height="512px" viewBox="0 0 512 512" xml:space="preserve">
<polygon points="0,0 512,0 512,512 0,512" style="fill:#ffffff; stroke:#000000;stroke-width:0"/>
<polygon points="-125.567,196.078 -89.6238,173.088 22.2205,347.946 -13.7225,370.937" style="fill:#006363; stroke:#000000;stroke-width:0"/>
<circle fill="#006363" stroke="#006363" stroke-width="0" cx="-107.595" cy="184.583" r="21.3333"/>
<circle fill="#006363" stroke="#006363" stroke-width="0" cx="4.24901" cy="359.441" r="21.3333"/>
<polygon points="668.823,301.595 634.303,326.671 510.689,156.507 545.209,131.431" style="fill:#006363; stroke:#000000;stroke-width:0"/>
<circle fill="#006363" stroke="#006363" stroke-width="0" cx="651.563" cy="314.133" r="21.3333"/>
<circle fill="#006363" stroke="#006363" stroke-width="0" cx="527.949" cy="143.969" r="21.3333"/>
<polygon points="1256,469.333 256,1469.33 -744,469.333" style="fill:#000000; stroke:#000000;stroke-width:0"/>
<polygon points="-744,42.6667 256,-957.333 1256,42.6667" style="fill:#000000; stroke:#000000;stroke-width:0"/>
<circle fill="#a64b00" stroke="#a64b00" stroke-width="0" cx="-107.595" cy="184.583" r="21.3333"/>
<circle fill="#a64b00" stroke="#a64b00" stroke-width="0" cx="4.24901" cy="359.441" r="21.3333"/>
<circle fill="#a64b00" stroke="#a64b00" stroke-width="0" cx="651.563" cy="314.133" r="21.3333"/>
<circle fill="#a64b00" stroke="#a64b00" stroke-width="0" cx="527.949" cy="143.969" r="21.3333"/>
<circle fill="#a64b00" stroke="#a64b00" stroke-width="0" cx="404.781" cy="287.644" r="21.3333"/>
</svg>
