<?xml version="1.0" encoding="utf-8"?> <!-- Generator: Adobe Illustrator 13.0.0, SVG Export Plug-In . SVG Version: 6.00 Build 14948)  --> <svg version="1.2" baseProfile="tiny" id="Layer_1" xmlns="http://www.w3.org/2000/svg" xmlns:xlink="http://www.w3.org/1999/xlink" x="0px" y="0px" width="512px" height="512px" viewBox="0 0 512 512" xml:space="preserve">
<polygon points="0,0 512,0 512,512 0,512" style="fill:#ffffff; stroke:#000000;stroke-width:0"/>
<polygon points="-71.0872,252.384 -72.8833,295.013 -284.099,286.113 -282.303,243.484" style="fill:#006363; stroke:#000000;stroke-width:0"/>
<circle fill="#006363" stroke="#006363" stroke-width="0" cx="-71.9852" cy="273.698" r="21.3333"/>
<circle fill="#006363" stroke="#006363" stroke-width="0" cx="-283.201" cy="264.799" r="21.3333"/>
<polygon points="736.918,292.199 695.547,281.765 748.497,71.8186 789.868,82.2527" style="fill:#006363; stroke:#000000;stroke-width:0"/>
<circle fill="#006363" stroke="#006363" stroke-width="0" cx="716.232" cy="286.982" r="21.3333"/>
<circle fill="#006363" stroke="#006363" stroke-width="0" cx="769.182" cy="77.0356" r="21.3333"/>
<polygon points="1256,469.333 256,1469.33 -744,469.333" style="fill:#000000; stroke:#000000;stroke-width:0"/>
<polygon points="-744,42.6667 256,-957.333 1256,42.6667" style="fill:#000000; stroke:#000000;stroke-width:0"/>
<circle fill="#a64b00" stroke="#a64b00" stroke-width="0" cx="-71.9852" cy="273.698" r="21.3333"/>
<circle fill="#a64b00" stroke="#a64b00" stroke-width="0" cx="-283.201" cy="264.799" r="21.3333"/>
<circle fill="#a64b00" stroke="#a64b00" stroke-width="0" cx="716.232" cy="286.982" r="21.3333"/>
<circle fill="#a64b00" stroke="#a64b00" stroke-width="0" cx="769.182" cy="77.0356" r="21.3333"/>
<circle fill="#a64b00" stroke="#a64b00" stroke-width="0" cx="118.441" cy="173.158" r="21.3333"/>
</svg>
