<?xml version="1.0" encoding="utf-8"?> <!-- Generator: Adobe Illustrator 13.0.0, SVG Export Plug-In . SVG Version: 6.00 Build 14948)  --> <svg version="1.2" baseProfile="tiny" id="Layer_1" xmlns="http://www.w3.org/2000/svg" xmlns:xlink="http://www.w3.org/1999/xlink" x="0px" y="0px" width="512px" height="512px" viewBox="0 0 512 512" xml:space="preserve">
<polygon points="0,0 512,0 512,512 0,512" style="fill:#ffffff; stroke:#000000;stroke-width:0"/>
<polygon points="-24.6746,169.507 17.2878,161.787 56.6134,375.541 14.651,383.261" style="fill:#006363; stroke:#000000;stroke-width:0"/>
<circle fill="#006363" stroke="#006363" stroke-width="0" cx="-3.69337" cy="165.647" r="21.3333"/>
<circle fill="#006363" stroke="#006363" stroke-width="0" cx="35.6322" cy="379.401" r="21.3333"/>
<polygon points="448.787,131.463 488.636,116.215 565.39,316.794 525.541,332.042" style="fill:#006363; stroke:#000000;stroke-width:0"/>
<circle fill="#006363" stroke="#006363" stroke-width="0" cx="468.712" cy="123.839" r="21.3333"/>
<circle fill="#006363" stroke="#006363" stroke-width="0" cx="545.465" cy="324.418" r="21.3333"/>
<polygon points="1256,469.333 256,1469.33 -744,469.333" style="fill:#000000; stroke:#000000;stroke-width:0"/>
<polygon points="-744,42.6667 256,-957.333 1256,42.6667" style="fill:#000000; stroke:#000000;stroke-width:0"/>
<circle fill="#a64b00" stroke="#a64b00" stroke-width="0" cx="-3.69337" cy="165.647" r="21.3333"/>
<circle fill="#a64b00" stroke="#a64b00" stroke-width="0" cx="35.6322" cy="379.401" r="21.3333"/>
<circle fill="#a64b00" stroke="#a64b00" stroke-width="0" cx="468.712" cy="123.839" r="21.3333"/>
<circle fill="#a64b00" stroke="#a64b00" stroke-width="0" cx="545.465" cy="324.418" r="21.3333"/>
<circle fill="#a64b00" stroke="#a64b00" stroke-width="0" cx="348.404" cy="72.0471" r="21.3333"/>
</svg>
