<?xml version="1.0" encoding="utf-8"?> <!-- Generator: Adobe Illustrator 13.0.0, SVG Export Plug-In . SVG Version: 6.00 Build 14948)  --> <svg version="1.2" baseProfile="tiny" id="Layer_1" xmlns="http://www.w3.org/2000/svg" xmlns:xlink="http://www.w3.org/1999/xlink" x="0px" y="0px" width="512px" height="512px" viewBox="0 0 512 512" xml:space="preserve">
<polygon points="0,0 512,0 512,512 0,512" style="fill:#ffffff; stroke:#000000;stroke-width:0"/>
<polygon points="-91.4257,182.247 -58.643,154.939 80.0212,321.4 47.2386,348.708" style="fill:#006363; stroke:#000000;stroke-width:0"/>
<circle fill="#006363" stroke="#006363" stroke-width="0" cx="-75.0344" cy="168.593" r="21.3333"/>
<circle fill="#006363" stroke="#006363" stroke-width="0" cx="63.6299" cy="335.054" r="21.3333"/>
<polygon points="426.033,174.237 433.808,132.284 645.609,171.534 637.835,213.486" style="fill:#006363; stroke:#000000;stroke-width:0"/>
<circle fill="#006363" stroke="#006363" stroke-width="0" cx="429.92" cy="153.26" r="21.3333"/>
<circle fill="#006363" stroke="#006363" stroke-width="0" cx="641.722" cy="192.51" r="21.3333"/>
<polygon points="1256,469.333 256,1469.33 -744,469.333" style="fill:#000000; stroke:#000000;stroke-width:0"/>
<polygon points="-744,42.6667 256,-957.333 1256,42.6667" style="fill:#000000; stroke:#000000;stroke-width:0"/>
<circle fill="#a64b00" stroke="#a64b00" stroke-width="0" cx="-75.0344" cy="168.593" r="21.3333"/>
<circle fill="#a64b00" stroke="#a64b00" stroke-width="0" cx="63.6299" cy="335.054" r="21.3333"/>
<circle fill="#a64b00" stroke="#a64b00" stroke-width="0" cx="429.92" cy="153.26" r="21.3333"/>
<circle fill="#a64b00" stroke="#a64b00" stroke-width="0" cx="641.722" cy="192.51" r="21.3333"/>
<circle fill="#a64b00" stroke="#a64b00" stroke-width="0" cx="88.1715" cy="87.5681" r="21.3333"/>
</svg>
