<?xml version="1.0" encoding="utf-8"?> <!-- Generator: Adobe Illustrator 13.0.0, SVG Export Plug-In . SVG Version: 6.00 Build 14948)  --> <svg version="1.2" baseProfile="tiny" id="Layer_1" xmlns="http://www.w3.org/2000/svg" xmlns:xlink="http://www.w3.org/1999/xlink" x="0px" y="0px" width="512px" height="512px" viewBox="0 0 512 512" xml:space="preserve">
<polygon points="0,0 512,0 512,512 0,512" style="fill:#ffffff; stroke:#000000;stroke-width:0"/>
<polygon points="-188.498,437.141 -211.507,401.211 -27.6517,283.473 -4.6423,319.403" style="fill:#006363; stroke:#000000;stroke-width:0"/>
<circle fill="#006363" stroke="#006363" stroke-width="0" cx="-200.002" cy="419.176" r="21.3333"/>
<circle fill="#006363" stroke="#006363" stroke-width="0" cx="-16.147" cy="301.438" r="21.3333"/>
<polygon points="598.044,210.999 637.553,194.89 718.487,393.393 678.978,409.502" style="fill:#006363; stroke:#000000;stroke-width:0"/>
<circle fill="#006363" stroke="#006363" stroke-width="0" cx="617.798" cy="202.944" r="21.3333"/>
<circle fill="#006363" stroke="#006363" stroke-width="0" cx="698.733" cy="401.448" r="21.3333"/>
<polygon points="1256,469.333 256,1469.33 -744,469.333" style="fill:#000000; stroke:#000000;stroke-width:0"/>
<polygon points="-744,42.6667 256,-957.333 1256,42.6667" style="fill:#000000; stroke:#000000;stroke-width:0"/>
<circle fill="#a64b00" stroke="#a64b00" stroke-width="0" cx="-200.002" cy="419.176" r="21.3333"/>
<circle fill="#a64b00" stroke="#a64b00" stroke-width="0" cx="-16.147" cy="301.438" r="21.3333"/>
<circle fill="#a64b00" stroke="#a64b00" stroke-width="0" cx="617.798" cy="202.944" r="21.3333"/>
<circle fill="#a64b00" stroke="#a64b00" stroke-width="0" cx="698.733" cy="401.448" r="21.3333"/>
<circle fill="#a64b00" stroke="#a64b00" stroke-width="0" cx="276.524" cy="125.455" r="21.3333"/>
</svg>
