<?xml version="1.0" encoding="utf-8"?> <!-- Generator: Adobe Illustrator 13.0.0, SVG Export Plug-In . SVG Version: 6.00 Build 14948)  --> <svg version="1.2" baseProfile="tiny" id="Layer_1" xmlns="http://www.w3.org/2000/svg" xmlns:xlink="http://www.w3.org/1999/xlink" x="0px" y="0px" width="512px" height="512px" viewBox="0 0 512 512" xml:space="preserve">
<polygon points="0,0 512,0 512,512 0,512" style="fill:#ffffff; stroke:#000000;stroke-width:0"/>
<polygon points="-102.268,64.2342 -88.957,104.771 -284.398,168.947 -297.709,128.409" style="fill:#006363; stroke:#000000;stroke-width:0"/>
<circle fill="#006363" stroke="#006363" stroke-width="0" cx="-95.6125" cy="84.5028" r="21.3333"/>
<circle fill="#006363" stroke="#006363" stroke-width="0" cx="-291.053" cy="148.678" r="21.3333"/>
<polygon points="745.19,325.353 705.045,310.904 778.462,106.914 818.608,121.363" style="fill:#006363; stroke:#000000;stroke-width:0"/>
<circle fill="#006363" stroke="#006363" stroke-width="0" cx="725.117" cy="318.129" r="21.3333"/>
<circle fill="#006363" stroke="#006363" stroke-width="0" cx="798.535" cy="114.139" r="21.3333"/>
<polygon points="1256,469.333 256,1469.33 -744,469.333" style="fill:#000000; stroke:#000000;stroke-width:0"/>
<polygon points="-744,42.6667 256,-957.333 1256,42.6667" style="fill:#000000; stroke:#000000;stroke-width:0"/>
<circle fill="#a64b00" stroke="#a64b00" stroke-width="0" cx="-95.6125" cy="84.5028" r="21.3333"/>
<circle fill="#a64b00" stroke="#a64b00" stroke-width="0" cx="-291.053" cy="148.678" r="21.3333"/>
<circle fill="#a64b00" stroke="#a64b00" stroke-width="0" cx="725.117" cy="318.129" r="21.3333"/>
<circle fill="#a64b00" stroke="#a64b00" stroke-width="0" cx="798.535" cy="114.139" r="21.3333"/>
<circle fill="#a64b00" stroke="#a64b00" stroke-width="0" cx="82.6481" cy="154.077" r="21.3333"/>
</svg>
