<?xml version="1.0" encoding="utf-8"?> <!-- Generator: Adobe Illustrator 13.0.0, SVG Export Plug-In . SVG Version: 6.00 Build 14948)  --> <svg version="1.2" baseProfile="tiny" id="Layer_1" xmlns="http://www.w3.org/2000/svg" xmlns:xlink="http://www.w3.org/1999/xlink" x="0px" y="0px" width="512px" height="512px" viewBox="0 0 512 512" xml:space="preserve">
<polygon points="0,0 512,0 512,512 0,512" style="fill:#ffffff; stroke:#000000;stroke-width:0"/>
<polygon points="-45.0276,248.66 -3.91982,237.232 51.2815,435.801 10.1737,447.228" style="fill:#006363; stroke:#000000;stroke-width:0"/>
<circle fill="#006363" stroke="#006363" stroke-width="0" cx="-24.4737" cy="242.946" r="21.3333"/>
<circle fill="#006363" stroke="#006363" stroke-width="0" cx="30.7276" cy="441.515" r="21.3333"/>
<polygon points="431.337,103.77 460.505,72.6307 616.894,219.119 587.726,250.259" style="fill:#006363; stroke:#000000;stroke-width:0"/>
<circle fill="#006363" stroke="#006363" stroke-width="0" cx="445.921" cy="88.2005" r="21.3333"/>
<circle fill="#006363" stroke="#006363" stroke-width="0" cx="602.31" cy="234.689" r="21.3333"/>
<polygon points="1256,469.333 256,1469.33 -744,469.333" style="fill:#000000; stroke:#000000;stroke-width:0"/>
<polygon points="-744,42.6667 256,-957.333 1256,42.6667" style="fill:#000000; stroke:#000000;stroke-width:0"/>
<circle fill="#a64b00" stroke="#a64b00" stroke-width="0" cx="-24.4737" cy="242.946" r="21.3333"/>
<circle fill="#a64b00" stroke="#a64b00" stroke-width="0" cx="30.7276" cy="441.515" r="21.3333"/>
<circle fill="#a64b00" stroke="#a64b00" stroke-width="0" cx="445.921" cy="88.2005" r="21.3333"/>
<circle fill="#a64b00" stroke="#a64b00" stroke-width="0" cx="602.31" cy="234.689" r="21.3333"/>
<circle fill="#a64b00" stroke="#a64b00" stroke-width="0" cx="194.192" cy="366.946" r="21.3333"/>
</svg>
