<?xml version="1.0" encoding="utf-8"?> <!-- Generator: Adobe Illustrator 13.0.0, SVG Export Plug-In . SVG Version: 6.00 Build 14948)  --> <svg version="1.2" baseProfile="tiny" id="Layer_1" xmlns="http://www.w3.org/2000/svg" xmlns:xlink="http://www.w3.org/1999/xlink" x="0px" y="0px" width="512px" height="512px" viewBox="0 0 512 512" xml:space="preserve">
<polygon points="0,0 512,0 512,512 0,512" style="fill:#ffffff; stroke:#000000;stroke-width:0"/>
<polygon points="-208.191,335.421 -192.188,295.869 14.0779,379.326 -1.92514,418.878" style="fill:#006363; stroke:#000000;stroke-width:0"/>
<circle fill="#006363" stroke="#006363" stroke-width="0" cx="-200.19" cy="315.645" r="21.3333"/>
<circle fill="#006363" stroke="#006363" stroke-width="0" cx="6.07637" cy="399.102" r="21.3333"/>
<polygon points="642.741,180.169 684.723,187.784 647.023,395.645 605.041,388.03" style="fill:#006363; stroke:#000000;stroke-width:0"/>
<circle fill="#006363" stroke="#006363" stroke-width="0" cx="663.732" cy="183.977" r="21.3333"/>
<circle fill="#006363" stroke="#006363" stroke-width="0" cx="626.032" cy="391.838" r="21.3333"/>
<polygon points="1256,469.333 256,1469.33 -744,469.333" style="fill:#000000; stroke:#000000;stroke-width:0"/>
<polygon points="-744,42.6667 256,-957.333 1256,42.6667" style="fill:#000000; stroke:#000000;stroke-width:0"/>
<circle fill="#a64b00" stroke="#a64b00" stroke-width="0" cx="-200.19" cy="315.645" r="21.3333"/>
<circle fill="#a64b00" stroke="#a64b00" stroke-width="0" cx="6.07637" cy="399.102" r="21.3333"/>
<circle fill="#a64b00" stroke="#a64b00" stroke-width="0" cx="663.732" cy="183.977" r="21.3333"/>
<circle fill="#a64b00" stroke="#a64b00" stroke-width="0" cx="626.032" cy="391.838" r="21.3333"/>
<circle fill="#a64b00" stroke="#a64b00" stroke-width="0" cx="301.579" cy="373.509" r="21.3333"/>
</svg>
