<?xml version="1.0" encoding="utf-8"?> <!-- Generator: Adobe Illustrator 13.0.0, SVG Export Plug-In . SVG Version: 6.00 Build 14948)  --> <svg version="1.2" baseProfile="tiny" id="Layer_1" xmlns="http://www.w3.org/2000/svg" xmlns:xlink="http://www.w3.org/1999/xlink" x="0px" y="0px" width="512px" height="512px" viewBox="0 0 512 512" xml:space="preserve">
<polygon points="0,0 512,0 512,512 0,512" style="fill:#ffffff; stroke:#000000;stroke-width:0"/>
<polygon points="-128.922,115.907 -114.322,75.8156 91.6836,150.834 77.0841,190.925" style="fill:#006363; stroke:#000000;stroke-width:0"/>
<circle fill="#006363" stroke="#006363" stroke-width="0" cx="-121.622" cy="95.8612" r="21.3333"/>
<circle fill="#006363" stroke="#006363" stroke-width="0" cx="84.3839" cy="170.88" r="21.3333"/>
<polygon points="465.341,257.501 444.789,220.11 634.502,115.831 655.055,153.221" style="fill:#006363; stroke:#000000;stroke-width:0"/>
<circle fill="#006363" stroke="#006363" stroke-width="0" cx="455.065" cy="238.806" r="21.3333"/>
<circle fill="#006363" stroke="#006363" stroke-width="0" cx="644.779" cy="134.526" r="21.3333"/>
<polygon points="1256,469.333 256,1469.33 -744,469.333" style="fill:#000000; stroke:#000000;stroke-width:0"/>
<polygon points="-744,42.6667 256,-957.333 1256,42.6667" style="fill:#000000; stroke:#000000;stroke-width:0"/>
<circle fill="#a64b00" stroke="#a64b00" stroke-width="0" cx="-121.622" cy="95.8612" r="21.3333"/>
<circle fill="#a64b00" stroke="#a64b00" stroke-width="0" cx="84.3839" cy="170.88" r="21.3333"/>
<circle fill="#a64b00" stroke="#a64b00" stroke-width="0" cx="455.065" cy="238.806" r="21.3333"/>
<circle fill="#a64b00" stroke="#a64b00" stroke-width="0" cx="644.779" cy="134.526" r="21.3333"/>
<circle fill="#a64b00" stroke="#a64b00" stroke-width="0" cx="416.82" cy="153.245" r="21.3333"/>
</svg>
