<?xml version="1.0" encoding="utf-8"?> <!-- Generator: Adobe Illustrator 13.0.0, SVG Export Plug-In . SVG Version: 6.00 Build 14948)  --> <svg version="1.2" baseProfile="tiny" id="Layer_1" xmlns="http://www.w3.org/2000/svg" xmlns:xlink="http://www.w3.org/1999/xlink" x="0px" y="0px" width="512px" height="512px" viewBox="0 0 512 512" xml:space="preserve">
<polygon points="0,0 512,0 512,512 0,512" style="fill:#ffffff; stroke:#000000;stroke-width:0"/>
<polygon points="-59.676,230.975 -20.3484,214.428 59.91,405.187 20.5824,421.734" style="fill:#006363; stroke:#000000;stroke-width:0"/>
<circle fill="#006363" stroke="#006363" stroke-width="0" cx="-40.0122" cy="222.701" r="21.3333"/>
<circle fill="#006363" stroke="#006363" stroke-width="0" cx="40.2462" cy="413.461" r="21.3333"/>
<polygon points="427.673,127.686 450.3,91.5128 628.539,203.004 605.912,239.177" style="fill:#006363; stroke:#000000;stroke-width:0"/>
<circle fill="#006363" stroke="#006363" stroke-width="0" cx="438.986" cy="109.599" r="21.3333"/>
<circle fill="#006363" stroke="#006363" stroke-width="0" cx="617.226" cy="221.091" r="21.3333"/>
<polygon points="1256,469.333 256,1469.33 -744,469.333" style="fill:#000000; stroke:#000000;stroke-width:0"/>
<polygon points="-744,42.6667 256,-957.333 1256,42.6667" style="fill:#000000; stroke:#000000;stroke-width:0"/>
<circle fill="#a64b00" stroke="#a64b00" stroke-width="0" cx="-40.0122" cy="222.701" r="21.3333"/>
<circle fill="#a64b00" stroke="#a64b00" stroke-width="0" cx="40.2462" cy="413.461" r="21.3333"/>
<circle fill="#a64b00" stroke="#a64b00" stroke-width="0" cx="438.986" cy="109.599" r="21.3333"/>
<circle fill="#a64b00" stroke="#a64b00" stroke-width="0" cx="617.226" cy="221.091" r="21.3333"/>
<circle fill="#a64b00" stroke="#a64b00" stroke-width="0" cx="158.049" cy="250.538" r="21.3333"/>
</svg>
