<?xml version="1.0" encoding="utf-8"?> <!-- Generator: Adobe Illustrator 13.0.0, SVG Export Plug-In . SVG Version: 6.00 Build 14948)  --> <svg version="1.2" baseProfile="tiny" id="Layer_1" xmlns="http://www.w3.org/2000/svg" xmlns:xlink="http://www.w3.org/1999/xlink" x="0px" y="0px" width="512px" height="512px" viewBox="0 0 512 512" xml:space="preserve">
<polygon points="0,0 512,0 512,512 0,512" style="fill:#ffffff; stroke:#000000;stroke-width:0"/>
<polygon points="-124.956,124.038 -107.597,85.0629 91.3906,173.691 74.0311,212.666" style="fill:#006363; stroke:#000000;stroke-width:0"/>
<circle fill="#006363" stroke="#006363" stroke-width="0" cx="-116.277" cy="104.551" r="21.3333"/>
<circle fill="#006363" stroke="#006363" stroke-width="0" cx="82.7108" cy="193.179" r="21.3333"/>
<polygon points="457.944,247.441 440.881,208.335 638.174,122.251 655.237,161.357" style="fill:#006363; stroke:#000000;stroke-width:0"/>
<circle fill="#006363" stroke="#006363" stroke-width="0" cx="449.413" cy="227.888" r="21.3333"/>
<circle fill="#006363" stroke="#006363" stroke-width="0" cx="646.706" cy="141.804" r="21.3333"/>
<polygon points="1256,469.333 256,1469.33 -744,469.333" style="fill:#000000; stroke:#000000;stroke-width:0"/>
<polygon points="-744,42.6667 256,-957.333 1256,42.6667" style="fill:#000000; stroke:#000000;stroke-width:0"/>
<circle fill="#a64b00" stroke="#a64b00" stroke-width="0" cx="-116.277" cy="104.551" r="21.3333"/>
<circle fill="#a64b00" stroke="#a64b00" stroke-width="0" cx="82.7108" cy="193.179" r="21.3333"/>
<circle fill="#a64b00" stroke="#a64b00" stroke-width="0" cx="449.413" cy="227.888" r="21.3333"/>
<circle fill="#a64b00" stroke="#a64b00" stroke-width="0" cx="646.706" cy="141.804" r="21.3333"/>
<circle fill="#a64b00" stroke="#a64b00" stroke-width="0" cx="347.349" cy="107.752" r="21.3333"/>
</svg>
