<?xml version="1.0" encoding="utf-8"?> <!-- Generator: Adobe Illustrator 13.0.0, SVG Export Plug-In . SVG Version: 6.00 Build 14948)  --> <svg version="1.2" baseProfile="tiny" id="Layer_1" xmlns="http://www.w3.org/2000/svg" xmlns:xlink="http://www.w3.org/1999/xlink" x="0px" y="0px" width="512px" height="512px" viewBox="0 0 512 512" xml:space="preserve">
<polygon points="0,0 512,0 512,512 0,512" style="fill:#ffffff; stroke:#000000;stroke-width:0"/>
<polygon points="-297.14,440.511 -339.395,446.423 -370.11,226.884 -327.855,220.972" style="fill:#006363; stroke:#000000;stroke-width:0"/>
<circle fill="#006363" stroke="#006363" stroke-width="0" cx="-318.267" cy="443.467" r="21.3333"/>
<circle fill="#006363" stroke="#006363" stroke-width="0" cx="-348.982" cy="223.928" r="21.3333"/>
<polygon points="991.437,226.674 1019.79,258.56 859.776,400.832 831.426,368.946" style="fill:#006363; stroke:#000000;stroke-width:0"/>
<circle fill="#006363" stroke="#006363" stroke-width="0" cx="1005.61" cy="242.617" r="21.3333"/>
<circle fill="#006363" stroke="#006363" stroke-width="0" cx="845.601" cy="384.889" r="21.3333"/>
<polygon points="1256,469.333 256,1469.33 -744,469.333" style="fill:#000000; stroke:#000000;stroke-width:0"/>
<polygon points="-744,42.6667 256,-957.333 1256,42.6667" style="fill:#000000; stroke:#000000;stroke-width:0"/>
<circle fill="#a64b00" stroke="#a64b00" stroke-width="0" cx="-318.267" cy="443.467" r="21.3333"/>
<circle fill="#a64b00" stroke="#a64b00" stroke-width="0" cx="-348.982" cy="223.928" r="21.3333"/>
<circle fill="#a64b00" stroke="#a64b00" stroke-width="0" cx="1005.61" cy="242.617" r="21.3333"/>
<circle fill="#a64b00" stroke="#a64b00" stroke-width="0" cx="845.601" cy="384.889" r="21.3333"/>
<circle fill="#a64b00" stroke="#a64b00" stroke-width="0" cx="857.02" cy="255.327" r="21.3333"/>
</svg>
