<?xml version="1.0" encoding="utf-8"?> <!-- Generator: Adobe Illustrator 13.0.0, SVG Export Plug-In . SVG Version: 6.00 Build 14948)  --> <svg version="1.2" baseProfile="tiny" id="Layer_1" xmlns="http://www.w3.org/2000/svg" xmlns:xlink="http://www.w3.org/1999/xlink" x="0px" y="0px" width="512px" height="512px" viewBox="0 0 512 512" xml:space="preserve">
<polygon points="0,0 512,0 512,512 0,512" style="fill:#ffffff; stroke:#000000;stroke-width:0"/>
<polygon points="-62.1188,397.966 -75.4973,438.481 -268.932,374.607 -255.554,334.092" style="fill:#006363; stroke:#000000;stroke-width:0"/>
<circle fill="#006363" stroke="#006363" stroke-width="0" cx="-68.808" cy="418.224" r="21.3333"/>
<circle fill="#006363" stroke="#006363" stroke-width="0" cx="-262.243" cy="354.349" r="21.3333"/>
<polygon points="707.38,366.664 667.919,350.438 748.719,153.933 788.18,170.159" style="fill:#006363; stroke:#000000;stroke-width:0"/>
<circle fill="#006363" stroke="#006363" stroke-width="0" cx="687.649" cy="358.551" r="21.3333"/>
<circle fill="#006363" stroke="#006363" stroke-width="0" cx="768.45" cy="162.046" r="21.3333"/>
<polygon points="1256,469.333 256,1469.33 -744,469.333" style="fill:#000000; stroke:#000000;stroke-width:0"/>
<polygon points="-744,42.6667 256,-957.333 1256,42.6667" style="fill:#000000; stroke:#000000;stroke-width:0"/>
<circle fill="#a64b00" stroke="#a64b00" stroke-width="0" cx="-68.808" cy="418.224" r="21.3333"/>
<circle fill="#a64b00" stroke="#a64b00" stroke-width="0" cx="-262.243" cy="354.349" r="21.3333"/>
<circle fill="#a64b00" stroke="#a64b00" stroke-width="0" cx="687.649" cy="358.551" r="21.3333"/>
<circle fill="#a64b00" stroke="#a64b00" stroke-width="0" cx="768.45" cy="162.046" r="21.3333"/>
<circle fill="#a64b00" stroke="#a64b00" stroke-width="0" cx="145.882" cy="383.049" r="21.3333"/>
</svg>
