<?xml version="1.0" encoding="utf-8"?> <!-- Generator: Adobe Illustrator 13.0.0, SVG Export Plug-In . SVG Version: 6.00 Build 14948)  --> <svg version="1.2" baseProfile="tiny" id="Layer_1" xmlns="http://www.w3.org/2000/svg" xmlns:xlink="http://www.w3.org/1999/xlink" x="0px" y="0px" width="512px" height="512px" viewBox="0 0 512 512" xml:space="preserve">
<polygon points="0,0 512,0 512,512 0,512" style="fill:#ffffff; stroke:#000000;stroke-width:0"/>
<polygon points="-358.527,251.451 -387.224,219.877 -226.987,74.2452 -198.291,105.82" style="fill:#006363; stroke:#000000;stroke-width:0"/>
<circle fill="#006363" stroke="#006363" stroke-width="0" cx="-372.875" cy="235.664" r="21.3333"/>
<circle fill="#006363" stroke="#006363" stroke-width="0" cx="-212.639" cy="90.0324" r="21.3333"/>
<polygon points="820.639,242.627 859.908,225.941 944.55,425.14 905.281,441.826" style="fill:#006363; stroke:#000000;stroke-width:0"/>
<circle fill="#006363" stroke="#006363" stroke-width="0" cx="840.273" cy="234.284" r="21.3333"/>
<circle fill="#006363" stroke="#006363" stroke-width="0" cx="924.915" cy="433.483" r="21.3333"/>
<polygon points="1256,469.333 256,1469.33 -744,469.333" style="fill:#000000; stroke:#000000;stroke-width:0"/>
<polygon points="-744,42.6667 256,-957.333 1256,42.6667" style="fill:#000000; stroke:#000000;stroke-width:0"/>
<circle fill="#a64b00" stroke="#a64b00" stroke-width="0" cx="-372.875" cy="235.664" r="21.3333"/>
<circle fill="#a64b00" stroke="#a64b00" stroke-width="0" cx="-212.639" cy="90.0324" r="21.3333"/>
<circle fill="#a64b00" stroke="#a64b00" stroke-width="0" cx="840.273" cy="234.284" r="21.3333"/>
<circle fill="#a64b00" stroke="#a64b00" stroke-width="0" cx="924.915" cy="433.483" r="21.3333"/>
<circle fill="#a64b00" stroke="#a64b00" stroke-width="0" cx="-143.441" cy="449.833" r="21.3333"/>
</svg>
