<?xml version="1.0" encoding="utf-8"?> <!-- Generator: Adobe Illustrator 13.0.0, SVG Export Plug-In . SVG Version: 6.00 Build 14948)  --> <svg version="1.2" baseProfile="tiny" id="Layer_1" xmlns="http://www.w3.org/2000/svg" xmlns:xlink="http://www.w3.org/1999/xlink" x="0px" y="0px" width="512px" height="512px" viewBox="0 0 512 512" xml:space="preserve">
<polygon points="0,0 512,0 512,512 0,512" style="fill:#ffffff; stroke:#000000;stroke-width:0"/>
<polygon points="-11.4175,127.291 30.8931,121.791 58.6068,334.98 16.2961,340.48" style="fill:#006363; stroke:#000000;stroke-width:0"/>
<circle fill="#006363" stroke="#006363" stroke-width="0" cx="9.73782" cy="124.541" r="21.3333"/>
<circle fill="#006363" stroke="#006363" stroke-width="0" cx="37.4514" cy="337.73" r="21.3333"/>
<polygon points="453.607,187.172 495.295,178.088 540.351,384.864 498.662,393.948" style="fill:#006363; stroke:#000000;stroke-width:0"/>
<circle fill="#006363" stroke="#006363" stroke-width="0" cx="474.451" cy="182.63" r="21.3333"/>
<circle fill="#006363" stroke="#006363" stroke-width="0" cx="519.507" cy="389.406" r="21.3333"/>
<polygon points="1256,469.333 256,1469.33 -744,469.333" style="fill:#000000; stroke:#000000;stroke-width:0"/>
<polygon points="-744,42.6667 256,-957.333 1256,42.6667" style="fill:#000000; stroke:#000000;stroke-width:0"/>
<circle fill="#a64b00" stroke="#a64b00" stroke-width="0" cx="9.73782" cy="124.541" r="21.3333"/>
<circle fill="#a64b00" stroke="#a64b00" stroke-width="0" cx="37.4514" cy="337.73" r="21.3333"/>
<circle fill="#a64b00" stroke="#a64b00" stroke-width="0" cx="474.451" cy="182.63" r="21.3333"/>
<circle fill="#a64b00" stroke="#a64b00" stroke-width="0" cx="519.507" cy="389.406" r="21.3333"/>
<circle fill="#a64b00" stroke="#a64b00" stroke-width="0" cx="439.967" cy="366.946" r="21.3333"/>
</svg>
