<?xml version="1.0" encoding="utf-8"?> <!-- Generator: Adobe Illustrator 13.0.0, SVG Export Plug-In . SVG Version: 6.00 Build 14948)  --> <svg version="1.2" baseProfile="tiny" id="Layer_1" xmlns="http://www.w3.org/2000/svg" xmlns:xlink="http://www.w3.org/1999/xlink" x="0px" y="0px" width="512px" height="512px" viewBox="0 0 512 512" xml:space="preserve">
<polygon points="0,0 512,0 512,512 0,512" style="fill:#ffffff; stroke:#000000;stroke-width:0"/>
<polygon points="-203.147,350.867 -191.77,309.746 6.41028,364.578 -4.96724,405.7" style="fill:#006363; stroke:#000000;stroke-width:0"/>
<circle fill="#006363" stroke="#006363" stroke-width="0" cx="-197.458" cy="330.306" r="21.3333"/>
<circle fill="#006363" stroke="#006363" stroke-width="0" cx="0.721519" cy="385.139" r="21.3333"/>
<polygon points="637.301,179.703 679.703,184.445 655.65,399.513 613.248,394.771" style="fill:#006363; stroke:#000000;stroke-width:0"/>
<circle fill="#006363" stroke="#006363" stroke-width="0" cx="658.502" cy="182.074" r="21.3333"/>
<circle fill="#006363" stroke="#006363" stroke-width="0" cx="634.449" cy="397.142" r="21.3333"/>
<polygon points="1256,469.333 256,1469.33 -744,469.333" style="fill:#000000; stroke:#000000;stroke-width:0"/>
<polygon points="-744,42.6667 256,-957.333 1256,42.6667" style="fill:#000000; stroke:#000000;stroke-width:0"/>
<circle fill="#a64b00" stroke="#a64b00" stroke-width="0" cx="-197.458" cy="330.306" r="21.3333"/>
<circle fill="#a64b00" stroke="#a64b00" stroke-width="0" cx="0.721519" cy="385.139" r="21.3333"/>
<circle fill="#a64b00" stroke="#a64b00" stroke-width="0" cx="658.502" cy="182.074" r="21.3333"/>
<circle fill="#a64b00" stroke="#a64b00" stroke-width="0" cx="634.449" cy="397.142" r="21.3333"/>
<circle fill="#a64b00" stroke="#a64b00" stroke-width="0" cx="298.596" cy="421.212" r="21.3333"/>
</svg>
