<?xml version="1.0" encoding="utf-8"?> <!-- Generator: Adobe Illustrator 13.0.0, SVG Export Plug-In . SVG Version: 6.00 Build 14948)  --> <svg version="1.2" baseProfile="tiny" id="Layer_1" xmlns="http://www.w3.org/2000/svg" xmlns:xlink="http://www.w3.org/1999/xlink" x="0px" y="0px" width="512px" height="512px" viewBox="0 0 512 512" xml:space="preserve">
<polygon points="0,0 512,0 512,512 0,512" style="fill:#ffffff; stroke:#000000;stroke-width:0"/>
<polygon points="-73.4719,236.636 -74.0562,279.299 -284.337,276.418 -283.753,233.755" style="fill:#006363; stroke:#000000;stroke-width:0"/>
<circle fill="#006363" stroke="#006363" stroke-width="0" cx="-73.764" cy="257.967" r="21.3333"/>
<circle fill="#006363" stroke="#006363" stroke-width="0" cx="-284.045" cy="255.087" r="21.3333"/>
<polygon points="740.925,280.826 699.396,271.039 747.676,66.1721 789.205,75.9589" style="fill:#006363; stroke:#000000;stroke-width:0"/>
<circle fill="#006363" stroke="#006363" stroke-width="0" cx="720.161" cy="275.933" r="21.3333"/>
<circle fill="#006363" stroke="#006363" stroke-width="0" cx="768.44" cy="71.0655" r="21.3333"/>
<polygon points="1256,469.333 256,1469.33 -744,469.333" style="fill:#000000; stroke:#000000;stroke-width:0"/>
<polygon points="-744,42.6667 256,-957.333 1256,42.6667" style="fill:#000000; stroke:#000000;stroke-width:0"/>
<circle fill="#a64b00" stroke="#a64b00" stroke-width="0" cx="-73.764" cy="257.967" r="21.3333"/>
<circle fill="#a64b00" stroke="#a64b00" stroke-width="0" cx="-284.045" cy="255.087" r="21.3333"/>
<circle fill="#a64b00" stroke="#a64b00" stroke-width="0" cx="720.161" cy="275.933" r="21.3333"/>
<circle fill="#a64b00" stroke="#a64b00" stroke-width="0" cx="768.44" cy="71.0655" r="21.3333"/>
<circle fill="#a64b00" stroke="#a64b00" stroke-width="0" cx="115.458" cy="220.861" r="21.3333"/>
</svg>
