<?xml version="1.0" encoding="utf-8"?> <!-- Generator: Adobe Illustrator 13.0.0, SVG Export Plug-In . SVG Version: 6.00 Build 14948)  --> <svg version="1.2" baseProfile="tiny" id="Layer_1" xmlns="http://www.w3.org/2000/svg" xmlns:xlink="http://www.w3.org/1999/xlink" x="0px" y="0px" width="512px" height="512px" viewBox="0 0 512 512" xml:space="preserve">
<polygon points="0,0 512,0 512,512 0,512" style="fill:#ffffff; stroke:#000000;stroke-width:0"/>
<polygon points="-138.296,192.893 -97.969,178.959 -29.5838,376.88 -69.9112,390.814" style="fill:#006363; stroke:#000000;stroke-width:0"/>
<circle fill="#006363" stroke="#006363" stroke-width="0" cx="-118.133" cy="185.926" r="21.3333"/>
<circle fill="#006363" stroke="#006363" stroke-width="0" cx="-49.7475" cy="383.847" r="21.3333"/>
<polygon points="694.409,185.458 722.463,217.605 563.49,356.335 535.437,324.188" style="fill:#006363; stroke:#000000;stroke-width:0"/>
<circle fill="#006363" stroke="#006363" stroke-width="0" cx="708.436" cy="201.532" r="21.3333"/>
<circle fill="#006363" stroke="#006363" stroke-width="0" cx="549.463" cy="340.262" r="21.3333"/>
<polygon points="1256,469.333 256,1469.33 -744,469.333" style="fill:#000000; stroke:#000000;stroke-width:0"/>
<polygon points="-744,42.6667 256,-957.333 1256,42.6667" style="fill:#000000; stroke:#000000;stroke-width:0"/>
<circle fill="#a64b00" stroke="#a64b00" stroke-width="0" cx="-118.133" cy="185.926" r="21.3333"/>
<circle fill="#a64b00" stroke="#a64b00" stroke-width="0" cx="-49.7475" cy="383.847" r="21.3333"/>
<circle fill="#a64b00" stroke="#a64b00" stroke-width="0" cx="708.436" cy="201.532" r="21.3333"/>
<circle fill="#a64b00" stroke="#a64b00" stroke-width="0" cx="549.463" cy="340.262" r="21.3333"/>
<circle fill="#a64b00" stroke="#a64b00" stroke-width="0" cx="331.406" cy="220.861" r="21.3333"/>
</svg>
