<?xml version="1.0" encoding="utf-8"?> <!-- Generator: Adobe Illustrator 13.0.0, SVG Export Plug-In . SVG Version: 6.00 Build 14948)  --> <svg version="1.2" baseProfile="tiny" id="Layer_1" xmlns="http://www.w3.org/2000/svg" xmlns:xlink="http://www.w3.org/1999/xlink" x="0px" y="0px" width="512px" height="512px" viewBox="0 0 512 512" xml:space="preserve">
<polygon points="0,0 512,0 512,512 0,512" style="fill:#ffffff; stroke:#000000;stroke-width:0"/>
<polygon points="-101.889,218.996 -59.7984,212.008 -24.5426,424.36 -66.6332,431.348" style="fill:#006363; stroke:#000000;stroke-width:0"/>
<circle fill="#006363" stroke="#006363" stroke-width="0" cx="-80.8437" cy="215.502" r="21.3333"/>
<circle fill="#006363" stroke="#006363" stroke-width="0" cx="-45.5879" cy="427.854" r="21.3333"/>
<polygon points="709.861,259.885 695.284,299.984 497.692,228.156 512.269,188.056" style="fill:#006363; stroke:#000000;stroke-width:0"/>
<circle fill="#006363" stroke="#006363" stroke-width="0" cx="702.573" cy="279.934" r="21.3333"/>
<circle fill="#006363" stroke="#006363" stroke-width="0" cx="504.98" cy="208.106" r="21.3333"/>
<polygon points="1256,469.333 256,1469.33 -744,469.333" style="fill:#000000; stroke:#000000;stroke-width:0"/>
<polygon points="-744,42.6667 256,-957.333 1256,42.6667" style="fill:#000000; stroke:#000000;stroke-width:0"/>
<circle fill="#a64b00" stroke="#a64b00" stroke-width="0" cx="-80.8437" cy="215.502" r="21.3333"/>
<circle fill="#a64b00" stroke="#a64b00" stroke-width="0" cx="-45.5879" cy="427.854" r="21.3333"/>
<circle fill="#a64b00" stroke="#a64b00" stroke-width="0" cx="702.573" cy="279.934" r="21.3333"/>
<circle fill="#a64b00" stroke="#a64b00" stroke-width="0" cx="504.98" cy="208.106" r="21.3333"/>
<circle fill="#a64b00" stroke="#a64b00" stroke-width="0" cx="378.533" cy="192.239" r="21.3333"/>
</svg>
