<?xml version="1.0" encoding="utf-8"?> <!-- Generator: Adobe Illustrator 13.0.0, SVG Export Plug-In . SVG Version: 6.00 Build 14948)  --> <svg version="1.2" baseProfile="tiny" id="Layer_1" xmlns="http://www.w3.org/2000/svg" xmlns:xlink="http://www.w3.org/1999/xlink" x="0px" y="0px" width="512px" height="512px" viewBox="0 0 512 512" xml:space="preserve">
<polygon points="0,0 512,0 512,512 0,512" style="fill:#ffffff; stroke:#000000;stroke-width:0"/>
<polygon points="-145.961,117.956 -134.138,76.9596 76.7182,137.769 64.8954,178.765" style="fill:#006363; stroke:#000000;stroke-width:0"/>
<circle fill="#006363" stroke="#006363" stroke-width="0" cx="-140.05" cy="97.4576" r="21.3333"/>
<circle fill="#006363" stroke="#006363" stroke-width="0" cx="70.8068" cy="158.267" r="21.3333"/>
<polygon points="563.084,317.146 521.729,306.651 575.003,96.7289 616.359,107.224" style="fill:#006363; stroke:#000000;stroke-width:0"/>
<circle fill="#006363" stroke="#006363" stroke-width="0" cx="542.407" cy="311.898" r="21.3333"/>
<circle fill="#006363" stroke="#006363" stroke-width="0" cx="595.681" cy="101.977" r="21.3333"/>
<polygon points="1256,469.333 256,1469.33 -744,469.333" style="fill:#000000; stroke:#000000;stroke-width:0"/>
<polygon points="-744,42.6667 256,-957.333 1256,42.6667" style="fill:#000000; stroke:#000000;stroke-width:0"/>
<circle fill="#a64b00" stroke="#a64b00" stroke-width="0" cx="-140.05" cy="97.4576" r="21.3333"/>
<circle fill="#a64b00" stroke="#a64b00" stroke-width="0" cx="70.8068" cy="158.267" r="21.3333"/>
<circle fill="#a64b00" stroke="#a64b00" stroke-width="0" cx="542.407" cy="311.898" r="21.3333"/>
<circle fill="#a64b00" stroke="#a64b00" stroke-width="0" cx="595.681" cy="101.977" r="21.3333"/>
<circle fill="#a64b00" stroke="#a64b00" stroke-width="0" cx="443.556" cy="449.833" r="21.3333"/>
</svg>
