<?xml version="1.0" encoding="utf-8"?> <!-- Generator: Adobe Illustrator 13.0.0, SVG Export Plug-In . SVG Version: 6.00 Build 14948)  --> <svg version="1.2" baseProfile="tiny" id="Layer_1" xmlns="http://www.w3.org/2000/svg" xmlns:xlink="http://www.w3.org/1999/xlink" x="0px" y="0px" width="512px" height="512px" viewBox="0 0 512 512" xml:space="preserve">
<polygon points="0,0 512,0 512,512 0,512" style="fill:#ffffff; stroke:#000000;stroke-width:0"/>
<polygon points="-130.492,88.0511 -129.957,45.3878 76.9891,47.9843 76.4538,90.6476" style="fill:#006363; stroke:#000000;stroke-width:0"/>
<circle fill="#006363" stroke="#006363" stroke-width="0" cx="-130.224" cy="66.7194" r="21.3333"/>
<circle fill="#006363" stroke="#006363" stroke-width="0" cx="76.7215" cy="69.3159" r="21.3333"/>
<polygon points="512.528,293.176 478.648,267.243 606.44,100.286 640.321,126.219" style="fill:#006363; stroke:#000000;stroke-width:0"/>
<circle fill="#006363" stroke="#006363" stroke-width="0" cx="495.588" cy="280.21" r="21.3333"/>
<circle fill="#006363" stroke="#006363" stroke-width="0" cx="623.38" cy="113.253" r="21.3333"/>
<polygon points="1256,469.333 256,1469.33 -744,469.333" style="fill:#000000; stroke:#000000;stroke-width:0"/>
<polygon points="-744,42.6667 256,-957.333 1256,42.6667" style="fill:#000000; stroke:#000000;stroke-width:0"/>
<circle fill="#a64b00" stroke="#a64b00" stroke-width="0" cx="-130.224" cy="66.7194" r="21.3333"/>
<circle fill="#a64b00" stroke="#a64b00" stroke-width="0" cx="76.7215" cy="69.3159" r="21.3333"/>
<circle fill="#a64b00" stroke="#a64b00" stroke-width="0" cx="495.588" cy="280.21" r="21.3333"/>
<circle fill="#a64b00" stroke="#a64b00" stroke-width="0" cx="623.38" cy="113.253" r="21.3333"/>
<circle fill="#a64b00" stroke="#a64b00" stroke-width="0" cx="461.452" cy="163.617" r="21.3333"/>
</svg>
