<?xml version="1.0" encoding="utf-8"?> <!-- Generator: Adobe Illustrator 13.0.0, SVG Export Plug-In . SVG Version: 6.00 Build 14948)  --> <svg version="1.2" baseProfile="tiny" id="Layer_1" xmlns="http://www.w3.org/2000/svg" xmlns:xlink="http://www.w3.org/1999/xlink" x="0px" y="0px" width="512px" height="512px" viewBox="0 0 512 512" xml:space="preserve">
<polygon points="0,0 512,0 512,512 0,512" style="fill:#ffffff; stroke:#000000;stroke-width:0"/>
<polygon points="-80.1827,156.957 -74.3889,199.228 -290.743,228.882 -296.537,186.611" style="fill:#006363; stroke:#000000;stroke-width:0"/>
<circle fill="#006363" stroke="#006363" stroke-width="0" cx="-77.2858" cy="178.092" r="21.3333"/>
<circle fill="#006363" stroke="#006363" stroke-width="0" cx="-293.64" cy="207.746" r="21.3333"/>
<polygon points="744.079,296.305 703.011,284.733 760.455,80.8768 801.523,92.449" style="fill:#006363; stroke:#000000;stroke-width:0"/>
<circle fill="#006363" stroke="#006363" stroke-width="0" cx="723.545" cy="290.519" r="21.3333"/>
<circle fill="#006363" stroke="#006363" stroke-width="0" cx="780.989" cy="86.6629" r="21.3333"/>
<polygon points="1256,469.333 256,1469.33 -744,469.333" style="fill:#000000; stroke:#000000;stroke-width:0"/>
<polygon points="-744,42.6667 256,-957.333 1256,42.6667" style="fill:#000000; stroke:#000000;stroke-width:0"/>
<circle fill="#a64b00" stroke="#a64b00" stroke-width="0" cx="-77.2858" cy="178.092" r="21.3333"/>
<circle fill="#a64b00" stroke="#a64b00" stroke-width="0" cx="-293.64" cy="207.746" r="21.3333"/>
<circle fill="#a64b00" stroke="#a64b00" stroke-width="0" cx="723.545" cy="290.519" r="21.3333"/>
<circle fill="#a64b00" stroke="#a64b00" stroke-width="0" cx="780.989" cy="86.6629" r="21.3333"/>
<circle fill="#a64b00" stroke="#a64b00" stroke-width="0" cx="100.544" cy="440.293" r="21.3333"/>
</svg>
