<?xml version="1.0" encoding="utf-8"?> <!-- Generator: Adobe Illustrator 13.0.0, SVG Export Plug-In . SVG Version: 6.00 Build 14948)  --> <svg version="1.2" baseProfile="tiny" id="Layer_1" xmlns="http://www.w3.org/2000/svg" xmlns:xlink="http://www.w3.org/1999/xlink" x="0px" y="0px" width="512px" height="512px" viewBox="0 0 512 512" xml:space="preserve">
<polygon points="0,0 512,0 512,512 0,512" style="fill:#ffffff; stroke:#000000;stroke-width:0"/>
<polygon points="-217.281,237.474 -234.925,198.627 -45.5637,112.62 -27.9195,151.467" style="fill:#006363; stroke:#000000;stroke-width:0"/>
<circle fill="#006363" stroke="#006363" stroke-width="0" cx="-226.103" cy="218.05" r="21.3333"/>
<circle fill="#006363" stroke="#006363" stroke-width="0" cx="-36.7416" cy="132.044" r="21.3333"/>
<polygon points="581.811,355.645 581.065,312.985 791.439,309.304 792.186,351.964" style="fill:#006363; stroke:#000000;stroke-width:0"/>
<circle fill="#006363" stroke="#006363" stroke-width="0" cx="581.438" cy="334.315" r="21.3333"/>
<circle fill="#006363" stroke="#006363" stroke-width="0" cx="791.812" cy="330.634" r="21.3333"/>
<polygon points="1256,469.333 256,1469.33 -744,469.333" style="fill:#000000; stroke:#000000;stroke-width:0"/>
<polygon points="-744,42.6667 256,-957.333 1256,42.6667" style="fill:#000000; stroke:#000000;stroke-width:0"/>
<circle fill="#a64b00" stroke="#a64b00" stroke-width="0" cx="-226.103" cy="218.05" r="21.3333"/>
<circle fill="#a64b00" stroke="#a64b00" stroke-width="0" cx="-36.7416" cy="132.044" r="21.3333"/>
<circle fill="#a64b00" stroke="#a64b00" stroke-width="0" cx="581.438" cy="334.315" r="21.3333"/>
<circle fill="#a64b00" stroke="#a64b00" stroke-width="0" cx="791.812" cy="330.634" r="21.3333"/>
<circle fill="#a64b00" stroke="#a64b00" stroke-width="0" cx="223.432" cy="58.6716" r="21.3333"/>
</svg>
