<?xml version="1.0" encoding="utf-8"?> <!-- Generator: Adobe Illustrator 13.0.0, SVG Export Plug-In . SVG Version: 6.00 Build 14948)  --> <svg version="1.2" baseProfile="tiny" id="Layer_1" xmlns="http://www.w3.org/2000/svg" xmlns:xlink="http://www.w3.org/1999/xlink" x="0px" y="0px" width="512px" height="512px" viewBox="0 0 512 512" xml:space="preserve">
<polygon points="0,0 512,0 512,512 0,512" style="fill:#ffffff; stroke:#000000;stroke-width:0"/>
<polygon points="-44.4402,236.562 -3.23941,225.474 53.102,434.828 11.9013,445.916" style="fill:#006363; stroke:#000000;stroke-width:0"/>
<circle fill="#006363" stroke="#006363" stroke-width="0" cx="-23.8398" cy="231.018" r="21.3333"/>
<circle fill="#006363" stroke="#006363" stroke-width="0" cx="32.5016" cy="440.372" r="21.3333"/>
<polygon points="433.987,94.5008 465.506,65.7436 611.052,225.269 579.532,254.026" style="fill:#006363; stroke:#000000;stroke-width:0"/>
<circle fill="#006363" stroke="#006363" stroke-width="0" cx="449.746" cy="80.1222" r="21.3333"/>
<circle fill="#006363" stroke="#006363" stroke-width="0" cx="595.292" cy="239.647" r="21.3333"/>
<polygon points="1256,469.333 256,1469.33 -744,469.333" style="fill:#000000; stroke:#000000;stroke-width:0"/>
<polygon points="-744,42.6667 256,-957.333 1256,42.6667" style="fill:#000000; stroke:#000000;stroke-width:0"/>
<circle fill="#a64b00" stroke="#a64b00" stroke-width="0" cx="-23.8398" cy="231.018" r="21.3333"/>
<circle fill="#a64b00" stroke="#a64b00" stroke-width="0" cx="32.5016" cy="440.372" r="21.3333"/>
<circle fill="#a64b00" stroke="#a64b00" stroke-width="0" cx="449.746" cy="80.1222" r="21.3333"/>
<circle fill="#a64b00" stroke="#a64b00" stroke-width="0" cx="595.292" cy="239.647" r="21.3333"/>
<circle fill="#a64b00" stroke="#a64b00" stroke-width="0" cx="208.649" cy="413.509" r="21.3333"/>
</svg>
