<?xml version="1.0" encoding="utf-8"?> <!-- Generator: Adobe Illustrator 13.0.0, SVG Export Plug-In . SVG Version: 6.00 Build 14948)  --> <svg version="1.2" baseProfile="tiny" id="Layer_1" xmlns="http://www.w3.org/2000/svg" xmlns:xlink="http://www.w3.org/1999/xlink" x="0px" y="0px" width="512px" height="512px" viewBox="0 0 512 512" xml:space="preserve">
<polygon points="0,0 512,0 512,512 0,512" style="fill:#ffffff; stroke:#000000;stroke-width:0"/>
<polygon points="-137.39,92.3986 -137.725,49.7333 81.7879,48.0055 82.1237,90.6709" style="fill:#006363; stroke:#000000;stroke-width:0"/>
<circle fill="#006363" stroke="#006363" stroke-width="0" cx="-137.557" cy="71.0659" r="21.3333"/>
<circle fill="#006363" stroke="#006363" stroke-width="0" cx="81.9558" cy="69.3382" r="21.3333"/>
<polygon points="517.281,299.547 482.052,275.478 604.236,96.6369 639.466,120.706" style="fill:#006363; stroke:#000000;stroke-width:0"/>
<circle fill="#006363" stroke="#006363" stroke-width="0" cx="499.667" cy="287.513" r="21.3333"/>
<circle fill="#006363" stroke="#006363" stroke-width="0" cx="621.851" cy="108.671" r="21.3333"/>
<polygon points="1256,469.333 256,1469.33 -744,469.333" style="fill:#000000; stroke:#000000;stroke-width:0"/>
<polygon points="-744,42.6667 256,-957.333 1256,42.6667" style="fill:#000000; stroke:#000000;stroke-width:0"/>
<circle fill="#a64b00" stroke="#a64b00" stroke-width="0" cx="-137.557" cy="71.0659" r="21.3333"/>
<circle fill="#a64b00" stroke="#a64b00" stroke-width="0" cx="81.9558" cy="69.3382" r="21.3333"/>
<circle fill="#a64b00" stroke="#a64b00" stroke-width="0" cx="499.667" cy="287.513" r="21.3333"/>
<circle fill="#a64b00" stroke="#a64b00" stroke-width="0" cx="621.851" cy="108.671" r="21.3333"/>
<circle fill="#a64b00" stroke="#a64b00" stroke-width="0" cx="459.066" cy="201.779" r="21.3333"/>
</svg>
