<?xml version="1.0" encoding="utf-8"?> <!-- Generator: Adobe Illustrator 13.0.0, SVG Export Plug-In . SVG Version: 6.00 Build 14948)  --> <svg version="1.2" baseProfile="tiny" id="Layer_1" xmlns="http://www.w3.org/2000/svg" xmlns:xlink="http://www.w3.org/1999/xlink" x="0px" y="0px" width="512px" height="512px" viewBox="0 0 512 512" xml:space="preserve">
<polygon points="0,0 512,0 512,512 0,512" style="fill:#ffffff; stroke:#000000;stroke-width:0"/>
<polygon points="-130.625,183.625 -97.1582,157.159 32.0002,320.481 -1.4661,346.947" style="fill:#006363; stroke:#000000;stroke-width:0"/>
<circle fill="#006363" stroke="#006363" stroke-width="0" cx="-113.891" cy="170.392" r="21.3333"/>
<circle fill="#006363" stroke="#006363" stroke-width="0" cx="15.2671" cy="333.714" r="21.3333"/>
<polygon points="656.64,307.7 619.335,328.406 517.136,144.279 554.441,123.572" style="fill:#006363; stroke:#000000;stroke-width:0"/>
<circle fill="#006363" stroke="#006363" stroke-width="0" cx="637.987" cy="318.053" r="21.3333"/>
<circle fill="#006363" stroke="#006363" stroke-width="0" cx="535.789" cy="133.925" r="21.3333"/>
<polygon points="1256,469.333 256,1469.33 -744,469.333" style="fill:#000000; stroke:#000000;stroke-width:0"/>
<polygon points="-744,42.6667 256,-957.333 1256,42.6667" style="fill:#000000; stroke:#000000;stroke-width:0"/>
<circle fill="#a64b00" stroke="#a64b00" stroke-width="0" cx="-113.891" cy="170.392" r="21.3333"/>
<circle fill="#a64b00" stroke="#a64b00" stroke-width="0" cx="15.2671" cy="333.714" r="21.3333"/>
<circle fill="#a64b00" stroke="#a64b00" stroke-width="0" cx="637.987" cy="318.053" r="21.3333"/>
<circle fill="#a64b00" stroke="#a64b00" stroke-width="0" cx="535.789" cy="133.925" r="21.3333"/>
<circle fill="#a64b00" stroke="#a64b00" stroke-width="0" cx="410.15" cy="201.779" r="21.3333"/>
</svg>
