<?xml version="1.0" encoding="utf-8"?> <!-- Generator: Adobe Illustrator 13.0.0, SVG Export Plug-In . SVG Version: 6.00 Build 14948)  --> <svg version="1.2" baseProfile="tiny" id="Layer_1" xmlns="http://www.w3.org/2000/svg" xmlns:xlink="http://www.w3.org/1999/xlink" x="0px" y="0px" width="512px" height="512px" viewBox="0 0 512 512" xml:space="preserve">
<polygon points="0,0 512,0 512,512 0,512" style="fill:#ffffff; stroke:#000000;stroke-width:0"/>
<polygon points="-108.225,155.084 -81.5619,121.774 88.3007,257.744 61.6375,291.054" style="fill:#006363; stroke:#000000;stroke-width:0"/>
<circle fill="#006363" stroke="#006363" stroke-width="0" cx="-94.8935" cy="138.429" r="21.3333"/>
<circle fill="#006363" stroke="#006363" stroke-width="0" cx="74.9691" cy="274.399" r="21.3333"/>
<polygon points="435.476,207.402 432.286,164.854 646.808,148.769 649.999,191.317" style="fill:#006363; stroke:#000000;stroke-width:0"/>
<circle fill="#006363" stroke="#006363" stroke-width="0" cx="433.881" cy="186.128" r="21.3333"/>
<circle fill="#006363" stroke="#006363" stroke-width="0" cx="648.404" cy="170.043" r="21.3333"/>
<polygon points="1256,469.333 256,1469.33 -744,469.333" style="fill:#000000; stroke:#000000;stroke-width:0"/>
<polygon points="-744,42.6667 256,-957.333 1256,42.6667" style="fill:#000000; stroke:#000000;stroke-width:0"/>
<circle fill="#a64b00" stroke="#a64b00" stroke-width="0" cx="-94.8935" cy="138.429" r="21.3333"/>
<circle fill="#a64b00" stroke="#a64b00" stroke-width="0" cx="74.9691" cy="274.399" r="21.3333"/>
<circle fill="#a64b00" stroke="#a64b00" stroke-width="0" cx="433.881" cy="186.128" r="21.3333"/>
<circle fill="#a64b00" stroke="#a64b00" stroke-width="0" cx="648.404" cy="170.043" r="21.3333"/>
<circle fill="#a64b00" stroke="#a64b00" stroke-width="0" cx="89.316" cy="185.74" r="21.3333"/>
</svg>
