<?xml version="1.0" encoding="utf-8"?> <!-- Generator: Adobe Illustrator 13.0.0, SVG Export Plug-In . SVG Version: 6.00 Build 14948)  --> <svg version="1.2" baseProfile="tiny" id="Layer_1" xmlns="http://www.w3.org/2000/svg" xmlns:xlink="http://www.w3.org/1999/xlink" x="0px" y="0px" width="512px" height="512px" viewBox="0 0 512 512" xml:space="preserve">
<polygon points="0,0 512,0 512,512 0,512" style="fill:#ffffff; stroke:#000000;stroke-width:0"/>
<polygon points="-190.978,243.441 -220.285,212.432 -66.6195,67.2058 -37.3132,98.2153" style="fill:#006363; stroke:#000000;stroke-width:0"/>
<circle fill="#006363" stroke="#006363" stroke-width="0" cx="-205.632" cy="227.936" r="21.3333"/>
<circle fill="#006363" stroke="#006363" stroke-width="0" cx="-51.9664" cy="82.7105" r="21.3333"/>
<polygon points="575.394,337.772 580.407,295.401 791.483,320.373 786.47,362.744" style="fill:#006363; stroke:#000000;stroke-width:0"/>
<circle fill="#006363" stroke="#006363" stroke-width="0" cx="577.9" cy="316.586" r="21.3333"/>
<circle fill="#006363" stroke="#006363" stroke-width="0" cx="788.977" cy="341.559" r="21.3333"/>
<polygon points="1256,469.333 256,1469.33 -744,469.333" style="fill:#000000; stroke:#000000;stroke-width:0"/>
<polygon points="-744,42.6667 256,-957.333 1256,42.6667" style="fill:#000000; stroke:#000000;stroke-width:0"/>
<circle fill="#a64b00" stroke="#a64b00" stroke-width="0" cx="-205.632" cy="227.936" r="21.3333"/>
<circle fill="#a64b00" stroke="#a64b00" stroke-width="0" cx="-51.9664" cy="82.7105" r="21.3333"/>
<circle fill="#a64b00" stroke="#a64b00" stroke-width="0" cx="577.9" cy="316.586" r="21.3333"/>
<circle fill="#a64b00" stroke="#a64b00" stroke-width="0" cx="788.977" cy="341.559" r="21.3333"/>
<circle fill="#a64b00" stroke="#a64b00" stroke-width="0" cx="229.397" cy="154.077" r="21.3333"/>
</svg>
