<?xml version="1.0" encoding="utf-8"?> <!-- Generator: Adobe Illustrator 13.0.0, SVG Export Plug-In . SVG Version: 6.00 Build 14948)  --> <svg version="1.2" baseProfile="tiny" id="Layer_1" xmlns="http://www.w3.org/2000/svg" xmlns:xlink="http://www.w3.org/1999/xlink" x="0px" y="0px" width="512px" height="512px" viewBox="0 0 512 512" xml:space="preserve">
<polygon points="0,0 512,0 512,512 0,512" style="fill:#ffffff; stroke:#000000;stroke-width:0"/>
<polygon points="-73.2603,191.7 -70.2163,234.258 -291.894,250.114 -294.938,207.556" style="fill:#006363; stroke:#000000;stroke-width:0"/>
<circle fill="#006363" stroke="#006363" stroke-width="0" cx="-71.7383" cy="212.979" r="21.3333"/>
<circle fill="#006363" stroke="#006363" stroke-width="0" cx="-293.416" cy="228.835" r="21.3333"/>
<polygon points="744.011,284.034 702.653,273.548 753.513,72.9499 794.871,83.4358" style="fill:#006363; stroke:#000000;stroke-width:0"/>
<circle fill="#006363" stroke="#006363" stroke-width="0" cx="723.332" cy="278.791" r="21.3333"/>
<circle fill="#006363" stroke="#006363" stroke-width="0" cx="774.192" cy="78.1929" r="21.3333"/>
<polygon points="1256,469.333 256,1469.33 -744,469.333" style="fill:#000000; stroke:#000000;stroke-width:0"/>
<polygon points="-744,42.6667 256,-957.333 1256,42.6667" style="fill:#000000; stroke:#000000;stroke-width:0"/>
<circle fill="#a64b00" stroke="#a64b00" stroke-width="0" cx="-71.7383" cy="212.979" r="21.3333"/>
<circle fill="#a64b00" stroke="#a64b00" stroke-width="0" cx="-293.416" cy="228.835" r="21.3333"/>
<circle fill="#a64b00" stroke="#a64b00" stroke-width="0" cx="723.332" cy="278.791" r="21.3333"/>
<circle fill="#a64b00" stroke="#a64b00" stroke-width="0" cx="774.192" cy="78.1929" r="21.3333"/>
<circle fill="#a64b00" stroke="#a64b00" stroke-width="0" cx="107.106" cy="354.428" r="21.3333"/>
</svg>
