<?xml version="1.0" encoding="utf-8"?> <!-- Generator: Adobe Illustrator 13.0.0, SVG Export Plug-In . SVG Version: 6.00 Build 14948)  --> <svg version="1.2" baseProfile="tiny" id="Layer_1" xmlns="http://www.w3.org/2000/svg" xmlns:xlink="http://www.w3.org/1999/xlink" x="0px" y="0px" width="512px" height="512px" viewBox="0 0 512 512" xml:space="preserve">
<polygon points="0,0 512,0 512,512 0,512" style="fill:#ffffff; stroke:#000000;stroke-width:0"/>
<polygon points="-27.4686,184.205 14.3824,175.903 55.3942,382.626 13.5432,390.929" style="fill:#006363; stroke:#000000;stroke-width:0"/>
<circle fill="#006363" stroke="#006363" stroke-width="0" cx="-6.54314" cy="180.054" r="21.3333"/>
<circle fill="#006363" stroke="#006363" stroke-width="0" cx="34.4687" cy="386.777" r="21.3333"/>
<polygon points="447.777,117.454 486.99,100.639 571.721,298.23 532.508,315.045" style="fill:#006363; stroke:#000000;stroke-width:0"/>
<circle fill="#006363" stroke="#006363" stroke-width="0" cx="467.384" cy="109.046" r="21.3333"/>
<circle fill="#006363" stroke="#006363" stroke-width="0" cx="552.115" cy="306.637" r="21.3333"/>
<polygon points="1256,469.333 256,1469.33 -744,469.333" style="fill:#000000; stroke:#000000;stroke-width:0"/>
<polygon points="-744,42.6667 256,-957.333 1256,42.6667" style="fill:#000000; stroke:#000000;stroke-width:0"/>
<circle fill="#a64b00" stroke="#a64b00" stroke-width="0" cx="-6.54314" cy="180.054" r="21.3333"/>
<circle fill="#a64b00" stroke="#a64b00" stroke-width="0" cx="34.4687" cy="386.777" r="21.3333"/>
<circle fill="#a64b00" stroke="#a64b00" stroke-width="0" cx="467.384" cy="109.046" r="21.3333"/>
<circle fill="#a64b00" stroke="#a64b00" stroke-width="0" cx="552.115" cy="306.637" r="21.3333"/>
<circle fill="#a64b00" stroke="#a64b00" stroke-width="0" cx="324.308" cy="118.61" r="21.3333"/>
</svg>
