<?xml version="1.0" encoding="utf-8"?> <!-- Generator: Adobe Illustrator 13.0.0, SVG Export Plug-In . SVG Version: 6.00 Build 14948)  --> <svg version="1.2" baseProfile="tiny" id="Layer_1" xmlns="http://www.w3.org/2000/svg" xmlns:xlink="http://www.w3.org/1999/xlink" x="0px" y="0px" width="512px" height="512px" viewBox="0 0 512 512" xml:space="preserve">
<polygon points="0,0 512,0 512,512 0,512" style="fill:#ffffff; stroke:#000000;stroke-width:0"/>
<polygon points="-333.079,286.42 -368.649,262.858 -247.189,79.5007 -211.618,103.063" style="fill:#006363; stroke:#000000;stroke-width:0"/>
<circle fill="#006363" stroke="#006363" stroke-width="0" cx="-350.864" cy="274.639" r="21.3333"/>
<circle fill="#006363" stroke="#006363" stroke-width="0" cx="-229.404" cy="91.2821" r="21.3333"/>
<polygon points="810.853,253.331 848.398,233.062 947.963,417.489 910.418,437.758" style="fill:#006363; stroke:#000000;stroke-width:0"/>
<circle fill="#006363" stroke="#006363" stroke-width="0" cx="829.625" cy="243.196" r="21.3333"/>
<circle fill="#006363" stroke="#006363" stroke-width="0" cx="929.19" cy="427.623" r="21.3333"/>
<polygon points="1256,469.333 256,1469.33 -744,469.333" style="fill:#000000; stroke:#000000;stroke-width:0"/>
<polygon points="-744,42.6667 256,-957.333 1256,42.6667" style="fill:#000000; stroke:#000000;stroke-width:0"/>
<circle fill="#a64b00" stroke="#a64b00" stroke-width="0" cx="-350.864" cy="274.639" r="21.3333"/>
<circle fill="#a64b00" stroke="#a64b00" stroke-width="0" cx="-229.404" cy="91.2821" r="21.3333"/>
<circle fill="#a64b00" stroke="#a64b00" stroke-width="0" cx="829.625" cy="243.196" r="21.3333"/>
<circle fill="#a64b00" stroke="#a64b00" stroke-width="0" cx="929.19" cy="427.623" r="21.3333"/>
<circle fill="#a64b00" stroke="#a64b00" stroke-width="0" cx="-137.476" cy="354.428" r="21.3333"/>
</svg>
