<?xml version="1.0" encoding="utf-8"?> <!-- Generator: Adobe Illustrator 13.0.0, SVG Export Plug-In . SVG Version: 6.00 Build 14948)  --> <svg version="1.2" baseProfile="tiny" id="Layer_1" xmlns="http://www.w3.org/2000/svg" xmlns:xlink="http://www.w3.org/1999/xlink" x="0px" y="0px" width="512px" height="512px" viewBox="0 0 512 512" xml:space="preserve">
<polygon points="0,0 512,0 512,512 0,512" style="fill:#ffffff; stroke:#000000;stroke-width:0"/>
<polygon points="-106.955,121.201 -111.268,163.649 -323.783,142.054 -319.47,99.6061" style="fill:#006363; stroke:#000000;stroke-width:0"/>
<circle fill="#006363" stroke="#006363" stroke-width="0" cx="-109.111" cy="142.425" r="21.3333"/>
<circle fill="#006363" stroke="#006363" stroke-width="0" cx="-321.626" cy="120.83" r="21.3333"/>
<polygon points="750.717,396.859 714.234,374.736 826.469,189.647 862.952,211.77" style="fill:#006363; stroke:#000000;stroke-width:0"/>
<circle fill="#006363" stroke="#006363" stroke-width="0" cx="732.475" cy="385.797" r="21.3333"/>
<circle fill="#006363" stroke="#006363" stroke-width="0" cx="844.71" cy="200.709" r="21.3333"/>
<polygon points="1256,469.333 256,1469.33 -744,469.333" style="fill:#000000; stroke:#000000;stroke-width:0"/>
<polygon points="-744,42.6667 256,-957.333 1256,42.6667" style="fill:#000000; stroke:#000000;stroke-width:0"/>
<circle fill="#a64b00" stroke="#a64b00" stroke-width="0" cx="-109.111" cy="142.425" r="21.3333"/>
<circle fill="#a64b00" stroke="#a64b00" stroke-width="0" cx="-321.626" cy="120.83" r="21.3333"/>
<circle fill="#a64b00" stroke="#a64b00" stroke-width="0" cx="732.475" cy="385.797" r="21.3333"/>
<circle fill="#a64b00" stroke="#a64b00" stroke-width="0" cx="844.71" cy="200.709" r="21.3333"/>
<circle fill="#a64b00" stroke="#a64b00" stroke-width="0" cx="32.5386" cy="134.996" r="21.3333"/>
</svg>
