<?xml version="1.0" encoding="utf-8"?> <!-- Generator: Adobe Illustrator 13.0.0, SVG Export Plug-In . SVG Version: 6.00 Build 14948)  --> <svg version="1.2" baseProfile="tiny" id="Layer_1" xmlns="http://www.w3.org/2000/svg" xmlns:xlink="http://www.w3.org/1999/xlink" x="0px" y="0px" width="512px" height="512px" viewBox="0 0 512 512" xml:space="preserve">
<polygon points="0,0 512,0 512,512 0,512" style="fill:#ffffff; stroke:#000000;stroke-width:0"/>
<polygon points="-71.4741,283.889 -75.8387,326.332 -278.465,305.494 -274.101,263.051" style="fill:#006363; stroke:#000000;stroke-width:0"/>
<circle fill="#006363" stroke="#006363" stroke-width="0" cx="-73.6564" cy="305.11" r="21.3333"/>
<circle fill="#006363" stroke="#006363" stroke-width="0" cx="-276.283" cy="284.273" r="21.3333"/>
<polygon points="730.503,308.332 689.475,296.62 748.539,89.7241 789.567,101.437" style="fill:#006363; stroke:#000000;stroke-width:0"/>
<circle fill="#006363" stroke="#006363" stroke-width="0" cx="709.989" cy="302.476" r="21.3333"/>
<circle fill="#006363" stroke="#006363" stroke-width="0" cx="769.053" cy="95.5804" r="21.3333"/>
<polygon points="1256,469.333 256,1469.33 -744,469.333" style="fill:#000000; stroke:#000000;stroke-width:0"/>
<polygon points="-744,42.6667 256,-957.333 1256,42.6667" style="fill:#000000; stroke:#000000;stroke-width:0"/>
<circle fill="#a64b00" stroke="#a64b00" stroke-width="0" cx="-73.6564" cy="305.11" r="21.3333"/>
<circle fill="#a64b00" stroke="#a64b00" stroke-width="0" cx="-276.283" cy="284.273" r="21.3333"/>
<circle fill="#a64b00" stroke="#a64b00" stroke-width="0" cx="709.989" cy="302.476" r="21.3333"/>
<circle fill="#a64b00" stroke="#a64b00" stroke-width="0" cx="769.053" cy="95.5804" r="21.3333"/>
<circle fill="#a64b00" stroke="#a64b00" stroke-width="0" cx="124.406" cy="77.7526" r="21.3333"/>
</svg>
