<?xml version="1.0" encoding="utf-8"?> <!-- Generator: Adobe Illustrator 13.0.0, SVG Export Plug-In . SVG Version: 6.00 Build 14948)  --> <svg version="1.2" baseProfile="tiny" id="Layer_1" xmlns="http://www.w3.org/2000/svg" xmlns:xlink="http://www.w3.org/1999/xlink" x="0px" y="0px" width="512px" height="512px" viewBox="0 0 512 512" xml:space="preserve">
<polygon points="0,0 512,0 512,512 0,512" style="fill:#ffffff; stroke:#000000;stroke-width:0"/>
<polygon points="-130.032,154.533 -88.9067,143.167 -33.1266,344.989 -74.2514,356.355" style="fill:#006363; stroke:#000000;stroke-width:0"/>
<circle fill="#006363" stroke="#006363" stroke-width="0" cx="-109.469" cy="148.85" r="21.3333"/>
<circle fill="#006363" stroke="#006363" stroke-width="0" cx="-53.689" cy="350.672" r="21.3333"/>
<polygon points="701.248,191.076 725.198,226.387 550.915,344.594 526.966,309.283" style="fill:#006363; stroke:#000000;stroke-width:0"/>
<circle fill="#006363" stroke="#006363" stroke-width="0" cx="713.223" cy="208.732" r="21.3333"/>
<circle fill="#006363" stroke="#006363" stroke-width="0" cx="538.941" cy="326.938" r="21.3333"/>
<polygon points="1256,469.333 256,1469.33 -744,469.333" style="fill:#000000; stroke:#000000;stroke-width:0"/>
<polygon points="-744,42.6667 256,-957.333 1256,42.6667" style="fill:#000000; stroke:#000000;stroke-width:0"/>
<circle fill="#a64b00" stroke="#a64b00" stroke-width="0" cx="-109.469" cy="148.85" r="21.3333"/>
<circle fill="#a64b00" stroke="#a64b00" stroke-width="0" cx="-53.689" cy="350.672" r="21.3333"/>
<circle fill="#a64b00" stroke="#a64b00" stroke-width="0" cx="713.223" cy="208.732" r="21.3333"/>
<circle fill="#a64b00" stroke="#a64b00" stroke-width="0" cx="538.941" cy="326.938" r="21.3333"/>
<circle fill="#a64b00" stroke="#a64b00" stroke-width="0" cx="336.775" cy="306.725" r="21.3333"/>
</svg>
