<?xml version="1.0" encoding="utf-8"?> <!-- Generator: Adobe Illustrator 13.0.0, SVG Export Plug-In . SVG Version: 6.00 Build 14948)  --> <svg version="1.2" baseProfile="tiny" id="Layer_1" xmlns="http://www.w3.org/2000/svg" xmlns:xlink="http://www.w3.org/1999/xlink" x="0px" y="0px" width="512px" height="512px" viewBox="0 0 512 512" xml:space="preserve">
<polygon points="0,0 512,0 512,512 0,512" style="fill:#ffffff; stroke:#000000;stroke-width:0"/>
<polygon points="-160.855,385.48 -195.883,361.118 -74.1824,186.135 -39.1546,210.497" style="fill:#006363; stroke:#000000;stroke-width:0"/>
<circle fill="#006363" stroke="#006363" stroke-width="0" cx="-178.369" cy="373.299" r="21.3333"/>
<circle fill="#006363" stroke="#006363" stroke-width="0" cx="-56.6685" cy="198.316" r="21.3333"/>
<polygon points="574.956,262.798 602.372,230.106 764.518,366.088 737.101,398.78" style="fill:#006363; stroke:#000000;stroke-width:0"/>
<circle fill="#006363" stroke="#006363" stroke-width="0" cx="588.664" cy="246.452" r="21.3333"/>
<circle fill="#006363" stroke="#006363" stroke-width="0" cx="750.81" cy="382.434" r="21.3333"/>
<polygon points="1256,469.333 256,1469.33 -744,469.333" style="fill:#000000; stroke:#000000;stroke-width:0"/>
<polygon points="-744,42.6667 256,-957.333 1256,42.6667" style="fill:#000000; stroke:#000000;stroke-width:0"/>
<circle fill="#a64b00" stroke="#a64b00" stroke-width="0" cx="-178.369" cy="373.299" r="21.3333"/>
<circle fill="#a64b00" stroke="#a64b00" stroke-width="0" cx="-56.6685" cy="198.316" r="21.3333"/>
<circle fill="#a64b00" stroke="#a64b00" stroke-width="0" cx="588.664" cy="246.452" r="21.3333"/>
<circle fill="#a64b00" stroke="#a64b00" stroke-width="0" cx="750.81" cy="382.434" r="21.3333"/>
<circle fill="#a64b00" stroke="#a64b00" stroke-width="0" cx="255.049" cy="335.347" r="21.3333"/>
</svg>
