<?xml version="1.0" encoding="utf-8"?> <!-- Generator: Adobe Illustrator 13.0.0, SVG Export Plug-In . SVG Version: 6.00 Build 14948)  --> <svg version="1.2" baseProfile="tiny" id="Layer_1" xmlns="http://www.w3.org/2000/svg" xmlns:xlink="http://www.w3.org/1999/xlink" x="0px" y="0px" width="512px" height="512px" viewBox="0 0 512 512" xml:space="preserve">
<polygon points="0,0 512,0 512,512 0,512" style="fill:#ffffff; stroke:#000000;stroke-width:0"/>
<polygon points="-98.035,95.6588 -87.2054,136.928 -283.384,188.408 -294.214,147.139" style="fill:#006363; stroke:#000000;stroke-width:0"/>
<circle fill="#006363" stroke="#006363" stroke-width="0" cx="-92.6202" cy="116.293" r="21.3333"/>
<circle fill="#006363" stroke="#006363" stroke-width="0" cx="-288.799" cy="167.773" r="21.3333"/>
<polygon points="744.068,318.079 703.592,304.58 773.212,95.8267 813.687,109.325" style="fill:#006363; stroke:#000000;stroke-width:0"/>
<circle fill="#006363" stroke="#006363" stroke-width="0" cx="723.83" cy="311.33" r="21.3333"/>
<circle fill="#006363" stroke="#006363" stroke-width="0" cx="793.45" cy="102.576" r="21.3333"/>
<polygon points="1256,469.333 256,1469.33 -744,469.333" style="fill:#000000; stroke:#000000;stroke-width:0"/>
<polygon points="-744,42.6667 256,-957.333 1256,42.6667" style="fill:#000000; stroke:#000000;stroke-width:0"/>
<circle fill="#a64b00" stroke="#a64b00" stroke-width="0" cx="-92.6202" cy="116.293" r="21.3333"/>
<circle fill="#a64b00" stroke="#a64b00" stroke-width="0" cx="-288.799" cy="167.773" r="21.3333"/>
<circle fill="#a64b00" stroke="#a64b00" stroke-width="0" cx="723.83" cy="311.33" r="21.3333"/>
<circle fill="#a64b00" stroke="#a64b00" stroke-width="0" cx="793.45" cy="102.576" r="21.3333"/>
<circle fill="#a64b00" stroke="#a64b00" stroke-width="0" cx="88.6135" cy="249.482" r="21.3333"/>
</svg>
