<?xml version="1.0" encoding="utf-8"?> <!-- Generator: Adobe Illustrator 13.0.0, SVG Export Plug-In . SVG Version: 6.00 Build 14948)  --> <svg version="1.2" baseProfile="tiny" id="Layer_1" xmlns="http://www.w3.org/2000/svg" xmlns:xlink="http://www.w3.org/1999/xlink" x="0px" y="0px" width="512px" height="512px" viewBox="0 0 512 512" xml:space="preserve">
<polygon points="0,0 512,0 512,512 0,512" style="fill:#ffffff; stroke:#000000;stroke-width:0"/>
<polygon points="-31.5314,198.083 10.173,189.073 54.641,394.888 12.9367,403.899" style="fill:#006363; stroke:#000000;stroke-width:0"/>
<circle fill="#006363" stroke="#006363" stroke-width="0" cx="-10.6792" cy="193.578" r="21.3333"/>
<circle fill="#006363" stroke="#006363" stroke-width="0" cx="33.7889" cy="399.393" r="21.3333"/>
<polygon points="447.444,102.422 485.812,83.7577 578.439,274.174 540.071,292.838" style="fill:#006363; stroke:#000000;stroke-width:0"/>
<circle fill="#006363" stroke="#006363" stroke-width="0" cx="466.628" cy="93.0897" r="21.3333"/>
<circle fill="#006363" stroke="#006363" stroke-width="0" cx="559.255" cy="283.506" r="21.3333"/>
<polygon points="1256,469.333 256,1469.33 -744,469.333" style="fill:#000000; stroke:#000000;stroke-width:0"/>
<polygon points="-744,42.6667 256,-957.333 1256,42.6667" style="fill:#000000; stroke:#000000;stroke-width:0"/>
<circle fill="#a64b00" stroke="#a64b00" stroke-width="0" cx="-10.6792" cy="193.578" r="21.3333"/>
<circle fill="#a64b00" stroke="#a64b00" stroke-width="0" cx="33.7889" cy="399.393" r="21.3333"/>
<circle fill="#a64b00" stroke="#a64b00" stroke-width="0" cx="466.628" cy="93.0897" r="21.3333"/>
<circle fill="#a64b00" stroke="#a64b00" stroke-width="0" cx="559.255" cy="283.506" r="21.3333"/>
<circle fill="#a64b00" stroke="#a64b00" stroke-width="0" cx="295.393" cy="211.736" r="21.3333"/>
</svg>
