<?xml version="1.0" encoding="utf-8"?> <!-- Generator: Adobe Illustrator 13.0.0, SVG Export Plug-In . SVG Version: 6.00 Build 14948)  --> <svg version="1.2" baseProfile="tiny" id="Layer_1" xmlns="http://www.w3.org/2000/svg" xmlns:xlink="http://www.w3.org/1999/xlink" x="0px" y="0px" width="512px" height="512px" viewBox="0 0 512 512" xml:space="preserve">
<polygon points="0,0 512,0 512,512 0,512" style="fill:#ffffff; stroke:#000000;stroke-width:0"/>
<polygon points="-57.4331,330.092 -65.3462,372.018 -285.161,330.532 -277.248,288.605" style="fill:#006363; stroke:#000000;stroke-width:0"/>
<circle fill="#006363" stroke="#006363" stroke-width="0" cx="-61.3896" cy="351.055" r="21.3333"/>
<circle fill="#006363" stroke="#006363" stroke-width="0" cx="-281.204" cy="309.568" r="21.3333"/>
<polygon points="721.511,330.921 681.035,317.424 748.609,114.79 789.084,128.288" style="fill:#006363; stroke:#000000;stroke-width:0"/>
<circle fill="#006363" stroke="#006363" stroke-width="0" cx="701.273" cy="324.172" r="21.3333"/>
<circle fill="#006363" stroke="#006363" stroke-width="0" cx="768.846" cy="121.539" r="21.3333"/>
<polygon points="1256,469.333 256,1469.33 -744,469.333" style="fill:#000000; stroke:#000000;stroke-width:0"/>
<polygon points="-744,42.6667 256,-957.333 1256,42.6667" style="fill:#000000; stroke:#000000;stroke-width:0"/>
<circle fill="#a64b00" stroke="#a64b00" stroke-width="0" cx="-61.3896" cy="351.055" r="21.3333"/>
<circle fill="#a64b00" stroke="#a64b00" stroke-width="0" cx="-281.204" cy="309.568" r="21.3333"/>
<circle fill="#a64b00" stroke="#a64b00" stroke-width="0" cx="701.273" cy="324.172" r="21.3333"/>
<circle fill="#a64b00" stroke="#a64b00" stroke-width="0" cx="768.846" cy="121.539" r="21.3333"/>
<circle fill="#a64b00" stroke="#a64b00" stroke-width="0" cx="132.758" cy="173.158" r="21.3333"/>
</svg>
