<?xml version="1.0" encoding="utf-8"?> <!-- Generator: Adobe Illustrator 13.0.0, SVG Export Plug-In . SVG Version: 6.00 Build 14948)  --> <svg version="1.2" baseProfile="tiny" id="Layer_1" xmlns="http://www.w3.org/2000/svg" xmlns:xlink="http://www.w3.org/1999/xlink" x="0px" y="0px" width="512px" height="512px" viewBox="0 0 512 512" xml:space="preserve">
<polygon points="0,0 512,0 512,512 0,512" style="fill:#ffffff; stroke:#000000;stroke-width:0"/>
<polygon points="-22.0693,168.881 19.9446,161.446 56.0148,365.276 14.0009,372.711" style="fill:#006363; stroke:#000000;stroke-width:0"/>
<circle fill="#006363" stroke="#006363" stroke-width="0" cx="-1.06237" cy="165.163" r="21.3333"/>
<circle fill="#006363" stroke="#006363" stroke-width="0" cx="35.0078" cy="368.993" r="21.3333"/>
<polygon points="449.698,139.51 489.843,125.06 561.819,325.034 521.673,339.484" style="fill:#006363; stroke:#000000;stroke-width:0"/>
<circle fill="#006363" stroke="#006363" stroke-width="0" cx="469.771" cy="132.285" r="21.3333"/>
<circle fill="#006363" stroke="#006363" stroke-width="0" cx="541.746" cy="332.259" r="21.3333"/>
<polygon points="1256,469.333 256,1469.33 -744,469.333" style="fill:#000000; stroke:#000000;stroke-width:0"/>
<polygon points="-744,42.6667 256,-957.333 1256,42.6667" style="fill:#000000; stroke:#000000;stroke-width:0"/>
<circle fill="#a64b00" stroke="#a64b00" stroke-width="0" cx="-1.06237" cy="165.163" r="21.3333"/>
<circle fill="#a64b00" stroke="#a64b00" stroke-width="0" cx="35.0078" cy="368.993" r="21.3333"/>
<circle fill="#a64b00" stroke="#a64b00" stroke-width="0" cx="469.771" cy="132.285" r="21.3333"/>
<circle fill="#a64b00" stroke="#a64b00" stroke-width="0" cx="541.746" cy="332.259" r="21.3333"/>
<circle fill="#a64b00" stroke="#a64b00" stroke-width="0" cx="360.451" cy="110.85" r="21.3333"/>
</svg>
