<?xml version="1.0" encoding="utf-8"?> <!-- Generator: Adobe Illustrator 13.0.0, SVG Export Plug-In . SVG Version: 6.00 Build 14948)  --> <svg version="1.2" baseProfile="tiny" id="Layer_1" xmlns="http://www.w3.org/2000/svg" xmlns:xlink="http://www.w3.org/1999/xlink" x="0px" y="0px" width="512px" height="512px" viewBox="0 0 512 512" xml:space="preserve">
<polygon points="0,0 512,0 512,512 0,512" style="fill:#ffffff; stroke:#000000;stroke-width:0"/>
<polygon points="-168.84,251.361 -204.209,227.499 -84.0365,49.3747 -48.6666,73.2373" style="fill:#006363; stroke:#000000;stroke-width:0"/>
<circle fill="#006363" stroke="#006363" stroke-width="0" cx="-186.524" cy="239.43" r="21.3333"/>
<circle fill="#006363" stroke="#006363" stroke-width="0" cx="-66.3516" cy="61.306" r="21.3333"/>
<polygon points="571.924,321.472 582.033,280.02 789.218,330.549 779.108,372.001" style="fill:#006363; stroke:#000000;stroke-width:0"/>
<circle fill="#006363" stroke="#006363" stroke-width="0" cx="576.979" cy="300.746" r="21.3333"/>
<circle fill="#006363" stroke="#006363" stroke-width="0" cx="784.163" cy="351.275" r="21.3333"/>
<polygon points="1256,469.333 256,1469.33 -744,469.333" style="fill:#000000; stroke:#000000;stroke-width:0"/>
<polygon points="-744,42.6667 256,-957.333 1256,42.6667" style="fill:#000000; stroke:#000000;stroke-width:0"/>
<circle fill="#a64b00" stroke="#a64b00" stroke-width="0" cx="-186.524" cy="239.43" r="21.3333"/>
<circle fill="#a64b00" stroke="#a64b00" stroke-width="0" cx="-66.3516" cy="61.306" r="21.3333"/>
<circle fill="#a64b00" stroke="#a64b00" stroke-width="0" cx="576.979" cy="300.746" r="21.3333"/>
<circle fill="#a64b00" stroke="#a64b00" stroke-width="0" cx="784.163" cy="351.275" r="21.3333"/>
<circle fill="#a64b00" stroke="#a64b00" stroke-width="0" cx="234.766" cy="239.942" r="21.3333"/>
</svg>
