<?xml version="1.0" encoding="utf-8"?> <!-- Generator: Adobe Illustrator 13.0.0, SVG Export Plug-In . SVG Version: 6.00 Build 14948)  --> <svg version="1.2" baseProfile="tiny" id="Layer_1" xmlns="http://www.w3.org/2000/svg" xmlns:xlink="http://www.w3.org/1999/xlink" x="0px" y="0px" width="512px" height="512px" viewBox="0 0 512 512" xml:space="preserve">
<polygon points="0,0 512,0 512,512 0,512" style="fill:#ffffff; stroke:#000000;stroke-width:0"/>
<polygon points="-51.2692,410.259 -61.8989,451.58 -272.437,397.421 -261.807,356.099" style="fill:#006363; stroke:#000000;stroke-width:0"/>
<circle fill="#006363" stroke="#006363" stroke-width="0" cx="-56.5841" cy="430.92" r="21.3333"/>
<circle fill="#006363" stroke="#006363" stroke-width="0" cx="-267.122" cy="376.76" r="21.3333"/>
<polygon points="697.551,391.071 658.837,373.134 749.626,177.181 788.34,195.117" style="fill:#006363; stroke:#000000;stroke-width:0"/>
<circle fill="#006363" stroke="#006363" stroke-width="0" cx="678.194" cy="382.103" r="21.3333"/>
<circle fill="#006363" stroke="#006363" stroke-width="0" cx="768.983" cy="186.149" r="21.3333"/>
<polygon points="1256,469.333 256,1469.33 -744,469.333" style="fill:#000000; stroke:#000000;stroke-width:0"/>
<polygon points="-744,42.6667 256,-957.333 1256,42.6667" style="fill:#000000; stroke:#000000;stroke-width:0"/>
<circle fill="#a64b00" stroke="#a64b00" stroke-width="0" cx="-56.5841" cy="430.92" r="21.3333"/>
<circle fill="#a64b00" stroke="#a64b00" stroke-width="0" cx="-267.122" cy="376.76" r="21.3333"/>
<circle fill="#a64b00" stroke="#a64b00" stroke-width="0" cx="678.194" cy="382.103" r="21.3333"/>
<circle fill="#a64b00" stroke="#a64b00" stroke-width="0" cx="768.983" cy="186.149" r="21.3333"/>
<circle fill="#a64b00" stroke="#a64b00" stroke-width="0" cx="154.233" cy="383.049" r="21.3333"/>
</svg>
