<?xml version="1.0" encoding="utf-8"?> <!-- Generator: Adobe Illustrator 13.0.0, SVG Export Plug-In . SVG Version: 6.00 Build 14948)  --> <svg version="1.2" baseProfile="tiny" id="Layer_1" xmlns="http://www.w3.org/2000/svg" xmlns:xlink="http://www.w3.org/1999/xlink" x="0px" y="0px" width="512px" height="512px" viewBox="0 0 512 512" xml:space="preserve">
<polygon points="0,0 512,0 512,512 0,512" style="fill:#ffffff; stroke:#000000;stroke-width:0"/>
<polygon points="-101.96,215.884 -59.8615,208.946 -24.9959,420.521 -67.0947,427.458" style="fill:#006363; stroke:#000000;stroke-width:0"/>
<circle fill="#006363" stroke="#006363" stroke-width="0" cx="-80.9109" cy="212.415" r="21.3333"/>
<circle fill="#006363" stroke="#006363" stroke-width="0" cx="-46.0453" cy="423.99" r="21.3333"/>
<polygon points="710.899,258.934 696.878,299.231 497.291,229.786 511.312,189.489" style="fill:#006363; stroke:#000000;stroke-width:0"/>
<circle fill="#006363" stroke="#006363" stroke-width="0" cx="703.889" cy="279.083" r="21.3333"/>
<circle fill="#006363" stroke="#006363" stroke-width="0" cx="504.301" cy="209.638" r="21.3333"/>
<polygon points="1256,469.333 256,1469.33 -744,469.333" style="fill:#000000; stroke:#000000;stroke-width:0"/>
<polygon points="-744,42.6667 256,-957.333 1256,42.6667" style="fill:#000000; stroke:#000000;stroke-width:0"/>
<circle fill="#a64b00" stroke="#a64b00" stroke-width="0" cx="-80.9109" cy="212.415" r="21.3333"/>
<circle fill="#a64b00" stroke="#a64b00" stroke-width="0" cx="-46.0453" cy="423.99" r="21.3333"/>
<circle fill="#a64b00" stroke="#a64b00" stroke-width="0" cx="703.889" cy="279.083" r="21.3333"/>
<circle fill="#a64b00" stroke="#a64b00" stroke-width="0" cx="504.301" cy="209.638" r="21.3333"/>
<circle fill="#a64b00" stroke="#a64b00" stroke-width="0" cx="377.936" cy="182.698" r="21.3333"/>
</svg>
