<?xml version="1.0" encoding="utf-8"?> <!-- Generator: Adobe Illustrator 13.0.0, SVG Export Plug-In . SVG Version: 6.00 Build 14948)  --> <svg version="1.2" baseProfile="tiny" id="Layer_1" xmlns="http://www.w3.org/2000/svg" xmlns:xlink="http://www.w3.org/1999/xlink" x="0px" y="0px" width="512px" height="512px" viewBox="0 0 512 512" xml:space="preserve">
<polygon points="0,0 512,0 512,512 0,512" style="fill:#ffffff; stroke:#000000;stroke-width:0"/>
<polygon points="-59.8059,301.096 -65.4541,343.387 -287.51,313.73 -281.862,271.439" style="fill:#006363; stroke:#000000;stroke-width:0"/>
<circle fill="#006363" stroke="#006363" stroke-width="0" cx="-62.63" cy="322.242" r="21.3333"/>
<circle fill="#006363" stroke="#006363" stroke-width="0" cx="-284.686" cy="292.585" r="21.3333"/>
<polygon points="727.513,315.604 686.675,303.245 748.343,99.4722 789.18,111.831" style="fill:#006363; stroke:#000000;stroke-width:0"/>
<circle fill="#006363" stroke="#006363" stroke-width="0" cx="707.094" cy="309.425" r="21.3333"/>
<circle fill="#006363" stroke="#006363" stroke-width="0" cx="768.761" cy="105.652" r="21.3333"/>
<polygon points="1256,469.333 256,1469.33 -744,469.333" style="fill:#000000; stroke:#000000;stroke-width:0"/>
<polygon points="-744,42.6667 256,-957.333 1256,42.6667" style="fill:#000000; stroke:#000000;stroke-width:0"/>
<circle fill="#a64b00" stroke="#a64b00" stroke-width="0" cx="-62.63" cy="322.242" r="21.3333"/>
<circle fill="#a64b00" stroke="#a64b00" stroke-width="0" cx="-284.686" cy="292.585" r="21.3333"/>
<circle fill="#a64b00" stroke="#a64b00" stroke-width="0" cx="707.094" cy="309.425" r="21.3333"/>
<circle fill="#a64b00" stroke="#a64b00" stroke-width="0" cx="768.761" cy="105.652" r="21.3333"/>
<circle fill="#a64b00" stroke="#a64b00" stroke-width="0" cx="127.389" cy="87.2932" r="21.3333"/>
</svg>
