<?xml version="1.0" encoding="utf-8"?> <!-- Generator: Adobe Illustrator 13.0.0, SVG Export Plug-In . SVG Version: 6.00 Build 14948)  --> <svg version="1.2" baseProfile="tiny" id="Layer_1" xmlns="http://www.w3.org/2000/svg" xmlns:xlink="http://www.w3.org/1999/xlink" x="0px" y="0px" width="512px" height="512px" viewBox="0 0 512 512" xml:space="preserve">
<polygon points="0,0 512,0 512,512 0,512" style="fill:#ffffff; stroke:#000000;stroke-width:0"/>
<polygon points="-139.273,153.303 -114.315,118.697 53.7652,239.919 28.8071,274.524" style="fill:#006363; stroke:#000000;stroke-width:0"/>
<circle fill="#006363" stroke="#006363" stroke-width="0" cx="-126.794" cy="136" r="21.3333"/>
<circle fill="#006363" stroke="#006363" stroke-width="0" cx="41.2861" cy="257.221" r="21.3333"/>
<polygon points="617.721,317.536 575.668,324.746 540.123,117.432 582.176,110.221" style="fill:#006363; stroke:#000000;stroke-width:0"/>
<circle fill="#006363" stroke="#006363" stroke-width="0" cx="596.694" cy="321.141" r="21.3333"/>
<circle fill="#006363" stroke="#006363" stroke-width="0" cx="561.149" cy="113.827" r="21.3333"/>
<polygon points="1256,469.333 256,1469.33 -744,469.333" style="fill:#000000; stroke:#000000;stroke-width:0"/>
<polygon points="-744,42.6667 256,-957.333 1256,42.6667" style="fill:#000000; stroke:#000000;stroke-width:0"/>
<circle fill="#a64b00" stroke="#a64b00" stroke-width="0" cx="-126.794" cy="136" r="21.3333"/>
<circle fill="#a64b00" stroke="#a64b00" stroke-width="0" cx="41.2861" cy="257.221" r="21.3333"/>
<circle fill="#a64b00" stroke="#a64b00" stroke-width="0" cx="596.694" cy="321.141" r="21.3333"/>
<circle fill="#a64b00" stroke="#a64b00" stroke-width="0" cx="561.149" cy="113.827" r="21.3333"/>
<circle fill="#a64b00" stroke="#a64b00" stroke-width="0" cx="425.063" cy="154.077" r="21.3333"/>
</svg>
