<?xml version="1.0" encoding="utf-8"?> <!-- Generator: Adobe Illustrator 13.0.0, SVG Export Plug-In . SVG Version: 6.00 Build 14948)  --> <svg version="1.2" baseProfile="tiny" id="Layer_1" xmlns="http://www.w3.org/2000/svg" xmlns:xlink="http://www.w3.org/1999/xlink" x="0px" y="0px" width="512px" height="512px" viewBox="0 0 512 512" xml:space="preserve">
<polygon points="0,0 512,0 512,512 0,512" style="fill:#ffffff; stroke:#000000;stroke-width:0"/>
<polygon points="-199.788,423.536 -216.73,384.378 -12.6892,296.099 4.25289,335.258" style="fill:#006363; stroke:#000000;stroke-width:0"/>
<circle fill="#006363" stroke="#006363" stroke-width="0" cx="-208.259" cy="403.957" r="21.3333"/>
<circle fill="#006363" stroke="#006363" stroke-width="0" cx="-4.21815" cy="315.679" r="21.3333"/>
<polygon points="605.169,205.027 646.019,192.709 706.9,394.601 666.051,406.92" style="fill:#006363; stroke:#000000;stroke-width:0"/>
<circle fill="#006363" stroke="#006363" stroke-width="0" cx="625.594" cy="198.868" r="21.3333"/>
<circle fill="#006363" stroke="#006363" stroke-width="0" cx="686.475" cy="400.761" r="21.3333"/>
<polygon points="1256,469.333 256,1469.33 -744,469.333" style="fill:#000000; stroke:#000000;stroke-width:0"/>
<polygon points="-744,42.6667 256,-957.333 1256,42.6667" style="fill:#000000; stroke:#000000;stroke-width:0"/>
<circle fill="#a64b00" stroke="#a64b00" stroke-width="0" cx="-208.259" cy="403.957" r="21.3333"/>
<circle fill="#a64b00" stroke="#a64b00" stroke-width="0" cx="-4.21815" cy="315.679" r="21.3333"/>
<circle fill="#a64b00" stroke="#a64b00" stroke-width="0" cx="625.594" cy="198.868" r="21.3333"/>
<circle fill="#a64b00" stroke="#a64b00" stroke-width="0" cx="686.475" cy="400.761" r="21.3333"/>
<circle fill="#a64b00" stroke="#a64b00" stroke-width="0" cx="280.7" cy="192.239" r="21.3333"/>
</svg>
