<?xml version="1.0" encoding="utf-8"?> <!-- Generator: Adobe Illustrator 13.0.0, SVG Export Plug-In . SVG Version: 6.00 Build 14948)  --> <svg version="1.2" baseProfile="tiny" id="Layer_1" xmlns="http://www.w3.org/2000/svg" xmlns:xlink="http://www.w3.org/1999/xlink" x="0px" y="0px" width="512px" height="512px" viewBox="0 0 512 512" xml:space="preserve">
<polygon points="0,0 512,0 512,512 0,512" style="fill:#ffffff; stroke:#000000;stroke-width:0"/>
<polygon points="-350.177,385.496 -388.845,367.461 -299.213,175.29 -260.546,193.325" style="fill:#006363; stroke:#000000;stroke-width:0"/>
<circle fill="#006363" stroke="#006363" stroke-width="0" cx="-369.511" cy="376.479" r="21.3333"/>
<circle fill="#006363" stroke="#006363" stroke-width="0" cx="-279.879" cy="184.307" r="21.3333"/>
<polygon points="959.602,213.865 995.167,237.437 873.14,421.544 837.576,397.971" style="fill:#006363; stroke:#000000;stroke-width:0"/>
<circle fill="#006363" stroke="#006363" stroke-width="0" cx="977.385" cy="225.651" r="21.3333"/>
<circle fill="#006363" stroke="#006363" stroke-width="0" cx="855.358" cy="409.758" r="21.3333"/>
<polygon points="1256,469.333 256,1469.33 -744,469.333" style="fill:#000000; stroke:#000000;stroke-width:0"/>
<polygon points="-744,42.6667 256,-957.333 1256,42.6667" style="fill:#000000; stroke:#000000;stroke-width:0"/>
<circle fill="#a64b00" stroke="#a64b00" stroke-width="0" cx="-369.511" cy="376.479" r="21.3333"/>
<circle fill="#a64b00" stroke="#a64b00" stroke-width="0" cx="-279.879" cy="184.307" r="21.3333"/>
<circle fill="#a64b00" stroke="#a64b00" stroke-width="0" cx="977.385" cy="225.651" r="21.3333"/>
<circle fill="#a64b00" stroke="#a64b00" stroke-width="0" cx="855.358" cy="409.758" r="21.3333"/>
<circle fill="#a64b00" stroke="#a64b00" stroke-width="0" cx="619.463" cy="268.613" r="21.3333"/>
</svg>
