<?xml version="1.0" encoding="utf-8"?> <!-- Generator: Adobe Illustrator 13.0.0, SVG Export Plug-In . SVG Version: 6.00 Build 14948)  --> <svg version="1.2" baseProfile="tiny" id="Layer_1" xmlns="http://www.w3.org/2000/svg" xmlns:xlink="http://www.w3.org/1999/xlink" x="0px" y="0px" width="512px" height="512px" viewBox="0 0 512 512" xml:space="preserve">
<polygon points="0,0 512,0 512,512 0,512" style="fill:#ffffff; stroke:#000000;stroke-width:0"/>
<polygon points="-162.624,296.163 -144.877,334.964 -348.912,428.289 -366.66,389.488" style="fill:#006363; stroke:#000000;stroke-width:0"/>
<circle fill="#006363" stroke="#006363" stroke-width="0" cx="-153.75" cy="315.563" r="21.3333"/>
<circle fill="#006363" stroke="#006363" stroke-width="0" cx="-357.786" cy="408.888" r="21.3333"/>
<polygon points="738.294,391.526 732.108,349.31 937.036,319.284 943.221,361.5" style="fill:#006363; stroke:#000000;stroke-width:0"/>
<circle fill="#006363" stroke="#006363" stroke-width="0" cx="735.201" cy="370.418" r="21.3333"/>
<circle fill="#006363" stroke="#006363" stroke-width="0" cx="940.128" cy="340.392" r="21.3333"/>
<polygon points="1256,469.333 256,1469.33 -744,469.333" style="fill:#000000; stroke:#000000;stroke-width:0"/>
<polygon points="-744,42.6667 256,-957.333 1256,42.6667" style="fill:#000000; stroke:#000000;stroke-width:0"/>
<circle fill="#a64b00" stroke="#a64b00" stroke-width="0" cx="-153.75" cy="315.563" r="21.3333"/>
<circle fill="#a64b00" stroke="#a64b00" stroke-width="0" cx="-357.786" cy="408.888" r="21.3333"/>
<circle fill="#a64b00" stroke="#a64b00" stroke-width="0" cx="735.201" cy="370.418" r="21.3333"/>
<circle fill="#a64b00" stroke="#a64b00" stroke-width="0" cx="940.128" cy="340.392" r="21.3333"/>
<circle fill="#a64b00" stroke="#a64b00" stroke-width="0" cx="-59.3289" cy="230.401" r="21.3333"/>
</svg>
