<?xml version="1.0" encoding="utf-8"?> <!-- Generator: Adobe Illustrator 13.0.0, SVG Export Plug-In . SVG Version: 6.00 Build 14948)  --> <svg version="1.2" baseProfile="tiny" id="Layer_1" xmlns="http://www.w3.org/2000/svg" xmlns:xlink="http://www.w3.org/1999/xlink" x="0px" y="0px" width="512px" height="512px" viewBox="0 0 512 512" xml:space="preserve">
<polygon points="0,0 512,0 512,512 0,512" style="fill:#ffffff; stroke:#000000;stroke-width:0"/>
<polygon points="-342.945,399.956 -382.984,385.214 -308.997,184.271 -268.958,199.013" style="fill:#006363; stroke:#000000;stroke-width:0"/>
<circle fill="#006363" stroke="#006363" stroke-width="0" cx="-362.964" cy="392.585" r="21.3333"/>
<circle fill="#006363" stroke="#006363" stroke-width="0" cx="-288.977" cy="191.642" r="21.3333"/>
<polygon points="960.358,220.996 995.021,245.874 874.933,413.191 840.271,388.313" style="fill:#006363; stroke:#000000;stroke-width:0"/>
<circle fill="#006363" stroke="#006363" stroke-width="0" cx="977.689" cy="233.435" r="21.3333"/>
<circle fill="#006363" stroke="#006363" stroke-width="0" cx="857.602" cy="400.752" r="21.3333"/>
<polygon points="1256,469.333 256,1469.33 -744,469.333" style="fill:#000000; stroke:#000000;stroke-width:0"/>
<polygon points="-744,42.6667 256,-957.333 1256,42.6667" style="fill:#000000; stroke:#000000;stroke-width:0"/>
<circle fill="#a64b00" stroke="#a64b00" stroke-width="0" cx="-362.964" cy="392.585" r="21.3333"/>
<circle fill="#a64b00" stroke="#a64b00" stroke-width="0" cx="-288.977" cy="191.642" r="21.3333"/>
<circle fill="#a64b00" stroke="#a64b00" stroke-width="0" cx="977.689" cy="233.435" r="21.3333"/>
<circle fill="#a64b00" stroke="#a64b00" stroke-width="0" cx="857.602" cy="400.752" r="21.3333"/>
<circle fill="#a64b00" stroke="#a64b00" stroke-width="0" cx="662.345" cy="275.934" r="21.3333"/>
</svg>
