<?xml version="1.0" encoding="utf-8"?> <!-- Generator: Adobe Illustrator 13.0.0, SVG Export Plug-In . SVG Version: 6.00 Build 14948)  --> <svg version="1.2" baseProfile="tiny" id="Layer_1" xmlns="http://www.w3.org/2000/svg" xmlns:xlink="http://www.w3.org/1999/xlink" x="0px" y="0px" width="512px" height="512px" viewBox="0 0 512 512" xml:space="preserve">
<polygon points="0,0 512,0 512,512 0,512" style="fill:#ffffff; stroke:#000000;stroke-width:0"/>
<polygon points="-94.2708,89.4727 -102.759,131.287 -321.252,86.9336 -312.764,45.1198" style="fill:#006363; stroke:#000000;stroke-width:0"/>
<circle fill="#006363" stroke="#006363" stroke-width="0" cx="-98.5148" cy="110.38" r="21.3333"/>
<circle fill="#006363" stroke="#006363" stroke-width="0" cx="-317.008" cy="66.0267" r="21.3333"/>
<polygon points="750.967,368.217 713.046,348.662 807.737,165.039 845.658,184.595" style="fill:#006363; stroke:#000000;stroke-width:0"/>
<circle fill="#006363" stroke="#006363" stroke-width="0" cx="732.006" cy="358.44" r="21.3333"/>
<circle fill="#006363" stroke="#006363" stroke-width="0" cx="826.698" cy="174.817" r="21.3333"/>
<polygon points="1256,469.333 256,1469.33 -744,469.333" style="fill:#000000; stroke:#000000;stroke-width:0"/>
<polygon points="-744,42.6667 256,-957.333 1256,42.6667" style="fill:#000000; stroke:#000000;stroke-width:0"/>
<circle fill="#a64b00" stroke="#a64b00" stroke-width="0" cx="-98.5148" cy="110.38" r="21.3333"/>
<circle fill="#a64b00" stroke="#a64b00" stroke-width="0" cx="-317.008" cy="66.0267" r="21.3333"/>
<circle fill="#a64b00" stroke="#a64b00" stroke-width="0" cx="732.006" cy="358.44" r="21.3333"/>
<circle fill="#a64b00" stroke="#a64b00" stroke-width="0" cx="826.698" cy="174.817" r="21.3333"/>
<circle fill="#a64b00" stroke="#a64b00" stroke-width="0" cx="49.8383" cy="411.671" r="21.3333"/>
</svg>
