<?xml version="1.0" encoding="utf-8"?> <!-- Generator: Adobe Illustrator 13.0.0, SVG Export Plug-In . SVG Version: 6.00 Build 14948)  --> <svg version="1.2" baseProfile="tiny" id="Layer_1" xmlns="http://www.w3.org/2000/svg" xmlns:xlink="http://www.w3.org/1999/xlink" x="0px" y="0px" width="512px" height="512px" viewBox="0 0 512 512" xml:space="preserve">
<polygon points="0,0 512,0 512,512 0,512" style="fill:#ffffff; stroke:#000000;stroke-width:0"/>
<polygon points="-119.052,176.175 -116.151,218.743 -337.394,233.824 -340.296,191.256" style="fill:#006363; stroke:#000000;stroke-width:0"/>
<circle fill="#006363" stroke="#006363" stroke-width="0" cx="-117.602" cy="197.459" r="21.3333"/>
<circle fill="#006363" stroke="#006363" stroke-width="0" cx="-338.845" cy="212.54" r="21.3333"/>
<polygon points="757.565,432.94 723.889,406.742 850.848,243.538 884.525,269.736" style="fill:#006363; stroke:#000000;stroke-width:0"/>
<circle fill="#006363" stroke="#006363" stroke-width="0" cx="740.727" cy="419.841" r="21.3333"/>
<circle fill="#006363" stroke="#006363" stroke-width="0" cx="867.686" cy="256.637" r="21.3333"/>
<polygon points="1256,469.333 256,1469.33 -744,469.333" style="fill:#000000; stroke:#000000;stroke-width:0"/>
<polygon points="-744,42.6667 256,-957.333 1256,42.6667" style="fill:#000000; stroke:#000000;stroke-width:0"/>
<circle fill="#a64b00" stroke="#a64b00" stroke-width="0" cx="-117.602" cy="197.459" r="21.3333"/>
<circle fill="#a64b00" stroke="#a64b00" stroke-width="0" cx="-338.845" cy="212.54" r="21.3333"/>
<circle fill="#a64b00" stroke="#a64b00" stroke-width="0" cx="740.727" cy="419.841" r="21.3333"/>
<circle fill="#a64b00" stroke="#a64b00" stroke-width="0" cx="867.686" cy="256.637" r="21.3333"/>
<circle fill="#a64b00" stroke="#a64b00" stroke-width="0" cx="3.30804" cy="449.833" r="21.3333"/>
</svg>
