<?xml version="1.0" encoding="utf-8"?> <!-- Generator: Adobe Illustrator 13.0.0, SVG Export Plug-In . SVG Version: 6.00 Build 14948)  --> <svg version="1.2" baseProfile="tiny" id="Layer_1" xmlns="http://www.w3.org/2000/svg" xmlns:xlink="http://www.w3.org/1999/xlink" x="0px" y="0px" width="512px" height="512px" viewBox="0 0 512 512" xml:space="preserve">
<polygon points="0,0 512,0 512,512 0,512" style="fill:#ffffff; stroke:#000000;stroke-width:0"/>
<polygon points="-0.773003,95.9172 41.7313,92.198 60.0021,301.005 17.4978,304.724" style="fill:#006363; stroke:#000000;stroke-width:0"/>
<circle fill="#006363" stroke="#006363" stroke-width="0" cx="20.4791" cy="94.0576" r="21.3333"/>
<circle fill="#006363" stroke="#006363" stroke-width="0" cx="38.7499" cy="302.864" r="21.3333"/>
<polygon points="457.495,229.882 499.929,225.435 522.331,439.166 479.896,443.614" style="fill:#006363; stroke:#000000;stroke-width:0"/>
<circle fill="#006363" stroke="#006363" stroke-width="0" cx="478.712" cy="227.658" r="21.3333"/>
<circle fill="#006363" stroke="#006363" stroke-width="0" cx="501.113" cy="441.39" r="21.3333"/>
<polygon points="1256,469.333 256,1469.33 -744,469.333" style="fill:#000000; stroke:#000000;stroke-width:0"/>
<polygon points="-744,42.6667 256,-957.333 1256,42.6667" style="fill:#000000; stroke:#000000;stroke-width:0"/>
<circle fill="#a64b00" stroke="#a64b00" stroke-width="0" cx="20.4791" cy="94.0576" r="21.3333"/>
<circle fill="#a64b00" stroke="#a64b00" stroke-width="0" cx="38.7499" cy="302.864" r="21.3333"/>
<circle fill="#a64b00" stroke="#a64b00" stroke-width="0" cx="478.712" cy="227.658" r="21.3333"/>
<circle fill="#a64b00" stroke="#a64b00" stroke-width="0" cx="501.113" cy="441.39" r="21.3333"/>
<circle fill="#a64b00" stroke="#a64b00" stroke-width="0" cx="329.205" cy="375.607" r="21.3333"/>
</svg>
