<?xml version="1.0" encoding="utf-8"?> <!-- Generator: Adobe Illustrator 13.0.0, SVG Export Plug-In . SVG Version: 6.00 Build 14948)  --> <svg version="1.2" baseProfile="tiny" id="Layer_1" xmlns="http://www.w3.org/2000/svg" xmlns:xlink="http://www.w3.org/1999/xlink" x="0px" y="0px" width="512px" height="512px" viewBox="0 0 512 512" xml:space="preserve">
<polygon points="0,0 512,0 512,512 0,512" style="fill:#ffffff; stroke:#000000;stroke-width:0"/>
<polygon points="-102.303,203.06 -60.1709,196.329 -26.7515,405.537 -68.884,412.267" style="fill:#006363; stroke:#000000;stroke-width:0"/>
<circle fill="#006363" stroke="#006363" stroke-width="0" cx="-81.2371" cy="199.695" r="21.3333"/>
<circle fill="#006363" stroke="#006363" stroke-width="0" cx="-47.8178" cy="408.902" r="21.3333"/>
<polygon points="715.059,255.243 703.203,296.229 495.68,236.199 507.536,195.213" style="fill:#006363; stroke:#000000;stroke-width:0"/>
<circle fill="#006363" stroke="#006363" stroke-width="0" cx="709.131" cy="275.736" r="21.3333"/>
<circle fill="#006363" stroke="#006363" stroke-width="0" cx="501.608" cy="215.706" r="21.3333"/>
<polygon points="1256,469.333 256,1469.33 -744,469.333" style="fill:#000000; stroke:#000000;stroke-width:0"/>
<polygon points="-744,42.6667 256,-957.333 1256,42.6667" style="fill:#000000; stroke:#000000;stroke-width:0"/>
<circle fill="#a64b00" stroke="#a64b00" stroke-width="0" cx="-81.2371" cy="199.695" r="21.3333"/>
<circle fill="#a64b00" stroke="#a64b00" stroke-width="0" cx="-47.8178" cy="408.902" r="21.3333"/>
<circle fill="#a64b00" stroke="#a64b00" stroke-width="0" cx="709.131" cy="275.736" r="21.3333"/>
<circle fill="#a64b00" stroke="#a64b00" stroke-width="0" cx="501.608" cy="215.706" r="21.3333"/>
<circle fill="#a64b00" stroke="#a64b00" stroke-width="0" cx="375.55" cy="144.536" r="21.3333"/>
</svg>
