<?xml version="1.0" encoding="utf-8"?> <!-- Generator: Adobe Illustrator 13.0.0, SVG Export Plug-In . SVG Version: 6.00 Build 14948)  --> <svg version="1.2" baseProfile="tiny" id="Layer_1" xmlns="http://www.w3.org/2000/svg" xmlns:xlink="http://www.w3.org/1999/xlink" x="0px" y="0px" width="512px" height="512px" viewBox="0 0 512 512" xml:space="preserve">
<polygon points="0,0 512,0 512,512 0,512" style="fill:#ffffff; stroke:#000000;stroke-width:0"/>
<polygon points="-70.9169,213.564 -33.4908,193.076 67.1376,376.903 29.7115,397.391" style="fill:#006363; stroke:#000000;stroke-width:0"/>
<circle fill="#006363" stroke="#006363" stroke-width="0" cx="-52.2038" cy="203.32" r="21.3333"/>
<circle fill="#006363" stroke="#006363" stroke-width="0" cx="48.4246" cy="387.147" r="21.3333"/>
<polygon points="425.552,143.262 443.305,104.464 635.981,192.628 618.228,231.426" style="fill:#006363; stroke:#000000;stroke-width:0"/>
<circle fill="#006363" stroke="#006363" stroke-width="0" cx="434.428" cy="123.863" r="21.3333"/>
<circle fill="#006363" stroke="#006363" stroke-width="0" cx="627.105" cy="212.027" r="21.3333"/>
<polygon points="1256,469.333 256,1469.33 -744,469.333" style="fill:#000000; stroke:#000000;stroke-width:0"/>
<polygon points="-744,42.6667 256,-957.333 1256,42.6667" style="fill:#000000; stroke:#000000;stroke-width:0"/>
<circle fill="#a64b00" stroke="#a64b00" stroke-width="0" cx="-52.2038" cy="203.32" r="21.3333"/>
<circle fill="#a64b00" stroke="#a64b00" stroke-width="0" cx="48.4246" cy="387.147" r="21.3333"/>
<circle fill="#a64b00" stroke="#a64b00" stroke-width="0" cx="434.428" cy="123.863" r="21.3333"/>
<circle fill="#a64b00" stroke="#a64b00" stroke-width="0" cx="627.105" cy="212.027" r="21.3333"/>
<circle fill="#a64b00" stroke="#a64b00" stroke-width="0" cx="133.953" cy="172.933" r="21.3333"/>
</svg>
