<?xml version="1.0" encoding="utf-8"?> <!-- Generator: Adobe Illustrator 13.0.0, SVG Export Plug-In . SVG Version: 6.00 Build 14948)  --> <svg version="1.2" baseProfile="tiny" id="Layer_1" xmlns="http://www.w3.org/2000/svg" xmlns:xlink="http://www.w3.org/1999/xlink" x="0px" y="0px" width="512px" height="512px" viewBox="0 0 512 512" xml:space="preserve">
<polygon points="0,0 512,0 512,512 0,512" style="fill:#ffffff; stroke:#000000;stroke-width:0"/>
<polygon points="-146.72,256.629 -133.632,297.238 -346.977,366 -360.066,325.391" style="fill:#006363; stroke:#000000;stroke-width:0"/>
<circle fill="#006363" stroke="#006363" stroke-width="0" cx="-140.176" cy="276.933" r="21.3333"/>
<circle fill="#006363" stroke="#006363" stroke-width="0" cx="-353.522" cy="345.696" r="21.3333"/>
<polygon points="742.24,426.557 723.219,388.365 911.422,294.632 930.443,332.824" style="fill:#006363; stroke:#000000;stroke-width:0"/>
<circle fill="#006363" stroke="#006363" stroke-width="0" cx="732.729" cy="407.461" r="21.3333"/>
<circle fill="#006363" stroke="#006363" stroke-width="0" cx="920.932" cy="313.728" r="21.3333"/>
<polygon points="1256,469.333 256,1469.33 -744,469.333" style="fill:#000000; stroke:#000000;stroke-width:0"/>
<polygon points="-744,42.6667 256,-957.333 1256,42.6667" style="fill:#000000; stroke:#000000;stroke-width:0"/>
<circle fill="#a64b00" stroke="#a64b00" stroke-width="0" cx="-140.176" cy="276.933" r="21.3333"/>
<circle fill="#a64b00" stroke="#a64b00" stroke-width="0" cx="-353.522" cy="345.696" r="21.3333"/>
<circle fill="#a64b00" stroke="#a64b00" stroke-width="0" cx="732.729" cy="407.461" r="21.3333"/>
<circle fill="#a64b00" stroke="#a64b00" stroke-width="0" cx="920.932" cy="313.728" r="21.3333"/>
<circle fill="#a64b00" stroke="#a64b00" stroke-width="0" cx="-39.0464" cy="344.887" r="21.3333"/>
</svg>
