<?xml version="1.0" encoding="utf-8"?> <!-- Generator: Adobe Illustrator 13.0.0, SVG Export Plug-In . SVG Version: 6.00 Build 14948)  --> <svg version="1.2" baseProfile="tiny" id="Layer_1" xmlns="http://www.w3.org/2000/svg" xmlns:xlink="http://www.w3.org/1999/xlink" x="0px" y="0px" width="512px" height="512px" viewBox="0 0 512 512" xml:space="preserve">
<polygon points="0,0 512,0 512,512 0,512" style="fill:#ffffff; stroke:#000000;stroke-width:0"/>
<polygon points="-206.43,333.453 -189.599,294.246 12.8415,381.154 -3.98986,420.361" style="fill:#006363; stroke:#000000;stroke-width:0"/>
<circle fill="#006363" stroke="#006363" stroke-width="0" cx="-198.015" cy="313.85" r="21.3333"/>
<circle fill="#006363" stroke="#006363" stroke-width="0" cx="4.42583" cy="400.757" r="21.3333"/>
<polygon points="644.093,178.779 685.967,186.965 645.034,396.355 603.16,388.169" style="fill:#006363; stroke:#000000;stroke-width:0"/>
<circle fill="#006363" stroke="#006363" stroke-width="0" cx="665.03" cy="182.872" r="21.3333"/>
<circle fill="#006363" stroke="#006363" stroke-width="0" cx="624.097" cy="392.262" r="21.3333"/>
<polygon points="1256,469.333 256,1469.33 -744,469.333" style="fill:#000000; stroke:#000000;stroke-width:0"/>
<polygon points="-744,42.6667 256,-957.333 1256,42.6667" style="fill:#000000; stroke:#000000;stroke-width:0"/>
<circle fill="#a64b00" stroke="#a64b00" stroke-width="0" cx="-198.015" cy="313.85" r="21.3333"/>
<circle fill="#a64b00" stroke="#a64b00" stroke-width="0" cx="4.42583" cy="400.757" r="21.3333"/>
<circle fill="#a64b00" stroke="#a64b00" stroke-width="0" cx="665.03" cy="182.872" r="21.3333"/>
<circle fill="#a64b00" stroke="#a64b00" stroke-width="0" cx="624.097" cy="392.262" r="21.3333"/>
<circle fill="#a64b00" stroke="#a64b00" stroke-width="0" cx="302.176" cy="363.968" r="21.3333"/>
</svg>
