<?xml version="1.0" encoding="utf-8"?> <!-- Generator: Adobe Illustrator 13.0.0, SVG Export Plug-In . SVG Version: 6.00 Build 14948)  --> <svg version="1.2" baseProfile="tiny" id="Layer_1" xmlns="http://www.w3.org/2000/svg" xmlns:xlink="http://www.w3.org/1999/xlink" x="0px" y="0px" width="512px" height="512px" viewBox="0 0 512 512" xml:space="preserve">
<polygon points="0,0 512,0 512,512 0,512" style="fill:#ffffff; stroke:#000000;stroke-width:0"/>
<polygon points="-196.767,409.653 -209.164,368.827 -13.0866,309.285 -0.689126,350.11" style="fill:#006363; stroke:#000000;stroke-width:0"/>
<circle fill="#006363" stroke="#006363" stroke-width="0" cx="-202.966" cy="389.24" r="21.3333"/>
<circle fill="#006363" stroke="#006363" stroke-width="0" cx="-6.88786" cy="329.697" r="21.3333"/>
<polygon points="609.564,198.244 651.143,188.673 699.319,397.983 657.74,407.553" style="fill:#006363; stroke:#000000;stroke-width:0"/>
<circle fill="#006363" stroke="#006363" stroke-width="0" cx="630.354" cy="193.458" r="21.3333"/>
<circle fill="#006363" stroke="#006363" stroke-width="0" cx="678.53" cy="402.768" r="21.3333"/>
<polygon points="1256,469.333 256,1469.33 -744,469.333" style="fill:#000000; stroke:#000000;stroke-width:0"/>
<polygon points="-744,42.6667 256,-957.333 1256,42.6667" style="fill:#000000; stroke:#000000;stroke-width:0"/>
<circle fill="#a64b00" stroke="#a64b00" stroke-width="0" cx="-202.966" cy="389.24" r="21.3333"/>
<circle fill="#a64b00" stroke="#a64b00" stroke-width="0" cx="-6.88786" cy="329.697" r="21.3333"/>
<circle fill="#a64b00" stroke="#a64b00" stroke-width="0" cx="630.354" cy="193.458" r="21.3333"/>
<circle fill="#a64b00" stroke="#a64b00" stroke-width="0" cx="678.53" cy="402.768" r="21.3333"/>
<circle fill="#a64b00" stroke="#a64b00" stroke-width="0" cx="283.683" cy="239.942" r="21.3333"/>
</svg>
