<?xml version="1.0" encoding="utf-8"?> <!-- Generator: Adobe Illustrator 13.0.0, SVG Export Plug-In . SVG Version: 6.00 Build 14948)  --> <svg version="1.2" baseProfile="tiny" id="Layer_1" xmlns="http://www.w3.org/2000/svg" xmlns:xlink="http://www.w3.org/1999/xlink" x="0px" y="0px" width="512px" height="512px" viewBox="0 0 512 512" xml:space="preserve">
<polygon points="0,0 512,0 512,512 0,512" style="fill:#ffffff; stroke:#000000;stroke-width:0"/>
<polygon points="-370.941,346.872 -404.619,320.676 -271.433,149.449 -237.755,175.645" style="fill:#006363; stroke:#000000;stroke-width:0"/>
<circle fill="#006363" stroke="#006363" stroke-width="0" cx="-387.78" cy="333.774" r="21.3333"/>
<circle fill="#006363" stroke="#006363" stroke-width="0" cx="-254.594" cy="162.547" r="21.3333"/>
<polygon points="943.566,215.079 981.337,234.923 882.166,423.687 844.395,403.843" style="fill:#006363; stroke:#000000;stroke-width:0"/>
<circle fill="#006363" stroke="#006363" stroke-width="0" cx="962.451" cy="225.001" r="21.3333"/>
<circle fill="#006363" stroke="#006363" stroke-width="0" cx="863.281" cy="413.765" r="21.3333"/>
<polygon points="1256,469.333 256,1469.33 -744,469.333" style="fill:#000000; stroke:#000000;stroke-width:0"/>
<polygon points="-744,42.6667 256,-957.333 1256,42.6667" style="fill:#000000; stroke:#000000;stroke-width:0"/>
<circle fill="#a64b00" stroke="#a64b00" stroke-width="0" cx="-387.78" cy="333.774" r="21.3333"/>
<circle fill="#a64b00" stroke="#a64b00" stroke-width="0" cx="-254.594" cy="162.547" r="21.3333"/>
<circle fill="#a64b00" stroke="#a64b00" stroke-width="0" cx="962.451" cy="225.001" r="21.3333"/>
<circle fill="#a64b00" stroke="#a64b00" stroke-width="0" cx="863.281" cy="413.765" r="21.3333"/>
<circle fill="#a64b00" stroke="#a64b00" stroke-width="0" cx="501.539" cy="248.479" r="21.3333"/>
</svg>
