<?xml version="1.0" encoding="utf-8"?> <!-- Generator: Adobe Illustrator 13.0.0, SVG Export Plug-In . SVG Version: 6.00 Build 14948)  --> <svg version="1.2" baseProfile="tiny" id="Layer_1" xmlns="http://www.w3.org/2000/svg" xmlns:xlink="http://www.w3.org/1999/xlink" x="0px" y="0px" width="512px" height="512px" viewBox="0 0 512 512" xml:space="preserve">
<polygon points="0,0 512,0 512,512 0,512" style="fill:#ffffff; stroke:#000000;stroke-width:0"/>
<polygon points="-98.3967,97.9584 -105.724,139.991 -321.323,102.406 -313.996,60.3735" style="fill:#006363; stroke:#000000;stroke-width:0"/>
<circle fill="#006363" stroke="#006363" stroke-width="0" cx="-102.06" cy="118.975" r="21.3333"/>
<circle fill="#006363" stroke="#006363" stroke-width="0" cx="-317.659" cy="81.3898" r="21.3333"/>
<polygon points="751.362,375.455 713.816,355.187 812.441,172.491 849.986,192.759" style="fill:#006363; stroke:#000000;stroke-width:0"/>
<circle fill="#006363" stroke="#006363" stroke-width="0" cx="732.589" cy="365.321" r="21.3333"/>
<circle fill="#006363" stroke="#006363" stroke-width="0" cx="831.213" cy="182.625" r="21.3333"/>
<polygon points="1256,469.333 256,1469.33 -744,469.333" style="fill:#000000; stroke:#000000;stroke-width:0"/>
<polygon points="-744,42.6667 256,-957.333 1256,42.6667" style="fill:#000000; stroke:#000000;stroke-width:0"/>
<circle fill="#a64b00" stroke="#a64b00" stroke-width="0" cx="-102.06" cy="118.975" r="21.3333"/>
<circle fill="#a64b00" stroke="#a64b00" stroke-width="0" cx="-317.659" cy="81.3898" r="21.3333"/>
<circle fill="#a64b00" stroke="#a64b00" stroke-width="0" cx="732.589" cy="365.321" r="21.3333"/>
<circle fill="#a64b00" stroke="#a64b00" stroke-width="0" cx="831.213" cy="182.625" r="21.3333"/>
<circle fill="#a64b00" stroke="#a64b00" stroke-width="0" cx="45.066" cy="335.347" r="21.3333"/>
</svg>
