<?xml version="1.0" encoding="utf-8"?> <!-- Generator: Adobe Illustrator 13.0.0, SVG Export Plug-In . SVG Version: 6.00 Build 14948)  --> <svg version="1.2" baseProfile="tiny" id="Layer_1" xmlns="http://www.w3.org/2000/svg" xmlns:xlink="http://www.w3.org/1999/xlink" x="0px" y="0px" width="512px" height="512px" viewBox="0 0 512 512" xml:space="preserve">
<polygon points="0,0 512,0 512,512 0,512" style="fill:#ffffff; stroke:#000000;stroke-width:0"/>
<polygon points="-157.334,190.884 -114.932,195.625 -139.089,411.671 -181.492,406.93" style="fill:#006363; stroke:#000000;stroke-width:0"/>
<circle fill="#006363" stroke="#006363" stroke-width="0" cx="-136.133" cy="193.254" r="21.3333"/>
<circle fill="#006363" stroke="#006363" stroke-width="0" cx="-160.291" cy="409.301" r="21.3333"/>
<polygon points="655.261,450.623 622.331,423.493 758.776,257.873 791.707,285.003" style="fill:#006363; stroke:#000000;stroke-width:0"/>
<circle fill="#006363" stroke="#006363" stroke-width="0" cx="638.796" cy="437.058" r="21.3333"/>
<circle fill="#006363" stroke="#006363" stroke-width="0" cx="775.241" cy="271.438" r="21.3333"/>
<polygon points="1256,469.333 256,1469.33 -744,469.333" style="fill:#000000; stroke:#000000;stroke-width:0"/>
<polygon points="-744,42.6667 256,-957.333 1256,42.6667" style="fill:#000000; stroke:#000000;stroke-width:0"/>
<circle fill="#a64b00" stroke="#a64b00" stroke-width="0" cx="-136.133" cy="193.254" r="21.3333"/>
<circle fill="#a64b00" stroke="#a64b00" stroke-width="0" cx="-160.291" cy="409.301" r="21.3333"/>
<circle fill="#a64b00" stroke="#a64b00" stroke-width="0" cx="638.796" cy="437.058" r="21.3333"/>
<circle fill="#a64b00" stroke="#a64b00" stroke-width="0" cx="775.241" cy="271.438" r="21.3333"/>
<circle fill="#a64b00" stroke="#a64b00" stroke-width="0" cx="185.253" cy="230.401" r="21.3333"/>
</svg>
