<?xml version="1.0" encoding="utf-8"?> <!-- Generator: Adobe Illustrator 13.0.0, SVG Export Plug-In . SVG Version: 6.00 Build 14948)  --> <svg version="1.2" baseProfile="tiny" id="Layer_1" xmlns="http://www.w3.org/2000/svg" xmlns:xlink="http://www.w3.org/1999/xlink" x="0px" y="0px" width="512px" height="512px" viewBox="0 0 512 512" xml:space="preserve">
<polygon points="0,0 512,0 512,512 0,512" style="fill:#ffffff; stroke:#000000;stroke-width:0"/>
<polygon points="-59.899,420.365 -74.9279,460.297 -267.48,387.828 -252.451,347.896" style="fill:#006363; stroke:#000000;stroke-width:0"/>
<circle fill="#006363" stroke="#006363" stroke-width="0" cx="-67.4134" cy="440.331" r="21.3333"/>
<circle fill="#006363" stroke="#006363" stroke-width="0" cx="-259.965" cy="367.862" r="21.3333"/>
<polygon points="702.141,379.683 663.043,362.6 749.497,164.741 788.595,181.824" style="fill:#006363; stroke:#000000;stroke-width:0"/>
<circle fill="#006363" stroke="#006363" stroke-width="0" cx="682.592" cy="371.142" r="21.3333"/>
<circle fill="#006363" stroke="#006363" stroke-width="0" cx="769.046" cy="173.283" r="21.3333"/>
<polygon points="1256,469.333 256,1469.33 -744,469.333" style="fill:#000000; stroke:#000000;stroke-width:0"/>
<polygon points="-744,42.6667 256,-957.333 1256,42.6667" style="fill:#000000; stroke:#000000;stroke-width:0"/>
<circle fill="#a64b00" stroke="#a64b00" stroke-width="0" cx="-67.4134" cy="440.331" r="21.3333"/>
<circle fill="#a64b00" stroke="#a64b00" stroke-width="0" cx="-259.965" cy="367.862" r="21.3333"/>
<circle fill="#a64b00" stroke="#a64b00" stroke-width="0" cx="682.592" cy="371.142" r="21.3333"/>
<circle fill="#a64b00" stroke="#a64b00" stroke-width="0" cx="769.046" cy="173.283" r="21.3333"/>
<circle fill="#a64b00" stroke="#a64b00" stroke-width="0" cx="150.057" cy="449.833" r="21.3333"/>
</svg>
