<?xml version="1.0" encoding="utf-8"?> <!-- Generator: Adobe Illustrator 13.0.0, SVG Export Plug-In . SVG Version: 6.00 Build 14948)  --> <svg version="1.2" baseProfile="tiny" id="Layer_1" xmlns="http://www.w3.org/2000/svg" xmlns:xlink="http://www.w3.org/1999/xlink" x="0px" y="0px" width="512px" height="512px" viewBox="0 0 512 512" xml:space="preserve">
<polygon points="0,0 512,0 512,512 0,512" style="fill:#ffffff; stroke:#000000;stroke-width:0"/>
<polygon points="-208.532,356.325 -246.21,376.345 -349.175,182.562 -311.497,162.542" style="fill:#006363; stroke:#000000;stroke-width:0"/>
<circle fill="#006363" stroke="#006363" stroke-width="0" cx="-227.371" cy="366.335" r="21.3333"/>
<circle fill="#006363" stroke="#006363" stroke-width="0" cx="-330.336" cy="172.552" r="21.3333"/>
<polygon points="769.661,292.411 796.326,259.103 961.75,391.535 935.085,424.843" style="fill:#006363; stroke:#000000;stroke-width:0"/>
<circle fill="#006363" stroke="#006363" stroke-width="0" cx="782.994" cy="275.757" r="21.3333"/>
<circle fill="#006363" stroke="#006363" stroke-width="0" cx="948.418" cy="408.189" r="21.3333"/>
<polygon points="1256,469.333 256,1469.33 -744,469.333" style="fill:#000000; stroke:#000000;stroke-width:0"/>
<polygon points="-744,42.6667 256,-957.333 1256,42.6667" style="fill:#000000; stroke:#000000;stroke-width:0"/>
<circle fill="#a64b00" stroke="#a64b00" stroke-width="0" cx="-227.371" cy="366.335" r="21.3333"/>
<circle fill="#a64b00" stroke="#a64b00" stroke-width="0" cx="-330.336" cy="172.552" r="21.3333"/>
<circle fill="#a64b00" stroke="#a64b00" stroke-width="0" cx="782.994" cy="275.757" r="21.3333"/>
<circle fill="#a64b00" stroke="#a64b00" stroke-width="0" cx="948.418" cy="408.189" r="21.3333"/>
<circle fill="#a64b00" stroke="#a64b00" stroke-width="0" cx="-111.825" cy="173.158" r="21.3333"/>
</svg>
