<?xml version="1.0" encoding="utf-8"?> <!-- Generator: Adobe Illustrator 13.0.0, SVG Export Plug-In . SVG Version: 6.00 Build 14948)  --> <svg version="1.2" baseProfile="tiny" id="Layer_1" xmlns="http://www.w3.org/2000/svg" xmlns:xlink="http://www.w3.org/1999/xlink" x="0px" y="0px" width="512px" height="512px" viewBox="0 0 512 512" xml:space="preserve">
<polygon points="0,0 512,0 512,512 0,512" style="fill:#ffffff; stroke:#000000;stroke-width:0"/>
<polygon points="-412.444,187.39 -420.64,145.518 -207.606,103.817 -199.41,145.689" style="fill:#006363; stroke:#000000;stroke-width:0"/>
<circle fill="#006363" stroke="#006363" stroke-width="0" cx="-416.542" cy="166.454" r="21.3333"/>
<circle fill="#006363" stroke="#006363" stroke-width="0" cx="-203.508" cy="124.753" r="21.3333"/>
<polygon points="897.268,216.71 939.406,223.402 906.159,432.741 864.02,426.049" style="fill:#006363; stroke:#000000;stroke-width:0"/>
<circle fill="#006363" stroke="#006363" stroke-width="0" cx="918.337" cy="220.056" r="21.3333"/>
<circle fill="#006363" stroke="#006363" stroke-width="0" cx="885.089" cy="429.395" r="21.3333"/>
<polygon points="1256,469.333 256,1469.33 -744,469.333" style="fill:#000000; stroke:#000000;stroke-width:0"/>
<polygon points="-744,42.6667 256,-957.333 1256,42.6667" style="fill:#000000; stroke:#000000;stroke-width:0"/>
<circle fill="#a64b00" stroke="#a64b00" stroke-width="0" cx="-416.542" cy="166.454" r="21.3333"/>
<circle fill="#a64b00" stroke="#a64b00" stroke-width="0" cx="-203.508" cy="124.753" r="21.3333"/>
<circle fill="#a64b00" stroke="#a64b00" stroke-width="0" cx="918.337" cy="220.056" r="21.3333"/>
<circle fill="#a64b00" stroke="#a64b00" stroke-width="0" cx="885.089" cy="429.395" r="21.3333"/>
<circle fill="#a64b00" stroke="#a64b00" stroke-width="0" cx="126.324" cy="184.416" r="21.3333"/>
</svg>
