<?xml version="1.0" encoding="utf-8"?> <!-- Generator: Adobe Illustrator 13.0.0, SVG Export Plug-In . SVG Version: 6.00 Build 14948)  --> <svg version="1.2" baseProfile="tiny" id="Layer_1" xmlns="http://www.w3.org/2000/svg" xmlns:xlink="http://www.w3.org/1999/xlink" x="0px" y="0px" width="512px" height="512px" viewBox="0 0 512 512" xml:space="preserve">
<polygon points="0,0 512,0 512,512 0,512" style="fill:#ffffff; stroke:#000000;stroke-width:0"/>
<polygon points="-24.6717,178.499 17.2572,170.599 55.4066,373.084 13.4776,380.984" style="fill:#006363; stroke:#000000;stroke-width:0"/>
<circle fill="#006363" stroke="#006363" stroke-width="0" cx="-3.70725" cy="174.549" r="21.3333"/>
<circle fill="#006363" stroke="#006363" stroke-width="0" cx="34.4421" cy="377.034" r="21.3333"/>
<polygon points="448.754,127.916 488.42,112.199 567.02,310.569 527.353,326.286" style="fill:#006363; stroke:#000000;stroke-width:0"/>
<circle fill="#006363" stroke="#006363" stroke-width="0" cx="468.587" cy="120.057" r="21.3333"/>
<circle fill="#006363" stroke="#006363" stroke-width="0" cx="547.186" cy="318.428" r="21.3333"/>
<polygon points="1256,469.333 256,1469.33 -744,469.333" style="fill:#000000; stroke:#000000;stroke-width:0"/>
<polygon points="-744,42.6667 256,-957.333 1256,42.6667" style="fill:#000000; stroke:#000000;stroke-width:0"/>
<circle fill="#a64b00" stroke="#a64b00" stroke-width="0" cx="-3.70725" cy="174.549" r="21.3333"/>
<circle fill="#a64b00" stroke="#a64b00" stroke-width="0" cx="34.4421" cy="377.034" r="21.3333"/>
<circle fill="#a64b00" stroke="#a64b00" stroke-width="0" cx="468.587" cy="120.057" r="21.3333"/>
<circle fill="#a64b00" stroke="#a64b00" stroke-width="0" cx="547.186" cy="318.428" r="21.3333"/>
<circle fill="#a64b00" stroke="#a64b00" stroke-width="0" cx="341.175" cy="64.2866" r="21.3333"/>
</svg>
