<?xml version="1.0" encoding="utf-8"?> <!-- Generator: Adobe Illustrator 13.0.0, SVG Export Plug-In . SVG Version: 6.00 Build 14948)  --> <svg version="1.2" baseProfile="tiny" id="Layer_1" xmlns="http://www.w3.org/2000/svg" xmlns:xlink="http://www.w3.org/1999/xlink" x="0px" y="0px" width="512px" height="512px" viewBox="0 0 512 512" xml:space="preserve">
<polygon points="0,0 512,0 512,512 0,512" style="fill:#ffffff; stroke:#000000;stroke-width:0"/>
<polygon points="-158.654,416.583 -193.6,392.105 -72.1861,218.768 -37.2396,243.247" style="fill:#006363; stroke:#000000;stroke-width:0"/>
<circle fill="#006363" stroke="#006363" stroke-width="0" cx="-176.127" cy="404.344" r="21.3333"/>
<circle fill="#006363" stroke="#006363" stroke-width="0" cx="-54.7128" cy="231.007" r="21.3333"/>
<polygon points="578.872,250.562 609.646,221.008 755.503,372.882 724.729,402.436" style="fill:#006363; stroke:#000000;stroke-width:0"/>
<circle fill="#006363" stroke="#006363" stroke-width="0" cx="594.259" cy="235.785" r="21.3333"/>
<circle fill="#006363" stroke="#006363" stroke-width="0" cx="740.116" cy="387.659" r="21.3333"/>
<polygon points="1256,469.333 256,1469.33 -744,469.333" style="fill:#000000; stroke:#000000;stroke-width:0"/>
<polygon points="-744,42.6667 256,-957.333 1256,42.6667" style="fill:#000000; stroke:#000000;stroke-width:0"/>
<circle fill="#a64b00" stroke="#a64b00" stroke-width="0" cx="-176.127" cy="404.344" r="21.3333"/>
<circle fill="#a64b00" stroke="#a64b00" stroke-width="0" cx="-54.7128" cy="231.007" r="21.3333"/>
<circle fill="#a64b00" stroke="#a64b00" stroke-width="0" cx="594.259" cy="235.785" r="21.3333"/>
<circle fill="#a64b00" stroke="#a64b00" stroke-width="0" cx="740.116" cy="387.659" r="21.3333"/>
<circle fill="#a64b00" stroke="#a64b00" stroke-width="0" cx="259.821" cy="259.023" r="21.3333"/>
</svg>
