<?xml version="1.0" encoding="utf-8"?> <!-- Generator: Adobe Illustrator 13.0.0, SVG Export Plug-In . SVG Version: 6.00 Build 14948)  --> <svg version="1.2" baseProfile="tiny" id="Layer_1" xmlns="http://www.w3.org/2000/svg" xmlns:xlink="http://www.w3.org/1999/xlink" x="0px" y="0px" width="512px" height="512px" viewBox="0 0 512 512" xml:space="preserve">
<polygon points="0,0 512,0 512,512 0,512" style="fill:#ffffff; stroke:#000000;stroke-width:0"/>
<polygon points="-6.64226,110.567 35.7686,105.902 59.4501,321.208 17.0392,325.873" style="fill:#006363; stroke:#000000;stroke-width:0"/>
<circle fill="#006363" stroke="#006363" stroke-width="0" cx="14.5632" cy="108.234" r="21.3333"/>
<circle fill="#006363" stroke="#006363" stroke-width="0" cx="38.2446" cy="323.541" r="21.3333"/>
<polygon points="455.182,206.117 497.311,199.362 531.326,411.522 489.197,418.276" style="fill:#006363; stroke:#000000;stroke-width:0"/>
<circle fill="#006363" stroke="#006363" stroke-width="0" cx="476.247" cy="202.739" r="21.3333"/>
<circle fill="#006363" stroke="#006363" stroke-width="0" cx="510.262" cy="414.899" r="21.3333"/>
<polygon points="1256,469.333 256,1469.33 -744,469.333" style="fill:#000000; stroke:#000000;stroke-width:0"/>
<polygon points="-744,42.6667 256,-957.333 1256,42.6667" style="fill:#000000; stroke:#000000;stroke-width:0"/>
<circle fill="#a64b00" stroke="#a64b00" stroke-width="0" cx="14.5632" cy="108.234" r="21.3333"/>
<circle fill="#a64b00" stroke="#a64b00" stroke-width="0" cx="38.2446" cy="323.541" r="21.3333"/>
<circle fill="#a64b00" stroke="#a64b00" stroke-width="0" cx="476.247" cy="202.739" r="21.3333"/>
<circle fill="#a64b00" stroke="#a64b00" stroke-width="0" cx="510.262" cy="414.899" r="21.3333"/>
<circle fill="#a64b00" stroke="#a64b00" stroke-width="0" cx="473.7" cy="429.03" r="21.3333"/>
</svg>
