<?xml version="1.0" encoding="utf-8"?> <!-- Generator: Adobe Illustrator 13.0.0, SVG Export Plug-In . SVG Version: 6.00 Build 14948)  --> <svg version="1.2" baseProfile="tiny" id="Layer_1" xmlns="http://www.w3.org/2000/svg" xmlns:xlink="http://www.w3.org/1999/xlink" x="0px" y="0px" width="512px" height="512px" viewBox="0 0 512 512" xml:space="preserve">
<polygon points="0,0 512,0 512,512 0,512" style="fill:#ffffff; stroke:#000000;stroke-width:0"/>
<polygon points="-76.8114,162.899 -71.4839,205.232 -293.065,233.117 -298.393,190.784" style="fill:#006363; stroke:#000000;stroke-width:0"/>
<circle fill="#006363" stroke="#006363" stroke-width="0" cx="-74.1476" cy="184.065" r="21.3333"/>
<circle fill="#006363" stroke="#006363" stroke-width="0" cx="-295.729" cy="211.951" r="21.3333"/>
<polygon points="744.664,292.017 703.54,280.649 758.595,81.4924 799.719,92.8608" style="fill:#006363; stroke:#000000;stroke-width:0"/>
<circle fill="#006363" stroke="#006363" stroke-width="0" cx="724.102" cy="286.333" r="21.3333"/>
<circle fill="#006363" stroke="#006363" stroke-width="0" cx="779.157" cy="87.1766" r="21.3333"/>
<polygon points="1256,469.333 256,1469.33 -744,469.333" style="fill:#000000; stroke:#000000;stroke-width:0"/>
<polygon points="-744,42.6667 256,-957.333 1256,42.6667" style="fill:#000000; stroke:#000000;stroke-width:0"/>
<circle fill="#a64b00" stroke="#a64b00" stroke-width="0" cx="-74.1476" cy="184.065" r="21.3333"/>
<circle fill="#a64b00" stroke="#a64b00" stroke-width="0" cx="-295.729" cy="211.951" r="21.3333"/>
<circle fill="#a64b00" stroke="#a64b00" stroke-width="0" cx="724.102" cy="286.333" r="21.3333"/>
<circle fill="#a64b00" stroke="#a64b00" stroke-width="0" cx="779.157" cy="87.1766" r="21.3333"/>
<circle fill="#a64b00" stroke="#a64b00" stroke-width="0" cx="101.737" cy="440.293" r="21.3333"/>
</svg>
