<?xml version="1.0" encoding="utf-8"?> <!-- Generator: Adobe Illustrator 13.0.0, SVG Export Plug-In . SVG Version: 6.00 Build 14948)  --> <svg version="1.2" baseProfile="tiny" id="Layer_1" xmlns="http://www.w3.org/2000/svg" xmlns:xlink="http://www.w3.org/1999/xlink" x="0px" y="0px" width="512px" height="512px" viewBox="0 0 512 512" xml:space="preserve">
<polygon points="0,0 512,0 512,512 0,512" style="fill:#ffffff; stroke:#000000;stroke-width:0"/>
<polygon points="-32.4165,196.715 9.27526,187.647 55.1248,398.434 13.433,407.503" style="fill:#006363; stroke:#000000;stroke-width:0"/>
<circle fill="#006363" stroke="#006363" stroke-width="0" cx="-11.5706" cy="192.181" r="21.3333"/>
<circle fill="#006363" stroke="#006363" stroke-width="0" cx="34.2789" cy="402.968" r="21.3333"/>
<polygon points="447.381,101.093 485.674,82.2741 579.034,272.246 540.741,291.064" style="fill:#006363; stroke:#000000;stroke-width:0"/>
<circle fill="#006363" stroke="#006363" stroke-width="0" cx="466.528" cy="91.6833" r="21.3333"/>
<circle fill="#006363" stroke="#006363" stroke-width="0" cx="559.888" cy="281.655" r="21.3333"/>
<polygon points="1256,469.333 256,1469.33 -744,469.333" style="fill:#000000; stroke:#000000;stroke-width:0"/>
<polygon points="-744,42.6667 256,-957.333 1256,42.6667" style="fill:#000000; stroke:#000000;stroke-width:0"/>
<circle fill="#a64b00" stroke="#a64b00" stroke-width="0" cx="-11.5706" cy="192.181" r="21.3333"/>
<circle fill="#a64b00" stroke="#a64b00" stroke-width="0" cx="34.2789" cy="402.968" r="21.3333"/>
<circle fill="#a64b00" stroke="#a64b00" stroke-width="0" cx="466.528" cy="91.6833" r="21.3333"/>
<circle fill="#a64b00" stroke="#a64b00" stroke-width="0" cx="559.888" cy="281.655" r="21.3333"/>
<circle fill="#a64b00" stroke="#a64b00" stroke-width="0" cx="292.984" cy="219.496" r="21.3333"/>
</svg>
