<?xml version="1.0" encoding="utf-8"?> <!-- Generator: Adobe Illustrator 13.0.0, SVG Export Plug-In . SVG Version: 6.00 Build 14948)  --> <svg version="1.2" baseProfile="tiny" id="Layer_1" xmlns="http://www.w3.org/2000/svg" xmlns:xlink="http://www.w3.org/1999/xlink" x="0px" y="0px" width="512px" height="512px" viewBox="0 0 512 512" xml:space="preserve">
<polygon points="0,0 512,0 512,512 0,512" style="fill:#ffffff; stroke:#000000;stroke-width:0"/>
<polygon points="-186.864,356.416 -218.483,385.064 -365.596,222.696 -333.977,194.048" style="fill:#006363; stroke:#000000;stroke-width:0"/>
<circle fill="#006363" stroke="#006363" stroke-width="0" cx="-202.674" cy="370.74" r="21.3333"/>
<circle fill="#006363" stroke="#006363" stroke-width="0" cx="-349.787" cy="208.372" r="21.3333"/>
<polygon points="764.508,304.618 787.94,268.961 960.531,382.381 937.099,418.038" style="fill:#006363; stroke:#000000;stroke-width:0"/>
<circle fill="#006363" stroke="#006363" stroke-width="0" cx="776.224" cy="286.789" r="21.3333"/>
<circle fill="#006363" stroke="#006363" stroke-width="0" cx="948.815" cy="400.209" r="21.3333"/>
<polygon points="1256,469.333 256,1469.33 -744,469.333" style="fill:#000000; stroke:#000000;stroke-width:0"/>
<polygon points="-744,42.6667 256,-957.333 1256,42.6667" style="fill:#000000; stroke:#000000;stroke-width:0"/>
<circle fill="#a64b00" stroke="#a64b00" stroke-width="0" cx="-202.674" cy="370.74" r="21.3333"/>
<circle fill="#a64b00" stroke="#a64b00" stroke-width="0" cx="-349.787" cy="208.372" r="21.3333"/>
<circle fill="#a64b00" stroke="#a64b00" stroke-width="0" cx="776.224" cy="286.789" r="21.3333"/>
<circle fill="#a64b00" stroke="#a64b00" stroke-width="0" cx="948.815" cy="400.209" r="21.3333"/>
<circle fill="#a64b00" stroke="#a64b00" stroke-width="0" cx="-105.859" cy="268.563" r="21.3333"/>
</svg>
