<?xml version="1.0" encoding="utf-8"?> <!-- Generator: Adobe Illustrator 13.0.0, SVG Export Plug-In . SVG Version: 6.00 Build 14948)  --> <svg version="1.2" baseProfile="tiny" id="Layer_1" xmlns="http://www.w3.org/2000/svg" xmlns:xlink="http://www.w3.org/1999/xlink" x="0px" y="0px" width="512px" height="512px" viewBox="0 0 512 512" xml:space="preserve">
<polygon points="0,0 512,0 512,512 0,512" style="fill:#ffffff; stroke:#000000;stroke-width:0"/>
<polygon points="-179.039,317.596 -159.441,355.495 -339.842,448.782 -359.44,410.883" style="fill:#006363; stroke:#000000;stroke-width:0"/>
<circle fill="#006363" stroke="#006363" stroke-width="0" cx="-169.24" cy="336.546" r="21.3333"/>
<circle fill="#006363" stroke="#006363" stroke-width="0" cx="-349.641" cy="429.833" r="21.3333"/>
<polygon points="734.746,376.357 734.05,333.696 949.506,330.179 950.202,372.84" style="fill:#006363; stroke:#000000;stroke-width:0"/>
<circle fill="#006363" stroke="#006363" stroke-width="0" cx="734.398" cy="355.026" r="21.3333"/>
<circle fill="#006363" stroke="#006363" stroke-width="0" cx="949.854" cy="351.51" r="21.3333"/>
<polygon points="1256,469.333 256,1469.33 -744,469.333" style="fill:#000000; stroke:#000000;stroke-width:0"/>
<polygon points="-744,42.6667 256,-957.333 1256,42.6667" style="fill:#000000; stroke:#000000;stroke-width:0"/>
<circle fill="#a64b00" stroke="#a64b00" stroke-width="0" cx="-169.24" cy="336.546" r="21.3333"/>
<circle fill="#a64b00" stroke="#a64b00" stroke-width="0" cx="-349.641" cy="429.833" r="21.3333"/>
<circle fill="#a64b00" stroke="#a64b00" stroke-width="0" cx="734.398" cy="355.026" r="21.3333"/>
<circle fill="#a64b00" stroke="#a64b00" stroke-width="0" cx="949.854" cy="351.51" r="21.3333"/>
<circle fill="#a64b00" stroke="#a64b00" stroke-width="0" cx="-67.6804" cy="96.8337" r="21.3333"/>
</svg>
