<?xml version="1.0" encoding="utf-8"?> <!-- Generator: Adobe Illustrator 13.0.0, SVG Export Plug-In . SVG Version: 6.00 Build 14948)  --> <svg version="1.2" baseProfile="tiny" id="Layer_1" xmlns="http://www.w3.org/2000/svg" xmlns:xlink="http://www.w3.org/1999/xlink" x="0px" y="0px" width="512px" height="512px" viewBox="0 0 512 512" xml:space="preserve">
<polygon points="0,0 512,0 512,512 0,512" style="fill:#ffffff; stroke:#000000;stroke-width:0"/>
<polygon points="-191.159,355.939 -224.099,383.057 -362.35,215.129 -329.41,188.01" style="fill:#006363; stroke:#000000;stroke-width:0"/>
<circle fill="#006363" stroke="#006363" stroke-width="0" cx="-207.629" cy="369.498" r="21.3333"/>
<circle fill="#006363" stroke="#006363" stroke-width="0" cx="-345.88" cy="201.57" r="21.3333"/>
<polygon points="762.151,299.877 786.26,264.675 964.162,386.511 940.054,421.713" style="fill:#006363; stroke:#000000;stroke-width:0"/>
<circle fill="#006363" stroke="#006363" stroke-width="0" cx="774.206" cy="282.276" r="21.3333"/>
<circle fill="#006363" stroke="#006363" stroke-width="0" cx="952.108" cy="404.112" r="21.3333"/>
<polygon points="1256,469.333 256,1469.33 -744,469.333" style="fill:#000000; stroke:#000000;stroke-width:0"/>
<polygon points="-744,42.6667 256,-957.333 1256,42.6667" style="fill:#000000; stroke:#000000;stroke-width:0"/>
<circle fill="#a64b00" stroke="#a64b00" stroke-width="0" cx="-207.629" cy="369.498" r="21.3333"/>
<circle fill="#a64b00" stroke="#a64b00" stroke-width="0" cx="-345.88" cy="201.57" r="21.3333"/>
<circle fill="#a64b00" stroke="#a64b00" stroke-width="0" cx="774.206" cy="282.276" r="21.3333"/>
<circle fill="#a64b00" stroke="#a64b00" stroke-width="0" cx="952.108" cy="404.112" r="21.3333"/>
<circle fill="#a64b00" stroke="#a64b00" stroke-width="0" cx="-107.052" cy="249.482" r="21.3333"/>
</svg>
