<?xml version="1.0" encoding="utf-8"?> <!-- Generator: Adobe Illustrator 13.0.0, SVG Export Plug-In . SVG Version: 6.00 Build 14948)  --> <svg version="1.2" baseProfile="tiny" id="Layer_1" xmlns="http://www.w3.org/2000/svg" xmlns:xlink="http://www.w3.org/1999/xlink" x="0px" y="0px" width="512px" height="512px" viewBox="0 0 512 512" xml:space="preserve">
<polygon points="0,0 512,0 512,512 0,512" style="fill:#ffffff; stroke:#000000;stroke-width:0"/>
<polygon points="-107.362,75.5785 -64.9744,70.7024 -40.5814,282.748 -82.9685,287.624" style="fill:#006363; stroke:#000000;stroke-width:0"/>
<circle fill="#006363" stroke="#006363" stroke-width="0" cx="-86.1679" cy="73.1404" r="21.3333"/>
<circle fill="#006363" stroke="#006363" stroke-width="0" cx="-61.7749" cy="285.186" r="21.3333"/>
<polygon points="717.111,215.45 725.751,257.232 516.571,300.488 507.931,258.705" style="fill:#006363; stroke:#000000;stroke-width:0"/>
<circle fill="#006363" stroke="#006363" stroke-width="0" cx="721.431" cy="236.341" r="21.3333"/>
<circle fill="#006363" stroke="#006363" stroke-width="0" cx="512.251" cy="279.597" r="21.3333"/>
<polygon points="1256,469.333 256,1469.33 -744,469.333" style="fill:#000000; stroke:#000000;stroke-width:0"/>
<polygon points="-744,42.6667 256,-957.333 1256,42.6667" style="fill:#000000; stroke:#000000;stroke-width:0"/>
<circle fill="#a64b00" stroke="#a64b00" stroke-width="0" cx="-86.1679" cy="73.1404" r="21.3333"/>
<circle fill="#a64b00" stroke="#a64b00" stroke-width="0" cx="-61.7749" cy="285.186" r="21.3333"/>
<circle fill="#a64b00" stroke="#a64b00" stroke-width="0" cx="721.431" cy="236.341" r="21.3333"/>
<circle fill="#a64b00" stroke="#a64b00" stroke-width="0" cx="512.251" cy="279.597" r="21.3333"/>
<circle fill="#a64b00" stroke="#a64b00" stroke-width="0" cx="354.075" cy="316.266" r="21.3333"/>
</svg>
