<?xml version="1.0" encoding="utf-8"?> <!-- Generator: Adobe Illustrator 13.0.0, SVG Export Plug-In . SVG Version: 6.00 Build 14948)  --> <svg version="1.2" baseProfile="tiny" id="Layer_1" xmlns="http://www.w3.org/2000/svg" xmlns:xlink="http://www.w3.org/1999/xlink" x="0px" y="0px" width="512px" height="512px" viewBox="0 0 512 512" xml:space="preserve">
<polygon points="0,0 512,0 512,512 0,512" style="fill:#ffffff; stroke:#000000;stroke-width:0"/>
<polygon points="-136.417,177.304 -95.8014,164.234 -29.8893,369.052 -70.5047,382.122" style="fill:#006363; stroke:#000000;stroke-width:0"/>
<circle fill="#006363" stroke="#006363" stroke-width="0" cx="-116.109" cy="170.769" r="21.3333"/>
<circle fill="#006363" stroke="#006363" stroke-width="0" cx="-50.197" cy="375.587" r="21.3333"/>
<polygon points="697.729,186.576 724.43,219.855 558.258,353.176 531.558,319.897" style="fill:#006363; stroke:#000000;stroke-width:0"/>
<circle fill="#006363" stroke="#006363" stroke-width="0" cx="711.08" cy="203.216" r="21.3333"/>
<circle fill="#006363" stroke="#006363" stroke-width="0" cx="544.908" cy="336.536" r="21.3333"/>
<polygon points="1256,469.333 256,1469.33 -744,469.333" style="fill:#000000; stroke:#000000;stroke-width:0"/>
<polygon points="-744,42.6667 256,-957.333 1256,42.6667" style="fill:#000000; stroke:#000000;stroke-width:0"/>
<circle fill="#a64b00" stroke="#a64b00" stroke-width="0" cx="-116.109" cy="170.769" r="21.3333"/>
<circle fill="#a64b00" stroke="#a64b00" stroke-width="0" cx="-50.197" cy="375.587" r="21.3333"/>
<circle fill="#a64b00" stroke="#a64b00" stroke-width="0" cx="711.08" cy="203.216" r="21.3333"/>
<circle fill="#a64b00" stroke="#a64b00" stroke-width="0" cx="544.908" cy="336.536" r="21.3333"/>
<circle fill="#a64b00" stroke="#a64b00" stroke-width="0" cx="333.196" cy="249.482" r="21.3333"/>
</svg>
