<?xml version="1.0" encoding="utf-8"?> <!-- Generator: Adobe Illustrator 13.0.0, SVG Export Plug-In . SVG Version: 6.00 Build 14948)  --> <svg version="1.2" baseProfile="tiny" id="Layer_1" xmlns="http://www.w3.org/2000/svg" xmlns:xlink="http://www.w3.org/1999/xlink" x="0px" y="0px" width="512px" height="512px" viewBox="0 0 512 512" xml:space="preserve">
<polygon points="0,0 512,0 512,512 0,512" style="fill:#ffffff; stroke:#000000;stroke-width:0"/>
<polygon points="-144.07,210.971 -104.251,195.645 -26.4332,397.831 -66.2524,413.156" style="fill:#006363; stroke:#000000;stroke-width:0"/>
<circle fill="#006363" stroke="#006363" stroke-width="0" cx="-124.161" cy="203.308" r="21.3333"/>
<circle fill="#006363" stroke="#006363" stroke-width="0" cx="-46.3428" cy="405.493" r="21.3333"/>
<polygon points="691.449,181.716 721.58,211.924 569.637,363.48 539.506,333.272" style="fill:#006363; stroke:#000000;stroke-width:0"/>
<circle fill="#006363" stroke="#006363" stroke-width="0" cx="706.515" cy="196.82" r="21.3333"/>
<circle fill="#006363" stroke="#006363" stroke-width="0" cx="554.571" cy="348.376" r="21.3333"/>
<polygon points="1256,469.333 256,1469.33 -744,469.333" style="fill:#000000; stroke:#000000;stroke-width:0"/>
<polygon points="-744,42.6667 256,-957.333 1256,42.6667" style="fill:#000000; stroke:#000000;stroke-width:0"/>
<circle fill="#a64b00" stroke="#a64b00" stroke-width="0" cx="-124.161" cy="203.308" r="21.3333"/>
<circle fill="#a64b00" stroke="#a64b00" stroke-width="0" cx="-46.3428" cy="405.493" r="21.3333"/>
<circle fill="#a64b00" stroke="#a64b00" stroke-width="0" cx="706.515" cy="196.82" r="21.3333"/>
<circle fill="#a64b00" stroke="#a64b00" stroke-width="0" cx="554.571" cy="348.376" r="21.3333"/>
<circle fill="#a64b00" stroke="#a64b00" stroke-width="0" cx="328.423" cy="173.158" r="21.3333"/>
</svg>
