<?xml version="1.0" encoding="utf-8"?> <!-- Generator: Adobe Illustrator 13.0.0, SVG Export Plug-In . SVG Version: 6.00 Build 14948)  --> <svg version="1.2" baseProfile="tiny" id="Layer_1" xmlns="http://www.w3.org/2000/svg" xmlns:xlink="http://www.w3.org/1999/xlink" x="0px" y="0px" width="512px" height="512px" viewBox="0 0 512 512" xml:space="preserve">
<polygon points="0,0 512,0 512,512 0,512" style="fill:#ffffff; stroke:#000000;stroke-width:0"/>
<polygon points="-205.407,367.619 -200.545,325.231 4.9972,348.803 0.135792,391.192" style="fill:#006363; stroke:#000000;stroke-width:0"/>
<circle fill="#006363" stroke="#006363" stroke-width="0" cx="-202.976" cy="346.425" r="21.3333"/>
<circle fill="#006363" stroke="#006363" stroke-width="0" cx="2.56649" cy="369.998" r="21.3333"/>
<polygon points="629.145,184.955 671.805,185.663 668.267,399.024 625.606,398.317" style="fill:#006363; stroke:#000000;stroke-width:0"/>
<circle fill="#006363" stroke="#006363" stroke-width="0" cx="650.475" cy="185.309" r="21.3333"/>
<circle fill="#006363" stroke="#006363" stroke-width="0" cx="646.937" cy="398.67" r="21.3333"/>
<polygon points="1256,469.333 256,1469.33 -744,469.333" style="fill:#000000; stroke:#000000;stroke-width:0"/>
<polygon points="-744,42.6667 256,-957.333 1256,42.6667" style="fill:#000000; stroke:#000000;stroke-width:0"/>
<circle fill="#a64b00" stroke="#a64b00" stroke-width="0" cx="-202.976" cy="346.425" r="21.3333"/>
<circle fill="#a64b00" stroke="#a64b00" stroke-width="0" cx="2.56649" cy="369.998" r="21.3333"/>
<circle fill="#a64b00" stroke="#a64b00" stroke-width="0" cx="650.475" cy="185.309" r="21.3333"/>
<circle fill="#a64b00" stroke="#a64b00" stroke-width="0" cx="646.937" cy="398.67" r="21.3333"/>
<circle fill="#a64b00" stroke="#a64b00" stroke-width="0" cx="294.421" cy="411.671" r="21.3333"/>
</svg>
