<?xml version="1.0" encoding="utf-8"?> <!-- Generator: Adobe Illustrator 13.0.0, SVG Export Plug-In . SVG Version: 6.00 Build 14948)  --> <svg version="1.2" baseProfile="tiny" id="Layer_1" xmlns="http://www.w3.org/2000/svg" xmlns:xlink="http://www.w3.org/1999/xlink" x="0px" y="0px" width="512px" height="512px" viewBox="0 0 512 512" xml:space="preserve">
<polygon points="0,0 512,0 512,512 0,512" style="fill:#ffffff; stroke:#000000;stroke-width:0"/>
<polygon points="-240.251,191.983 -215.281,157.386 -39.3827,284.342 -64.3529,318.938" style="fill:#006363; stroke:#000000;stroke-width:0"/>
<circle fill="#006363" stroke="#006363" stroke-width="0" cx="-227.766" cy="174.685" r="21.3333"/>
<circle fill="#006363" stroke="#006363" stroke-width="0" cx="-51.8678" cy="301.64" r="21.3333"/>
<polygon points="608.951,409.386 590.429,370.949 784.692,277.336 803.215,315.773" style="fill:#006363; stroke:#000000;stroke-width:0"/>
<circle fill="#006363" stroke="#006363" stroke-width="0" cx="599.69" cy="390.168" r="21.3333"/>
<circle fill="#006363" stroke="#006363" stroke-width="0" cx="793.954" cy="296.555" r="21.3333"/>
<polygon points="1256,469.333 256,1469.33 -744,469.333" style="fill:#000000; stroke:#000000;stroke-width:0"/>
<polygon points="-744,42.6667 256,-957.333 1256,42.6667" style="fill:#000000; stroke:#000000;stroke-width:0"/>
<circle fill="#a64b00" stroke="#a64b00" stroke-width="0" cx="-227.766" cy="174.685" r="21.3333"/>
<circle fill="#a64b00" stroke="#a64b00" stroke-width="0" cx="-51.8678" cy="301.64" r="21.3333"/>
<circle fill="#a64b00" stroke="#a64b00" stroke-width="0" cx="599.69" cy="390.168" r="21.3333"/>
<circle fill="#a64b00" stroke="#a64b00" stroke-width="0" cx="793.954" cy="296.555" r="21.3333"/>
<circle fill="#a64b00" stroke="#a64b00" stroke-width="0" cx="204.343" cy="363.968" r="21.3333"/>
</svg>
