<?xml version="1.0" encoding="utf-8"?> <!-- Generator: Adobe Illustrator 13.0.0, SVG Export Plug-In . SVG Version: 6.00 Build 14948)  --> <svg version="1.2" baseProfile="tiny" id="Layer_1" xmlns="http://www.w3.org/2000/svg" xmlns:xlink="http://www.w3.org/1999/xlink" x="0px" y="0px" width="512px" height="512px" viewBox="0 0 512 512" xml:space="preserve">
<polygon points="0,0 512,0 512,512 0,512" style="fill:#ffffff; stroke:#000000;stroke-width:0"/>
<polygon points="-135.749,204.363 -129.344,246.546 -333.29,277.511 -339.694,235.328" style="fill:#006363; stroke:#000000;stroke-width:0"/>
<circle fill="#006363" stroke="#006363" stroke-width="0" cx="-132.546" cy="225.455" r="21.3333"/>
<circle fill="#006363" stroke="#006363" stroke-width="0" cx="-336.492" cy="256.419" r="21.3333"/>
<polygon points="757.388,455.064 725.253,426.997 866.32,265.482 898.456,293.549" style="fill:#006363; stroke:#000000;stroke-width:0"/>
<circle fill="#006363" stroke="#006363" stroke-width="0" cx="741.321" cy="441.031" r="21.3333"/>
<circle fill="#006363" stroke="#006363" stroke-width="0" cx="882.388" cy="279.515" r="21.3333"/>
<polygon points="1256,469.333 256,1469.33 -744,469.333" style="fill:#000000; stroke:#000000;stroke-width:0"/>
<polygon points="-744,42.6667 256,-957.333 1256,42.6667" style="fill:#000000; stroke:#000000;stroke-width:0"/>
<circle fill="#a64b00" stroke="#a64b00" stroke-width="0" cx="-132.546" cy="225.455" r="21.3333"/>
<circle fill="#a64b00" stroke="#a64b00" stroke-width="0" cx="-336.492" cy="256.419" r="21.3333"/>
<circle fill="#a64b00" stroke="#a64b00" stroke-width="0" cx="741.321" cy="441.031" r="21.3333"/>
<circle fill="#a64b00" stroke="#a64b00" stroke-width="0" cx="882.388" cy="279.515" r="21.3333"/>
<circle fill="#a64b00" stroke="#a64b00" stroke-width="0" cx="-11.009" cy="220.861" r="21.3333"/>
</svg>
