<?xml version="1.0" encoding="utf-8"?> <!-- Generator: Adobe Illustrator 13.0.0, SVG Export Plug-In . SVG Version: 6.00 Build 14948)  --> <svg version="1.2" baseProfile="tiny" id="Layer_1" xmlns="http://www.w3.org/2000/svg" xmlns:xlink="http://www.w3.org/1999/xlink" x="0px" y="0px" width="512px" height="512px" viewBox="0 0 512 512" xml:space="preserve">
<polygon points="0,0 512,0 512,512 0,512" style="fill:#ffffff; stroke:#000000;stroke-width:0"/>
<polygon points="-309.297,308.45 -348.848,292.444 -266.773,89.6504 -227.223,105.657" style="fill:#006363; stroke:#000000;stroke-width:0"/>
<circle fill="#006363" stroke="#006363" stroke-width="0" cx="-329.072" cy="300.447" r="21.3333"/>
<circle fill="#006363" stroke="#006363" stroke-width="0" cx="-246.998" cy="97.6538" r="21.3333"/>
<polygon points="801.422,258.37 837.355,235.365 952.295,414.891 916.362,437.897" style="fill:#006363; stroke:#000000;stroke-width:0"/>
<circle fill="#006363" stroke="#006363" stroke-width="0" cx="819.389" cy="246.868" r="21.3333"/>
<circle fill="#006363" stroke="#006363" stroke-width="0" cx="934.329" cy="426.394" r="21.3333"/>
<polygon points="1256,469.333 256,1469.33 -744,469.333" style="fill:#000000; stroke:#000000;stroke-width:0"/>
<polygon points="-744,42.6667 256,-957.333 1256,42.6667" style="fill:#000000; stroke:#000000;stroke-width:0"/>
<circle fill="#a64b00" stroke="#a64b00" stroke-width="0" cx="-329.072" cy="300.447" r="21.3333"/>
<circle fill="#a64b00" stroke="#a64b00" stroke-width="0" cx="-246.998" cy="97.6538" r="21.3333"/>
<circle fill="#a64b00" stroke="#a64b00" stroke-width="0" cx="819.389" cy="246.868" r="21.3333"/>
<circle fill="#a64b00" stroke="#a64b00" stroke-width="0" cx="934.329" cy="426.394" r="21.3333"/>
<circle fill="#a64b00" stroke="#a64b00" stroke-width="0" cx="-132.704" cy="278.104" r="21.3333"/>
</svg>
