<?xml version="1.0" encoding="utf-8"?> <!-- Generator: Adobe Illustrator 13.0.0, SVG Export Plug-In . SVG Version: 6.00 Build 14948)  --> <svg version="1.2" baseProfile="tiny" id="Layer_1" xmlns="http://www.w3.org/2000/svg" xmlns:xlink="http://www.w3.org/1999/xlink" x="0px" y="0px" width="512px" height="512px" viewBox="0 0 512 512" xml:space="preserve">
<polygon points="0,0 512,0 512,512 0,512" style="fill:#ffffff; stroke:#000000;stroke-width:0"/>
<polygon points="-119.444,210.106 -80.9475,191.709 10.3266,382.707 -28.1701,401.104" style="fill:#006363; stroke:#000000;stroke-width:0"/>
<circle fill="#006363" stroke="#006363" stroke-width="0" cx="-100.196" cy="200.908" r="21.3333"/>
<circle fill="#006363" stroke="#006363" stroke-width="0" cx="-8.92173" cy="391.906" r="21.3333"/>
<polygon points="683.125,293.702 652.713,323.628 503.397,171.884 533.809,141.959" style="fill:#006363; stroke:#000000;stroke-width:0"/>
<circle fill="#006363" stroke="#006363" stroke-width="0" cx="667.919" cy="308.665" r="21.3333"/>
<circle fill="#006363" stroke="#006363" stroke-width="0" cx="518.603" cy="156.922" r="21.3333"/>
<polygon points="1256,469.333 256,1469.33 -744,469.333" style="fill:#000000; stroke:#000000;stroke-width:0"/>
<polygon points="-744,42.6667 256,-957.333 1256,42.6667" style="fill:#000000; stroke:#000000;stroke-width:0"/>
<circle fill="#a64b00" stroke="#a64b00" stroke-width="0" cx="-100.196" cy="200.908" r="21.3333"/>
<circle fill="#a64b00" stroke="#a64b00" stroke-width="0" cx="-8.92173" cy="391.906" r="21.3333"/>
<circle fill="#a64b00" stroke="#a64b00" stroke-width="0" cx="667.919" cy="308.665" r="21.3333"/>
<circle fill="#a64b00" stroke="#a64b00" stroke-width="0" cx="518.603" cy="156.922" r="21.3333"/>
<circle fill="#a64b00" stroke="#a64b00" stroke-width="0" cx="398.219" cy="392.59" r="21.3333"/>
</svg>
