<?xml version="1.0" encoding="utf-8"?> <!-- Generator: Adobe Illustrator 13.0.0, SVG Export Plug-In . SVG Version: 6.00 Build 14948)  --> <svg version="1.2" baseProfile="tiny" id="Layer_1" xmlns="http://www.w3.org/2000/svg" xmlns:xlink="http://www.w3.org/1999/xlink" x="0px" y="0px" width="512px" height="512px" viewBox="0 0 512 512" xml:space="preserve">
<polygon points="0,0 512,0 512,512 0,512" style="fill:#ffffff; stroke:#000000;stroke-width:0"/>
<polygon points="-159.434,404.859 -194.412,380.426 -72.98,206.591 -38.0023,231.025" style="fill:#006363; stroke:#000000;stroke-width:0"/>
<circle fill="#006363" stroke="#006363" stroke-width="0" cx="-176.923" cy="392.642" r="21.3333"/>
<circle fill="#006363" stroke="#006363" stroke-width="0" cx="-55.4912" cy="218.808" r="21.3333"/>
<polygon points="576.216,254.16 605.745,223.362 760.071,371.324 730.543,402.123" style="fill:#006363; stroke:#000000;stroke-width:0"/>
<circle fill="#006363" stroke="#006363" stroke-width="0" cx="590.98" cy="238.761" r="21.3333"/>
<circle fill="#006363" stroke="#006363" stroke-width="0" cx="745.307" cy="386.724" r="21.3333"/>
<polygon points="1256,469.333 256,1469.33 -744,469.333" style="fill:#000000; stroke:#000000;stroke-width:0"/>
<polygon points="-744,42.6667 256,-957.333 1256,42.6667" style="fill:#000000; stroke:#000000;stroke-width:0"/>
<circle fill="#a64b00" stroke="#a64b00" stroke-width="0" cx="-176.923" cy="392.642" r="21.3333"/>
<circle fill="#a64b00" stroke="#a64b00" stroke-width="0" cx="-55.4912" cy="218.808" r="21.3333"/>
<circle fill="#a64b00" stroke="#a64b00" stroke-width="0" cx="590.98" cy="238.761" r="21.3333"/>
<circle fill="#a64b00" stroke="#a64b00" stroke-width="0" cx="745.307" cy="386.724" r="21.3333"/>
<circle fill="#a64b00" stroke="#a64b00" stroke-width="0" cx="258.031" cy="287.644" r="21.3333"/>
</svg>
