<?xml version="1.0" encoding="utf-8"?> <!-- Generator: Adobe Illustrator 13.0.0, SVG Export Plug-In . SVG Version: 6.00 Build 14948)  --> <svg version="1.2" baseProfile="tiny" id="Layer_1" xmlns="http://www.w3.org/2000/svg" xmlns:xlink="http://www.w3.org/1999/xlink" x="0px" y="0px" width="512px" height="512px" viewBox="0 0 512 512" xml:space="preserve">
<polygon points="0,0 512,0 512,512 0,512" style="fill:#ffffff; stroke:#000000;stroke-width:0"/>
<polygon points="-413.909,131.396 -412.591,88.7495 -199.125,95.3457 -200.442,137.992" style="fill:#006363; stroke:#000000;stroke-width:0"/>
<circle fill="#006363" stroke="#006363" stroke-width="0" cx="-413.25" cy="110.073" r="21.3333"/>
<circle fill="#006363" stroke="#006363" stroke-width="0" cx="-199.783" cy="116.669" r="21.3333"/>
<polygon points="882.456,222.331 925.06,224.628 913.961,430.478 871.356,428.18" style="fill:#006363; stroke:#000000;stroke-width:0"/>
<circle fill="#006363" stroke="#006363" stroke-width="0" cx="903.758" cy="223.48" r="21.3333"/>
<circle fill="#006363" stroke="#006363" stroke-width="0" cx="892.658" cy="429.329" r="21.3333"/>
<polygon points="1256,469.333 256,1469.33 -744,469.333" style="fill:#000000; stroke:#000000;stroke-width:0"/>
<polygon points="-744,42.6667 256,-957.333 1256,42.6667" style="fill:#000000; stroke:#000000;stroke-width:0"/>
<circle fill="#a64b00" stroke="#a64b00" stroke-width="0" cx="-413.25" cy="110.073" r="21.3333"/>
<circle fill="#a64b00" stroke="#a64b00" stroke-width="0" cx="-199.783" cy="116.669" r="21.3333"/>
<circle fill="#a64b00" stroke="#a64b00" stroke-width="0" cx="903.758" cy="223.48" r="21.3333"/>
<circle fill="#a64b00" stroke="#a64b00" stroke-width="0" cx="892.658" cy="429.329" r="21.3333"/>
<circle fill="#a64b00" stroke="#a64b00" stroke-width="0" cx="8.39956" cy="164.282" r="21.3333"/>
</svg>
