<?xml version="1.0" encoding="utf-8"?> <!-- Generator: Adobe Illustrator 13.0.0, SVG Export Plug-In . SVG Version: 6.00 Build 14948)  --> <svg version="1.2" baseProfile="tiny" id="Layer_1" xmlns="http://www.w3.org/2000/svg" xmlns:xlink="http://www.w3.org/1999/xlink" x="0px" y="0px" width="512px" height="512px" viewBox="0 0 512 512" xml:space="preserve">
<polygon points="0,0 512,0 512,512 0,512" style="fill:#ffffff; stroke:#000000;stroke-width:0"/>
<polygon points="-146.383,231.528 -107.014,215.082 -26.2188,408.496 -65.5886,424.942" style="fill:#006363; stroke:#000000;stroke-width:0"/>
<circle fill="#006363" stroke="#006363" stroke-width="0" cx="-126.698" cy="223.305" r="21.3333"/>
<circle fill="#006363" stroke="#006363" stroke-width="0" cx="-45.9037" cy="416.719" r="21.3333"/>
<polygon points="686.614,181.019 718.358,209.529 577.021,366.898 545.277,338.388" style="fill:#006363; stroke:#000000;stroke-width:0"/>
<circle fill="#006363" stroke="#006363" stroke-width="0" cx="702.486" cy="195.274" r="21.3333"/>
<circle fill="#006363" stroke="#006363" stroke-width="0" cx="561.149" cy="352.643" r="21.3333"/>
<polygon points="1256,469.333 256,1469.33 -744,469.333" style="fill:#000000; stroke:#000000;stroke-width:0"/>
<polygon points="-744,42.6667 256,-957.333 1256,42.6667" style="fill:#000000; stroke:#000000;stroke-width:0"/>
<circle fill="#a64b00" stroke="#a64b00" stroke-width="0" cx="-126.698" cy="223.305" r="21.3333"/>
<circle fill="#a64b00" stroke="#a64b00" stroke-width="0" cx="-45.9037" cy="416.719" r="21.3333"/>
<circle fill="#a64b00" stroke="#a64b00" stroke-width="0" cx="702.486" cy="195.274" r="21.3333"/>
<circle fill="#a64b00" stroke="#a64b00" stroke-width="0" cx="561.149" cy="352.643" r="21.3333"/>
<circle fill="#a64b00" stroke="#a64b00" stroke-width="0" cx="326.037" cy="134.996" r="21.3333"/>
</svg>
