<?xml version="1.0" encoding="utf-8"?> <!-- Generator: Adobe Illustrator 13.0.0, SVG Export Plug-In . SVG Version: 6.00 Build 14948)  --> <svg version="1.2" baseProfile="tiny" id="Layer_1" xmlns="http://www.w3.org/2000/svg" xmlns:xlink="http://www.w3.org/1999/xlink" x="0px" y="0px" width="512px" height="512px" viewBox="0 0 512 512" xml:space="preserve">
<polygon points="0,0 512,0 512,512 0,512" style="fill:#ffffff; stroke:#000000;stroke-width:0"/>
<polygon points="-186.65,308.818 -159.853,275.616 -0.642439,404.113 -27.4394,437.315" style="fill:#006363; stroke:#000000;stroke-width:0"/>
<circle fill="#006363" stroke="#006363" stroke-width="0" cx="-173.252" cy="292.217" r="21.3333"/>
<circle fill="#006363" stroke="#006363" stroke-width="0" cx="-14.0409" cy="420.714" r="21.3333"/>
<polygon points="658.108,174.962 698.128,189.754 623.372,392.007 583.352,377.215" style="fill:#006363; stroke:#000000;stroke-width:0"/>
<circle fill="#006363" stroke="#006363" stroke-width="0" cx="678.118" cy="182.358" r="21.3333"/>
<circle fill="#006363" stroke="#006363" stroke-width="0" cx="603.362" cy="384.611" r="21.3333"/>
<polygon points="1256,469.333 256,1469.33 -744,469.333" style="fill:#000000; stroke:#000000;stroke-width:0"/>
<polygon points="-744,42.6667 256,-957.333 1256,42.6667" style="fill:#000000; stroke:#000000;stroke-width:0"/>
<circle fill="#a64b00" stroke="#a64b00" stroke-width="0" cx="-173.252" cy="292.217" r="21.3333"/>
<circle fill="#a64b00" stroke="#a64b00" stroke-width="0" cx="-14.0409" cy="420.714" r="21.3333"/>
<circle fill="#a64b00" stroke="#a64b00" stroke-width="0" cx="678.118" cy="182.358" r="21.3333"/>
<circle fill="#a64b00" stroke="#a64b00" stroke-width="0" cx="603.362" cy="384.611" r="21.3333"/>
<circle fill="#a64b00" stroke="#a64b00" stroke-width="0" cx="309.334" cy="249.482" r="21.3333"/>
</svg>
