<?xml version="1.0" encoding="utf-8"?> <!-- Generator: Adobe Illustrator 13.0.0, SVG Export Plug-In . SVG Version: 6.00 Build 14948)  --> <svg version="1.2" baseProfile="tiny" id="Layer_1" xmlns="http://www.w3.org/2000/svg" xmlns:xlink="http://www.w3.org/1999/xlink" x="0px" y="0px" width="512px" height="512px" viewBox="0 0 512 512" xml:space="preserve">
<polygon points="0,0 512,0 512,512 0,512" style="fill:#ffffff; stroke:#000000;stroke-width:0"/>
<polygon points="-106.971,83.6424 -64.5957,78.662 -39.9228,288.588 -82.2978,293.568" style="fill:#006363; stroke:#000000;stroke-width:0"/>
<circle fill="#006363" stroke="#006363" stroke-width="0" cx="-85.7832" cy="81.1522" r="21.3333"/>
<circle fill="#006363" stroke="#006363" stroke-width="0" cx="-61.1103" cy="291.078" r="21.3333"/>
<polygon points="719.039,217.175 726.57,259.172 513.368,297.402 505.837,255.405" style="fill:#006363; stroke:#000000;stroke-width:0"/>
<circle fill="#006363" stroke="#006363" stroke-width="0" cx="722.805" cy="238.173" r="21.3333"/>
<circle fill="#006363" stroke="#006363" stroke-width="0" cx="509.603" cy="276.403" r="21.3333"/>
<polygon points="1256,469.333 256,1469.33 -744,469.333" style="fill:#000000; stroke:#000000;stroke-width:0"/>
<polygon points="-744,42.6667 256,-957.333 1256,42.6667" style="fill:#000000; stroke:#000000;stroke-width:0"/>
<circle fill="#a64b00" stroke="#a64b00" stroke-width="0" cx="-85.7832" cy="81.1522" r="21.3333"/>
<circle fill="#a64b00" stroke="#a64b00" stroke-width="0" cx="-61.1103" cy="291.078" r="21.3333"/>
<circle fill="#a64b00" stroke="#a64b00" stroke-width="0" cx="722.805" cy="238.173" r="21.3333"/>
<circle fill="#a64b00" stroke="#a64b00" stroke-width="0" cx="509.603" cy="276.403" r="21.3333"/>
<circle fill="#a64b00" stroke="#a64b00" stroke-width="0" cx="355.268" cy="297.185" r="21.3333"/>
</svg>
