<?xml version="1.0" encoding="utf-8"?> <!-- Generator: Adobe Illustrator 13.0.0, SVG Export Plug-In . SVG Version: 6.00 Build 14948)  --> <svg version="1.2" baseProfile="tiny" id="Layer_1" xmlns="http://www.w3.org/2000/svg" xmlns:xlink="http://www.w3.org/1999/xlink" x="0px" y="0px" width="512px" height="512px" viewBox="0 0 512 512" xml:space="preserve">
<polygon points="0,0 512,0 512,512 0,512" style="fill:#ffffff; stroke:#000000;stroke-width:0"/>
<polygon points="-169.394,243.519 -203.858,218.366 -84.5318,54.8698 -50.0679,80.0229" style="fill:#006363; stroke:#000000;stroke-width:0"/>
<circle fill="#006363" stroke="#006363" stroke-width="0" cx="-186.626" cy="230.942" r="21.3333"/>
<circle fill="#006363" stroke="#006363" stroke-width="0" cx="-67.2998" cy="67.4463" r="21.3333"/>
<polygon points="573.961,325.458 582.928,283.744 788.455,327.924 779.489,369.638" style="fill:#006363; stroke:#000000;stroke-width:0"/>
<circle fill="#006363" stroke="#006363" stroke-width="0" cx="578.444" cy="304.601" r="21.3333"/>
<circle fill="#006363" stroke="#006363" stroke-width="0" cx="783.972" cy="348.781" r="21.3333"/>
<polygon points="1256,469.333 256,1469.33 -744,469.333" style="fill:#000000; stroke:#000000;stroke-width:0"/>
<polygon points="-744,42.6667 256,-957.333 1256,42.6667" style="fill:#000000; stroke:#000000;stroke-width:0"/>
<circle fill="#a64b00" stroke="#a64b00" stroke-width="0" cx="-186.626" cy="230.942" r="21.3333"/>
<circle fill="#a64b00" stroke="#a64b00" stroke-width="0" cx="-67.2998" cy="67.4463" r="21.3333"/>
<circle fill="#a64b00" stroke="#a64b00" stroke-width="0" cx="578.444" cy="304.601" r="21.3333"/>
<circle fill="#a64b00" stroke="#a64b00" stroke-width="0" cx="783.972" cy="348.781" r="21.3333"/>
<circle fill="#a64b00" stroke="#a64b00" stroke-width="0" cx="233.573" cy="220.861" r="21.3333"/>
</svg>
