<?xml version="1.0" encoding="utf-8"?> <!-- Generator: Adobe Illustrator 13.0.0, SVG Export Plug-In . SVG Version: 6.00 Build 14948)  --> <svg version="1.2" baseProfile="tiny" id="Layer_1" xmlns="http://www.w3.org/2000/svg" xmlns:xlink="http://www.w3.org/1999/xlink" x="0px" y="0px" width="512px" height="512px" viewBox="0 0 512 512" xml:space="preserve">
<polygon points="0,0 512,0 512,512 0,512" style="fill:#ffffff; stroke:#000000;stroke-width:0"/>
<polygon points="-67.3062,309.437 -73.6872,351.624 -278.436,320.655 -272.055,278.468" style="fill:#006363; stroke:#000000;stroke-width:0"/>
<circle fill="#006363" stroke="#006363" stroke-width="0" cx="-70.4967" cy="330.531" r="21.3333"/>
<circle fill="#006363" stroke="#006363" stroke-width="0" cx="-275.245" cy="299.561" r="21.3333"/>
<polygon points="725.076,322.18 684.354,309.448 748.867,103.108 789.59,115.84" style="fill:#006363; stroke:#000000;stroke-width:0"/>
<circle fill="#006363" stroke="#006363" stroke-width="0" cx="704.715" cy="315.814" r="21.3333"/>
<circle fill="#006363" stroke="#006363" stroke-width="0" cx="769.229" cy="109.474" r="21.3333"/>
<polygon points="1256,469.333 256,1469.33 -744,469.333" style="fill:#000000; stroke:#000000;stroke-width:0"/>
<polygon points="-744,42.6667 256,-957.333 1256,42.6667" style="fill:#000000; stroke:#000000;stroke-width:0"/>
<circle fill="#a64b00" stroke="#a64b00" stroke-width="0" cx="-70.4967" cy="330.531" r="21.3333"/>
<circle fill="#a64b00" stroke="#a64b00" stroke-width="0" cx="-275.245" cy="299.561" r="21.3333"/>
<circle fill="#a64b00" stroke="#a64b00" stroke-width="0" cx="704.715" cy="315.814" r="21.3333"/>
<circle fill="#a64b00" stroke="#a64b00" stroke-width="0" cx="769.229" cy="109.474" r="21.3333"/>
<circle fill="#a64b00" stroke="#a64b00" stroke-width="0" cx="129.178" cy="115.915" r="21.3333"/>
</svg>
