<?xml version="1.0" encoding="utf-8"?> <!-- Generator: Adobe Illustrator 13.0.0, SVG Export Plug-In . SVG Version: 6.00 Build 14948)  --> <svg version="1.2" baseProfile="tiny" id="Layer_1" xmlns="http://www.w3.org/2000/svg" xmlns:xlink="http://www.w3.org/1999/xlink" x="0px" y="0px" width="512px" height="512px" viewBox="0 0 512 512" xml:space="preserve">
<polygon points="0,0 512,0 512,512 0,512" style="fill:#ffffff; stroke:#000000;stroke-width:0"/>
<polygon points="-120.34,165.118 -118.897,207.76 -330.859,214.934 -332.303,172.292" style="fill:#006363; stroke:#000000;stroke-width:0"/>
<circle fill="#006363" stroke="#006363" stroke-width="0" cx="-119.619" cy="186.439" r="21.3333"/>
<circle fill="#006363" stroke="#006363" stroke-width="0" cx="-331.581" cy="193.613" r="21.3333"/>
<polygon points="755.469,426.442 721.177,401.056 846.571,231.674 880.863,257.061" style="fill:#006363; stroke:#000000;stroke-width:0"/>
<circle fill="#006363" stroke="#006363" stroke-width="0" cx="738.323" cy="413.749" r="21.3333"/>
<circle fill="#006363" stroke="#006363" stroke-width="0" cx="863.717" cy="244.368" r="21.3333"/>
<polygon points="1256,469.333 256,1469.33 -744,469.333" style="fill:#000000; stroke:#000000;stroke-width:0"/>
<polygon points="-744,42.6667 256,-957.333 1256,42.6667" style="fill:#000000; stroke:#000000;stroke-width:0"/>
<circle fill="#a64b00" stroke="#a64b00" stroke-width="0" cx="-119.619" cy="186.439" r="21.3333"/>
<circle fill="#a64b00" stroke="#a64b00" stroke-width="0" cx="-331.581" cy="193.613" r="21.3333"/>
<circle fill="#a64b00" stroke="#a64b00" stroke-width="0" cx="738.323" cy="413.749" r="21.3333"/>
<circle fill="#a64b00" stroke="#a64b00" stroke-width="0" cx="863.717" cy="244.368" r="21.3333"/>
<circle fill="#a64b00" stroke="#a64b00" stroke-width="0" cx="9.27346" cy="354.428" r="21.3333"/>
</svg>
