<?xml version="1.0" encoding="utf-8"?> <!-- Generator: Adobe Illustrator 13.0.0, SVG Export Plug-In . SVG Version: 6.00 Build 14948)  --> <svg version="1.2" baseProfile="tiny" id="Layer_1" xmlns="http://www.w3.org/2000/svg" xmlns:xlink="http://www.w3.org/1999/xlink" x="0px" y="0px" width="512px" height="512px" viewBox="0 0 512 512" xml:space="preserve">
<polygon points="0,0 512,0 512,512 0,512" style="fill:#ffffff; stroke:#000000;stroke-width:0"/>
<polygon points="-162.871,275.44 -147.969,315.42 -337.648,386.121 -352.55,346.141" style="fill:#006363; stroke:#000000;stroke-width:0"/>
<circle fill="#006363" stroke="#006363" stroke-width="0" cx="-155.42" cy="295.43" r="21.3333"/>
<circle fill="#006363" stroke="#006363" stroke-width="0" cx="-345.099" cy="366.131" r="21.3333"/>
<polygon points="736.093,415.087 721.765,374.898 925.853,302.134 940.182,342.322" style="fill:#006363; stroke:#000000;stroke-width:0"/>
<circle fill="#006363" stroke="#006363" stroke-width="0" cx="728.929" cy="394.992" r="21.3333"/>
<circle fill="#006363" stroke="#006363" stroke-width="0" cx="933.017" cy="322.228" r="21.3333"/>
<polygon points="1256,469.333 256,1469.33 -744,469.333" style="fill:#000000; stroke:#000000;stroke-width:0"/>
<polygon points="-744,42.6667 256,-957.333 1256,42.6667" style="fill:#000000; stroke:#000000;stroke-width:0"/>
<circle fill="#a64b00" stroke="#a64b00" stroke-width="0" cx="-155.42" cy="295.43" r="21.3333"/>
<circle fill="#a64b00" stroke="#a64b00" stroke-width="0" cx="-345.099" cy="366.131" r="21.3333"/>
<circle fill="#a64b00" stroke="#a64b00" stroke-width="0" cx="728.929" cy="394.992" r="21.3333"/>
<circle fill="#a64b00" stroke="#a64b00" stroke-width="0" cx="933.017" cy="322.228" r="21.3333"/>
<circle fill="#a64b00" stroke="#a64b00" stroke-width="0" cx="-46.8015" cy="430.752" r="21.3333"/>
</svg>
