<?xml version="1.0" encoding="utf-8"?> <!-- Generator: Adobe Illustrator 13.0.0, SVG Export Plug-In . SVG Version: 6.00 Build 14948)  --> <svg version="1.2" baseProfile="tiny" id="Layer_1" xmlns="http://www.w3.org/2000/svg" xmlns:xlink="http://www.w3.org/1999/xlink" x="0px" y="0px" width="512px" height="512px" viewBox="0 0 512 512" xml:space="preserve">
<polygon points="0,0 512,0 512,512 0,512" style="fill:#ffffff; stroke:#000000;stroke-width:0"/>
<polygon points="-30.3671,195.237 11.3765,186.41 54.6807,391.2 12.9371,400.027" style="fill:#006363; stroke:#000000;stroke-width:0"/>
<circle fill="#006363" stroke="#006363" stroke-width="0" cx="-9.49532" cy="190.823" r="21.3333"/>
<circle fill="#006363" stroke="#006363" stroke-width="0" cx="33.8089" cy="395.613" r="21.3333"/>
<polygon points="447.018,105.141 485.605,86.9359 577.269,281.227 538.681,299.432" style="fill:#006363; stroke:#000000;stroke-width:0"/>
<circle fill="#006363" stroke="#006363" stroke-width="0" cx="466.312" cy="96.0385" r="21.3333"/>
<circle fill="#006363" stroke="#006363" stroke-width="0" cx="557.975" cy="290.329" r="21.3333"/>
<polygon points="1256,469.333 256,1469.33 -744,469.333" style="fill:#000000; stroke:#000000;stroke-width:0"/>
<polygon points="-744,42.6667 256,-957.333 1256,42.6667" style="fill:#000000; stroke:#000000;stroke-width:0"/>
<circle fill="#a64b00" stroke="#a64b00" stroke-width="0" cx="-9.49532" cy="190.823" r="21.3333"/>
<circle fill="#a64b00" stroke="#a64b00" stroke-width="0" cx="33.8089" cy="395.613" r="21.3333"/>
<circle fill="#a64b00" stroke="#a64b00" stroke-width="0" cx="466.312" cy="96.0385" r="21.3333"/>
<circle fill="#a64b00" stroke="#a64b00" stroke-width="0" cx="557.975" cy="290.329" r="21.3333"/>
<circle fill="#a64b00" stroke="#a64b00" stroke-width="0" cx="302.622" cy="188.454" r="21.3333"/>
</svg>
