<?xml version="1.0" encoding="utf-8"?> <!-- Generator: Adobe Illustrator 13.0.0, SVG Export Plug-In . SVG Version: 6.00 Build 14948)  --> <svg version="1.2" baseProfile="tiny" id="Layer_1" xmlns="http://www.w3.org/2000/svg" xmlns:xlink="http://www.w3.org/1999/xlink" x="0px" y="0px" width="512px" height="512px" viewBox="0 0 512 512" xml:space="preserve">
<polygon points="0,0 512,0 512,512 0,512" style="fill:#ffffff; stroke:#000000;stroke-width:0"/>
<polygon points="2.06861,88.1445 44.6115,84.897 60.3711,291.351 17.8282,294.598" style="fill:#006363; stroke:#000000;stroke-width:0"/>
<circle fill="#006363" stroke="#006363" stroke-width="0" cx="23.3401" cy="86.5208" r="21.3333"/>
<circle fill="#006363" stroke="#006363" stroke-width="0" cx="39.0996" cy="292.975" r="21.3333"/>
<polygon points="458.628,241.167 501.156,237.738 517.857,444.853 475.328,448.282" style="fill:#006363; stroke:#000000;stroke-width:0"/>
<circle fill="#006363" stroke="#006363" stroke-width="0" cx="479.892" cy="239.452" r="21.3333"/>
<circle fill="#006363" stroke="#006363" stroke-width="0" cx="496.592" cy="446.567" r="21.3333"/>
<polygon points="1256,469.333 256,1469.33 -744,469.333" style="fill:#000000; stroke:#000000;stroke-width:0"/>
<polygon points="-744,42.6667 256,-957.333 1256,42.6667" style="fill:#000000; stroke:#000000;stroke-width:0"/>
<circle fill="#a64b00" stroke="#a64b00" stroke-width="0" cx="23.3401" cy="86.5208" r="21.3333"/>
<circle fill="#a64b00" stroke="#a64b00" stroke-width="0" cx="39.0996" cy="292.975" r="21.3333"/>
<circle fill="#a64b00" stroke="#a64b00" stroke-width="0" cx="479.892" cy="239.452" r="21.3333"/>
<circle fill="#a64b00" stroke="#a64b00" stroke-width="0" cx="496.592" cy="446.567" r="21.3333"/>
<circle fill="#a64b00" stroke="#a64b00" stroke-width="0" cx="256.957" cy="348.896" r="21.3333"/>
</svg>
