<?xml version="1.0" encoding="utf-8"?> <!-- Generator: Adobe Illustrator 13.0.0, SVG Export Plug-In . SVG Version: 6.00 Build 14948)  --> <svg version="1.2" baseProfile="tiny" id="Layer_1" xmlns="http://www.w3.org/2000/svg" xmlns:xlink="http://www.w3.org/1999/xlink" x="0px" y="0px" width="512px" height="512px" viewBox="0 0 512 512" xml:space="preserve">
<polygon points="0,0 512,0 512,512 0,512" style="fill:#ffffff; stroke:#000000;stroke-width:0"/>
<polygon points="-126.823,172.247 -124.53,214.852 -327.525,225.774 -329.817,183.169" style="fill:#006363; stroke:#000000;stroke-width:0"/>
<circle fill="#006363" stroke="#006363" stroke-width="0" cx="-125.676" cy="193.549" r="21.3333"/>
<circle fill="#006363" stroke="#006363" stroke-width="0" cx="-328.671" cy="204.471" r="21.3333"/>
<polygon points="753.151,434.995 719.228,409.117 852.713,234.138 886.636,260.017" style="fill:#006363; stroke:#000000;stroke-width:0"/>
<circle fill="#006363" stroke="#006363" stroke-width="0" cx="736.189" cy="422.056" r="21.3333"/>
<circle fill="#006363" stroke="#006363" stroke-width="0" cx="869.675" cy="247.077" r="21.3333"/>
<polygon points="1256,469.333 256,1469.33 -744,469.333" style="fill:#000000; stroke:#000000;stroke-width:0"/>
<polygon points="-744,42.6667 256,-957.333 1256,42.6667" style="fill:#000000; stroke:#000000;stroke-width:0"/>
<circle fill="#a64b00" stroke="#a64b00" stroke-width="0" cx="-125.676" cy="193.549" r="21.3333"/>
<circle fill="#a64b00" stroke="#a64b00" stroke-width="0" cx="-328.671" cy="204.471" r="21.3333"/>
<circle fill="#a64b00" stroke="#a64b00" stroke-width="0" cx="736.189" cy="422.056" r="21.3333"/>
<circle fill="#a64b00" stroke="#a64b00" stroke-width="0" cx="869.675" cy="247.077" r="21.3333"/>
<circle fill="#a64b00" stroke="#a64b00" stroke-width="0" cx="5.69421" cy="411.671" r="21.3333"/>
</svg>
