<?xml version="1.0" encoding="utf-8"?> <!-- Generator: Adobe Illustrator 13.0.0, SVG Export Plug-In . SVG Version: 6.00 Build 14948)  --> <svg version="1.2" baseProfile="tiny" id="Layer_1" xmlns="http://www.w3.org/2000/svg" xmlns:xlink="http://www.w3.org/1999/xlink" x="0px" y="0px" width="512px" height="512px" viewBox="0 0 512 512" xml:space="preserve">
<polygon points="0,0 512,0 512,512 0,512" style="fill:#ffffff; stroke:#000000;stroke-width:0"/>
<polygon points="-176.963,317.452 -157.226,355.279 -342.443,451.921 -362.181,414.094" style="fill:#006363; stroke:#000000;stroke-width:0"/>
<circle fill="#006363" stroke="#006363" stroke-width="0" cx="-167.094" cy="336.366" r="21.3333"/>
<circle fill="#006363" stroke="#006363" stroke-width="0" cx="-352.312" cy="433.008" r="21.3333"/>
<polygon points="737.508,375.18 737.211,332.515 947.381,331.05 947.678,373.716" style="fill:#006363; stroke:#000000;stroke-width:0"/>
<circle fill="#006363" stroke="#006363" stroke-width="0" cx="737.359" cy="353.848" r="21.3333"/>
<circle fill="#006363" stroke="#006363" stroke-width="0" cx="947.53" cy="352.383" r="21.3333"/>
<polygon points="1256,469.333 256,1469.33 -744,469.333" style="fill:#000000; stroke:#000000;stroke-width:0"/>
<polygon points="-744,42.6667 256,-957.333 1256,42.6667" style="fill:#000000; stroke:#000000;stroke-width:0"/>
<circle fill="#a64b00" stroke="#a64b00" stroke-width="0" cx="-167.094" cy="336.366" r="21.3333"/>
<circle fill="#a64b00" stroke="#a64b00" stroke-width="0" cx="-352.312" cy="433.008" r="21.3333"/>
<circle fill="#a64b00" stroke="#a64b00" stroke-width="0" cx="737.359" cy="353.848" r="21.3333"/>
<circle fill="#a64b00" stroke="#a64b00" stroke-width="0" cx="947.53" cy="352.383" r="21.3333"/>
<circle fill="#a64b00" stroke="#a64b00" stroke-width="0" cx="-68.277" cy="87.2932" r="21.3333"/>
</svg>
