<?xml version="1.0" encoding="utf-8"?> <!-- Generator: Adobe Illustrator 13.0.0, SVG Export Plug-In . SVG Version: 6.00 Build 14948)  --> <svg version="1.2" baseProfile="tiny" id="Layer_1" xmlns="http://www.w3.org/2000/svg" xmlns:xlink="http://www.w3.org/1999/xlink" x="0px" y="0px" width="512px" height="512px" viewBox="0 0 512 512" xml:space="preserve">
<polygon points="0,0 512,0 512,512 0,512" style="fill:#ffffff; stroke:#000000;stroke-width:0"/>
<polygon points="-111.762,225.585 -71.1802,212.413 -3.65109,420.453 -44.2334,433.626" style="fill:#006363; stroke:#000000;stroke-width:0"/>
<circle fill="#006363" stroke="#006363" stroke-width="0" cx="-91.4714" cy="218.999" r="21.3333"/>
<circle fill="#006363" stroke="#006363" stroke-width="0" cx="-23.9422" cy="427.039" r="21.3333"/>
<polygon points="696.784,283.487 671.564,317.903 497.386,190.264 522.606,155.849" style="fill:#006363; stroke:#000000;stroke-width:0"/>
<circle fill="#006363" stroke="#006363" stroke-width="0" cx="684.174" cy="300.695" r="21.3333"/>
<circle fill="#006363" stroke="#006363" stroke-width="0" cx="509.996" cy="173.056" r="21.3333"/>
<polygon points="1256,469.333 256,1469.33 -744,469.333" style="fill:#000000; stroke:#000000;stroke-width:0"/>
<polygon points="-744,42.6667 256,-957.333 1256,42.6667" style="fill:#000000; stroke:#000000;stroke-width:0"/>
<circle fill="#a64b00" stroke="#a64b00" stroke-width="0" cx="-91.4714" cy="218.999" r="21.3333"/>
<circle fill="#a64b00" stroke="#a64b00" stroke-width="0" cx="-23.9422" cy="427.039" r="21.3333"/>
<circle fill="#a64b00" stroke="#a64b00" stroke-width="0" cx="684.174" cy="300.695" r="21.3333"/>
<circle fill="#a64b00" stroke="#a64b00" stroke-width="0" cx="509.996" cy="173.056" r="21.3333"/>
<circle fill="#a64b00" stroke="#a64b00" stroke-width="0" cx="391.06" cy="392.59" r="21.3333"/>
</svg>
