<?xml version="1.0" encoding="utf-8"?> <!-- Generator: Adobe Illustrator 13.0.0, SVG Export Plug-In . SVG Version: 6.00 Build 14948)  --> <svg version="1.2" baseProfile="tiny" id="Layer_1" xmlns="http://www.w3.org/2000/svg" xmlns:xlink="http://www.w3.org/1999/xlink" x="0px" y="0px" width="512px" height="512px" viewBox="0 0 512 512" xml:space="preserve">
<polygon points="0,0 512,0 512,512 0,512" style="fill:#ffffff; stroke:#000000;stroke-width:0"/>
<polygon points="-120.106,105.826 -78.2263,97.6666 -37.2813,307.833 -79.1606,315.992" style="fill:#006363; stroke:#000000;stroke-width:0"/>
<circle fill="#006363" stroke="#006363" stroke-width="0" cx="-99.1659" cy="101.746" r="21.3333"/>
<circle fill="#006363" stroke="#006363" stroke-width="0" cx="-58.2209" cy="311.913" r="21.3333"/>
<polygon points="709.043,199.009 727.478,237.487 536.111,329.176 517.675,290.698" style="fill:#006363; stroke:#000000;stroke-width:0"/>
<circle fill="#006363" stroke="#006363" stroke-width="0" cx="718.261" cy="218.248" r="21.3333"/>
<circle fill="#006363" stroke="#006363" stroke-width="0" cx="526.893" cy="309.937" r="21.3333"/>
<polygon points="1256,469.333 256,1469.33 -744,469.333" style="fill:#000000; stroke:#000000;stroke-width:0"/>
<polygon points="-744,42.6667 256,-957.333 1256,42.6667" style="fill:#000000; stroke:#000000;stroke-width:0"/>
<circle fill="#a64b00" stroke="#a64b00" stroke-width="0" cx="-99.1659" cy="101.746" r="21.3333"/>
<circle fill="#a64b00" stroke="#a64b00" stroke-width="0" cx="-58.2209" cy="311.913" r="21.3333"/>
<circle fill="#a64b00" stroke="#a64b00" stroke-width="0" cx="718.261" cy="218.248" r="21.3333"/>
<circle fill="#a64b00" stroke="#a64b00" stroke-width="0" cx="526.893" cy="309.937" r="21.3333"/>
<circle fill="#a64b00" stroke="#a64b00" stroke-width="0" cx="343.337" cy="411.671" r="21.3333"/>
</svg>
