<?xml version="1.0" encoding="utf-8"?> <!-- Generator: Adobe Illustrator 13.0.0, SVG Export Plug-In . SVG Version: 6.00 Build 14948)  --> <svg version="1.2" baseProfile="tiny" id="Layer_1" xmlns="http://www.w3.org/2000/svg" xmlns:xlink="http://www.w3.org/1999/xlink" x="0px" y="0px" width="512px" height="512px" viewBox="0 0 512 512" xml:space="preserve">
<polygon points="0,0 512,0 512,512 0,512" style="fill:#ffffff; stroke:#000000;stroke-width:0"/>
<polygon points="-360.265,241.389 -387.331,208.405 -226.298,76.2627 -199.233,109.246" style="fill:#006363; stroke:#000000;stroke-width:0"/>
<circle fill="#006363" stroke="#006363" stroke-width="0" cx="-373.798" cy="224.897" r="21.3333"/>
<circle fill="#006363" stroke="#006363" stroke-width="0" cx="-212.765" cy="92.7543" r="21.3333"/>
<polygon points="822.117,239.326 861.673,223.334 944.346,427.83 904.79,443.822" style="fill:#006363; stroke:#000000;stroke-width:0"/>
<circle fill="#006363" stroke="#006363" stroke-width="0" cx="841.895" cy="231.33" r="21.3333"/>
<circle fill="#006363" stroke="#006363" stroke-width="0" cx="924.568" cy="435.826" r="21.3333"/>
<polygon points="1256,469.333 256,1469.33 -744,469.333" style="fill:#000000; stroke:#000000;stroke-width:0"/>
<polygon points="-744,42.6667 256,-957.333 1256,42.6667" style="fill:#000000; stroke:#000000;stroke-width:0"/>
<circle fill="#a64b00" stroke="#a64b00" stroke-width="0" cx="-373.798" cy="224.897" r="21.3333"/>
<circle fill="#a64b00" stroke="#a64b00" stroke-width="0" cx="-212.765" cy="92.7543" r="21.3333"/>
<circle fill="#a64b00" stroke="#a64b00" stroke-width="0" cx="841.895" cy="231.33" r="21.3333"/>
<circle fill="#a64b00" stroke="#a64b00" stroke-width="0" cx="924.568" cy="435.826" r="21.3333"/>
<circle fill="#a64b00" stroke="#a64b00" stroke-width="0" cx="-144.634" cy="430.752" r="21.3333"/>
</svg>
