<?xml version="1.0" encoding="utf-8"?> <!-- Generator: Adobe Illustrator 13.0.0, SVG Export Plug-In . SVG Version: 6.00 Build 14948)  --> <svg version="1.2" baseProfile="tiny" id="Layer_1" xmlns="http://www.w3.org/2000/svg" xmlns:xlink="http://www.w3.org/1999/xlink" x="0px" y="0px" width="512px" height="512px" viewBox="0 0 512 512" xml:space="preserve">
<polygon points="0,0 512,0 512,512 0,512" style="fill:#ffffff; stroke:#000000;stroke-width:0"/>
<polygon points="-164.445,313.541 -199.655,289.443 -80.0361,114.667 -44.8263,138.765" style="fill:#006363; stroke:#000000;stroke-width:0"/>
<circle fill="#006363" stroke="#006363" stroke-width="0" cx="-182.05" cy="301.492" r="21.3333"/>
<circle fill="#006363" stroke="#006363" stroke-width="0" cx="-62.4312" cy="126.716" r="21.3333"/>
<polygon points="571.485,293.463 590.229,255.134 779.46,347.672 760.716,386.001" style="fill:#006363; stroke:#000000;stroke-width:0"/>
<circle fill="#006363" stroke="#006363" stroke-width="0" cx="580.857" cy="274.298" r="21.3333"/>
<circle fill="#006363" stroke="#006363" stroke-width="0" cx="770.088" cy="366.836" r="21.3333"/>
<polygon points="1256,469.333 256,1469.33 -744,469.333" style="fill:#000000; stroke:#000000;stroke-width:0"/>
<polygon points="-744,42.6667 256,-957.333 1256,42.6667" style="fill:#000000; stroke:#000000;stroke-width:0"/>
<circle fill="#a64b00" stroke="#a64b00" stroke-width="0" cx="-182.05" cy="301.492" r="21.3333"/>
<circle fill="#a64b00" stroke="#a64b00" stroke-width="0" cx="-62.4312" cy="126.716" r="21.3333"/>
<circle fill="#a64b00" stroke="#a64b00" stroke-width="0" cx="580.857" cy="274.298" r="21.3333"/>
<circle fill="#a64b00" stroke="#a64b00" stroke-width="0" cx="770.088" cy="366.836" r="21.3333"/>
<circle fill="#a64b00" stroke="#a64b00" stroke-width="0" cx="244.311" cy="392.59" r="21.3333"/>
</svg>
