<?xml version="1.0" encoding="utf-8"?> <!-- Generator: Adobe Illustrator 13.0.0, SVG Export Plug-In . SVG Version: 6.00 Build 14948)  --> <svg version="1.2" baseProfile="tiny" id="Layer_1" xmlns="http://www.w3.org/2000/svg" xmlns:xlink="http://www.w3.org/1999/xlink" x="0px" y="0px" width="512px" height="512px" viewBox="0 0 512 512" xml:space="preserve">
<polygon points="0,0 512,0 512,512 0,512" style="fill:#ffffff; stroke:#000000;stroke-width:0"/>
<polygon points="-165.018,331.469 -157.956,373.547 -366.455,408.543 -373.518,366.465" style="fill:#006363; stroke:#000000;stroke-width:0"/>
<circle fill="#006363" stroke="#006363" stroke-width="0" cx="-161.487" cy="352.508" r="21.3333"/>
<circle fill="#006363" stroke="#006363" stroke-width="0" cx="-369.987" cy="387.504" r="21.3333"/>
<polygon points="737.384,347.645 746.21,305.901 962.163,351.564 953.337,393.308" style="fill:#006363; stroke:#000000;stroke-width:0"/>
<circle fill="#006363" stroke="#006363" stroke-width="0" cx="741.797" cy="326.773" r="21.3333"/>
<circle fill="#006363" stroke="#006363" stroke-width="0" cx="957.75" cy="372.436" r="21.3333"/>
<polygon points="1256,469.333 256,1469.33 -744,469.333" style="fill:#000000; stroke:#000000;stroke-width:0"/>
<polygon points="-744,42.6667 256,-957.333 1256,42.6667" style="fill:#000000; stroke:#000000;stroke-width:0"/>
<circle fill="#a64b00" stroke="#a64b00" stroke-width="0" cx="-161.487" cy="352.508" r="21.3333"/>
<circle fill="#a64b00" stroke="#a64b00" stroke-width="0" cx="-369.987" cy="387.504" r="21.3333"/>
<circle fill="#a64b00" stroke="#a64b00" stroke-width="0" cx="741.797" cy="326.773" r="21.3333"/>
<circle fill="#a64b00" stroke="#a64b00" stroke-width="0" cx="957.75" cy="372.436" r="21.3333"/>
<circle fill="#a64b00" stroke="#a64b00" stroke-width="0" cx="-81.9975" cy="249.482" r="21.3333"/>
</svg>
