<?xml version="1.0" encoding="utf-8"?> <!-- Generator: Adobe Illustrator 13.0.0, SVG Export Plug-In . SVG Version: 6.00 Build 14948)  --> <svg version="1.2" baseProfile="tiny" id="Layer_1" xmlns="http://www.w3.org/2000/svg" xmlns:xlink="http://www.w3.org/1999/xlink" x="0px" y="0px" width="512px" height="512px" viewBox="0 0 512 512" xml:space="preserve">
<polygon points="0,0 512,0 512,512 0,512" style="fill:#ffffff; stroke:#000000;stroke-width:0"/>
<polygon points="-161.367,394.782 -196.375,370.391 -72.6213,192.767 -37.6134,217.158" style="fill:#006363; stroke:#000000;stroke-width:0"/>
<circle fill="#006363" stroke="#006363" stroke-width="0" cx="-178.871" cy="382.587" r="21.3333"/>
<circle fill="#006363" stroke="#006363" stroke-width="0" cx="-55.1173" cy="204.962" r="21.3333"/>
<polygon points="574.17,258.197 602.456,226.254 764.029,369.329 735.743,401.272" style="fill:#006363; stroke:#000000;stroke-width:0"/>
<circle fill="#006363" stroke="#006363" stroke-width="0" cx="588.313" cy="242.225" r="21.3333"/>
<circle fill="#006363" stroke="#006363" stroke-width="0" cx="749.886" cy="385.301" r="21.3333"/>
<polygon points="1256,469.333 256,1469.33 -744,469.333" style="fill:#000000; stroke:#000000;stroke-width:0"/>
<polygon points="-744,42.6667 256,-957.333 1256,42.6667" style="fill:#000000; stroke:#000000;stroke-width:0"/>
<circle fill="#a64b00" stroke="#a64b00" stroke-width="0" cx="-178.871" cy="382.587" r="21.3333"/>
<circle fill="#a64b00" stroke="#a64b00" stroke-width="0" cx="-55.1173" cy="204.962" r="21.3333"/>
<circle fill="#a64b00" stroke="#a64b00" stroke-width="0" cx="588.313" cy="242.225" r="21.3333"/>
<circle fill="#a64b00" stroke="#a64b00" stroke-width="0" cx="749.886" cy="385.301" r="21.3333"/>
<circle fill="#a64b00" stroke="#a64b00" stroke-width="0" cx="256.242" cy="316.266" r="21.3333"/>
</svg>
