<?xml version="1.0" encoding="utf-8"?> <!-- Generator: Adobe Illustrator 13.0.0, SVG Export Plug-In . SVG Version: 6.00 Build 14948)  --> <svg version="1.2" baseProfile="tiny" id="Layer_1" xmlns="http://www.w3.org/2000/svg" xmlns:xlink="http://www.w3.org/1999/xlink" x="0px" y="0px" width="512px" height="512px" viewBox="0 0 512 512" xml:space="preserve">
<polygon points="0,0 512,0 512,512 0,512" style="fill:#ffffff; stroke:#000000;stroke-width:0"/>
<polygon points="-140.308,212.854 -132.913,254.875 -332.403,289.983 -339.798,247.962" style="fill:#006363; stroke:#000000;stroke-width:0"/>
<circle fill="#006363" stroke="#006363" stroke-width="0" cx="-136.61" cy="233.865" r="21.3333"/>
<circle fill="#006363" stroke="#006363" stroke-width="0" cx="-336.101" cy="268.973" r="21.3333"/>
<polygon points="756.185,462.615 724.525,434.013 871.984,270.785 903.645,299.387" style="fill:#006363; stroke:#000000;stroke-width:0"/>
<circle fill="#006363" stroke="#006363" stroke-width="0" cx="740.355" cy="448.314" r="21.3333"/>
<circle fill="#006363" stroke="#006363" stroke-width="0" cx="887.815" cy="285.086" r="21.3333"/>
<polygon points="1256,469.333 256,1469.33 -744,469.333" style="fill:#000000; stroke:#000000;stroke-width:0"/>
<polygon points="-744,42.6667 256,-957.333 1256,42.6667" style="fill:#000000; stroke:#000000;stroke-width:0"/>
<circle fill="#a64b00" stroke="#a64b00" stroke-width="0" cx="-136.61" cy="233.865" r="21.3333"/>
<circle fill="#a64b00" stroke="#a64b00" stroke-width="0" cx="-336.101" cy="268.973" r="21.3333"/>
<circle fill="#a64b00" stroke="#a64b00" stroke-width="0" cx="740.355" cy="448.314" r="21.3333"/>
<circle fill="#a64b00" stroke="#a64b00" stroke-width="0" cx="887.815" cy="285.086" r="21.3333"/>
<circle fill="#a64b00" stroke="#a64b00" stroke-width="0" cx="-15.1848" cy="154.077" r="21.3333"/>
</svg>
