<?xml version="1.0" encoding="utf-8"?> <!-- Generator: Adobe Illustrator 13.0.0, SVG Export Plug-In . SVG Version: 6.00 Build 14948)  --> <svg version="1.2" baseProfile="tiny" id="Layer_1" xmlns="http://www.w3.org/2000/svg" xmlns:xlink="http://www.w3.org/1999/xlink" x="0px" y="0px" width="512px" height="512px" viewBox="0 0 512 512" xml:space="preserve">
<polygon points="0,0 512,0 512,512 0,512" style="fill:#ffffff; stroke:#000000;stroke-width:0"/>
<polygon points="-82.9967,179.779 -78.9772,222.256 -284.257,241.68 -288.276,199.204" style="fill:#006363; stroke:#000000;stroke-width:0"/>
<circle fill="#006363" stroke="#006363" stroke-width="0" cx="-80.9869" cy="201.017" r="21.3333"/>
<circle fill="#006363" stroke="#006363" stroke-width="0" cx="-286.266" cy="220.442" r="21.3333"/>
<polygon points="742.73,293.479 701.475,282.594 757.343,70.8504 798.598,81.7354" style="fill:#006363; stroke:#000000;stroke-width:0"/>
<circle fill="#006363" stroke="#006363" stroke-width="0" cx="722.102" cy="288.036" r="21.3333"/>
<circle fill="#006363" stroke="#006363" stroke-width="0" cx="777.97" cy="76.2929" r="21.3333"/>
<polygon points="1256,469.333 256,1469.33 -744,469.333" style="fill:#000000; stroke:#000000;stroke-width:0"/>
<polygon points="-744,42.6667 256,-957.333 1256,42.6667" style="fill:#000000; stroke:#000000;stroke-width:0"/>
<circle fill="#a64b00" stroke="#a64b00" stroke-width="0" cx="-80.9869" cy="201.017" r="21.3333"/>
<circle fill="#a64b00" stroke="#a64b00" stroke-width="0" cx="-286.266" cy="220.442" r="21.3333"/>
<circle fill="#a64b00" stroke="#a64b00" stroke-width="0" cx="722.102" cy="288.036" r="21.3333"/>
<circle fill="#a64b00" stroke="#a64b00" stroke-width="0" cx="777.97" cy="76.2929" r="21.3333"/>
<circle fill="#a64b00" stroke="#a64b00" stroke-width="0" cx="104.72" cy="392.59" r="21.3333"/>
</svg>
