<?xml version="1.0" encoding="utf-8"?> <!-- Generator: Adobe Illustrator 13.0.0, SVG Export Plug-In . SVG Version: 6.00 Build 14948)  --> <svg version="1.2" baseProfile="tiny" id="Layer_1" xmlns="http://www.w3.org/2000/svg" xmlns:xlink="http://www.w3.org/1999/xlink" x="0px" y="0px" width="512px" height="512px" viewBox="0 0 512 512" xml:space="preserve">
<polygon points="0,0 512,0 512,512 0,512" style="fill:#ffffff; stroke:#000000;stroke-width:0"/>
<polygon points="-108.701,69.7595 -66.3318,64.7339 -42.3894,266.589 -84.7591,271.615" style="fill:#006363; stroke:#000000;stroke-width:0"/>
<circle fill="#006363" stroke="#006363" stroke-width="0" cx="-87.5166" cy="67.2467" r="21.3333"/>
<circle fill="#006363" stroke="#006363" stroke-width="0" cx="-63.5742" cy="269.102" r="21.3333"/>
<polygon points="716.516,209.068 728.538,250.006 520.99,310.952 508.968,270.014" style="fill:#006363; stroke:#000000;stroke-width:0"/>
<circle fill="#006363" stroke="#006363" stroke-width="0" cx="722.527" cy="229.537" r="21.3333"/>
<circle fill="#006363" stroke="#006363" stroke-width="0" cx="514.979" cy="290.483" r="21.3333"/>
<polygon points="1256,469.333 256,1469.33 -744,469.333" style="fill:#000000; stroke:#000000;stroke-width:0"/>
<polygon points="-744,42.6667 256,-957.333 1256,42.6667" style="fill:#000000; stroke:#000000;stroke-width:0"/>
<circle fill="#a64b00" stroke="#a64b00" stroke-width="0" cx="-87.5166" cy="67.2467" r="21.3333"/>
<circle fill="#a64b00" stroke="#a64b00" stroke-width="0" cx="-63.5742" cy="269.102" r="21.3333"/>
<circle fill="#a64b00" stroke="#a64b00" stroke-width="0" cx="722.527" cy="229.537" r="21.3333"/>
<circle fill="#a64b00" stroke="#a64b00" stroke-width="0" cx="514.979" cy="290.483" r="21.3333"/>
<circle fill="#a64b00" stroke="#a64b00" stroke-width="0" cx="350.495" cy="373.509" r="21.3333"/>
</svg>
