<?xml version="1.0" encoding="utf-8"?> <!-- Generator: Adobe Illustrator 13.0.0, SVG Export Plug-In . SVG Version: 6.00 Build 14948)  --> <svg version="1.2" baseProfile="tiny" id="Layer_1" xmlns="http://www.w3.org/2000/svg" xmlns:xlink="http://www.w3.org/1999/xlink" x="0px" y="0px" width="512px" height="512px" viewBox="0 0 512 512" xml:space="preserve">
<polygon points="0,0 512,0 512,512 0,512" style="fill:#ffffff; stroke:#000000;stroke-width:0"/>
<polygon points="-157.934,265.402 -144.129,305.774 -338.387,372.2 -352.192,331.829" style="fill:#006363; stroke:#000000;stroke-width:0"/>
<circle fill="#006363" stroke="#006363" stroke-width="0" cx="-151.031" cy="285.588" r="21.3333"/>
<circle fill="#006363" stroke="#006363" stroke-width="0" cx="-345.29" cy="352.015" r="21.3333"/>
<polygon points="739.688,422.489 722.402,383.481 917.16,297.174 934.446,336.182" style="fill:#006363; stroke:#000000;stroke-width:0"/>
<circle fill="#006363" stroke="#006363" stroke-width="0" cx="731.045" cy="402.985" r="21.3333"/>
<circle fill="#006363" stroke="#006363" stroke-width="0" cx="925.803" cy="316.678" r="21.3333"/>
<polygon points="1256,469.333 256,1469.33 -744,469.333" style="fill:#000000; stroke:#000000;stroke-width:0"/>
<polygon points="-744,42.6667 256,-957.333 1256,42.6667" style="fill:#000000; stroke:#000000;stroke-width:0"/>
<circle fill="#a64b00" stroke="#a64b00" stroke-width="0" cx="-151.031" cy="285.588" r="21.3333"/>
<circle fill="#a64b00" stroke="#a64b00" stroke-width="0" cx="-345.29" cy="352.015" r="21.3333"/>
<circle fill="#a64b00" stroke="#a64b00" stroke-width="0" cx="731.045" cy="402.985" r="21.3333"/>
<circle fill="#a64b00" stroke="#a64b00" stroke-width="0" cx="925.803" cy="316.678" r="21.3333"/>
<circle fill="#a64b00" stroke="#a64b00" stroke-width="0" cx="-42.0291" cy="392.59" r="21.3333"/>
</svg>
