<?xml version="1.0" encoding="utf-8"?> <!-- Generator: Adobe Illustrator 13.0.0, SVG Export Plug-In . SVG Version: 6.00 Build 14948)  --> <svg version="1.2" baseProfile="tiny" id="Layer_1" xmlns="http://www.w3.org/2000/svg" xmlns:xlink="http://www.w3.org/1999/xlink" x="0px" y="0px" width="512px" height="512px" viewBox="0 0 512 512" xml:space="preserve">
<polygon points="0,0 512,0 512,512 0,512" style="fill:#ffffff; stroke:#000000;stroke-width:0"/>
<polygon points="-134.871,167.858 -94.0822,155.34 -30.3857,362.887 -71.1746,375.405" style="fill:#006363; stroke:#000000;stroke-width:0"/>
<circle fill="#006363" stroke="#006363" stroke-width="0" cx="-114.477" cy="161.599" r="21.3333"/>
<circle fill="#006363" stroke="#006363" stroke-width="0" cx="-50.7801" cy="369.146" r="21.3333"/>
<polygon points="700.665,186.728 726.471,220.705 554.048,351.664 528.242,317.686" style="fill:#006363; stroke:#000000;stroke-width:0"/>
<circle fill="#006363" stroke="#006363" stroke-width="0" cx="713.568" cy="203.716" r="21.3333"/>
<circle fill="#006363" stroke="#006363" stroke-width="0" cx="541.145" cy="334.675" r="21.3333"/>
<polygon points="1256,469.333 256,1469.33 -744,469.333" style="fill:#000000; stroke:#000000;stroke-width:0"/>
<polygon points="-744,42.6667 256,-957.333 1256,42.6667" style="fill:#000000; stroke:#000000;stroke-width:0"/>
<circle fill="#a64b00" stroke="#a64b00" stroke-width="0" cx="-114.477" cy="161.599" r="21.3333"/>
<circle fill="#a64b00" stroke="#a64b00" stroke-width="0" cx="-50.7801" cy="369.146" r="21.3333"/>
<circle fill="#a64b00" stroke="#a64b00" stroke-width="0" cx="713.568" cy="203.716" r="21.3333"/>
<circle fill="#a64b00" stroke="#a64b00" stroke-width="0" cx="541.145" cy="334.675" r="21.3333"/>
<circle fill="#a64b00" stroke="#a64b00" stroke-width="0" cx="334.389" cy="268.563" r="21.3333"/>
</svg>
