<?xml version="1.0" encoding="utf-8"?> <!-- Generator: Adobe Illustrator 13.0.0, SVG Export Plug-In . SVG Version: 6.00 Build 14948)  --> <svg version="1.2" baseProfile="tiny" id="Layer_1" xmlns="http://www.w3.org/2000/svg" xmlns:xlink="http://www.w3.org/1999/xlink" x="0px" y="0px" width="512px" height="512px" viewBox="0 0 512 512" xml:space="preserve">
<polygon points="0,0 512,0 512,512 0,512" style="fill:#ffffff; stroke:#000000;stroke-width:0"/>
<polygon points="-106.107,107.453 -63.7757,102.113 -37.1141,313.441 -79.4452,318.781" style="fill:#006363; stroke:#000000;stroke-width:0"/>
<circle fill="#006363" stroke="#006363" stroke-width="0" cx="-84.9412" cy="104.783" r="21.3333"/>
<circle fill="#006363" stroke="#006363" stroke-width="0" cx="-58.2796" cy="316.111" r="21.3333"/>
<polygon points="719.007,224.815 722.523,267.337 508.939,284.998 505.423,242.477" style="fill:#006363; stroke:#000000;stroke-width:0"/>
<circle fill="#006363" stroke="#006363" stroke-width="0" cx="720.765" cy="246.076" r="21.3333"/>
<circle fill="#006363" stroke="#006363" stroke-width="0" cx="507.181" cy="263.738" r="21.3333"/>
<polygon points="1256,469.333 256,1469.33 -744,469.333" style="fill:#000000; stroke:#000000;stroke-width:0"/>
<polygon points="-744,42.6667 256,-957.333 1256,42.6667" style="fill:#000000; stroke:#000000;stroke-width:0"/>
<circle fill="#a64b00" stroke="#a64b00" stroke-width="0" cx="-84.9412" cy="104.783" r="21.3333"/>
<circle fill="#a64b00" stroke="#a64b00" stroke-width="0" cx="-58.2796" cy="316.111" r="21.3333"/>
<circle fill="#a64b00" stroke="#a64b00" stroke-width="0" cx="720.765" cy="246.076" r="21.3333"/>
<circle fill="#a64b00" stroke="#a64b00" stroke-width="0" cx="507.181" cy="263.738" r="21.3333"/>
<circle fill="#a64b00" stroke="#a64b00" stroke-width="0" cx="359.444" cy="230.401" r="21.3333"/>
</svg>
