<?xml version="1.0" encoding="utf-8"?> <!-- Generator: Adobe Illustrator 13.0.0, SVG Export Plug-In . SVG Version: 6.00 Build 14948)  --> <svg version="1.2" baseProfile="tiny" id="Layer_1" xmlns="http://www.w3.org/2000/svg" xmlns:xlink="http://www.w3.org/1999/xlink" x="0px" y="0px" width="512px" height="512px" viewBox="0 0 512 512" xml:space="preserve">
<polygon points="0,0 512,0 512,512 0,512" style="fill:#ffffff; stroke:#000000;stroke-width:0"/>
<polygon points="-33.2633,206.184 8.36624,196.834 53.965,399.857 12.3354,409.207" style="fill:#006363; stroke:#000000;stroke-width:0"/>
<circle fill="#006363" stroke="#006363" stroke-width="0" cx="-12.4486" cy="201.509" r="21.3333"/>
<circle fill="#006363" stroke="#006363" stroke-width="0" cx="33.1502" cy="404.532" r="21.3333"/>
<polygon points="446.363,92.9704 484.276,73.3986 582.712,264.081 544.799,283.653" style="fill:#006363; stroke:#000000;stroke-width:0"/>
<circle fill="#006363" stroke="#006363" stroke-width="0" cx="465.32" cy="83.1845" r="21.3333"/>
<circle fill="#006363" stroke="#006363" stroke-width="0" cx="563.756" cy="273.867" r="21.3333"/>
<polygon points="1256,469.333 256,1469.33 -744,469.333" style="fill:#000000; stroke:#000000;stroke-width:0"/>
<polygon points="-744,42.6667 256,-957.333 1256,42.6667" style="fill:#000000; stroke:#000000;stroke-width:0"/>
<circle fill="#a64b00" stroke="#a64b00" stroke-width="0" cx="-12.4486" cy="201.509" r="21.3333"/>
<circle fill="#a64b00" stroke="#a64b00" stroke-width="0" cx="33.1502" cy="404.532" r="21.3333"/>
<circle fill="#a64b00" stroke="#a64b00" stroke-width="0" cx="465.32" cy="83.1845" r="21.3333"/>
<circle fill="#a64b00" stroke="#a64b00" stroke-width="0" cx="563.756" cy="273.867" r="21.3333"/>
<circle fill="#a64b00" stroke="#a64b00" stroke-width="0" cx="280.936" cy="258.299" r="21.3333"/>
</svg>
