<?xml version="1.0" encoding="utf-8"?> <!-- Generator: Adobe Illustrator 13.0.0, SVG Export Plug-In . SVG Version: 6.00 Build 14948)  --> <svg version="1.2" baseProfile="tiny" id="Layer_1" xmlns="http://www.w3.org/2000/svg" xmlns:xlink="http://www.w3.org/1999/xlink" x="0px" y="0px" width="512px" height="512px" viewBox="0 0 512 512" xml:space="preserve">
<polygon points="0,0 512,0 512,512 0,512" style="fill:#ffffff; stroke:#000000;stroke-width:0"/>
<polygon points="-412.827,108.091 -409.087,65.5884 -190.002,84.8635 -193.741,127.366" style="fill:#006363; stroke:#000000;stroke-width:0"/>
<circle fill="#006363" stroke="#006363" stroke-width="0" cx="-410.957" cy="86.8397" r="21.3333"/>
<circle fill="#006363" stroke="#006363" stroke-width="0" cx="-191.871" cy="106.115" r="21.3333"/>
<polygon points="862.081,227.481 904.557,223.458 924.139,430.212 881.662,434.235" style="fill:#006363; stroke:#000000;stroke-width:0"/>
<circle fill="#006363" stroke="#006363" stroke-width="0" cx="883.319" cy="225.47" r="21.3333"/>
<circle fill="#006363" stroke="#006363" stroke-width="0" cx="902.9" cy="432.223" r="21.3333"/>
<polygon points="1256,469.333 256,1469.33 -744,469.333" style="fill:#000000; stroke:#000000;stroke-width:0"/>
<polygon points="-744,42.6667 256,-957.333 1256,42.6667" style="fill:#000000; stroke:#000000;stroke-width:0"/>
<circle fill="#a64b00" stroke="#a64b00" stroke-width="0" cx="-410.957" cy="86.8397" r="21.3333"/>
<circle fill="#a64b00" stroke="#a64b00" stroke-width="0" cx="-191.871" cy="106.115" r="21.3333"/>
<circle fill="#a64b00" stroke="#a64b00" stroke-width="0" cx="883.319" cy="225.47" r="21.3333"/>
<circle fill="#a64b00" stroke="#a64b00" stroke-width="0" cx="902.9" cy="432.223" r="21.3333"/>
<circle fill="#a64b00" stroke="#a64b00" stroke-width="0" cx="-163.127" cy="134.996" r="21.3333"/>
</svg>
