<?xml version="1.0" encoding="utf-8"?> <!-- Generator: Adobe Illustrator 13.0.0, SVG Export Plug-In . SVG Version: 6.00 Build 14948)  --> <svg version="1.2" baseProfile="tiny" id="Layer_1" xmlns="http://www.w3.org/2000/svg" xmlns:xlink="http://www.w3.org/1999/xlink" x="0px" y="0px" width="512px" height="512px" viewBox="0 0 512 512" xml:space="preserve">
<polygon points="0,0 512,0 512,512 0,512" style="fill:#ffffff; stroke:#000000;stroke-width:0"/>
<polygon points="-119.101,160.684 -118.286,203.342 -330,207.389 -330.815,164.73" style="fill:#006363; stroke:#000000;stroke-width:0"/>
<circle fill="#006363" stroke="#006363" stroke-width="0" cx="-118.694" cy="182.013" r="21.3333"/>
<circle fill="#006363" stroke="#006363" stroke-width="0" cx="-330.407" cy="186.059" r="21.3333"/>
<polygon points="753.135,425.871 718.612,400.799 846.356,224.901 880.879,249.973" style="fill:#006363; stroke:#000000;stroke-width:0"/>
<circle fill="#006363" stroke="#006363" stroke-width="0" cx="735.874" cy="413.335" r="21.3333"/>
<circle fill="#006363" stroke="#006363" stroke-width="0" cx="863.617" cy="237.437" r="21.3333"/>
<polygon points="1256,469.333 256,1469.33 -744,469.333" style="fill:#000000; stroke:#000000;stroke-width:0"/>
<polygon points="-744,42.6667 256,-957.333 1256,42.6667" style="fill:#000000; stroke:#000000;stroke-width:0"/>
<circle fill="#a64b00" stroke="#a64b00" stroke-width="0" cx="-118.694" cy="182.013" r="21.3333"/>
<circle fill="#a64b00" stroke="#a64b00" stroke-width="0" cx="-330.407" cy="186.059" r="21.3333"/>
<circle fill="#a64b00" stroke="#a64b00" stroke-width="0" cx="735.874" cy="413.335" r="21.3333"/>
<circle fill="#a64b00" stroke="#a64b00" stroke-width="0" cx="863.617" cy="237.437" r="21.3333"/>
<circle fill="#a64b00" stroke="#a64b00" stroke-width="0" cx="11.6596" cy="316.266" r="21.3333"/>
</svg>
