<?xml version="1.0" encoding="utf-8"?> <!-- Generator: Adobe Illustrator 13.0.0, SVG Export Plug-In . SVG Version: 6.00 Build 14948)  --> <svg version="1.2" baseProfile="tiny" id="Layer_1" xmlns="http://www.w3.org/2000/svg" xmlns:xlink="http://www.w3.org/1999/xlink" x="0px" y="0px" width="512px" height="512px" viewBox="0 0 512 512" xml:space="preserve">
<polygon points="0,0 512,0 512,512 0,512" style="fill:#ffffff; stroke:#000000;stroke-width:0"/>
<polygon points="-106.128,138.292 -108.223,180.907 -332.479,169.885 -330.385,127.27" style="fill:#006363; stroke:#000000;stroke-width:0"/>
<circle fill="#006363" stroke="#006363" stroke-width="0" cx="-107.176" cy="159.6" r="21.3333"/>
<circle fill="#006363" stroke="#006363" stroke-width="0" cx="-331.432" cy="148.577" r="21.3333"/>
<polygon points="754.454,405.244 718.779,381.841 832.291,208.804 867.966,232.207" style="fill:#006363; stroke:#000000;stroke-width:0"/>
<circle fill="#006363" stroke="#006363" stroke-width="0" cx="736.617" cy="393.543" r="21.3333"/>
<circle fill="#006363" stroke="#006363" stroke-width="0" cx="850.129" cy="220.506" r="21.3333"/>
<polygon points="1256,469.333 256,1469.33 -744,469.333" style="fill:#000000; stroke:#000000;stroke-width:0"/>
<polygon points="-744,42.6667 256,-957.333 1256,42.6667" style="fill:#000000; stroke:#000000;stroke-width:0"/>
<circle fill="#a64b00" stroke="#a64b00" stroke-width="0" cx="-107.176" cy="159.6" r="21.3333"/>
<circle fill="#a64b00" stroke="#a64b00" stroke-width="0" cx="-331.432" cy="148.577" r="21.3333"/>
<circle fill="#a64b00" stroke="#a64b00" stroke-width="0" cx="736.617" cy="393.543" r="21.3333"/>
<circle fill="#a64b00" stroke="#a64b00" stroke-width="0" cx="850.129" cy="220.506" r="21.3333"/>
<circle fill="#a64b00" stroke="#a64b00" stroke-width="0" cx="23.5905" cy="125.455" r="21.3333"/>
</svg>
