<?xml version="1.0" encoding="utf-8"?> <!-- Generator: Adobe Illustrator 13.0.0, SVG Export Plug-In . SVG Version: 6.00 Build 14948)  --> <svg version="1.2" baseProfile="tiny" id="Layer_1" xmlns="http://www.w3.org/2000/svg" xmlns:xlink="http://www.w3.org/1999/xlink" x="0px" y="0px" width="512px" height="512px" viewBox="0 0 512 512" xml:space="preserve">
<polygon points="0,0 512,0 512,512 0,512" style="fill:#ffffff; stroke:#000000;stroke-width:0"/>
<polygon points="-338.102,272.735 -371.842,246.619 -243.74,81.1188 -210,107.235" style="fill:#006363; stroke:#000000;stroke-width:0"/>
<circle fill="#006363" stroke="#006363" stroke-width="0" cx="-354.972" cy="259.677" r="21.3333"/>
<circle fill="#006363" stroke="#006363" stroke-width="0" cx="-226.87" cy="94.1768" r="21.3333"/>
<polygon points="811.515,246.003 849.596,226.76 949.213,423.901 911.132,443.143" style="fill:#006363; stroke:#000000;stroke-width:0"/>
<circle fill="#006363" stroke="#006363" stroke-width="0" cx="830.555" cy="236.382" r="21.3333"/>
<circle fill="#006363" stroke="#006363" stroke-width="0" cx="930.172" cy="433.522" r="21.3333"/>
<polygon points="1256,469.333 256,1469.33 -744,469.333" style="fill:#000000; stroke:#000000;stroke-width:0"/>
<polygon points="-744,42.6667 256,-957.333 1256,42.6667" style="fill:#000000; stroke:#000000;stroke-width:0"/>
<circle fill="#a64b00" stroke="#a64b00" stroke-width="0" cx="-354.972" cy="259.677" r="21.3333"/>
<circle fill="#a64b00" stroke="#a64b00" stroke-width="0" cx="-226.87" cy="94.1768" r="21.3333"/>
<circle fill="#a64b00" stroke="#a64b00" stroke-width="0" cx="830.555" cy="236.382" r="21.3333"/>
<circle fill="#a64b00" stroke="#a64b00" stroke-width="0" cx="930.172" cy="433.522" r="21.3333"/>
<circle fill="#a64b00" stroke="#a64b00" stroke-width="0" cx="-139.265" cy="383.049" r="21.3333"/>
</svg>
