<?xml version="1.0" encoding="utf-8"?> <!-- Generator: Adobe Illustrator 13.0.0, SVG Export Plug-In . SVG Version: 6.00 Build 14948)  --> <svg version="1.2" baseProfile="tiny" id="Layer_1" xmlns="http://www.w3.org/2000/svg" xmlns:xlink="http://www.w3.org/1999/xlink" x="0px" y="0px" width="512px" height="512px" viewBox="0 0 512 512" xml:space="preserve">
<polygon points="0,0 512,0 512,512 0,512" style="fill:#ffffff; stroke:#000000;stroke-width:0"/>
<polygon points="-145.485,227.177 -105.998,211.016 -26.5922,405.042 -66.08,421.203" style="fill:#006363; stroke:#000000;stroke-width:0"/>
<circle fill="#006363" stroke="#006363" stroke-width="0" cx="-125.741" cy="219.096" r="21.3333"/>
<circle fill="#006363" stroke="#006363" stroke-width="0" cx="-46.3361" cy="413.123" r="21.3333"/>
<polygon points="687.155,181.898 718.502,210.843 575.843,365.339 544.496,336.394" style="fill:#006363; stroke:#000000;stroke-width:0"/>
<circle fill="#006363" stroke="#006363" stroke-width="0" cx="702.829" cy="196.371" r="21.3333"/>
<circle fill="#006363" stroke="#006363" stroke-width="0" cx="560.169" cy="350.866" r="21.3333"/>
<polygon points="1256,469.333 256,1469.33 -744,469.333" style="fill:#000000; stroke:#000000;stroke-width:0"/>
<polygon points="-744,42.6667 256,-957.333 1256,42.6667" style="fill:#000000; stroke:#000000;stroke-width:0"/>
<circle fill="#a64b00" stroke="#a64b00" stroke-width="0" cx="-125.741" cy="219.096" r="21.3333"/>
<circle fill="#a64b00" stroke="#a64b00" stroke-width="0" cx="-46.3361" cy="413.123" r="21.3333"/>
<circle fill="#a64b00" stroke="#a64b00" stroke-width="0" cx="702.829" cy="196.371" r="21.3333"/>
<circle fill="#a64b00" stroke="#a64b00" stroke-width="0" cx="560.169" cy="350.866" r="21.3333"/>
<circle fill="#a64b00" stroke="#a64b00" stroke-width="0" cx="326.634" cy="144.536" r="21.3333"/>
</svg>
