<?xml version="1.0" encoding="utf-8"?> <!-- Generator: Adobe Illustrator 13.0.0, SVG Export Plug-In . SVG Version: 6.00 Build 14948)  --> <svg version="1.2" baseProfile="tiny" id="Layer_1" xmlns="http://www.w3.org/2000/svg" xmlns:xlink="http://www.w3.org/1999/xlink" x="0px" y="0px" width="512px" height="512px" viewBox="0 0 512 512" xml:space="preserve">
<polygon points="0,0 512,0 512,512 0,512" style="fill:#ffffff; stroke:#000000;stroke-width:0"/>
<polygon points="-312.433,444.955 -355.086,443.868 -349.714,233.039 -307.061,234.126" style="fill:#006363; stroke:#000000;stroke-width:0"/>
<circle fill="#006363" stroke="#006363" stroke-width="0" cx="-333.76" cy="444.412" r="21.3333"/>
<circle fill="#006363" stroke="#006363" stroke-width="0" cx="-328.387" cy="233.583" r="21.3333"/>
<polygon points="980.764,224.321 1011.37,254.053 864.724,404.982 834.122,375.25" style="fill:#006363; stroke:#000000;stroke-width:0"/>
<circle fill="#006363" stroke="#006363" stroke-width="0" cx="996.065" cy="239.187" r="21.3333"/>
<circle fill="#006363" stroke="#006363" stroke-width="0" cx="849.423" cy="390.116" r="21.3333"/>
<polygon points="1256,469.333 256,1469.33 -744,469.333" style="fill:#000000; stroke:#000000;stroke-width:0"/>
<polygon points="-744,42.6667 256,-957.333 1256,42.6667" style="fill:#000000; stroke:#000000;stroke-width:0"/>
<circle fill="#a64b00" stroke="#a64b00" stroke-width="0" cx="-333.76" cy="444.412" r="21.3333"/>
<circle fill="#a64b00" stroke="#a64b00" stroke-width="0" cx="-328.387" cy="233.583" r="21.3333"/>
<circle fill="#a64b00" stroke="#a64b00" stroke-width="0" cx="996.065" cy="239.187" r="21.3333"/>
<circle fill="#a64b00" stroke="#a64b00" stroke-width="0" cx="849.423" cy="390.116" r="21.3333"/>
<circle fill="#a64b00" stroke="#a64b00" stroke-width="0" cx="833.872" cy="305.22" r="21.3333"/>
</svg>
