<?xml version="1.0" encoding="utf-8"?> <!-- Generator: Adobe Illustrator 13.0.0, SVG Export Plug-In . SVG Version: 6.00 Build 14948)  --> <svg version="1.2" baseProfile="tiny" id="Layer_1" xmlns="http://www.w3.org/2000/svg" xmlns:xlink="http://www.w3.org/1999/xlink" x="0px" y="0px" width="512px" height="512px" viewBox="0 0 512 512" xml:space="preserve">
<polygon points="0,0 512,0 512,512 0,512" style="fill:#ffffff; stroke:#000000;stroke-width:0"/>
<polygon points="-383.509,313.655 -412.453,282.307 -253.762,135.783 -224.818,167.131" style="fill:#006363; stroke:#000000;stroke-width:0"/>
<circle fill="#006363" stroke="#006363" stroke-width="0" cx="-397.981" cy="297.981" r="21.3333"/>
<circle fill="#006363" stroke="#006363" stroke-width="0" cx="-239.29" cy="151.457" r="21.3333"/>
<polygon points="933.87,212.638 973.017,229.609 886.763,428.571 847.617,411.6" style="fill:#006363; stroke:#000000;stroke-width:0"/>
<circle fill="#006363" stroke="#006363" stroke-width="0" cx="953.444" cy="221.123" r="21.3333"/>
<circle fill="#006363" stroke="#006363" stroke-width="0" cx="867.19" cy="420.085" r="21.3333"/>
<polygon points="1256,469.333 256,1469.33 -744,469.333" style="fill:#000000; stroke:#000000;stroke-width:0"/>
<polygon points="-744,42.6667 256,-957.333 1256,42.6667" style="fill:#000000; stroke:#000000;stroke-width:0"/>
<circle fill="#a64b00" stroke="#a64b00" stroke-width="0" cx="-397.981" cy="297.981" r="21.3333"/>
<circle fill="#a64b00" stroke="#a64b00" stroke-width="0" cx="-239.29" cy="151.457" r="21.3333"/>
<circle fill="#a64b00" stroke="#a64b00" stroke-width="0" cx="953.444" cy="221.123" r="21.3333"/>
<circle fill="#a64b00" stroke="#a64b00" stroke-width="0" cx="867.19" cy="420.085" r="21.3333"/>
<circle fill="#a64b00" stroke="#a64b00" stroke-width="0" cx="415.776" cy="233.836" r="21.3333"/>
</svg>
