<?xml version="1.0" encoding="utf-8"?> <!-- Generator: Adobe Illustrator 13.0.0, SVG Export Plug-In . SVG Version: 6.00 Build 14948)  --> <svg version="1.2" baseProfile="tiny" id="Layer_1" xmlns="http://www.w3.org/2000/svg" xmlns:xlink="http://www.w3.org/1999/xlink" x="0px" y="0px" width="512px" height="512px" viewBox="0 0 512 512" xml:space="preserve">
<polygon points="0,0 512,0 512,512 0,512" style="fill:#ffffff; stroke:#000000;stroke-width:0"/>
<polygon points="-26.7761,176.303 15.1187,168.224 56.307,381.815 14.4121,389.894" style="fill:#006363; stroke:#000000;stroke-width:0"/>
<circle fill="#006363" stroke="#006363" stroke-width="0" cx="-5.82869" cy="172.264" r="21.3333"/>
<circle fill="#006363" stroke="#006363" stroke-width="0" cx="35.3595" cy="385.854" r="21.3333"/>
<polygon points="448.74,124.441 488.214,108.247 568.63,304.273 529.155,320.466" style="fill:#006363; stroke:#000000;stroke-width:0"/>
<circle fill="#006363" stroke="#006363" stroke-width="0" cx="468.477" cy="116.344" r="21.3333"/>
<circle fill="#006363" stroke="#006363" stroke-width="0" cx="548.892" cy="312.369" r="21.3333"/>
<polygon points="1256,469.333 256,1469.33 -744,469.333" style="fill:#000000; stroke:#000000;stroke-width:0"/>
<polygon points="-744,42.6667 256,-957.333 1256,42.6667" style="fill:#000000; stroke:#000000;stroke-width:0"/>
<circle fill="#a64b00" stroke="#a64b00" stroke-width="0" cx="-5.82869" cy="172.264" r="21.3333"/>
<circle fill="#a64b00" stroke="#a64b00" stroke-width="0" cx="35.3595" cy="385.854" r="21.3333"/>
<circle fill="#a64b00" stroke="#a64b00" stroke-width="0" cx="468.477" cy="116.344" r="21.3333"/>
<circle fill="#a64b00" stroke="#a64b00" stroke-width="0" cx="548.892" cy="312.369" r="21.3333"/>
<circle fill="#a64b00" stroke="#a64b00" stroke-width="0" cx="333.946" cy="87.5681" r="21.3333"/>
</svg>
