<?xml version="1.0" encoding="utf-8"?> <!-- Generator: Adobe Illustrator 13.0.0, SVG Export Plug-In . SVG Version: 6.00 Build 14948)  --> <svg version="1.2" baseProfile="tiny" id="Layer_1" xmlns="http://www.w3.org/2000/svg" xmlns:xlink="http://www.w3.org/1999/xlink" x="0px" y="0px" width="512px" height="512px" viewBox="0 0 512 512" xml:space="preserve">
<polygon points="0,0 512,0 512,512 0,512" style="fill:#ffffff; stroke:#000000;stroke-width:0"/>
<polygon points="-177.885,352.72 -204.78,385.843 -371.428,250.527 -344.533,217.404" style="fill:#006363; stroke:#000000;stroke-width:0"/>
<circle fill="#006363" stroke="#006363" stroke-width="0" cx="-191.332" cy="369.282" r="21.3333"/>
<circle fill="#006363" stroke="#006363" stroke-width="0" cx="-357.98" cy="233.966" r="21.3333"/>
<polygon points="755.278,307.972 776.688,271.067 965.937,380.858 944.527,417.764" style="fill:#006363; stroke:#000000;stroke-width:0"/>
<circle fill="#006363" stroke="#006363" stroke-width="0" cx="765.983" cy="289.52" r="21.3333"/>
<circle fill="#006363" stroke="#006363" stroke-width="0" cx="955.232" cy="399.311" r="21.3333"/>
<polygon points="1256,469.333 256,1469.33 -744,469.333" style="fill:#000000; stroke:#000000;stroke-width:0"/>
<polygon points="-744,42.6667 256,-957.333 1256,42.6667" style="fill:#000000; stroke:#000000;stroke-width:0"/>
<circle fill="#a64b00" stroke="#a64b00" stroke-width="0" cx="-191.332" cy="369.282" r="21.3333"/>
<circle fill="#a64b00" stroke="#a64b00" stroke-width="0" cx="-357.98" cy="233.966" r="21.3333"/>
<circle fill="#a64b00" stroke="#a64b00" stroke-width="0" cx="765.983" cy="289.52" r="21.3333"/>
<circle fill="#a64b00" stroke="#a64b00" stroke-width="0" cx="955.232" cy="399.311" r="21.3333"/>
<circle fill="#a64b00" stroke="#a64b00" stroke-width="0" cx="-102.28" cy="325.806" r="21.3333"/>
</svg>
