<?xml version="1.0" encoding="utf-8"?> <!-- Generator: Adobe Illustrator 13.0.0, SVG Export Plug-In . SVG Version: 6.00 Build 14948)  --> <svg version="1.2" baseProfile="tiny" id="Layer_1" xmlns="http://www.w3.org/2000/svg" xmlns:xlink="http://www.w3.org/1999/xlink" x="0px" y="0px" width="512px" height="512px" viewBox="0 0 512 512" xml:space="preserve">
<polygon points="0,0 512,0 512,512 0,512" style="fill:#ffffff; stroke:#000000;stroke-width:0"/>
<polygon points="-119.457,130.471 -100.624,92.1852 87.9897,184.966 69.1568,223.252" style="fill:#006363; stroke:#000000;stroke-width:0"/>
<circle fill="#006363" stroke="#006363" stroke-width="0" cx="-110.04" cy="111.328" r="21.3333"/>
<circle fill="#006363" stroke="#006363" stroke-width="0" cx="78.5733" cy="204.109" r="21.3333"/>
<polygon points="455.218,241.207 440.166,201.283 638.773,126.405 653.825,166.328" style="fill:#006363; stroke:#000000;stroke-width:0"/>
<circle fill="#006363" stroke="#006363" stroke-width="0" cx="447.692" cy="221.245" r="21.3333"/>
<circle fill="#006363" stroke="#006363" stroke-width="0" cx="646.299" cy="146.366" r="21.3333"/>
<polygon points="1256,469.333 256,1469.33 -744,469.333" style="fill:#000000; stroke:#000000;stroke-width:0"/>
<polygon points="-744,42.6667 256,-957.333 1256,42.6667" style="fill:#000000; stroke:#000000;stroke-width:0"/>
<circle fill="#a64b00" stroke="#a64b00" stroke-width="0" cx="-110.04" cy="111.328" r="21.3333"/>
<circle fill="#a64b00" stroke="#a64b00" stroke-width="0" cx="78.5733" cy="204.109" r="21.3333"/>
<circle fill="#a64b00" stroke="#a64b00" stroke-width="0" cx="447.692" cy="221.245" r="21.3333"/>
<circle fill="#a64b00" stroke="#a64b00" stroke-width="0" cx="646.299" cy="146.366" r="21.3333"/>
<circle fill="#a64b00" stroke="#a64b00" stroke-width="0" cx="307.652" cy="81.7562" r="21.3333"/>
</svg>
