<?xml version="1.0" encoding="utf-8"?> <!-- Generator: Adobe Illustrator 13.0.0, SVG Export Plug-In . SVG Version: 6.00 Build 14948)  --> <svg version="1.2" baseProfile="tiny" id="Layer_1" xmlns="http://www.w3.org/2000/svg" xmlns:xlink="http://www.w3.org/1999/xlink" x="0px" y="0px" width="512px" height="512px" viewBox="0 0 512 512" xml:space="preserve">
<polygon points="0,0 512,0 512,512 0,512" style="fill:#ffffff; stroke:#000000;stroke-width:0"/>
<polygon points="20.9716,221.12 63.6383,221.059 63.9429,434.347 21.2763,434.408" style="fill:#006363; stroke:#000000;stroke-width:0"/>
<circle fill="#006363" stroke="#006363" stroke-width="0" cx="42.305" cy="221.09" r="21.3333"/>
<circle fill="#006363" stroke="#006363" stroke-width="0" cx="42.6096" cy="434.377" r="21.3333"/>
<polygon points="450.24,73.3535 492.903,72.7636 495.852,286.101 453.19,286.69" style="fill:#006363; stroke:#000000;stroke-width:0"/>
<circle fill="#006363" stroke="#006363" stroke-width="0" cx="471.571" cy="73.0585" r="21.3333"/>
<circle fill="#006363" stroke="#006363" stroke-width="0" cx="474.521" cy="286.396" r="21.3333"/>
<polygon points="1256,469.333 256,1469.33 -744,469.333" style="fill:#000000; stroke:#000000;stroke-width:0"/>
<polygon points="-744,42.6667 256,-957.333 1256,42.6667" style="fill:#000000; stroke:#000000;stroke-width:0"/>
<circle fill="#a64b00" stroke="#a64b00" stroke-width="0" cx="42.305" cy="221.09" r="21.3333"/>
<circle fill="#a64b00" stroke="#a64b00" stroke-width="0" cx="42.6096" cy="434.377" r="21.3333"/>
<circle fill="#a64b00" stroke="#a64b00" stroke-width="0" cx="471.571" cy="73.0585" r="21.3333"/>
<circle fill="#a64b00" stroke="#a64b00" stroke-width="0" cx="474.521" cy="286.396" r="21.3333"/>
<circle fill="#a64b00" stroke="#a64b00" stroke-width="0" cx="99.3056" cy="256" r="21.3333"/>
</svg>
