<?xml version="1.0" encoding="utf-8"?> <!-- Generator: Adobe Illustrator 13.0.0, SVG Export Plug-In . SVG Version: 6.00 Build 14948)  --> <svg version="1.2" baseProfile="tiny" id="Layer_1" xmlns="http://www.w3.org/2000/svg" xmlns:xlink="http://www.w3.org/1999/xlink" x="0px" y="0px" width="512px" height="512px" viewBox="0 0 512 512" xml:space="preserve">
<polygon points="0,0 512,0 512,512 0,512" style="fill:#ffffff; stroke:#000000;stroke-width:0"/>
<polygon points="-167.098,291.698 -202.368,267.688 -80.5317,88.7086 -45.2614,112.718" style="fill:#006363; stroke:#000000;stroke-width:0"/>
<circle fill="#006363" stroke="#006363" stroke-width="0" cx="-184.733" cy="279.693" r="21.3333"/>
<circle fill="#006363" stroke="#006363" stroke-width="0" cx="-62.8966" cy="100.713" r="21.3333"/>
<polygon points="569.094,303.033 584.679,263.315 785.675,342.184 770.089,381.902" style="fill:#006363; stroke:#000000;stroke-width:0"/>
<circle fill="#006363" stroke="#006363" stroke-width="0" cx="576.887" cy="283.174" r="21.3333"/>
<circle fill="#006363" stroke="#006363" stroke-width="0" cx="777.882" cy="362.043" r="21.3333"/>
<polygon points="1256,469.333 256,1469.33 -744,469.333" style="fill:#000000; stroke:#000000;stroke-width:0"/>
<polygon points="-744,42.6667 256,-957.333 1256,42.6667" style="fill:#000000; stroke:#000000;stroke-width:0"/>
<circle fill="#a64b00" stroke="#a64b00" stroke-width="0" cx="-184.733" cy="279.693" r="21.3333"/>
<circle fill="#a64b00" stroke="#a64b00" stroke-width="0" cx="-62.8966" cy="100.713" r="21.3333"/>
<circle fill="#a64b00" stroke="#a64b00" stroke-width="0" cx="576.887" cy="283.174" r="21.3333"/>
<circle fill="#a64b00" stroke="#a64b00" stroke-width="0" cx="777.882" cy="362.043" r="21.3333"/>
<circle fill="#a64b00" stroke="#a64b00" stroke-width="0" cx="240.732" cy="335.347" r="21.3333"/>
</svg>
