<?xml version="1.0" encoding="utf-8"?> <!-- Generator: Adobe Illustrator 13.0.0, SVG Export Plug-In . SVG Version: 6.00 Build 14948)  --> <svg version="1.2" baseProfile="tiny" id="Layer_1" xmlns="http://www.w3.org/2000/svg" xmlns:xlink="http://www.w3.org/1999/xlink" x="0px" y="0px" width="512px" height="512px" viewBox="0 0 512 512" xml:space="preserve">
<polygon points="0,0 512,0 512,512 0,512" style="fill:#ffffff; stroke:#000000;stroke-width:0"/>
<polygon points="-207.921,400.214 -215.722,358.267 0.69138,318.025 8.49158,359.972" style="fill:#006363; stroke:#000000;stroke-width:0"/>
<circle fill="#006363" stroke="#006363" stroke-width="0" cx="-211.822" cy="379.241" r="21.3333"/>
<circle fill="#006363" stroke="#006363" stroke-width="0" cx="4.59148" cy="338.998" r="21.3333"/>
<polygon points="615.009,194.335 657.146,187.632 690.688,398.49 648.551,405.193" style="fill:#006363; stroke:#000000;stroke-width:0"/>
<circle fill="#006363" stroke="#006363" stroke-width="0" cx="636.078" cy="190.983" r="21.3333"/>
<circle fill="#006363" stroke="#006363" stroke-width="0" cx="669.619" cy="401.841" r="21.3333"/>
<polygon points="1256,469.333 256,1469.33 -744,469.333" style="fill:#000000; stroke:#000000;stroke-width:0"/>
<polygon points="-744,42.6667 256,-957.333 1256,42.6667" style="fill:#000000; stroke:#000000;stroke-width:0"/>
<circle fill="#a64b00" stroke="#a64b00" stroke-width="0" cx="-211.822" cy="379.241" r="21.3333"/>
<circle fill="#a64b00" stroke="#a64b00" stroke-width="0" cx="4.59148" cy="338.998" r="21.3333"/>
<circle fill="#a64b00" stroke="#a64b00" stroke-width="0" cx="636.078" cy="190.983" r="21.3333"/>
<circle fill="#a64b00" stroke="#a64b00" stroke-width="0" cx="669.619" cy="401.841" r="21.3333"/>
<circle fill="#a64b00" stroke="#a64b00" stroke-width="0" cx="286.665" cy="287.644" r="21.3333"/>
</svg>
