<?xml version="1.0" encoding="utf-8"?> <!-- Generator: Adobe Illustrator 13.0.0, SVG Export Plug-In . SVG Version: 6.00 Build 14948)  --> <svg version="1.2" baseProfile="tiny" id="Layer_1" xmlns="http://www.w3.org/2000/svg" xmlns:xlink="http://www.w3.org/1999/xlink" x="0px" y="0px" width="512px" height="512px" viewBox="0 0 512 512" xml:space="preserve">
<polygon points="0,0 512,0 512,512 0,512" style="fill:#ffffff; stroke:#000000;stroke-width:0"/>
<polygon points="-202.343,352.563 -237.887,376.166 -353.265,202.414 -317.721,178.812" style="fill:#006363; stroke:#000000;stroke-width:0"/>
<circle fill="#006363" stroke="#006363" stroke-width="0" cx="-220.115" cy="364.364" r="21.3333"/>
<circle fill="#006363" stroke="#006363" stroke-width="0" cx="-335.493" cy="190.613" r="21.3333"/>
<polygon points="766.1,296.49 791.446,262.167 962.762,388.677 937.417,423" style="fill:#006363; stroke:#000000;stroke-width:0"/>
<circle fill="#006363" stroke="#006363" stroke-width="0" cx="778.773" cy="279.329" r="21.3333"/>
<circle fill="#006363" stroke="#006363" stroke-width="0" cx="950.089" cy="405.839" r="21.3333"/>
<polygon points="1256,469.333 256,1469.33 -744,469.333" style="fill:#000000; stroke:#000000;stroke-width:0"/>
<polygon points="-744,42.6667 256,-957.333 1256,42.6667" style="fill:#000000; stroke:#000000;stroke-width:0"/>
<circle fill="#a64b00" stroke="#a64b00" stroke-width="0" cx="-220.115" cy="364.364" r="21.3333"/>
<circle fill="#a64b00" stroke="#a64b00" stroke-width="0" cx="-335.493" cy="190.613" r="21.3333"/>
<circle fill="#a64b00" stroke="#a64b00" stroke-width="0" cx="778.773" cy="279.329" r="21.3333"/>
<circle fill="#a64b00" stroke="#a64b00" stroke-width="0" cx="950.089" cy="405.839" r="21.3333"/>
<circle fill="#a64b00" stroke="#a64b00" stroke-width="0" cx="-109.438" cy="211.32" r="21.3333"/>
</svg>
