<?xml version="1.0" encoding="utf-8"?> <!-- Generator: Adobe Illustrator 13.0.0, SVG Export Plug-In . SVG Version: 6.00 Build 14948)  --> <svg version="1.2" baseProfile="tiny" id="Layer_1" xmlns="http://www.w3.org/2000/svg" xmlns:xlink="http://www.w3.org/1999/xlink" x="0px" y="0px" width="512px" height="512px" viewBox="0 0 512 512" xml:space="preserve">
<polygon points="0,0 512,0 512,512 0,512" style="fill:#ffffff; stroke:#000000;stroke-width:0"/>
<polygon points="-166.645,282.45 -201.935,258.47 -82.0338,82.0221 -46.7438,106.003" style="fill:#006363; stroke:#000000;stroke-width:0"/>
<circle fill="#006363" stroke="#006363" stroke-width="0" cx="-184.29" cy="270.46" r="21.3333"/>
<circle fill="#006363" stroke="#006363" stroke-width="0" cx="-64.3888" cy="94.0123" r="21.3333"/>
<polygon points="571.204,307.337 585.717,267.214 784.84,339.241 770.327,379.363" style="fill:#006363; stroke:#000000;stroke-width:0"/>
<circle fill="#006363" stroke="#006363" stroke-width="0" cx="578.46" cy="287.276" r="21.3333"/>
<circle fill="#006363" stroke="#006363" stroke-width="0" cx="777.583" cy="359.302" r="21.3333"/>
<polygon points="1256,469.333 256,1469.33 -744,469.333" style="fill:#000000; stroke:#000000;stroke-width:0"/>
<polygon points="-744,42.6667 256,-957.333 1256,42.6667" style="fill:#000000; stroke:#000000;stroke-width:0"/>
<circle fill="#a64b00" stroke="#a64b00" stroke-width="0" cx="-184.29" cy="270.46" r="21.3333"/>
<circle fill="#a64b00" stroke="#a64b00" stroke-width="0" cx="-64.3888" cy="94.0123" r="21.3333"/>
<circle fill="#a64b00" stroke="#a64b00" stroke-width="0" cx="578.46" cy="287.276" r="21.3333"/>
<circle fill="#a64b00" stroke="#a64b00" stroke-width="0" cx="777.583" cy="359.302" r="21.3333"/>
<circle fill="#a64b00" stroke="#a64b00" stroke-width="0" cx="239.539" cy="316.266" r="21.3333"/>
</svg>
