<?xml version="1.0" encoding="utf-8"?> <!-- Generator: Adobe Illustrator 13.0.0, SVG Export Plug-In . SVG Version: 6.00 Build 14948)  --> <svg version="1.2" baseProfile="tiny" id="Layer_1" xmlns="http://www.w3.org/2000/svg" xmlns:xlink="http://www.w3.org/1999/xlink" x="0px" y="0px" width="512px" height="512px" viewBox="0 0 512 512" xml:space="preserve">
<polygon points="0,0 512,0 512,512 0,512" style="fill:#ffffff; stroke:#000000;stroke-width:0"/>
<polygon points="-235.221,348.593 -276.664,358.736 -327.733,150.07 -286.289,139.927" style="fill:#006363; stroke:#000000;stroke-width:0"/>
<circle fill="#006363" stroke="#006363" stroke-width="0" cx="-255.942" cy="353.664" r="21.3333"/>
<circle fill="#006363" stroke="#006363" stroke-width="0" cx="-307.011" cy="144.999" r="21.3333"/>
<polygon points="775.491,279.89 805.134,249.202 962.293,401.003 932.651,431.692" style="fill:#006363; stroke:#000000;stroke-width:0"/>
<circle fill="#006363" stroke="#006363" stroke-width="0" cx="790.312" cy="264.546" r="21.3333"/>
<circle fill="#006363" stroke="#006363" stroke-width="0" cx="947.472" cy="416.347" r="21.3333"/>
<polygon points="1256,469.333 256,1469.33 -744,469.333" style="fill:#000000; stroke:#000000;stroke-width:0"/>
<polygon points="-744,42.6667 256,-957.333 1256,42.6667" style="fill:#000000; stroke:#000000;stroke-width:0"/>
<circle fill="#a64b00" stroke="#a64b00" stroke-width="0" cx="-255.942" cy="353.664" r="21.3333"/>
<circle fill="#a64b00" stroke="#a64b00" stroke-width="0" cx="-307.011" cy="144.999" r="21.3333"/>
<circle fill="#a64b00" stroke="#a64b00" stroke-width="0" cx="790.312" cy="264.546" r="21.3333"/>
<circle fill="#a64b00" stroke="#a64b00" stroke-width="0" cx="947.472" cy="416.347" r="21.3333"/>
<circle fill="#a64b00" stroke="#a64b00" stroke-width="0" cx="-117.79" cy="77.7526" r="21.3333"/>
</svg>
