<?xml version="1.0" encoding="utf-8"?> <!-- Generator: Adobe Illustrator 13.0.0, SVG Export Plug-In . SVG Version: 6.00 Build 14948)  --> <svg version="1.2" baseProfile="tiny" id="Layer_1" xmlns="http://www.w3.org/2000/svg" xmlns:xlink="http://www.w3.org/1999/xlink" x="0px" y="0px" width="512px" height="512px" viewBox="0 0 512 512" xml:space="preserve">
<polygon points="0,0 512,0 512,512 0,512" style="fill:#ffffff; stroke:#000000;stroke-width:0"/>
<polygon points="-18.6679,150.965 23.4655,144.241 57.4293,357.051 15.2959,363.776" style="fill:#006363; stroke:#000000;stroke-width:0"/>
<circle fill="#006363" stroke="#006363" stroke-width="0" cx="2.39879" cy="147.603" r="21.3333"/>
<circle fill="#006363" stroke="#006363" stroke-width="0" cx="36.3626" cy="360.414" r="21.3333"/>
<polygon points="450.617,155.321 491.404,142.796 554.514,348.31 513.727,360.835" style="fill:#006363; stroke:#000000;stroke-width:0"/>
<circle fill="#006363" stroke="#006363" stroke-width="0" cx="471.011" cy="149.059" r="21.3333"/>
<circle fill="#006363" stroke="#006363" stroke-width="0" cx="534.121" cy="354.573" r="21.3333"/>
<polygon points="1256,469.333 256,1469.33 -744,469.333" style="fill:#000000; stroke:#000000;stroke-width:0"/>
<polygon points="-744,42.6667 256,-957.333 1256,42.6667" style="fill:#000000; stroke:#000000;stroke-width:0"/>
<circle fill="#a64b00" stroke="#a64b00" stroke-width="0" cx="2.39879" cy="147.603" r="21.3333"/>
<circle fill="#a64b00" stroke="#a64b00" stroke-width="0" cx="36.3626" cy="360.414" r="21.3333"/>
<circle fill="#a64b00" stroke="#a64b00" stroke-width="0" cx="471.011" cy="149.059" r="21.3333"/>
<circle fill="#a64b00" stroke="#a64b00" stroke-width="0" cx="534.121" cy="354.573" r="21.3333"/>
<circle fill="#a64b00" stroke="#a64b00" stroke-width="0" cx="389.366" cy="203.975" r="21.3333"/>
</svg>
