<?xml version="1.0" encoding="utf-8"?> <!-- Generator: Adobe Illustrator 13.0.0, SVG Export Plug-In . SVG Version: 6.00 Build 14948)  --> <svg version="1.2" baseProfile="tiny" id="Layer_1" xmlns="http://www.w3.org/2000/svg" xmlns:xlink="http://www.w3.org/1999/xlink" x="0px" y="0px" width="512px" height="512px" viewBox="0 0 512 512" xml:space="preserve">
<polygon points="0,0 512,0 512,512 0,512" style="fill:#ffffff; stroke:#000000;stroke-width:0"/>
<polygon points="21.3333,227.158 64,227.158 64,437.375 21.3333,437.375" style="fill:#006363; stroke:#000000;stroke-width:0"/>
<circle fill="#006363" stroke="#006363" stroke-width="0" cx="42.6667" cy="227.158" r="21.3333"/>
<circle fill="#006363" stroke="#006363" stroke-width="0" cx="42.6667" cy="437.375" r="21.3333"/>
<polygon points="450.154,68.7546 492.818,68.2197 495.514,283.236 452.85,283.771" style="fill:#006363; stroke:#000000;stroke-width:0"/>
<circle fill="#006363" stroke="#006363" stroke-width="0" cx="471.486" cy="68.4871" r="21.3333"/>
<circle fill="#006363" stroke="#006363" stroke-width="0" cx="474.182" cy="283.504" r="21.3333"/>
<polygon points="1256,469.333 256,1469.33 -744,469.333" style="fill:#000000; stroke:#000000;stroke-width:0"/>
<polygon points="-744,42.6667 256,-957.333 1256,42.6667" style="fill:#000000; stroke:#000000;stroke-width:0"/>
<circle fill="#a64b00" stroke="#a64b00" stroke-width="0" cx="42.6667" cy="227.158" r="21.3333"/>
<circle fill="#a64b00" stroke="#a64b00" stroke-width="0" cx="42.6667" cy="437.375" r="21.3333"/>
<circle fill="#a64b00" stroke="#a64b00" stroke-width="0" cx="471.486" cy="68.4871" r="21.3333"/>
<circle fill="#a64b00" stroke="#a64b00" stroke-width="0" cx="474.182" cy="283.504" r="21.3333"/>
<circle fill="#a64b00" stroke="#a64b00" stroke-width="0" cx="78.5258" cy="256" r="21.3333"/>
</svg>
