<?xml version="1.0" encoding="utf-8"?> <!-- Generator: Adobe Illustrator 13.0.0, SVG Export Plug-In . SVG Version: 6.00 Build 14948)  --> <svg version="1.2" baseProfile="tiny" id="Layer_1" xmlns="http://www.w3.org/2000/svg" xmlns:xlink="http://www.w3.org/1999/xlink" x="0px" y="0px" width="512px" height="512px" viewBox="0 0 512 512" xml:space="preserve">
<polygon points="0,0 512,0 512,512 0,512" style="fill:#ffffff; stroke:#000000;stroke-width:0"/>
<polygon points="-17.1223,147.665 25.0463,141.165 57.489,351.638 15.3204,358.138" style="fill:#006363; stroke:#000000;stroke-width:0"/>
<circle fill="#006363" stroke="#006363" stroke-width="0" cx="3.96198" cy="144.415" r="21.3333"/>
<circle fill="#006363" stroke="#006363" stroke-width="0" cx="36.4047" cy="354.888" r="21.3333"/>
<polygon points="451.567,162.646 492.548,150.772 551.437,354.015 510.456,365.889" style="fill:#006363; stroke:#000000;stroke-width:0"/>
<circle fill="#006363" stroke="#006363" stroke-width="0" cx="472.057" cy="156.709" r="21.3333"/>
<circle fill="#006363" stroke="#006363" stroke-width="0" cx="530.946" cy="359.952" r="21.3333"/>
<polygon points="1256,469.333 256,1469.33 -744,469.333" style="fill:#000000; stroke:#000000;stroke-width:0"/>
<polygon points="-744,42.6667 256,-957.333 1256,42.6667" style="fill:#000000; stroke:#000000;stroke-width:0"/>
<circle fill="#a64b00" stroke="#a64b00" stroke-width="0" cx="3.96198" cy="144.415" r="21.3333"/>
<circle fill="#a64b00" stroke="#a64b00" stroke-width="0" cx="36.4047" cy="354.888" r="21.3333"/>
<circle fill="#a64b00" stroke="#a64b00" stroke-width="0" cx="472.057" cy="156.709" r="21.3333"/>
<circle fill="#a64b00" stroke="#a64b00" stroke-width="0" cx="530.946" cy="359.952" r="21.3333"/>
<circle fill="#a64b00" stroke="#a64b00" stroke-width="0" cx="399.004" cy="235.017" r="21.3333"/>
</svg>
