<?xml version="1.0" encoding="utf-8"?> <!-- Generator: Adobe Illustrator 13.0.0, SVG Export Plug-In . SVG Version: 6.00 Build 14948)  --> <svg version="1.2" baseProfile="tiny" id="Layer_1" xmlns="http://www.w3.org/2000/svg" xmlns:xlink="http://www.w3.org/1999/xlink" x="0px" y="0px" width="512px" height="512px" viewBox="0 0 512 512" xml:space="preserve">
<polygon points="0,0 512,0 512,512 0,512" style="fill:#ffffff; stroke:#000000;stroke-width:0"/>
<polygon points="-159.399,430.488 -194.315,405.966 -69.8668,228.765 -34.9507,253.286" style="fill:#006363; stroke:#000000;stroke-width:0"/>
<circle fill="#006363" stroke="#006363" stroke-width="0" cx="-176.857" cy="418.227" r="21.3333"/>
<circle fill="#006363" stroke="#006363" stroke-width="0" cx="-52.4087" cy="241.025" r="21.3333"/>
<polygon points="578.59,243.9 610.534,215.616 753.874,377.502 721.93,405.786" style="fill:#006363; stroke:#000000;stroke-width:0"/>
<circle fill="#006363" stroke="#006363" stroke-width="0" cx="594.562" cy="229.758" r="21.3333"/>
<circle fill="#006363" stroke="#006363" stroke-width="0" cx="737.902" cy="391.644" r="21.3333"/>
<polygon points="1256,469.333 256,1469.33 -744,469.333" style="fill:#000000; stroke:#000000;stroke-width:0"/>
<polygon points="-744,42.6667 256,-957.333 1256,42.6667" style="fill:#000000; stroke:#000000;stroke-width:0"/>
<circle fill="#a64b00" stroke="#a64b00" stroke-width="0" cx="-176.857" cy="418.227" r="21.3333"/>
<circle fill="#a64b00" stroke="#a64b00" stroke-width="0" cx="-52.4087" cy="241.025" r="21.3333"/>
<circle fill="#a64b00" stroke="#a64b00" stroke-width="0" cx="594.562" cy="229.758" r="21.3333"/>
<circle fill="#a64b00" stroke="#a64b00" stroke-width="0" cx="737.902" cy="391.644" r="21.3333"/>
<circle fill="#a64b00" stroke="#a64b00" stroke-width="0" cx="261.611" cy="230.401" r="21.3333"/>
</svg>
