<?xml version="1.0" encoding="utf-8"?> <!-- Generator: Adobe Illustrator 13.0.0, SVG Export Plug-In . SVG Version: 6.00 Build 14948)  --> <svg version="1.2" baseProfile="tiny" id="Layer_1" xmlns="http://www.w3.org/2000/svg" xmlns:xlink="http://www.w3.org/1999/xlink" x="0px" y="0px" width="512px" height="512px" viewBox="0 0 512 512" xml:space="preserve">
<polygon points="0,0 512,0 512,512 0,512" style="fill:#ffffff; stroke:#000000;stroke-width:0"/>
<polygon points="-104.499,50.5639 -94.1686,91.9611 -290.562,140.969 -300.892,99.5717" style="fill:#006363; stroke:#000000;stroke-width:0"/>
<circle fill="#006363" stroke="#006363" stroke-width="0" cx="-99.3337" cy="71.2625" r="21.3333"/>
<circle fill="#006363" stroke="#006363" stroke-width="0" cx="-295.727" cy="120.27" r="21.3333"/>
<polygon points="745.524,340.85 705.959,324.881 788.325,120.796 827.891,136.765" style="fill:#006363; stroke:#000000;stroke-width:0"/>
<circle fill="#006363" stroke="#006363" stroke-width="0" cx="725.741" cy="332.866" r="21.3333"/>
<circle fill="#006363" stroke="#006363" stroke-width="0" cx="808.108" cy="128.78" r="21.3333"/>
<polygon points="1256,469.333 256,1469.33 -744,469.333" style="fill:#000000; stroke:#000000;stroke-width:0"/>
<polygon points="-744,42.6667 256,-957.333 1256,42.6667" style="fill:#000000; stroke:#000000;stroke-width:0"/>
<circle fill="#a64b00" stroke="#a64b00" stroke-width="0" cx="-99.3337" cy="71.2625" r="21.3333"/>
<circle fill="#a64b00" stroke="#a64b00" stroke-width="0" cx="-295.727" cy="120.27" r="21.3333"/>
<circle fill="#a64b00" stroke="#a64b00" stroke-width="0" cx="725.741" cy="332.866" r="21.3333"/>
<circle fill="#a64b00" stroke="#a64b00" stroke-width="0" cx="808.108" cy="128.78" r="21.3333"/>
<circle fill="#a64b00" stroke="#a64b00" stroke-width="0" cx="73.1034" cy="115.915" r="21.3333"/>
</svg>
