<?xml version="1.0" encoding="utf-8"?> <!-- Generator: Adobe Illustrator 13.0.0, SVG Export Plug-In . SVG Version: 6.00 Build 14948)  --> <svg version="1.2" baseProfile="tiny" id="Layer_1" xmlns="http://www.w3.org/2000/svg" xmlns:xlink="http://www.w3.org/1999/xlink" x="0px" y="0px" width="512px" height="512px" viewBox="0 0 512 512" xml:space="preserve">
<polygon points="0,0 512,0 512,512 0,512" style="fill:#ffffff; stroke:#000000;stroke-width:0"/>
<polygon points="-123.538,123.697 -106.555,84.5564 89.448,169.605 72.4642,208.746" style="fill:#006363; stroke:#000000;stroke-width:0"/>
<circle fill="#006363" stroke="#006363" stroke-width="0" cx="-115.046" cy="104.127" r="21.3333"/>
<circle fill="#006363" stroke="#006363" stroke-width="0" cx="80.9561" cy="189.176" r="21.3333"/>
<polygon points="460.018,248.404 442.454,209.52 636.633,121.808 654.197,160.692" style="fill:#006363; stroke:#000000;stroke-width:0"/>
<circle fill="#006363" stroke="#006363" stroke-width="0" cx="451.236" cy="228.962" r="21.3333"/>
<circle fill="#006363" stroke="#006363" stroke-width="0" cx="645.415" cy="141.25" r="21.3333"/>
<polygon points="1256,469.333 256,1469.33 -744,469.333" style="fill:#000000; stroke:#000000;stroke-width:0"/>
<polygon points="-744,42.6667 256,-957.333 1256,42.6667" style="fill:#000000; stroke:#000000;stroke-width:0"/>
<circle fill="#a64b00" stroke="#a64b00" stroke-width="0" cx="-115.046" cy="104.127" r="21.3333"/>
<circle fill="#a64b00" stroke="#a64b00" stroke-width="0" cx="80.9561" cy="189.176" r="21.3333"/>
<circle fill="#a64b00" stroke="#a64b00" stroke-width="0" cx="451.236" cy="228.962" r="21.3333"/>
<circle fill="#a64b00" stroke="#a64b00" stroke-width="0" cx="645.415" cy="141.25" r="21.3333"/>
<circle fill="#a64b00" stroke="#a64b00" stroke-width="0" cx="357.274" cy="114.251" r="21.3333"/>
</svg>
