<?xml version="1.0" encoding="utf-8"?> <!-- Generator: Adobe Illustrator 13.0.0, SVG Export Plug-In . SVG Version: 6.00 Build 14948)  --> <svg version="1.2" baseProfile="tiny" id="Layer_1" xmlns="http://www.w3.org/2000/svg" xmlns:xlink="http://www.w3.org/1999/xlink" x="0px" y="0px" width="512px" height="512px" viewBox="0 0 512 512" xml:space="preserve">
<polygon points="0,0 512,0 512,512 0,512" style="fill:#ffffff; stroke:#000000;stroke-width:0"/>
<polygon points="-413.692,90.0242 -405.433,48.1645 -194.239,89.8339 -202.498,131.694" style="fill:#006363; stroke:#000000;stroke-width:0"/>
<circle fill="#006363" stroke="#006363" stroke-width="0" cx="-409.562" cy="69.0944" r="21.3333"/>
<circle fill="#006363" stroke="#006363" stroke-width="0" cx="-198.368" cy="110.764" r="21.3333"/>
<polygon points="872.244,225.072 914.902,224.208 919.074,430.179 876.416,431.043" style="fill:#006363; stroke:#000000;stroke-width:0"/>
<circle fill="#006363" stroke="#006363" stroke-width="0" cx="893.573" cy="224.64" r="21.3333"/>
<circle fill="#006363" stroke="#006363" stroke-width="0" cx="897.745" cy="430.611" r="21.3333"/>
<polygon points="1256,469.333 256,1469.33 -744,469.333" style="fill:#000000; stroke:#000000;stroke-width:0"/>
<polygon points="-744,42.6667 256,-957.333 1256,42.6667" style="fill:#000000; stroke:#000000;stroke-width:0"/>
<circle fill="#a64b00" stroke="#a64b00" stroke-width="0" cx="-409.562" cy="69.0944" r="21.3333"/>
<circle fill="#a64b00" stroke="#a64b00" stroke-width="0" cx="-198.368" cy="110.764" r="21.3333"/>
<circle fill="#a64b00" stroke="#a64b00" stroke-width="0" cx="893.573" cy="224.64" r="21.3333"/>
<circle fill="#a64b00" stroke="#a64b00" stroke-width="0" cx="897.745" cy="430.611" r="21.3333"/>
<circle fill="#a64b00" stroke="#a64b00" stroke-width="0" cx="-77.3638" cy="149.639" r="21.3333"/>
</svg>
