<?xml version="1.0" encoding="utf-8"?> <!-- Generator: Adobe Illustrator 13.0.0, SVG Export Plug-In . SVG Version: 6.00 Build 14948)  --> <svg version="1.2" baseProfile="tiny" id="Layer_1" xmlns="http://www.w3.org/2000/svg" xmlns:xlink="http://www.w3.org/1999/xlink" x="0px" y="0px" width="512px" height="512px" viewBox="0 0 512 512" xml:space="preserve">
<polygon points="0,0 512,0 512,512 0,512" style="fill:#ffffff; stroke:#000000;stroke-width:0"/>
<polygon points="-104.301,51.5705 -94.5494,93.1079 -291.285,139.293 -301.036,97.7551" style="fill:#006363; stroke:#000000;stroke-width:0"/>
<circle fill="#006363" stroke="#006363" stroke-width="0" cx="-99.425" cy="72.3392" r="21.3333"/>
<circle fill="#006363" stroke="#006363" stroke-width="0" cx="-296.16" cy="118.524" r="21.3333"/>
<polygon points="745.938,340.878 706.408,324.821 788.549,122.604 828.079,138.661" style="fill:#006363; stroke:#000000;stroke-width:0"/>
<circle fill="#006363" stroke="#006363" stroke-width="0" cx="726.173" cy="332.85" r="21.3333"/>
<circle fill="#006363" stroke="#006363" stroke-width="0" cx="808.314" cy="130.633" r="21.3333"/>
<polygon points="1256,469.333 256,1469.33 -744,469.333" style="fill:#000000; stroke:#000000;stroke-width:0"/>
<polygon points="-744,42.6667 256,-957.333 1256,42.6667" style="fill:#000000; stroke:#000000;stroke-width:0"/>
<circle fill="#a64b00" stroke="#a64b00" stroke-width="0" cx="-99.425" cy="72.3392" r="21.3333"/>
<circle fill="#a64b00" stroke="#a64b00" stroke-width="0" cx="-296.16" cy="118.524" r="21.3333"/>
<circle fill="#a64b00" stroke="#a64b00" stroke-width="0" cx="726.173" cy="332.85" r="21.3333"/>
<circle fill="#a64b00" stroke="#a64b00" stroke-width="0" cx="808.314" cy="130.633" r="21.3333"/>
<circle fill="#a64b00" stroke="#a64b00" stroke-width="0" cx="72.5069" cy="125.455" r="21.3333"/>
</svg>
