<?xml version="1.0" encoding="utf-8"?> <!-- Generator: Adobe Illustrator 13.0.0, SVG Export Plug-In . SVG Version: 6.00 Build 14948)  --> <svg version="1.2" baseProfile="tiny" id="Layer_1" xmlns="http://www.w3.org/2000/svg" xmlns:xlink="http://www.w3.org/1999/xlink" x="0px" y="0px" width="512px" height="512px" viewBox="0 0 512 512" xml:space="preserve">
<polygon points="0,0 512,0 512,512 0,512" style="fill:#ffffff; stroke:#000000;stroke-width:0"/>
<polygon points="-102.8,244.834 -61.0382,236.091 -17.8607,442.335 -59.622,451.078" style="fill:#006363; stroke:#000000;stroke-width:0"/>
<circle fill="#006363" stroke="#006363" stroke-width="0" cx="-81.9189" cy="240.463" r="21.3333"/>
<circle fill="#006363" stroke="#006363" stroke-width="0" cx="-38.7414" cy="446.707" r="21.3333"/>
<polygon points="704.166,272.446 683.797,309.937 496.377,208.11 516.746,170.619" style="fill:#006363; stroke:#000000;stroke-width:0"/>
<circle fill="#006363" stroke="#006363" stroke-width="0" cx="693.981" cy="291.191" r="21.3333"/>
<circle fill="#006363" stroke="#006363" stroke-width="0" cx="506.561" cy="189.365" r="21.3333"/>
<polygon points="1256,469.333 256,1469.33 -744,469.333" style="fill:#000000; stroke:#000000;stroke-width:0"/>
<polygon points="-744,42.6667 256,-957.333 1256,42.6667" style="fill:#000000; stroke:#000000;stroke-width:0"/>
<circle fill="#a64b00" stroke="#a64b00" stroke-width="0" cx="-81.9189" cy="240.463" r="21.3333"/>
<circle fill="#a64b00" stroke="#a64b00" stroke-width="0" cx="-38.7414" cy="446.707" r="21.3333"/>
<circle fill="#a64b00" stroke="#a64b00" stroke-width="0" cx="693.981" cy="291.191" r="21.3333"/>
<circle fill="#a64b00" stroke="#a64b00" stroke-width="0" cx="506.561" cy="189.365" r="21.3333"/>
<circle fill="#a64b00" stroke="#a64b00" stroke-width="0" cx="385.095" cy="297.185" r="21.3333"/>
</svg>
