<?xml version="1.0" encoding="utf-8"?> <!-- Generator: Adobe Illustrator 13.0.0, SVG Export Plug-In . SVG Version: 6.00 Build 14948)  --> <svg version="1.2" baseProfile="tiny" id="Layer_1" xmlns="http://www.w3.org/2000/svg" xmlns:xlink="http://www.w3.org/1999/xlink" x="0px" y="0px" width="512px" height="512px" viewBox="0 0 512 512" xml:space="preserve">
<polygon points="0,0 512,0 512,512 0,512" style="fill:#ffffff; stroke:#000000;stroke-width:0"/>
<polygon points="-387.5,295.123 -413.831,261.551 -247.22,130.873 -220.889,164.445" style="fill:#006363; stroke:#000000;stroke-width:0"/>
<circle fill="#006363" stroke="#006363" stroke-width="0" cx="-400.666" cy="278.337" r="21.3333"/>
<circle fill="#006363" stroke="#006363" stroke-width="0" cx="-234.054" cy="147.659" r="21.3333"/>
<polygon points="926.861,216.384 966.634,231.827 891.224,426.045 851.45,410.602" style="fill:#006363; stroke:#000000;stroke-width:0"/>
<circle fill="#006363" stroke="#006363" stroke-width="0" cx="946.748" cy="224.106" r="21.3333"/>
<circle fill="#006363" stroke="#006363" stroke-width="0" cx="871.337" cy="418.324" r="21.3333"/>
<polygon points="1256,469.333 256,1469.33 -744,469.333" style="fill:#000000; stroke:#000000;stroke-width:0"/>
<polygon points="-744,42.6667 256,-957.333 1256,42.6667" style="fill:#000000; stroke:#000000;stroke-width:0"/>
<circle fill="#a64b00" stroke="#a64b00" stroke-width="0" cx="-400.666" cy="278.337" r="21.3333"/>
<circle fill="#a64b00" stroke="#a64b00" stroke-width="0" cx="-234.054" cy="147.659" r="21.3333"/>
<circle fill="#a64b00" stroke="#a64b00" stroke-width="0" cx="946.748" cy="224.106" r="21.3333"/>
<circle fill="#a64b00" stroke="#a64b00" stroke-width="0" cx="871.337" cy="418.324" r="21.3333"/>
<circle fill="#a64b00" stroke="#a64b00" stroke-width="0" cx="372.894" cy="226.514" r="21.3333"/>
</svg>
