<?xml version="1.0" encoding="utf-8"?> <!-- Generator: Adobe Illustrator 13.0.0, SVG Export Plug-In . SVG Version: 6.00 Build 14948)  --> <svg version="1.2" baseProfile="tiny" id="Layer_1" xmlns="http://www.w3.org/2000/svg" xmlns:xlink="http://www.w3.org/1999/xlink" x="0px" y="0px" width="512px" height="512px" viewBox="0 0 512 512" xml:space="preserve">
<polygon points="0,0 512,0 512,512 0,512" style="fill:#ffffff; stroke:#000000;stroke-width:0"/>
<polygon points="-156.848,452.532 -191.702,427.923 -69.27,254.522 -34.4158,279.132" style="fill:#006363; stroke:#000000;stroke-width:0"/>
<circle fill="#006363" stroke="#006363" stroke-width="0" cx="-174.275" cy="440.228" r="21.3333"/>
<circle fill="#006363" stroke="#006363" stroke-width="0" cx="-51.8429" cy="266.827" r="21.3333"/>
<polygon points="583.951,237.085 618.08,211.479 744.689,380.235 710.559,405.84" style="fill:#006363; stroke:#000000;stroke-width:0"/>
<circle fill="#006363" stroke="#006363" stroke-width="0" cx="601.015" cy="224.282" r="21.3333"/>
<circle fill="#006363" stroke="#006363" stroke-width="0" cx="727.624" cy="393.038" r="21.3333"/>
<polygon points="1256,469.333 256,1469.33 -744,469.333" style="fill:#000000; stroke:#000000;stroke-width:0"/>
<polygon points="-744,42.6667 256,-957.333 1256,42.6667" style="fill:#000000; stroke:#000000;stroke-width:0"/>
<circle fill="#a64b00" stroke="#a64b00" stroke-width="0" cx="-174.275" cy="440.228" r="21.3333"/>
<circle fill="#a64b00" stroke="#a64b00" stroke-width="0" cx="-51.8429" cy="266.827" r="21.3333"/>
<circle fill="#a64b00" stroke="#a64b00" stroke-width="0" cx="601.015" cy="224.282" r="21.3333"/>
<circle fill="#a64b00" stroke="#a64b00" stroke-width="0" cx="727.624" cy="393.038" r="21.3333"/>
<circle fill="#a64b00" stroke="#a64b00" stroke-width="0" cx="265.19" cy="173.158" r="21.3333"/>
</svg>
