<?xml version="1.0" encoding="utf-8"?> <!-- Generator: Adobe Illustrator 13.0.0, SVG Export Plug-In . SVG Version: 6.00 Build 14948)  --> <svg version="1.2" baseProfile="tiny" id="Layer_1" xmlns="http://www.w3.org/2000/svg" xmlns:xlink="http://www.w3.org/1999/xlink" x="0px" y="0px" width="512px" height="512px" viewBox="0 0 512 512" xml:space="preserve">
<polygon points="0,0 512,0 512,512 0,512" style="fill:#ffffff; stroke:#000000;stroke-width:0"/>
<polygon points="-66.6827,218.644 -28.0661,200.5 65.3114,399.24 26.6948,417.384" style="fill:#006363; stroke:#000000;stroke-width:0"/>
<circle fill="#006363" stroke="#006363" stroke-width="0" cx="-47.3744" cy="209.572" r="21.3333"/>
<circle fill="#006363" stroke="#006363" stroke-width="0" cx="46.0031" cy="408.312" r="21.3333"/>
<polygon points="424.152,132.434 444.877,95.1389 634.188,200.336 613.464,237.631" style="fill:#006363; stroke:#000000;stroke-width:0"/>
<circle fill="#006363" stroke="#006363" stroke-width="0" cx="434.515" cy="113.787" r="21.3333"/>
<circle fill="#006363" stroke="#006363" stroke-width="0" cx="623.826" cy="218.983" r="21.3333"/>
<polygon points="1256,469.333 256,1469.33 -744,469.333" style="fill:#000000; stroke:#000000;stroke-width:0"/>
<polygon points="-744,42.6667 256,-957.333 1256,42.6667" style="fill:#000000; stroke:#000000;stroke-width:0"/>
<circle fill="#a64b00" stroke="#a64b00" stroke-width="0" cx="-47.3744" cy="209.572" r="21.3333"/>
<circle fill="#a64b00" stroke="#a64b00" stroke-width="0" cx="46.0031" cy="408.312" r="21.3333"/>
<circle fill="#a64b00" stroke="#a64b00" stroke-width="0" cx="434.515" cy="113.787" r="21.3333"/>
<circle fill="#a64b00" stroke="#a64b00" stroke-width="0" cx="623.826" cy="218.983" r="21.3333"/>
<circle fill="#a64b00" stroke="#a64b00" stroke-width="0" cx="148.41" cy="219.496" r="21.3333"/>
</svg>
