<?xml version="1.0" encoding="utf-8"?> <!-- Generator: Adobe Illustrator 13.0.0, SVG Export Plug-In . SVG Version: 6.00 Build 14948)  --> <svg version="1.2" baseProfile="tiny" id="Layer_1" xmlns="http://www.w3.org/2000/svg" xmlns:xlink="http://www.w3.org/1999/xlink" x="0px" y="0px" width="512px" height="512px" viewBox="0 0 512 512" xml:space="preserve">
<polygon points="0,0 512,0 512,512 0,512" style="fill:#ffffff; stroke:#000000;stroke-width:0"/>
<polygon points="-115.726,168.353 -113.873,210.98 -337.048,220.683 -338.901,178.056" style="fill:#006363; stroke:#000000;stroke-width:0"/>
<circle fill="#006363" stroke="#006363" stroke-width="0" cx="-114.799" cy="189.667" r="21.3333"/>
<circle fill="#006363" stroke="#006363" stroke-width="0" cx="-337.974" cy="199.369" r="21.3333"/>
<polygon points="756.031,428.413 721.929,402.77 847.922,235.213 882.023,260.855" style="fill:#006363; stroke:#000000;stroke-width:0"/>
<circle fill="#006363" stroke="#006363" stroke-width="0" cx="738.98" cy="415.591" r="21.3333"/>
<circle fill="#006363" stroke="#006363" stroke-width="0" cx="864.973" cy="248.034" r="21.3333"/>
<polygon points="1256,469.333 256,1469.33 -744,469.333" style="fill:#000000; stroke:#000000;stroke-width:0"/>
<polygon points="-744,42.6667 256,-957.333 1256,42.6667" style="fill:#000000; stroke:#000000;stroke-width:0"/>
<circle fill="#a64b00" stroke="#a64b00" stroke-width="0" cx="-114.799" cy="189.667" r="21.3333"/>
<circle fill="#a64b00" stroke="#a64b00" stroke-width="0" cx="-337.974" cy="199.369" r="21.3333"/>
<circle fill="#a64b00" stroke="#a64b00" stroke-width="0" cx="738.98" cy="415.591" r="21.3333"/>
<circle fill="#a64b00" stroke="#a64b00" stroke-width="0" cx="864.973" cy="248.034" r="21.3333"/>
<circle fill="#a64b00" stroke="#a64b00" stroke-width="0" cx="7.48384" cy="383.049" r="21.3333"/>
</svg>
