<?xml version="1.0" encoding="utf-8"?> <!-- Generator: Adobe Illustrator 13.0.0, SVG Export Plug-In . SVG Version: 6.00 Build 14948)  --> <svg version="1.2" baseProfile="tiny" id="Layer_1" xmlns="http://www.w3.org/2000/svg" xmlns:xlink="http://www.w3.org/1999/xlink" x="0px" y="0px" width="512px" height="512px" viewBox="0 0 512 512" xml:space="preserve">
<polygon points="0,0 512,0 512,512 0,512" style="fill:#ffffff; stroke:#000000;stroke-width:0"/>
<polygon points="-113.758,229.819 -77.8302,252.832 -190.011,427.963 -225.938,404.949" style="fill:#006363; stroke:#000000;stroke-width:0"/>
<circle fill="#006363" stroke="#006363" stroke-width="0" cx="-95.7942" cy="241.325" r="21.3333"/>
<circle fill="#006363" stroke="#006363" stroke-width="0" cx="-207.974" cy="416.456" r="21.3333"/>
<polygon points="673.846,450.598 637.516,428.226 749.113,247.002 785.444,269.374" style="fill:#006363; stroke:#000000;stroke-width:0"/>
<circle fill="#006363" stroke="#006363" stroke-width="0" cx="655.681" cy="439.412" r="21.3333"/>
<circle fill="#006363" stroke="#006363" stroke-width="0" cx="767.279" cy="258.188" r="21.3333"/>
<polygon points="1256,469.333 256,1469.33 -744,469.333" style="fill:#000000; stroke:#000000;stroke-width:0"/>
<polygon points="-744,42.6667 256,-957.333 1256,42.6667" style="fill:#000000; stroke:#000000;stroke-width:0"/>
<circle fill="#a64b00" stroke="#a64b00" stroke-width="0" cx="-95.7942" cy="241.325" r="21.3333"/>
<circle fill="#a64b00" stroke="#a64b00" stroke-width="0" cx="-207.974" cy="416.456" r="21.3333"/>
<circle fill="#a64b00" stroke="#a64b00" stroke-width="0" cx="655.681" cy="439.412" r="21.3333"/>
<circle fill="#a64b00" stroke="#a64b00" stroke-width="0" cx="767.279" cy="258.188" r="21.3333"/>
<circle fill="#a64b00" stroke="#a64b00" stroke-width="0" cx="176.902" cy="96.8337" r="21.3333"/>
</svg>
