<?xml version="1.0" encoding="utf-8"?> <!-- Generator: Adobe Illustrator 13.0.0, SVG Export Plug-In . SVG Version: 6.00 Build 14948)  --> <svg version="1.2" baseProfile="tiny" id="Layer_1" xmlns="http://www.w3.org/2000/svg" xmlns:xlink="http://www.w3.org/1999/xlink" x="0px" y="0px" width="512px" height="512px" viewBox="0 0 512 512" xml:space="preserve">
<polygon points="0,0 512,0 512,512 0,512" style="fill:#ffffff; stroke:#000000;stroke-width:0"/>
<polygon points="-409.592,196.916 -419.462,155.406 -211.734,106.011 -201.863,147.521" style="fill:#006363; stroke:#000000;stroke-width:0"/>
<circle fill="#006363" stroke="#006363" stroke-width="0" cx="-414.527" cy="176.161" r="21.3333"/>
<circle fill="#006363" stroke="#006363" stroke-width="0" cx="-206.798" cy="126.766" r="21.3333"/>
<polygon points="900.603,212.123 942.614,219.574 904.098,436.718 862.087,429.266" style="fill:#006363; stroke:#000000;stroke-width:0"/>
<circle fill="#006363" stroke="#006363" stroke-width="0" cx="921.609" cy="215.848" r="21.3333"/>
<circle fill="#006363" stroke="#006363" stroke-width="0" cx="883.093" cy="432.992" r="21.3333"/>
<polygon points="1256,469.333 256,1469.33 -744,469.333" style="fill:#000000; stroke:#000000;stroke-width:0"/>
<polygon points="-744,42.6667 256,-957.333 1256,42.6667" style="fill:#000000; stroke:#000000;stroke-width:0"/>
<circle fill="#a64b00" stroke="#a64b00" stroke-width="0" cx="-414.527" cy="176.161" r="21.3333"/>
<circle fill="#a64b00" stroke="#a64b00" stroke-width="0" cx="-206.798" cy="126.766" r="21.3333"/>
<circle fill="#a64b00" stroke="#a64b00" stroke-width="0" cx="921.609" cy="215.848" r="21.3333"/>
<circle fill="#a64b00" stroke="#a64b00" stroke-width="0" cx="883.093" cy="432.992" r="21.3333"/>
<circle fill="#a64b00" stroke="#a64b00" stroke-width="0" cx="147.765" cy="188.077" r="21.3333"/>
</svg>
