<?xml version="1.0" encoding="utf-8"?> <!-- Generator: Adobe Illustrator 13.0.0, SVG Export Plug-In . SVG Version: 6.00 Build 14948)  --> <svg version="1.2" baseProfile="tiny" id="Layer_1" xmlns="http://www.w3.org/2000/svg" xmlns:xlink="http://www.w3.org/1999/xlink" x="0px" y="0px" width="512px" height="512px" viewBox="0 0 512 512" xml:space="preserve">
<polygon points="0,0 512,0 512,512 0,512" style="fill:#ffffff; stroke:#000000;stroke-width:0"/>
<polygon points="-135.268,95.699 -127.951,53.6645 88.5861,91.3582 81.269,133.393" style="fill:#006363; stroke:#000000;stroke-width:0"/>
<circle fill="#006363" stroke="#006363" stroke-width="0" cx="-131.61" cy="74.6818" r="21.3333"/>
<circle fill="#006363" stroke="#006363" stroke-width="0" cx="84.9275" cy="112.375" r="21.3333"/>
<polygon points="489.937,281.199 461.107,249.747 620.747,103.418 649.577,134.87" style="fill:#006363; stroke:#000000;stroke-width:0"/>
<circle fill="#006363" stroke="#006363" stroke-width="0" cx="475.522" cy="265.473" r="21.3333"/>
<circle fill="#006363" stroke="#006363" stroke-width="0" cx="635.162" cy="119.144" r="21.3333"/>
<polygon points="1256,469.333 256,1469.33 -744,469.333" style="fill:#000000; stroke:#000000;stroke-width:0"/>
<polygon points="-744,42.6667 256,-957.333 1256,42.6667" style="fill:#000000; stroke:#000000;stroke-width:0"/>
<circle fill="#a64b00" stroke="#a64b00" stroke-width="0" cx="-131.61" cy="74.6818" r="21.3333"/>
<circle fill="#a64b00" stroke="#a64b00" stroke-width="0" cx="84.9275" cy="112.375" r="21.3333"/>
<circle fill="#a64b00" stroke="#a64b00" stroke-width="0" cx="475.522" cy="265.473" r="21.3333"/>
<circle fill="#a64b00" stroke="#a64b00" stroke-width="0" cx="635.162" cy="119.144" r="21.3333"/>
<circle fill="#a64b00" stroke="#a64b00" stroke-width="0" cx="469.207" cy="77.7526" r="21.3333"/>
</svg>
