<?xml version="1.0" encoding="utf-8"?> <!-- Generator: Adobe Illustrator 13.0.0, SVG Export Plug-In . SVG Version: 6.00 Build 14948)  --> <svg version="1.2" baseProfile="tiny" id="Layer_1" xmlns="http://www.w3.org/2000/svg" xmlns:xlink="http://www.w3.org/1999/xlink" x="0px" y="0px" width="512px" height="512px" viewBox="0 0 512 512" xml:space="preserve">
<polygon points="0,0 512,0 512,512 0,512" style="fill:#ffffff; stroke:#000000;stroke-width:0"/>
<polygon points="-105.287,131.058 -63.0035,125.356 -34.2608,338.499 -76.5447,344.201" style="fill:#006363; stroke:#000000;stroke-width:0"/>
<circle fill="#006363" stroke="#006363" stroke-width="0" cx="-84.1454" cy="128.207" r="21.3333"/>
<circle fill="#006363" stroke="#006363" stroke-width="0" cx="-55.4028" cy="341.35" r="21.3333"/>
<polygon points="717.405,232.432 716.903,275.096 506.081,272.618 506.582,229.955" style="fill:#006363; stroke:#000000;stroke-width:0"/>
<circle fill="#006363" stroke="#006363" stroke-width="0" cx="717.154" cy="253.764" r="21.3333"/>
<circle fill="#006363" stroke="#006363" stroke-width="0" cx="506.331" cy="251.287" r="21.3333"/>
<polygon points="1256,469.333 256,1469.33 -744,469.333" style="fill:#000000; stroke:#000000;stroke-width:0"/>
<polygon points="-744,42.6667 256,-957.333 1256,42.6667" style="fill:#000000; stroke:#000000;stroke-width:0"/>
<circle fill="#a64b00" stroke="#a64b00" stroke-width="0" cx="-84.1454" cy="128.207" r="21.3333"/>
<circle fill="#a64b00" stroke="#a64b00" stroke-width="0" cx="-55.4028" cy="341.35" r="21.3333"/>
<circle fill="#a64b00" stroke="#a64b00" stroke-width="0" cx="717.154" cy="253.764" r="21.3333"/>
<circle fill="#a64b00" stroke="#a64b00" stroke-width="0" cx="506.331" cy="251.287" r="21.3333"/>
<circle fill="#a64b00" stroke="#a64b00" stroke-width="0" cx="363.619" cy="163.617" r="21.3333"/>
</svg>
