<?xml version="1.0" encoding="utf-8"?> <!-- Generator: Adobe Illustrator 13.0.0, SVG Export Plug-In . SVG Version: 6.00 Build 14948)  --> <svg version="1.2" baseProfile="tiny" id="Layer_1" xmlns="http://www.w3.org/2000/svg" xmlns:xlink="http://www.w3.org/1999/xlink" x="0px" y="0px" width="512px" height="512px" viewBox="0 0 512 512" xml:space="preserve">
<polygon points="0,0 512,0 512,512 0,512" style="fill:#ffffff; stroke:#000000;stroke-width:0"/>
<polygon points="-112.214,148.177 -87.6081,113.32 89.1415,238.09 64.5357,272.947" style="fill:#006363; stroke:#000000;stroke-width:0"/>
<circle fill="#006363" stroke="#006363" stroke-width="0" cx="-99.911" cy="130.749" r="21.3333"/>
<circle fill="#006363" stroke="#006363" stroke-width="0" cx="76.8386" cy="255.518" r="21.3333"/>
<polygon points="439.619,217.171 433.102,175.005 645.858,142.12 652.375,184.286" style="fill:#006363; stroke:#000000;stroke-width:0"/>
<circle fill="#006363" stroke="#006363" stroke-width="0" cx="436.36" cy="196.088" r="21.3333"/>
<circle fill="#006363" stroke="#006363" stroke-width="0" cx="649.117" cy="163.203" r="21.3333"/>
<polygon points="1256,469.333 256,1469.33 -744,469.333" style="fill:#000000; stroke:#000000;stroke-width:0"/>
<polygon points="-744,42.6667 256,-957.333 1256,42.6667" style="fill:#000000; stroke:#000000;stroke-width:0"/>
<circle fill="#a64b00" stroke="#a64b00" stroke-width="0" cx="-99.911" cy="130.749" r="21.3333"/>
<circle fill="#a64b00" stroke="#a64b00" stroke-width="0" cx="76.8386" cy="255.518" r="21.3333"/>
<circle fill="#a64b00" stroke="#a64b00" stroke-width="0" cx="436.36" cy="196.088" r="21.3333"/>
<circle fill="#a64b00" stroke="#a64b00" stroke-width="0" cx="649.117" cy="163.203" r="21.3333"/>
<circle fill="#a64b00" stroke="#a64b00" stroke-width="0" cx="148.862" cy="146.746" r="21.3333"/>
</svg>
