<?xml version="1.0" encoding="utf-8"?> <!-- Generator: Adobe Illustrator 13.0.0, SVG Export Plug-In . SVG Version: 6.00 Build 14948)  --> <svg version="1.2" baseProfile="tiny" id="Layer_1" xmlns="http://www.w3.org/2000/svg" xmlns:xlink="http://www.w3.org/1999/xlink" x="0px" y="0px" width="512px" height="512px" viewBox="0 0 512 512" xml:space="preserve">
<polygon points="0,0 512,0 512,512 0,512" style="fill:#ffffff; stroke:#000000;stroke-width:0"/>
<polygon points="-359.26,246.311 -387.166,214.036 -226.779,75.3627 -198.873,107.638" style="fill:#006363; stroke:#000000;stroke-width:0"/>
<circle fill="#006363" stroke="#006363" stroke-width="0" cx="-373.213" cy="230.173" r="21.3333"/>
<circle fill="#006363" stroke="#006363" stroke-width="0" cx="-212.826" cy="91.5004" r="21.3333"/>
<polygon points="821.047,240.18 860.462,223.844 944.779,427.281 905.364,443.617" style="fill:#006363; stroke:#000000;stroke-width:0"/>
<circle fill="#006363" stroke="#006363" stroke-width="0" cx="840.755" cy="232.012" r="21.3333"/>
<circle fill="#006363" stroke="#006363" stroke-width="0" cx="925.071" cy="435.449" r="21.3333"/>
<polygon points="1256,469.333 256,1469.33 -744,469.333" style="fill:#000000; stroke:#000000;stroke-width:0"/>
<polygon points="-744,42.6667 256,-957.333 1256,42.6667" style="fill:#000000; stroke:#000000;stroke-width:0"/>
<circle fill="#a64b00" stroke="#a64b00" stroke-width="0" cx="-373.213" cy="230.173" r="21.3333"/>
<circle fill="#a64b00" stroke="#a64b00" stroke-width="0" cx="-212.826" cy="91.5004" r="21.3333"/>
<circle fill="#a64b00" stroke="#a64b00" stroke-width="0" cx="840.755" cy="232.012" r="21.3333"/>
<circle fill="#a64b00" stroke="#a64b00" stroke-width="0" cx="925.071" cy="435.449" r="21.3333"/>
<circle fill="#a64b00" stroke="#a64b00" stroke-width="0" cx="-144.038" cy="440.293" r="21.3333"/>
</svg>
