<?xml version="1.0" encoding="utf-8"?> <!-- Generator: Adobe Illustrator 13.0.0, SVG Export Plug-In . SVG Version: 6.00 Build 14948)  --> <svg version="1.2" baseProfile="tiny" id="Layer_1" xmlns="http://www.w3.org/2000/svg" xmlns:xlink="http://www.w3.org/1999/xlink" x="0px" y="0px" width="512px" height="512px" viewBox="0 0 512 512" xml:space="preserve">
<polygon points="0,0 512,0 512,512 0,512" style="fill:#ffffff; stroke:#000000;stroke-width:0"/>
<polygon points="-93.9233,60.59 -90.0482,103.08 -307.433,122.906 -311.308,80.4155" style="fill:#006363; stroke:#000000;stroke-width:0"/>
<circle fill="#006363" stroke="#006363" stroke-width="0" cx="-91.9858" cy="81.8352" r="21.3333"/>
<circle fill="#006363" stroke="#006363" stroke-width="0" cx="-309.371" cy="101.661" r="21.3333"/>
<polygon points="748.602,345.808 709.505,328.725 792.895,137.872 831.992,154.956" style="fill:#006363; stroke:#000000;stroke-width:0"/>
<circle fill="#006363" stroke="#006363" stroke-width="0" cx="729.053" cy="337.266" r="21.3333"/>
<circle fill="#006363" stroke="#006363" stroke-width="0" cx="812.444" cy="146.414" r="21.3333"/>
<polygon points="1256,469.333 256,1469.33 -744,469.333" style="fill:#000000; stroke:#000000;stroke-width:0"/>
<polygon points="-744,42.6667 256,-957.333 1256,42.6667" style="fill:#000000; stroke:#000000;stroke-width:0"/>
<circle fill="#a64b00" stroke="#a64b00" stroke-width="0" cx="-91.9858" cy="81.8352" r="21.3333"/>
<circle fill="#a64b00" stroke="#a64b00" stroke-width="0" cx="-309.371" cy="101.661" r="21.3333"/>
<circle fill="#a64b00" stroke="#a64b00" stroke-width="0" cx="729.053" cy="337.266" r="21.3333"/>
<circle fill="#a64b00" stroke="#a64b00" stroke-width="0" cx="812.444" cy="146.414" r="21.3333"/>
<circle fill="#a64b00" stroke="#a64b00" stroke-width="0" cx="65.9449" cy="230.401" r="21.3333"/>
</svg>
