<?xml version="1.0" encoding="utf-8"?> <!-- Generator: Adobe Illustrator 13.0.0, SVG Export Plug-In . SVG Version: 6.00 Build 14948)  --> <svg version="1.2" baseProfile="tiny" id="Layer_1" xmlns="http://www.w3.org/2000/svg" xmlns:xlink="http://www.w3.org/1999/xlink" x="0px" y="0px" width="512px" height="512px" viewBox="0 0 512 512" xml:space="preserve">
<polygon points="0,0 512,0 512,512 0,512" style="fill:#ffffff; stroke:#000000;stroke-width:0"/>
<polygon points="-154.706,269.462 -140.241,309.602 -344.238,383.115 -358.703,342.975" style="fill:#006363; stroke:#000000;stroke-width:0"/>
<circle fill="#006363" stroke="#006363" stroke-width="0" cx="-147.474" cy="289.532" r="21.3333"/>
<circle fill="#006363" stroke="#006363" stroke-width="0" cx="-351.471" cy="363.045" r="21.3333"/>
<polygon points="736.462,418.111 721.076,378.316 923.572,300.025 938.958,339.821" style="fill:#006363; stroke:#000000;stroke-width:0"/>
<circle fill="#006363" stroke="#006363" stroke-width="0" cx="728.769" cy="398.214" r="21.3333"/>
<circle fill="#006363" stroke="#006363" stroke-width="0" cx="931.265" cy="319.923" r="21.3333"/>
<polygon points="1256,469.333 256,1469.33 -744,469.333" style="fill:#000000; stroke:#000000;stroke-width:0"/>
<polygon points="-744,42.6667 256,-957.333 1256,42.6667" style="fill:#000000; stroke:#000000;stroke-width:0"/>
<circle fill="#a64b00" stroke="#a64b00" stroke-width="0" cx="-147.474" cy="289.532" r="21.3333"/>
<circle fill="#a64b00" stroke="#a64b00" stroke-width="0" cx="-351.471" cy="363.045" r="21.3333"/>
<circle fill="#a64b00" stroke="#a64b00" stroke-width="0" cx="728.769" cy="398.214" r="21.3333"/>
<circle fill="#a64b00" stroke="#a64b00" stroke-width="0" cx="931.265" cy="319.923" r="21.3333"/>
<circle fill="#a64b00" stroke="#a64b00" stroke-width="0" cx="-45.0119" cy="440.293" r="21.3333"/>
</svg>
