<?xml version="1.0" encoding="utf-8"?> <!-- Generator: Adobe Illustrator 13.0.0, SVG Export Plug-In . SVG Version: 6.00 Build 14948)  --> <svg version="1.2" baseProfile="tiny" id="Layer_1" xmlns="http://www.w3.org/2000/svg" xmlns:xlink="http://www.w3.org/1999/xlink" x="0px" y="0px" width="512px" height="512px" viewBox="0 0 512 512" xml:space="preserve">
<polygon points="0,0 512,0 512,512 0,512" style="fill:#ffffff; stroke:#000000;stroke-width:0"/>
<polygon points="-148.582,250.086 -136.489,291.003 -341.443,351.579 -353.537,310.662" style="fill:#006363; stroke:#000000;stroke-width:0"/>
<circle fill="#006363" stroke="#006363" stroke-width="0" cx="-142.535" cy="270.545" r="21.3333"/>
<circle fill="#006363" stroke="#006363" stroke-width="0" cx="-347.49" cy="331.121" r="21.3333"/>
<polygon points="740.834,435.155 719.356,398.288 908.367,288.171 929.845,325.038" style="fill:#006363; stroke:#000000;stroke-width:0"/>
<circle fill="#006363" stroke="#006363" stroke-width="0" cx="730.095" cy="416.721" r="21.3333"/>
<circle fill="#006363" stroke="#006363" stroke-width="0" cx="919.106" cy="306.604" r="21.3333"/>
<polygon points="1256,469.333 256,1469.33 -744,469.333" style="fill:#000000; stroke:#000000;stroke-width:0"/>
<polygon points="-744,42.6667 256,-957.333 1256,42.6667" style="fill:#000000; stroke:#000000;stroke-width:0"/>
<circle fill="#a64b00" stroke="#a64b00" stroke-width="0" cx="-142.535" cy="270.545" r="21.3333"/>
<circle fill="#a64b00" stroke="#a64b00" stroke-width="0" cx="-347.49" cy="331.121" r="21.3333"/>
<circle fill="#a64b00" stroke="#a64b00" stroke-width="0" cx="730.095" cy="416.721" r="21.3333"/>
<circle fill="#a64b00" stroke="#a64b00" stroke-width="0" cx="919.106" cy="306.604" r="21.3333"/>
<circle fill="#a64b00" stroke="#a64b00" stroke-width="0" cx="-34.8706" cy="278.104" r="21.3333"/>
</svg>
