<?xml version="1.0" encoding="utf-8"?> <!-- Generator: Adobe Illustrator 13.0.0, SVG Export Plug-In . SVG Version: 6.00 Build 14948)  --> <svg version="1.2" baseProfile="tiny" id="Layer_1" xmlns="http://www.w3.org/2000/svg" xmlns:xlink="http://www.w3.org/1999/xlink" x="0px" y="0px" width="512px" height="512px" viewBox="0 0 512 512" xml:space="preserve">
<polygon points="0,0 512,0 512,512 0,512" style="fill:#ffffff; stroke:#000000;stroke-width:0"/>
<polygon points="-155.032,254.065 -142.641,294.893 -336.043,353.59 -348.434,312.762" style="fill:#006363; stroke:#000000;stroke-width:0"/>
<circle fill="#006363" stroke="#006363" stroke-width="0" cx="-148.836" cy="274.479" r="21.3333"/>
<circle fill="#006363" stroke="#006363" stroke-width="0" cx="-342.238" cy="333.176" r="21.3333"/>
<polygon points="739.97,433.498 719.141,396.261 910.505,289.217 931.334,326.454" style="fill:#006363; stroke:#000000;stroke-width:0"/>
<circle fill="#006363" stroke="#006363" stroke-width="0" cx="729.556" cy="414.879" r="21.3333"/>
<circle fill="#006363" stroke="#006363" stroke-width="0" cx="920.919" cy="307.836" r="21.3333"/>
<polygon points="1256,469.333 256,1469.33 -744,469.333" style="fill:#000000; stroke:#000000;stroke-width:0"/>
<polygon points="-744,42.6667 256,-957.333 1256,42.6667" style="fill:#000000; stroke:#000000;stroke-width:0"/>
<circle fill="#a64b00" stroke="#a64b00" stroke-width="0" cx="-148.836" cy="274.479" r="21.3333"/>
<circle fill="#a64b00" stroke="#a64b00" stroke-width="0" cx="-342.238" cy="333.176" r="21.3333"/>
<circle fill="#a64b00" stroke="#a64b00" stroke-width="0" cx="729.556" cy="414.879" r="21.3333"/>
<circle fill="#a64b00" stroke="#a64b00" stroke-width="0" cx="920.919" cy="307.836" r="21.3333"/>
<circle fill="#a64b00" stroke="#a64b00" stroke-width="0" cx="-36.0637" cy="297.185" r="21.3333"/>
</svg>
