<?xml version="1.0" encoding="utf-8"?> <!-- Generator: Adobe Illustrator 13.0.0, SVG Export Plug-In . SVG Version: 6.00 Build 14948)  --> <svg version="1.2" baseProfile="tiny" id="Layer_1" xmlns="http://www.w3.org/2000/svg" xmlns:xlink="http://www.w3.org/1999/xlink" x="0px" y="0px" width="512px" height="512px" viewBox="0 0 512 512" xml:space="preserve">
<polygon points="0,0 512,0 512,512 0,512" style="fill:#ffffff; stroke:#000000;stroke-width:0"/>
<polygon points="-107.256,43.0804 -92.2934,83.0375 -283.083,154.48 -298.045,114.523" style="fill:#006363; stroke:#000000;stroke-width:0"/>
<circle fill="#006363" stroke="#006363" stroke-width="0" cx="-99.7745" cy="63.059" r="21.3333"/>
<circle fill="#006363" stroke="#006363" stroke-width="0" cx="-290.564" cy="134.502" r="21.3333"/>
<polygon points="745.027,332.961 705.13,317.84 783.086,112.159 822.984,127.281" style="fill:#006363; stroke:#000000;stroke-width:0"/>
<circle fill="#006363" stroke="#006363" stroke-width="0" cx="725.079" cy="325.4" r="21.3333"/>
<circle fill="#006363" stroke="#006363" stroke-width="0" cx="803.035" cy="119.72" r="21.3333"/>
<polygon points="1256,469.333 256,1469.33 -744,469.333" style="fill:#000000; stroke:#000000;stroke-width:0"/>
<polygon points="-744,42.6667 256,-957.333 1256,42.6667" style="fill:#000000; stroke:#000000;stroke-width:0"/>
<circle fill="#a64b00" stroke="#a64b00" stroke-width="0" cx="-99.7745" cy="63.059" r="21.3333"/>
<circle fill="#a64b00" stroke="#a64b00" stroke-width="0" cx="-290.564" cy="134.502" r="21.3333"/>
<circle fill="#a64b00" stroke="#a64b00" stroke-width="0" cx="725.079" cy="325.4" r="21.3333"/>
<circle fill="#a64b00" stroke="#a64b00" stroke-width="0" cx="803.035" cy="119.72" r="21.3333"/>
<circle fill="#a64b00" stroke="#a64b00" stroke-width="0" cx="78.4723" cy="87.2932" r="21.3333"/>
</svg>
