<?xml version="1.0" encoding="utf-8"?> <!-- Generator: Adobe Illustrator 13.0.0, SVG Export Plug-In . SVG Version: 6.00 Build 14948)  --> <svg version="1.2" baseProfile="tiny" id="Layer_1" xmlns="http://www.w3.org/2000/svg" xmlns:xlink="http://www.w3.org/1999/xlink" x="0px" y="0px" width="512px" height="512px" viewBox="0 0 512 512" xml:space="preserve">
<polygon points="0,0 512,0 512,512 0,512" style="fill:#ffffff; stroke:#000000;stroke-width:0"/>
<polygon points="-134.539,95.6016 -133.495,52.9477 77.3636,58.1087 76.3196,100.763" style="fill:#006363; stroke:#000000;stroke-width:0"/>
<circle fill="#006363" stroke="#006363" stroke-width="0" cx="-134.017" cy="74.2747" r="21.3333"/>
<circle fill="#006363" stroke="#006363" stroke-width="0" cx="76.8416" cy="79.4356" r="21.3333"/>
<polygon points="523.58,300.22 487.417,277.577 599.85,98.0057 636.013,120.648" style="fill:#006363; stroke:#000000;stroke-width:0"/>
<circle fill="#006363" stroke="#006363" stroke-width="0" cx="505.498" cy="288.898" r="21.3333"/>
<circle fill="#006363" stroke="#006363" stroke-width="0" cx="617.932" cy="109.327" r="21.3333"/>
<polygon points="1256,469.333 256,1469.33 -744,469.333" style="fill:#000000; stroke:#000000;stroke-width:0"/>
<polygon points="-744,42.6667 256,-957.333 1256,42.6667" style="fill:#000000; stroke:#000000;stroke-width:0"/>
<circle fill="#a64b00" stroke="#a64b00" stroke-width="0" cx="-134.017" cy="74.2747" r="21.3333"/>
<circle fill="#a64b00" stroke="#a64b00" stroke-width="0" cx="76.8416" cy="79.4356" r="21.3333"/>
<circle fill="#a64b00" stroke="#a64b00" stroke-width="0" cx="505.498" cy="288.898" r="21.3333"/>
<circle fill="#a64b00" stroke="#a64b00" stroke-width="0" cx="617.932" cy="109.327" r="21.3333"/>
<circle fill="#a64b00" stroke="#a64b00" stroke-width="0" cx="457.276" cy="230.401" r="21.3333"/>
</svg>
