<?xml version="1.0" encoding="utf-8"?> <!-- Generator: Adobe Illustrator 13.0.0, SVG Export Plug-In . SVG Version: 6.00 Build 14948)  --> <svg version="1.2" baseProfile="tiny" id="Layer_1" xmlns="http://www.w3.org/2000/svg" xmlns:xlink="http://www.w3.org/1999/xlink" x="0px" y="0px" width="512px" height="512px" viewBox="0 0 512 512" xml:space="preserve">
<polygon points="0,0 512,0 512,512 0,512" style="fill:#ffffff; stroke:#000000;stroke-width:0"/>
<polygon points="-42.0541,226.025 -0.73197,215.398 53.9266,427.939 12.6045,438.566" style="fill:#006363; stroke:#000000;stroke-width:0"/>
<circle fill="#006363" stroke="#006363" stroke-width="0" cx="-21.393" cy="220.712" r="21.3333"/>
<circle fill="#006363" stroke="#006363" stroke-width="0" cx="33.2655" cy="433.252" r="21.3333"/>
<polygon points="439.47,84.1033 473.797,58.7638 601.311,231.506 566.984,256.845" style="fill:#006363; stroke:#000000;stroke-width:0"/>
<circle fill="#006363" stroke="#006363" stroke-width="0" cx="456.634" cy="71.4336" r="21.3333"/>
<circle fill="#006363" stroke="#006363" stroke-width="0" cx="584.148" cy="244.176" r="21.3333"/>
<polygon points="1256,469.333 256,1469.33 -744,469.333" style="fill:#000000; stroke:#000000;stroke-width:0"/>
<polygon points="-744,42.6667 256,-957.333 1256,42.6667" style="fill:#000000; stroke:#000000;stroke-width:0"/>
<circle fill="#a64b00" stroke="#a64b00" stroke-width="0" cx="-21.393" cy="220.712" r="21.3333"/>
<circle fill="#a64b00" stroke="#a64b00" stroke-width="0" cx="33.2655" cy="433.252" r="21.3333"/>
<circle fill="#a64b00" stroke="#a64b00" stroke-width="0" cx="456.634" cy="71.4336" r="21.3333"/>
<circle fill="#a64b00" stroke="#a64b00" stroke-width="0" cx="584.148" cy="244.176" r="21.3333"/>
<circle fill="#a64b00" stroke="#a64b00" stroke-width="0" cx="227.926" cy="429.03" r="21.3333"/>
</svg>
