<?xml version="1.0" encoding="utf-8"?> <!-- Generator: Adobe Illustrator 13.0.0, SVG Export Plug-In . SVG Version: 6.00 Build 14948)  --> <svg version="1.2" baseProfile="tiny" id="Layer_1" xmlns="http://www.w3.org/2000/svg" xmlns:xlink="http://www.w3.org/1999/xlink" x="0px" y="0px" width="512px" height="512px" viewBox="0 0 512 512" xml:space="preserve">
<polygon points="0,0 512,0 512,512 0,512" style="fill:#ffffff; stroke:#000000;stroke-width:0"/>
<polygon points="-391.552,191.244 -406.604,151.321 -201.832,74.115 -186.78,114.038" style="fill:#006363; stroke:#000000;stroke-width:0"/>
<circle fill="#006363" stroke="#006363" stroke-width="0" cx="-399.078" cy="171.282" r="21.3333"/>
<circle fill="#006363" stroke="#006363" stroke-width="0" cx="-194.306" cy="94.0767" r="21.3333"/>
<polygon points="840.025,237.607 881.23,226.534 934.723,425.581 893.518,436.654" style="fill:#006363; stroke:#000000;stroke-width:0"/>
<circle fill="#006363" stroke="#006363" stroke-width="0" cx="860.628" cy="232.07" r="21.3333"/>
<circle fill="#006363" stroke="#006363" stroke-width="0" cx="914.12" cy="431.117" r="21.3333"/>
<polygon points="1256,469.333 256,1469.33 -744,469.333" style="fill:#000000; stroke:#000000;stroke-width:0"/>
<polygon points="-744,42.6667 256,-957.333 1256,42.6667" style="fill:#000000; stroke:#000000;stroke-width:0"/>
<circle fill="#a64b00" stroke="#a64b00" stroke-width="0" cx="-399.078" cy="171.282" r="21.3333"/>
<circle fill="#a64b00" stroke="#a64b00" stroke-width="0" cx="-194.306" cy="94.0767" r="21.3333"/>
<circle fill="#a64b00" stroke="#a64b00" stroke-width="0" cx="860.628" cy="232.07" r="21.3333"/>
<circle fill="#a64b00" stroke="#a64b00" stroke-width="0" cx="914.12" cy="431.117" r="21.3333"/>
<circle fill="#a64b00" stroke="#a64b00" stroke-width="0" cx="-152.389" cy="306.725" r="21.3333"/>
</svg>
