<?xml version="1.0" encoding="utf-8"?> <!-- Generator: Adobe Illustrator 13.0.0, SVG Export Plug-In . SVG Version: 6.00 Build 14948)  --> <svg version="1.2" baseProfile="tiny" id="Layer_1" xmlns="http://www.w3.org/2000/svg" xmlns:xlink="http://www.w3.org/1999/xlink" x="0px" y="0px" width="512px" height="512px" viewBox="0 0 512 512" xml:space="preserve">
<polygon points="0,0 512,0 512,512 0,512" style="fill:#ffffff; stroke:#000000;stroke-width:0"/>
<polygon points="-150.789,193.727 -108.767,201.117 -146.683,416.718 -188.705,409.327" style="fill:#006363; stroke:#000000;stroke-width:0"/>
<circle fill="#006363" stroke="#006363" stroke-width="0" cx="-129.778" cy="197.422" r="21.3333"/>
<circle fill="#006363" stroke="#006363" stroke-width="0" cx="-167.694" cy="413.022" r="21.3333"/>
<polygon points="657.865,453.391 624.231,427.139 757.447,256.465 791.081,282.718" style="fill:#006363; stroke:#000000;stroke-width:0"/>
<circle fill="#006363" stroke="#006363" stroke-width="0" cx="641.048" cy="440.265" r="21.3333"/>
<circle fill="#006363" stroke="#006363" stroke-width="0" cx="774.264" cy="269.592" r="21.3333"/>
<polygon points="1256,469.333 256,1469.33 -744,469.333" style="fill:#000000; stroke:#000000;stroke-width:0"/>
<polygon points="-744,42.6667 256,-957.333 1256,42.6667" style="fill:#000000; stroke:#000000;stroke-width:0"/>
<circle fill="#a64b00" stroke="#a64b00" stroke-width="0" cx="-129.778" cy="197.422" r="21.3333"/>
<circle fill="#a64b00" stroke="#a64b00" stroke-width="0" cx="-167.694" cy="413.022" r="21.3333"/>
<circle fill="#a64b00" stroke="#a64b00" stroke-width="0" cx="641.048" cy="440.265" r="21.3333"/>
<circle fill="#a64b00" stroke="#a64b00" stroke-width="0" cx="774.264" cy="269.592" r="21.3333"/>
<circle fill="#a64b00" stroke="#a64b00" stroke-width="0" cx="184.06" cy="211.32" r="21.3333"/>
</svg>
