<?xml version="1.0" encoding="utf-8"?> <!-- Generator: Adobe Illustrator 13.0.0, SVG Export Plug-In . SVG Version: 6.00 Build 14948)  --> <svg version="1.2" baseProfile="tiny" id="Layer_1" xmlns="http://www.w3.org/2000/svg" xmlns:xlink="http://www.w3.org/1999/xlink" x="0px" y="0px" width="512px" height="512px" viewBox="0 0 512 512" xml:space="preserve">
<polygon points="0,0 512,0 512,512 0,512" style="fill:#ffffff; stroke:#000000;stroke-width:0"/>
<polygon points="-163.064,354.398 -198.173,330.154 -76.1706,153.48 -41.0616,177.725" style="fill:#006363; stroke:#000000;stroke-width:0"/>
<circle fill="#006363" stroke="#006363" stroke-width="0" cx="-180.619" cy="342.276" r="21.3333"/>
<circle fill="#006363" stroke="#006363" stroke-width="0" cx="-58.6161" cy="165.603" r="21.3333"/>
<polygon points="571.88,275.61 595.618,240.157 772.692,358.72 748.954,394.173" style="fill:#006363; stroke:#000000;stroke-width:0"/>
<circle fill="#006363" stroke="#006363" stroke-width="0" cx="583.749" cy="257.883" r="21.3333"/>
<circle fill="#006363" stroke="#006363" stroke-width="0" cx="760.823" cy="376.447" r="21.3333"/>
<polygon points="1256,469.333 256,1469.33 -744,469.333" style="fill:#000000; stroke:#000000;stroke-width:0"/>
<polygon points="-744,42.6667 256,-957.333 1256,42.6667" style="fill:#000000; stroke:#000000;stroke-width:0"/>
<circle fill="#a64b00" stroke="#a64b00" stroke-width="0" cx="-180.619" cy="342.276" r="21.3333"/>
<circle fill="#a64b00" stroke="#a64b00" stroke-width="0" cx="-58.6161" cy="165.603" r="21.3333"/>
<circle fill="#a64b00" stroke="#a64b00" stroke-width="0" cx="583.749" cy="257.883" r="21.3333"/>
<circle fill="#a64b00" stroke="#a64b00" stroke-width="0" cx="760.823" cy="376.447" r="21.3333"/>
<circle fill="#a64b00" stroke="#a64b00" stroke-width="0" cx="250.276" cy="411.671" r="21.3333"/>
</svg>
