<?xml version="1.0" encoding="utf-8"?> <!-- Generator: Adobe Illustrator 13.0.0, SVG Export Plug-In . SVG Version: 6.00 Build 14948)  --> <svg version="1.2" baseProfile="tiny" id="Layer_1" xmlns="http://www.w3.org/2000/svg" xmlns:xlink="http://www.w3.org/1999/xlink" x="0px" y="0px" width="512px" height="512px" viewBox="0 0 512 512" xml:space="preserve">
<polygon points="0,0 512,0 512,512 0,512" style="fill:#ffffff; stroke:#000000;stroke-width:0"/>
<polygon points="-48.2751,246.507 -7.33349,234.497 52.9237,439.919 11.9821,451.929" style="fill:#006363; stroke:#000000;stroke-width:0"/>
<circle fill="#006363" stroke="#006363" stroke-width="0" cx="-27.8043" cy="240.502" r="21.3333"/>
<circle fill="#006363" stroke="#006363" stroke-width="0" cx="32.4529" cy="445.924" r="21.3333"/>
<polygon points="429.963,109.906 457.513,77.3266 620.396,215.063 592.846,247.643" style="fill:#006363; stroke:#000000;stroke-width:0"/>
<circle fill="#006363" stroke="#006363" stroke-width="0" cx="443.738" cy="93.6165" r="21.3333"/>
<circle fill="#006363" stroke="#006363" stroke-width="0" cx="606.621" cy="231.353" r="21.3333"/>
<polygon points="1256,469.333 256,1469.33 -744,469.333" style="fill:#000000; stroke:#000000;stroke-width:0"/>
<polygon points="-744,42.6667 256,-957.333 1256,42.6667" style="fill:#000000; stroke:#000000;stroke-width:0"/>
<circle fill="#a64b00" stroke="#a64b00" stroke-width="0" cx="-27.8043" cy="240.502" r="21.3333"/>
<circle fill="#a64b00" stroke="#a64b00" stroke-width="0" cx="32.4529" cy="445.924" r="21.3333"/>
<circle fill="#a64b00" stroke="#a64b00" stroke-width="0" cx="443.738" cy="93.6165" r="21.3333"/>
<circle fill="#a64b00" stroke="#a64b00" stroke-width="0" cx="606.621" cy="231.353" r="21.3333"/>
<circle fill="#a64b00" stroke="#a64b00" stroke-width="0" cx="184.554" cy="335.904" r="21.3333"/>
</svg>
