<?xml version="1.0" encoding="utf-8"?> <!-- Generator: Adobe Illustrator 13.0.0, SVG Export Plug-In . SVG Version: 6.00 Build 14948)  --> <svg version="1.2" baseProfile="tiny" id="Layer_1" xmlns="http://www.w3.org/2000/svg" xmlns:xlink="http://www.w3.org/1999/xlink" x="0px" y="0px" width="512px" height="512px" viewBox="0 0 512 512" xml:space="preserve">
<polygon points="0,0 512,0 512,512 0,512" style="fill:#ffffff; stroke:#000000;stroke-width:0"/>
<polygon points="-116.113,133.158 -118.796,175.74 -320.396,163.04 -317.713,120.458" style="fill:#006363; stroke:#000000;stroke-width:0"/>
<circle fill="#006363" stroke="#006363" stroke-width="0" cx="-117.454" cy="154.449" r="21.3333"/>
<circle fill="#006363" stroke="#006363" stroke-width="0" cx="-319.055" cy="141.749" r="21.3333"/>
<polygon points="750.877,407.009 714.977,383.952 833.319,199.694 869.219,222.752" style="fill:#006363; stroke:#000000;stroke-width:0"/>
<circle fill="#006363" stroke="#006363" stroke-width="0" cx="732.927" cy="395.481" r="21.3333"/>
<circle fill="#006363" stroke="#006363" stroke-width="0" cx="851.269" cy="211.223" r="21.3333"/>
<polygon points="1256,469.333 256,1469.33 -744,469.333" style="fill:#000000; stroke:#000000;stroke-width:0"/>
<polygon points="-744,42.6667 256,-957.333 1256,42.6667" style="fill:#000000; stroke:#000000;stroke-width:0"/>
<circle fill="#a64b00" stroke="#a64b00" stroke-width="0" cx="-117.454" cy="154.449" r="21.3333"/>
<circle fill="#a64b00" stroke="#a64b00" stroke-width="0" cx="-319.055" cy="141.749" r="21.3333"/>
<circle fill="#a64b00" stroke="#a64b00" stroke-width="0" cx="732.927" cy="395.481" r="21.3333"/>
<circle fill="#a64b00" stroke="#a64b00" stroke-width="0" cx="851.269" cy="211.223" r="21.3333"/>
<circle fill="#a64b00" stroke="#a64b00" stroke-width="0" cx="25.9766" cy="87.2932" r="21.3333"/>
</svg>
