<?xml version="1.0" encoding="utf-8"?> <!-- Generator: Adobe Illustrator 13.0.0, SVG Export Plug-In . SVG Version: 6.00 Build 14948)  --> <svg version="1.2" baseProfile="tiny" id="Layer_1" xmlns="http://www.w3.org/2000/svg" xmlns:xlink="http://www.w3.org/1999/xlink" x="0px" y="0px" width="512px" height="512px" viewBox="0 0 512 512" xml:space="preserve">
<polygon points="0,0 512,0 512,512 0,512" style="fill:#ffffff; stroke:#000000;stroke-width:0"/>
<polygon points="-351.289,261.99 -382.165,232.543 -232.651,75.7739 -201.775,105.221" style="fill:#006363; stroke:#000000;stroke-width:0"/>
<circle fill="#006363" stroke="#006363" stroke-width="0" cx="-366.727" cy="247.266" r="21.3333"/>
<circle fill="#006363" stroke="#006363" stroke-width="0" cx="-217.213" cy="90.4974" r="21.3333"/>
<polygon points="819.258,249.672 858.028,231.859 944.019,419.01 905.249,436.824" style="fill:#006363; stroke:#000000;stroke-width:0"/>
<circle fill="#006363" stroke="#006363" stroke-width="0" cx="838.643" cy="240.765" r="21.3333"/>
<circle fill="#006363" stroke="#006363" stroke-width="0" cx="924.634" cy="427.917" r="21.3333"/>
<polygon points="1256,469.333 256,1469.33 -744,469.333" style="fill:#000000; stroke:#000000;stroke-width:0"/>
<polygon points="-744,42.6667 256,-957.333 1256,42.6667" style="fill:#000000; stroke:#000000;stroke-width:0"/>
<circle fill="#a64b00" stroke="#a64b00" stroke-width="0" cx="-366.727" cy="247.266" r="21.3333"/>
<circle fill="#a64b00" stroke="#a64b00" stroke-width="0" cx="-217.213" cy="90.4974" r="21.3333"/>
<circle fill="#a64b00" stroke="#a64b00" stroke-width="0" cx="838.643" cy="240.765" r="21.3333"/>
<circle fill="#a64b00" stroke="#a64b00" stroke-width="0" cx="924.634" cy="427.917" r="21.3333"/>
<circle fill="#a64b00" stroke="#a64b00" stroke-width="0" cx="-141.652" cy="421.212" r="21.3333"/>
</svg>
