<?xml version="1.0" encoding="utf-8"?> <!-- Generator: Adobe Illustrator 13.0.0, SVG Export Plug-In . SVG Version: 6.00 Build 14948)  --> <svg version="1.2" baseProfile="tiny" id="Layer_1" xmlns="http://www.w3.org/2000/svg" xmlns:xlink="http://www.w3.org/1999/xlink" x="0px" y="0px" width="512px" height="512px" viewBox="0 0 512 512" xml:space="preserve">
<polygon points="0,0 512,0 512,512 0,512" style="fill:#ffffff; stroke:#000000;stroke-width:0"/>
<polygon points="-102.039,48.8982 -91.149,90.1517 -292.497,143.304 -303.387,102.051" style="fill:#006363; stroke:#000000;stroke-width:0"/>
<circle fill="#006363" stroke="#006363" stroke-width="0" cx="-96.5941" cy="69.5249" r="21.3333"/>
<circle fill="#006363" stroke="#006363" stroke-width="0" cx="-297.942" cy="122.678" r="21.3333"/>
<polygon points="745.742,339.258 706.14,323.378 787.47,120.552 827.072,136.432" style="fill:#006363; stroke:#000000;stroke-width:0"/>
<circle fill="#006363" stroke="#006363" stroke-width="0" cx="725.941" cy="331.318" r="21.3333"/>
<circle fill="#006363" stroke="#006363" stroke-width="0" cx="807.271" cy="128.492" r="21.3333"/>
<polygon points="1256,469.333 256,1469.33 -744,469.333" style="fill:#000000; stroke:#000000;stroke-width:0"/>
<polygon points="-744,42.6667 256,-957.333 1256,42.6667" style="fill:#000000; stroke:#000000;stroke-width:0"/>
<circle fill="#a64b00" stroke="#a64b00" stroke-width="0" cx="-96.5941" cy="69.5249" r="21.3333"/>
<circle fill="#a64b00" stroke="#a64b00" stroke-width="0" cx="-297.942" cy="122.678" r="21.3333"/>
<circle fill="#a64b00" stroke="#a64b00" stroke-width="0" cx="725.941" cy="331.318" r="21.3333"/>
<circle fill="#a64b00" stroke="#a64b00" stroke-width="0" cx="807.271" cy="128.492" r="21.3333"/>
<circle fill="#a64b00" stroke="#a64b00" stroke-width="0" cx="73.7" cy="106.374" r="21.3333"/>
</svg>
