<?xml version="1.0" encoding="utf-8"?> <!-- Generator: Adobe Illustrator 13.0.0, SVG Export Plug-In . SVG Version: 6.00 Build 14948)  --> <svg version="1.2" baseProfile="tiny" id="Layer_1" xmlns="http://www.w3.org/2000/svg" xmlns:xlink="http://www.w3.org/1999/xlink" x="0px" y="0px" width="512px" height="512px" viewBox="0 0 512 512" xml:space="preserve">
<polygon points="0,0 512,0 512,512 0,512" style="fill:#ffffff; stroke:#000000;stroke-width:0"/>
<polygon points="-129.242,149.682 -88.0364,138.613 -33.3913,342.034 -74.5971,353.103" style="fill:#006363; stroke:#000000;stroke-width:0"/>
<circle fill="#006363" stroke="#006363" stroke-width="0" cx="-108.639" cy="144.148" r="21.3333"/>
<circle fill="#006363" stroke="#006363" stroke-width="0" cx="-53.9942" cy="347.568" r="21.3333"/>
<polygon points="701.867,191.865 725.325,227.505 549.659,343.124 526.202,307.485" style="fill:#006363; stroke:#000000;stroke-width:0"/>
<circle fill="#006363" stroke="#006363" stroke-width="0" cx="713.596" cy="209.685" r="21.3333"/>
<circle fill="#006363" stroke="#006363" stroke-width="0" cx="537.931" cy="325.305" r="21.3333"/>
<polygon points="1256,469.333 256,1469.33 -744,469.333" style="fill:#000000; stroke:#000000;stroke-width:0"/>
<polygon points="-744,42.6667 256,-957.333 1256,42.6667" style="fill:#000000; stroke:#000000;stroke-width:0"/>
<circle fill="#a64b00" stroke="#a64b00" stroke-width="0" cx="-108.639" cy="144.148" r="21.3333"/>
<circle fill="#a64b00" stroke="#a64b00" stroke-width="0" cx="-53.9942" cy="347.568" r="21.3333"/>
<circle fill="#a64b00" stroke="#a64b00" stroke-width="0" cx="713.596" cy="209.685" r="21.3333"/>
<circle fill="#a64b00" stroke="#a64b00" stroke-width="0" cx="537.931" cy="325.305" r="21.3333"/>
<circle fill="#a64b00" stroke="#a64b00" stroke-width="0" cx="337.372" cy="316.266" r="21.3333"/>
</svg>
