<?xml version="1.0" encoding="utf-8"?> <!-- Generator: Adobe Illustrator 13.0.0, SVG Export Plug-In . SVG Version: 6.00 Build 14948)  --> <svg version="1.2" baseProfile="tiny" id="Layer_1" xmlns="http://www.w3.org/2000/svg" xmlns:xlink="http://www.w3.org/1999/xlink" x="0px" y="0px" width="512px" height="512px" viewBox="0 0 512 512" xml:space="preserve">
<polygon points="0,0 512,0 512,512 0,512" style="fill:#ffffff; stroke:#000000;stroke-width:0"/>
<polygon points="-282.143,328.901 -324.262,322.087 -289.206,105.402 -247.087,112.216" style="fill:#006363; stroke:#000000;stroke-width:0"/>
<circle fill="#006363" stroke="#006363" stroke-width="0" cx="-303.202" cy="325.494" r="21.3333"/>
<circle fill="#006363" stroke="#006363" stroke-width="0" cx="-268.146" cy="108.809" r="21.3333"/>
<polygon points="792.765,267.001 826.644,241.064 955.216,409.009 921.338,434.945" style="fill:#006363; stroke:#000000;stroke-width:0"/>
<circle fill="#006363" stroke="#006363" stroke-width="0" cx="809.705" cy="254.032" r="21.3333"/>
<circle fill="#006363" stroke="#006363" stroke-width="0" cx="938.277" cy="421.977" r="21.3333"/>
<polygon points="1256,469.333 256,1469.33 -744,469.333" style="fill:#000000; stroke:#000000;stroke-width:0"/>
<polygon points="-744,42.6667 256,-957.333 1256,42.6667" style="fill:#000000; stroke:#000000;stroke-width:0"/>
<circle fill="#a64b00" stroke="#a64b00" stroke-width="0" cx="-303.202" cy="325.494" r="21.3333"/>
<circle fill="#a64b00" stroke="#a64b00" stroke-width="0" cx="-268.146" cy="108.809" r="21.3333"/>
<circle fill="#a64b00" stroke="#a64b00" stroke-width="0" cx="809.705" cy="254.032" r="21.3333"/>
<circle fill="#a64b00" stroke="#a64b00" stroke-width="0" cx="938.277" cy="421.977" r="21.3333"/>
<circle fill="#a64b00" stroke="#a64b00" stroke-width="0" cx="-127.335" cy="192.239" r="21.3333"/>
</svg>
