<?xml version="1.0" encoding="utf-8"?> <!-- Generator: Adobe Illustrator 13.0.0, SVG Export Plug-In . SVG Version: 6.00 Build 14948)  --> <svg version="1.2" baseProfile="tiny" id="Layer_1" xmlns="http://www.w3.org/2000/svg" xmlns:xlink="http://www.w3.org/1999/xlink" x="0px" y="0px" width="512px" height="512px" viewBox="0 0 512 512" xml:space="preserve">
<polygon points="0,0 512,0 512,512 0,512" style="fill:#ffffff; stroke:#000000;stroke-width:0"/>
<polygon points="-42.041,238.268 -0.79298,227.357 51.9069,426.588 10.6588,437.499" style="fill:#006363; stroke:#000000;stroke-width:0"/>
<circle fill="#006363" stroke="#006363" stroke-width="0" cx="-21.417" cy="232.812" r="21.3333"/>
<circle fill="#006363" stroke="#006363" stroke-width="0" cx="31.2828" cy="432.044" r="21.3333"/>
<polygon points="436.502,91.3077 469.091,63.7692 606.94,226.902 574.351,254.44" style="fill:#006363; stroke:#000000;stroke-width:0"/>
<circle fill="#006363" stroke="#006363" stroke-width="0" cx="452.796" cy="77.5384" r="21.3333"/>
<circle fill="#006363" stroke="#006363" stroke-width="0" cx="590.646" cy="240.671" r="21.3333"/>
<polygon points="1256,469.333 256,1469.33 -744,469.333" style="fill:#000000; stroke:#000000;stroke-width:0"/>
<polygon points="-744,42.6667 256,-957.333 1256,42.6667" style="fill:#000000; stroke:#000000;stroke-width:0"/>
<circle fill="#a64b00" stroke="#a64b00" stroke-width="0" cx="-21.417" cy="232.812" r="21.3333"/>
<circle fill="#a64b00" stroke="#a64b00" stroke-width="0" cx="31.2828" cy="432.044" r="21.3333"/>
<circle fill="#a64b00" stroke="#a64b00" stroke-width="0" cx="452.796" cy="77.5384" r="21.3333"/>
<circle fill="#a64b00" stroke="#a64b00" stroke-width="0" cx="590.646" cy="240.671" r="21.3333"/>
<circle fill="#a64b00" stroke="#a64b00" stroke-width="0" cx="215.878" cy="436.79" r="21.3333"/>
</svg>
