<?xml version="1.0" encoding="utf-8"?> <!-- Generator: Adobe Illustrator 13.0.0, SVG Export Plug-In . SVG Version: 6.00 Build 14948)  --> <svg version="1.2" baseProfile="tiny" id="Layer_1" xmlns="http://www.w3.org/2000/svg" xmlns:xlink="http://www.w3.org/1999/xlink" x="0px" y="0px" width="512px" height="512px" viewBox="0 0 512 512" xml:space="preserve">
<polygon points="0,0 512,0 512,512 0,512" style="fill:#ffffff; stroke:#000000;stroke-width:0"/>
<polygon points="-33.1752,195.929 8.5044,186.804 55.4822,401.399 13.8026,410.523" style="fill:#006363; stroke:#000000;stroke-width:0"/>
<circle fill="#006363" stroke="#006363" stroke-width="0" cx="-12.3354" cy="191.367" r="21.3333"/>
<circle fill="#006363" stroke="#006363" stroke-width="0" cx="34.6424" cy="405.961" r="21.3333"/>
<polygon points="447.136,99.3905 485.352,80.4183 579.811,270.691 541.595,289.663" style="fill:#006363; stroke:#000000;stroke-width:0"/>
<circle fill="#006363" stroke="#006363" stroke-width="0" cx="466.244" cy="89.9044" r="21.3333"/>
<circle fill="#006363" stroke="#006363" stroke-width="0" cx="560.703" cy="280.177" r="21.3333"/>
<polygon points="1256,469.333 256,1469.33 -744,469.333" style="fill:#000000; stroke:#000000;stroke-width:0"/>
<polygon points="-744,42.6667 256,-957.333 1256,42.6667" style="fill:#000000; stroke:#000000;stroke-width:0"/>
<circle fill="#a64b00" stroke="#a64b00" stroke-width="0" cx="-12.3354" cy="191.367" r="21.3333"/>
<circle fill="#a64b00" stroke="#a64b00" stroke-width="0" cx="34.6424" cy="405.961" r="21.3333"/>
<circle fill="#a64b00" stroke="#a64b00" stroke-width="0" cx="466.244" cy="89.9044" r="21.3333"/>
<circle fill="#a64b00" stroke="#a64b00" stroke-width="0" cx="560.703" cy="280.177" r="21.3333"/>
<circle fill="#a64b00" stroke="#a64b00" stroke-width="0" cx="290.574" cy="227.257" r="21.3333"/>
</svg>
