<?xml version="1.0" encoding="utf-8"?> <!-- Generator: Adobe Illustrator 13.0.0, SVG Export Plug-In . SVG Version: 6.00 Build 14948)  --> <svg version="1.2" baseProfile="tiny" id="Layer_1" xmlns="http://www.w3.org/2000/svg" xmlns:xlink="http://www.w3.org/1999/xlink" x="0px" y="0px" width="512px" height="512px" viewBox="0 0 512 512" xml:space="preserve">
<polygon points="0,0 512,0 512,512 0,512" style="fill:#ffffff; stroke:#000000;stroke-width:0"/>
<polygon points="-398.203,254.345 -417.933,216.515 -230.776,118.907 -211.046,156.738" style="fill:#006363; stroke:#000000;stroke-width:0"/>
<circle fill="#006363" stroke="#006363" stroke-width="0" cx="-408.068" cy="235.43" r="21.3333"/>
<circle fill="#006363" stroke="#006363" stroke-width="0" cx="-220.911" cy="137.822" r="21.3333"/>
<polygon points="915.328,215.978 956.257,228.03 897.021,429.199 856.092,417.147" style="fill:#006363; stroke:#000000;stroke-width:0"/>
<circle fill="#006363" stroke="#006363" stroke-width="0" cx="935.792" cy="222.004" r="21.3333"/>
<circle fill="#006363" stroke="#006363" stroke-width="0" cx="876.556" cy="423.173" r="21.3333"/>
<polygon points="1256,469.333 256,1469.33 -744,469.333" style="fill:#000000; stroke:#000000;stroke-width:0"/>
<polygon points="-744,42.6667 256,-957.333 1256,42.6667" style="fill:#000000; stroke:#000000;stroke-width:0"/>
<circle fill="#a64b00" stroke="#a64b00" stroke-width="0" cx="-408.068" cy="235.43" r="21.3333"/>
<circle fill="#a64b00" stroke="#a64b00" stroke-width="0" cx="-220.911" cy="137.822" r="21.3333"/>
<circle fill="#a64b00" stroke="#a64b00" stroke-width="0" cx="935.792" cy="222.004" r="21.3333"/>
<circle fill="#a64b00" stroke="#a64b00" stroke-width="0" cx="876.556" cy="423.173" r="21.3333"/>
<circle fill="#a64b00" stroke="#a64b00" stroke-width="0" cx="276.41" cy="210.041" r="21.3333"/>
</svg>
