<?xml version="1.0" encoding="utf-8"?> <!-- Generator: Adobe Illustrator 13.0.0, SVG Export Plug-In . SVG Version: 6.00 Build 14948)  --> <svg version="1.2" baseProfile="tiny" id="Layer_1" xmlns="http://www.w3.org/2000/svg" xmlns:xlink="http://www.w3.org/1999/xlink" x="0px" y="0px" width="512px" height="512px" viewBox="0 0 512 512" xml:space="preserve">
<polygon points="0,0 512,0 512,512 0,512" style="fill:#ffffff; stroke:#000000;stroke-width:0"/>
<polygon points="-94.0166,178.362 -61.7693,150.424 81.8095,316.146 49.5622,344.085" style="fill:#006363; stroke:#000000;stroke-width:0"/>
<circle fill="#006363" stroke="#006363" stroke-width="0" cx="-77.8929" cy="164.393" r="21.3333"/>
<circle fill="#006363" stroke="#006363" stroke-width="0" cx="65.6858" cy="330.115" r="21.3333"/>
<polygon points="426.281,177.469 432.995,135.334 646.426,169.341 639.712,211.476" style="fill:#006363; stroke:#000000;stroke-width:0"/>
<circle fill="#006363" stroke="#006363" stroke-width="0" cx="429.638" cy="156.402" r="21.3333"/>
<circle fill="#006363" stroke="#006363" stroke-width="0" cx="643.069" cy="190.409" r="21.3333"/>
<polygon points="1256,469.333 256,1469.33 -744,469.333" style="fill:#000000; stroke:#000000;stroke-width:0"/>
<polygon points="-744,42.6667 256,-957.333 1256,42.6667" style="fill:#000000; stroke:#000000;stroke-width:0"/>
<circle fill="#a64b00" stroke="#a64b00" stroke-width="0" cx="-77.8929" cy="164.393" r="21.3333"/>
<circle fill="#a64b00" stroke="#a64b00" stroke-width="0" cx="65.6858" cy="330.115" r="21.3333"/>
<circle fill="#a64b00" stroke="#a64b00" stroke-width="0" cx="429.638" cy="156.402" r="21.3333"/>
<circle fill="#a64b00" stroke="#a64b00" stroke-width="0" cx="643.069" cy="190.409" r="21.3333"/>
<circle fill="#a64b00" stroke="#a64b00" stroke-width="0" cx="83.3524" cy="103.089" r="21.3333"/>
</svg>
