<?xml version="1.0" encoding="utf-8"?> <!-- Generator: Adobe Illustrator 13.0.0, SVG Export Plug-In . SVG Version: 6.00 Build 14948)  --> <svg version="1.2" baseProfile="tiny" id="Layer_1" xmlns="http://www.w3.org/2000/svg" xmlns:xlink="http://www.w3.org/1999/xlink" x="0px" y="0px" width="512px" height="512px" viewBox="0 0 512 512" xml:space="preserve">
<polygon points="0,0 512,0 512,512 0,512" style="fill:#ffffff; stroke:#000000;stroke-width:0"/>
<polygon points="-124.374,200.243 -86.9871,179.684 17.88,370.394 -19.5072,390.953" style="fill:#006363; stroke:#000000;stroke-width:0"/>
<circle fill="#006363" stroke="#006363" stroke-width="0" cx="-105.681" cy="189.963" r="21.3333"/>
<circle fill="#006363" stroke="#006363" stroke-width="0" cx="-0.813581" cy="380.673" r="21.3333"/>
<polygon points="677.948,298.924 645.561,326.7 505.387,163.261 537.774,135.484" style="fill:#006363; stroke:#000000;stroke-width:0"/>
<circle fill="#006363" stroke="#006363" stroke-width="0" cx="661.755" cy="312.812" r="21.3333"/>
<circle fill="#006363" stroke="#006363" stroke-width="0" cx="521.581" cy="149.373" r="21.3333"/>
<polygon points="1256,469.333 256,1469.33 -744,469.333" style="fill:#000000; stroke:#000000;stroke-width:0"/>
<polygon points="-744,42.6667 256,-957.333 1256,42.6667" style="fill:#000000; stroke:#000000;stroke-width:0"/>
<circle fill="#a64b00" stroke="#a64b00" stroke-width="0" cx="-105.681" cy="189.963" r="21.3333"/>
<circle fill="#a64b00" stroke="#a64b00" stroke-width="0" cx="-0.813581" cy="380.673" r="21.3333"/>
<circle fill="#a64b00" stroke="#a64b00" stroke-width="0" cx="661.755" cy="312.812" r="21.3333"/>
<circle fill="#a64b00" stroke="#a64b00" stroke-width="0" cx="521.581" cy="149.373" r="21.3333"/>
<circle fill="#a64b00" stroke="#a64b00" stroke-width="0" cx="401.202" cy="344.887" r="21.3333"/>
</svg>
