<?xml version="1.0" encoding="utf-8"?> <!-- Generator: Adobe Illustrator 13.0.0, SVG Export Plug-In . SVG Version: 6.00 Build 14948)  --> <svg version="1.2" baseProfile="tiny" id="Layer_1" xmlns="http://www.w3.org/2000/svg" xmlns:xlink="http://www.w3.org/1999/xlink" x="0px" y="0px" width="512px" height="512px" viewBox="0 0 512 512" xml:space="preserve">
<polygon points="0,0 512,0 512,512 0,512" style="fill:#ffffff; stroke:#000000;stroke-width:0"/>
<polygon points="-119.382,210.232 -81.0984,191.396 10.7889,378.146 -27.4945,396.983" style="fill:#006363; stroke:#000000;stroke-width:0"/>
<circle fill="#006363" stroke="#006363" stroke-width="0" cx="-100.24" cy="200.814" r="21.3333"/>
<circle fill="#006363" stroke="#006363" stroke-width="0" cx="-8.35279" cy="387.564" r="21.3333"/>
<polygon points="681.288,293.879 650.47,323.386 504.596,171.027 535.415,141.521" style="fill:#006363; stroke:#000000;stroke-width:0"/>
<circle fill="#006363" stroke="#006363" stroke-width="0" cx="665.879" cy="308.632" r="21.3333"/>
<circle fill="#006363" stroke="#006363" stroke-width="0" cx="520.006" cy="156.274" r="21.3333"/>
<polygon points="1256,469.333 256,1469.33 -744,469.333" style="fill:#000000; stroke:#000000;stroke-width:0"/>
<polygon points="-744,42.6667 256,-957.333 1256,42.6667" style="fill:#000000; stroke:#000000;stroke-width:0"/>
<circle fill="#a64b00" stroke="#a64b00" stroke-width="0" cx="-100.24" cy="200.814" r="21.3333"/>
<circle fill="#a64b00" stroke="#a64b00" stroke-width="0" cx="-8.35279" cy="387.564" r="21.3333"/>
<circle fill="#a64b00" stroke="#a64b00" stroke-width="0" cx="665.879" cy="308.632" r="21.3333"/>
<circle fill="#a64b00" stroke="#a64b00" stroke-width="0" cx="520.006" cy="156.274" r="21.3333"/>
<circle fill="#a64b00" stroke="#a64b00" stroke-width="0" cx="398.815" cy="383.049" r="21.3333"/>
</svg>
