<?xml version="1.0" encoding="utf-8"?> <!-- Generator: Adobe Illustrator 13.0.0, SVG Export Plug-In . SVG Version: 6.00 Build 14948)  --> <svg version="1.2" baseProfile="tiny" id="Layer_1" xmlns="http://www.w3.org/2000/svg" xmlns:xlink="http://www.w3.org/1999/xlink" x="0px" y="0px" width="512px" height="512px" viewBox="0 0 512 512" xml:space="preserve">
<polygon points="0,0 512,0 512,512 0,512" style="fill:#ffffff; stroke:#000000;stroke-width:0"/>
<polygon points="-107.919,68.0286 -65.5252,63.2092 -42.1227,269.068 -84.5163,273.887" style="fill:#006363; stroke:#000000;stroke-width:0"/>
<circle fill="#006363" stroke="#006363" stroke-width="0" cx="-86.722" cy="65.6189" r="21.3333"/>
<circle fill="#006363" stroke="#006363" stroke-width="0" cx="-63.3195" cy="271.478" r="21.3333"/>
<polygon points="715.33,211.511 726.255,252.756 520.901,307.148 509.977,265.904" style="fill:#006363; stroke:#000000;stroke-width:0"/>
<circle fill="#006363" stroke="#006363" stroke-width="0" cx="720.792" cy="232.133" r="21.3333"/>
<circle fill="#006363" stroke="#006363" stroke-width="0" cx="515.439" cy="286.526" r="21.3333"/>
<polygon points="1256,469.333 256,1469.33 -744,469.333" style="fill:#000000; stroke:#000000;stroke-width:0"/>
<polygon points="-744,42.6667 256,-957.333 1256,42.6667" style="fill:#000000; stroke:#000000;stroke-width:0"/>
<circle fill="#a64b00" stroke="#a64b00" stroke-width="0" cx="-86.722" cy="65.6189" r="21.3333"/>
<circle fill="#a64b00" stroke="#a64b00" stroke-width="0" cx="-63.3195" cy="271.478" r="21.3333"/>
<circle fill="#a64b00" stroke="#a64b00" stroke-width="0" cx="720.792" cy="232.133" r="21.3333"/>
<circle fill="#a64b00" stroke="#a64b00" stroke-width="0" cx="515.439" cy="286.526" r="21.3333"/>
<circle fill="#a64b00" stroke="#a64b00" stroke-width="0" cx="351.689" cy="354.428" r="21.3333"/>
</svg>
