<?xml version="1.0" encoding="utf-8"?> <!-- Generator: Adobe Illustrator 13.0.0, SVG Export Plug-In . SVG Version: 6.00 Build 14948)  --> <svg version="1.2" baseProfile="tiny" id="Layer_1" xmlns="http://www.w3.org/2000/svg" xmlns:xlink="http://www.w3.org/1999/xlink" x="0px" y="0px" width="512px" height="512px" viewBox="0 0 512 512" xml:space="preserve">
<polygon points="0,0 512,0 512,512 0,512" style="fill:#ffffff; stroke:#000000;stroke-width:0"/>
<polygon points="-166.728,295.445 -201.988,271.422 -80.3769,92.9279 -45.1164,116.952" style="fill:#006363; stroke:#000000;stroke-width:0"/>
<circle fill="#006363" stroke="#006363" stroke-width="0" cx="-184.358" cy="283.434" r="21.3333"/>
<circle fill="#006363" stroke="#006363" stroke-width="0" cx="-62.7466" cy="104.94" r="21.3333"/>
<polygon points="568.723,301.142 584.828,261.632 785.409,343.394 769.303,382.905" style="fill:#006363; stroke:#000000;stroke-width:0"/>
<circle fill="#006363" stroke="#006363" stroke-width="0" cx="576.776" cy="281.387" r="21.3333"/>
<circle fill="#006363" stroke="#006363" stroke-width="0" cx="777.356" cy="363.149" r="21.3333"/>
<polygon points="1256,469.333 256,1469.33 -744,469.333" style="fill:#000000; stroke:#000000;stroke-width:0"/>
<polygon points="-744,42.6667 256,-957.333 1256,42.6667" style="fill:#000000; stroke:#000000;stroke-width:0"/>
<circle fill="#a64b00" stroke="#a64b00" stroke-width="0" cx="-184.358" cy="283.434" r="21.3333"/>
<circle fill="#a64b00" stroke="#a64b00" stroke-width="0" cx="-62.7466" cy="104.94" r="21.3333"/>
<circle fill="#a64b00" stroke="#a64b00" stroke-width="0" cx="576.776" cy="281.387" r="21.3333"/>
<circle fill="#a64b00" stroke="#a64b00" stroke-width="0" cx="777.356" cy="363.149" r="21.3333"/>
<circle fill="#a64b00" stroke="#a64b00" stroke-width="0" cx="241.328" cy="344.887" r="21.3333"/>
</svg>
