<?xml version="1.0" encoding="utf-8"?> <!-- Generator: Adobe Illustrator 13.0.0, SVG Export Plug-In . SVG Version: 6.00 Build 14948)  --> <svg version="1.2" baseProfile="tiny" id="Layer_1" xmlns="http://www.w3.org/2000/svg" xmlns:xlink="http://www.w3.org/1999/xlink" x="0px" y="0px" width="512px" height="512px" viewBox="0 0 512 512" xml:space="preserve">
<polygon points="0,0 512,0 512,512 0,512" style="fill:#ffffff; stroke:#000000;stroke-width:0"/>
<polygon points="-116.24,89.3856 -74.1541,82.3725 -39.0477,293.05 -81.1341,300.063" style="fill:#006363; stroke:#000000;stroke-width:0"/>
<circle fill="#006363" stroke="#006363" stroke-width="0" cx="-95.1973" cy="85.8791" r="21.3333"/>
<circle fill="#006363" stroke="#006363" stroke-width="0" cx="-60.0909" cy="296.557" r="21.3333"/>
<polygon points="712.536,201.726 728.906,241.128 530.068,323.737 513.699,284.336" style="fill:#006363; stroke:#000000;stroke-width:0"/>
<circle fill="#006363" stroke="#006363" stroke-width="0" cx="720.721" cy="221.427" r="21.3333"/>
<circle fill="#006363" stroke="#006363" stroke-width="0" cx="521.883" cy="304.036" r="21.3333"/>
<polygon points="1256,469.333 256,1469.33 -744,469.333" style="fill:#000000; stroke:#000000;stroke-width:0"/>
<polygon points="-744,42.6667 256,-957.333 1256,42.6667" style="fill:#000000; stroke:#000000;stroke-width:0"/>
<circle fill="#a64b00" stroke="#a64b00" stroke-width="0" cx="-95.1973" cy="85.8791" r="21.3333"/>
<circle fill="#a64b00" stroke="#a64b00" stroke-width="0" cx="-60.0909" cy="296.557" r="21.3333"/>
<circle fill="#a64b00" stroke="#a64b00" stroke-width="0" cx="720.721" cy="221.427" r="21.3333"/>
<circle fill="#a64b00" stroke="#a64b00" stroke-width="0" cx="521.883" cy="304.036" r="21.3333"/>
<circle fill="#a64b00" stroke="#a64b00" stroke-width="0" cx="345.723" cy="449.833" r="21.3333"/>
</svg>
