<?xml version="1.0" encoding="utf-8"?> <!-- Generator: Adobe Illustrator 13.0.0, SVG Export Plug-In . SVG Version: 6.00 Build 14948)  --> <svg version="1.2" baseProfile="tiny" id="Layer_1" xmlns="http://www.w3.org/2000/svg" xmlns:xlink="http://www.w3.org/1999/xlink" x="0px" y="0px" width="512px" height="512px" viewBox="0 0 512 512" xml:space="preserve">
<polygon points="0,0 512,0 512,512 0,512" style="fill:#ffffff; stroke:#000000;stroke-width:0"/>
<polygon points="-205.824,341.669 -191.53,301.468 10.6609,373.357 -3.63268,413.558" style="fill:#006363; stroke:#000000;stroke-width:0"/>
<circle fill="#006363" stroke="#006363" stroke-width="0" cx="-198.677" cy="321.568" r="21.3333"/>
<circle fill="#006363" stroke="#006363" stroke-width="0" cx="3.51409" cy="393.457" r="21.3333"/>
<polygon points="640.362,181.173 682.539,187.622 650.677,396.002 608.5,389.553" style="fill:#006363; stroke:#000000;stroke-width:0"/>
<circle fill="#006363" stroke="#006363" stroke-width="0" cx="661.45" cy="184.398" r="21.3333"/>
<circle fill="#006363" stroke="#006363" stroke-width="0" cx="629.589" cy="392.778" r="21.3333"/>
<polygon points="1256,469.333 256,1469.33 -744,469.333" style="fill:#000000; stroke:#000000;stroke-width:0"/>
<polygon points="-744,42.6667 256,-957.333 1256,42.6667" style="fill:#000000; stroke:#000000;stroke-width:0"/>
<circle fill="#a64b00" stroke="#a64b00" stroke-width="0" cx="-198.677" cy="321.568" r="21.3333"/>
<circle fill="#a64b00" stroke="#a64b00" stroke-width="0" cx="3.51409" cy="393.457" r="21.3333"/>
<circle fill="#a64b00" stroke="#a64b00" stroke-width="0" cx="661.45" cy="184.398" r="21.3333"/>
<circle fill="#a64b00" stroke="#a64b00" stroke-width="0" cx="629.589" cy="392.778" r="21.3333"/>
<circle fill="#a64b00" stroke="#a64b00" stroke-width="0" cx="300.386" cy="392.59" r="21.3333"/>
</svg>
