<?xml version="1.0" encoding="utf-8"?> <!-- Generator: Adobe Illustrator 13.0.0, SVG Export Plug-In . SVG Version: 6.00 Build 14948)  --> <svg version="1.2" baseProfile="tiny" id="Layer_1" xmlns="http://www.w3.org/2000/svg" xmlns:xlink="http://www.w3.org/1999/xlink" x="0px" y="0px" width="512px" height="512px" viewBox="0 0 512 512" xml:space="preserve">
<polygon points="0,0 512,0 512,512 0,512" style="fill:#ffffff; stroke:#000000;stroke-width:0"/>
<polygon points="-215.086,240.68 -235.319,203.116 -46.7096,101.524 -26.4763,139.088" style="fill:#006363; stroke:#000000;stroke-width:0"/>
<circle fill="#006363" stroke="#006363" stroke-width="0" cx="-225.202" cy="221.898" r="21.3333"/>
<circle fill="#006363" stroke="#006363" stroke-width="0" cx="-36.5929" cy="120.306" r="21.3333"/>
<polygon points="578.721,352.074 579.14,309.41 793.255,311.514 792.836,354.179" style="fill:#006363; stroke:#000000;stroke-width:0"/>
<circle fill="#006363" stroke="#006363" stroke-width="0" cx="578.93" cy="330.742" r="21.3333"/>
<circle fill="#006363" stroke="#006363" stroke-width="0" cx="793.045" cy="332.846" r="21.3333"/>
<polygon points="1256,469.333 256,1469.33 -744,469.333" style="fill:#000000; stroke:#000000;stroke-width:0"/>
<polygon points="-744,42.6667 256,-957.333 1256,42.6667" style="fill:#000000; stroke:#000000;stroke-width:0"/>
<circle fill="#a64b00" stroke="#a64b00" stroke-width="0" cx="-225.202" cy="221.898" r="21.3333"/>
<circle fill="#a64b00" stroke="#a64b00" stroke-width="0" cx="-36.5929" cy="120.306" r="21.3333"/>
<circle fill="#a64b00" stroke="#a64b00" stroke-width="0" cx="578.93" cy="330.742" r="21.3333"/>
<circle fill="#a64b00" stroke="#a64b00" stroke-width="0" cx="793.045" cy="332.846" r="21.3333"/>
<circle fill="#a64b00" stroke="#a64b00" stroke-width="0" cx="224.625" cy="77.7526" r="21.3333"/>
</svg>
