<?xml version="1.0" encoding="utf-8"?> <!-- Generator: Adobe Illustrator 13.0.0, SVG Export Plug-In . SVG Version: 6.00 Build 14948)  --> <svg version="1.2" baseProfile="tiny" id="Layer_1" xmlns="http://www.w3.org/2000/svg" xmlns:xlink="http://www.w3.org/1999/xlink" x="0px" y="0px" width="512px" height="512px" viewBox="0 0 512 512" xml:space="preserve">
<polygon points="0,0 512,0 512,512 0,512" style="fill:#ffffff; stroke:#000000;stroke-width:0"/>
<polygon points="-113.023,145.895 -114.074,188.549 -329.258,183.245 -328.207,140.591" style="fill:#006363; stroke:#000000;stroke-width:0"/>
<circle fill="#006363" stroke="#006363" stroke-width="0" cx="-113.548" cy="167.222" r="21.3333"/>
<circle fill="#006363" stroke="#006363" stroke-width="0" cx="-328.732" cy="161.918" r="21.3333"/>
<polygon points="754.468,411.922 719.181,387.937 836.738,214.98 872.025,238.964" style="fill:#006363; stroke:#000000;stroke-width:0"/>
<circle fill="#006363" stroke="#006363" stroke-width="0" cx="736.824" cy="399.929" r="21.3333"/>
<circle fill="#006363" stroke="#006363" stroke-width="0" cx="854.382" cy="226.972" r="21.3333"/>
<polygon points="1256,469.333 256,1469.33 -744,469.333" style="fill:#000000; stroke:#000000;stroke-width:0"/>
<polygon points="-744,42.6667 256,-957.333 1256,42.6667" style="fill:#000000; stroke:#000000;stroke-width:0"/>
<circle fill="#a64b00" stroke="#a64b00" stroke-width="0" cx="-113.548" cy="167.222" r="21.3333"/>
<circle fill="#a64b00" stroke="#a64b00" stroke-width="0" cx="-328.732" cy="161.918" r="21.3333"/>
<circle fill="#a64b00" stroke="#a64b00" stroke-width="0" cx="736.824" cy="399.929" r="21.3333"/>
<circle fill="#a64b00" stroke="#a64b00" stroke-width="0" cx="854.382" cy="226.972" r="21.3333"/>
<circle fill="#a64b00" stroke="#a64b00" stroke-width="0" cx="19.4147" cy="192.239" r="21.3333"/>
</svg>
