<?xml version="1.0" encoding="utf-8"?> <!-- Generator: Adobe Illustrator 13.0.0, SVG Export Plug-In . SVG Version: 6.00 Build 14948)  --> <svg version="1.2" baseProfile="tiny" id="Layer_1" xmlns="http://www.w3.org/2000/svg" xmlns:xlink="http://www.w3.org/1999/xlink" x="0px" y="0px" width="512px" height="512px" viewBox="0 0 512 512" xml:space="preserve">
<polygon points="0,0 512,0 512,512 0,512" style="fill:#ffffff; stroke:#000000;stroke-width:0"/>
<polygon points="-406.075,211.395 -418.533,170.588 -217.164,109.113 -204.706,149.92" style="fill:#006363; stroke:#000000;stroke-width:0"/>
<circle fill="#006363" stroke="#006363" stroke-width="0" cx="-412.304" cy="190.992" r="21.3333"/>
<circle fill="#006363" stroke="#006363" stroke-width="0" cx="-210.935" cy="129.517" r="21.3333"/>
<polygon points="903.643,216.203 945.439,224.78 902.97,431.722 861.174,423.144" style="fill:#006363; stroke:#000000;stroke-width:0"/>
<circle fill="#006363" stroke="#006363" stroke-width="0" cx="924.541" cy="220.491" r="21.3333"/>
<circle fill="#006363" stroke="#006363" stroke-width="0" cx="882.072" cy="427.433" r="21.3333"/>
<polygon points="1256,469.333 256,1469.33 -744,469.333" style="fill:#000000; stroke:#000000;stroke-width:0"/>
<polygon points="-744,42.6667 256,-957.333 1256,42.6667" style="fill:#000000; stroke:#000000;stroke-width:0"/>
<circle fill="#a64b00" stroke="#a64b00" stroke-width="0" cx="-412.304" cy="190.992" r="21.3333"/>
<circle fill="#a64b00" stroke="#a64b00" stroke-width="0" cx="-210.935" cy="129.517" r="21.3333"/>
<circle fill="#a64b00" stroke="#a64b00" stroke-width="0" cx="924.541" cy="220.491" r="21.3333"/>
<circle fill="#a64b00" stroke="#a64b00" stroke-width="0" cx="882.072" cy="427.433" r="21.3333"/>
<circle fill="#a64b00" stroke="#a64b00" stroke-width="0" cx="179.926" cy="193.568" r="21.3333"/>
</svg>
