<?xml version="1.0" encoding="utf-8"?> <!-- Generator: Adobe Illustrator 13.0.0, SVG Export Plug-In . SVG Version: 6.00 Build 14948)  --> <svg version="1.2" baseProfile="tiny" id="Layer_1" xmlns="http://www.w3.org/2000/svg" xmlns:xlink="http://www.w3.org/1999/xlink" x="0px" y="0px" width="512px" height="512px" viewBox="0 0 512 512" xml:space="preserve">
<polygon points="0,0 512,0 512,512 0,512" style="fill:#ffffff; stroke:#000000;stroke-width:0"/>
<polygon points="-142.88,134.675 -124.403,96.2168 65.7667,187.58 47.2901,226.038" style="fill:#006363; stroke:#000000;stroke-width:0"/>
<circle fill="#006363" stroke="#006363" stroke-width="0" cx="-133.641" cy="115.446" r="21.3333"/>
<circle fill="#006363" stroke="#006363" stroke-width="0" cx="56.5284" cy="206.809" r="21.3333"/>
<polygon points="590.28,319.15 547.657,317.2 557.367,104.931 599.989,106.881" style="fill:#006363; stroke:#000000;stroke-width:0"/>
<circle fill="#006363" stroke="#006363" stroke-width="0" cx="568.968" cy="318.175" r="21.3333"/>
<circle fill="#006363" stroke="#006363" stroke-width="0" cx="578.678" cy="105.906" r="21.3333"/>
<polygon points="1256,469.333 256,1469.33 -744,469.333" style="fill:#000000; stroke:#000000;stroke-width:0"/>
<polygon points="-744,42.6667 256,-957.333 1256,42.6667" style="fill:#000000; stroke:#000000;stroke-width:0"/>
<circle fill="#a64b00" stroke="#a64b00" stroke-width="0" cx="-133.641" cy="115.446" r="21.3333"/>
<circle fill="#a64b00" stroke="#a64b00" stroke-width="0" cx="56.5284" cy="206.809" r="21.3333"/>
<circle fill="#a64b00" stroke="#a64b00" stroke-width="0" cx="568.968" cy="318.175" r="21.3333"/>
<circle fill="#a64b00" stroke="#a64b00" stroke-width="0" cx="578.678" cy="105.906" r="21.3333"/>
<circle fill="#a64b00" stroke="#a64b00" stroke-width="0" cx="434.608" cy="306.725" r="21.3333"/>
</svg>
