<?xml version="1.0" encoding="utf-8"?> <!-- Generator: Adobe Illustrator 13.0.0, SVG Export Plug-In . SVG Version: 6.00 Build 14948)  --> <svg version="1.2" baseProfile="tiny" id="Layer_1" xmlns="http://www.w3.org/2000/svg" xmlns:xlink="http://www.w3.org/1999/xlink" x="0px" y="0px" width="512px" height="512px" viewBox="0 0 512 512" xml:space="preserve">
<polygon points="0,0 512,0 512,512 0,512" style="fill:#ffffff; stroke:#000000;stroke-width:0"/>
<polygon points="-160.722,276.152 -123.935,254.539 -18.1764,434.543 -54.9636,456.157" style="fill:#006363; stroke:#000000;stroke-width:0"/>
<circle fill="#006363" stroke="#006363" stroke-width="0" cx="-142.328" cy="265.346" r="21.3333"/>
<circle fill="#006363" stroke="#006363" stroke-width="0" cx="-36.57" cy="445.35" r="21.3333"/>
<polygon points="676.151,175.388 712.063,198.427 595.132,380.694 559.22,357.655" style="fill:#006363; stroke:#000000;stroke-width:0"/>
<circle fill="#006363" stroke="#006363" stroke-width="0" cx="694.107" cy="186.908" r="21.3333"/>
<circle fill="#006363" stroke="#006363" stroke-width="0" cx="577.176" cy="369.175" r="21.3333"/>
<polygon points="1256,469.333 256,1469.33 -744,469.333" style="fill:#000000; stroke:#000000;stroke-width:0"/>
<polygon points="-744,42.6667 256,-957.333 1256,42.6667" style="fill:#000000; stroke:#000000;stroke-width:0"/>
<circle fill="#a64b00" stroke="#a64b00" stroke-width="0" cx="-142.328" cy="265.346" r="21.3333"/>
<circle fill="#a64b00" stroke="#a64b00" stroke-width="0" cx="-36.57" cy="445.35" r="21.3333"/>
<circle fill="#a64b00" stroke="#a64b00" stroke-width="0" cx="694.107" cy="186.908" r="21.3333"/>
<circle fill="#a64b00" stroke="#a64b00" stroke-width="0" cx="577.176" cy="369.175" r="21.3333"/>
<circle fill="#a64b00" stroke="#a64b00" stroke-width="0" cx="318.879" cy="96.8337" r="21.3333"/>
</svg>
