<?xml version="1.0" encoding="utf-8"?> <!-- Generator: Adobe Illustrator 13.0.0, SVG Export Plug-In . SVG Version: 6.00 Build 14948)  --> <svg version="1.2" baseProfile="tiny" id="Layer_1" xmlns="http://www.w3.org/2000/svg" xmlns:xlink="http://www.w3.org/1999/xlink" x="0px" y="0px" width="512px" height="512px" viewBox="0 0 512 512" xml:space="preserve">
<polygon points="0,0 512,0 512,512 0,512" style="fill:#ffffff; stroke:#000000;stroke-width:0"/>
<polygon points="-152.67,252.334 -140.432,293.208 -337.88,352.326 -350.118,311.452" style="fill:#006363; stroke:#000000;stroke-width:0"/>
<circle fill="#006363" stroke="#006363" stroke-width="0" cx="-146.551" cy="272.771" r="21.3333"/>
<circle fill="#006363" stroke="#006363" stroke-width="0" cx="-343.999" cy="331.889" r="21.3333"/>
<polygon points="739.582,434.795 718.428,397.742 910.256,288.225 931.41,325.279" style="fill:#006363; stroke:#000000;stroke-width:0"/>
<circle fill="#006363" stroke="#006363" stroke-width="0" cx="729.005" cy="416.269" r="21.3333"/>
<circle fill="#006363" stroke="#006363" stroke-width="0" cx="920.833" cy="306.752" r="21.3333"/>
<polygon points="1256,469.333 256,1469.33 -744,469.333" style="fill:#000000; stroke:#000000;stroke-width:0"/>
<polygon points="-744,42.6667 256,-957.333 1256,42.6667" style="fill:#000000; stroke:#000000;stroke-width:0"/>
<circle fill="#a64b00" stroke="#a64b00" stroke-width="0" cx="-146.551" cy="272.771" r="21.3333"/>
<circle fill="#a64b00" stroke="#a64b00" stroke-width="0" cx="-343.999" cy="331.889" r="21.3333"/>
<circle fill="#a64b00" stroke="#a64b00" stroke-width="0" cx="729.005" cy="416.269" r="21.3333"/>
<circle fill="#a64b00" stroke="#a64b00" stroke-width="0" cx="920.833" cy="306.752" r="21.3333"/>
<circle fill="#a64b00" stroke="#a64b00" stroke-width="0" cx="-35.4672" cy="287.644" r="21.3333"/>
</svg>
