<?xml version="1.0" encoding="utf-8"?> <!-- Generator: Adobe Illustrator 13.0.0, SVG Export Plug-In . SVG Version: 6.00 Build 14948)  --> <svg version="1.2" baseProfile="tiny" id="Layer_1" xmlns="http://www.w3.org/2000/svg" xmlns:xlink="http://www.w3.org/1999/xlink" x="0px" y="0px" width="512px" height="512px" viewBox="0 0 512 512" xml:space="preserve">
<polygon points="0,0 512,0 512,512 0,512" style="fill:#ffffff; stroke:#000000;stroke-width:0"/>
<polygon points="-162.472,366.4 -197.551,342.112 -75.1889,165.38 -40.1096,189.668" style="fill:#006363; stroke:#000000;stroke-width:0"/>
<circle fill="#006363" stroke="#006363" stroke-width="0" cx="-180.011" cy="354.256" r="21.3333"/>
<circle fill="#006363" stroke="#006363" stroke-width="0" cx="-57.6493" cy="177.524" r="21.3333"/>
<polygon points="571.394,269.721 596.52,235.238 771.266,362.568 746.14,397.051" style="fill:#006363; stroke:#000000;stroke-width:0"/>
<circle fill="#006363" stroke="#006363" stroke-width="0" cx="583.957" cy="252.48" r="21.3333"/>
<circle fill="#006363" stroke="#006363" stroke-width="0" cx="758.703" cy="379.809" r="21.3333"/>
<polygon points="1256,469.333 256,1469.33 -744,469.333" style="fill:#000000; stroke:#000000;stroke-width:0"/>
<polygon points="-744,42.6667 256,-957.333 1256,42.6667" style="fill:#000000; stroke:#000000;stroke-width:0"/>
<circle fill="#a64b00" stroke="#a64b00" stroke-width="0" cx="-180.011" cy="354.256" r="21.3333"/>
<circle fill="#a64b00" stroke="#a64b00" stroke-width="0" cx="-57.6493" cy="177.524" r="21.3333"/>
<circle fill="#a64b00" stroke="#a64b00" stroke-width="0" cx="583.957" cy="252.48" r="21.3333"/>
<circle fill="#a64b00" stroke="#a64b00" stroke-width="0" cx="758.703" cy="379.809" r="21.3333"/>
<circle fill="#a64b00" stroke="#a64b00" stroke-width="0" cx="252.066" cy="383.049" r="21.3333"/>
</svg>
