<?xml version="1.0" encoding="utf-8"?> <!-- Generator: Adobe Illustrator 13.0.0, SVG Export Plug-In . SVG Version: 6.00 Build 14948)  --> <svg version="1.2" baseProfile="tiny" id="Layer_1" xmlns="http://www.w3.org/2000/svg" xmlns:xlink="http://www.w3.org/1999/xlink" x="0px" y="0px" width="512px" height="512px" viewBox="0 0 512 512" xml:space="preserve">
<polygon points="0,0 512,0 512,512 0,512" style="fill:#ffffff; stroke:#000000;stroke-width:0"/>
<polygon points="-104.492,146.953 -62.2361,141.044 -32.9579,350.413 -75.2134,356.322" style="fill:#006363; stroke:#000000;stroke-width:0"/>
<circle fill="#006363" stroke="#006363" stroke-width="0" cx="-83.3638" cy="143.998" r="21.3333"/>
<circle fill="#006363" stroke="#006363" stroke-width="0" cx="-54.0857" cy="353.367" r="21.3333"/>
<polygon points="719.815,236.926 717.035,279.502 501.121,265.404 503.901,222.828" style="fill:#006363; stroke:#000000;stroke-width:0"/>
<circle fill="#006363" stroke="#006363" stroke-width="0" cx="718.425" cy="258.214" r="21.3333"/>
<circle fill="#006363" stroke="#006363" stroke-width="0" cx="502.511" cy="244.116" r="21.3333"/>
<polygon points="1256,469.333 256,1469.33 -744,469.333" style="fill:#000000; stroke:#000000;stroke-width:0"/>
<polygon points="-744,42.6667 256,-957.333 1256,42.6667" style="fill:#000000; stroke:#000000;stroke-width:0"/>
<circle fill="#a64b00" stroke="#a64b00" stroke-width="0" cx="-83.3638" cy="143.998" r="21.3333"/>
<circle fill="#a64b00" stroke="#a64b00" stroke-width="0" cx="-54.0857" cy="353.367" r="21.3333"/>
<circle fill="#a64b00" stroke="#a64b00" stroke-width="0" cx="718.425" cy="258.214" r="21.3333"/>
<circle fill="#a64b00" stroke="#a64b00" stroke-width="0" cx="502.511" cy="244.116" r="21.3333"/>
<circle fill="#a64b00" stroke="#a64b00" stroke-width="0" cx="366.006" cy="125.455" r="21.3333"/>
</svg>
