<?xml version="1.0" encoding="utf-8"?> <!-- Generator: Adobe Illustrator 13.0.0, SVG Export Plug-In . SVG Version: 6.00 Build 14948)  --> <svg version="1.2" baseProfile="tiny" id="Layer_1" xmlns="http://www.w3.org/2000/svg" xmlns:xlink="http://www.w3.org/1999/xlink" x="0px" y="0px" width="512px" height="512px" viewBox="0 0 512 512" xml:space="preserve">
<polygon points="0,0 512,0 512,512 0,512" style="fill:#ffffff; stroke:#000000;stroke-width:0"/>
<polygon points="-102.026,210.128 -59.91,203.293 -25.9799,412.373 -68.0955,419.207" style="fill:#006363; stroke:#000000;stroke-width:0"/>
<circle fill="#006363" stroke="#006363" stroke-width="0" cx="-80.9679" cy="206.711" r="21.3333"/>
<circle fill="#006363" stroke="#006363" stroke-width="0" cx="-47.0377" cy="415.79" r="21.3333"/>
<polygon points="713.907,257.37 700.978,298.031 495.558,232.711 508.487,192.051" style="fill:#006363; stroke:#000000;stroke-width:0"/>
<circle fill="#006363" stroke="#006363" stroke-width="0" cx="707.443" cy="277.701" r="21.3333"/>
<circle fill="#006363" stroke="#006363" stroke-width="0" cx="502.022" cy="212.381" r="21.3333"/>
<polygon points="1256,469.333 256,1469.33 -744,469.333" style="fill:#000000; stroke:#000000;stroke-width:0"/>
<polygon points="-744,42.6667 256,-957.333 1256,42.6667" style="fill:#000000; stroke:#000000;stroke-width:0"/>
<circle fill="#a64b00" stroke="#a64b00" stroke-width="0" cx="-80.9679" cy="206.711" r="21.3333"/>
<circle fill="#a64b00" stroke="#a64b00" stroke-width="0" cx="-47.0377" cy="415.79" r="21.3333"/>
<circle fill="#a64b00" stroke="#a64b00" stroke-width="0" cx="707.443" cy="277.701" r="21.3333"/>
<circle fill="#a64b00" stroke="#a64b00" stroke-width="0" cx="502.022" cy="212.381" r="21.3333"/>
<circle fill="#a64b00" stroke="#a64b00" stroke-width="0" cx="376.743" cy="163.617" r="21.3333"/>
</svg>
