<?xml version="1.0" encoding="utf-8"?> <!-- Generator: Adobe Illustrator 13.0.0, SVG Export Plug-In . SVG Version: 6.00 Build 14948)  --> <svg version="1.2" baseProfile="tiny" id="Layer_1" xmlns="http://www.w3.org/2000/svg" xmlns:xlink="http://www.w3.org/1999/xlink" x="0px" y="0px" width="512px" height="512px" viewBox="0 0 512 512" xml:space="preserve">
<polygon points="0,0 512,0 512,512 0,512" style="fill:#ffffff; stroke:#000000;stroke-width:0"/>
<polygon points="-165.938,348.319 -184.787,386.596 -378.652,291.131 -359.803,252.853" style="fill:#006363; stroke:#000000;stroke-width:0"/>
<circle fill="#006363" stroke="#006363" stroke-width="0" cx="-175.363" cy="367.458" r="21.3333"/>
<circle fill="#006363" stroke="#006363" stroke-width="0" cx="-369.228" cy="271.992" r="21.3333"/>
<polygon points="750.314,318.562 768.561,279.994 965.166,373.016 946.918,411.583" style="fill:#006363; stroke:#000000;stroke-width:0"/>
<circle fill="#006363" stroke="#006363" stroke-width="0" cx="759.437" cy="299.278" r="21.3333"/>
<circle fill="#006363" stroke="#006363" stroke-width="0" cx="956.042" cy="392.3" r="21.3333"/>
<polygon points="1256,469.333 256,1469.33 -744,469.333" style="fill:#000000; stroke:#000000;stroke-width:0"/>
<polygon points="-744,42.6667 256,-957.333 1256,42.6667" style="fill:#000000; stroke:#000000;stroke-width:0"/>
<circle fill="#a64b00" stroke="#a64b00" stroke-width="0" cx="-175.363" cy="367.458" r="21.3333"/>
<circle fill="#a64b00" stroke="#a64b00" stroke-width="0" cx="-369.228" cy="271.992" r="21.3333"/>
<circle fill="#a64b00" stroke="#a64b00" stroke-width="0" cx="759.437" cy="299.278" r="21.3333"/>
<circle fill="#a64b00" stroke="#a64b00" stroke-width="0" cx="956.042" cy="392.3" r="21.3333"/>
<circle fill="#a64b00" stroke="#a64b00" stroke-width="0" cx="-96.911" cy="411.671" r="21.3333"/>
</svg>
