<?xml version="1.0" encoding="utf-8"?> <!-- Generator: Adobe Illustrator 13.0.0, SVG Export Plug-In . SVG Version: 6.00 Build 14948)  --> <svg version="1.2" baseProfile="tiny" id="Layer_1" xmlns="http://www.w3.org/2000/svg" xmlns:xlink="http://www.w3.org/1999/xlink" x="0px" y="0px" width="512px" height="512px" viewBox="0 0 512 512" xml:space="preserve">
<polygon points="0,0 512,0 512,512 0,512" style="fill:#ffffff; stroke:#000000;stroke-width:0"/>
<polygon points="-200.388,421.308 -216.506,381.803 -11.5642,298.188 4.55364,337.693" style="fill:#006363; stroke:#000000;stroke-width:0"/>
<circle fill="#006363" stroke="#006363" stroke-width="0" cx="-208.447" cy="401.556" r="21.3333"/>
<circle fill="#006363" stroke="#006363" stroke-width="0" cx="-3.50529" cy="317.941" r="21.3333"/>
<polygon points="605.888,203.076 646.903,191.318 705.544,395.873 664.53,407.63" style="fill:#006363; stroke:#000000;stroke-width:0"/>
<circle fill="#006363" stroke="#006363" stroke-width="0" cx="626.396" cy="197.197" r="21.3333"/>
<circle fill="#006363" stroke="#006363" stroke-width="0" cx="685.037" cy="401.752" r="21.3333"/>
<polygon points="1256,469.333 256,1469.33 -744,469.333" style="fill:#000000; stroke:#000000;stroke-width:0"/>
<polygon points="-744,42.6667 256,-957.333 1256,42.6667" style="fill:#000000; stroke:#000000;stroke-width:0"/>
<circle fill="#a64b00" stroke="#a64b00" stroke-width="0" cx="-208.447" cy="401.556" r="21.3333"/>
<circle fill="#a64b00" stroke="#a64b00" stroke-width="0" cx="-3.50529" cy="317.941" r="21.3333"/>
<circle fill="#a64b00" stroke="#a64b00" stroke-width="0" cx="626.396" cy="197.197" r="21.3333"/>
<circle fill="#a64b00" stroke="#a64b00" stroke-width="0" cx="685.037" cy="401.752" r="21.3333"/>
<circle fill="#a64b00" stroke="#a64b00" stroke-width="0" cx="281.297" cy="201.779" r="21.3333"/>
</svg>
