<?xml version="1.0" encoding="utf-8"?> <!-- Generator: Adobe Illustrator 13.0.0, SVG Export Plug-In . SVG Version: 6.00 Build 14948)  --> <svg version="1.2" baseProfile="tiny" id="Layer_1" xmlns="http://www.w3.org/2000/svg" xmlns:xlink="http://www.w3.org/1999/xlink" x="0px" y="0px" width="512px" height="512px" viewBox="0 0 512 512" xml:space="preserve">
<polygon points="0,0 512,0 512,512 0,512" style="fill:#ffffff; stroke:#000000;stroke-width:0"/>
<polygon points="-81.3455,201.817 -79.0722,244.423 -282.235,255.263 -284.508,212.657" style="fill:#006363; stroke:#000000;stroke-width:0"/>
<circle fill="#006363" stroke="#006363" stroke-width="0" cx="-80.2088" cy="223.12" r="21.3333"/>
<circle fill="#006363" stroke="#006363" stroke-width="0" cx="-283.372" cy="233.96" r="21.3333"/>
<polygon points="742.406,287.028 700.974,276.839 753.206,64.4474 794.638,74.6366" style="fill:#006363; stroke:#000000;stroke-width:0"/>
<circle fill="#006363" stroke="#006363" stroke-width="0" cx="721.69" cy="281.934" r="21.3333"/>
<circle fill="#006363" stroke="#006363" stroke-width="0" cx="773.922" cy="69.542" r="21.3333"/>
<polygon points="1256,469.333 256,1469.33 -744,469.333" style="fill:#000000; stroke:#000000;stroke-width:0"/>
<polygon points="-744,42.6667 256,-957.333 1256,42.6667" style="fill:#000000; stroke:#000000;stroke-width:0"/>
<circle fill="#a64b00" stroke="#a64b00" stroke-width="0" cx="-80.2088" cy="223.12" r="21.3333"/>
<circle fill="#a64b00" stroke="#a64b00" stroke-width="0" cx="-283.372" cy="233.96" r="21.3333"/>
<circle fill="#a64b00" stroke="#a64b00" stroke-width="0" cx="721.69" cy="281.934" r="21.3333"/>
<circle fill="#a64b00" stroke="#a64b00" stroke-width="0" cx="773.922" cy="69.542" r="21.3333"/>
<circle fill="#a64b00" stroke="#a64b00" stroke-width="0" cx="108.896" cy="325.806" r="21.3333"/>
</svg>
