<?xml version="1.0" encoding="utf-8"?> <!-- Generator: Adobe Illustrator 13.0.0, SVG Export Plug-In . SVG Version: 6.00 Build 14948)  --> <svg version="1.2" baseProfile="tiny" id="Layer_1" xmlns="http://www.w3.org/2000/svg" xmlns:xlink="http://www.w3.org/1999/xlink" x="0px" y="0px" width="512px" height="512px" viewBox="0 0 512 512" xml:space="preserve">
<polygon points="0,0 512,0 512,512 0,512" style="fill:#ffffff; stroke:#000000;stroke-width:0"/>
<polygon points="-104.322,155.81 -62.0883,149.746 -31.5537,362.412 -73.7873,368.475" style="fill:#006363; stroke:#000000;stroke-width:0"/>
<circle fill="#006363" stroke="#006363" stroke-width="0" cx="-83.2051" cy="152.778" r="21.3333"/>
<circle fill="#006363" stroke="#006363" stroke-width="0" cx="-52.6705" cy="365.443" r="21.3333"/>
<polygon points="716.547,240.034 712.051,282.463 502.477,260.254 506.974,217.825" style="fill:#006363; stroke:#000000;stroke-width:0"/>
<circle fill="#006363" stroke="#006363" stroke-width="0" cx="714.299" cy="261.249" r="21.3333"/>
<circle fill="#006363" stroke="#006363" stroke-width="0" cx="504.725" cy="239.039" r="21.3333"/>
<polygon points="1256,469.333 256,1469.33 -744,469.333" style="fill:#000000; stroke:#000000;stroke-width:0"/>
<polygon points="-744,42.6667 256,-957.333 1256,42.6667" style="fill:#000000; stroke:#000000;stroke-width:0"/>
<circle fill="#a64b00" stroke="#a64b00" stroke-width="0" cx="-83.2051" cy="152.778" r="21.3333"/>
<circle fill="#a64b00" stroke="#a64b00" stroke-width="0" cx="-52.6705" cy="365.443" r="21.3333"/>
<circle fill="#a64b00" stroke="#a64b00" stroke-width="0" cx="714.299" cy="261.249" r="21.3333"/>
<circle fill="#a64b00" stroke="#a64b00" stroke-width="0" cx="504.725" cy="239.039" r="21.3333"/>
<circle fill="#a64b00" stroke="#a64b00" stroke-width="0" cx="367.795" cy="96.8337" r="21.3333"/>
</svg>
