<?xml version="1.0" encoding="utf-8"?> <!-- Generator: Adobe Illustrator 13.0.0, SVG Export Plug-In . SVG Version: 6.00 Build 14948)  --> <svg version="1.2" baseProfile="tiny" id="Layer_1" xmlns="http://www.w3.org/2000/svg" xmlns:xlink="http://www.w3.org/1999/xlink" x="0px" y="0px" width="512px" height="512px" viewBox="0 0 512 512" xml:space="preserve">
<polygon points="0,0 512,0 512,512 0,512" style="fill:#ffffff; stroke:#000000;stroke-width:0"/>
<polygon points="-394.285,182.518 -407.431,141.927 -200.149,74.7957 -187.003,115.387" style="fill:#006363; stroke:#000000;stroke-width:0"/>
<circle fill="#006363" stroke="#006363" stroke-width="0" cx="-400.858" cy="162.223" r="21.3333"/>
<circle fill="#006363" stroke="#006363" stroke-width="0" cx="-193.576" cy="95.0912" r="21.3333"/>
<polygon points="841.479,232.365 882.889,222.087 934.544,430.212 893.134,440.49" style="fill:#006363; stroke:#000000;stroke-width:0"/>
<circle fill="#006363" stroke="#006363" stroke-width="0" cx="862.184" cy="227.226" r="21.3333"/>
<circle fill="#006363" stroke="#006363" stroke-width="0" cx="913.839" cy="435.351" r="21.3333"/>
<polygon points="1256,469.333 256,1469.33 -744,469.333" style="fill:#000000; stroke:#000000;stroke-width:0"/>
<polygon points="-744,42.6667 256,-957.333 1256,42.6667" style="fill:#000000; stroke:#000000;stroke-width:0"/>
<circle fill="#a64b00" stroke="#a64b00" stroke-width="0" cx="-400.858" cy="162.223" r="21.3333"/>
<circle fill="#a64b00" stroke="#a64b00" stroke-width="0" cx="-193.576" cy="95.0912" r="21.3333"/>
<circle fill="#a64b00" stroke="#a64b00" stroke-width="0" cx="862.184" cy="227.226" r="21.3333"/>
<circle fill="#a64b00" stroke="#a64b00" stroke-width="0" cx="913.839" cy="435.351" r="21.3333"/>
<circle fill="#a64b00" stroke="#a64b00" stroke-width="0" cx="-153.582" cy="287.644" r="21.3333"/>
</svg>
