<?xml version="1.0" encoding="utf-8"?> <!-- Generator: Adobe Illustrator 13.0.0, SVG Export Plug-In . SVG Version: 6.00 Build 14948)  --> <svg version="1.2" baseProfile="tiny" id="Layer_1" xmlns="http://www.w3.org/2000/svg" xmlns:xlink="http://www.w3.org/1999/xlink" x="0px" y="0px" width="512px" height="512px" viewBox="0 0 512 512" xml:space="preserve">
<polygon points="0,0 512,0 512,512 0,512" style="fill:#ffffff; stroke:#000000;stroke-width:0"/>
<polygon points="-1.85574,98.9955 40.6317,95.0893 59.8808,304.461 17.3933,308.368" style="fill:#006363; stroke:#000000;stroke-width:0"/>
<circle fill="#006363" stroke="#006363" stroke-width="0" cx="19.388" cy="97.0424" r="21.3333"/>
<circle fill="#006363" stroke="#006363" stroke-width="0" cx="38.6371" cy="306.414" r="21.3333"/>
<polygon points="457.233,226.949 499.62,222.068 523.846,432.46 481.459,437.341" style="fill:#006363; stroke:#000000;stroke-width:0"/>
<circle fill="#006363" stroke="#006363" stroke-width="0" cx="478.426" cy="224.508" r="21.3333"/>
<circle fill="#006363" stroke="#006363" stroke-width="0" cx="502.652" cy="434.901" r="21.3333"/>
<polygon points="1256,469.333 256,1469.33 -744,469.333" style="fill:#000000; stroke:#000000;stroke-width:0"/>
<polygon points="-744,42.6667 256,-957.333 1256,42.6667" style="fill:#000000; stroke:#000000;stroke-width:0"/>
<circle fill="#a64b00" stroke="#a64b00" stroke-width="0" cx="19.388" cy="97.0424" r="21.3333"/>
<circle fill="#a64b00" stroke="#a64b00" stroke-width="0" cx="38.6371" cy="306.414" r="21.3333"/>
<circle fill="#a64b00" stroke="#a64b00" stroke-width="0" cx="478.426" cy="224.508" r="21.3333"/>
<circle fill="#a64b00" stroke="#a64b00" stroke-width="0" cx="502.652" cy="434.901" r="21.3333"/>
<circle fill="#a64b00" stroke="#a64b00" stroke-width="0" cx="356.298" cy="385.624" r="21.3333"/>
</svg>
