<?xml version="1.0" encoding="utf-8"?> <!-- Generator: Adobe Illustrator 13.0.0, SVG Export Plug-In . SVG Version: 6.00 Build 14948)  --> <svg version="1.2" baseProfile="tiny" id="Layer_1" xmlns="http://www.w3.org/2000/svg" xmlns:xlink="http://www.w3.org/1999/xlink" x="0px" y="0px" width="512px" height="512px" viewBox="0 0 512 512" xml:space="preserve">
<polygon points="0,0 512,0 512,512 0,512" style="fill:#ffffff; stroke:#000000;stroke-width:0"/>
<polygon points="-125.341,124.838 -107.618,86.0263 92.2998,177.318 74.5765,216.13" style="fill:#006363; stroke:#000000;stroke-width:0"/>
<circle fill="#006363" stroke="#006363" stroke-width="0" cx="-116.479" cy="105.432" r="21.3333"/>
<circle fill="#006363" stroke="#006363" stroke-width="0" cx="83.4382" cy="196.724" r="21.3333"/>
<polygon points="456.314,246.281 439.747,206.962 639.273,122.891 655.84,162.21" style="fill:#006363; stroke:#000000;stroke-width:0"/>
<circle fill="#006363" stroke="#006363" stroke-width="0" cx="448.03" cy="226.621" r="21.3333"/>
<circle fill="#006363" stroke="#006363" stroke-width="0" cx="647.557" cy="142.55" r="21.3333"/>
<polygon points="1256,469.333 256,1469.33 -744,469.333" style="fill:#000000; stroke:#000000;stroke-width:0"/>
<polygon points="-744,42.6667 256,-957.333 1256,42.6667" style="fill:#000000; stroke:#000000;stroke-width:0"/>
<circle fill="#a64b00" stroke="#a64b00" stroke-width="0" cx="-116.479" cy="105.432" r="21.3333"/>
<circle fill="#a64b00" stroke="#a64b00" stroke-width="0" cx="83.4382" cy="196.724" r="21.3333"/>
<circle fill="#a64b00" stroke="#a64b00" stroke-width="0" cx="448.03" cy="226.621" r="21.3333"/>
<circle fill="#a64b00" stroke="#a64b00" stroke-width="0" cx="647.557" cy="142.55" r="21.3333"/>
<circle fill="#a64b00" stroke="#a64b00" stroke-width="0" cx="337.425" cy="101.253" r="21.3333"/>
</svg>
