<?xml version="1.0" encoding="utf-8"?> <!-- Generator: Adobe Illustrator 13.0.0, SVG Export Plug-In . SVG Version: 6.00 Build 14948)  --> <svg version="1.2" baseProfile="tiny" id="Layer_1" xmlns="http://www.w3.org/2000/svg" xmlns:xlink="http://www.w3.org/1999/xlink" x="0px" y="0px" width="512px" height="512px" viewBox="0 0 512 512" xml:space="preserve">
<polygon points="0,0 512,0 512,512 0,512" style="fill:#ffffff; stroke:#000000;stroke-width:0"/>
<polygon points="-25.9656,177.608 15.9402,169.587 55.8978,378.331 13.9919,386.353" style="fill:#006363; stroke:#000000;stroke-width:0"/>
<circle fill="#006363" stroke="#006363" stroke-width="0" cx="-5.01268" cy="173.598" r="21.3333"/>
<circle fill="#006363" stroke="#006363" stroke-width="0" cx="34.9449" cy="382.342" r="21.3333"/>
<polygon points="448.887,125.951 488.426,109.917 567.951,306.019 528.412,322.054" style="fill:#006363; stroke:#000000;stroke-width:0"/>
<circle fill="#006363" stroke="#006363" stroke-width="0" cx="468.656" cy="117.934" r="21.3333"/>
<circle fill="#006363" stroke="#006363" stroke-width="0" cx="548.181" cy="314.037" r="21.3333"/>
<polygon points="1256,469.333 256,1469.33 -744,469.333" style="fill:#000000; stroke:#000000;stroke-width:0"/>
<polygon points="-744,42.6667 256,-957.333 1256,42.6667" style="fill:#000000; stroke:#000000;stroke-width:0"/>
<circle fill="#a64b00" stroke="#a64b00" stroke-width="0" cx="-5.01268" cy="173.598" r="21.3333"/>
<circle fill="#a64b00" stroke="#a64b00" stroke-width="0" cx="34.9449" cy="382.342" r="21.3333"/>
<circle fill="#a64b00" stroke="#a64b00" stroke-width="0" cx="468.656" cy="117.934" r="21.3333"/>
<circle fill="#a64b00" stroke="#a64b00" stroke-width="0" cx="548.181" cy="314.037" r="21.3333"/>
<circle fill="#a64b00" stroke="#a64b00" stroke-width="0" cx="336.356" cy="79.8076" r="21.3333"/>
</svg>
