<?xml version="1.0" encoding="utf-8"?> <!-- Generator: Adobe Illustrator 13.0.0, SVG Export Plug-In . SVG Version: 6.00 Build 14948)  --> <svg version="1.2" baseProfile="tiny" id="Layer_1" xmlns="http://www.w3.org/2000/svg" xmlns:xlink="http://www.w3.org/1999/xlink" x="0px" y="0px" width="512px" height="512px" viewBox="0 0 512 512" xml:space="preserve">
<polygon points="0,0 512,0 512,512 0,512" style="fill:#ffffff; stroke:#000000;stroke-width:0"/>
<polygon points="14.6878,142.092 57.3401,140.983 62.8978,354.708 20.2456,355.817" style="fill:#006363; stroke:#000000;stroke-width:0"/>
<circle fill="#006363" stroke="#006363" stroke-width="0" cx="36.014" cy="141.538" r="21.3333"/>
<circle fill="#006363" stroke="#006363" stroke-width="0" cx="41.5717" cy="355.262" r="21.3333"/>
<polygon points="451.724,139.341 494.362,137.77 502.205,350.705 459.567,352.276" style="fill:#006363; stroke:#000000;stroke-width:0"/>
<circle fill="#006363" stroke="#006363" stroke-width="0" cx="473.043" cy="138.555" r="21.3333"/>
<circle fill="#006363" stroke="#006363" stroke-width="0" cx="480.886" cy="351.49" r="21.3333"/>
<polygon points="1256,469.333 256,1469.33 -744,469.333" style="fill:#000000; stroke:#000000;stroke-width:0"/>
<polygon points="-744,42.6667 256,-957.333 1256,42.6667" style="fill:#000000; stroke:#000000;stroke-width:0"/>
<circle fill="#a64b00" stroke="#a64b00" stroke-width="0" cx="36.014" cy="141.538" r="21.3333"/>
<circle fill="#a64b00" stroke="#a64b00" stroke-width="0" cx="41.5717" cy="355.262" r="21.3333"/>
<circle fill="#a64b00" stroke="#a64b00" stroke-width="0" cx="473.043" cy="138.555" r="21.3333"/>
<circle fill="#a64b00" stroke="#a64b00" stroke-width="0" cx="480.886" cy="351.49" r="21.3333"/>
<circle fill="#a64b00" stroke="#a64b00" stroke-width="0" cx="421.848" cy="257.451" r="21.3333"/>
</svg>
