<?xml version="1.0" encoding="utf-8"?> <!-- Generator: Adobe Illustrator 13.0.0, SVG Export Plug-In . SVG Version: 6.00 Build 14948)  --> <svg version="1.2" baseProfile="tiny" id="Layer_1" xmlns="http://www.w3.org/2000/svg" xmlns:xlink="http://www.w3.org/1999/xlink" x="0px" y="0px" width="512px" height="512px" viewBox="0 0 512 512" xml:space="preserve">
<polygon points="0,0 512,0 512,512 0,512" style="fill:#ffffff; stroke:#000000;stroke-width:0"/>
<polygon points="-112.268,143.328 -89.7411,107.093 86.0476,216.378 63.5207,252.613" style="fill:#006363; stroke:#000000;stroke-width:0"/>
<circle fill="#006363" stroke="#006363" stroke-width="0" cx="-101.005" cy="125.21" r="21.3333"/>
<circle fill="#006363" stroke="#006363" stroke-width="0" cx="74.7841" cy="234.495" r="21.3333"/>
<polygon points="446.844,226.023 437.086,184.487 641.826,136.389 651.583,177.925" style="fill:#006363; stroke:#000000;stroke-width:0"/>
<circle fill="#006363" stroke="#006363" stroke-width="0" cx="441.965" cy="205.255" r="21.3333"/>
<circle fill="#006363" stroke="#006363" stroke-width="0" cx="646.705" cy="157.157" r="21.3333"/>
<polygon points="1256,469.333 256,1469.33 -744,469.333" style="fill:#000000; stroke:#000000;stroke-width:0"/>
<polygon points="-744,42.6667 256,-957.333 1256,42.6667" style="fill:#000000; stroke:#000000;stroke-width:0"/>
<circle fill="#a64b00" stroke="#a64b00" stroke-width="0" cx="-101.005" cy="125.21" r="21.3333"/>
<circle fill="#a64b00" stroke="#a64b00" stroke-width="0" cx="74.7841" cy="234.495" r="21.3333"/>
<circle fill="#a64b00" stroke="#a64b00" stroke-width="0" cx="441.965" cy="205.255" r="21.3333"/>
<circle fill="#a64b00" stroke="#a64b00" stroke-width="0" cx="646.705" cy="157.157" r="21.3333"/>
<circle fill="#a64b00" stroke="#a64b00" stroke-width="0" cx="208.408" cy="107.752" r="21.3333"/>
</svg>
