<?xml version="1.0" encoding="utf-8"?> <!-- Generator: Adobe Illustrator 13.0.0, SVG Export Plug-In . SVG Version: 6.00 Build 14948)  --> <svg version="1.2" baseProfile="tiny" id="Layer_1" xmlns="http://www.w3.org/2000/svg" xmlns:xlink="http://www.w3.org/1999/xlink" x="0px" y="0px" width="512px" height="512px" viewBox="0 0 512 512" xml:space="preserve">
<polygon points="0,0 512,0 512,512 0,512" style="fill:#ffffff; stroke:#000000;stroke-width:0"/>
<polygon points="-378.348,216.151 -399.299,178.983 -211.888,73.3429 -190.937,110.511" style="fill:#006363; stroke:#000000;stroke-width:0"/>
<circle fill="#006363" stroke="#006363" stroke-width="0" cx="-388.824" cy="197.567" r="21.3333"/>
<circle fill="#006363" stroke="#006363" stroke-width="0" cx="-201.412" cy="91.9271" r="21.3333"/>
<polygon points="831.135,235.702 871.662,222.361 939.789,429.317 899.262,442.658" style="fill:#006363; stroke:#000000;stroke-width:0"/>
<circle fill="#006363" stroke="#006363" stroke-width="0" cx="851.399" cy="229.032" r="21.3333"/>
<circle fill="#006363" stroke="#006363" stroke-width="0" cx="919.526" cy="435.988" r="21.3333"/>
<polygon points="1256,469.333 256,1469.33 -744,469.333" style="fill:#000000; stroke:#000000;stroke-width:0"/>
<polygon points="-744,42.6667 256,-957.333 1256,42.6667" style="fill:#000000; stroke:#000000;stroke-width:0"/>
<circle fill="#a64b00" stroke="#a64b00" stroke-width="0" cx="-388.824" cy="197.567" r="21.3333"/>
<circle fill="#a64b00" stroke="#a64b00" stroke-width="0" cx="-201.412" cy="91.9271" r="21.3333"/>
<circle fill="#a64b00" stroke="#a64b00" stroke-width="0" cx="851.399" cy="229.032" r="21.3333"/>
<circle fill="#a64b00" stroke="#a64b00" stroke-width="0" cx="919.526" cy="435.988" r="21.3333"/>
<circle fill="#a64b00" stroke="#a64b00" stroke-width="0" cx="-148.81" cy="363.968" r="21.3333"/>
</svg>
