<?xml version="1.0" encoding="utf-8"?> <!-- Generator: Adobe Illustrator 13.0.0, SVG Export Plug-In . SVG Version: 6.00 Build 14948)  --> <svg version="1.2" baseProfile="tiny" id="Layer_1" xmlns="http://www.w3.org/2000/svg" xmlns:xlink="http://www.w3.org/1999/xlink" x="0px" y="0px" width="512px" height="512px" viewBox="0 0 512 512" xml:space="preserve">
<polygon points="0,0 512,0 512,512 0,512" style="fill:#ffffff; stroke:#000000;stroke-width:0"/>
<polygon points="-72.8104,261.906 -75.4305,304.492 -280.802,291.857 -278.181,249.271" style="fill:#006363; stroke:#000000;stroke-width:0"/>
<circle fill="#006363" stroke="#006363" stroke-width="0" cx="-74.1204" cy="283.199" r="21.3333"/>
<circle fill="#006363" stroke="#006363" stroke-width="0" cx="-279.491" cy="270.564" r="21.3333"/>
<polygon points="735.58,294.82 694.307,284.004 747.923,79.409 789.196,90.2249" style="fill:#006363; stroke:#000000;stroke-width:0"/>
<circle fill="#006363" stroke="#006363" stroke-width="0" cx="714.944" cy="289.412" r="21.3333"/>
<circle fill="#006363" stroke="#006363" stroke-width="0" cx="768.559" cy="84.817" r="21.3333"/>
<polygon points="1256,469.333 256,1469.33 -744,469.333" style="fill:#000000; stroke:#000000;stroke-width:0"/>
<polygon points="-744,42.6667 256,-957.333 1256,42.6667" style="fill:#000000; stroke:#000000;stroke-width:0"/>
<circle fill="#a64b00" stroke="#a64b00" stroke-width="0" cx="-74.1204" cy="283.199" r="21.3333"/>
<circle fill="#a64b00" stroke="#a64b00" stroke-width="0" cx="-279.491" cy="270.564" r="21.3333"/>
<circle fill="#a64b00" stroke="#a64b00" stroke-width="0" cx="714.944" cy="289.412" r="21.3333"/>
<circle fill="#a64b00" stroke="#a64b00" stroke-width="0" cx="768.559" cy="84.817" r="21.3333"/>
<circle fill="#a64b00" stroke="#a64b00" stroke-width="0" cx="120.23" cy="144.536" r="21.3333"/>
</svg>
