<?xml version="1.0" encoding="utf-8"?> <!-- Generator: Adobe Illustrator 13.0.0, SVG Export Plug-In . SVG Version: 6.00 Build 14948)  --> <svg version="1.2" baseProfile="tiny" id="Layer_1" xmlns="http://www.w3.org/2000/svg" xmlns:xlink="http://www.w3.org/1999/xlink" x="0px" y="0px" width="512px" height="512px" viewBox="0 0 512 512" xml:space="preserve">
<polygon points="0,0 512,0 512,512 0,512" style="fill:#ffffff; stroke:#000000;stroke-width:0"/>
<polygon points="-51.6925,421.358 -64.8916,461.932 -273.063,394.211 -259.864,353.638" style="fill:#006363; stroke:#000000;stroke-width:0"/>
<circle fill="#006363" stroke="#006363" stroke-width="0" cx="-58.292" cy="441.645" r="21.3333"/>
<circle fill="#006363" stroke="#006363" stroke-width="0" cx="-266.463" cy="373.925" r="21.3333"/>
<polygon points="699.697,385.968 660.873,368.271 748.755,175.476 787.578,193.173" style="fill:#006363; stroke:#000000;stroke-width:0"/>
<circle fill="#006363" stroke="#006363" stroke-width="0" cx="680.285" cy="377.12" r="21.3333"/>
<circle fill="#006363" stroke="#006363" stroke-width="0" cx="768.167" cy="184.324" r="21.3333"/>
<polygon points="1256,469.333 256,1469.33 -744,469.333" style="fill:#000000; stroke:#000000;stroke-width:0"/>
<polygon points="-744,42.6667 256,-957.333 1256,42.6667" style="fill:#000000; stroke:#000000;stroke-width:0"/>
<circle fill="#a64b00" stroke="#a64b00" stroke-width="0" cx="-58.292" cy="441.645" r="21.3333"/>
<circle fill="#a64b00" stroke="#a64b00" stroke-width="0" cx="-266.463" cy="373.925" r="21.3333"/>
<circle fill="#a64b00" stroke="#a64b00" stroke-width="0" cx="680.285" cy="377.12" r="21.3333"/>
<circle fill="#a64b00" stroke="#a64b00" stroke-width="0" cx="768.167" cy="184.324" r="21.3333"/>
<circle fill="#a64b00" stroke="#a64b00" stroke-width="0" cx="153.04" cy="402.13" r="21.3333"/>
</svg>
