<?xml version="1.0" encoding="utf-8"?> <!-- Generator: Adobe Illustrator 13.0.0, SVG Export Plug-In . SVG Version: 6.00 Build 14948)  --> <svg version="1.2" baseProfile="tiny" id="Layer_1" xmlns="http://www.w3.org/2000/svg" xmlns:xlink="http://www.w3.org/1999/xlink" x="0px" y="0px" width="512px" height="512px" viewBox="0 0 512 512" xml:space="preserve">
<polygon points="0,0 512,0 512,512 0,512" style="fill:#ffffff; stroke:#000000;stroke-width:0"/>
<polygon points="-106.52,99.3055 -64.1763,94.0672 -37.75,307.684 -80.0939,312.923" style="fill:#006363; stroke:#000000;stroke-width:0"/>
<circle fill="#006363" stroke="#006363" stroke-width="0" cx="-85.3483" cy="96.6864" r="21.3333"/>
<circle fill="#006363" stroke="#006363" stroke-width="0" cx="-58.9219" cy="310.303" r="21.3333"/>
<polygon points="716.879,222.852 721.554,265.262 512.342,288.323 507.667,245.913" style="fill:#006363; stroke:#000000;stroke-width:0"/>
<circle fill="#006363" stroke="#006363" stroke-width="0" cx="719.216" cy="244.057" r="21.3333"/>
<circle fill="#006363" stroke="#006363" stroke-width="0" cx="510.005" cy="267.118" r="21.3333"/>
<polygon points="1256,469.333 256,1469.33 -744,469.333" style="fill:#000000; stroke:#000000;stroke-width:0"/>
<polygon points="-744,42.6667 256,-957.333 1256,42.6667" style="fill:#000000; stroke:#000000;stroke-width:0"/>
<circle fill="#a64b00" stroke="#a64b00" stroke-width="0" cx="-85.3483" cy="96.6864" r="21.3333"/>
<circle fill="#a64b00" stroke="#a64b00" stroke-width="0" cx="-58.9219" cy="310.303" r="21.3333"/>
<circle fill="#a64b00" stroke="#a64b00" stroke-width="0" cx="719.216" cy="244.057" r="21.3333"/>
<circle fill="#a64b00" stroke="#a64b00" stroke-width="0" cx="510.005" cy="267.118" r="21.3333"/>
<circle fill="#a64b00" stroke="#a64b00" stroke-width="0" cx="358.25" cy="249.482" r="21.3333"/>
</svg>
