<?xml version="1.0" encoding="utf-8"?> <!-- Generator: Adobe Illustrator 13.0.0, SVG Export Plug-In . SVG Version: 6.00 Build 14948)  --> <svg version="1.2" baseProfile="tiny" id="Layer_1" xmlns="http://www.w3.org/2000/svg" xmlns:xlink="http://www.w3.org/1999/xlink" x="0px" y="0px" width="512px" height="512px" viewBox="0 0 512 512" xml:space="preserve">
<polygon points="0,0 512,0 512,512 0,512" style="fill:#ffffff; stroke:#000000;stroke-width:0"/>
<polygon points="13.2782,124.869 55.9235,123.521 62.6323,335.664 19.987,337.013" style="fill:#006363; stroke:#000000;stroke-width:0"/>
<circle fill="#006363" stroke="#006363" stroke-width="0" cx="34.6009" cy="124.195" r="21.3333"/>
<circle fill="#006363" stroke="#006363" stroke-width="0" cx="41.3096" cy="336.338" r="21.3333"/>
<polygon points="452.724,153.974 495.352,152.14 504.546,365.866 461.919,367.7" style="fill:#006363; stroke:#000000;stroke-width:0"/>
<circle fill="#006363" stroke="#006363" stroke-width="0" cx="474.038" cy="153.057" r="21.3333"/>
<circle fill="#006363" stroke="#006363" stroke-width="0" cx="483.233" cy="366.783" r="21.3333"/>
<polygon points="1256,469.333 256,1469.33 -744,469.333" style="fill:#000000; stroke:#000000;stroke-width:0"/>
<polygon points="-744,42.6667 256,-957.333 1256,42.6667" style="fill:#000000; stroke:#000000;stroke-width:0"/>
<circle fill="#a64b00" stroke="#a64b00" stroke-width="0" cx="34.6009" cy="124.195" r="21.3333"/>
<circle fill="#a64b00" stroke="#a64b00" stroke-width="0" cx="41.3096" cy="336.338" r="21.3333"/>
<circle fill="#a64b00" stroke="#a64b00" stroke-width="0" cx="474.038" cy="153.057" r="21.3333"/>
<circle fill="#a64b00" stroke="#a64b00" stroke-width="0" cx="483.233" cy="366.783" r="21.3333"/>
<circle fill="#a64b00" stroke="#a64b00" stroke-width="0" cx="340.552" cy="263.255" r="21.3333"/>
</svg>
