<?xml version="1.0" encoding="utf-8"?> <!-- Generator: Adobe Illustrator 13.0.0, SVG Export Plug-In . SVG Version: 6.00 Build 14948)  --> <svg version="1.2" baseProfile="tiny" id="Layer_1" xmlns="http://www.w3.org/2000/svg" xmlns:xlink="http://www.w3.org/1999/xlink" x="0px" y="0px" width="512px" height="512px" viewBox="0 0 512 512" xml:space="preserve">
<polygon points="0,0 512,0 512,512 0,512" style="fill:#ffffff; stroke:#000000;stroke-width:0"/>
<polygon points="-112.994,78.6739 -70.7664,72.5675 -40.7203,280.345 -82.9478,286.451" style="fill:#006363; stroke:#000000;stroke-width:0"/>
<circle fill="#006363" stroke="#006363" stroke-width="0" cx="-91.8801" cy="75.6207" r="21.3333"/>
<circle fill="#006363" stroke="#006363" stroke-width="0" cx="-61.8341" cy="283.398" r="21.3333"/>
<polygon points="711.604,205.367 726.35,245.404 529.088,318.056 514.342,278.018" style="fill:#006363; stroke:#000000;stroke-width:0"/>
<circle fill="#006363" stroke="#006363" stroke-width="0" cx="718.977" cy="225.385" r="21.3333"/>
<circle fill="#006363" stroke="#006363" stroke-width="0" cx="521.715" cy="298.037" r="21.3333"/>
<polygon points="1256,469.333 256,1469.33 -744,469.333" style="fill:#000000; stroke:#000000;stroke-width:0"/>
<polygon points="-744,42.6667 256,-957.333 1256,42.6667" style="fill:#000000; stroke:#000000;stroke-width:0"/>
<circle fill="#a64b00" stroke="#a64b00" stroke-width="0" cx="-91.8801" cy="75.6207" r="21.3333"/>
<circle fill="#a64b00" stroke="#a64b00" stroke-width="0" cx="-61.8341" cy="283.398" r="21.3333"/>
<circle fill="#a64b00" stroke="#a64b00" stroke-width="0" cx="718.977" cy="225.385" r="21.3333"/>
<circle fill="#a64b00" stroke="#a64b00" stroke-width="0" cx="521.715" cy="298.037" r="21.3333"/>
<circle fill="#a64b00" stroke="#a64b00" stroke-width="0" cx="347.513" cy="421.212" r="21.3333"/>
</svg>
