<?xml version="1.0" encoding="utf-8"?> <!-- Generator: Adobe Illustrator 13.0.0, SVG Export Plug-In . SVG Version: 6.00 Build 14948)  --> <svg version="1.2" baseProfile="tiny" id="Layer_1" xmlns="http://www.w3.org/2000/svg" xmlns:xlink="http://www.w3.org/1999/xlink" x="0px" y="0px" width="512px" height="512px" viewBox="0 0 512 512" xml:space="preserve">
<polygon points="0,0 512,0 512,512 0,512" style="fill:#ffffff; stroke:#000000;stroke-width:0"/>
<polygon points="-138.051,99.4549 -135.045,56.8943 78.7768,71.9969 75.7707,114.558" style="fill:#006363; stroke:#000000;stroke-width:0"/>
<circle fill="#006363" stroke="#006363" stroke-width="0" cx="-136.548" cy="78.1746" r="21.3333"/>
<circle fill="#006363" stroke="#006363" stroke-width="0" cx="77.2737" cy="93.2772" r="21.3333"/>
<polygon points="529.897,304.552 492.545,283.93 596.082,96.3949 633.434,117.017" style="fill:#006363; stroke:#000000;stroke-width:0"/>
<circle fill="#006363" stroke="#006363" stroke-width="0" cx="511.221" cy="294.241" r="21.3333"/>
<circle fill="#006363" stroke="#006363" stroke-width="0" cx="614.758" cy="106.706" r="21.3333"/>
<polygon points="1256,469.333 256,1469.33 -744,469.333" style="fill:#000000; stroke:#000000;stroke-width:0"/>
<polygon points="-744,42.6667 256,-957.333 1256,42.6667" style="fill:#000000; stroke:#000000;stroke-width:0"/>
<circle fill="#a64b00" stroke="#a64b00" stroke-width="0" cx="-136.548" cy="78.1746" r="21.3333"/>
<circle fill="#a64b00" stroke="#a64b00" stroke-width="0" cx="77.2737" cy="93.2772" r="21.3333"/>
<circle fill="#a64b00" stroke="#a64b00" stroke-width="0" cx="511.221" cy="294.241" r="21.3333"/>
<circle fill="#a64b00" stroke="#a64b00" stroke-width="0" cx="614.758" cy="106.706" r="21.3333"/>
<circle fill="#a64b00" stroke="#a64b00" stroke-width="0" cx="454.89" cy="268.563" r="21.3333"/>
</svg>
