<?xml version="1.0" encoding="utf-8"?> <!-- Generator: Adobe Illustrator 13.0.0, SVG Export Plug-In . SVG Version: 6.00 Build 14948)  --> <svg version="1.2" baseProfile="tiny" id="Layer_1" xmlns="http://www.w3.org/2000/svg" xmlns:xlink="http://www.w3.org/1999/xlink" x="0px" y="0px" width="512px" height="512px" viewBox="0 0 512 512" xml:space="preserve">
<polygon points="0,0 512,0 512,512 0,512" style="fill:#ffffff; stroke:#000000;stroke-width:0"/>
<polygon points="-130.909,93.021 -124.81,50.7925 82.6528,80.7555 76.5539,122.984" style="fill:#006363; stroke:#000000;stroke-width:0"/>
<circle fill="#006363" stroke="#006363" stroke-width="0" cx="-127.86" cy="71.9068" r="21.3333"/>
<circle fill="#006363" stroke="#006363" stroke-width="0" cx="79.6034" cy="101.87" r="21.3333"/>
<polygon points="496.429,282.876 466.358,252.607 616.167,103.782 646.237,134.051" style="fill:#006363; stroke:#000000;stroke-width:0"/>
<circle fill="#006363" stroke="#006363" stroke-width="0" cx="481.394" cy="267.742" r="21.3333"/>
<circle fill="#006363" stroke="#006363" stroke-width="0" cx="631.202" cy="118.916" r="21.3333"/>
<polygon points="1256,469.333 256,1469.33 -744,469.333" style="fill:#000000; stroke:#000000;stroke-width:0"/>
<polygon points="-744,42.6667 256,-957.333 1256,42.6667" style="fill:#000000; stroke:#000000;stroke-width:0"/>
<circle fill="#a64b00" stroke="#a64b00" stroke-width="0" cx="-127.86" cy="71.9068" r="21.3333"/>
<circle fill="#a64b00" stroke="#a64b00" stroke-width="0" cx="79.6034" cy="101.87" r="21.3333"/>
<circle fill="#a64b00" stroke="#a64b00" stroke-width="0" cx="481.394" cy="267.742" r="21.3333"/>
<circle fill="#a64b00" stroke="#a64b00" stroke-width="0" cx="631.202" cy="118.916" r="21.3333"/>
<circle fill="#a64b00" stroke="#a64b00" stroke-width="0" cx="467.418" cy="68.2121" r="21.3333"/>
</svg>
