<?xml version="1.0" encoding="utf-8"?> <!-- Generator: Adobe Illustrator 13.0.0, SVG Export Plug-In . SVG Version: 6.00 Build 14948)  --> <svg version="1.2" baseProfile="tiny" id="Layer_1" xmlns="http://www.w3.org/2000/svg" xmlns:xlink="http://www.w3.org/1999/xlink" x="0px" y="0px" width="512px" height="512px" viewBox="0 0 512 512" xml:space="preserve">
<polygon points="0,0 512,0 512,512 0,512" style="fill:#ffffff; stroke:#000000;stroke-width:0"/>
<polygon points="21.3333,172.8 64,172.8 64,386.133 21.3333,386.133" style="fill:#006363; stroke:#000000;stroke-width:0"/>
<circle fill="#006363" stroke="#006363" stroke-width="0" cx="42.6667" cy="172.8" r="21.3333"/>
<circle fill="#006363" stroke="#006363" stroke-width="0" cx="42.6667" cy="386.133" r="21.3333"/>
<polygon points="448,125.867 490.667,125.867 490.667,339.2 448,339.2" style="fill:#006363; stroke:#000000;stroke-width:0"/>
<circle fill="#006363" stroke="#006363" stroke-width="0" cx="469.333" cy="125.867" r="21.3333"/>
<circle fill="#006363" stroke="#006363" stroke-width="0" cx="469.333" cy="339.2" r="21.3333"/>
<polygon points="1256,469.333 256,1469.33 -744,469.333" style="fill:#000000; stroke:#000000;stroke-width:0"/>
<polygon points="-744,42.6667 256,-957.333 1256,42.6667" style="fill:#000000; stroke:#000000;stroke-width:0"/>
<circle fill="#a64b00" stroke="#a64b00" stroke-width="0" cx="42.6667" cy="172.8" r="21.3333"/>
<circle fill="#a64b00" stroke="#a64b00" stroke-width="0" cx="42.6667" cy="386.133" r="21.3333"/>
<circle fill="#a64b00" stroke="#a64b00" stroke-width="0" cx="469.333" cy="125.867" r="21.3333"/>
<circle fill="#a64b00" stroke="#a64b00" stroke-width="0" cx="469.333" cy="339.2" r="21.3333"/>
<circle fill="#a64b00" stroke="#a64b00" stroke-width="0" cx="373.333" cy="256" r="21.3333"/>
</svg>
