<?xml version="1.0" encoding="utf-8"?> <!-- Generator: Adobe Illustrator 13.0.0, SVG Export Plug-In . SVG Version: 6.00 Build 14948)  --> <svg version="1.2" baseProfile="tiny" id="Layer_1" xmlns="http://www.w3.org/2000/svg" xmlns:xlink="http://www.w3.org/1999/xlink" x="0px" y="0px" width="512px" height="512px" viewBox="0 0 512 512" xml:space="preserve">
<polygon points="0,0 512,0 512,512 0,512" style="fill:#ffffff; stroke:#000000;stroke-width:0"/>
<polygon points="-103.298,106.47 -109.463,148.689 -320.619,117.853 -314.454,75.6338" style="fill:#006363; stroke:#000000;stroke-width:0"/>
<circle fill="#006363" stroke="#006363" stroke-width="0" cx="-106.38" cy="127.58" r="21.3333"/>
<circle fill="#006363" stroke="#006363" stroke-width="0" cx="-317.537" cy="96.7432" r="21.3333"/>
<polygon points="751.402,383.259 714.246,362.285 817.499,179.376 854.655,200.351" style="fill:#006363; stroke:#000000;stroke-width:0"/>
<circle fill="#006363" stroke="#006363" stroke-width="0" cx="732.824" cy="372.772" r="21.3333"/>
<circle fill="#006363" stroke="#006363" stroke-width="0" cx="836.077" cy="189.863" r="21.3333"/>
<polygon points="1256,469.333 256,1469.33 -744,469.333" style="fill:#000000; stroke:#000000;stroke-width:0"/>
<polygon points="-744,42.6667 256,-957.333 1256,42.6667" style="fill:#000000; stroke:#000000;stroke-width:0"/>
<circle fill="#a64b00" stroke="#a64b00" stroke-width="0" cx="-106.38" cy="127.58" r="21.3333"/>
<circle fill="#a64b00" stroke="#a64b00" stroke-width="0" cx="-317.537" cy="96.7432" r="21.3333"/>
<circle fill="#a64b00" stroke="#a64b00" stroke-width="0" cx="732.824" cy="372.772" r="21.3333"/>
<circle fill="#a64b00" stroke="#a64b00" stroke-width="0" cx="836.077" cy="189.863" r="21.3333"/>
<circle fill="#a64b00" stroke="#a64b00" stroke-width="0" cx="40.2936" cy="259.023" r="21.3333"/>
</svg>
