<?xml version="1.0" encoding="utf-8"?> <!-- Generator: Adobe Illustrator 13.0.0, SVG Export Plug-In . SVG Version: 6.00 Build 14948)  --> <svg version="1.2" baseProfile="tiny" id="Layer_1" xmlns="http://www.w3.org/2000/svg" xmlns:xlink="http://www.w3.org/1999/xlink" x="0px" y="0px" width="512px" height="512px" viewBox="0 0 512 512" xml:space="preserve">
<polygon points="0,0 512,0 512,512 0,512" style="fill:#ffffff; stroke:#000000;stroke-width:0"/>
<polygon points="-55.6331,359.011 -65.7884,400.452 -282.239,347.409 -272.084,305.969" style="fill:#006363; stroke:#000000;stroke-width:0"/>
<circle fill="#006363" stroke="#006363" stroke-width="0" cx="-60.7107" cy="379.732" r="21.3333"/>
<circle fill="#006363" stroke="#006363" stroke-width="0" cx="-277.161" cy="326.689" r="21.3333"/>
<polygon points="715.504,346.141 675.422,331.516 748.88,130.205 788.962,144.831" style="fill:#006363; stroke:#000000;stroke-width:0"/>
<circle fill="#006363" stroke="#006363" stroke-width="0" cx="695.463" cy="338.828" r="21.3333"/>
<circle fill="#006363" stroke="#006363" stroke-width="0" cx="768.921" cy="137.518" r="21.3333"/>
<polygon points="1256,469.333 256,1469.33 -744,469.333" style="fill:#000000; stroke:#000000;stroke-width:0"/>
<polygon points="-744,42.6667 256,-957.333 1256,42.6667" style="fill:#000000; stroke:#000000;stroke-width:0"/>
<circle fill="#a64b00" stroke="#a64b00" stroke-width="0" cx="-60.7107" cy="379.732" r="21.3333"/>
<circle fill="#a64b00" stroke="#a64b00" stroke-width="0" cx="-277.161" cy="326.689" r="21.3333"/>
<circle fill="#a64b00" stroke="#a64b00" stroke-width="0" cx="695.463" cy="338.828" r="21.3333"/>
<circle fill="#a64b00" stroke="#a64b00" stroke-width="0" cx="768.921" cy="137.518" r="21.3333"/>
<circle fill="#a64b00" stroke="#a64b00" stroke-width="0" cx="138.127" cy="259.023" r="21.3333"/>
</svg>
