<?xml version="1.0" encoding="utf-8"?> <!-- Generator: Adobe Illustrator 13.0.0, SVG Export Plug-In . SVG Version: 6.00 Build 14948)  --> <svg version="1.2" baseProfile="tiny" id="Layer_1" xmlns="http://www.w3.org/2000/svg" xmlns:xlink="http://www.w3.org/1999/xlink" x="0px" y="0px" width="512px" height="512px" viewBox="0 0 512 512" xml:space="preserve">
<polygon points="0,0 512,0 512,512 0,512" style="fill:#ffffff; stroke:#000000;stroke-width:0"/>
<polygon points="-75.8969,195.065 -73.0939,237.64 -288.733,251.837 -291.536,209.262" style="fill:#006363; stroke:#000000;stroke-width:0"/>
<circle fill="#006363" stroke="#006363" stroke-width="0" cx="-74.4954" cy="216.352" r="21.3333"/>
<circle fill="#006363" stroke="#006363" stroke-width="0" cx="-290.134" cy="230.55" r="21.3333"/>
<polygon points="743.586,284.597 702.202,274.214 753.301,70.5512 794.685,80.9345" style="fill:#006363; stroke:#000000;stroke-width:0"/>
<circle fill="#006363" stroke="#006363" stroke-width="0" cx="722.894" cy="279.405" r="21.3333"/>
<circle fill="#006363" stroke="#006363" stroke-width="0" cx="773.993" cy="75.7429" r="21.3333"/>
<polygon points="1256,469.333 256,1469.33 -744,469.333" style="fill:#000000; stroke:#000000;stroke-width:0"/>
<polygon points="-744,42.6667 256,-957.333 1256,42.6667" style="fill:#000000; stroke:#000000;stroke-width:0"/>
<circle fill="#a64b00" stroke="#a64b00" stroke-width="0" cx="-74.4954" cy="216.352" r="21.3333"/>
<circle fill="#a64b00" stroke="#a64b00" stroke-width="0" cx="-290.134" cy="230.55" r="21.3333"/>
<circle fill="#a64b00" stroke="#a64b00" stroke-width="0" cx="722.894" cy="279.405" r="21.3333"/>
<circle fill="#a64b00" stroke="#a64b00" stroke-width="0" cx="773.993" cy="75.7429" r="21.3333"/>
<circle fill="#a64b00" stroke="#a64b00" stroke-width="0" cx="107.703" cy="344.887" r="21.3333"/>
</svg>
