<?xml version="1.0" encoding="utf-8"?> <!-- Generator: Adobe Illustrator 13.0.0, SVG Export Plug-In . SVG Version: 6.00 Build 14948)  --> <svg version="1.2" baseProfile="tiny" id="Layer_1" xmlns="http://www.w3.org/2000/svg" xmlns:xlink="http://www.w3.org/1999/xlink" x="0px" y="0px" width="512px" height="512px" viewBox="0 0 512 512" xml:space="preserve">
<polygon points="0,0 512,0 512,512 0,512" style="fill:#ffffff; stroke:#000000;stroke-width:0"/>
<polygon points="-15.6715,146.921 26.5252,140.605 57.2422,345.848 15.0455,352.163" style="fill:#006363; stroke:#000000;stroke-width:0"/>
<circle fill="#006363" stroke="#006363" stroke-width="0" cx="5.42686" cy="143.763" r="21.3333"/>
<circle fill="#006363" stroke="#006363" stroke-width="0" cx="36.1438" cy="349.005" r="21.3333"/>
<polygon points="451.539,165.572 492.659,154.189 549.868,360.861 508.748,372.244" style="fill:#006363; stroke:#000000;stroke-width:0"/>
<circle fill="#006363" stroke="#006363" stroke-width="0" cx="472.099" cy="159.881" r="21.3333"/>
<circle fill="#006363" stroke="#006363" stroke-width="0" cx="529.308" cy="366.552" r="21.3333"/>
<polygon points="1256,469.333 256,1469.33 -744,469.333" style="fill:#000000; stroke:#000000;stroke-width:0"/>
<polygon points="-744,42.6667 256,-957.333 1256,42.6667" style="fill:#000000; stroke:#000000;stroke-width:0"/>
<circle fill="#a64b00" stroke="#a64b00" stroke-width="0" cx="5.42686" cy="143.763" r="21.3333"/>
<circle fill="#a64b00" stroke="#a64b00" stroke-width="0" cx="36.1438" cy="349.005" r="21.3333"/>
<circle fill="#a64b00" stroke="#a64b00" stroke-width="0" cx="472.099" cy="159.881" r="21.3333"/>
<circle fill="#a64b00" stroke="#a64b00" stroke-width="0" cx="529.308" cy="366.552" r="21.3333"/>
<circle fill="#a64b00" stroke="#a64b00" stroke-width="0" cx="406.233" cy="258.299" r="21.3333"/>
</svg>
