<?xml version="1.0" encoding="utf-8"?> <!-- Generator: Adobe Illustrator 13.0.0, SVG Export Plug-In . SVG Version: 6.00 Build 14948)  --> <svg version="1.2" baseProfile="tiny" id="Layer_1" xmlns="http://www.w3.org/2000/svg" xmlns:xlink="http://www.w3.org/1999/xlink" x="0px" y="0px" width="512px" height="512px" viewBox="0 0 512 512" xml:space="preserve">
<polygon points="0,0 512,0 512,512 0,512" style="fill:#ffffff; stroke:#000000;stroke-width:0"/>
<polygon points="-166.27,277.608 -201.57,253.642 -82.9335,78.8974 -47.6335,102.863" style="fill:#006363; stroke:#000000;stroke-width:0"/>
<circle fill="#006363" stroke="#006363" stroke-width="0" cx="-183.92" cy="265.625" r="21.3333"/>
<circle fill="#006363" stroke="#006363" stroke-width="0" cx="-65.2835" cy="90.8802" r="21.3333"/>
<polygon points="571.97,309.379 585.929,269.061 784.71,337.879 770.752,378.197" style="fill:#006363; stroke:#000000;stroke-width:0"/>
<circle fill="#006363" stroke="#006363" stroke-width="0" cx="578.949" cy="289.22" r="21.3333"/>
<circle fill="#006363" stroke="#006363" stroke-width="0" cx="777.731" cy="358.038" r="21.3333"/>
<polygon points="1256,469.333 256,1469.33 -744,469.333" style="fill:#000000; stroke:#000000;stroke-width:0"/>
<polygon points="-744,42.6667 256,-957.333 1256,42.6667" style="fill:#000000; stroke:#000000;stroke-width:0"/>
<circle fill="#a64b00" stroke="#a64b00" stroke-width="0" cx="-183.92" cy="265.625" r="21.3333"/>
<circle fill="#a64b00" stroke="#a64b00" stroke-width="0" cx="-65.2835" cy="90.8802" r="21.3333"/>
<circle fill="#a64b00" stroke="#a64b00" stroke-width="0" cx="578.949" cy="289.22" r="21.3333"/>
<circle fill="#a64b00" stroke="#a64b00" stroke-width="0" cx="777.731" cy="358.038" r="21.3333"/>
<circle fill="#a64b00" stroke="#a64b00" stroke-width="0" cx="238.942" cy="306.725" r="21.3333"/>
</svg>
