<?xml version="1.0" encoding="utf-8"?> <!-- Generator: Adobe Illustrator 13.0.0, SVG Export Plug-In . SVG Version: 6.00 Build 14948)  --> <svg version="1.2" baseProfile="tiny" id="Layer_1" xmlns="http://www.w3.org/2000/svg" xmlns:xlink="http://www.w3.org/1999/xlink" x="0px" y="0px" width="512px" height="512px" viewBox="0 0 512 512" xml:space="preserve">
<polygon points="0,0 512,0 512,512 0,512" style="fill:#ffffff; stroke:#000000;stroke-width:0"/>
<polygon points="-204.611,355.828 -241.298,377.613 -352.046,191.104 -315.36,169.32" style="fill:#006363; stroke:#000000;stroke-width:0"/>
<circle fill="#006363" stroke="#006363" stroke-width="0" cx="-222.955" cy="366.72" r="21.3333"/>
<circle fill="#006363" stroke="#006363" stroke-width="0" cx="-333.703" cy="180.212" r="21.3333"/>
<polygon points="770.468,296.446 796.477,262.623 959.669,388.11 933.661,421.933" style="fill:#006363; stroke:#000000;stroke-width:0"/>
<circle fill="#006363" stroke="#006363" stroke-width="0" cx="783.473" cy="279.535" r="21.3333"/>
<circle fill="#006363" stroke="#006363" stroke-width="0" cx="946.665" cy="405.022" r="21.3333"/>
<polygon points="1256,469.333 256,1469.33 -744,469.333" style="fill:#000000; stroke:#000000;stroke-width:0"/>
<polygon points="-744,42.6667 256,-957.333 1256,42.6667" style="fill:#000000; stroke:#000000;stroke-width:0"/>
<circle fill="#a64b00" stroke="#a64b00" stroke-width="0" cx="-222.955" cy="366.72" r="21.3333"/>
<circle fill="#a64b00" stroke="#a64b00" stroke-width="0" cx="-333.703" cy="180.212" r="21.3333"/>
<circle fill="#a64b00" stroke="#a64b00" stroke-width="0" cx="783.473" cy="279.535" r="21.3333"/>
<circle fill="#a64b00" stroke="#a64b00" stroke-width="0" cx="946.665" cy="405.022" r="21.3333"/>
<circle fill="#a64b00" stroke="#a64b00" stroke-width="0" cx="-110.631" cy="192.239" r="21.3333"/>
</svg>
