<?xml version="1.0" encoding="utf-8"?> <!-- Generator: Adobe Illustrator 13.0.0, SVG Export Plug-In . SVG Version: 6.00 Build 14948)  --> <svg version="1.2" baseProfile="tiny" id="Layer_1" xmlns="http://www.w3.org/2000/svg" xmlns:xlink="http://www.w3.org/1999/xlink" x="0px" y="0px" width="512px" height="512px" viewBox="0 0 512 512" xml:space="preserve">
<polygon points="0,0 512,0 512,512 0,512" style="fill:#ffffff; stroke:#000000;stroke-width:0"/>
<polygon points="-100.873,238.525 -58.8254,231.281 -22.9357,439.591 -64.9828,446.836" style="fill:#006363; stroke:#000000;stroke-width:0"/>
<circle fill="#006363" stroke="#006363" stroke-width="0" cx="-79.849" cy="234.903" r="21.3333"/>
<circle fill="#006363" stroke="#006363" stroke-width="0" cx="-43.9593" cy="443.214" r="21.3333"/>
<polygon points="709.788,266.538 692.546,305.565 494.578,218.1 511.821,179.073" style="fill:#006363; stroke:#000000;stroke-width:0"/>
<circle fill="#006363" stroke="#006363" stroke-width="0" cx="701.167" cy="286.052" r="21.3333"/>
<circle fill="#006363" stroke="#006363" stroke-width="0" cx="503.199" cy="198.587" r="21.3333"/>
<polygon points="1256,469.333 256,1469.33 -744,469.333" style="fill:#000000; stroke:#000000;stroke-width:0"/>
<polygon points="-744,42.6667 256,-957.333 1256,42.6667" style="fill:#000000; stroke:#000000;stroke-width:0"/>
<circle fill="#a64b00" stroke="#a64b00" stroke-width="0" cx="-79.849" cy="234.903" r="21.3333"/>
<circle fill="#a64b00" stroke="#a64b00" stroke-width="0" cx="-43.9593" cy="443.214" r="21.3333"/>
<circle fill="#a64b00" stroke="#a64b00" stroke-width="0" cx="701.167" cy="286.052" r="21.3333"/>
<circle fill="#a64b00" stroke="#a64b00" stroke-width="0" cx="503.199" cy="198.587" r="21.3333"/>
<circle fill="#a64b00" stroke="#a64b00" stroke-width="0" cx="381.516" cy="239.942" r="21.3333"/>
</svg>
