<?xml version="1.0" encoding="utf-8"?> <!-- Generator: Adobe Illustrator 13.0.0, SVG Export Plug-In . SVG Version: 6.00 Build 14948)  --> <svg version="1.2" baseProfile="tiny" id="Layer_1" xmlns="http://www.w3.org/2000/svg" xmlns:xlink="http://www.w3.org/1999/xlink" x="0px" y="0px" width="512px" height="512px" viewBox="0 0 512 512" xml:space="preserve">
<polygon points="0,0 512,0 512,512 0,512" style="fill:#ffffff; stroke:#000000;stroke-width:0"/>
<polygon points="-125.092,112.074 -112.472,71.3167 85.2303,132.532 72.6102,173.29" style="fill:#006363; stroke:#000000;stroke-width:0"/>
<circle fill="#006363" stroke="#006363" stroke-width="0" cx="-118.782" cy="91.6954" r="21.3333"/>
<circle fill="#006363" stroke="#006363" stroke-width="0" cx="78.9202" cy="152.911" r="21.3333"/>
<polygon points="474.045,262.453 451.118,226.47 628.459,113.479 651.385,149.462" style="fill:#006363; stroke:#000000;stroke-width:0"/>
<circle fill="#006363" stroke="#006363" stroke-width="0" cx="462.582" cy="244.462" r="21.3333"/>
<circle fill="#006363" stroke="#006363" stroke-width="0" cx="639.922" cy="131.47" r="21.3333"/>
<polygon points="1256,469.333 256,1469.33 -744,469.333" style="fill:#000000; stroke:#000000;stroke-width:0"/>
<polygon points="-744,42.6667 256,-957.333 1256,42.6667" style="fill:#000000; stroke:#000000;stroke-width:0"/>
<circle fill="#a64b00" stroke="#a64b00" stroke-width="0" cx="-118.782" cy="91.6954" r="21.3333"/>
<circle fill="#a64b00" stroke="#a64b00" stroke-width="0" cx="78.9202" cy="152.911" r="21.3333"/>
<circle fill="#a64b00" stroke="#a64b00" stroke-width="0" cx="462.582" cy="244.462" r="21.3333"/>
<circle fill="#a64b00" stroke="#a64b00" stroke-width="0" cx="639.922" cy="131.47" r="21.3333"/>
<circle fill="#a64b00" stroke="#a64b00" stroke-width="0" cx="466.441" cy="185.74" r="21.3333"/>
</svg>
