<?xml version="1.0" encoding="utf-8"?> <!-- Generator: Adobe Illustrator 13.0.0, SVG Export Plug-In . SVG Version: 6.00 Build 14948)  --> <svg version="1.2" baseProfile="tiny" id="Layer_1" xmlns="http://www.w3.org/2000/svg" xmlns:xlink="http://www.w3.org/1999/xlink" x="0px" y="0px" width="512px" height="512px" viewBox="0 0 512 512" xml:space="preserve">
<polygon points="0,0 512,0 512,512 0,512" style="fill:#ffffff; stroke:#000000;stroke-width:0"/>
<polygon points="-42.5224,226.652 -1.21425,215.971 53.9936,429.491 12.6854,440.171" style="fill:#006363; stroke:#000000;stroke-width:0"/>
<circle fill="#006363" stroke="#006363" stroke-width="0" cx="-21.8684" cy="221.312" r="21.3333"/>
<circle fill="#006363" stroke="#006363" stroke-width="0" cx="33.3395" cy="434.831" r="21.3333"/>
<polygon points="439.472,86.3137 473.469,60.5328 601.841,229.816 567.844,255.596" style="fill:#006363; stroke:#000000;stroke-width:0"/>
<circle fill="#006363" stroke="#006363" stroke-width="0" cx="456.471" cy="73.4232" r="21.3333"/>
<circle fill="#006363" stroke="#006363" stroke-width="0" cx="584.843" cy="242.706" r="21.3333"/>
<polygon points="1256,469.333 256,1469.33 -744,469.333" style="fill:#000000; stroke:#000000;stroke-width:0"/>
<polygon points="-744,42.6667 256,-957.333 1256,42.6667" style="fill:#000000; stroke:#000000;stroke-width:0"/>
<circle fill="#a64b00" stroke="#a64b00" stroke-width="0" cx="-21.8684" cy="221.312" r="21.3333"/>
<circle fill="#a64b00" stroke="#a64b00" stroke-width="0" cx="33.3395" cy="434.831" r="21.3333"/>
<circle fill="#a64b00" stroke="#a64b00" stroke-width="0" cx="456.471" cy="73.4232" r="21.3333"/>
<circle fill="#a64b00" stroke="#a64b00" stroke-width="0" cx="584.843" cy="242.706" r="21.3333"/>
<circle fill="#a64b00" stroke="#a64b00" stroke-width="0" cx="225.516" cy="436.79" r="21.3333"/>
</svg>
