<?xml version="1.0" encoding="utf-8"?> <!-- Generator: Adobe Illustrator 13.0.0, SVG Export Plug-In . SVG Version: 6.00 Build 14948)  --> <svg version="1.2" baseProfile="tiny" id="Layer_1" xmlns="http://www.w3.org/2000/svg" xmlns:xlink="http://www.w3.org/1999/xlink" x="0px" y="0px" width="512px" height="512px" viewBox="0 0 512 512" xml:space="preserve">
<polygon points="0,0 512,0 512,512 0,512" style="fill:#ffffff; stroke:#000000;stroke-width:0"/>
<polygon points="-171.052,455.985 -202.11,426.73 -50.8692,266.166 -19.8111,295.421" style="fill:#006363; stroke:#000000;stroke-width:0"/>
<circle fill="#006363" stroke="#006363" stroke-width="0" cx="-186.581" cy="441.357" r="21.3333"/>
<circle fill="#006363" stroke="#006363" stroke-width="0" cx="-35.3402" cy="280.793" r="21.3333"/>
<polygon points="589.737,226.436 626.421,204.647 733.804,385.441 697.12,407.229" style="fill:#006363; stroke:#000000;stroke-width:0"/>
<circle fill="#006363" stroke="#006363" stroke-width="0" cx="608.079" cy="215.541" r="21.3333"/>
<circle fill="#006363" stroke="#006363" stroke-width="0" cx="715.462" cy="396.335" r="21.3333"/>
<polygon points="1256,469.333 256,1469.33 -744,469.333" style="fill:#000000; stroke:#000000;stroke-width:0"/>
<polygon points="-744,42.6667 256,-957.333 1256,42.6667" style="fill:#000000; stroke:#000000;stroke-width:0"/>
<circle fill="#a64b00" stroke="#a64b00" stroke-width="0" cx="-186.581" cy="441.357" r="21.3333"/>
<circle fill="#a64b00" stroke="#a64b00" stroke-width="0" cx="-35.3402" cy="280.793" r="21.3333"/>
<circle fill="#a64b00" stroke="#a64b00" stroke-width="0" cx="608.079" cy="215.541" r="21.3333"/>
<circle fill="#a64b00" stroke="#a64b00" stroke-width="0" cx="715.462" cy="396.335" r="21.3333"/>
<circle fill="#a64b00" stroke="#a64b00" stroke-width="0" cx="269.962" cy="96.8337" r="21.3333"/>
</svg>
