<?xml version="1.0" encoding="utf-8"?> <!-- Generator: Adobe Illustrator 13.0.0, SVG Export Plug-In . SVG Version: 6.00 Build 14948)  --> <svg version="1.2" baseProfile="tiny" id="Layer_1" xmlns="http://www.w3.org/2000/svg" xmlns:xlink="http://www.w3.org/1999/xlink" x="0px" y="0px" width="512px" height="512px" viewBox="0 0 512 512" xml:space="preserve">
<polygon points="0,0 512,0 512,512 0,512" style="fill:#ffffff; stroke:#000000;stroke-width:0"/>
<polygon points="-117.616,132.273 -98.3902,94.1828 86.6732,187.591 67.4479,225.681" style="fill:#006363; stroke:#000000;stroke-width:0"/>
<circle fill="#006363" stroke="#006363" stroke-width="0" cx="-108.003" cy="113.228" r="21.3333"/>
<circle fill="#006363" stroke="#006363" stroke-width="0" cx="77.0605" cy="206.636" r="21.3333"/>
<polygon points="454.994,239.445 440.47,199.327 638.464,127.646 652.988,167.765" style="fill:#006363; stroke:#000000;stroke-width:0"/>
<circle fill="#006363" stroke="#006363" stroke-width="0" cx="447.732" cy="219.386" r="21.3333"/>
<circle fill="#006363" stroke="#006363" stroke-width="0" cx="645.726" cy="147.706" r="21.3333"/>
<polygon points="1256,469.333 256,1469.33 -744,469.333" style="fill:#000000; stroke:#000000;stroke-width:0"/>
<polygon points="-744,42.6667 256,-957.333 1256,42.6667" style="fill:#000000; stroke:#000000;stroke-width:0"/>
<circle fill="#a64b00" stroke="#a64b00" stroke-width="0" cx="-108.003" cy="113.228" r="21.3333"/>
<circle fill="#a64b00" stroke="#a64b00" stroke-width="0" cx="77.0605" cy="206.636" r="21.3333"/>
<circle fill="#a64b00" stroke="#a64b00" stroke-width="0" cx="447.732" cy="219.386" r="21.3333"/>
<circle fill="#a64b00" stroke="#a64b00" stroke-width="0" cx="645.726" cy="147.706" r="21.3333"/>
<circle fill="#a64b00" stroke="#a64b00" stroke-width="0" cx="297.727" cy="75.2572" r="21.3333"/>
</svg>
