<?xml version="1.0" encoding="utf-8"?> <!-- Generator: Adobe Illustrator 13.0.0, SVG Export Plug-In . SVG Version: 6.00 Build 14948)  --> <svg version="1.2" baseProfile="tiny" id="Layer_1" xmlns="http://www.w3.org/2000/svg" xmlns:xlink="http://www.w3.org/1999/xlink" x="0px" y="0px" width="512px" height="512px" viewBox="0 0 512 512" xml:space="preserve">
<polygon points="0,0 512,0 512,512 0,512" style="fill:#ffffff; stroke:#000000;stroke-width:0"/>
<polygon points="-163.29,359.011 -198.389,334.752 -75.4199,156.835 -40.3209,181.094" style="fill:#006363; stroke:#000000;stroke-width:0"/>
<circle fill="#006363" stroke="#006363" stroke-width="0" cx="-180.84" cy="346.882" r="21.3333"/>
<circle fill="#006363" stroke="#006363" stroke-width="0" cx="-57.8704" cy="168.964" r="21.3333"/>
<polygon points="571.228,273.309 595.439,238.177 772.707,360.34 748.496,395.472" style="fill:#006363; stroke:#000000;stroke-width:0"/>
<circle fill="#006363" stroke="#006363" stroke-width="0" cx="583.333" cy="255.743" r="21.3333"/>
<circle fill="#006363" stroke="#006363" stroke-width="0" cx="760.601" cy="377.906" r="21.3333"/>
<polygon points="1256,469.333 256,1469.33 -744,469.333" style="fill:#000000; stroke:#000000;stroke-width:0"/>
<polygon points="-744,42.6667 256,-957.333 1256,42.6667" style="fill:#000000; stroke:#000000;stroke-width:0"/>
<circle fill="#a64b00" stroke="#a64b00" stroke-width="0" cx="-180.84" cy="346.882" r="21.3333"/>
<circle fill="#a64b00" stroke="#a64b00" stroke-width="0" cx="-57.8704" cy="168.964" r="21.3333"/>
<circle fill="#a64b00" stroke="#a64b00" stroke-width="0" cx="583.333" cy="255.743" r="21.3333"/>
<circle fill="#a64b00" stroke="#a64b00" stroke-width="0" cx="760.601" cy="377.906" r="21.3333"/>
<circle fill="#a64b00" stroke="#a64b00" stroke-width="0" cx="250.873" cy="402.13" r="21.3333"/>
</svg>
