<?xml version="1.0" encoding="utf-8"?> <!-- Generator: Adobe Illustrator 13.0.0, SVG Export Plug-In . SVG Version: 6.00 Build 14948)  --> <svg version="1.2" baseProfile="tiny" id="Layer_1" xmlns="http://www.w3.org/2000/svg" xmlns:xlink="http://www.w3.org/1999/xlink" x="0px" y="0px" width="512px" height="512px" viewBox="0 0 512 512" xml:space="preserve">
<polygon points="0,0 512,0 512,512 0,512" style="fill:#ffffff; stroke:#000000;stroke-width:0"/>
<polygon points="-242.453,192.489 -218.587,157.122 -36.6562,279.89 -60.5223,315.258" style="fill:#006363; stroke:#000000;stroke-width:0"/>
<circle fill="#006363" stroke="#006363" stroke-width="0" cx="-230.52" cy="174.806" r="21.3333"/>
<circle fill="#006363" stroke="#006363" stroke-width="0" cx="-48.5892" cy="297.574" r="21.3333"/>
<polygon points="607.338,408.086 589.323,369.41 785.669,277.955 803.684,316.632" style="fill:#006363; stroke:#000000;stroke-width:0"/>
<circle fill="#006363" stroke="#006363" stroke-width="0" cx="598.33" cy="388.748" r="21.3333"/>
<circle fill="#006363" stroke="#006363" stroke-width="0" cx="794.676" cy="297.294" r="21.3333"/>
<polygon points="1256,469.333 256,1469.33 -744,469.333" style="fill:#000000; stroke:#000000;stroke-width:0"/>
<polygon points="-744,42.6667 256,-957.333 1256,42.6667" style="fill:#000000; stroke:#000000;stroke-width:0"/>
<circle fill="#a64b00" stroke="#a64b00" stroke-width="0" cx="-230.52" cy="174.806" r="21.3333"/>
<circle fill="#a64b00" stroke="#a64b00" stroke-width="0" cx="-48.5892" cy="297.574" r="21.3333"/>
<circle fill="#a64b00" stroke="#a64b00" stroke-width="0" cx="598.33" cy="388.748" r="21.3333"/>
<circle fill="#a64b00" stroke="#a64b00" stroke-width="0" cx="794.676" cy="297.294" r="21.3333"/>
<circle fill="#a64b00" stroke="#a64b00" stroke-width="0" cx="204.939" cy="354.428" r="21.3333"/>
</svg>
