<?xml version="1.0" encoding="utf-8"?> <!-- Generator: Adobe Illustrator 13.0.0, SVG Export Plug-In . SVG Version: 6.00 Build 14948)  --> <svg version="1.2" baseProfile="tiny" id="Layer_1" xmlns="http://www.w3.org/2000/svg" xmlns:xlink="http://www.w3.org/1999/xlink" x="0px" y="0px" width="512px" height="512px" viewBox="0 0 512 512" xml:space="preserve">
<polygon points="0,0 512,0 512,512 0,512" style="fill:#ffffff; stroke:#000000;stroke-width:0"/>
<polygon points="-154.284,270.437 -116.028,251.545 -23.04,439.839 -61.2959,458.731" style="fill:#006363; stroke:#000000;stroke-width:0"/>
<circle fill="#006363" stroke="#006363" stroke-width="0" cx="-135.156" cy="260.991" r="21.3333"/>
<circle fill="#006363" stroke="#006363" stroke-width="0" cx="-42.168" cy="449.285" r="21.3333"/>
<polygon points="677.993,177.87 712.958,202.322 591.378,376.171 556.413,351.719" style="fill:#006363; stroke:#000000;stroke-width:0"/>
<circle fill="#006363" stroke="#006363" stroke-width="0" cx="695.475" cy="190.096" r="21.3333"/>
<circle fill="#006363" stroke="#006363" stroke-width="0" cx="573.895" cy="363.945" r="21.3333"/>
<polygon points="1256,469.333 256,1469.33 -744,469.333" style="fill:#000000; stroke:#000000;stroke-width:0"/>
<polygon points="-744,42.6667 256,-957.333 1256,42.6667" style="fill:#000000; stroke:#000000;stroke-width:0"/>
<circle fill="#a64b00" stroke="#a64b00" stroke-width="0" cx="-135.156" cy="260.991" r="21.3333"/>
<circle fill="#a64b00" stroke="#a64b00" stroke-width="0" cx="-42.168" cy="449.285" r="21.3333"/>
<circle fill="#a64b00" stroke="#a64b00" stroke-width="0" cx="695.475" cy="190.096" r="21.3333"/>
<circle fill="#a64b00" stroke="#a64b00" stroke-width="0" cx="573.895" cy="363.945" r="21.3333"/>
<circle fill="#a64b00" stroke="#a64b00" stroke-width="0" cx="320.668" cy="68.2121" r="21.3333"/>
</svg>
