<?xml version="1.0" encoding="utf-8"?> <!-- Generator: Adobe Illustrator 13.0.0, SVG Export Plug-In . SVG Version: 6.00 Build 14948)  --> <svg version="1.2" baseProfile="tiny" id="Layer_1" xmlns="http://www.w3.org/2000/svg" xmlns:xlink="http://www.w3.org/1999/xlink" x="0px" y="0px" width="512px" height="512px" viewBox="0 0 512 512" xml:space="preserve">
<polygon points="0,0 512,0 512,512 0,512" style="fill:#ffffff; stroke:#000000;stroke-width:0"/>
<polygon points="-174.308,186.415 -131.712,183.965 -119.492,396.417 -162.088,398.867" style="fill:#006363; stroke:#000000;stroke-width:0"/>
<circle fill="#006363" stroke="#006363" stroke-width="0" cx="-153.01" cy="185.19" r="21.3333"/>
<circle fill="#006363" stroke="#006363" stroke-width="0" cx="-140.79" cy="397.642" r="21.3333"/>
<polygon points="647.491,444.84 616.494,415.52 763.36,260.254 794.357,289.573" style="fill:#006363; stroke:#000000;stroke-width:0"/>
<circle fill="#006363" stroke="#006363" stroke-width="0" cx="631.992" cy="430.18" r="21.3333"/>
<circle fill="#006363" stroke="#006363" stroke-width="0" cx="778.859" cy="274.914" r="21.3333"/>
<polygon points="1256,469.333 256,1469.33 -744,469.333" style="fill:#000000; stroke:#000000;stroke-width:0"/>
<polygon points="-744,42.6667 256,-957.333 1256,42.6667" style="fill:#000000; stroke:#000000;stroke-width:0"/>
<circle fill="#a64b00" stroke="#a64b00" stroke-width="0" cx="-153.01" cy="185.19" r="21.3333"/>
<circle fill="#a64b00" stroke="#a64b00" stroke-width="0" cx="-140.79" cy="397.642" r="21.3333"/>
<circle fill="#a64b00" stroke="#a64b00" stroke-width="0" cx="631.992" cy="430.18" r="21.3333"/>
<circle fill="#a64b00" stroke="#a64b00" stroke-width="0" cx="778.859" cy="274.914" r="21.3333"/>
<circle fill="#a64b00" stroke="#a64b00" stroke-width="0" cx="188.236" cy="278.104" r="21.3333"/>
</svg>
