<?xml version="1.0" encoding="utf-8"?> <!-- Generator: Adobe Illustrator 13.0.0, SVG Export Plug-In . SVG Version: 6.00 Build 14948)  --> <svg version="1.2" baseProfile="tiny" id="Layer_1" xmlns="http://www.w3.org/2000/svg" xmlns:xlink="http://www.w3.org/1999/xlink" x="0px" y="0px" width="512px" height="512px" viewBox="0 0 512 512" xml:space="preserve">
<polygon points="0,0 512,0 512,512 0,512" style="fill:#ffffff; stroke:#000000;stroke-width:0"/>
<polygon points="-117.122,133.392 -97.5015,95.5042 86.7046,190.899 67.0838,228.786" style="fill:#006363; stroke:#000000;stroke-width:0"/>
<circle fill="#006363" stroke="#006363" stroke-width="0" cx="-107.312" cy="114.448" r="21.3333"/>
<circle fill="#006363" stroke="#006363" stroke-width="0" cx="76.8942" cy="209.843" r="21.3333"/>
<polygon points="454.117,237.916 440.128,197.608 638.809,128.656 652.798,168.964" style="fill:#006363; stroke:#000000;stroke-width:0"/>
<circle fill="#006363" stroke="#006363" stroke-width="0" cx="447.123" cy="217.762" r="21.3333"/>
<circle fill="#006363" stroke="#006363" stroke-width="0" cx="645.803" cy="148.81" r="21.3333"/>
<polygon points="1256,469.333 256,1469.33 -744,469.333" style="fill:#000000; stroke:#000000;stroke-width:0"/>
<polygon points="-744,42.6667 256,-957.333 1256,42.6667" style="fill:#000000; stroke:#000000;stroke-width:0"/>
<circle fill="#a64b00" stroke="#a64b00" stroke-width="0" cx="-107.312" cy="114.448" r="21.3333"/>
<circle fill="#a64b00" stroke="#a64b00" stroke-width="0" cx="76.8942" cy="209.843" r="21.3333"/>
<circle fill="#a64b00" stroke="#a64b00" stroke-width="0" cx="447.123" cy="217.762" r="21.3333"/>
<circle fill="#a64b00" stroke="#a64b00" stroke-width="0" cx="645.803" cy="148.81" r="21.3333"/>
<circle fill="#a64b00" stroke="#a64b00" stroke-width="0" cx="287.803" cy="68.7582" r="21.3333"/>
</svg>
