<?xml version="1.0" encoding="utf-8"?> <!-- Generator: Adobe Illustrator 13.0.0, SVG Export Plug-In . SVG Version: 6.00 Build 14948)  --> <svg version="1.2" baseProfile="tiny" id="Layer_1" xmlns="http://www.w3.org/2000/svg" xmlns:xlink="http://www.w3.org/1999/xlink" x="0px" y="0px" width="512px" height="512px" viewBox="0 0 512 512" xml:space="preserve">
<polygon points="0,0 512,0 512,512 0,512" style="fill:#ffffff; stroke:#000000;stroke-width:0"/>
<polygon points="-117.935,177.226 -114.9,219.785 -339.036,235.768 -342.071,193.209" style="fill:#006363; stroke:#000000;stroke-width:0"/>
<circle fill="#006363" stroke="#006363" stroke-width="0" cx="-116.417" cy="198.505" r="21.3333"/>
<circle fill="#006363" stroke="#006363" stroke-width="0" cx="-340.554" cy="214.489" r="21.3333"/>
<polygon points="757.457,433.982 723.847,407.699 851.593,244.333 885.204,270.615" style="fill:#006363; stroke:#000000;stroke-width:0"/>
<circle fill="#006363" stroke="#006363" stroke-width="0" cx="740.652" cy="420.841" r="21.3333"/>
<circle fill="#006363" stroke="#006363" stroke-width="0" cx="868.399" cy="257.474" r="21.3333"/>
<polygon points="1256,469.333 256,1469.33 -744,469.333" style="fill:#000000; stroke:#000000;stroke-width:0"/>
<polygon points="-744,42.6667 256,-957.333 1256,42.6667" style="fill:#000000; stroke:#000000;stroke-width:0"/>
<circle fill="#a64b00" stroke="#a64b00" stroke-width="0" cx="-116.417" cy="198.505" r="21.3333"/>
<circle fill="#a64b00" stroke="#a64b00" stroke-width="0" cx="-340.554" cy="214.489" r="21.3333"/>
<circle fill="#a64b00" stroke="#a64b00" stroke-width="0" cx="740.652" cy="420.841" r="21.3333"/>
<circle fill="#a64b00" stroke="#a64b00" stroke-width="0" cx="868.399" cy="257.474" r="21.3333"/>
<circle fill="#a64b00" stroke="#a64b00" stroke-width="0" cx="2.7115" cy="440.293" r="21.3333"/>
</svg>
