<?xml version="1.0" encoding="utf-8"?> <!-- Generator: Adobe Illustrator 13.0.0, SVG Export Plug-In . SVG Version: 6.00 Build 14948)  --> <svg version="1.2" baseProfile="tiny" id="Layer_1" xmlns="http://www.w3.org/2000/svg" xmlns:xlink="http://www.w3.org/1999/xlink" x="0px" y="0px" width="512px" height="512px" viewBox="0 0 512 512" xml:space="preserve">
<polygon points="0,0 512,0 512,512 0,512" style="fill:#ffffff; stroke:#000000;stroke-width:0"/>
<polygon points="-103.199,181.555 -61.0185,175.131 -29.0042,385.33 -71.1844,391.754" style="fill:#006363; stroke:#000000;stroke-width:0"/>
<circle fill="#006363" stroke="#006363" stroke-width="0" cx="-82.1086" cy="178.343" r="21.3333"/>
<circle fill="#006363" stroke="#006363" stroke-width="0" cx="-50.0943" cy="388.542" r="21.3333"/>
<polygon points="716.466,248.107 707.998,289.925 498.097,247.418 506.566,205.6" style="fill:#006363; stroke:#000000;stroke-width:0"/>
<circle fill="#006363" stroke="#006363" stroke-width="0" cx="712.232" cy="269.016" r="21.3333"/>
<circle fill="#006363" stroke="#006363" stroke-width="0" cx="502.331" cy="226.509" r="21.3333"/>
<polygon points="1256,469.333 256,1469.33 -744,469.333" style="fill:#000000; stroke:#000000;stroke-width:0"/>
<polygon points="-744,42.6667 256,-957.333 1256,42.6667" style="fill:#000000; stroke:#000000;stroke-width:0"/>
<circle fill="#a64b00" stroke="#a64b00" stroke-width="0" cx="-82.1086" cy="178.343" r="21.3333"/>
<circle fill="#a64b00" stroke="#a64b00" stroke-width="0" cx="-50.0943" cy="388.542" r="21.3333"/>
<circle fill="#a64b00" stroke="#a64b00" stroke-width="0" cx="712.232" cy="269.016" r="21.3333"/>
<circle fill="#a64b00" stroke="#a64b00" stroke-width="0" cx="502.331" cy="226.509" r="21.3333"/>
<circle fill="#a64b00" stroke="#a64b00" stroke-width="0" cx="371.971" cy="87.2932" r="21.3333"/>
</svg>
