<?xml version="1.0" encoding="utf-8"?> <!-- Generator: Adobe Illustrator 13.0.0, SVG Export Plug-In . SVG Version: 6.00 Build 14948)  --> <svg version="1.2" baseProfile="tiny" id="Layer_1" xmlns="http://www.w3.org/2000/svg" xmlns:xlink="http://www.w3.org/1999/xlink" x="0px" y="0px" width="512px" height="512px" viewBox="0 0 512 512" xml:space="preserve">
<polygon points="0,0 512,0 512,512 0,512" style="fill:#ffffff; stroke:#000000;stroke-width:0"/>
<polygon points="-93.7385,90.7747 -102.096,132.615 -322.309,88.6264 -313.951,46.7863" style="fill:#006363; stroke:#000000;stroke-width:0"/>
<circle fill="#006363" stroke="#006363" stroke-width="0" cx="-97.9173" cy="111.695" r="21.3333"/>
<circle fill="#006363" stroke="#006363" stroke-width="0" cx="-318.13" cy="67.7064" r="21.3333"/>
<polygon points="750.703,369.696 712.831,350.046 808.639,165.397 846.511,185.047" style="fill:#006363; stroke:#000000;stroke-width:0"/>
<circle fill="#006363" stroke="#006363" stroke-width="0" cx="731.767" cy="359.871" r="21.3333"/>
<circle fill="#006363" stroke="#006363" stroke-width="0" cx="827.575" cy="175.222" r="21.3333"/>
<polygon points="1256,469.333 256,1469.33 -744,469.333" style="fill:#000000; stroke:#000000;stroke-width:0"/>
<polygon points="-744,42.6667 256,-957.333 1256,42.6667" style="fill:#000000; stroke:#000000;stroke-width:0"/>
<circle fill="#a64b00" stroke="#a64b00" stroke-width="0" cx="-97.9173" cy="111.695" r="21.3333"/>
<circle fill="#a64b00" stroke="#a64b00" stroke-width="0" cx="-318.13" cy="67.7064" r="21.3333"/>
<circle fill="#a64b00" stroke="#a64b00" stroke-width="0" cx="731.767" cy="359.871" r="21.3333"/>
<circle fill="#a64b00" stroke="#a64b00" stroke-width="0" cx="827.575" cy="175.222" r="21.3333"/>
<circle fill="#a64b00" stroke="#a64b00" stroke-width="0" cx="49.2418" cy="402.13" r="21.3333"/>
</svg>
