<?xml version="1.0" encoding="utf-8"?> <!-- Generator: Adobe Illustrator 13.0.0, SVG Export Plug-In . SVG Version: 6.00 Build 14948)  --> <svg version="1.2" baseProfile="tiny" id="Layer_1" xmlns="http://www.w3.org/2000/svg" xmlns:xlink="http://www.w3.org/1999/xlink" x="0px" y="0px" width="512px" height="512px" viewBox="0 0 512 512" xml:space="preserve">
<polygon points="0,0 512,0 512,512 0,512" style="fill:#ffffff; stroke:#000000;stroke-width:0"/>
<polygon points="-168.951,347.893 -188.746,385.69 -376.164,287.534 -356.369,249.737" style="fill:#006363; stroke:#000000;stroke-width:0"/>
<circle fill="#006363" stroke="#006363" stroke-width="0" cx="-178.848" cy="366.791" r="21.3333"/>
<circle fill="#006363" stroke="#006363" stroke-width="0" cx="-366.267" cy="268.636" r="21.3333"/>
<polygon points="749.467,316.78 768.055,278.375 966.649,374.493 948.062,412.898" style="fill:#006363; stroke:#000000;stroke-width:0"/>
<circle fill="#006363" stroke="#006363" stroke-width="0" cx="758.761" cy="297.577" r="21.3333"/>
<circle fill="#006363" stroke="#006363" stroke-width="0" cx="957.355" cy="393.695" r="21.3333"/>
<polygon points="1256,469.333 256,1469.33 -744,469.333" style="fill:#000000; stroke:#000000;stroke-width:0"/>
<polygon points="-744,42.6667 256,-957.333 1256,42.6667" style="fill:#000000; stroke:#000000;stroke-width:0"/>
<circle fill="#a64b00" stroke="#a64b00" stroke-width="0" cx="-178.848" cy="366.791" r="21.3333"/>
<circle fill="#a64b00" stroke="#a64b00" stroke-width="0" cx="-366.267" cy="268.636" r="21.3333"/>
<circle fill="#a64b00" stroke="#a64b00" stroke-width="0" cx="758.761" cy="297.577" r="21.3333"/>
<circle fill="#a64b00" stroke="#a64b00" stroke-width="0" cx="957.355" cy="393.695" r="21.3333"/>
<circle fill="#a64b00" stroke="#a64b00" stroke-width="0" cx="-97.5075" cy="402.13" r="21.3333"/>
</svg>
