<?xml version="1.0" encoding="utf-8"?> <!-- Generator: Adobe Illustrator 13.0.0, SVG Export Plug-In . SVG Version: 6.00 Build 14948)  --> <svg version="1.2" baseProfile="tiny" id="Layer_1" xmlns="http://www.w3.org/2000/svg" xmlns:xlink="http://www.w3.org/1999/xlink" x="0px" y="0px" width="512px" height="512px" viewBox="0 0 512 512" xml:space="preserve">
<polygon points="0,0 512,0 512,512 0,512" style="fill:#ffffff; stroke:#000000;stroke-width:0"/>
<polygon points="-415.494,141.567 -415.889,98.9022 -198.815,96.8953 -198.421,139.56" style="fill:#006363; stroke:#000000;stroke-width:0"/>
<circle fill="#006363" stroke="#006363" stroke-width="0" cx="-415.691" cy="120.235" r="21.3333"/>
<circle fill="#006363" stroke="#006363" stroke-width="0" cx="-198.618" cy="118.228" r="21.3333"/>
<polygon points="885.301,219.635 927.852,222.771 912.39,432.563 869.839,429.427" style="fill:#006363; stroke:#000000;stroke-width:0"/>
<circle fill="#006363" stroke="#006363" stroke-width="0" cx="906.576" cy="221.203" r="21.3333"/>
<circle fill="#006363" stroke="#006363" stroke-width="0" cx="891.114" cy="430.995" r="21.3333"/>
<polygon points="1256,469.333 256,1469.33 -744,469.333" style="fill:#000000; stroke:#000000;stroke-width:0"/>
<polygon points="-744,42.6667 256,-957.333 1256,42.6667" style="fill:#000000; stroke:#000000;stroke-width:0"/>
<circle fill="#a64b00" stroke="#a64b00" stroke-width="0" cx="-415.691" cy="120.235" r="21.3333"/>
<circle fill="#a64b00" stroke="#a64b00" stroke-width="0" cx="-198.618" cy="118.228" r="21.3333"/>
<circle fill="#a64b00" stroke="#a64b00" stroke-width="0" cx="906.576" cy="221.203" r="21.3333"/>
<circle fill="#a64b00" stroke="#a64b00" stroke-width="0" cx="891.114" cy="430.995" r="21.3333"/>
<circle fill="#a64b00" stroke="#a64b00" stroke-width="0" cx="29.8404" cy="167.942" r="21.3333"/>
</svg>
