<?xml version="1.0" encoding="utf-8"?> <!-- Generator: Adobe Illustrator 13.0.0, SVG Export Plug-In . SVG Version: 6.00 Build 14948)  --> <svg version="1.2" baseProfile="tiny" id="Layer_1" xmlns="http://www.w3.org/2000/svg" xmlns:xlink="http://www.w3.org/1999/xlink" x="0px" y="0px" width="512px" height="512px" viewBox="0 0 512 512" xml:space="preserve">
<polygon points="0,0 512,0 512,512 0,512" style="fill:#ffffff; stroke:#000000;stroke-width:0"/>
<polygon points="-50.4412,365.374 -49.9133,408.037 -269.067,410.749 -269.595,368.085" style="fill:#006363; stroke:#000000;stroke-width:0"/>
<circle fill="#006363" stroke="#006363" stroke-width="0" cx="-50.1772" cy="386.705" r="21.3333"/>
<circle fill="#006363" stroke="#006363" stroke-width="0" cx="-269.331" cy="389.417" r="21.3333"/>
<polygon points="692.606,403.472 654.352,384.575 749.473,192.011 787.727,210.908" style="fill:#006363; stroke:#000000;stroke-width:0"/>
<circle fill="#006363" stroke="#006363" stroke-width="0" cx="673.479" cy="394.023" r="21.3333"/>
<circle fill="#006363" stroke="#006363" stroke-width="0" cx="768.6" cy="201.46" r="21.3333"/>
<polygon points="1256,469.333 256,1469.33 -744,469.333" style="fill:#000000; stroke:#000000;stroke-width:0"/>
<polygon points="-744,42.6667 256,-957.333 1256,42.6667" style="fill:#000000; stroke:#000000;stroke-width:0"/>
<circle fill="#a64b00" stroke="#a64b00" stroke-width="0" cx="-50.1772" cy="386.705" r="21.3333"/>
<circle fill="#a64b00" stroke="#a64b00" stroke-width="0" cx="-269.331" cy="389.417" r="21.3333"/>
<circle fill="#a64b00" stroke="#a64b00" stroke-width="0" cx="673.479" cy="394.023" r="21.3333"/>
<circle fill="#a64b00" stroke="#a64b00" stroke-width="0" cx="768.6" cy="201.46" r="21.3333"/>
<circle fill="#a64b00" stroke="#a64b00" stroke-width="0" cx="159.005" cy="306.725" r="21.3333"/>
</svg>
