<?xml version="1.0" encoding="utf-8"?> <!-- Generator: Adobe Illustrator 13.0.0, SVG Export Plug-In . SVG Version: 6.00 Build 14948)  --> <svg version="1.2" baseProfile="tiny" id="Layer_1" xmlns="http://www.w3.org/2000/svg" xmlns:xlink="http://www.w3.org/1999/xlink" x="0px" y="0px" width="512px" height="512px" viewBox="0 0 512 512" xml:space="preserve">
<polygon points="0,0 512,0 512,512 0,512" style="fill:#ffffff; stroke:#000000;stroke-width:0"/>
<polygon points="-167.302,266.261 -202.633,242.34 -83.4751,66.3433 -48.1444,90.2637" style="fill:#006363; stroke:#000000;stroke-width:0"/>
<circle fill="#006363" stroke="#006363" stroke-width="0" cx="-184.968" cy="254.301" r="21.3333"/>
<circle fill="#006363" stroke="#006363" stroke-width="0" cx="-65.8097" cy="78.3035" r="21.3333"/>
<polygon points="570.519,314.213 582.807,273.354 788.073,335.086 775.785,375.945" style="fill:#006363; stroke:#000000;stroke-width:0"/>
<circle fill="#006363" stroke="#006363" stroke-width="0" cx="576.663" cy="293.784" r="21.3333"/>
<circle fill="#006363" stroke="#006363" stroke-width="0" cx="781.929" cy="355.516" r="21.3333"/>
<polygon points="1256,469.333 256,1469.33 -744,469.333" style="fill:#000000; stroke:#000000;stroke-width:0"/>
<polygon points="-744,42.6667 256,-957.333 1256,42.6667" style="fill:#000000; stroke:#000000;stroke-width:0"/>
<circle fill="#a64b00" stroke="#a64b00" stroke-width="0" cx="-184.968" cy="254.301" r="21.3333"/>
<circle fill="#a64b00" stroke="#a64b00" stroke-width="0" cx="-65.8097" cy="78.3035" r="21.3333"/>
<circle fill="#a64b00" stroke="#a64b00" stroke-width="0" cx="576.663" cy="293.784" r="21.3333"/>
<circle fill="#a64b00" stroke="#a64b00" stroke-width="0" cx="781.929" cy="355.516" r="21.3333"/>
<circle fill="#a64b00" stroke="#a64b00" stroke-width="0" cx="237.152" cy="278.104" r="21.3333"/>
</svg>
