<?xml version="1.0" encoding="utf-8"?> <!-- Generator: Adobe Illustrator 13.0.0, SVG Export Plug-In . SVG Version: 6.00 Build 14948)  --> <svg version="1.2" baseProfile="tiny" id="Layer_1" xmlns="http://www.w3.org/2000/svg" xmlns:xlink="http://www.w3.org/1999/xlink" x="0px" y="0px" width="512px" height="512px" viewBox="0 0 512 512" xml:space="preserve">
<polygon points="0,0 512,0 512,512 0,512" style="fill:#ffffff; stroke:#000000;stroke-width:0"/>
<polygon points="-227.438,182.377 -194.302,155.498 -56.3937,325.505 -89.529,352.384" style="fill:#006363; stroke:#000000;stroke-width:0"/>
<circle fill="#006363" stroke="#006363" stroke-width="0" cx="-210.87" cy="168.938" r="21.3333"/>
<circle fill="#006363" stroke="#006363" stroke-width="0" cx="-72.9614" cy="338.944" r="21.3333"/>
<polygon points="618.792,421.425 596.229,385.213 779.95,270.74 802.513,306.953" style="fill:#006363; stroke:#000000;stroke-width:0"/>
<circle fill="#006363" stroke="#006363" stroke-width="0" cx="607.51" cy="403.319" r="21.3333"/>
<circle fill="#006363" stroke="#006363" stroke-width="0" cx="791.232" cy="288.847" r="21.3333"/>
<polygon points="1256,469.333 256,1469.33 -744,469.333" style="fill:#000000; stroke:#000000;stroke-width:0"/>
<polygon points="-744,42.6667 256,-957.333 1256,42.6667" style="fill:#000000; stroke:#000000;stroke-width:0"/>
<circle fill="#a64b00" stroke="#a64b00" stroke-width="0" cx="-210.87" cy="168.938" r="21.3333"/>
<circle fill="#a64b00" stroke="#a64b00" stroke-width="0" cx="-72.9614" cy="338.944" r="21.3333"/>
<circle fill="#a64b00" stroke="#a64b00" stroke-width="0" cx="607.51" cy="403.319" r="21.3333"/>
<circle fill="#a64b00" stroke="#a64b00" stroke-width="0" cx="791.232" cy="288.847" r="21.3333"/>
<circle fill="#a64b00" stroke="#a64b00" stroke-width="0" cx="199.57" cy="440.293" r="21.3333"/>
</svg>
