<?xml version="1.0" encoding="utf-8"?> <!-- Generator: Adobe Illustrator 13.0.0, SVG Export Plug-In . SVG Version: 6.00 Build 14948)  --> <svg version="1.2" baseProfile="tiny" id="Layer_1" xmlns="http://www.w3.org/2000/svg" xmlns:xlink="http://www.w3.org/1999/xlink" x="0px" y="0px" width="512px" height="512px" viewBox="0 0 512 512" xml:space="preserve">
<polygon points="0,0 512,0 512,512 0,512" style="fill:#ffffff; stroke:#000000;stroke-width:0"/>
<polygon points="-166.544,286.047 -150.408,325.545 -338.696,402.467 -354.833,362.97" style="fill:#006363; stroke:#000000;stroke-width:0"/>
<circle fill="#006363" stroke="#006363" stroke-width="0" cx="-158.476" cy="305.796" r="21.3333"/>
<circle fill="#006363" stroke="#006363" stroke-width="0" cx="-346.764" cy="382.718" r="21.3333"/>
<polygon points="735.329,405.37 724.415,364.123 932.353,309.103 943.267,350.35" style="fill:#006363; stroke:#000000;stroke-width:0"/>
<circle fill="#006363" stroke="#006363" stroke-width="0" cx="729.872" cy="384.746" r="21.3333"/>
<circle fill="#006363" stroke="#006363" stroke-width="0" cx="937.81" cy="329.727" r="21.3333"/>
<polygon points="1256,469.333 256,1469.33 -744,469.333" style="fill:#000000; stroke:#000000;stroke-width:0"/>
<polygon points="-744,42.6667 256,-957.333 1256,42.6667" style="fill:#000000; stroke:#000000;stroke-width:0"/>
<circle fill="#a64b00" stroke="#a64b00" stroke-width="0" cx="-158.476" cy="305.796" r="21.3333"/>
<circle fill="#a64b00" stroke="#a64b00" stroke-width="0" cx="-346.764" cy="382.718" r="21.3333"/>
<circle fill="#a64b00" stroke="#a64b00" stroke-width="0" cx="729.872" cy="384.746" r="21.3333"/>
<circle fill="#a64b00" stroke="#a64b00" stroke-width="0" cx="937.81" cy="329.727" r="21.3333"/>
<circle fill="#a64b00" stroke="#a64b00" stroke-width="0" cx="-52.1704" cy="344.887" r="21.3333"/>
</svg>
