<?xml version="1.0" encoding="utf-8"?> <!-- Generator: Adobe Illustrator 13.0.0, SVG Export Plug-In . SVG Version: 6.00 Build 14948)  --> <svg version="1.2" baseProfile="tiny" id="Layer_1" xmlns="http://www.w3.org/2000/svg" xmlns:xlink="http://www.w3.org/1999/xlink" x="0px" y="0px" width="512px" height="512px" viewBox="0 0 512 512" xml:space="preserve">
<polygon points="0,0 512,0 512,512 0,512" style="fill:#ffffff; stroke:#000000;stroke-width:0"/>
<polygon points="-67.6507,217.206 -29.2107,198.69 65.8781,396.109 27.438,414.624" style="fill:#006363; stroke:#000000;stroke-width:0"/>
<circle fill="#006363" stroke="#006363" stroke-width="0" cx="-48.4307" cy="207.948" r="21.3333"/>
<circle fill="#006363" stroke="#006363" stroke-width="0" cx="46.6581" cy="405.367" r="21.3333"/>
<polygon points="424.237,134.148 444.489,96.5943 634.636,199.142 614.383,236.696" style="fill:#006363; stroke:#000000;stroke-width:0"/>
<circle fill="#006363" stroke="#006363" stroke-width="0" cx="434.363" cy="115.371" r="21.3333"/>
<circle fill="#006363" stroke="#006363" stroke-width="0" cx="624.51" cy="217.919" r="21.3333"/>
<polygon points="1256,469.333 256,1469.33 -744,469.333" style="fill:#000000; stroke:#000000;stroke-width:0"/>
<polygon points="-744,42.6667 256,-957.333 1256,42.6667" style="fill:#000000; stroke:#000000;stroke-width:0"/>
<circle fill="#a64b00" stroke="#a64b00" stroke-width="0" cx="-48.4307" cy="207.948" r="21.3333"/>
<circle fill="#a64b00" stroke="#a64b00" stroke-width="0" cx="46.6581" cy="405.367" r="21.3333"/>
<circle fill="#a64b00" stroke="#a64b00" stroke-width="0" cx="434.363" cy="115.371" r="21.3333"/>
<circle fill="#a64b00" stroke="#a64b00" stroke-width="0" cx="624.51" cy="217.919" r="21.3333"/>
<circle fill="#a64b00" stroke="#a64b00" stroke-width="0" cx="146.001" cy="211.736" r="21.3333"/>
</svg>
