<?xml version="1.0" encoding="utf-8"?> <!-- Generator: Adobe Illustrator 13.0.0, SVG Export Plug-In . SVG Version: 6.00 Build 14948)  --> <svg version="1.2" baseProfile="tiny" id="Layer_1" xmlns="http://www.w3.org/2000/svg" xmlns:xlink="http://www.w3.org/1999/xlink" x="0px" y="0px" width="512px" height="512px" viewBox="0 0 512 512" xml:space="preserve">
<polygon points="0,0 512,0 512,512 0,512" style="fill:#ffffff; stroke:#000000;stroke-width:0"/>
<polygon points="-63.0715,275.189 -66.6708,317.703 -288.442,298.928 -284.842,256.414" style="fill:#006363; stroke:#000000;stroke-width:0"/>
<circle fill="#006363" stroke="#006363" stroke-width="0" cx="-64.8711" cy="296.446" r="21.3333"/>
<circle fill="#006363" stroke="#006363" stroke-width="0" cx="-286.642" cy="277.671" r="21.3333"/>
<polygon points="732.548,302.97 691.415,291.633 748.406,84.8746 789.538,96.2123" style="fill:#006363; stroke:#000000;stroke-width:0"/>
<circle fill="#006363" stroke="#006363" stroke-width="0" cx="711.982" cy="297.301" r="21.3333"/>
<circle fill="#006363" stroke="#006363" stroke-width="0" cx="768.972" cy="90.5434" r="21.3333"/>
<polygon points="1256,469.333 256,1469.33 -744,469.333" style="fill:#000000; stroke:#000000;stroke-width:0"/>
<polygon points="-744,42.6667 256,-957.333 1256,42.6667" style="fill:#000000; stroke:#000000;stroke-width:0"/>
<circle fill="#a64b00" stroke="#a64b00" stroke-width="0" cx="-64.8711" cy="296.446" r="21.3333"/>
<circle fill="#a64b00" stroke="#a64b00" stroke-width="0" cx="-286.642" cy="277.671" r="21.3333"/>
<circle fill="#a64b00" stroke="#a64b00" stroke-width="0" cx="711.982" cy="297.301" r="21.3333"/>
<circle fill="#a64b00" stroke="#a64b00" stroke-width="0" cx="768.972" cy="90.5434" r="21.3333"/>
<circle fill="#a64b00" stroke="#a64b00" stroke-width="0" cx="122.616" cy="106.374" r="21.3333"/>
</svg>
