<?xml version="1.0" encoding="utf-8"?> <!-- Generator: Adobe Illustrator 13.0.0, SVG Export Plug-In . SVG Version: 6.00 Build 14948)  --> <svg version="1.2" baseProfile="tiny" id="Layer_1" xmlns="http://www.w3.org/2000/svg" xmlns:xlink="http://www.w3.org/1999/xlink" x="0px" y="0px" width="512px" height="512px" viewBox="0 0 512 512" xml:space="preserve">
<polygon points="0,0 512,0 512,512 0,512" style="fill:#ffffff; stroke:#000000;stroke-width:0"/>
<polygon points="-211.921,356.616 -203.362,314.816 13.6105,359.248 5.05071,401.048" style="fill:#006363; stroke:#000000;stroke-width:0"/>
<circle fill="#006363" stroke="#006363" stroke-width="0" cx="-207.641" cy="335.716" r="21.3333"/>
<circle fill="#006363" stroke="#006363" stroke-width="0" cx="9.33059" cy="380.148" r="21.3333"/>
<polygon points="633.759,183.054 676.317,186.106 661.103,398.204 618.546,395.151" style="fill:#006363; stroke:#000000;stroke-width:0"/>
<circle fill="#006363" stroke="#006363" stroke-width="0" cx="655.038" cy="184.58" r="21.3333"/>
<circle fill="#006363" stroke="#006363" stroke-width="0" cx="639.825" cy="396.678" r="21.3333"/>
<polygon points="1256,469.333 256,1469.33 -744,469.333" style="fill:#000000; stroke:#000000;stroke-width:0"/>
<polygon points="-744,42.6667 256,-957.333 1256,42.6667" style="fill:#000000; stroke:#000000;stroke-width:0"/>
<circle fill="#a64b00" stroke="#a64b00" stroke-width="0" cx="-207.641" cy="335.716" r="21.3333"/>
<circle fill="#a64b00" stroke="#a64b00" stroke-width="0" cx="9.33059" cy="380.148" r="21.3333"/>
<circle fill="#a64b00" stroke="#a64b00" stroke-width="0" cx="655.038" cy="184.58" r="21.3333"/>
<circle fill="#a64b00" stroke="#a64b00" stroke-width="0" cx="639.825" cy="396.678" r="21.3333"/>
<circle fill="#a64b00" stroke="#a64b00" stroke-width="0" cx="296.807" cy="449.833" r="21.3333"/>
</svg>
