<?xml version="1.0" encoding="utf-8"?> <!-- Generator: Adobe Illustrator 13.0.0, SVG Export Plug-In . SVG Version: 6.00 Build 14948)  --> <svg version="1.2" baseProfile="tiny" id="Layer_1" xmlns="http://www.w3.org/2000/svg" xmlns:xlink="http://www.w3.org/1999/xlink" x="0px" y="0px" width="512px" height="512px" viewBox="0 0 512 512" xml:space="preserve">
<polygon points="0,0 512,0 512,512 0,512" style="fill:#ffffff; stroke:#000000;stroke-width:0"/>
<polygon points="-203.291,394.531 -209.2,352.276 -2.88963,323.428 3.01874,365.684" style="fill:#006363; stroke:#000000;stroke-width:0"/>
<circle fill="#006363" stroke="#006363" stroke-width="0" cx="-206.245" cy="373.403" r="21.3333"/>
<circle fill="#006363" stroke="#006363" stroke-width="0" cx="0.0645548" cy="344.556" r="21.3333"/>
<polygon points="616.888,191.158 659.188,185.574 687.534,400.306 645.235,405.89" style="fill:#006363; stroke:#000000;stroke-width:0"/>
<circle fill="#006363" stroke="#006363" stroke-width="0" cx="638.038" cy="188.366" r="21.3333"/>
<circle fill="#006363" stroke="#006363" stroke-width="0" cx="666.384" cy="403.098" r="21.3333"/>
<polygon points="1256,469.333 256,1469.33 -744,469.333" style="fill:#000000; stroke:#000000;stroke-width:0"/>
<polygon points="-744,42.6667 256,-957.333 1256,42.6667" style="fill:#000000; stroke:#000000;stroke-width:0"/>
<circle fill="#a64b00" stroke="#a64b00" stroke-width="0" cx="-206.245" cy="373.403" r="21.3333"/>
<circle fill="#a64b00" stroke="#a64b00" stroke-width="0" cx="0.0645548" cy="344.556" r="21.3333"/>
<circle fill="#a64b00" stroke="#a64b00" stroke-width="0" cx="638.038" cy="188.366" r="21.3333"/>
<circle fill="#a64b00" stroke="#a64b00" stroke-width="0" cx="666.384" cy="403.098" r="21.3333"/>
<circle fill="#a64b00" stroke="#a64b00" stroke-width="0" cx="287.859" cy="306.725" r="21.3333"/>
</svg>
