<?xml version="1.0" encoding="utf-8"?> <!-- Generator: Adobe Illustrator 13.0.0, SVG Export Plug-In . SVG Version: 6.00 Build 14948)  --> <svg version="1.2" baseProfile="tiny" id="Layer_1" xmlns="http://www.w3.org/2000/svg" xmlns:xlink="http://www.w3.org/1999/xlink" x="0px" y="0px" width="512px" height="512px" viewBox="0 0 512 512" xml:space="preserve">
<polygon points="0,0 512,0 512,512 0,512" style="fill:#ffffff; stroke:#000000;stroke-width:0"/>
<polygon points="-173.188,349.391 -195.88,385.522 -373.501,273.969 -350.809,237.837" style="fill:#006363; stroke:#000000;stroke-width:0"/>
<circle fill="#006363" stroke="#006363" stroke-width="0" cx="-184.534" cy="367.457" r="21.3333"/>
<circle fill="#006363" stroke="#006363" stroke-width="0" cx="-362.155" cy="255.903" r="21.3333"/>
<polygon points="755.549,315.642 775.163,277.751 962.48,374.715 942.866,412.606" style="fill:#006363; stroke:#000000;stroke-width:0"/>
<circle fill="#006363" stroke="#006363" stroke-width="0" cx="765.356" cy="296.696" r="21.3333"/>
<circle fill="#006363" stroke="#006363" stroke-width="0" cx="952.673" cy="393.66" r="21.3333"/>
<polygon points="1256,469.333 256,1469.33 -744,469.333" style="fill:#000000; stroke:#000000;stroke-width:0"/>
<polygon points="-744,42.6667 256,-957.333 1256,42.6667" style="fill:#000000; stroke:#000000;stroke-width:0"/>
<circle fill="#a64b00" stroke="#a64b00" stroke-width="0" cx="-184.534" cy="367.457" r="21.3333"/>
<circle fill="#a64b00" stroke="#a64b00" stroke-width="0" cx="-362.155" cy="255.903" r="21.3333"/>
<circle fill="#a64b00" stroke="#a64b00" stroke-width="0" cx="765.356" cy="296.696" r="21.3333"/>
<circle fill="#a64b00" stroke="#a64b00" stroke-width="0" cx="952.673" cy="393.66" r="21.3333"/>
<circle fill="#a64b00" stroke="#a64b00" stroke-width="0" cx="-99.2972" cy="373.509" r="21.3333"/>
</svg>
