<?xml version="1.0" encoding="utf-8"?> <!-- Generator: Adobe Illustrator 13.0.0, SVG Export Plug-In . SVG Version: 6.00 Build 14948)  --> <svg version="1.2" baseProfile="tiny" id="Layer_1" xmlns="http://www.w3.org/2000/svg" xmlns:xlink="http://www.w3.org/1999/xlink" x="0px" y="0px" width="512px" height="512px" viewBox="0 0 512 512" xml:space="preserve">
<polygon points="0,0 512,0 512,512 0,512" style="fill:#ffffff; stroke:#000000;stroke-width:0"/>
<polygon points="-164.42,275.238 -128.139,252.785 -15.0027,435.598 -51.2837,458.051" style="fill:#006363; stroke:#000000;stroke-width:0"/>
<circle fill="#006363" stroke="#006363" stroke-width="0" cx="-146.28" cy="264.011" r="21.3333"/>
<circle fill="#006363" stroke="#006363" stroke-width="0" cx="-33.1432" cy="446.824" r="21.3333"/>
<polygon points="674.8,175.708 711.012,198.271 597.12,381.055 560.908,358.491" style="fill:#006363; stroke:#000000;stroke-width:0"/>
<circle fill="#006363" stroke="#006363" stroke-width="0" cx="692.906" cy="186.99" r="21.3333"/>
<circle fill="#006363" stroke="#006363" stroke-width="0" cx="579.014" cy="369.773" r="21.3333"/>
<polygon points="1256,469.333 256,1469.33 -744,469.333" style="fill:#000000; stroke:#000000;stroke-width:0"/>
<polygon points="-744,42.6667 256,-957.333 1256,42.6667" style="fill:#000000; stroke:#000000;stroke-width:0"/>
<circle fill="#a64b00" stroke="#a64b00" stroke-width="0" cx="-146.28" cy="264.011" r="21.3333"/>
<circle fill="#a64b00" stroke="#a64b00" stroke-width="0" cx="-33.1432" cy="446.824" r="21.3333"/>
<circle fill="#a64b00" stroke="#a64b00" stroke-width="0" cx="692.906" cy="186.99" r="21.3333"/>
<circle fill="#a64b00" stroke="#a64b00" stroke-width="0" cx="579.014" cy="369.773" r="21.3333"/>
<circle fill="#a64b00" stroke="#a64b00" stroke-width="0" cx="318.282" cy="106.374" r="21.3333"/>
</svg>
