<?xml version="1.0" encoding="utf-8"?> <!-- Generator: Adobe Illustrator 13.0.0, SVG Export Plug-In . SVG Version: 6.00 Build 14948)  --> <svg version="1.2" baseProfile="tiny" id="Layer_1" xmlns="http://www.w3.org/2000/svg" xmlns:xlink="http://www.w3.org/1999/xlink" x="0px" y="0px" width="512px" height="512px" viewBox="0 0 512 512" xml:space="preserve">
<polygon points="0,0 512,0 512,512 0,512" style="fill:#ffffff; stroke:#000000;stroke-width:0"/>
<polygon points="-284.795,325.41 -326.739,317.59 -287.078,104.87 -245.134,112.691" style="fill:#006363; stroke:#000000;stroke-width:0"/>
<circle fill="#006363" stroke="#006363" stroke-width="0" cx="-305.767" cy="321.5" r="21.3333"/>
<circle fill="#006363" stroke="#006363" stroke-width="0" cx="-266.106" cy="108.781" r="21.3333"/>
<polygon points="792.155,263.985 826.271,238.363 956.464,411.719 922.348,437.341" style="fill:#006363; stroke:#000000;stroke-width:0"/>
<circle fill="#006363" stroke="#006363" stroke-width="0" cx="809.213" cy="251.174" r="21.3333"/>
<circle fill="#006363" stroke="#006363" stroke-width="0" cx="939.406" cy="424.53" r="21.3333"/>
<polygon points="1256,469.333 256,1469.33 -744,469.333" style="fill:#000000; stroke:#000000;stroke-width:0"/>
<polygon points="-744,42.6667 256,-957.333 1256,42.6667" style="fill:#000000; stroke:#000000;stroke-width:0"/>
<circle fill="#a64b00" stroke="#a64b00" stroke-width="0" cx="-305.767" cy="321.5" r="21.3333"/>
<circle fill="#a64b00" stroke="#a64b00" stroke-width="0" cx="-266.106" cy="108.781" r="21.3333"/>
<circle fill="#a64b00" stroke="#a64b00" stroke-width="0" cx="809.213" cy="251.174" r="21.3333"/>
<circle fill="#a64b00" stroke="#a64b00" stroke-width="0" cx="939.406" cy="424.53" r="21.3333"/>
<circle fill="#a64b00" stroke="#a64b00" stroke-width="0" cx="-127.931" cy="201.779" r="21.3333"/>
</svg>
