<?xml version="1.0" encoding="utf-8"?> <!-- Generator: Adobe Illustrator 13.0.0, SVG Export Plug-In . SVG Version: 6.00 Build 14948)  --> <svg version="1.2" baseProfile="tiny" id="Layer_1" xmlns="http://www.w3.org/2000/svg" xmlns:xlink="http://www.w3.org/1999/xlink" x="0px" y="0px" width="512px" height="512px" viewBox="0 0 512 512" xml:space="preserve">
<polygon points="0,0 512,0 512,512 0,512" style="fill:#ffffff; stroke:#000000;stroke-width:0"/>
<polygon points="-45.0768,243.707 -3.93582,232.399 52.1334,436.398 10.9924,447.705" style="fill:#006363; stroke:#000000;stroke-width:0"/>
<circle fill="#006363" stroke="#006363" stroke-width="0" cx="-24.5063" cy="238.053" r="21.3333"/>
<circle fill="#006363" stroke="#006363" stroke-width="0" cx="31.5629" cy="442.051" r="21.3333"/>
<polygon points="433.704,102.182 463.677,71.8163 613.463,219.668 583.49,250.033" style="fill:#006363; stroke:#000000;stroke-width:0"/>
<circle fill="#006363" stroke="#006363" stroke-width="0" cx="448.69" cy="86.999" r="21.3333"/>
<circle fill="#006363" stroke="#006363" stroke-width="0" cx="598.476" cy="234.85" r="21.3333"/>
<polygon points="1256,469.333 256,1469.33 -744,469.333" style="fill:#000000; stroke:#000000;stroke-width:0"/>
<polygon points="-744,42.6667 256,-957.333 1256,42.6667" style="fill:#000000; stroke:#000000;stroke-width:0"/>
<circle fill="#a64b00" stroke="#a64b00" stroke-width="0" cx="-24.5063" cy="238.053" r="21.3333"/>
<circle fill="#a64b00" stroke="#a64b00" stroke-width="0" cx="31.5629" cy="442.051" r="21.3333"/>
<circle fill="#a64b00" stroke="#a64b00" stroke-width="0" cx="448.69" cy="86.999" r="21.3333"/>
<circle fill="#a64b00" stroke="#a64b00" stroke-width="0" cx="598.476" cy="234.85" r="21.3333"/>
<circle fill="#a64b00" stroke="#a64b00" stroke-width="0" cx="199.011" cy="382.467" r="21.3333"/>
</svg>
