<?xml version="1.0" encoding="utf-8"?> <!-- Generator: Adobe Illustrator 13.0.0, SVG Export Plug-In . SVG Version: 6.00 Build 14948)  --> <svg version="1.2" baseProfile="tiny" id="Layer_1" xmlns="http://www.w3.org/2000/svg" xmlns:xlink="http://www.w3.org/1999/xlink" x="0px" y="0px" width="512px" height="512px" viewBox="0 0 512 512" xml:space="preserve">
<polygon points="0,0 512,0 512,512 0,512" style="fill:#ffffff; stroke:#000000;stroke-width:0"/>
<polygon points="9.45178,75.8912 52.0727,73.9159 62.0614,289.442 19.4405,291.417" style="fill:#006363; stroke:#000000;stroke-width:0"/>
<circle fill="#006363" stroke="#006363" stroke-width="0" cx="30.7622" cy="74.9036" r="21.3333"/>
<circle fill="#006363" stroke="#006363" stroke-width="0" cx="40.7509" cy="290.43" r="21.3333"/>
<polygon points="455.45,194.469 498.042,191.943 510.592,403.583 468,406.109" style="fill:#006363; stroke:#000000;stroke-width:0"/>
<circle fill="#006363" stroke="#006363" stroke-width="0" cx="476.746" cy="193.206" r="21.3333"/>
<circle fill="#006363" stroke="#006363" stroke-width="0" cx="489.296" cy="404.846" r="21.3333"/>
<polygon points="1256,469.333 256,1469.33 -744,469.333" style="fill:#000000; stroke:#000000;stroke-width:0"/>
<polygon points="-744,42.6667 256,-957.333 1256,42.6667" style="fill:#000000; stroke:#000000;stroke-width:0"/>
<circle fill="#a64b00" stroke="#a64b00" stroke-width="0" cx="30.7622" cy="74.9036" r="21.3333"/>
<circle fill="#a64b00" stroke="#a64b00" stroke-width="0" cx="40.7509" cy="290.43" r="21.3333"/>
<circle fill="#a64b00" stroke="#a64b00" stroke-width="0" cx="476.746" cy="193.206" r="21.3333"/>
<circle fill="#a64b00" stroke="#a64b00" stroke-width="0" cx="489.296" cy="404.846" r="21.3333"/>
<circle fill="#a64b00" stroke="#a64b00" stroke-width="0" cx="127.148" cy="278.491" r="21.3333"/>
</svg>
