<?xml version="1.0" encoding="utf-8"?> <!-- Generator: Adobe Illustrator 13.0.0, SVG Export Plug-In . SVG Version: 6.00 Build 14948)  --> <svg version="1.2" baseProfile="tiny" id="Layer_1" xmlns="http://www.w3.org/2000/svg" xmlns:xlink="http://www.w3.org/1999/xlink" x="0px" y="0px" width="512px" height="512px" viewBox="0 0 512 512" xml:space="preserve">
<polygon points="0,0 512,0 512,512 0,512" style="fill:#ffffff; stroke:#000000;stroke-width:0"/>
<polygon points="-100.799,241.677 -58.761,234.381 -22.4844,443.392 -64.5226,450.688" style="fill:#006363; stroke:#000000;stroke-width:0"/>
<circle fill="#006363" stroke="#006363" stroke-width="0" cx="-79.7801" cy="238.029" r="21.3333"/>
<circle fill="#006363" stroke="#006363" stroke-width="0" cx="-43.5035" cy="447.04" r="21.3333"/>
<polygon points="708.479,267.314 690.722,306.11 495.25,216.644 513.007,177.848" style="fill:#006363; stroke:#000000;stroke-width:0"/>
<circle fill="#006363" stroke="#006363" stroke-width="0" cx="699.6" cy="286.712" r="21.3333"/>
<circle fill="#006363" stroke="#006363" stroke-width="0" cx="504.129" cy="197.246" r="21.3333"/>
<polygon points="1256,469.333 256,1469.33 -744,469.333" style="fill:#000000; stroke:#000000;stroke-width:0"/>
<polygon points="-744,42.6667 256,-957.333 1256,42.6667" style="fill:#000000; stroke:#000000;stroke-width:0"/>
<circle fill="#a64b00" stroke="#a64b00" stroke-width="0" cx="-79.7801" cy="238.029" r="21.3333"/>
<circle fill="#a64b00" stroke="#a64b00" stroke-width="0" cx="-43.5035" cy="447.04" r="21.3333"/>
<circle fill="#a64b00" stroke="#a64b00" stroke-width="0" cx="699.6" cy="286.712" r="21.3333"/>
<circle fill="#a64b00" stroke="#a64b00" stroke-width="0" cx="504.129" cy="197.246" r="21.3333"/>
<circle fill="#a64b00" stroke="#a64b00" stroke-width="0" cx="382.112" cy="249.482" r="21.3333"/>
</svg>
