<?xml version="1.0" encoding="utf-8"?> <!-- Generator: Adobe Illustrator 13.0.0, SVG Export Plug-In . SVG Version: 6.00 Build 14948)  --> <svg version="1.2" baseProfile="tiny" id="Layer_1" xmlns="http://www.w3.org/2000/svg" xmlns:xlink="http://www.w3.org/1999/xlink" x="0px" y="0px" width="512px" height="512px" viewBox="0 0 512 512" xml:space="preserve">
<polygon points="0,0 512,0 512,512 0,512" style="fill:#ffffff; stroke:#000000;stroke-width:0"/>
<polygon points="-14.628,136.788 27.6105,130.759 58.2053,345.088 15.9668,351.118" style="fill:#006363; stroke:#000000;stroke-width:0"/>
<circle fill="#006363" stroke="#006363" stroke-width="0" cx="6.49124" cy="133.774" r="21.3333"/>
<circle fill="#006363" stroke="#006363" stroke-width="0" cx="37.0861" cy="348.103" r="21.3333"/>
<polygon points="452.481,174.072 493.818,163.503 546.265,368.648 504.928,379.216" style="fill:#006363; stroke:#000000;stroke-width:0"/>
<circle fill="#006363" stroke="#006363" stroke-width="0" cx="473.15" cy="168.788" r="21.3333"/>
<circle fill="#006363" stroke="#006363" stroke-width="0" cx="525.597" cy="373.932" r="21.3333"/>
<polygon points="1256,469.333 256,1469.33 -744,469.333" style="fill:#000000; stroke:#000000;stroke-width:0"/>
<polygon points="-744,42.6667 256,-957.333 1256,42.6667" style="fill:#000000; stroke:#000000;stroke-width:0"/>
<circle fill="#a64b00" stroke="#a64b00" stroke-width="0" cx="6.49124" cy="133.774" r="21.3333"/>
<circle fill="#a64b00" stroke="#a64b00" stroke-width="0" cx="37.0861" cy="348.103" r="21.3333"/>
<circle fill="#a64b00" stroke="#a64b00" stroke-width="0" cx="473.15" cy="168.788" r="21.3333"/>
<circle fill="#a64b00" stroke="#a64b00" stroke-width="0" cx="525.597" cy="373.932" r="21.3333"/>
<circle fill="#a64b00" stroke="#a64b00" stroke-width="0" cx="418.281" cy="297.101" r="21.3333"/>
</svg>
