<?xml version="1.0" encoding="utf-8"?> <!-- Generator: Adobe Illustrator 13.0.0, SVG Export Plug-In . SVG Version: 6.00 Build 14948)  --> <svg version="1.2" baseProfile="tiny" id="Layer_1" xmlns="http://www.w3.org/2000/svg" xmlns:xlink="http://www.w3.org/1999/xlink" x="0px" y="0px" width="512px" height="512px" viewBox="0 0 512 512" xml:space="preserve">
<polygon points="0,0 512,0 512,512 0,512" style="fill:#ffffff; stroke:#000000;stroke-width:0"/>
<polygon points="-109.545,66.7835 -67.1873,61.6572 -42.0707,269.192 -84.4282,274.318" style="fill:#006363; stroke:#000000;stroke-width:0"/>
<circle fill="#006363" stroke="#006363" stroke-width="0" cx="-88.3661" cy="64.2204" r="21.3333"/>
<circle fill="#006363" stroke="#006363" stroke-width="0" cx="-63.2494" cy="271.755" r="21.3333"/>
<polygon points="716.237,208.105 728.795,248.882 521.906,312.595 509.349,271.818" style="fill:#006363; stroke:#000000;stroke-width:0"/>
<circle fill="#006363" stroke="#006363" stroke-width="0" cx="722.516" cy="228.494" r="21.3333"/>
<circle fill="#006363" stroke="#006363" stroke-width="0" cx="515.627" cy="292.207" r="21.3333"/>
<polygon points="1256,469.333 256,1469.33 -744,469.333" style="fill:#000000; stroke:#000000;stroke-width:0"/>
<polygon points="-744,42.6667 256,-957.333 1256,42.6667" style="fill:#000000; stroke:#000000;stroke-width:0"/>
<circle fill="#a64b00" stroke="#a64b00" stroke-width="0" cx="-88.3661" cy="64.2204" r="21.3333"/>
<circle fill="#a64b00" stroke="#a64b00" stroke-width="0" cx="-63.2494" cy="271.755" r="21.3333"/>
<circle fill="#a64b00" stroke="#a64b00" stroke-width="0" cx="722.516" cy="228.494" r="21.3333"/>
<circle fill="#a64b00" stroke="#a64b00" stroke-width="0" cx="515.627" cy="292.207" r="21.3333"/>
<circle fill="#a64b00" stroke="#a64b00" stroke-width="0" cx="349.899" cy="383.049" r="21.3333"/>
</svg>
