<?xml version="1.0" encoding="utf-8"?> <!-- Generator: Adobe Illustrator 13.0.0, SVG Export Plug-In . SVG Version: 6.00 Build 14948)  --> <svg version="1.2" baseProfile="tiny" id="Layer_1" xmlns="http://www.w3.org/2000/svg" xmlns:xlink="http://www.w3.org/1999/xlink" x="0px" y="0px" width="512px" height="512px" viewBox="0 0 512 512" xml:space="preserve">
<polygon points="0,0 512,0 512,512 0,512" style="fill:#ffffff; stroke:#000000;stroke-width:0"/>
<polygon points="-91.0364,258.463 -62.302,290.003 -216.93,430.876 -245.664,399.336" style="fill:#006363; stroke:#000000;stroke-width:0"/>
<circle fill="#006363" stroke="#006363" stroke-width="0" cx="-76.6692" cy="274.233" r="21.3333"/>
<circle fill="#006363" stroke="#006363" stroke-width="0" cx="-231.297" cy="415.106" r="21.3333"/>
<polygon points="679.303,437.262 642.427,415.8 748.755,233.107 785.631,254.569" style="fill:#006363; stroke:#000000;stroke-width:0"/>
<circle fill="#006363" stroke="#006363" stroke-width="0" cx="660.865" cy="426.531" r="21.3333"/>
<circle fill="#006363" stroke="#006363" stroke-width="0" cx="767.193" cy="243.838" r="21.3333"/>
<polygon points="1256,469.333 256,1469.33 -744,469.333" style="fill:#000000; stroke:#000000;stroke-width:0"/>
<polygon points="-744,42.6667 256,-957.333 1256,42.6667" style="fill:#000000; stroke:#000000;stroke-width:0"/>
<circle fill="#a64b00" stroke="#a64b00" stroke-width="0" cx="-76.6692" cy="274.233" r="21.3333"/>
<circle fill="#a64b00" stroke="#a64b00" stroke-width="0" cx="-231.297" cy="415.106" r="21.3333"/>
<circle fill="#a64b00" stroke="#a64b00" stroke-width="0" cx="660.865" cy="426.531" r="21.3333"/>
<circle fill="#a64b00" stroke="#a64b00" stroke-width="0" cx="767.193" cy="243.838" r="21.3333"/>
<circle fill="#a64b00" stroke="#a64b00" stroke-width="0" cx="172.129" cy="96.8337" r="21.3333"/>
</svg>
