<?xml version="1.0" encoding="utf-8"?> <!-- Generator: Adobe Illustrator 13.0.0, SVG Export Plug-In . SVG Version: 6.00 Build 14948)  --> <svg version="1.2" baseProfile="tiny" id="Layer_1" xmlns="http://www.w3.org/2000/svg" xmlns:xlink="http://www.w3.org/1999/xlink" x="0px" y="0px" width="512px" height="512px" viewBox="0 0 512 512" xml:space="preserve">
<polygon points="0,0 512,0 512,512 0,512" style="fill:#ffffff; stroke:#000000;stroke-width:0"/>
<polygon points="-33.9044,208.694 7.69735,199.221 53.8035,401.704 12.2017,411.177" style="fill:#006363; stroke:#000000;stroke-width:0"/>
<circle fill="#006363" stroke="#006363" stroke-width="0" cx="-13.1035" cy="203.957" r="21.3333"/>
<circle fill="#006363" stroke="#006363" stroke-width="0" cx="33.0026" cy="406.44" r="21.3333"/>
<polygon points="446.755,91.2746 484.511,71.4027 583.385,259.262 545.629,279.134" style="fill:#006363; stroke:#000000;stroke-width:0"/>
<circle fill="#006363" stroke="#006363" stroke-width="0" cx="465.633" cy="81.3386" r="21.3333"/>
<circle fill="#006363" stroke="#006363" stroke-width="0" cx="564.507" cy="269.198" r="21.3333"/>
<polygon points="1256,469.333 256,1469.33 -744,469.333" style="fill:#000000; stroke:#000000;stroke-width:0"/>
<polygon points="-744,42.6667 256,-957.333 1256,42.6667" style="fill:#000000; stroke:#000000;stroke-width:0"/>
<circle fill="#a64b00" stroke="#a64b00" stroke-width="0" cx="-13.1035" cy="203.957" r="21.3333"/>
<circle fill="#a64b00" stroke="#a64b00" stroke-width="0" cx="33.0026" cy="406.44" r="21.3333"/>
<circle fill="#a64b00" stroke="#a64b00" stroke-width="0" cx="465.633" cy="81.3386" r="21.3333"/>
<circle fill="#a64b00" stroke="#a64b00" stroke-width="0" cx="564.507" cy="269.198" r="21.3333"/>
<circle fill="#a64b00" stroke="#a64b00" stroke-width="0" cx="276.117" cy="273.82" r="21.3333"/>
</svg>
