<?xml version="1.0" encoding="utf-8"?> <!-- Generator: Adobe Illustrator 13.0.0, SVG Export Plug-In . SVG Version: 6.00 Build 14948)  --> <svg version="1.2" baseProfile="tiny" id="Layer_1" xmlns="http://www.w3.org/2000/svg" xmlns:xlink="http://www.w3.org/1999/xlink" x="0px" y="0px" width="512px" height="512px" viewBox="0 0 512 512" xml:space="preserve">
<polygon points="0,0 512,0 512,512 0,512" style="fill:#ffffff; stroke:#000000;stroke-width:0"/>
<polygon points="-29.9859,186.042 11.8046,177.44 55.9048,391.681 14.1144,400.283" style="fill:#006363; stroke:#000000;stroke-width:0"/>
<circle fill="#006363" stroke="#006363" stroke-width="0" cx="-9.09069" cy="181.741" r="21.3333"/>
<circle fill="#006363" stroke="#006363" stroke-width="0" cx="35.0096" cy="395.982" r="21.3333"/>
<polygon points="447.908,111.871 486.778,94.2769 574.25,287.526 535.38,305.12" style="fill:#006363; stroke:#000000;stroke-width:0"/>
<circle fill="#006363" stroke="#006363" stroke-width="0" cx="467.343" cy="103.074" r="21.3333"/>
<circle fill="#006363" stroke="#006363" stroke-width="0" cx="554.815" cy="296.323" r="21.3333"/>
<polygon points="1256,469.333 256,1469.33 -744,469.333" style="fill:#000000; stroke:#000000;stroke-width:0"/>
<polygon points="-744,42.6667 256,-957.333 1256,42.6667" style="fill:#000000; stroke:#000000;stroke-width:0"/>
<circle fill="#a64b00" stroke="#a64b00" stroke-width="0" cx="-9.09069" cy="181.741" r="21.3333"/>
<circle fill="#a64b00" stroke="#a64b00" stroke-width="0" cx="35.0096" cy="395.982" r="21.3333"/>
<circle fill="#a64b00" stroke="#a64b00" stroke-width="0" cx="467.343" cy="103.074" r="21.3333"/>
<circle fill="#a64b00" stroke="#a64b00" stroke-width="0" cx="554.815" cy="296.323" r="21.3333"/>
<circle fill="#a64b00" stroke="#a64b00" stroke-width="0" cx="312.26" cy="157.412" r="21.3333"/>
</svg>
