<?xml version="1.0" encoding="utf-8"?> <!-- Generator: Adobe Illustrator 13.0.0, SVG Export Plug-In . SVG Version: 6.00 Build 14948)  --> <svg version="1.2" baseProfile="tiny" id="Layer_1" xmlns="http://www.w3.org/2000/svg" xmlns:xlink="http://www.w3.org/1999/xlink" x="0px" y="0px" width="512px" height="512px" viewBox="0 0 512 512" xml:space="preserve">
<polygon points="0,0 512,0 512,512 0,512" style="fill:#ffffff; stroke:#000000;stroke-width:0"/>
<polygon points="-99.9205,47.0524 -85.4538,87.1916 -289.369,160.685 -303.835,120.546" style="fill:#006363; stroke:#000000;stroke-width:0"/>
<circle fill="#006363" stroke="#006363" stroke-width="0" cx="-92.6871" cy="67.122" r="21.3333"/>
<circle fill="#006363" stroke="#006363" stroke-width="0" cx="-296.602" cy="140.616" r="21.3333"/>
<polygon points="746.135,327.898 706.169,312.959 780.705,113.55 820.671,128.489" style="fill:#006363; stroke:#000000;stroke-width:0"/>
<circle fill="#006363" stroke="#006363" stroke-width="0" cx="726.152" cy="320.429" r="21.3333"/>
<circle fill="#006363" stroke="#006363" stroke-width="0" cx="800.688" cy="121.02" r="21.3333"/>
<polygon points="1256,469.333 256,1469.33 -744,469.333" style="fill:#000000; stroke:#000000;stroke-width:0"/>
<polygon points="-744,42.6667 256,-957.333 1256,42.6667" style="fill:#000000; stroke:#000000;stroke-width:0"/>
<circle fill="#a64b00" stroke="#a64b00" stroke-width="0" cx="-92.6871" cy="67.122" r="21.3333"/>
<circle fill="#a64b00" stroke="#a64b00" stroke-width="0" cx="-296.602" cy="140.616" r="21.3333"/>
<circle fill="#a64b00" stroke="#a64b00" stroke-width="0" cx="726.152" cy="320.429" r="21.3333"/>
<circle fill="#a64b00" stroke="#a64b00" stroke-width="0" cx="800.688" cy="121.02" r="21.3333"/>
<circle fill="#a64b00" stroke="#a64b00" stroke-width="0" cx="79.6654" cy="106.374" r="21.3333"/>
</svg>
