<?xml version="1.0" encoding="utf-8"?> <!-- Generator: Adobe Illustrator 13.0.0, SVG Export Plug-In . SVG Version: 6.00 Build 14948)  --> <svg version="1.2" baseProfile="tiny" id="Layer_1" xmlns="http://www.w3.org/2000/svg" xmlns:xlink="http://www.w3.org/1999/xlink" x="0px" y="0px" width="512px" height="512px" viewBox="0 0 512 512" xml:space="preserve">
<polygon points="0,0 512,0 512,512 0,512" style="fill:#ffffff; stroke:#000000;stroke-width:0"/>
<polygon points="-103.691,128.286 -107.099,170.816 -330.195,152.938 -326.787,110.408" style="fill:#006363; stroke:#000000;stroke-width:0"/>
<circle fill="#006363" stroke="#006363" stroke-width="0" cx="-105.395" cy="149.551" r="21.3333"/>
<circle fill="#006363" stroke="#006363" stroke-width="0" cx="-328.491" cy="131.673" r="21.3333"/>
<polygon points="753.782,397.656 717.614,375.022 827.228,199.867 863.396,222.501" style="fill:#006363; stroke:#000000;stroke-width:0"/>
<circle fill="#006363" stroke="#006363" stroke-width="0" cx="735.698" cy="386.339" r="21.3333"/>
<circle fill="#006363" stroke="#006363" stroke-width="0" cx="845.312" cy="211.184" r="21.3333"/>
<polygon points="1256,469.333 256,1469.33 -744,469.333" style="fill:#000000; stroke:#000000;stroke-width:0"/>
<polygon points="-744,42.6667 256,-957.333 1256,42.6667" style="fill:#000000; stroke:#000000;stroke-width:0"/>
<circle fill="#a64b00" stroke="#a64b00" stroke-width="0" cx="-105.395" cy="149.551" r="21.3333"/>
<circle fill="#a64b00" stroke="#a64b00" stroke-width="0" cx="-328.491" cy="131.673" r="21.3333"/>
<circle fill="#a64b00" stroke="#a64b00" stroke-width="0" cx="735.698" cy="386.339" r="21.3333"/>
<circle fill="#a64b00" stroke="#a64b00" stroke-width="0" cx="845.312" cy="211.184" r="21.3333"/>
<circle fill="#a64b00" stroke="#a64b00" stroke-width="0" cx="28.9593" cy="77.7526" r="21.3333"/>
</svg>
