<?xml version="1.0" encoding="utf-8"?> <!-- Generator: Adobe Illustrator 13.0.0, SVG Export Plug-In . SVG Version: 6.00 Build 14948)  --> <svg version="1.2" baseProfile="tiny" id="Layer_1" xmlns="http://www.w3.org/2000/svg" xmlns:xlink="http://www.w3.org/1999/xlink" x="0px" y="0px" width="512px" height="512px" viewBox="0 0 512 512" xml:space="preserve">
<polygon points="0,0 512,0 512,512 0,512" style="fill:#ffffff; stroke:#000000;stroke-width:0"/>
<polygon points="-93.2625,52.1862 -85.1078,94.0663 -303.897,136.668 -312.051,94.7875" style="fill:#006363; stroke:#000000;stroke-width:0"/>
<circle fill="#006363" stroke="#006363" stroke-width="0" cx="-89.1851" cy="73.1263" r="21.3333"/>
<circle fill="#006363" stroke="#006363" stroke-width="0" cx="-307.974" cy="115.728" r="21.3333"/>
<polygon points="748.312,338.16 708.899,321.819 788.087,130.831 827.5,147.172" style="fill:#006363; stroke:#000000;stroke-width:0"/>
<circle fill="#006363" stroke="#006363" stroke-width="0" cx="728.605" cy="329.989" r="21.3333"/>
<circle fill="#006363" stroke="#006363" stroke-width="0" cx="807.793" cy="139.001" r="21.3333"/>
<polygon points="1256,469.333 256,1469.33 -744,469.333" style="fill:#000000; stroke:#000000;stroke-width:0"/>
<polygon points="-744,42.6667 256,-957.333 1256,42.6667" style="fill:#000000; stroke:#000000;stroke-width:0"/>
<circle fill="#a64b00" stroke="#a64b00" stroke-width="0" cx="-89.1851" cy="73.1263" r="21.3333"/>
<circle fill="#a64b00" stroke="#a64b00" stroke-width="0" cx="-307.974" cy="115.728" r="21.3333"/>
<circle fill="#a64b00" stroke="#a64b00" stroke-width="0" cx="728.605" cy="329.989" r="21.3333"/>
<circle fill="#a64b00" stroke="#a64b00" stroke-width="0" cx="807.793" cy="139.001" r="21.3333"/>
<circle fill="#a64b00" stroke="#a64b00" stroke-width="0" cx="70.7173" cy="154.077" r="21.3333"/>
</svg>
