<?xml version="1.0" encoding="utf-8"?> <!-- Generator: Adobe Illustrator 13.0.0, SVG Export Plug-In . SVG Version: 6.00 Build 14948)  --> <svg version="1.2" baseProfile="tiny" id="Layer_1" xmlns="http://www.w3.org/2000/svg" xmlns:xlink="http://www.w3.org/1999/xlink" x="0px" y="0px" width="512px" height="512px" viewBox="0 0 512 512" xml:space="preserve">
<polygon points="0,0 512,0 512,512 0,512" style="fill:#ffffff; stroke:#000000;stroke-width:0"/>
<polygon points="-213.57,182.551 -176.411,161.583 -72.8848,345.055 -110.044,366.023" style="fill:#006363; stroke:#000000;stroke-width:0"/>
<circle fill="#006363" stroke="#006363" stroke-width="0" cx="-194.99" cy="172.067" r="21.3333"/>
<circle fill="#006363" stroke="#006363" stroke-width="0" cx="-91.4644" cy="355.539" r="21.3333"/>
<polygon points="627.856,426.864 602.884,392.268 774.073,268.704 799.044,303.3" style="fill:#006363; stroke:#000000;stroke-width:0"/>
<circle fill="#006363" stroke="#006363" stroke-width="0" cx="615.37" cy="409.566" r="21.3333"/>
<circle fill="#006363" stroke="#006363" stroke-width="0" cx="786.559" cy="286.002" r="21.3333"/>
<polygon points="1256,469.333 256,1469.33 -744,469.333" style="fill:#000000; stroke:#000000;stroke-width:0"/>
<polygon points="-744,42.6667 256,-957.333 1256,42.6667" style="fill:#000000; stroke:#000000;stroke-width:0"/>
<circle fill="#a64b00" stroke="#a64b00" stroke-width="0" cx="-194.99" cy="172.067" r="21.3333"/>
<circle fill="#a64b00" stroke="#a64b00" stroke-width="0" cx="-91.4644" cy="355.539" r="21.3333"/>
<circle fill="#a64b00" stroke="#a64b00" stroke-width="0" cx="615.37" cy="409.566" r="21.3333"/>
<circle fill="#a64b00" stroke="#a64b00" stroke-width="0" cx="786.559" cy="286.002" r="21.3333"/>
<circle fill="#a64b00" stroke="#a64b00" stroke-width="0" cx="196.588" cy="411.671" r="21.3333"/>
</svg>
