<?xml version="1.0" encoding="utf-8"?> <!-- Generator: Adobe Illustrator 13.0.0, SVG Export Plug-In . SVG Version: 6.00 Build 14948)  --> <svg version="1.2" baseProfile="tiny" id="Layer_1" xmlns="http://www.w3.org/2000/svg" xmlns:xlink="http://www.w3.org/1999/xlink" x="0px" y="0px" width="512px" height="512px" viewBox="0 0 512 512" xml:space="preserve">
<polygon points="0,0 512,0 512,512 0,512" style="fill:#ffffff; stroke:#000000;stroke-width:0"/>
<polygon points="15.2692,150.485 57.9238,149.467 62.9446,359.915 20.2901,360.933" style="fill:#006363; stroke:#000000;stroke-width:0"/>
<circle fill="#006363" stroke="#006363" stroke-width="0" cx="36.5965" cy="149.976" r="21.3333"/>
<circle fill="#006363" stroke="#006363" stroke-width="0" cx="41.6174" cy="360.424" r="21.3333"/>
<polygon points="451.399,132.799 494.04,131.321 501.483,346.067 458.842,347.545" style="fill:#006363; stroke:#000000;stroke-width:0"/>
<circle fill="#006363" stroke="#006363" stroke-width="0" cx="472.719" cy="132.06" r="21.3333"/>
<circle fill="#006363" stroke="#006363" stroke-width="0" cx="480.162" cy="346.806" r="21.3333"/>
<polygon points="1256,469.333 256,1469.33 -744,469.333" style="fill:#000000; stroke:#000000;stroke-width:0"/>
<polygon points="-744,42.6667 256,-957.333 1256,42.6667" style="fill:#000000; stroke:#000000;stroke-width:0"/>
<circle fill="#a64b00" stroke="#a64b00" stroke-width="0" cx="36.5965" cy="149.976" r="21.3333"/>
<circle fill="#a64b00" stroke="#a64b00" stroke-width="0" cx="41.6174" cy="360.424" r="21.3333"/>
<circle fill="#a64b00" stroke="#a64b00" stroke-width="0" cx="472.719" cy="132.06" r="21.3333"/>
<circle fill="#a64b00" stroke="#a64b00" stroke-width="0" cx="480.162" cy="346.806" r="21.3333"/>
<circle fill="#a64b00" stroke="#a64b00" stroke-width="0" cx="431.782" cy="256" r="21.3333"/>
</svg>
