<?xml version="1.0" encoding="utf-8"?> <!-- Generator: Adobe Illustrator 13.0.0, SVG Export Plug-In . SVG Version: 6.00 Build 14948)  --> <svg version="1.2" baseProfile="tiny" id="Layer_1" xmlns="http://www.w3.org/2000/svg" xmlns:xlink="http://www.w3.org/1999/xlink" x="0px" y="0px" width="512px" height="512px" viewBox="0 0 512 512" xml:space="preserve">
<polygon points="0,0 512,0 512,512 0,512" style="fill:#ffffff; stroke:#000000;stroke-width:0"/>
<polygon points="-206.762,404.737 -216.32,363.155 -1.51762,313.781 8.04025,355.364" style="fill:#006363; stroke:#000000;stroke-width:0"/>
<circle fill="#006363" stroke="#006363" stroke-width="0" cx="-211.541" cy="383.946" r="21.3333"/>
<circle fill="#006363" stroke="#006363" stroke-width="0" cx="3.26131" cy="334.573" r="21.3333"/>
<polygon points="613.16,197.692 655.098,189.836 693.811,396.493 651.874,404.349" style="fill:#006363; stroke:#000000;stroke-width:0"/>
<circle fill="#006363" stroke="#006363" stroke-width="0" cx="634.129" cy="193.764" r="21.3333"/>
<circle fill="#006363" stroke="#006363" stroke-width="0" cx="672.842" cy="400.421" r="21.3333"/>
<polygon points="1256,469.333 256,1469.33 -744,469.333" style="fill:#000000; stroke:#000000;stroke-width:0"/>
<polygon points="-744,42.6667 256,-957.333 1256,42.6667" style="fill:#000000; stroke:#000000;stroke-width:0"/>
<circle fill="#a64b00" stroke="#a64b00" stroke-width="0" cx="-211.541" cy="383.946" r="21.3333"/>
<circle fill="#a64b00" stroke="#a64b00" stroke-width="0" cx="3.26131" cy="334.573" r="21.3333"/>
<circle fill="#a64b00" stroke="#a64b00" stroke-width="0" cx="634.129" cy="193.764" r="21.3333"/>
<circle fill="#a64b00" stroke="#a64b00" stroke-width="0" cx="672.842" cy="400.421" r="21.3333"/>
<circle fill="#a64b00" stroke="#a64b00" stroke-width="0" cx="285.472" cy="268.563" r="21.3333"/>
</svg>
