<?xml version="1.0" encoding="utf-8"?> <!-- Generator: Adobe Illustrator 13.0.0, SVG Export Plug-In . SVG Version: 6.00 Build 14948)  --> <svg version="1.2" baseProfile="tiny" id="Layer_1" xmlns="http://www.w3.org/2000/svg" xmlns:xlink="http://www.w3.org/1999/xlink" x="0px" y="0px" width="512px" height="512px" viewBox="0 0 512 512" xml:space="preserve">
<polygon points="0,0 512,0 512,512 0,512" style="fill:#ffffff; stroke:#000000;stroke-width:0"/>
<polygon points="-137.472,188.289 -97.0447,174.647 -29.8837,373.679 -70.3108,387.321" style="fill:#006363; stroke:#000000;stroke-width:0"/>
<circle fill="#006363" stroke="#006363" stroke-width="0" cx="-117.258" cy="181.468" r="21.3333"/>
<circle fill="#006363" stroke="#006363" stroke-width="0" cx="-50.0972" cy="380.5" r="21.3333"/>
<polygon points="694.97,186.285 722.576,218.818 562.292,354.828 534.686,322.295" style="fill:#006363; stroke:#000000;stroke-width:0"/>
<circle fill="#006363" stroke="#006363" stroke-width="0" cx="708.773" cy="202.551" r="21.3333"/>
<circle fill="#006363" stroke="#006363" stroke-width="0" cx="548.489" cy="338.562" r="21.3333"/>
<polygon points="1256,469.333 256,1469.33 -744,469.333" style="fill:#000000; stroke:#000000;stroke-width:0"/>
<polygon points="-744,42.6667 256,-957.333 1256,42.6667" style="fill:#000000; stroke:#000000;stroke-width:0"/>
<circle fill="#a64b00" stroke="#a64b00" stroke-width="0" cx="-117.258" cy="181.468" r="21.3333"/>
<circle fill="#a64b00" stroke="#a64b00" stroke-width="0" cx="-50.0972" cy="380.5" r="21.3333"/>
<circle fill="#a64b00" stroke="#a64b00" stroke-width="0" cx="708.773" cy="202.551" r="21.3333"/>
<circle fill="#a64b00" stroke="#a64b00" stroke-width="0" cx="548.489" cy="338.562" r="21.3333"/>
<circle fill="#a64b00" stroke="#a64b00" stroke-width="0" cx="332.003" cy="230.401" r="21.3333"/>
</svg>
