<?xml version="1.0" encoding="utf-8"?> <!-- Generator: Adobe Illustrator 13.0.0, SVG Export Plug-In . SVG Version: 6.00 Build 14948)  --> <svg version="1.2" baseProfile="tiny" id="Layer_1" xmlns="http://www.w3.org/2000/svg" xmlns:xlink="http://www.w3.org/1999/xlink" x="0px" y="0px" width="512px" height="512px" viewBox="0 0 512 512" xml:space="preserve">
<polygon points="0,0 512,0 512,512 0,512" style="fill:#ffffff; stroke:#000000;stroke-width:0"/>
<polygon points="-146.294,135.069 -126.983,97.0224 68.1315,196.057 48.8203,234.103" style="fill:#006363; stroke:#000000;stroke-width:0"/>
<circle fill="#006363" stroke="#006363" stroke-width="0" cx="-136.638" cy="116.046" r="21.3333"/>
<circle fill="#006363" stroke="#006363" stroke-width="0" cx="58.4759" cy="215.08" r="21.3333"/>
<polygon points="593.732,321.275 551.073,320.463 555.189,104.167 597.848,104.979" style="fill:#006363; stroke:#000000;stroke-width:0"/>
<circle fill="#006363" stroke="#006363" stroke-width="0" cx="572.403" cy="320.869" r="21.3333"/>
<circle fill="#006363" stroke="#006363" stroke-width="0" cx="576.519" cy="104.573" r="21.3333"/>
<polygon points="1256,469.333 256,1469.33 -744,469.333" style="fill:#000000; stroke:#000000;stroke-width:0"/>
<polygon points="-744,42.6667 256,-957.333 1256,42.6667" style="fill:#000000; stroke:#000000;stroke-width:0"/>
<circle fill="#a64b00" stroke="#a64b00" stroke-width="0" cx="-136.638" cy="116.046" r="21.3333"/>
<circle fill="#a64b00" stroke="#a64b00" stroke-width="0" cx="58.4759" cy="215.08" r="21.3333"/>
<circle fill="#a64b00" stroke="#a64b00" stroke-width="0" cx="572.403" cy="320.869" r="21.3333"/>
<circle fill="#a64b00" stroke="#a64b00" stroke-width="0" cx="576.519" cy="104.573" r="21.3333"/>
<circle fill="#a64b00" stroke="#a64b00" stroke-width="0" cx="433.415" cy="287.644" r="21.3333"/>
</svg>
