<?xml version="1.0" encoding="utf-8"?> <!-- Generator: Adobe Illustrator 13.0.0, SVG Export Plug-In . SVG Version: 6.00 Build 14948)  --> <svg version="1.2" baseProfile="tiny" id="Layer_1" xmlns="http://www.w3.org/2000/svg" xmlns:xlink="http://www.w3.org/1999/xlink" x="0px" y="0px" width="512px" height="512px" viewBox="0 0 512 512" xml:space="preserve">
<polygon points="0,0 512,0 512,512 0,512" style="fill:#ffffff; stroke:#000000;stroke-width:0"/>
<polygon points="-139.9,164.441 -110.234,133.776 47.5715,286.44 17.9053,317.105" style="fill:#006363; stroke:#000000;stroke-width:0"/>
<circle fill="#006363" stroke="#006363" stroke-width="0" cx="-125.067" cy="149.108" r="21.3333"/>
<circle fill="#006363" stroke="#006363" stroke-width="0" cx="32.7384" cy="301.773" r="21.3333"/>
<polygon points="639.743,316.569 599.589,330.996 526.385,127.244 566.539,112.818" style="fill:#006363; stroke:#000000;stroke-width:0"/>
<circle fill="#006363" stroke="#006363" stroke-width="0" cx="619.666" cy="323.782" r="21.3333"/>
<circle fill="#006363" stroke="#006363" stroke-width="0" cx="546.462" cy="120.031" r="21.3333"/>
<polygon points="1256,469.333 256,1469.33 -744,469.333" style="fill:#000000; stroke:#000000;stroke-width:0"/>
<polygon points="-744,42.6667 256,-957.333 1256,42.6667" style="fill:#000000; stroke:#000000;stroke-width:0"/>
<circle fill="#a64b00" stroke="#a64b00" stroke-width="0" cx="-125.067" cy="149.108" r="21.3333"/>
<circle fill="#a64b00" stroke="#a64b00" stroke-width="0" cx="32.7384" cy="301.773" r="21.3333"/>
<circle fill="#a64b00" stroke="#a64b00" stroke-width="0" cx="619.666" cy="323.782" r="21.3333"/>
<circle fill="#a64b00" stroke="#a64b00" stroke-width="0" cx="546.462" cy="120.031" r="21.3333"/>
<circle fill="#a64b00" stroke="#a64b00" stroke-width="0" cx="417.308" cy="87.2932" r="21.3333"/>
</svg>
