<?xml version="1.0" encoding="utf-8"?> <!-- Generator: Adobe Illustrator 13.0.0, SVG Export Plug-In . SVG Version: 6.00 Build 14948)  --> <svg version="1.2" baseProfile="tiny" id="Layer_1" xmlns="http://www.w3.org/2000/svg" xmlns:xlink="http://www.w3.org/1999/xlink" x="0px" y="0px" width="512px" height="512px" viewBox="0 0 512 512" xml:space="preserve">
<polygon points="0,0 512,0 512,512 0,512" style="fill:#ffffff; stroke:#000000;stroke-width:0"/>
<polygon points="-3.58132,99.6869 38.8846,95.5532 60.0011,312.483 17.5351,316.617" style="fill:#006363; stroke:#000000;stroke-width:0"/>
<circle fill="#006363" stroke="#006363" stroke-width="0" cx="17.6517" cy="97.6201" r="21.3333"/>
<circle fill="#006363" stroke="#006363" stroke-width="0" cx="38.7681" cy="314.55" r="21.3333"/>
<polygon points="456.481,219.572 498.796,214.111 526.269,426.984 483.953,432.446" style="fill:#006363; stroke:#000000;stroke-width:0"/>
<circle fill="#006363" stroke="#006363" stroke-width="0" cx="477.638" cy="216.842" r="21.3333"/>
<circle fill="#006363" stroke="#006363" stroke-width="0" cx="505.111" cy="429.715" r="21.3333"/>
<polygon points="1256,469.333 256,1469.33 -744,469.333" style="fill:#000000; stroke:#000000;stroke-width:0"/>
<polygon points="-744,42.6667 256,-957.333 1256,42.6667" style="fill:#000000; stroke:#000000;stroke-width:0"/>
<circle fill="#a64b00" stroke="#a64b00" stroke-width="0" cx="17.6517" cy="97.6201" r="21.3333"/>
<circle fill="#a64b00" stroke="#a64b00" stroke-width="0" cx="38.7681" cy="314.55" r="21.3333"/>
<circle fill="#a64b00" stroke="#a64b00" stroke-width="0" cx="477.638" cy="216.842" r="21.3333"/>
<circle fill="#a64b00" stroke="#a64b00" stroke-width="0" cx="505.111" cy="429.715" r="21.3333"/>
<circle fill="#a64b00" stroke="#a64b00" stroke-width="0" cx="392.422" cy="398.98" r="21.3333"/>
</svg>
