<?xml version="1.0" encoding="utf-8"?> <!-- Generator: Adobe Illustrator 13.0.0, SVG Export Plug-In . SVG Version: 6.00 Build 14948)  --> <svg version="1.2" baseProfile="tiny" id="Layer_1" xmlns="http://www.w3.org/2000/svg" xmlns:xlink="http://www.w3.org/1999/xlink" x="0px" y="0px" width="512px" height="512px" viewBox="0 0 512 512" xml:space="preserve">
<polygon points="0,0 512,0 512,512 0,512" style="fill:#ffffff; stroke:#000000;stroke-width:0"/>
<polygon points="-30.5448,191.628 11.2112,182.86 55.2597,392.63 13.5037,401.398" style="fill:#006363; stroke:#000000;stroke-width:0"/>
<circle fill="#006363" stroke="#006363" stroke-width="0" cx="-9.6668" cy="187.244" r="21.3333"/>
<circle fill="#006363" stroke="#006363" stroke-width="0" cx="34.3817" cy="397.014" r="21.3333"/>
<polygon points="447.048,106.411 485.706,88.3574 576.707,283.214 538.048,301.268" style="fill:#006363; stroke:#000000;stroke-width:0"/>
<circle fill="#006363" stroke="#006363" stroke-width="0" cx="466.377" cy="97.3844" r="21.3333"/>
<circle fill="#006363" stroke="#006363" stroke-width="0" cx="557.378" cy="292.241" r="21.3333"/>
<polygon points="1256,469.333 256,1469.33 -744,469.333" style="fill:#000000; stroke:#000000;stroke-width:0"/>
<polygon points="-744,42.6667 256,-957.333 1256,42.6667" style="fill:#000000; stroke:#000000;stroke-width:0"/>
<circle fill="#a64b00" stroke="#a64b00" stroke-width="0" cx="-9.6668" cy="187.244" r="21.3333"/>
<circle fill="#a64b00" stroke="#a64b00" stroke-width="0" cx="34.3817" cy="397.014" r="21.3333"/>
<circle fill="#a64b00" stroke="#a64b00" stroke-width="0" cx="466.377" cy="97.3844" r="21.3333"/>
<circle fill="#a64b00" stroke="#a64b00" stroke-width="0" cx="557.378" cy="292.241" r="21.3333"/>
<circle fill="#a64b00" stroke="#a64b00" stroke-width="0" cx="305.032" cy="180.694" r="21.3333"/>
</svg>
