<?xml version="1.0" encoding="utf-8"?> <!-- Generator: Adobe Illustrator 13.0.0, SVG Export Plug-In . SVG Version: 6.00 Build 14948)  --> <svg version="1.2" baseProfile="tiny" id="Layer_1" xmlns="http://www.w3.org/2000/svg" xmlns:xlink="http://www.w3.org/1999/xlink" x="0px" y="0px" width="512px" height="512px" viewBox="0 0 512 512" xml:space="preserve">
<polygon points="0,0 512,0 512,512 0,512" style="fill:#ffffff; stroke:#000000;stroke-width:0"/>
<polygon points="-101.728,59.3881 -96.7557,101.764 -298.579,125.447 -303.552,83.0714" style="fill:#006363; stroke:#000000;stroke-width:0"/>
<circle fill="#006363" stroke="#006363" stroke-width="0" cx="-99.242" cy="80.576" r="21.3333"/>
<circle fill="#006363" stroke="#006363" stroke-width="0" cx="-301.065" cy="104.259" r="21.3333"/>
<polygon points="746.708,348.142 707.529,331.245 793.515,131.866 832.693,148.762" style="fill:#006363; stroke:#000000;stroke-width:0"/>
<circle fill="#006363" stroke="#006363" stroke-width="0" cx="727.119" cy="339.694" r="21.3333"/>
<circle fill="#006363" stroke="#006363" stroke-width="0" cx="813.104" cy="140.314" r="21.3333"/>
<polygon points="1256,469.333 256,1469.33 -744,469.333" style="fill:#000000; stroke:#000000;stroke-width:0"/>
<polygon points="-744,42.6667 256,-957.333 1256,42.6667" style="fill:#000000; stroke:#000000;stroke-width:0"/>
<circle fill="#a64b00" stroke="#a64b00" stroke-width="0" cx="-99.242" cy="80.576" r="21.3333"/>
<circle fill="#a64b00" stroke="#a64b00" stroke-width="0" cx="-301.065" cy="104.259" r="21.3333"/>
<circle fill="#a64b00" stroke="#a64b00" stroke-width="0" cx="727.119" cy="339.694" r="21.3333"/>
<circle fill="#a64b00" stroke="#a64b00" stroke-width="0" cx="813.104" cy="140.314" r="21.3333"/>
<circle fill="#a64b00" stroke="#a64b00" stroke-width="0" cx="67.138" cy="211.32" r="21.3333"/>
</svg>
