<?xml version="1.0" encoding="utf-8"?> <!-- Generator: Adobe Illustrator 13.0.0, SVG Export Plug-In . SVG Version: 6.00 Build 14948)  --> <svg version="1.2" baseProfile="tiny" id="Layer_1" xmlns="http://www.w3.org/2000/svg" xmlns:xlink="http://www.w3.org/1999/xlink" x="0px" y="0px" width="512px" height="512px" viewBox="0 0 512 512" xml:space="preserve">
<polygon points="0,0 512,0 512,512 0,512" style="fill:#ffffff; stroke:#000000;stroke-width:0"/>
<polygon points="-160.944,285.708 -144.528,325.09 -345.346,408.796 -361.761,369.413" style="fill:#006363; stroke:#000000;stroke-width:0"/>
<circle fill="#006363" stroke="#006363" stroke-width="0" cx="-152.736" cy="305.399" r="21.3333"/>
<circle fill="#006363" stroke="#006363" stroke-width="0" cx="-353.554" cy="389.104" r="21.3333"/>
<polygon points="739.326,402.126 729.205,360.677 929.63,311.737 939.751,353.186" style="fill:#006363; stroke:#000000;stroke-width:0"/>
<circle fill="#006363" stroke="#006363" stroke-width="0" cx="734.266" cy="381.401" r="21.3333"/>
<circle fill="#006363" stroke="#006363" stroke-width="0" cx="934.691" cy="332.461" r="21.3333"/>
<polygon points="1256,469.333 256,1469.33 -744,469.333" style="fill:#000000; stroke:#000000;stroke-width:0"/>
<polygon points="-744,42.6667 256,-957.333 1256,42.6667" style="fill:#000000; stroke:#000000;stroke-width:0"/>
<circle fill="#a64b00" stroke="#a64b00" stroke-width="0" cx="-152.736" cy="305.399" r="21.3333"/>
<circle fill="#a64b00" stroke="#a64b00" stroke-width="0" cx="-353.554" cy="389.104" r="21.3333"/>
<circle fill="#a64b00" stroke="#a64b00" stroke-width="0" cx="734.266" cy="381.401" r="21.3333"/>
<circle fill="#a64b00" stroke="#a64b00" stroke-width="0" cx="934.691" cy="332.461" r="21.3333"/>
<circle fill="#a64b00" stroke="#a64b00" stroke-width="0" cx="-53.3634" cy="325.806" r="21.3333"/>
</svg>
