<?xml version="1.0" encoding="utf-8"?> <!-- Generator: Adobe Illustrator 13.0.0, SVG Export Plug-In . SVG Version: 6.00 Build 14948)  --> <svg version="1.2" baseProfile="tiny" id="Layer_1" xmlns="http://www.w3.org/2000/svg" xmlns:xlink="http://www.w3.org/1999/xlink" x="0px" y="0px" width="512px" height="512px" viewBox="0 0 512 512" xml:space="preserve">
<polygon points="0,0 512,0 512,512 0,512" style="fill:#ffffff; stroke:#000000;stroke-width:0"/>
<polygon points="-170.914,295.988 -153.707,335.031 -338.523,416.485 -355.731,377.442" style="fill:#006363; stroke:#000000;stroke-width:0"/>
<circle fill="#006363" stroke="#006363" stroke-width="0" cx="-162.311" cy="315.509" r="21.3333"/>
<circle fill="#006363" stroke="#006363" stroke-width="0" cx="-347.127" cy="396.963" r="21.3333"/>
<polygon points="732.935,396.957 725.133,355.01 939.845,315.073 947.648,357.021" style="fill:#006363; stroke:#000000;stroke-width:0"/>
<circle fill="#006363" stroke="#006363" stroke-width="0" cx="729.034" cy="375.984" r="21.3333"/>
<circle fill="#006363" stroke="#006363" stroke-width="0" cx="943.746" cy="336.047" r="21.3333"/>
<polygon points="1256,469.333 256,1469.33 -744,469.333" style="fill:#000000; stroke:#000000;stroke-width:0"/>
<polygon points="-744,42.6667 256,-957.333 1256,42.6667" style="fill:#000000; stroke:#000000;stroke-width:0"/>
<circle fill="#a64b00" stroke="#a64b00" stroke-width="0" cx="-162.311" cy="315.509" r="21.3333"/>
<circle fill="#a64b00" stroke="#a64b00" stroke-width="0" cx="-347.127" cy="396.963" r="21.3333"/>
<circle fill="#a64b00" stroke="#a64b00" stroke-width="0" cx="729.034" cy="375.984" r="21.3333"/>
<circle fill="#a64b00" stroke="#a64b00" stroke-width="0" cx="943.746" cy="336.047" r="21.3333"/>
<circle fill="#a64b00" stroke="#a64b00" stroke-width="0" cx="-56.9427" cy="268.563" r="21.3333"/>
</svg>
