<?xml version="1.0" encoding="utf-8"?> <!-- Generator: Adobe Illustrator 13.0.0, SVG Export Plug-In . SVG Version: 6.00 Build 14948)  --> <svg version="1.2" baseProfile="tiny" id="Layer_1" xmlns="http://www.w3.org/2000/svg" xmlns:xlink="http://www.w3.org/1999/xlink" x="0px" y="0px" width="512px" height="512px" viewBox="0 0 512 512" xml:space="preserve">
<polygon points="0,0 512,0 512,512 0,512" style="fill:#ffffff; stroke:#000000;stroke-width:0"/>
<polygon points="-54.4425,386.943 -59.4116,429.32 -267.165,404.958 -262.196,362.582" style="fill:#006363; stroke:#000000;stroke-width:0"/>
<circle fill="#006363" stroke="#006363" stroke-width="0" cx="-56.927" cy="408.131" r="21.3333"/>
<circle fill="#006363" stroke="#006363" stroke-width="0" cx="-264.68" cy="383.77" r="21.3333"/>
<polygon points="695.983,395.42 657.493,377.009 748.644,186.448 787.134,204.859" style="fill:#006363; stroke:#000000;stroke-width:0"/>
<circle fill="#006363" stroke="#006363" stroke-width="0" cx="676.738" cy="386.214" r="21.3333"/>
<circle fill="#006363" stroke="#006363" stroke-width="0" cx="767.889" cy="195.653" r="21.3333"/>
<polygon points="1256,469.333 256,1469.33 -744,469.333" style="fill:#000000; stroke:#000000;stroke-width:0"/>
<polygon points="-744,42.6667 256,-957.333 1256,42.6667" style="fill:#000000; stroke:#000000;stroke-width:0"/>
<circle fill="#a64b00" stroke="#a64b00" stroke-width="0" cx="-56.927" cy="408.131" r="21.3333"/>
<circle fill="#a64b00" stroke="#a64b00" stroke-width="0" cx="-264.68" cy="383.77" r="21.3333"/>
<circle fill="#a64b00" stroke="#a64b00" stroke-width="0" cx="676.738" cy="386.214" r="21.3333"/>
<circle fill="#a64b00" stroke="#a64b00" stroke-width="0" cx="767.889" cy="195.653" r="21.3333"/>
<circle fill="#a64b00" stroke="#a64b00" stroke-width="0" cx="156.619" cy="344.887" r="21.3333"/>
</svg>
