<?xml version="1.0" encoding="utf-8"?> <!-- Generator: Adobe Illustrator 13.0.0, SVG Export Plug-In . SVG Version: 6.00 Build 14948)  --> <svg version="1.2" baseProfile="tiny" id="Layer_1" xmlns="http://www.w3.org/2000/svg" xmlns:xlink="http://www.w3.org/1999/xlink" x="0px" y="0px" width="512px" height="512px" viewBox="0 0 512 512" xml:space="preserve">
<polygon points="0,0 512,0 512,512 0,512" style="fill:#ffffff; stroke:#000000;stroke-width:0"/>
<polygon points="-173.867,449.552 -202.992,418.372 -46.4793,272.179 -17.3549,303.36" style="fill:#006363; stroke:#000000;stroke-width:0"/>
<circle fill="#006363" stroke="#006363" stroke-width="0" cx="-188.43" cy="433.962" r="21.3333"/>
<circle fill="#006363" stroke="#006363" stroke-width="0" cx="-31.9171" cy="287.77" r="21.3333"/>
<polygon points="590.788,220.158 628.329,199.882 730.841,389.677 693.3,409.954" style="fill:#006363; stroke:#000000;stroke-width:0"/>
<circle fill="#006363" stroke="#006363" stroke-width="0" cx="609.559" cy="210.02" r="21.3333"/>
<circle fill="#006363" stroke="#006363" stroke-width="0" cx="712.071" cy="399.815" r="21.3333"/>
<polygon points="1256,469.333 256,1469.33 -744,469.333" style="fill:#000000; stroke:#000000;stroke-width:0"/>
<polygon points="-744,42.6667 256,-957.333 1256,42.6667" style="fill:#000000; stroke:#000000;stroke-width:0"/>
<circle fill="#a64b00" stroke="#a64b00" stroke-width="0" cx="-188.43" cy="433.962" r="21.3333"/>
<circle fill="#a64b00" stroke="#a64b00" stroke-width="0" cx="-31.9171" cy="287.77" r="21.3333"/>
<circle fill="#a64b00" stroke="#a64b00" stroke-width="0" cx="609.559" cy="210.02" r="21.3333"/>
<circle fill="#a64b00" stroke="#a64b00" stroke-width="0" cx="712.071" cy="399.815" r="21.3333"/>
<circle fill="#a64b00" stroke="#a64b00" stroke-width="0" cx="271.752" cy="68.2121" r="21.3333"/>
</svg>
