<?xml version="1.0" encoding="utf-8"?> <!-- Generator: Adobe Illustrator 13.0.0, SVG Export Plug-In . SVG Version: 6.00 Build 14948)  --> <svg version="1.2" baseProfile="tiny" id="Layer_1" xmlns="http://www.w3.org/2000/svg" xmlns:xlink="http://www.w3.org/1999/xlink" x="0px" y="0px" width="512px" height="512px" viewBox="0 0 512 512" xml:space="preserve">
<polygon points="0,0 512,0 512,512 0,512" style="fill:#ffffff; stroke:#000000;stroke-width:0"/>
<polygon points="-124.436,119.606 -109.068,79.8028 88.2473,155.989 72.8789,195.792" style="fill:#006363; stroke:#000000;stroke-width:0"/>
<circle fill="#006363" stroke="#006363" stroke-width="0" cx="-116.752" cy="99.7041" r="21.3333"/>
<circle fill="#006363" stroke="#006363" stroke-width="0" cx="80.5631" cy="175.891" r="21.3333"/>
<polygon points="464.601,253.987 445.009,216.085 634.178,118.304 653.77,156.207" style="fill:#006363; stroke:#000000;stroke-width:0"/>
<circle fill="#006363" stroke="#006363" stroke-width="0" cx="454.805" cy="235.036" r="21.3333"/>
<circle fill="#006363" stroke="#006363" stroke-width="0" cx="643.974" cy="137.256" r="21.3333"/>
<polygon points="1256,469.333 256,1469.33 -744,469.333" style="fill:#000000; stroke:#000000;stroke-width:0"/>
<polygon points="-744,42.6667 256,-957.333 1256,42.6667" style="fill:#000000; stroke:#000000;stroke-width:0"/>
<circle fill="#a64b00" stroke="#a64b00" stroke-width="0" cx="-116.752" cy="99.7041" r="21.3333"/>
<circle fill="#a64b00" stroke="#a64b00" stroke-width="0" cx="80.5631" cy="175.891" r="21.3333"/>
<circle fill="#a64b00" stroke="#a64b00" stroke-width="0" cx="454.805" cy="235.036" r="21.3333"/>
<circle fill="#a64b00" stroke="#a64b00" stroke-width="0" cx="643.974" cy="137.256" r="21.3333"/>
<circle fill="#a64b00" stroke="#a64b00" stroke-width="0" cx="396.971" cy="140.247" r="21.3333"/>
</svg>
