<?xml version="1.0" encoding="utf-8"?> <!-- Generator: Adobe Illustrator 13.0.0, SVG Export Plug-In . SVG Version: 6.00 Build 14948)  --> <svg version="1.2" baseProfile="tiny" id="Layer_1" xmlns="http://www.w3.org/2000/svg" xmlns:xlink="http://www.w3.org/1999/xlink" x="0px" y="0px" width="512px" height="512px" viewBox="0 0 512 512" xml:space="preserve">
<polygon points="0,0 512,0 512,512 0,512" style="fill:#ffffff; stroke:#000000;stroke-width:0"/>
<polygon points="-77.1443,203.591 -40.7779,181.276 71.3584,364.029 34.992,386.343" style="fill:#006363; stroke:#000000;stroke-width:0"/>
<circle fill="#006363" stroke="#006363" stroke-width="0" cx="-58.9611" cy="192.434" r="21.3333"/>
<circle fill="#006363" stroke="#006363" stroke-width="0" cx="53.1752" cy="375.186" r="21.3333"/>
<polygon points="424.785,151.034 440.029,111.184 639.409,187.456 624.164,227.307" style="fill:#006363; stroke:#000000;stroke-width:0"/>
<circle fill="#006363" stroke="#006363" stroke-width="0" cx="432.407" cy="131.109" r="21.3333"/>
<circle fill="#006363" stroke="#006363" stroke-width="0" cx="631.787" cy="207.381" r="21.3333"/>
<polygon points="1256,469.333 256,1469.33 -744,469.333" style="fill:#000000; stroke:#000000;stroke-width:0"/>
<polygon points="-744,42.6667 256,-957.333 1256,42.6667" style="fill:#000000; stroke:#000000;stroke-width:0"/>
<circle fill="#a64b00" stroke="#a64b00" stroke-width="0" cx="-58.9611" cy="192.434" r="21.3333"/>
<circle fill="#a64b00" stroke="#a64b00" stroke-width="0" cx="53.1752" cy="375.186" r="21.3333"/>
<circle fill="#a64b00" stroke="#a64b00" stroke-width="0" cx="432.407" cy="131.109" r="21.3333"/>
<circle fill="#a64b00" stroke="#a64b00" stroke-width="0" cx="631.787" cy="207.381" r="21.3333"/>
<circle fill="#a64b00" stroke="#a64b00" stroke-width="0" cx="121.905" cy="134.131" r="21.3333"/>
</svg>
