<?xml version="1.0" encoding="utf-8"?> <!-- Generator: Adobe Illustrator 13.0.0, SVG Export Plug-In . SVG Version: 6.00 Build 14948)  --> <svg version="1.2" baseProfile="tiny" id="Layer_1" xmlns="http://www.w3.org/2000/svg" xmlns:xlink="http://www.w3.org/1999/xlink" x="0px" y="0px" width="512px" height="512px" viewBox="0 0 512 512" xml:space="preserve">
<polygon points="0,0 512,0 512,512 0,512" style="fill:#ffffff; stroke:#000000;stroke-width:0"/>
<polygon points="-181.507,325.695 -161.023,363.123 -341.048,461.647 -361.531,424.219" style="fill:#006363; stroke:#000000;stroke-width:0"/>
<circle fill="#006363" stroke="#006363" stroke-width="0" cx="-171.265" cy="344.409" r="21.3333"/>
<circle fill="#006363" stroke="#006363" stroke-width="0" cx="-351.289" cy="442.933" r="21.3333"/>
<polygon points="732.991,368.02 735.111,325.406 955.722,336.379 953.602,378.993" style="fill:#006363; stroke:#000000;stroke-width:0"/>
<circle fill="#006363" stroke="#006363" stroke-width="0" cx="734.051" cy="346.713" r="21.3333"/>
<circle fill="#006363" stroke="#006363" stroke-width="0" cx="954.662" cy="357.686" r="21.3333"/>
<polygon points="1256,469.333 256,1469.33 -744,469.333" style="fill:#000000; stroke:#000000;stroke-width:0"/>
<polygon points="-744,42.6667 256,-957.333 1256,42.6667" style="fill:#000000; stroke:#000000;stroke-width:0"/>
<circle fill="#a64b00" stroke="#a64b00" stroke-width="0" cx="-171.265" cy="344.409" r="21.3333"/>
<circle fill="#a64b00" stroke="#a64b00" stroke-width="0" cx="-351.289" cy="442.933" r="21.3333"/>
<circle fill="#a64b00" stroke="#a64b00" stroke-width="0" cx="734.051" cy="346.713" r="21.3333"/>
<circle fill="#a64b00" stroke="#a64b00" stroke-width="0" cx="954.662" cy="357.686" r="21.3333"/>
<circle fill="#a64b00" stroke="#a64b00" stroke-width="0" cx="-71.8562" cy="87.2932" r="21.3333"/>
</svg>
