<?xml version="1.0" encoding="utf-8"?> <!-- Generator: Adobe Illustrator 13.0.0, SVG Export Plug-In . SVG Version: 6.00 Build 14948)  --> <svg version="1.2" baseProfile="tiny" id="Layer_1" xmlns="http://www.w3.org/2000/svg" xmlns:xlink="http://www.w3.org/1999/xlink" x="0px" y="0px" width="512px" height="512px" viewBox="0 0 512 512" xml:space="preserve">
<polygon points="0,0 512,0 512,512 0,512" style="fill:#ffffff; stroke:#000000;stroke-width:0"/>
<polygon points="-106.676,130.393 -109.817,172.944 -328.259,156.82 -325.118,114.269" style="fill:#006363; stroke:#000000;stroke-width:0"/>
<circle fill="#006363" stroke="#006363" stroke-width="0" cx="-108.247" cy="151.669" r="21.3333"/>
<circle fill="#006363" stroke="#006363" stroke-width="0" cx="-326.688" cy="135.545" r="21.3333"/>
<polygon points="752.175,402.088 716.119,379.276 830.109,199.107 866.165,221.919" style="fill:#006363; stroke:#000000;stroke-width:0"/>
<circle fill="#006363" stroke="#006363" stroke-width="0" cx="734.147" cy="390.682" r="21.3333"/>
<circle fill="#006363" stroke="#006363" stroke-width="0" cx="848.137" cy="210.513" r="21.3333"/>
<polygon points="1256,469.333 256,1469.33 -744,469.333" style="fill:#000000; stroke:#000000;stroke-width:0"/>
<polygon points="-744,42.6667 256,-957.333 1256,42.6667" style="fill:#000000; stroke:#000000;stroke-width:0"/>
<circle fill="#a64b00" stroke="#a64b00" stroke-width="0" cx="-108.247" cy="151.669" r="21.3333"/>
<circle fill="#a64b00" stroke="#a64b00" stroke-width="0" cx="-326.688" cy="135.545" r="21.3333"/>
<circle fill="#a64b00" stroke="#a64b00" stroke-width="0" cx="734.147" cy="390.682" r="21.3333"/>
<circle fill="#a64b00" stroke="#a64b00" stroke-width="0" cx="848.137" cy="210.513" r="21.3333"/>
<circle fill="#a64b00" stroke="#a64b00" stroke-width="0" cx="27.7663" cy="58.6716" r="21.3333"/>
</svg>
