<?xml version="1.0" encoding="utf-8"?> <!-- Generator: Adobe Illustrator 13.0.0, SVG Export Plug-In . SVG Version: 6.00 Build 14948)  --> <svg version="1.2" baseProfile="tiny" id="Layer_1" xmlns="http://www.w3.org/2000/svg" xmlns:xlink="http://www.w3.org/1999/xlink" x="0px" y="0px" width="512px" height="512px" viewBox="0 0 512 512" xml:space="preserve">
<polygon points="0,0 512,0 512,512 0,512" style="fill:#ffffff; stroke:#000000;stroke-width:0"/>
<polygon points="-64.3747,369.356 -75.5424,410.535 -271.399,357.42 -260.231,316.24" style="fill:#006363; stroke:#000000;stroke-width:0"/>
<circle fill="#006363" stroke="#006363" stroke-width="0" cx="-69.9585" cy="389.945" r="21.3333"/>
<circle fill="#006363" stroke="#006363" stroke-width="0" cx="-265.815" cy="336.83" r="21.3333"/>
<polygon points="713.112,352.209 673.212,337.095 748.722,137.753 788.622,152.867" style="fill:#006363; stroke:#000000;stroke-width:0"/>
<circle fill="#006363" stroke="#006363" stroke-width="0" cx="693.162" cy="344.652" r="21.3333"/>
<circle fill="#006363" stroke="#006363" stroke-width="0" cx="768.672" cy="145.31" r="21.3333"/>
<polygon points="1256,469.333 256,1469.33 -744,469.333" style="fill:#000000; stroke:#000000;stroke-width:0"/>
<polygon points="-744,42.6667 256,-957.333 1256,42.6667" style="fill:#000000; stroke:#000000;stroke-width:0"/>
<circle fill="#a64b00" stroke="#a64b00" stroke-width="0" cx="-69.9585" cy="389.945" r="21.3333"/>
<circle fill="#a64b00" stroke="#a64b00" stroke-width="0" cx="-265.815" cy="336.83" r="21.3333"/>
<circle fill="#a64b00" stroke="#a64b00" stroke-width="0" cx="693.162" cy="344.652" r="21.3333"/>
<circle fill="#a64b00" stroke="#a64b00" stroke-width="0" cx="768.672" cy="145.31" r="21.3333"/>
<circle fill="#a64b00" stroke="#a64b00" stroke-width="0" cx="140.513" cy="297.185" r="21.3333"/>
</svg>
