<?xml version="1.0" encoding="utf-8"?> <!-- Generator: Adobe Illustrator 13.0.0, SVG Export Plug-In . SVG Version: 6.00 Build 14948)  --> <svg version="1.2" baseProfile="tiny" id="Layer_1" xmlns="http://www.w3.org/2000/svg" xmlns:xlink="http://www.w3.org/1999/xlink" x="0px" y="0px" width="512px" height="512px" viewBox="0 0 512 512" xml:space="preserve">
<polygon points="0,0 512,0 512,512 0,512" style="fill:#ffffff; stroke:#000000;stroke-width:0"/>
<polygon points="-407.797,201.584 -418.524,160.288 -214.166,107.203 -203.439,148.499" style="fill:#006363; stroke:#000000;stroke-width:0"/>
<circle fill="#006363" stroke="#006363" stroke-width="0" cx="-413.161" cy="180.936" r="21.3333"/>
<circle fill="#006363" stroke="#006363" stroke-width="0" cx="-208.802" cy="127.851" r="21.3333"/>
<polygon points="901.878,212.086 943.822,219.903 903.461,436.449 861.517,428.632" style="fill:#006363; stroke:#000000;stroke-width:0"/>
<circle fill="#006363" stroke="#006363" stroke-width="0" cx="922.85" cy="215.994" r="21.3333"/>
<circle fill="#006363" stroke="#006363" stroke-width="0" cx="882.489" cy="432.54" r="21.3333"/>
<polygon points="1256,469.333 256,1469.33 -744,469.333" style="fill:#000000; stroke:#000000;stroke-width:0"/>
<polygon points="-744,42.6667 256,-957.333 1256,42.6667" style="fill:#000000; stroke:#000000;stroke-width:0"/>
<circle fill="#a64b00" stroke="#a64b00" stroke-width="0" cx="-413.161" cy="180.936" r="21.3333"/>
<circle fill="#a64b00" stroke="#a64b00" stroke-width="0" cx="-208.802" cy="127.851" r="21.3333"/>
<circle fill="#a64b00" stroke="#a64b00" stroke-width="0" cx="922.85" cy="215.994" r="21.3333"/>
<circle fill="#a64b00" stroke="#a64b00" stroke-width="0" cx="882.489" cy="432.54" r="21.3333"/>
<circle fill="#a64b00" stroke="#a64b00" stroke-width="0" cx="158.485" cy="189.907" r="21.3333"/>
</svg>
