<?xml version="1.0" encoding="utf-8"?> <!-- Generator: Adobe Illustrator 13.0.0, SVG Export Plug-In . SVG Version: 6.00 Build 14948)  --> <svg version="1.2" baseProfile="tiny" id="Layer_1" xmlns="http://www.w3.org/2000/svg" xmlns:xlink="http://www.w3.org/1999/xlink" x="0px" y="0px" width="512px" height="512px" viewBox="0 0 512 512" xml:space="preserve">
<polygon points="0,0 512,0 512,512 0,512" style="fill:#ffffff; stroke:#000000;stroke-width:0"/>
<polygon points="-129.862,92.0746 -124.198,49.7854 81.0806,77.2751 75.4175,119.564" style="fill:#006363; stroke:#000000;stroke-width:0"/>
<circle fill="#006363" stroke="#006363" stroke-width="0" cx="-127.03" cy="70.93" r="21.3333"/>
<circle fill="#006363" stroke="#006363" stroke-width="0" cx="78.249" cy="98.4197" r="21.3333"/>
<polygon points="498.323,283.698 467.837,253.848 614.909,103.64 645.396,133.49" style="fill:#006363; stroke:#000000;stroke-width:0"/>
<circle fill="#006363" stroke="#006363" stroke-width="0" cx="483.08" cy="268.773" r="21.3333"/>
<circle fill="#006363" stroke="#006363" stroke-width="0" cx="630.153" cy="118.565" r="21.3333"/>
<polygon points="1256,469.333 256,1469.33 -744,469.333" style="fill:#000000; stroke:#000000;stroke-width:0"/>
<polygon points="-744,42.6667 256,-957.333 1256,42.6667" style="fill:#000000; stroke:#000000;stroke-width:0"/>
<circle fill="#a64b00" stroke="#a64b00" stroke-width="0" cx="-127.03" cy="70.93" r="21.3333"/>
<circle fill="#a64b00" stroke="#a64b00" stroke-width="0" cx="78.249" cy="98.4197" r="21.3333"/>
<circle fill="#a64b00" stroke="#a64b00" stroke-width="0" cx="483.08" cy="268.773" r="21.3333"/>
<circle fill="#a64b00" stroke="#a64b00" stroke-width="0" cx="630.153" cy="118.565" r="21.3333"/>
<circle fill="#a64b00" stroke="#a64b00" stroke-width="0" cx="466.821" cy="77.7526" r="21.3333"/>
</svg>
