<?xml version="1.0" encoding="utf-8"?> <!-- Generator: Adobe Illustrator 13.0.0, SVG Export Plug-In . SVG Version: 6.00 Build 14948)  --> <svg version="1.2" baseProfile="tiny" id="Layer_1" xmlns="http://www.w3.org/2000/svg" xmlns:xlink="http://www.w3.org/1999/xlink" x="0px" y="0px" width="512px" height="512px" viewBox="0 0 512 512" xml:space="preserve">
<polygon points="0,0 512,0 512,512 0,512" style="fill:#ffffff; stroke:#000000;stroke-width:0"/>
<polygon points="-85.909,190.467 -51.4852,165.259 76.9125,340.597 42.4887,365.805" style="fill:#006363; stroke:#000000;stroke-width:0"/>
<circle fill="#006363" stroke="#006363" stroke-width="0" cx="-68.6971" cy="177.863" r="21.3333"/>
<circle fill="#006363" stroke="#006363" stroke-width="0" cx="59.7006" cy="353.201" r="21.3333"/>
<polygon points="424.871,164.116 435.912,122.903 643.579,178.534 632.538,219.748" style="fill:#006363; stroke:#000000;stroke-width:0"/>
<circle fill="#006363" stroke="#006363" stroke-width="0" cx="430.392" cy="143.509" r="21.3333"/>
<circle fill="#006363" stroke="#006363" stroke-width="0" cx="638.059" cy="199.141" r="21.3333"/>
<polygon points="1256,469.333 256,1469.33 -744,469.333" style="fill:#000000; stroke:#000000;stroke-width:0"/>
<polygon points="-744,42.6667 256,-957.333 1256,42.6667" style="fill:#000000; stroke:#000000;stroke-width:0"/>
<circle fill="#a64b00" stroke="#a64b00" stroke-width="0" cx="-68.6971" cy="177.863" r="21.3333"/>
<circle fill="#a64b00" stroke="#a64b00" stroke-width="0" cx="59.7006" cy="353.201" r="21.3333"/>
<circle fill="#a64b00" stroke="#a64b00" stroke-width="0" cx="430.392" cy="143.509" r="21.3333"/>
<circle fill="#a64b00" stroke="#a64b00" stroke-width="0" cx="638.059" cy="199.141" r="21.3333"/>
<circle fill="#a64b00" stroke="#a64b00" stroke-width="0" cx="102.629" cy="72.0471" r="21.3333"/>
</svg>
