<?xml version="1.0" encoding="utf-8"?> <!-- Generator: Adobe Illustrator 13.0.0, SVG Export Plug-In . SVG Version: 6.00 Build 14948)  --> <svg version="1.2" baseProfile="tiny" id="Layer_1" xmlns="http://www.w3.org/2000/svg" xmlns:xlink="http://www.w3.org/1999/xlink" x="0px" y="0px" width="512px" height="512px" viewBox="0 0 512 512" xml:space="preserve">
<polygon points="0,0 512,0 512,512 0,512" style="fill:#ffffff; stroke:#000000;stroke-width:0"/>
<polygon points="-95.5944,88.3927 -84.2336,129.519 -286.874,185.497 -298.235,144.371" style="fill:#006363; stroke:#000000;stroke-width:0"/>
<circle fill="#006363" stroke="#006363" stroke-width="0" cx="-89.914" cy="108.956" r="21.3333"/>
<circle fill="#006363" stroke="#006363" stroke-width="0" cx="-292.555" cy="164.934" r="21.3333"/>
<polygon points="745.235,316.786 704.822,303.102 773.32,100.792 813.733,114.475" style="fill:#006363; stroke:#000000;stroke-width:0"/>
<circle fill="#006363" stroke="#006363" stroke-width="0" cx="725.028" cy="309.944" r="21.3333"/>
<circle fill="#006363" stroke="#006363" stroke-width="0" cx="793.526" cy="107.634" r="21.3333"/>
<polygon points="1256,469.333 256,1469.33 -744,469.333" style="fill:#000000; stroke:#000000;stroke-width:0"/>
<polygon points="-744,42.6667 256,-957.333 1256,42.6667" style="fill:#000000; stroke:#000000;stroke-width:0"/>
<circle fill="#a64b00" stroke="#a64b00" stroke-width="0" cx="-89.914" cy="108.956" r="21.3333"/>
<circle fill="#a64b00" stroke="#a64b00" stroke-width="0" cx="-292.555" cy="164.934" r="21.3333"/>
<circle fill="#a64b00" stroke="#a64b00" stroke-width="0" cx="725.028" cy="309.944" r="21.3333"/>
<circle fill="#a64b00" stroke="#a64b00" stroke-width="0" cx="793.526" cy="107.634" r="21.3333"/>
<circle fill="#a64b00" stroke="#a64b00" stroke-width="0" cx="87.4205" cy="230.401" r="21.3333"/>
</svg>
