<?xml version="1.0" encoding="utf-8"?> <!-- Generator: Adobe Illustrator 13.0.0, SVG Export Plug-In . SVG Version: 6.00 Build 14948)  --> <svg version="1.2" baseProfile="tiny" id="Layer_1" xmlns="http://www.w3.org/2000/svg" xmlns:xlink="http://www.w3.org/1999/xlink" x="0px" y="0px" width="512px" height="512px" viewBox="0 0 512 512" xml:space="preserve">
<polygon points="0,0 512,0 512,512 0,512" style="fill:#ffffff; stroke:#000000;stroke-width:0"/>
<polygon points="-171.857,282.476 -137.631,257 -9.66408,428.918 -43.89,454.394" style="fill:#006363; stroke:#000000;stroke-width:0"/>
<circle fill="#006363" stroke="#006363" stroke-width="0" cx="-154.744" cy="269.738" r="21.3333"/>
<circle fill="#006363" stroke="#006363" stroke-width="0" cx="-26.7771" cy="441.656" r="21.3333"/>
<polygon points="669.325,177.056 706.717,197.605 605.145,382.428 567.752,361.879" style="fill:#006363; stroke:#000000;stroke-width:0"/>
<circle fill="#006363" stroke="#006363" stroke-width="0" cx="688.021" cy="187.33" r="21.3333"/>
<circle fill="#006363" stroke="#006363" stroke-width="0" cx="586.449" cy="372.154" r="21.3333"/>
<polygon points="1256,469.333 256,1469.33 -744,469.333" style="fill:#000000; stroke:#000000;stroke-width:0"/>
<polygon points="-744,42.6667 256,-957.333 1256,42.6667" style="fill:#000000; stroke:#000000;stroke-width:0"/>
<circle fill="#a64b00" stroke="#a64b00" stroke-width="0" cx="-154.744" cy="269.738" r="21.3333"/>
<circle fill="#a64b00" stroke="#a64b00" stroke-width="0" cx="-26.7771" cy="441.656" r="21.3333"/>
<circle fill="#a64b00" stroke="#a64b00" stroke-width="0" cx="688.021" cy="187.33" r="21.3333"/>
<circle fill="#a64b00" stroke="#a64b00" stroke-width="0" cx="586.449" cy="372.154" r="21.3333"/>
<circle fill="#a64b00" stroke="#a64b00" stroke-width="0" cx="315.896" cy="144.536" r="21.3333"/>
</svg>
