<?xml version="1.0" encoding="utf-8"?> <!-- Generator: Adobe Illustrator 13.0.0, SVG Export Plug-In . SVG Version: 6.00 Build 14948)  --> <svg version="1.2" baseProfile="tiny" id="Layer_1" xmlns="http://www.w3.org/2000/svg" xmlns:xlink="http://www.w3.org/1999/xlink" x="0px" y="0px" width="512px" height="512px" viewBox="0 0 512 512" xml:space="preserve">
<polygon points="0,0 512,0 512,512 0,512" style="fill:#ffffff; stroke:#000000;stroke-width:0"/>
<polygon points="-347.927,388.112 -386.963,370.89 -302.101,178.535 -263.065,195.757" style="fill:#006363; stroke:#000000;stroke-width:0"/>
<circle fill="#006363" stroke="#006363" stroke-width="0" cx="-367.445" cy="379.501" r="21.3333"/>
<circle fill="#006363" stroke="#006363" stroke-width="0" cx="-282.583" cy="187.146" r="21.3333"/>
<polygon points="960.195,215.037 995.551,238.92 873.185,420.067 837.829,396.183" style="fill:#006363; stroke:#000000;stroke-width:0"/>
<circle fill="#006363" stroke="#006363" stroke-width="0" cx="977.873" cy="226.978" r="21.3333"/>
<circle fill="#006363" stroke="#006363" stroke-width="0" cx="855.507" cy="408.125" r="21.3333"/>
<polygon points="1256,469.333 256,1469.33 -744,469.333" style="fill:#000000; stroke:#000000;stroke-width:0"/>
<polygon points="-744,42.6667 256,-957.333 1256,42.6667" style="fill:#000000; stroke:#000000;stroke-width:0"/>
<circle fill="#a64b00" stroke="#a64b00" stroke-width="0" cx="-367.445" cy="379.501" r="21.3333"/>
<circle fill="#a64b00" stroke="#a64b00" stroke-width="0" cx="-282.583" cy="187.146" r="21.3333"/>
<circle fill="#a64b00" stroke="#a64b00" stroke-width="0" cx="977.873" cy="226.978" r="21.3333"/>
<circle fill="#a64b00" stroke="#a64b00" stroke-width="0" cx="855.507" cy="408.125" r="21.3333"/>
<circle fill="#a64b00" stroke="#a64b00" stroke-width="0" cx="630.184" cy="270.443" r="21.3333"/>
</svg>
