<?xml version="1.0" encoding="utf-8"?> <!-- Generator: Adobe Illustrator 13.0.0, SVG Export Plug-In . SVG Version: 6.00 Build 14948)  --> <svg version="1.2" baseProfile="tiny" id="Layer_1" xmlns="http://www.w3.org/2000/svg" xmlns:xlink="http://www.w3.org/1999/xlink" x="0px" y="0px" width="512px" height="512px" viewBox="0 0 512 512" xml:space="preserve">
<polygon points="0,0 512,0 512,512 0,512" style="fill:#ffffff; stroke:#000000;stroke-width:0"/>
<polygon points="-33.6309,199.194 8.02461,189.96 55.1353,402.491 13.4797,411.724" style="fill:#006363; stroke:#000000;stroke-width:0"/>
<circle fill="#006363" stroke="#006363" stroke-width="0" cx="-12.8032" cy="194.577" r="21.3333"/>
<circle fill="#006363" stroke="#006363" stroke-width="0" cx="34.3075" cy="407.107" r="21.3333"/>
<polygon points="446.478,95.6473 484.543,76.373 581.533,267.919 543.468,287.193" style="fill:#006363; stroke:#000000;stroke-width:0"/>
<circle fill="#006363" stroke="#006363" stroke-width="0" cx="465.511" cy="86.0101" r="21.3333"/>
<circle fill="#006363" stroke="#006363" stroke-width="0" cx="562.501" cy="277.556" r="21.3333"/>
<polygon points="1256,469.333 256,1469.33 -744,469.333" style="fill:#000000; stroke:#000000;stroke-width:0"/>
<polygon points="-744,42.6667 256,-957.333 1256,42.6667" style="fill:#000000; stroke:#000000;stroke-width:0"/>
<circle fill="#a64b00" stroke="#a64b00" stroke-width="0" cx="-12.8032" cy="194.577" r="21.3333"/>
<circle fill="#a64b00" stroke="#a64b00" stroke-width="0" cx="34.3075" cy="407.107" r="21.3333"/>
<circle fill="#a64b00" stroke="#a64b00" stroke-width="0" cx="465.511" cy="86.0101" r="21.3333"/>
<circle fill="#a64b00" stroke="#a64b00" stroke-width="0" cx="562.501" cy="277.556" r="21.3333"/>
<circle fill="#a64b00" stroke="#a64b00" stroke-width="0" cx="285.755" cy="242.778" r="21.3333"/>
</svg>
