<?xml version="1.0" encoding="utf-8"?> <!-- Generator: Adobe Illustrator 13.0.0, SVG Export Plug-In . SVG Version: 6.00 Build 14948)  --> <svg version="1.2" baseProfile="tiny" id="Layer_1" xmlns="http://www.w3.org/2000/svg" xmlns:xlink="http://www.w3.org/1999/xlink" x="0px" y="0px" width="512px" height="512px" viewBox="0 0 512 512" xml:space="preserve">
<polygon points="0,0 512,0 512,512 0,512" style="fill:#ffffff; stroke:#000000;stroke-width:0"/>
<polygon points="-404.343,136.637 -407.079,94.0585 -195.337,80.4519 -192.601,123.031" style="fill:#006363; stroke:#000000;stroke-width:0"/>
<circle fill="#006363" stroke="#006363" stroke-width="0" cx="-405.711" cy="115.348" r="21.3333"/>
<circle fill="#006363" stroke="#006363" stroke-width="0" cx="-193.969" cy="101.741" r="21.3333"/>
<polygon points="853.606,224.186 895.791,217.787 928.789,435.339 886.605,441.737" style="fill:#006363; stroke:#000000;stroke-width:0"/>
<circle fill="#006363" stroke="#006363" stroke-width="0" cx="874.699" cy="220.987" r="21.3333"/>
<circle fill="#006363" stroke="#006363" stroke-width="0" cx="907.697" cy="438.538" r="21.3333"/>
<polygon points="1256,469.333 256,1469.33 -744,469.333" style="fill:#000000; stroke:#000000;stroke-width:0"/>
<polygon points="-744,42.6667 256,-957.333 1256,42.6667" style="fill:#000000; stroke:#000000;stroke-width:0"/>
<circle fill="#a64b00" stroke="#a64b00" stroke-width="0" cx="-405.711" cy="115.348" r="21.3333"/>
<circle fill="#a64b00" stroke="#a64b00" stroke-width="0" cx="-193.969" cy="101.741" r="21.3333"/>
<circle fill="#a64b00" stroke="#a64b00" stroke-width="0" cx="874.699" cy="220.987" r="21.3333"/>
<circle fill="#a64b00" stroke="#a64b00" stroke-width="0" cx="907.697" cy="438.538" r="21.3333"/>
<circle fill="#a64b00" stroke="#a64b00" stroke-width="0" cx="-159.548" cy="192.239" r="21.3333"/>
</svg>
