<?xml version="1.0" encoding="utf-8"?> <!-- Generator: Adobe Illustrator 13.0.0, SVG Export Plug-In . SVG Version: 6.00 Build 14948)  --> <svg version="1.2" baseProfile="tiny" id="Layer_1" xmlns="http://www.w3.org/2000/svg" xmlns:xlink="http://www.w3.org/1999/xlink" x="0px" y="0px" width="512px" height="512px" viewBox="0 0 512 512" xml:space="preserve">
<polygon points="0,0 512,0 512,512 0,512" style="fill:#ffffff; stroke:#000000;stroke-width:0"/>
<polygon points="-131.212,89.1342 -131.584,46.4692 77.1842,44.6501 77.556,87.3152" style="fill:#006363; stroke:#000000;stroke-width:0"/>
<circle fill="#006363" stroke="#006363" stroke-width="0" cx="-131.398" cy="67.8017" r="21.3333"/>
<circle fill="#006363" stroke="#006363" stroke-width="0" cx="77.3701" cy="65.9827" r="21.3333"/>
<polygon points="513.851,294.605 479.615,269.142 605.754,99.5382 639.991,125.001" style="fill:#006363; stroke:#000000;stroke-width:0"/>
<circle fill="#006363" stroke="#006363" stroke-width="0" cx="496.733" cy="281.873" r="21.3333"/>
<circle fill="#006363" stroke="#006363" stroke-width="0" cx="622.872" cy="112.269" r="21.3333"/>
<polygon points="1256,469.333 256,1469.33 -744,469.333" style="fill:#000000; stroke:#000000;stroke-width:0"/>
<polygon points="-744,42.6667 256,-957.333 1256,42.6667" style="fill:#000000; stroke:#000000;stroke-width:0"/>
<circle fill="#a64b00" stroke="#a64b00" stroke-width="0" cx="-131.398" cy="67.8017" r="21.3333"/>
<circle fill="#a64b00" stroke="#a64b00" stroke-width="0" cx="77.3701" cy="65.9827" r="21.3333"/>
<circle fill="#a64b00" stroke="#a64b00" stroke-width="0" cx="496.733" cy="281.873" r="21.3333"/>
<circle fill="#a64b00" stroke="#a64b00" stroke-width="0" cx="622.872" cy="112.269" r="21.3333"/>
<circle fill="#a64b00" stroke="#a64b00" stroke-width="0" cx="460.856" cy="173.158" r="21.3333"/>
</svg>
