<?xml version="1.0" encoding="utf-8"?> <!-- Generator: Adobe Illustrator 13.0.0, SVG Export Plug-In . SVG Version: 6.00 Build 14948)  --> <svg version="1.2" baseProfile="tiny" id="Layer_1" xmlns="http://www.w3.org/2000/svg" xmlns:xlink="http://www.w3.org/1999/xlink" x="0px" y="0px" width="512px" height="512px" viewBox="0 0 512 512" xml:space="preserve">
<polygon points="0,0 512,0 512,512 0,512" style="fill:#ffffff; stroke:#000000;stroke-width:0"/>
<polygon points="-287.324,321.185 -329.061,312.327 -285.074,105.073 -243.337,113.931" style="fill:#006363; stroke:#000000;stroke-width:0"/>
<circle fill="#006363" stroke="#006363" stroke-width="0" cx="-308.192" cy="316.756" r="21.3333"/>
<circle fill="#006363" stroke="#006363" stroke-width="0" cx="-264.205" cy="109.502" r="21.3333"/>
<polygon points="792.07,261.668 826.413,236.349 957.186,413.731 922.843,439.049" style="fill:#006363; stroke:#000000;stroke-width:0"/>
<circle fill="#006363" stroke="#006363" stroke-width="0" cx="809.242" cy="249.009" r="21.3333"/>
<circle fill="#006363" stroke="#006363" stroke-width="0" cx="940.015" cy="426.39" r="21.3333"/>
<polygon points="1256,469.333 256,1469.33 -744,469.333" style="fill:#000000; stroke:#000000;stroke-width:0"/>
<polygon points="-744,42.6667 256,-957.333 1256,42.6667" style="fill:#000000; stroke:#000000;stroke-width:0"/>
<circle fill="#a64b00" stroke="#a64b00" stroke-width="0" cx="-308.192" cy="316.756" r="21.3333"/>
<circle fill="#a64b00" stroke="#a64b00" stroke-width="0" cx="-264.205" cy="109.502" r="21.3333"/>
<circle fill="#a64b00" stroke="#a64b00" stroke-width="0" cx="809.242" cy="249.009" r="21.3333"/>
<circle fill="#a64b00" stroke="#a64b00" stroke-width="0" cx="940.015" cy="426.39" r="21.3333"/>
<circle fill="#a64b00" stroke="#a64b00" stroke-width="0" cx="-128.528" cy="211.32" r="21.3333"/>
</svg>
