<?xml version="1.0" encoding="utf-8"?> <!-- Generator: Adobe Illustrator 13.0.0, SVG Export Plug-In . SVG Version: 6.00 Build 14948)  --> <svg version="1.2" baseProfile="tiny" id="Layer_1" xmlns="http://www.w3.org/2000/svg" xmlns:xlink="http://www.w3.org/1999/xlink" x="0px" y="0px" width="512px" height="512px" viewBox="0 0 512 512" xml:space="preserve">
<polygon points="0,0 512,0 512,512 0,512" style="fill:#ffffff; stroke:#000000;stroke-width:0"/>
<polygon points="21.3333,230.4 64,230.4 64,443.733 21.3333,443.733" style="fill:#006363; stroke:#000000;stroke-width:0"/>
<circle fill="#006363" stroke="#006363" stroke-width="0" cx="42.6667" cy="230.4" r="21.3333"/>
<circle fill="#006363" stroke="#006363" stroke-width="0" cx="42.6667" cy="443.733" r="21.3333"/>
<polygon points="449.588,68.4186 492.253,68.1199 493.747,281.448 451.081,281.747" style="fill:#006363; stroke:#000000;stroke-width:0"/>
<circle fill="#006363" stroke="#006363" stroke-width="0" cx="470.92" cy="68.2692" r="21.3333"/>
<circle fill="#006363" stroke="#006363" stroke-width="0" cx="472.414" cy="281.597" r="21.3333"/>
<polygon points="1256,469.333 256,1469.33 -744,469.333" style="fill:#000000; stroke:#000000;stroke-width:0"/>
<polygon points="-744,42.6667 256,-957.333 1256,42.6667" style="fill:#000000; stroke:#000000;stroke-width:0"/>
<circle fill="#a64b00" stroke="#a64b00" stroke-width="0" cx="42.6667" cy="230.4" r="21.3333"/>
<circle fill="#a64b00" stroke="#a64b00" stroke-width="0" cx="42.6667" cy="443.733" r="21.3333"/>
<circle fill="#a64b00" stroke="#a64b00" stroke-width="0" cx="470.92" cy="68.2692" r="21.3333"/>
<circle fill="#a64b00" stroke="#a64b00" stroke-width="0" cx="472.414" cy="281.597" r="21.3333"/>
<circle fill="#a64b00" stroke="#a64b00" stroke-width="0" cx="194.573" cy="256" r="21.3333"/>
</svg>
