<?xml version="1.0" encoding="utf-8"?> <!-- Generator: Adobe Illustrator 13.0.0, SVG Export Plug-In . SVG Version: 6.00 Build 14948)  --> <svg version="1.2" baseProfile="tiny" id="Layer_1" xmlns="http://www.w3.org/2000/svg" xmlns:xlink="http://www.w3.org/1999/xlink" x="0px" y="0px" width="512px" height="512px" viewBox="0 0 512 512" xml:space="preserve">
<polygon points="0,0 512,0 512,512 0,512" style="fill:#ffffff; stroke:#000000;stroke-width:0"/>
<polygon points="-67.7351,249.349 -69.2807,291.987 -287.975,284.06 -286.43,241.421" style="fill:#006363; stroke:#000000;stroke-width:0"/>
<circle fill="#006363" stroke="#006363" stroke-width="0" cx="-68.5079" cy="270.668" r="21.3333"/>
<circle fill="#006363" stroke="#006363" stroke-width="0" cx="-287.203" cy="262.74" r="21.3333"/>
<polygon points="737.663,290.145 696.26,279.836 748.389,70.469 789.792,80.7776" style="fill:#006363; stroke:#000000;stroke-width:0"/>
<circle fill="#006363" stroke="#006363" stroke-width="0" cx="716.961" cy="284.99" r="21.3333"/>
<circle fill="#006363" stroke="#006363" stroke-width="0" cx="769.091" cy="75.6233" r="21.3333"/>
<polygon points="1256,469.333 256,1469.33 -744,469.333" style="fill:#000000; stroke:#000000;stroke-width:0"/>
<polygon points="-744,42.6667 256,-957.333 1256,42.6667" style="fill:#000000; stroke:#000000;stroke-width:0"/>
<circle fill="#a64b00" stroke="#a64b00" stroke-width="0" cx="-68.5079" cy="270.668" r="21.3333"/>
<circle fill="#a64b00" stroke="#a64b00" stroke-width="0" cx="-287.203" cy="262.74" r="21.3333"/>
<circle fill="#a64b00" stroke="#a64b00" stroke-width="0" cx="716.961" cy="284.99" r="21.3333"/>
<circle fill="#a64b00" stroke="#a64b00" stroke-width="0" cx="769.091" cy="75.6233" r="21.3333"/>
<circle fill="#a64b00" stroke="#a64b00" stroke-width="0" cx="117.844" cy="182.698" r="21.3333"/>
</svg>
