<?xml version="1.0" encoding="utf-8"?> <!-- Generator: Adobe Illustrator 13.0.0, SVG Export Plug-In . SVG Version: 6.00 Build 14948)  --> <svg version="1.2" baseProfile="tiny" id="Layer_1" xmlns="http://www.w3.org/2000/svg" xmlns:xlink="http://www.w3.org/1999/xlink" x="0px" y="0px" width="512px" height="512px" viewBox="0 0 512 512" xml:space="preserve">
<polygon points="0,0 512,0 512,512 0,512" style="fill:#ffffff; stroke:#000000;stroke-width:0"/>
<polygon points="-398.136,259.562 -418.645,222.147 -231.481,119.551 -210.972,156.965" style="fill:#006363; stroke:#000000;stroke-width:0"/>
<circle fill="#006363" stroke="#006363" stroke-width="0" cx="-408.391" cy="240.855" r="21.3333"/>
<circle fill="#006363" stroke="#006363" stroke-width="0" cx="-221.226" cy="138.258" r="21.3333"/>
<polygon points="916.189,217.563 956.998,230.016 896.797,427.308 855.988,414.856" style="fill:#006363; stroke:#000000;stroke-width:0"/>
<circle fill="#006363" stroke="#006363" stroke-width="0" cx="936.593" cy="223.789" r="21.3333"/>
<circle fill="#006363" stroke="#006363" stroke-width="0" cx="876.393" cy="421.082" r="21.3333"/>
<polygon points="1256,469.333 256,1469.33 -744,469.333" style="fill:#000000; stroke:#000000;stroke-width:0"/>
<polygon points="-744,42.6667 256,-957.333 1256,42.6667" style="fill:#000000; stroke:#000000;stroke-width:0"/>
<circle fill="#a64b00" stroke="#a64b00" stroke-width="0" cx="-408.391" cy="240.855" r="21.3333"/>
<circle fill="#a64b00" stroke="#a64b00" stroke-width="0" cx="-221.226" cy="138.258" r="21.3333"/>
<circle fill="#a64b00" stroke="#a64b00" stroke-width="0" cx="936.593" cy="223.789" r="21.3333"/>
<circle fill="#a64b00" stroke="#a64b00" stroke-width="0" cx="876.393" cy="421.082" r="21.3333"/>
<circle fill="#a64b00" stroke="#a64b00" stroke-width="0" cx="287.13" cy="211.871" r="21.3333"/>
</svg>
