<?xml version="1.0" encoding="utf-8"?> <!-- Generator: Adobe Illustrator 13.0.0, SVG Export Plug-In . SVG Version: 6.00 Build 14948)  --> <svg version="1.2" baseProfile="tiny" id="Layer_1" xmlns="http://www.w3.org/2000/svg" xmlns:xlink="http://www.w3.org/1999/xlink" x="0px" y="0px" width="512px" height="512px" viewBox="0 0 512 512" xml:space="preserve">
<polygon points="0,0 512,0 512,512 0,512" style="fill:#ffffff; stroke:#000000;stroke-width:0"/>
<polygon points="-100.722,247.572 -58.7535,239.886 -21.512,443.236 -63.4807,450.922" style="fill:#006363; stroke:#000000;stroke-width:0"/>
<circle fill="#006363" stroke="#006363" stroke-width="0" cx="-79.7379" cy="243.729" r="21.3333"/>
<circle fill="#006363" stroke="#006363" stroke-width="0" cx="-42.4964" cy="447.079" r="21.3333"/>
<polygon points="705.258,268.604 686.456,306.905 497.196,213.993 515.999,175.692" style="fill:#006363; stroke:#000000;stroke-width:0"/>
<circle fill="#006363" stroke="#006363" stroke-width="0" cx="695.857" cy="287.755" r="21.3333"/>
<circle fill="#006363" stroke="#006363" stroke-width="0" cx="506.597" cy="194.843" r="21.3333"/>
<polygon points="1256,469.333 256,1469.33 -744,469.333" style="fill:#000000; stroke:#000000;stroke-width:0"/>
<polygon points="-744,42.6667 256,-957.333 1256,42.6667" style="fill:#000000; stroke:#000000;stroke-width:0"/>
<circle fill="#a64b00" stroke="#a64b00" stroke-width="0" cx="-79.7379" cy="243.729" r="21.3333"/>
<circle fill="#a64b00" stroke="#a64b00" stroke-width="0" cx="-42.4964" cy="447.079" r="21.3333"/>
<circle fill="#a64b00" stroke="#a64b00" stroke-width="0" cx="695.857" cy="287.755" r="21.3333"/>
<circle fill="#a64b00" stroke="#a64b00" stroke-width="0" cx="506.597" cy="194.843" r="21.3333"/>
<circle fill="#a64b00" stroke="#a64b00" stroke-width="0" cx="383.305" cy="268.563" r="21.3333"/>
</svg>
