<?xml version="1.0" encoding="utf-8"?> <!-- Generator: Adobe Illustrator 13.0.0, SVG Export Plug-In . SVG Version: 6.00 Build 14948)  --> <svg version="1.2" baseProfile="tiny" id="Layer_1" xmlns="http://www.w3.org/2000/svg" xmlns:xlink="http://www.w3.org/1999/xlink" x="0px" y="0px" width="512px" height="512px" viewBox="0 0 512 512" xml:space="preserve">
<polygon points="0,0 512,0 512,512 0,512" style="fill:#ffffff; stroke:#000000;stroke-width:0"/>
<polygon points="-364.006,355.935 -399.222,331.846 -280.282,157.968 -245.066,182.057" style="fill:#006363; stroke:#000000;stroke-width:0"/>
<circle fill="#006363" stroke="#006363" stroke-width="0" cx="-381.614" cy="343.89" r="21.3333"/>
<circle fill="#006363" stroke="#006363" stroke-width="0" cx="-262.674" cy="170.012" r="21.3333"/>
<polygon points="948.861,212.665 986.091,233.507 878.783,425.185 841.553,404.343" style="fill:#006363; stroke:#000000;stroke-width:0"/>
<circle fill="#006363" stroke="#006363" stroke-width="0" cx="967.476" cy="223.086" r="21.3333"/>
<circle fill="#006363" stroke="#006363" stroke-width="0" cx="860.168" cy="414.764" r="21.3333"/>
<polygon points="1256,469.333 256,1469.33 -744,469.333" style="fill:#000000; stroke:#000000;stroke-width:0"/>
<polygon points="-744,42.6667 256,-957.333 1256,42.6667" style="fill:#000000; stroke:#000000;stroke-width:0"/>
<circle fill="#a64b00" stroke="#a64b00" stroke-width="0" cx="-381.614" cy="343.89" r="21.3333"/>
<circle fill="#a64b00" stroke="#a64b00" stroke-width="0" cx="-262.674" cy="170.012" r="21.3333"/>
<circle fill="#a64b00" stroke="#a64b00" stroke-width="0" cx="967.476" cy="223.086" r="21.3333"/>
<circle fill="#a64b00" stroke="#a64b00" stroke-width="0" cx="860.168" cy="414.764" r="21.3333"/>
<circle fill="#a64b00" stroke="#a64b00" stroke-width="0" cx="533.7" cy="253.97" r="21.3333"/>
</svg>
