<?xml version="1.0" encoding="utf-8"?> <!-- Generator: Adobe Illustrator 13.0.0, SVG Export Plug-In . SVG Version: 6.00 Build 14948)  --> <svg version="1.2" baseProfile="tiny" id="Layer_1" xmlns="http://www.w3.org/2000/svg" xmlns:xlink="http://www.w3.org/1999/xlink" x="0px" y="0px" width="512px" height="512px" viewBox="0 0 512 512" xml:space="preserve">
<polygon points="0,0 512,0 512,512 0,512" style="fill:#ffffff; stroke:#000000;stroke-width:0"/>
<polygon points="-131.926,215.583 -123.936,257.495 -342.884,299.234 -350.873,257.322" style="fill:#006363; stroke:#000000;stroke-width:0"/>
<circle fill="#006363" stroke="#006363" stroke-width="0" cx="-127.931" cy="236.539" r="21.3333"/>
<circle fill="#006363" stroke="#006363" stroke-width="0" cx="-346.878" cy="278.278" r="21.3333"/>
<polygon points="758.714,454.766 728.161,424.985 872.004,277.412 902.558,307.194" style="fill:#006363; stroke:#000000;stroke-width:0"/>
<circle fill="#006363" stroke="#006363" stroke-width="0" cx="743.438" cy="439.876" r="21.3333"/>
<circle fill="#006363" stroke="#006363" stroke-width="0" cx="887.281" cy="292.303" r="21.3333"/>
<polygon points="1256,469.333 256,1469.33 -744,469.333" style="fill:#000000; stroke:#000000;stroke-width:0"/>
<polygon points="-744,42.6667 256,-957.333 1256,42.6667" style="fill:#000000; stroke:#000000;stroke-width:0"/>
<circle fill="#a64b00" stroke="#a64b00" stroke-width="0" cx="-127.931" cy="236.539" r="21.3333"/>
<circle fill="#a64b00" stroke="#a64b00" stroke-width="0" cx="-346.878" cy="278.278" r="21.3333"/>
<circle fill="#a64b00" stroke="#a64b00" stroke-width="0" cx="743.438" cy="439.876" r="21.3333"/>
<circle fill="#a64b00" stroke="#a64b00" stroke-width="0" cx="887.281" cy="292.303" r="21.3333"/>
<circle fill="#a64b00" stroke="#a64b00" stroke-width="0" cx="-17.5709" cy="115.915" r="21.3333"/>
</svg>
