<?xml version="1.0" encoding="utf-8"?> <!-- Generator: Adobe Illustrator 13.0.0, SVG Export Plug-In . SVG Version: 6.00 Build 14948)  --> <svg version="1.2" baseProfile="tiny" id="Layer_1" xmlns="http://www.w3.org/2000/svg" xmlns:xlink="http://www.w3.org/1999/xlink" x="0px" y="0px" width="512px" height="512px" viewBox="0 0 512 512" xml:space="preserve">
<polygon points="0,0 512,0 512,512 0,512" style="fill:#ffffff; stroke:#000000;stroke-width:0"/>
<polygon points="-188.697,439.969 -212.465,404.535 -27.9774,280.785 -4.20938,316.218" style="fill:#006363; stroke:#000000;stroke-width:0"/>
<circle fill="#006363" stroke="#006363" stroke-width="0" cx="-200.581" cy="422.252" r="21.3333"/>
<circle fill="#006363" stroke="#006363" stroke-width="0" cx="-16.0934" cy="298.501" r="21.3333"/>
<polygon points="597.576,213.201 636.864,196.56 719.592,391.872 680.304,408.513" style="fill:#006363; stroke:#000000;stroke-width:0"/>
<circle fill="#006363" stroke="#006363" stroke-width="0" cx="617.22" cy="204.88" r="21.3333"/>
<circle fill="#006363" stroke="#006363" stroke-width="0" cx="699.948" cy="400.192" r="21.3333"/>
<polygon points="1256,469.333 256,1469.33 -744,469.333" style="fill:#000000; stroke:#000000;stroke-width:0"/>
<polygon points="-744,42.6667 256,-957.333 1256,42.6667" style="fill:#000000; stroke:#000000;stroke-width:0"/>
<circle fill="#a64b00" stroke="#a64b00" stroke-width="0" cx="-200.581" cy="422.252" r="21.3333"/>
<circle fill="#a64b00" stroke="#a64b00" stroke-width="0" cx="-16.0934" cy="298.501" r="21.3333"/>
<circle fill="#a64b00" stroke="#a64b00" stroke-width="0" cx="617.22" cy="204.88" r="21.3333"/>
<circle fill="#a64b00" stroke="#a64b00" stroke-width="0" cx="699.948" cy="400.192" r="21.3333"/>
<circle fill="#a64b00" stroke="#a64b00" stroke-width="0" cx="275.928" cy="115.915" r="21.3333"/>
</svg>
