<?xml version="1.0" encoding="utf-8"?> <!-- Generator: Adobe Illustrator 13.0.0, SVG Export Plug-In . SVG Version: 6.00 Build 14948)  --> <svg version="1.2" baseProfile="tiny" id="Layer_1" xmlns="http://www.w3.org/2000/svg" xmlns:xlink="http://www.w3.org/1999/xlink" x="0px" y="0px" width="512px" height="512px" viewBox="0 0 512 512" xml:space="preserve">
<polygon points="0,0 512,0 512,512 0,512" style="fill:#ffffff; stroke:#000000;stroke-width:0"/>
<polygon points="-197.834,352.713 -232.089,378.15 -356.725,210.31 -322.47,184.873" style="fill:#006363; stroke:#000000;stroke-width:0"/>
<circle fill="#006363" stroke="#006363" stroke-width="0" cx="-214.962" cy="365.431" r="21.3333"/>
<circle fill="#006363" stroke="#006363" stroke-width="0" cx="-339.597" cy="197.591" r="21.3333"/>
<polygon points="761.469,296.301 786.195,261.529 966.119,389.477 941.393,424.248" style="fill:#006363; stroke:#000000;stroke-width:0"/>
<circle fill="#006363" stroke="#006363" stroke-width="0" cx="773.832" cy="278.915" r="21.3333"/>
<circle fill="#006363" stroke="#006363" stroke-width="0" cx="953.756" cy="406.863" r="21.3333"/>
<polygon points="1256,469.333 256,1469.33 -744,469.333" style="fill:#000000; stroke:#000000;stroke-width:0"/>
<polygon points="-744,42.6667 256,-957.333 1256,42.6667" style="fill:#000000; stroke:#000000;stroke-width:0"/>
<circle fill="#a64b00" stroke="#a64b00" stroke-width="0" cx="-214.962" cy="365.431" r="21.3333"/>
<circle fill="#a64b00" stroke="#a64b00" stroke-width="0" cx="-339.597" cy="197.591" r="21.3333"/>
<circle fill="#a64b00" stroke="#a64b00" stroke-width="0" cx="773.832" cy="278.915" r="21.3333"/>
<circle fill="#a64b00" stroke="#a64b00" stroke-width="0" cx="953.756" cy="406.863" r="21.3333"/>
<circle fill="#a64b00" stroke="#a64b00" stroke-width="0" cx="-108.245" cy="230.401" r="21.3333"/>
</svg>
