<?xml version="1.0" encoding="utf-8"?> <!-- Generator: Adobe Illustrator 13.0.0, SVG Export Plug-In . SVG Version: 6.00 Build 14948)  --> <svg version="1.2" baseProfile="tiny" id="Layer_1" xmlns="http://www.w3.org/2000/svg" xmlns:xlink="http://www.w3.org/1999/xlink" x="0px" y="0px" width="512px" height="512px" viewBox="0 0 512 512" xml:space="preserve">
<polygon points="0,0 512,0 512,512 0,512" style="fill:#ffffff; stroke:#000000;stroke-width:0"/>
<polygon points="-406.682,226.975 -421.614,187.006 -218.47,111.115 -203.539,151.083" style="fill:#006363; stroke:#000000;stroke-width:0"/>
<circle fill="#006363" stroke="#006363" stroke-width="0" cx="-414.148" cy="206.991" r="21.3333"/>
<circle fill="#006363" stroke="#006363" stroke-width="0" cx="-211.004" cy="131.099" r="21.3333"/>
<polygon points="907.469,217.098 948.994,226.904 901.055,429.911 859.531,420.105" style="fill:#006363; stroke:#000000;stroke-width:0"/>
<circle fill="#006363" stroke="#006363" stroke-width="0" cx="928.232" cy="222.001" r="21.3333"/>
<circle fill="#006363" stroke="#006363" stroke-width="0" cx="880.293" cy="425.008" r="21.3333"/>
<polygon points="1256,469.333 256,1469.33 -744,469.333" style="fill:#000000; stroke:#000000;stroke-width:0"/>
<polygon points="-744,42.6667 256,-957.333 1256,42.6667" style="fill:#000000; stroke:#000000;stroke-width:0"/>
<circle fill="#a64b00" stroke="#a64b00" stroke-width="0" cx="-414.148" cy="206.991" r="21.3333"/>
<circle fill="#a64b00" stroke="#a64b00" stroke-width="0" cx="-211.004" cy="131.099" r="21.3333"/>
<circle fill="#a64b00" stroke="#a64b00" stroke-width="0" cx="928.232" cy="222.001" r="21.3333"/>
<circle fill="#a64b00" stroke="#a64b00" stroke-width="0" cx="880.293" cy="425.008" r="21.3333"/>
<circle fill="#a64b00" stroke="#a64b00" stroke-width="0" cx="212.088" cy="199.059" r="21.3333"/>
</svg>
