<?xml version="1.0" encoding="utf-8"?> <!-- Generator: Adobe Illustrator 13.0.0, SVG Export Plug-In . SVG Version: 6.00 Build 14948)  --> <svg version="1.2" baseProfile="tiny" id="Layer_1" xmlns="http://www.w3.org/2000/svg" xmlns:xlink="http://www.w3.org/1999/xlink" x="0px" y="0px" width="512px" height="512px" viewBox="0 0 512 512" xml:space="preserve">
<polygon points="0,0 512,0 512,512 0,512" style="fill:#ffffff; stroke:#000000;stroke-width:0"/>
<polygon points="-102.985,190.808 -60.828,184.231 -27.6442,396.933 -69.8009,403.51" style="fill:#006363; stroke:#000000;stroke-width:0"/>
<circle fill="#006363" stroke="#006363" stroke-width="0" cx="-81.9063" cy="187.519" r="21.3333"/>
<circle fill="#006363" stroke="#006363" stroke-width="0" cx="-48.7225" cy="400.222" r="21.3333"/>
<polygon points="713.587,251.135 703.404,292.569 499.064,242.348 509.248,200.915" style="fill:#006363; stroke:#000000;stroke-width:0"/>
<circle fill="#006363" stroke="#006363" stroke-width="0" cx="708.495" cy="271.852" r="21.3333"/>
<circle fill="#006363" stroke="#006363" stroke-width="0" cx="504.156" cy="221.632" r="21.3333"/>
<polygon points="1256,469.333 256,1469.33 -744,469.333" style="fill:#000000; stroke:#000000;stroke-width:0"/>
<polygon points="-744,42.6667 256,-957.333 1256,42.6667" style="fill:#000000; stroke:#000000;stroke-width:0"/>
<circle fill="#a64b00" stroke="#a64b00" stroke-width="0" cx="-81.9063" cy="187.519" r="21.3333"/>
<circle fill="#a64b00" stroke="#a64b00" stroke-width="0" cx="-48.7225" cy="400.222" r="21.3333"/>
<circle fill="#a64b00" stroke="#a64b00" stroke-width="0" cx="708.495" cy="271.852" r="21.3333"/>
<circle fill="#a64b00" stroke="#a64b00" stroke-width="0" cx="504.156" cy="221.632" r="21.3333"/>
<circle fill="#a64b00" stroke="#a64b00" stroke-width="0" cx="373.761" cy="115.915" r="21.3333"/>
</svg>
