<?xml version="1.0" encoding="utf-8"?> <!-- Generator: Adobe Illustrator 13.0.0, SVG Export Plug-In . SVG Version: 6.00 Build 14948)  --> <svg version="1.2" baseProfile="tiny" id="Layer_1" xmlns="http://www.w3.org/2000/svg" xmlns:xlink="http://www.w3.org/1999/xlink" x="0px" y="0px" width="512px" height="512px" viewBox="0 0 512 512" xml:space="preserve">
<polygon points="0,0 512,0 512,512 0,512" style="fill:#ffffff; stroke:#000000;stroke-width:0"/>
<polygon points="-368.803,350.139 -402.997,324.621 -274.209,152.043 -240.015,177.561" style="fill:#006363; stroke:#000000;stroke-width:0"/>
<circle fill="#006363" stroke="#006363" stroke-width="0" cx="-385.9" cy="337.38" r="21.3333"/>
<circle fill="#006363" stroke="#006363" stroke-width="0" cx="-257.112" cy="164.802" r="21.3333"/>
<polygon points="946.019,213.001 983.608,233.188 880.35,425.46 842.761,405.273" style="fill:#006363; stroke:#000000;stroke-width:0"/>
<circle fill="#006363" stroke="#006363" stroke-width="0" cx="964.813" cy="223.095" r="21.3333"/>
<circle fill="#006363" stroke="#006363" stroke-width="0" cx="861.556" cy="415.366" r="21.3333"/>
<polygon points="1256,469.333 256,1469.33 -744,469.333" style="fill:#000000; stroke:#000000;stroke-width:0"/>
<polygon points="-744,42.6667 256,-957.333 1256,42.6667" style="fill:#000000; stroke:#000000;stroke-width:0"/>
<circle fill="#a64b00" stroke="#a64b00" stroke-width="0" cx="-385.9" cy="337.38" r="21.3333"/>
<circle fill="#a64b00" stroke="#a64b00" stroke-width="0" cx="-257.112" cy="164.802" r="21.3333"/>
<circle fill="#a64b00" stroke="#a64b00" stroke-width="0" cx="964.813" cy="223.095" r="21.3333"/>
<circle fill="#a64b00" stroke="#a64b00" stroke-width="0" cx="861.556" cy="415.366" r="21.3333"/>
<circle fill="#a64b00" stroke="#a64b00" stroke-width="0" cx="512.259" cy="250.309" r="21.3333"/>
</svg>
