<?xml version="1.0" encoding="utf-8"?> <!-- Generator: Adobe Illustrator 13.0.0, SVG Export Plug-In . SVG Version: 6.00 Build 14948)  --> <svg version="1.2" baseProfile="tiny" id="Layer_1" xmlns="http://www.w3.org/2000/svg" xmlns:xlink="http://www.w3.org/1999/xlink" x="0px" y="0px" width="512px" height="512px" viewBox="0 0 512 512" xml:space="preserve">
<polygon points="0,0 512,0 512,512 0,512" style="fill:#ffffff; stroke:#000000;stroke-width:0"/>
<polygon points="-151.455,245.332 -112.558,227.798 -23.2461,425.915 -62.1431,443.45" style="fill:#006363; stroke:#000000;stroke-width:0"/>
<circle fill="#006363" stroke="#006363" stroke-width="0" cx="-132.006" cy="236.565" r="21.3333"/>
<circle fill="#006363" stroke="#006363" stroke-width="0" cx="-42.6946" cy="434.683" r="21.3333"/>
<polygon points="684.237,177.902 717.452,204.683 581.947,372.737 548.733,345.956" style="fill:#006363; stroke:#000000;stroke-width:0"/>
<circle fill="#006363" stroke="#006363" stroke-width="0" cx="700.844" cy="191.292" r="21.3333"/>
<circle fill="#006363" stroke="#006363" stroke-width="0" cx="565.34" cy="359.346" r="21.3333"/>
<polygon points="1256,469.333 256,1469.33 -744,469.333" style="fill:#000000; stroke:#000000;stroke-width:0"/>
<polygon points="-744,42.6667 256,-957.333 1256,42.6667" style="fill:#000000; stroke:#000000;stroke-width:0"/>
<circle fill="#a64b00" stroke="#a64b00" stroke-width="0" cx="-132.006" cy="236.565" r="21.3333"/>
<circle fill="#a64b00" stroke="#a64b00" stroke-width="0" cx="-42.6946" cy="434.683" r="21.3333"/>
<circle fill="#a64b00" stroke="#a64b00" stroke-width="0" cx="700.844" cy="191.292" r="21.3333"/>
<circle fill="#a64b00" stroke="#a64b00" stroke-width="0" cx="565.34" cy="359.346" r="21.3333"/>
<circle fill="#a64b00" stroke="#a64b00" stroke-width="0" cx="323.651" cy="96.8337" r="21.3333"/>
</svg>
