<?xml version="1.0" encoding="utf-8"?> <!-- Generator: Adobe Illustrator 13.0.0, SVG Export Plug-In . SVG Version: 6.00 Build 14948)  --> <svg version="1.2" baseProfile="tiny" id="Layer_1" xmlns="http://www.w3.org/2000/svg" xmlns:xlink="http://www.w3.org/1999/xlink" x="0px" y="0px" width="512px" height="512px" viewBox="0 0 512 512" xml:space="preserve">
<polygon points="0,0 512,0 512,512 0,512" style="fill:#ffffff; stroke:#000000;stroke-width:0"/>
<polygon points="-134.289,97.0026 -126.58,55.0382 88.1314,94.4815 80.4224,136.446" style="fill:#006363; stroke:#000000;stroke-width:0"/>
<circle fill="#006363" stroke="#006363" stroke-width="0" cx="-130.435" cy="76.0204" r="21.3333"/>
<circle fill="#006363" stroke="#006363" stroke-width="0" cx="84.2769" cy="115.464" r="21.3333"/>
<polygon points="488.61,279.856 460.195,248.028 621.436,104.08 649.851,135.908" style="fill:#006363; stroke:#000000;stroke-width:0"/>
<circle fill="#006363" stroke="#006363" stroke-width="0" cx="474.403" cy="263.942" r="21.3333"/>
<circle fill="#006363" stroke="#006363" stroke-width="0" cx="635.644" cy="119.994" r="21.3333"/>
<polygon points="1256,469.333 256,1469.33 -744,469.333" style="fill:#000000; stroke:#000000;stroke-width:0"/>
<polygon points="-744,42.6667 256,-957.333 1256,42.6667" style="fill:#000000; stroke:#000000;stroke-width:0"/>
<circle fill="#a64b00" stroke="#a64b00" stroke-width="0" cx="-130.435" cy="76.0204" r="21.3333"/>
<circle fill="#a64b00" stroke="#a64b00" stroke-width="0" cx="84.2769" cy="115.464" r="21.3333"/>
<circle fill="#a64b00" stroke="#a64b00" stroke-width="0" cx="474.403" cy="263.942" r="21.3333"/>
<circle fill="#a64b00" stroke="#a64b00" stroke-width="0" cx="635.644" cy="119.994" r="21.3333"/>
<circle fill="#a64b00" stroke="#a64b00" stroke-width="0" cx="469.804" cy="87.2932" r="21.3333"/>
</svg>
