<?xml version="1.0" encoding="utf-8"?> <!-- Generator: Adobe Illustrator 13.0.0, SVG Export Plug-In . SVG Version: 6.00 Build 14948)  --> <svg version="1.2" baseProfile="tiny" id="Layer_1" xmlns="http://www.w3.org/2000/svg" xmlns:xlink="http://www.w3.org/1999/xlink" x="0px" y="0px" width="512px" height="512px" viewBox="0 0 512 512" xml:space="preserve">
<polygon points="0,0 512,0 512,512 0,512" style="fill:#ffffff; stroke:#000000;stroke-width:0"/>
<polygon points="-234.51,191.846 -207.302,158.98 -46.1735,292.368 -73.3812,325.234" style="fill:#006363; stroke:#000000;stroke-width:0"/>
<circle fill="#006363" stroke="#006363" stroke-width="0" cx="-220.906" cy="175.413" r="21.3333"/>
<circle fill="#006363" stroke="#006363" stroke-width="0" cx="-59.7774" cy="308.801" r="21.3333"/>
<polygon points="613.278,411.441 593.727,373.517 781.64,276.642 801.191,314.566" style="fill:#006363; stroke:#000000;stroke-width:0"/>
<circle fill="#006363" stroke="#006363" stroke-width="0" cx="603.503" cy="392.479" r="21.3333"/>
<circle fill="#006363" stroke="#006363" stroke-width="0" cx="791.416" cy="295.604" r="21.3333"/>
<polygon points="1256,469.333 256,1469.33 -744,469.333" style="fill:#000000; stroke:#000000;stroke-width:0"/>
<polygon points="-744,42.6667 256,-957.333 1256,42.6667" style="fill:#000000; stroke:#000000;stroke-width:0"/>
<circle fill="#a64b00" stroke="#a64b00" stroke-width="0" cx="-220.906" cy="175.413" r="21.3333"/>
<circle fill="#a64b00" stroke="#a64b00" stroke-width="0" cx="-59.7774" cy="308.801" r="21.3333"/>
<circle fill="#a64b00" stroke="#a64b00" stroke-width="0" cx="603.503" cy="392.479" r="21.3333"/>
<circle fill="#a64b00" stroke="#a64b00" stroke-width="0" cx="791.416" cy="295.604" r="21.3333"/>
<circle fill="#a64b00" stroke="#a64b00" stroke-width="0" cx="203.15" cy="383.049" r="21.3333"/>
</svg>
