<?xml version="1.0" encoding="utf-8"?> <!-- Generator: Adobe Illustrator 13.0.0, SVG Export Plug-In . SVG Version: 6.00 Build 14948)  --> <svg version="1.2" baseProfile="tiny" id="Layer_1" xmlns="http://www.w3.org/2000/svg" xmlns:xlink="http://www.w3.org/1999/xlink" x="0px" y="0px" width="512px" height="512px" viewBox="0 0 512 512" xml:space="preserve">
<polygon points="0,0 512,0 512,512 0,512" style="fill:#ffffff; stroke:#000000;stroke-width:0"/>
<polygon points="-173.903,316.795 -154.035,354.554 -346.028,455.573 -365.896,417.814" style="fill:#006363; stroke:#000000;stroke-width:0"/>
<circle fill="#006363" stroke="#006363" stroke-width="0" cx="-163.969" cy="335.674" r="21.3333"/>
<circle fill="#006363" stroke="#006363" stroke-width="0" cx="-355.962" cy="436.694" r="21.3333"/>
<polygon points="739.472,374.008 739.591,331.341 946.055,331.918 945.936,374.584" style="fill:#006363; stroke:#000000;stroke-width:0"/>
<circle fill="#006363" stroke="#006363" stroke-width="0" cx="739.531" cy="352.674" r="21.3333"/>
<circle fill="#006363" stroke="#006363" stroke-width="0" cx="945.995" cy="353.251" r="21.3333"/>
<polygon points="1256,469.333 256,1469.33 -744,469.333" style="fill:#000000; stroke:#000000;stroke-width:0"/>
<polygon points="-744,42.6667 256,-957.333 1256,42.6667" style="fill:#000000; stroke:#000000;stroke-width:0"/>
<circle fill="#a64b00" stroke="#a64b00" stroke-width="0" cx="-163.969" cy="335.674" r="21.3333"/>
<circle fill="#a64b00" stroke="#a64b00" stroke-width="0" cx="-355.962" cy="436.694" r="21.3333"/>
<circle fill="#a64b00" stroke="#a64b00" stroke-width="0" cx="739.531" cy="352.674" r="21.3333"/>
<circle fill="#a64b00" stroke="#a64b00" stroke-width="0" cx="945.995" cy="353.251" r="21.3333"/>
<circle fill="#a64b00" stroke="#a64b00" stroke-width="0" cx="-68.8735" cy="77.7526" r="21.3333"/>
</svg>
