<?xml version="1.0" encoding="utf-8"?> <!-- Generator: Adobe Illustrator 13.0.0, SVG Export Plug-In . SVG Version: 6.00 Build 14948)  --> <svg version="1.2" baseProfile="tiny" id="Layer_1" xmlns="http://www.w3.org/2000/svg" xmlns:xlink="http://www.w3.org/1999/xlink" x="0px" y="0px" width="512px" height="512px" viewBox="0 0 512 512" xml:space="preserve">
<polygon points="0,0 512,0 512,512 0,512" style="fill:#ffffff; stroke:#000000;stroke-width:0"/>
<polygon points="-68.3341,217.467 -30.4771,197.788 65.3574,382.139 27.5005,401.819" style="fill:#006363; stroke:#000000;stroke-width:0"/>
<circle fill="#006363" stroke="#006363" stroke-width="0" cx="-49.4056" cy="207.628" r="21.3333"/>
<circle fill="#006363" stroke="#006363" stroke-width="0" cx="46.429" cy="391.979" r="21.3333"/>
<polygon points="426.368,140.282 445.144,101.968 634.101,194.568 615.325,232.882" style="fill:#006363; stroke:#000000;stroke-width:0"/>
<circle fill="#006363" stroke="#006363" stroke-width="0" cx="435.756" cy="121.125" r="21.3333"/>
<circle fill="#006363" stroke="#006363" stroke-width="0" cx="624.713" cy="213.725" r="21.3333"/>
<polygon points="1256,469.333 256,1469.33 -744,469.333" style="fill:#000000; stroke:#000000;stroke-width:0"/>
<polygon points="-744,42.6667 256,-957.333 1256,42.6667" style="fill:#000000; stroke:#000000;stroke-width:0"/>
<circle fill="#a64b00" stroke="#a64b00" stroke-width="0" cx="-49.4056" cy="207.628" r="21.3333"/>
<circle fill="#a64b00" stroke="#a64b00" stroke-width="0" cx="46.429" cy="391.979" r="21.3333"/>
<circle fill="#a64b00" stroke="#a64b00" stroke-width="0" cx="435.756" cy="121.125" r="21.3333"/>
<circle fill="#a64b00" stroke="#a64b00" stroke-width="0" cx="624.713" cy="213.725" r="21.3333"/>
<circle fill="#a64b00" stroke="#a64b00" stroke-width="0" cx="138.772" cy="188.454" r="21.3333"/>
</svg>
