<?xml version="1.0" encoding="utf-8"?> <!-- Generator: Adobe Illustrator 13.0.0, SVG Export Plug-In . SVG Version: 6.00 Build 14948)  --> <svg version="1.2" baseProfile="tiny" id="Layer_1" xmlns="http://www.w3.org/2000/svg" xmlns:xlink="http://www.w3.org/1999/xlink" x="0px" y="0px" width="512px" height="512px" viewBox="0 0 512 512" xml:space="preserve">
<polygon points="0,0 512,0 512,512 0,512" style="fill:#ffffff; stroke:#000000;stroke-width:0"/>
<polygon points="-214.19,242.337 -235.621,205.443 -47.0806,95.923 -25.6496,132.817" style="fill:#006363; stroke:#000000;stroke-width:0"/>
<circle fill="#006363" stroke="#006363" stroke-width="0" cx="-224.906" cy="223.89" r="21.3333"/>
<circle fill="#006363" stroke="#006363" stroke-width="0" cx="-36.3651" cy="114.37" r="21.3333"/>
<polygon points="577.201,350.286 578.186,307.631 794.138,312.622 793.152,355.277" style="fill:#006363; stroke:#000000;stroke-width:0"/>
<circle fill="#006363" stroke="#006363" stroke-width="0" cx="577.694" cy="328.958" r="21.3333"/>
<circle fill="#006363" stroke="#006363" stroke-width="0" cx="793.645" cy="333.95" r="21.3333"/>
<polygon points="1256,469.333 256,1469.33 -744,469.333" style="fill:#000000; stroke:#000000;stroke-width:0"/>
<polygon points="-744,42.6667 256,-957.333 1256,42.6667" style="fill:#000000; stroke:#000000;stroke-width:0"/>
<circle fill="#a64b00" stroke="#a64b00" stroke-width="0" cx="-224.906" cy="223.89" r="21.3333"/>
<circle fill="#a64b00" stroke="#a64b00" stroke-width="0" cx="-36.3651" cy="114.37" r="21.3333"/>
<circle fill="#a64b00" stroke="#a64b00" stroke-width="0" cx="577.694" cy="328.958" r="21.3333"/>
<circle fill="#a64b00" stroke="#a64b00" stroke-width="0" cx="793.645" cy="333.95" r="21.3333"/>
<circle fill="#a64b00" stroke="#a64b00" stroke-width="0" cx="225.222" cy="87.2932" r="21.3333"/>
</svg>
