<?xml version="1.0" encoding="utf-8"?> <!-- Generator: Adobe Illustrator 13.0.0, SVG Export Plug-In . SVG Version: 6.00 Build 14948)  --> <svg version="1.2" baseProfile="tiny" id="Layer_1" xmlns="http://www.w3.org/2000/svg" xmlns:xlink="http://www.w3.org/1999/xlink" x="0px" y="0px" width="512px" height="512px" viewBox="0 0 512 512" xml:space="preserve">
<polygon points="0,0 512,0 512,512 0,512" style="fill:#ffffff; stroke:#000000;stroke-width:0"/>
<polygon points="-68.0458,217.5 -29.9831,198.221 65.4705,386.676 27.4078,405.955" style="fill:#006363; stroke:#000000;stroke-width:0"/>
<circle fill="#006363" stroke="#006363" stroke-width="0" cx="-49.0145" cy="207.86" r="21.3333"/>
<circle fill="#006363" stroke="#006363" stroke-width="0" cx="46.4392" cy="396.315" r="21.3333"/>
<polygon points="425.797,138.311 445.077,100.249 634.14,196.019 614.86,234.081" style="fill:#006363; stroke:#000000;stroke-width:0"/>
<circle fill="#006363" stroke="#006363" stroke-width="0" cx="435.437" cy="119.28" r="21.3333"/>
<circle fill="#006363" stroke="#006363" stroke-width="0" cx="624.5" cy="215.05" r="21.3333"/>
<polygon points="1256,469.333 256,1469.33 -744,469.333" style="fill:#000000; stroke:#000000;stroke-width:0"/>
<polygon points="-744,42.6667 256,-957.333 1256,42.6667" style="fill:#000000; stroke:#000000;stroke-width:0"/>
<circle fill="#a64b00" stroke="#a64b00" stroke-width="0" cx="-49.0145" cy="207.86" r="21.3333"/>
<circle fill="#a64b00" stroke="#a64b00" stroke-width="0" cx="46.4392" cy="396.315" r="21.3333"/>
<circle fill="#a64b00" stroke="#a64b00" stroke-width="0" cx="435.437" cy="119.28" r="21.3333"/>
<circle fill="#a64b00" stroke="#a64b00" stroke-width="0" cx="624.5" cy="215.05" r="21.3333"/>
<circle fill="#a64b00" stroke="#a64b00" stroke-width="0" cx="141.182" cy="196.215" r="21.3333"/>
</svg>
