<?xml version="1.0" encoding="utf-8"?> <!-- Generator: Adobe Illustrator 13.0.0, SVG Export Plug-In . SVG Version: 6.00 Build 14948)  --> <svg version="1.2" baseProfile="tiny" id="Layer_1" xmlns="http://www.w3.org/2000/svg" xmlns:xlink="http://www.w3.org/1999/xlink" x="0px" y="0px" width="512px" height="512px" viewBox="0 0 512 512" xml:space="preserve">
<polygon points="0,0 512,0 512,512 0,512" style="fill:#ffffff; stroke:#000000;stroke-width:0"/>
<polygon points="-398.786,159.075 -406.638,117.137 -198.271,78.1266 -190.419,120.065" style="fill:#006363; stroke:#000000;stroke-width:0"/>
<circle fill="#006363" stroke="#006363" stroke-width="0" cx="-402.712" cy="138.106" r="21.3333"/>
<circle fill="#006363" stroke="#006363" stroke-width="0" cx="-194.345" cy="99.0956" r="21.3333"/>
<polygon points="848.105,232.262 889.936,223.859 931.104,428.788 889.273,437.192" style="fill:#006363; stroke:#000000;stroke-width:0"/>
<circle fill="#006363" stroke="#006363" stroke-width="0" cx="869.02" cy="228.061" r="21.3333"/>
<circle fill="#006363" stroke="#006363" stroke-width="0" cx="910.189" cy="432.99" r="21.3333"/>
<polygon points="1256,469.333 256,1469.33 -744,469.333" style="fill:#000000; stroke:#000000;stroke-width:0"/>
<polygon points="-744,42.6667 256,-957.333 1256,42.6667" style="fill:#000000; stroke:#000000;stroke-width:0"/>
<circle fill="#a64b00" stroke="#a64b00" stroke-width="0" cx="-402.712" cy="138.106" r="21.3333"/>
<circle fill="#a64b00" stroke="#a64b00" stroke-width="0" cx="-194.345" cy="99.0956" r="21.3333"/>
<circle fill="#a64b00" stroke="#a64b00" stroke-width="0" cx="869.02" cy="228.061" r="21.3333"/>
<circle fill="#a64b00" stroke="#a64b00" stroke-width="0" cx="910.189" cy="432.99" r="21.3333"/>
<circle fill="#a64b00" stroke="#a64b00" stroke-width="0" cx="-156.565" cy="239.942" r="21.3333"/>
</svg>
