<?xml version="1.0" encoding="utf-8"?> <!-- Generator: Adobe Illustrator 13.0.0, SVG Export Plug-In . SVG Version: 6.00 Build 14948)  --> <svg version="1.2" baseProfile="tiny" id="Layer_1" xmlns="http://www.w3.org/2000/svg" xmlns:xlink="http://www.w3.org/1999/xlink" x="0px" y="0px" width="512px" height="512px" viewBox="0 0 512 512" xml:space="preserve">
<polygon points="0,0 512,0 512,512 0,512" style="fill:#ffffff; stroke:#000000;stroke-width:0"/>
<polygon points="-415.023,136.482 -414.568,93.818 -198.648,96.1196 -199.103,138.784" style="fill:#006363; stroke:#000000;stroke-width:0"/>
<circle fill="#006363" stroke="#006363" stroke-width="0" cx="-414.796" cy="115.15" r="21.3333"/>
<circle fill="#006363" stroke="#006363" stroke-width="0" cx="-198.876" cy="117.452" r="21.3333"/>
<polygon points="883.823,221.827 926.403,224.548 913.23,430.676 870.65,427.955" style="fill:#006363; stroke:#000000;stroke-width:0"/>
<circle fill="#006363" stroke="#006363" stroke-width="0" cx="905.113" cy="223.188" r="21.3333"/>
<circle fill="#006363" stroke="#006363" stroke-width="0" cx="891.94" cy="429.316" r="21.3333"/>
<polygon points="1256,469.333 256,1469.33 -744,469.333" style="fill:#000000; stroke:#000000;stroke-width:0"/>
<polygon points="-744,42.6667 256,-957.333 1256,42.6667" style="fill:#000000; stroke:#000000;stroke-width:0"/>
<circle fill="#a64b00" stroke="#a64b00" stroke-width="0" cx="-414.796" cy="115.15" r="21.3333"/>
<circle fill="#a64b00" stroke="#a64b00" stroke-width="0" cx="-198.876" cy="117.452" r="21.3333"/>
<circle fill="#a64b00" stroke="#a64b00" stroke-width="0" cx="905.113" cy="223.188" r="21.3333"/>
<circle fill="#a64b00" stroke="#a64b00" stroke-width="0" cx="891.94" cy="429.316" r="21.3333"/>
<circle fill="#a64b00" stroke="#a64b00" stroke-width="0" cx="19.12" cy="166.112" r="21.3333"/>
</svg>
