<?xml version="1.0" encoding="utf-8"?> <!-- Generator: Adobe Illustrator 13.0.0, SVG Export Plug-In . SVG Version: 6.00 Build 14948)  --> <svg version="1.2" baseProfile="tiny" id="Layer_1" xmlns="http://www.w3.org/2000/svg" xmlns:xlink="http://www.w3.org/1999/xlink" x="0px" y="0px" width="512px" height="512px" viewBox="0 0 512 512" xml:space="preserve">
<polygon points="0,0 512,0 512,512 0,512" style="fill:#ffffff; stroke:#000000;stroke-width:0"/>
<polygon points="-69.0289,265.329 -71.9136,307.898 -284.058,293.522 -281.174,250.953" style="fill:#006363; stroke:#000000;stroke-width:0"/>
<circle fill="#006363" stroke="#006363" stroke-width="0" cx="-70.4713" cy="286.614" r="21.3333"/>
<circle fill="#006363" stroke="#006363" stroke-width="0" cx="-282.616" cy="272.238" r="21.3333"/>
<polygon points="735.081,295.892 693.842,284.944 747.785,81.7415 789.023,92.6888" style="fill:#006363; stroke:#000000;stroke-width:0"/>
<circle fill="#006363" stroke="#006363" stroke-width="0" cx="714.461" cy="290.418" r="21.3333"/>
<circle fill="#006363" stroke="#006363" stroke-width="0" cx="768.404" cy="87.2152" r="21.3333"/>
<polygon points="1256,469.333 256,1469.33 -744,469.333" style="fill:#000000; stroke:#000000;stroke-width:0"/>
<polygon points="-744,42.6667 256,-957.333 1256,42.6667" style="fill:#000000; stroke:#000000;stroke-width:0"/>
<circle fill="#a64b00" stroke="#a64b00" stroke-width="0" cx="-70.4713" cy="286.614" r="21.3333"/>
<circle fill="#a64b00" stroke="#a64b00" stroke-width="0" cx="-282.616" cy="272.238" r="21.3333"/>
<circle fill="#a64b00" stroke="#a64b00" stroke-width="0" cx="714.461" cy="290.418" r="21.3333"/>
<circle fill="#a64b00" stroke="#a64b00" stroke-width="0" cx="768.404" cy="87.2152" r="21.3333"/>
<circle fill="#a64b00" stroke="#a64b00" stroke-width="0" cx="120.827" cy="134.996" r="21.3333"/>
</svg>
