<?xml version="1.0" encoding="utf-8"?> <!-- Generator: Adobe Illustrator 13.0.0, SVG Export Plug-In . SVG Version: 6.00 Build 14948)  --> <svg version="1.2" baseProfile="tiny" id="Layer_1" xmlns="http://www.w3.org/2000/svg" xmlns:xlink="http://www.w3.org/1999/xlink" x="0px" y="0px" width="512px" height="512px" viewBox="0 0 512 512" xml:space="preserve">
<polygon points="0,0 512,0 512,512 0,512" style="fill:#ffffff; stroke:#000000;stroke-width:0"/>
<polygon points="-90.1009,70.8717 -91.5392,113.514 -316.502,105.927 -315.064,63.2843" style="fill:#006363; stroke:#000000;stroke-width:0"/>
<circle fill="#006363" stroke="#006363" stroke-width="0" cx="-90.8201" cy="92.1929" r="21.3333"/>
<circle fill="#006363" stroke="#006363" stroke-width="0" cx="-315.783" cy="84.6055" r="21.3333"/>
<polygon points="749.631,353.74 710.953,335.727 798.239,148.302 836.917,166.314" style="fill:#006363; stroke:#000000;stroke-width:0"/>
<circle fill="#006363" stroke="#006363" stroke-width="0" cx="730.292" cy="344.734" r="21.3333"/>
<circle fill="#006363" stroke="#006363" stroke-width="0" cx="817.578" cy="157.308" r="21.3333"/>
<polygon points="1256,469.333 256,1469.33 -744,469.333" style="fill:#000000; stroke:#000000;stroke-width:0"/>
<polygon points="-744,42.6667 256,-957.333 1256,42.6667" style="fill:#000000; stroke:#000000;stroke-width:0"/>
<circle fill="#a64b00" stroke="#a64b00" stroke-width="0" cx="-90.8201" cy="92.1929" r="21.3333"/>
<circle fill="#a64b00" stroke="#a64b00" stroke-width="0" cx="-315.783" cy="84.6055" r="21.3333"/>
<circle fill="#a64b00" stroke="#a64b00" stroke-width="0" cx="730.292" cy="344.734" r="21.3333"/>
<circle fill="#a64b00" stroke="#a64b00" stroke-width="0" cx="817.578" cy="157.308" r="21.3333"/>
<circle fill="#a64b00" stroke="#a64b00" stroke-width="0" cx="59.9795" cy="325.806" r="21.3333"/>
</svg>
