<?xml version="1.0" encoding="utf-8"?> <!-- Generator: Adobe Illustrator 13.0.0, SVG Export Plug-In . SVG Version: 6.00 Build 14948)  --> <svg version="1.2" baseProfile="tiny" id="Layer_1" xmlns="http://www.w3.org/2000/svg" xmlns:xlink="http://www.w3.org/1999/xlink" x="0px" y="0px" width="512px" height="512px" viewBox="0 0 512 512" xml:space="preserve">
<polygon points="0,0 512,0 512,512 0,512" style="fill:#ffffff; stroke:#000000;stroke-width:0"/>
<polygon points="-137.641,104.966 -132.344,62.6291 75.7429,88.663 70.4462,131" style="fill:#006363; stroke:#000000;stroke-width:0"/>
<circle fill="#006363" stroke="#006363" stroke-width="0" cx="-134.992" cy="83.7974" r="21.3333"/>
<circle fill="#006363" stroke="#006363" stroke-width="0" cx="73.0946" cy="109.831" r="21.3333"/>
<polygon points="539.107,306.893 500.466,288.801 590.058,97.4559 628.699,115.548" style="fill:#006363; stroke:#000000;stroke-width:0"/>
<circle fill="#006363" stroke="#006363" stroke-width="0" cx="519.787" cy="297.847" r="21.3333"/>
<circle fill="#006363" stroke="#006363" stroke-width="0" cx="609.379" cy="106.502" r="21.3333"/>
<polygon points="1256,469.333 256,1469.33 -744,469.333" style="fill:#000000; stroke:#000000;stroke-width:0"/>
<polygon points="-744,42.6667 256,-957.333 1256,42.6667" style="fill:#000000; stroke:#000000;stroke-width:0"/>
<circle fill="#a64b00" stroke="#a64b00" stroke-width="0" cx="-134.992" cy="83.7974" r="21.3333"/>
<circle fill="#a64b00" stroke="#a64b00" stroke-width="0" cx="73.0946" cy="109.831" r="21.3333"/>
<circle fill="#a64b00" stroke="#a64b00" stroke-width="0" cx="519.787" cy="297.847" r="21.3333"/>
<circle fill="#a64b00" stroke="#a64b00" stroke-width="0" cx="609.379" cy="106.502" r="21.3333"/>
<circle fill="#a64b00" stroke="#a64b00" stroke-width="0" cx="451.908" cy="316.266" r="21.3333"/>
</svg>
