<?xml version="1.0" encoding="utf-8"?> <!-- Generator: Adobe Illustrator 13.0.0, SVG Export Plug-In . SVG Version: 6.00 Build 14948)  --> <svg version="1.2" baseProfile="tiny" id="Layer_1" xmlns="http://www.w3.org/2000/svg" xmlns:xlink="http://www.w3.org/1999/xlink" x="0px" y="0px" width="512px" height="512px" viewBox="0 0 512 512" xml:space="preserve">
<polygon points="0,0 512,0 512,512 0,512" style="fill:#ffffff; stroke:#000000;stroke-width:0"/>
<polygon points="-135.008,171.803 -104.352,142.127 41.1054,292.384 10.4499,322.061" style="fill:#006363; stroke:#000000;stroke-width:0"/>
<circle fill="#006363" stroke="#006363" stroke-width="0" cx="-119.68" cy="156.965" r="21.3333"/>
<circle fill="#006363" stroke="#006363" stroke-width="0" cx="25.7776" cy="307.223" r="21.3333"/>
<polygon points="643.428,312.68 603.888,328.71 524.612,133.175 564.153,117.144" style="fill:#006363; stroke:#000000;stroke-width:0"/>
<circle fill="#006363" stroke="#006363" stroke-width="0" cx="623.658" cy="320.695" r="21.3333"/>
<circle fill="#006363" stroke="#006363" stroke-width="0" cx="544.382" cy="125.16" r="21.3333"/>
<polygon points="1256,469.333 256,1469.33 -744,469.333" style="fill:#000000; stroke:#000000;stroke-width:0"/>
<polygon points="-744,42.6667 256,-957.333 1256,42.6667" style="fill:#000000; stroke:#000000;stroke-width:0"/>
<circle fill="#a64b00" stroke="#a64b00" stroke-width="0" cx="-119.68" cy="156.965" r="21.3333"/>
<circle fill="#a64b00" stroke="#a64b00" stroke-width="0" cx="25.7776" cy="307.223" r="21.3333"/>
<circle fill="#a64b00" stroke="#a64b00" stroke-width="0" cx="623.658" cy="320.695" r="21.3333"/>
<circle fill="#a64b00" stroke="#a64b00" stroke-width="0" cx="544.382" cy="125.16" r="21.3333"/>
<circle fill="#a64b00" stroke="#a64b00" stroke-width="0" cx="415.519" cy="115.915" r="21.3333"/>
</svg>
