<?xml version="1.0" encoding="utf-8"?> <!-- Generator: Adobe Illustrator 13.0.0, SVG Export Plug-In . SVG Version: 6.00 Build 14948)  --> <svg version="1.2" baseProfile="tiny" id="Layer_1" xmlns="http://www.w3.org/2000/svg" xmlns:xlink="http://www.w3.org/1999/xlink" x="0px" y="0px" width="512px" height="512px" viewBox="0 0 512 512" xml:space="preserve">
<polygon points="0,0 512,0 512,512 0,512" style="fill:#ffffff; stroke:#000000;stroke-width:0"/>
<polygon points="-142.477,246.197 -130.647,287.191 -346.499,349.479 -358.328,308.485" style="fill:#006363; stroke:#000000;stroke-width:0"/>
<circle fill="#006363" stroke="#006363" stroke-width="0" cx="-136.562" cy="266.694" r="21.3333"/>
<circle fill="#006363" stroke="#006363" stroke-width="0" cx="-352.414" cy="328.982" r="21.3333"/>
<polygon points="745.818,434.42 723.66,397.958 902.108,289.516 924.266,325.978" style="fill:#006363; stroke:#000000;stroke-width:0"/>
<circle fill="#006363" stroke="#006363" stroke-width="0" cx="734.739" cy="416.189" r="21.3333"/>
<circle fill="#006363" stroke="#006363" stroke-width="0" cx="913.187" cy="307.747" r="21.3333"/>
<polygon points="1256,469.333 256,1469.33 -744,469.333" style="fill:#000000; stroke:#000000;stroke-width:0"/>
<polygon points="-744,42.6667 256,-957.333 1256,42.6667" style="fill:#000000; stroke:#000000;stroke-width:0"/>
<circle fill="#a64b00" stroke="#a64b00" stroke-width="0" cx="-136.562" cy="266.694" r="21.3333"/>
<circle fill="#a64b00" stroke="#a64b00" stroke-width="0" cx="-352.414" cy="328.982" r="21.3333"/>
<circle fill="#a64b00" stroke="#a64b00" stroke-width="0" cx="734.739" cy="416.189" r="21.3333"/>
<circle fill="#a64b00" stroke="#a64b00" stroke-width="0" cx="913.187" cy="307.747" r="21.3333"/>
<circle fill="#a64b00" stroke="#a64b00" stroke-width="0" cx="-33.6776" cy="259.023" r="21.3333"/>
</svg>
