<?xml version="1.0" encoding="utf-8"?> <!-- Generator: Adobe Illustrator 13.0.0, SVG Export Plug-In . SVG Version: 6.00 Build 14948)  --> <svg version="1.2" baseProfile="tiny" id="Layer_1" xmlns="http://www.w3.org/2000/svg" xmlns:xlink="http://www.w3.org/1999/xlink" x="0px" y="0px" width="512px" height="512px" viewBox="0 0 512 512" xml:space="preserve">
<polygon points="0,0 512,0 512,512 0,512" style="fill:#ffffff; stroke:#000000;stroke-width:0"/>
<polygon points="-139.936,153.727 -114.578,119.414 53.9041,243.929 28.5454,278.242" style="fill:#006363; stroke:#000000;stroke-width:0"/>
<circle fill="#006363" stroke="#006363" stroke-width="0" cx="-127.257" cy="136.571" r="21.3333"/>
<circle fill="#006363" stroke="#006363" stroke-width="0" cx="41.2248" cy="261.086" r="21.3333"/>
<polygon points="619.54,317.999 577.59,325.789 538.941,117.649 580.891,109.859" style="fill:#006363; stroke:#000000;stroke-width:0"/>
<circle fill="#006363" stroke="#006363" stroke-width="0" cx="598.565" cy="321.894" r="21.3333"/>
<circle fill="#006363" stroke="#006363" stroke-width="0" cx="559.916" cy="113.754" r="21.3333"/>
<polygon points="1256,469.333 256,1469.33 -744,469.333" style="fill:#000000; stroke:#000000;stroke-width:0"/>
<polygon points="-744,42.6667 256,-957.333 1256,42.6667" style="fill:#000000; stroke:#000000;stroke-width:0"/>
<circle fill="#a64b00" stroke="#a64b00" stroke-width="0" cx="-127.257" cy="136.571" r="21.3333"/>
<circle fill="#a64b00" stroke="#a64b00" stroke-width="0" cx="41.2248" cy="261.086" r="21.3333"/>
<circle fill="#a64b00" stroke="#a64b00" stroke-width="0" cx="598.565" cy="321.894" r="21.3333"/>
<circle fill="#a64b00" stroke="#a64b00" stroke-width="0" cx="559.916" cy="113.754" r="21.3333"/>
<circle fill="#a64b00" stroke="#a64b00" stroke-width="0" cx="424.467" cy="144.536" r="21.3333"/>
</svg>
