<?xml version="1.0" encoding="utf-8"?> <!-- Generator: Adobe Illustrator 13.0.0, SVG Export Plug-In . SVG Version: 6.00 Build 14948)  --> <svg version="1.2" baseProfile="tiny" id="Layer_1" xmlns="http://www.w3.org/2000/svg" xmlns:xlink="http://www.w3.org/1999/xlink" x="0px" y="0px" width="512px" height="512px" viewBox="0 0 512 512" xml:space="preserve">
<polygon points="0,0 512,0 512,512 0,512" style="fill:#ffffff; stroke:#000000;stroke-width:0"/>
<polygon points="-247.045,342.846 -289.315,348.651 -318.007,139.727 -275.737,133.922" style="fill:#006363; stroke:#000000;stroke-width:0"/>
<circle fill="#006363" stroke="#006363" stroke-width="0" cx="-268.18" cy="345.749" r="21.3333"/>
<circle fill="#006363" stroke="#006363" stroke-width="0" cx="-296.872" cy="136.824" r="21.3333"/>
<polygon points="782.031,279.115 812.755,249.509 958.303,400.558 927.579,430.163" style="fill:#006363; stroke:#000000;stroke-width:0"/>
<circle fill="#006363" stroke="#006363" stroke-width="0" cx="797.393" cy="264.312" r="21.3333"/>
<circle fill="#006363" stroke="#006363" stroke-width="0" cx="942.941" cy="415.36" r="21.3333"/>
<polygon points="1256,469.333 256,1469.33 -744,469.333" style="fill:#000000; stroke:#000000;stroke-width:0"/>
<polygon points="-744,42.6667 256,-957.333 1256,42.6667" style="fill:#000000; stroke:#000000;stroke-width:0"/>
<circle fill="#a64b00" stroke="#a64b00" stroke-width="0" cx="-268.18" cy="345.749" r="21.3333"/>
<circle fill="#a64b00" stroke="#a64b00" stroke-width="0" cx="-296.872" cy="136.824" r="21.3333"/>
<circle fill="#a64b00" stroke="#a64b00" stroke-width="0" cx="797.393" cy="264.312" r="21.3333"/>
<circle fill="#a64b00" stroke="#a64b00" stroke-width="0" cx="942.941" cy="415.36" r="21.3333"/>
<circle fill="#a64b00" stroke="#a64b00" stroke-width="0" cx="-120.176" cy="77.7526" r="21.3333"/>
</svg>
