<?xml version="1.0" encoding="utf-8"?> <!-- Generator: Adobe Illustrator 13.0.0, SVG Export Plug-In . SVG Version: 6.00 Build 14948)  --> <svg version="1.2" baseProfile="tiny" id="Layer_1" xmlns="http://www.w3.org/2000/svg" xmlns:xlink="http://www.w3.org/1999/xlink" x="0px" y="0px" width="512px" height="512px" viewBox="0 0 512 512" xml:space="preserve">
<polygon points="0,0 512,0 512,512 0,512" style="fill:#ffffff; stroke:#000000;stroke-width:0"/>
<polygon points="-347.195,263.776 -378.79,235.102 -236.22,78.0098 -204.625,106.684" style="fill:#006363; stroke:#000000;stroke-width:0"/>
<circle fill="#006363" stroke="#006363" stroke-width="0" cx="-362.993" cy="249.439" r="21.3333"/>
<circle fill="#006363" stroke="#006363" stroke-width="0" cx="-220.423" cy="92.3469" r="21.3333"/>
<polygon points="817.524,249.206 856.117,231.011 945.115,419.782 906.523,437.977" style="fill:#006363; stroke:#000000;stroke-width:0"/>
<circle fill="#006363" stroke="#006363" stroke-width="0" cx="836.82" cy="240.108" r="21.3333"/>
<circle fill="#006363" stroke="#006363" stroke-width="0" cx="925.819" cy="428.88" r="21.3333"/>
<polygon points="1256,469.333 256,1469.33 -744,469.333" style="fill:#000000; stroke:#000000;stroke-width:0"/>
<polygon points="-744,42.6667 256,-957.333 1256,42.6667" style="fill:#000000; stroke:#000000;stroke-width:0"/>
<circle fill="#a64b00" stroke="#a64b00" stroke-width="0" cx="-362.993" cy="249.439" r="21.3333"/>
<circle fill="#a64b00" stroke="#a64b00" stroke-width="0" cx="-220.423" cy="92.3469" r="21.3333"/>
<circle fill="#a64b00" stroke="#a64b00" stroke-width="0" cx="836.82" cy="240.108" r="21.3333"/>
<circle fill="#a64b00" stroke="#a64b00" stroke-width="0" cx="925.819" cy="428.88" r="21.3333"/>
<circle fill="#a64b00" stroke="#a64b00" stroke-width="0" cx="-141.055" cy="411.671" r="21.3333"/>
</svg>
