<?xml version="1.0" encoding="utf-8"?> <!-- Generator: Adobe Illustrator 13.0.0, SVG Export Plug-In . SVG Version: 6.00 Build 14948)  --> <svg version="1.2" baseProfile="tiny" id="Layer_1" xmlns="http://www.w3.org/2000/svg" xmlns:xlink="http://www.w3.org/1999/xlink" x="0px" y="0px" width="512px" height="512px" viewBox="0 0 512 512" xml:space="preserve">
<polygon points="0,0 512,0 512,512 0,512" style="fill:#ffffff; stroke:#000000;stroke-width:0"/>
<polygon points="-24.4879,176.492 17.4528,168.654 55.624,372.913 13.6834,380.751" style="fill:#006363; stroke:#000000;stroke-width:0"/>
<circle fill="#006363" stroke="#006363" stroke-width="0" cx="-3.51755" cy="172.573" r="21.3333"/>
<circle fill="#006363" stroke="#006363" stroke-width="0" cx="34.6537" cy="376.832" r="21.3333"/>
<polygon points="448.64,128.779 488.368,113.218 566.601,312.964 526.873,328.524" style="fill:#006363; stroke:#000000;stroke-width:0"/>
<circle fill="#006363" stroke="#006363" stroke-width="0" cx="468.504" cy="120.999" r="21.3333"/>
<circle fill="#006363" stroke="#006363" stroke-width="0" cx="546.737" cy="320.744" r="21.3333"/>
<polygon points="1256,469.333 256,1469.33 -744,469.333" style="fill:#000000; stroke:#000000;stroke-width:0"/>
<polygon points="-744,42.6667 256,-957.333 1256,42.6667" style="fill:#000000; stroke:#000000;stroke-width:0"/>
<circle fill="#a64b00" stroke="#a64b00" stroke-width="0" cx="-3.51755" cy="172.573" r="21.3333"/>
<circle fill="#a64b00" stroke="#a64b00" stroke-width="0" cx="34.6537" cy="376.832" r="21.3333"/>
<circle fill="#a64b00" stroke="#a64b00" stroke-width="0" cx="468.504" cy="120.999" r="21.3333"/>
<circle fill="#a64b00" stroke="#a64b00" stroke-width="0" cx="546.737" cy="320.744" r="21.3333"/>
<circle fill="#a64b00" stroke="#a64b00" stroke-width="0" cx="343.584" cy="56.5261" r="21.3333"/>
</svg>
