<?xml version="1.0" encoding="utf-8"?> <!-- Generator: Adobe Illustrator 13.0.0, SVG Export Plug-In . SVG Version: 6.00 Build 14948)  --> <svg version="1.2" baseProfile="tiny" id="Layer_1" xmlns="http://www.w3.org/2000/svg" xmlns:xlink="http://www.w3.org/1999/xlink" x="0px" y="0px" width="512px" height="512px" viewBox="0 0 512 512" xml:space="preserve">
<polygon points="0,0 512,0 512,512 0,512" style="fill:#ffffff; stroke:#000000;stroke-width:0"/>
<polygon points="-139.008,163.533 -110,132.245 47.7294,278.477 18.7214,309.766" style="fill:#006363; stroke:#000000;stroke-width:0"/>
<circle fill="#006363" stroke="#006363" stroke-width="0" cx="-124.504" cy="147.889" r="21.3333"/>
<circle fill="#006363" stroke="#006363" stroke-width="0" cx="33.2254" cy="294.121" r="21.3333"/>
<polygon points="636.294,316.448 595.774,329.812 528.56,126.004 569.08,112.641" style="fill:#006363; stroke:#000000;stroke-width:0"/>
<circle fill="#006363" stroke="#006363" stroke-width="0" cx="616.034" cy="323.13" r="21.3333"/>
<circle fill="#006363" stroke="#006363" stroke-width="0" cx="548.82" cy="119.322" r="21.3333"/>
<polygon points="1256,469.333 256,1469.33 -744,469.333" style="fill:#000000; stroke:#000000;stroke-width:0"/>
<polygon points="-744,42.6667 256,-957.333 1256,42.6667" style="fill:#000000; stroke:#000000;stroke-width:0"/>
<circle fill="#a64b00" stroke="#a64b00" stroke-width="0" cx="-124.504" cy="147.889" r="21.3333"/>
<circle fill="#a64b00" stroke="#a64b00" stroke-width="0" cx="33.2254" cy="294.121" r="21.3333"/>
<circle fill="#a64b00" stroke="#a64b00" stroke-width="0" cx="616.034" cy="323.13" r="21.3333"/>
<circle fill="#a64b00" stroke="#a64b00" stroke-width="0" cx="548.82" cy="119.322" r="21.3333"/>
<circle fill="#a64b00" stroke="#a64b00" stroke-width="0" cx="418.501" cy="68.2121" r="21.3333"/>
</svg>
