<?xml version="1.0" encoding="utf-8"?> <!-- Generator: Adobe Illustrator 13.0.0, SVG Export Plug-In . SVG Version: 6.00 Build 14948)  --> <svg version="1.2" baseProfile="tiny" id="Layer_1" xmlns="http://www.w3.org/2000/svg" xmlns:xlink="http://www.w3.org/1999/xlink" x="0px" y="0px" width="512px" height="512px" viewBox="0 0 512 512" xml:space="preserve">
<polygon points="0,0 512,0 512,512 0,512" style="fill:#ffffff; stroke:#000000;stroke-width:0"/>
<polygon points="-37.0519,218.498 4.42774,208.504 53.339,411.505 11.8593,421.499" style="fill:#006363; stroke:#000000;stroke-width:0"/>
<circle fill="#006363" stroke="#006363" stroke-width="0" cx="-16.3121" cy="213.501" r="21.3333"/>
<circle fill="#006363" stroke="#006363" stroke-width="0" cx="32.5992" cy="416.502" r="21.3333"/>
<polygon points="446.26,79.2339 483.282,58.0251 588.668,241.987 551.646,263.196" style="fill:#006363; stroke:#000000;stroke-width:0"/>
<circle fill="#006363" stroke="#006363" stroke-width="0" cx="464.771" cy="68.6295" r="21.3333"/>
<circle fill="#006363" stroke="#006363" stroke-width="0" cx="570.157" cy="252.592" r="21.3333"/>
<polygon points="1256,469.333 256,1469.33 -744,469.333" style="fill:#000000; stroke:#000000;stroke-width:0"/>
<polygon points="-744,42.6667 256,-957.333 1256,42.6667" style="fill:#000000; stroke:#000000;stroke-width:0"/>
<circle fill="#a64b00" stroke="#a64b00" stroke-width="0" cx="-16.3121" cy="213.501" r="21.3333"/>
<circle fill="#a64b00" stroke="#a64b00" stroke-width="0" cx="32.5992" cy="416.502" r="21.3333"/>
<circle fill="#a64b00" stroke="#a64b00" stroke-width="0" cx="464.771" cy="68.6295" r="21.3333"/>
<circle fill="#a64b00" stroke="#a64b00" stroke-width="0" cx="570.157" cy="252.592" r="21.3333"/>
<circle fill="#a64b00" stroke="#a64b00" stroke-width="0" cx="254.431" cy="343.664" r="21.3333"/>
</svg>
