<?xml version="1.0" encoding="utf-8"?> <!-- Generator: Adobe Illustrator 13.0.0, SVG Export Plug-In . SVG Version: 6.00 Build 14948)  --> <svg version="1.2" baseProfile="tiny" id="Layer_1" xmlns="http://www.w3.org/2000/svg" xmlns:xlink="http://www.w3.org/1999/xlink" x="0px" y="0px" width="512px" height="512px" viewBox="0 0 512 512" xml:space="preserve">
<polygon points="0,0 512,0 512,512 0,512" style="fill:#ffffff; stroke:#000000;stroke-width:0"/>
<polygon points="-65.6538,337.87 -74.3048,379.651 -275.366,338.019 -266.715,296.239" style="fill:#006363; stroke:#000000;stroke-width:0"/>
<circle fill="#006363" stroke="#006363" stroke-width="0" cx="-69.9793" cy="358.76" r="21.3333"/>
<circle fill="#006363" stroke="#006363" stroke-width="0" cx="-271.041" cy="317.129" r="21.3333"/>
<polygon points="719.209,336.942 678.859,323.075 748.998,118.981 789.349,132.848" style="fill:#006363; stroke:#000000;stroke-width:0"/>
<circle fill="#006363" stroke="#006363" stroke-width="0" cx="699.034" cy="330.009" r="21.3333"/>
<circle fill="#006363" stroke="#006363" stroke-width="0" cx="769.174" cy="125.914" r="21.3333"/>
<polygon points="1256,469.333 256,1469.33 -744,469.333" style="fill:#000000; stroke:#000000;stroke-width:0"/>
<polygon points="-744,42.6667 256,-957.333 1256,42.6667" style="fill:#000000; stroke:#000000;stroke-width:0"/>
<circle fill="#a64b00" stroke="#a64b00" stroke-width="0" cx="-69.9793" cy="358.76" r="21.3333"/>
<circle fill="#a64b00" stroke="#a64b00" stroke-width="0" cx="-271.041" cy="317.129" r="21.3333"/>
<circle fill="#a64b00" stroke="#a64b00" stroke-width="0" cx="699.034" cy="330.009" r="21.3333"/>
<circle fill="#a64b00" stroke="#a64b00" stroke-width="0" cx="769.174" cy="125.914" r="21.3333"/>
<circle fill="#a64b00" stroke="#a64b00" stroke-width="0" cx="134.547" cy="201.779" r="21.3333"/>
</svg>
