<?xml version="1.0" encoding="utf-8"?> <!-- Generator: Adobe Illustrator 13.0.0, SVG Export Plug-In . SVG Version: 6.00 Build 14948)  --> <svg version="1.2" baseProfile="tiny" id="Layer_1" xmlns="http://www.w3.org/2000/svg" xmlns:xlink="http://www.w3.org/1999/xlink" x="0px" y="0px" width="512px" height="512px" viewBox="0 0 512 512" xml:space="preserve">
<polygon points="0,0 512,0 512,512 0,512" style="fill:#ffffff; stroke:#000000;stroke-width:0"/>
<polygon points="-162.11,274.168 -147.359,314.204 -337.884,384.398 -352.634,344.362" style="fill:#006363; stroke:#000000;stroke-width:0"/>
<circle fill="#006363" stroke="#006363" stroke-width="0" cx="-154.734" cy="294.186" r="21.3333"/>
<circle fill="#006363" stroke="#006363" stroke-width="0" cx="-345.259" cy="364.38" r="21.3333"/>
<polygon points="734.566,416.707 719.881,376.647 926.743,300.818 941.428,340.878" style="fill:#006363; stroke:#000000;stroke-width:0"/>
<circle fill="#006363" stroke="#006363" stroke-width="0" cx="727.224" cy="396.677" r="21.3333"/>
<circle fill="#006363" stroke="#006363" stroke-width="0" cx="934.085" cy="320.848" r="21.3333"/>
<polygon points="1256,469.333 256,1469.33 -744,469.333" style="fill:#000000; stroke:#000000;stroke-width:0"/>
<polygon points="-744,42.6667 256,-957.333 1256,42.6667" style="fill:#000000; stroke:#000000;stroke-width:0"/>
<circle fill="#a64b00" stroke="#a64b00" stroke-width="0" cx="-154.734" cy="294.186" r="21.3333"/>
<circle fill="#a64b00" stroke="#a64b00" stroke-width="0" cx="-345.259" cy="364.38" r="21.3333"/>
<circle fill="#a64b00" stroke="#a64b00" stroke-width="0" cx="727.224" cy="396.677" r="21.3333"/>
<circle fill="#a64b00" stroke="#a64b00" stroke-width="0" cx="934.085" cy="320.848" r="21.3333"/>
<circle fill="#a64b00" stroke="#a64b00" stroke-width="0" cx="-46.2049" cy="440.293" r="21.3333"/>
</svg>
