<?xml version="1.0" encoding="utf-8"?> <!-- Generator: Adobe Illustrator 13.0.0, SVG Export Plug-In . SVG Version: 6.00 Build 14948)  --> <svg version="1.2" baseProfile="tiny" id="Layer_1" xmlns="http://www.w3.org/2000/svg" xmlns:xlink="http://www.w3.org/1999/xlink" x="0px" y="0px" width="512px" height="512px" viewBox="0 0 512 512" xml:space="preserve">
<polygon points="0,0 512,0 512,512 0,512" style="fill:#ffffff; stroke:#000000;stroke-width:0"/>
<polygon points="-176.207,314.285 -156.894,352.33 -341.625,446.104 -360.938,408.059" style="fill:#006363; stroke:#000000;stroke-width:0"/>
<circle fill="#006363" stroke="#006363" stroke-width="0" cx="-166.551" cy="333.307" r="21.3333"/>
<circle fill="#006363" stroke="#006363" stroke-width="0" cx="-351.282" cy="427.082" r="21.3333"/>
<polygon points="731.876,378.647 730.426,336.005 951.101,328.499 952.551,371.141" style="fill:#006363; stroke:#000000;stroke-width:0"/>
<circle fill="#006363" stroke="#006363" stroke-width="0" cx="731.151" cy="357.326" r="21.3333"/>
<circle fill="#006363" stroke="#006363" stroke-width="0" cx="951.826" cy="349.82" r="21.3333"/>
<polygon points="1256,469.333 256,1469.33 -744,469.333" style="fill:#000000; stroke:#000000;stroke-width:0"/>
<polygon points="-744,42.6667 256,-957.333 1256,42.6667" style="fill:#000000; stroke:#000000;stroke-width:0"/>
<circle fill="#a64b00" stroke="#a64b00" stroke-width="0" cx="-166.551" cy="333.307" r="21.3333"/>
<circle fill="#a64b00" stroke="#a64b00" stroke-width="0" cx="-351.282" cy="427.082" r="21.3333"/>
<circle fill="#a64b00" stroke="#a64b00" stroke-width="0" cx="731.151" cy="357.326" r="21.3333"/>
<circle fill="#a64b00" stroke="#a64b00" stroke-width="0" cx="951.826" cy="349.82" r="21.3333"/>
<circle fill="#a64b00" stroke="#a64b00" stroke-width="0" cx="-66.4874" cy="115.915" r="21.3333"/>
</svg>
