<?xml version="1.0" encoding="utf-8"?> <!-- Generator: Adobe Illustrator 13.0.0, SVG Export Plug-In . SVG Version: 6.00 Build 14948)  --> <svg version="1.2" baseProfile="tiny" id="Layer_1" xmlns="http://www.w3.org/2000/svg" xmlns:xlink="http://www.w3.org/1999/xlink" x="0px" y="0px" width="512px" height="512px" viewBox="0 0 512 512" xml:space="preserve">
<polygon points="0,0 512,0 512,512 0,512" style="fill:#ffffff; stroke:#000000;stroke-width:0"/>
<polygon points="-373.587,338.229 -406.194,310.712 -267.512,146.371 -234.904,173.888" style="fill:#006363; stroke:#000000;stroke-width:0"/>
<circle fill="#006363" stroke="#006363" stroke-width="0" cx="-389.89" cy="324.471" r="21.3333"/>
<circle fill="#006363" stroke="#006363" stroke-width="0" cx="-251.208" cy="160.13" r="21.3333"/>
<polygon points="939.253,218.092 977.402,237.198 885.204,421.285 847.055,402.178" style="fill:#006363; stroke:#000000;stroke-width:0"/>
<circle fill="#006363" stroke="#006363" stroke-width="0" cx="958.328" cy="227.645" r="21.3333"/>
<circle fill="#006363" stroke="#006363" stroke-width="0" cx="866.13" cy="411.732" r="21.3333"/>
<polygon points="1256,469.333 256,1469.33 -744,469.333" style="fill:#000000; stroke:#000000;stroke-width:0"/>
<polygon points="-744,42.6667 256,-957.333 1256,42.6667" style="fill:#000000; stroke:#000000;stroke-width:0"/>
<circle fill="#a64b00" stroke="#a64b00" stroke-width="0" cx="-389.89" cy="324.471" r="21.3333"/>
<circle fill="#a64b00" stroke="#a64b00" stroke-width="0" cx="-251.208" cy="160.13" r="21.3333"/>
<circle fill="#a64b00" stroke="#a64b00" stroke-width="0" cx="958.328" cy="227.645" r="21.3333"/>
<circle fill="#a64b00" stroke="#a64b00" stroke-width="0" cx="866.13" cy="411.732" r="21.3333"/>
<circle fill="#a64b00" stroke="#a64b00" stroke-width="0" cx="480.098" cy="244.818" r="21.3333"/>
</svg>
