<?xml version="1.0" encoding="utf-8"?> <!-- Generator: Adobe Illustrator 13.0.0, SVG Export Plug-In . SVG Version: 6.00 Build 14948)  --> <svg version="1.2" baseProfile="tiny" id="Layer_1" xmlns="http://www.w3.org/2000/svg" xmlns:xlink="http://www.w3.org/1999/xlink" x="0px" y="0px" width="512px" height="512px" viewBox="0 0 512 512" xml:space="preserve">
<polygon points="0,0 512,0 512,512 0,512" style="fill:#ffffff; stroke:#000000;stroke-width:0"/>
<polygon points="-196.878,329.269 -177.385,291.316 4.86334,384.919 -14.6296,422.872" style="fill:#006363; stroke:#000000;stroke-width:0"/>
<circle fill="#006363" stroke="#006363" stroke-width="0" cx="-187.132" cy="310.292" r="21.3333"/>
<circle fill="#006363" stroke="#006363" stroke-width="0" cx="-4.88313" cy="403.895" r="21.3333"/>
<polygon points="647.765,176.496 689.281,186.336 639.45,396.596 597.934,386.757" style="fill:#006363; stroke:#000000;stroke-width:0"/>
<circle fill="#006363" stroke="#006363" stroke-width="0" cx="668.523" cy="181.416" r="21.3333"/>
<circle fill="#006363" stroke="#006363" stroke-width="0" cx="618.692" cy="391.677" r="21.3333"/>
<polygon points="1256,469.333 256,1469.33 -744,469.333" style="fill:#000000; stroke:#000000;stroke-width:0"/>
<polygon points="-744,42.6667 256,-957.333 1256,42.6667" style="fill:#000000; stroke:#000000;stroke-width:0"/>
<circle fill="#a64b00" stroke="#a64b00" stroke-width="0" cx="-187.132" cy="310.292" r="21.3333"/>
<circle fill="#a64b00" stroke="#a64b00" stroke-width="0" cx="-4.88313" cy="403.895" r="21.3333"/>
<circle fill="#a64b00" stroke="#a64b00" stroke-width="0" cx="668.523" cy="181.416" r="21.3333"/>
<circle fill="#a64b00" stroke="#a64b00" stroke-width="0" cx="618.692" cy="391.677" r="21.3333"/>
<circle fill="#a64b00" stroke="#a64b00" stroke-width="0" cx="303.965" cy="335.347" r="21.3333"/>
</svg>
