<?xml version="1.0" encoding="utf-8"?> <!-- Generator: Adobe Illustrator 13.0.0, SVG Export Plug-In . SVG Version: 6.00 Build 14948)  --> <svg version="1.2" baseProfile="tiny" id="Layer_1" xmlns="http://www.w3.org/2000/svg" xmlns:xlink="http://www.w3.org/1999/xlink" x="0px" y="0px" width="512px" height="512px" viewBox="0 0 512 512" xml:space="preserve">
<polygon points="0,0 512,0 512,512 0,512" style="fill:#ffffff; stroke:#000000;stroke-width:0"/>
<polygon points="-123.453,170.966 -121.317,213.579 -330.37,224.059 -332.507,181.446" style="fill:#006363; stroke:#000000;stroke-width:0"/>
<circle fill="#006363" stroke="#006363" stroke-width="0" cx="-122.385" cy="192.273" r="21.3333"/>
<circle fill="#006363" stroke="#006363" stroke-width="0" cx="-331.438" cy="202.753" r="21.3333"/>
<polygon points="753.543,433.549 719.562,407.747 851.684,233.748 885.665,259.551" style="fill:#006363; stroke:#000000;stroke-width:0"/>
<circle fill="#006363" stroke="#006363" stroke-width="0" cx="736.553" cy="420.648" r="21.3333"/>
<circle fill="#006363" stroke="#006363" stroke-width="0" cx="868.674" cy="246.649" r="21.3333"/>
<polygon points="1256,469.333 256,1469.33 -744,469.333" style="fill:#000000; stroke:#000000;stroke-width:0"/>
<polygon points="-744,42.6667 256,-957.333 1256,42.6667" style="fill:#000000; stroke:#000000;stroke-width:0"/>
<circle fill="#a64b00" stroke="#a64b00" stroke-width="0" cx="-122.385" cy="192.273" r="21.3333"/>
<circle fill="#a64b00" stroke="#a64b00" stroke-width="0" cx="-331.438" cy="202.753" r="21.3333"/>
<circle fill="#a64b00" stroke="#a64b00" stroke-width="0" cx="736.553" cy="420.648" r="21.3333"/>
<circle fill="#a64b00" stroke="#a64b00" stroke-width="0" cx="868.674" cy="246.649" r="21.3333"/>
<circle fill="#a64b00" stroke="#a64b00" stroke-width="0" cx="6.29075" cy="402.13" r="21.3333"/>
</svg>
