<?xml version="1.0" encoding="utf-8"?> <!-- Generator: Adobe Illustrator 13.0.0, SVG Export Plug-In . SVG Version: 6.00 Build 14948)  --> <svg version="1.2" baseProfile="tiny" id="Layer_1" xmlns="http://www.w3.org/2000/svg" xmlns:xlink="http://www.w3.org/1999/xlink" x="0px" y="0px" width="512px" height="512px" viewBox="0 0 512 512" xml:space="preserve">
<polygon points="0,0 512,0 512,512 0,512" style="fill:#ffffff; stroke:#000000;stroke-width:0"/>
<polygon points="-164.186,286.06 -147.905,325.498 -341.579,405.449 -357.86,366.011" style="fill:#006363; stroke:#000000;stroke-width:0"/>
<circle fill="#006363" stroke="#006363" stroke-width="0" cx="-156.046" cy="305.779" r="21.3333"/>
<circle fill="#006363" stroke="#006363" stroke-width="0" cx="-349.719" cy="385.73" r="21.3333"/>
<polygon points="737.759,403.639 727.232,362.291 930.561,310.529 941.087,351.876" style="fill:#006363; stroke:#000000;stroke-width:0"/>
<circle fill="#006363" stroke="#006363" stroke-width="0" cx="732.495" cy="382.965" r="21.3333"/>
<circle fill="#006363" stroke="#006363" stroke-width="0" cx="935.824" cy="331.202" r="21.3333"/>
<polygon points="1256,469.333 256,1469.33 -744,469.333" style="fill:#000000; stroke:#000000;stroke-width:0"/>
<polygon points="-744,42.6667 256,-957.333 1256,42.6667" style="fill:#000000; stroke:#000000;stroke-width:0"/>
<circle fill="#a64b00" stroke="#a64b00" stroke-width="0" cx="-156.046" cy="305.779" r="21.3333"/>
<circle fill="#a64b00" stroke="#a64b00" stroke-width="0" cx="-349.719" cy="385.73" r="21.3333"/>
<circle fill="#a64b00" stroke="#a64b00" stroke-width="0" cx="732.495" cy="382.965" r="21.3333"/>
<circle fill="#a64b00" stroke="#a64b00" stroke-width="0" cx="935.824" cy="331.202" r="21.3333"/>
<circle fill="#a64b00" stroke="#a64b00" stroke-width="0" cx="-52.7669" cy="335.347" r="21.3333"/>
</svg>
