<?xml version="1.0" encoding="utf-8"?> <!-- Generator: Adobe Illustrator 13.0.0, SVG Export Plug-In . SVG Version: 6.00 Build 14948)  --> <svg version="1.2" baseProfile="tiny" id="Layer_1" xmlns="http://www.w3.org/2000/svg" xmlns:xlink="http://www.w3.org/1999/xlink" x="0px" y="0px" width="512px" height="512px" viewBox="0 0 512 512" xml:space="preserve">
<polygon points="0,0 512,0 512,512 0,512" style="fill:#ffffff; stroke:#000000;stroke-width:0"/>
<polygon points="-79.2172,198.476 -76.671,241.067 -284.888,253.515 -287.434,210.924" style="fill:#006363; stroke:#000000;stroke-width:0"/>
<circle fill="#006363" stroke="#006363" stroke-width="0" cx="-77.9441" cy="219.771" r="21.3333"/>
<circle fill="#006363" stroke="#006363" stroke-width="0" cx="-286.161" cy="232.219" r="21.3333"/>
<polygon points="742.955,285.976 701.547,275.691 753.294,67.3364 794.702,77.6206" style="fill:#006363; stroke:#000000;stroke-width:0"/>
<circle fill="#006363" stroke="#006363" stroke-width="0" cx="722.251" cy="280.833" r="21.3333"/>
<circle fill="#006363" stroke="#006363" stroke-width="0" cx="773.998" cy="72.4785" r="21.3333"/>
<polygon points="1256,469.333 256,1469.33 -744,469.333" style="fill:#000000; stroke:#000000;stroke-width:0"/>
<polygon points="-744,42.6667 256,-957.333 1256,42.6667" style="fill:#000000; stroke:#000000;stroke-width:0"/>
<circle fill="#a64b00" stroke="#a64b00" stroke-width="0" cx="-77.9441" cy="219.771" r="21.3333"/>
<circle fill="#a64b00" stroke="#a64b00" stroke-width="0" cx="-286.161" cy="232.219" r="21.3333"/>
<circle fill="#a64b00" stroke="#a64b00" stroke-width="0" cx="722.251" cy="280.833" r="21.3333"/>
<circle fill="#a64b00" stroke="#a64b00" stroke-width="0" cx="773.998" cy="72.4785" r="21.3333"/>
<circle fill="#a64b00" stroke="#a64b00" stroke-width="0" cx="108.299" cy="335.347" r="21.3333"/>
</svg>
