<?xml version="1.0" encoding="utf-8"?> <!-- Generator: Adobe Illustrator 13.0.0, SVG Export Plug-In . SVG Version: 6.00 Build 14948)  --> <svg version="1.2" baseProfile="tiny" id="Layer_1" xmlns="http://www.w3.org/2000/svg" xmlns:xlink="http://www.w3.org/1999/xlink" x="0px" y="0px" width="512px" height="512px" viewBox="0 0 512 512" xml:space="preserve">
<polygon points="0,0 512,0 512,512 0,512" style="fill:#ffffff; stroke:#000000;stroke-width:0"/>
<polygon points="-66.6944,340.821 -75.6182,382.544 -273.801,340.157 -264.877,298.434" style="fill:#006363; stroke:#000000;stroke-width:0"/>
<circle fill="#006363" stroke="#006363" stroke-width="0" cx="-71.1563" cy="361.683" r="21.3333"/>
<circle fill="#006363" stroke="#006363" stroke-width="0" cx="-269.339" cy="319.295" r="21.3333"/>
<polygon points="718.875,337.68 678.568,323.689 748.695,121.647 789.003,135.638" style="fill:#006363; stroke:#000000;stroke-width:0"/>
<circle fill="#006363" stroke="#006363" stroke-width="0" cx="698.721" cy="330.684" r="21.3333"/>
<circle fill="#006363" stroke="#006363" stroke-width="0" cx="768.849" cy="128.642" r="21.3333"/>
<polygon points="1256,469.333 256,1469.33 -744,469.333" style="fill:#000000; stroke:#000000;stroke-width:0"/>
<polygon points="-744,42.6667 256,-957.333 1256,42.6667" style="fill:#000000; stroke:#000000;stroke-width:0"/>
<circle fill="#a64b00" stroke="#a64b00" stroke-width="0" cx="-71.1563" cy="361.683" r="21.3333"/>
<circle fill="#a64b00" stroke="#a64b00" stroke-width="0" cx="-269.339" cy="319.295" r="21.3333"/>
<circle fill="#a64b00" stroke="#a64b00" stroke-width="0" cx="698.721" cy="330.684" r="21.3333"/>
<circle fill="#a64b00" stroke="#a64b00" stroke-width="0" cx="768.849" cy="128.642" r="21.3333"/>
<circle fill="#a64b00" stroke="#a64b00" stroke-width="0" cx="135.144" cy="211.32" r="21.3333"/>
</svg>
