<?xml version="1.0" encoding="utf-8"?> <!-- Generator: Adobe Illustrator 13.0.0, SVG Export Plug-In . SVG Version: 6.00 Build 14948)  --> <svg version="1.2" baseProfile="tiny" id="Layer_1" xmlns="http://www.w3.org/2000/svg" xmlns:xlink="http://www.w3.org/1999/xlink" x="0px" y="0px" width="512px" height="512px" viewBox="0 0 512 512" xml:space="preserve">
<polygon points="0,0 512,0 512,512 0,512" style="fill:#ffffff; stroke:#000000;stroke-width:0"/>
<polygon points="-156.193,277.974 -140.624,317.699 -346.949,398.561 -362.518,358.836" style="fill:#006363; stroke:#000000;stroke-width:0"/>
<circle fill="#006363" stroke="#006363" stroke-width="0" cx="-148.409" cy="297.836" r="21.3333"/>
<circle fill="#006363" stroke="#006363" stroke-width="0" cx="-354.733" cy="378.699" r="21.3333"/>
<polygon points="736.585,409.224 724.211,368.391 928.548,306.47 940.922,347.303" style="fill:#006363; stroke:#000000;stroke-width:0"/>
<circle fill="#006363" stroke="#006363" stroke-width="0" cx="730.398" cy="388.808" r="21.3333"/>
<circle fill="#006363" stroke="#006363" stroke-width="0" cx="934.735" cy="326.886" r="21.3333"/>
<polygon points="1256,469.333 256,1469.33 -744,469.333" style="fill:#000000; stroke:#000000;stroke-width:0"/>
<polygon points="-744,42.6667 256,-957.333 1256,42.6667" style="fill:#000000; stroke:#000000;stroke-width:0"/>
<circle fill="#a64b00" stroke="#a64b00" stroke-width="0" cx="-148.409" cy="297.836" r="21.3333"/>
<circle fill="#a64b00" stroke="#a64b00" stroke-width="0" cx="-354.733" cy="378.699" r="21.3333"/>
<circle fill="#a64b00" stroke="#a64b00" stroke-width="0" cx="730.398" cy="388.808" r="21.3333"/>
<circle fill="#a64b00" stroke="#a64b00" stroke-width="0" cx="934.735" cy="326.886" r="21.3333"/>
<circle fill="#a64b00" stroke="#a64b00" stroke-width="0" cx="-49.7842" cy="383.049" r="21.3333"/>
</svg>
