<?xml version="1.0" encoding="utf-8"?> <!-- Generator: Adobe Illustrator 13.0.0, SVG Export Plug-In . SVG Version: 6.00 Build 14948)  --> <svg version="1.2" baseProfile="tiny" id="Layer_1" xmlns="http://www.w3.org/2000/svg" xmlns:xlink="http://www.w3.org/1999/xlink" x="0px" y="0px" width="512px" height="512px" viewBox="0 0 512 512" xml:space="preserve">
<polygon points="0,0 512,0 512,512 0,512" style="fill:#ffffff; stroke:#000000;stroke-width:0"/>
<polygon points="-411.49,99.0513 -405.765,56.7704 -192.614,85.6307 -198.339,127.912" style="fill:#006363; stroke:#000000;stroke-width:0"/>
<circle fill="#006363" stroke="#006363" stroke-width="0" cx="-408.627" cy="77.9109" r="21.3333"/>
<circle fill="#006363" stroke="#006363" stroke-width="0" cx="-195.476" cy="106.771" r="21.3333"/>
<polygon points="864.254,221.69 906.798,218.465 923.241,435.393 880.696,438.618" style="fill:#006363; stroke:#000000;stroke-width:0"/>
<circle fill="#006363" stroke="#006363" stroke-width="0" cx="885.526" cy="220.077" r="21.3333"/>
<circle fill="#006363" stroke="#006363" stroke-width="0" cx="901.968" cy="437.005" r="21.3333"/>
<polygon points="1256,469.333 256,1469.33 -744,469.333" style="fill:#000000; stroke:#000000;stroke-width:0"/>
<polygon points="-744,42.6667 256,-957.333 1256,42.6667" style="fill:#000000; stroke:#000000;stroke-width:0"/>
<circle fill="#a64b00" stroke="#a64b00" stroke-width="0" cx="-408.627" cy="77.9109" r="21.3333"/>
<circle fill="#a64b00" stroke="#a64b00" stroke-width="0" cx="-195.476" cy="106.771" r="21.3333"/>
<circle fill="#a64b00" stroke="#a64b00" stroke-width="0" cx="885.526" cy="220.077" r="21.3333"/>
<circle fill="#a64b00" stroke="#a64b00" stroke-width="0" cx="901.968" cy="437.005" r="21.3333"/>
<circle fill="#a64b00" stroke="#a64b00" stroke-width="0" cx="-141.686" cy="138.657" r="21.3333"/>
</svg>
