<?xml version="1.0" encoding="utf-8"?> <!-- Generator: Adobe Illustrator 13.0.0, SVG Export Plug-In . SVG Version: 6.00 Build 14948)  --> <svg version="1.2" baseProfile="tiny" id="Layer_1" xmlns="http://www.w3.org/2000/svg" xmlns:xlink="http://www.w3.org/1999/xlink" x="0px" y="0px" width="512px" height="512px" viewBox="0 0 512 512" xml:space="preserve">
<polygon points="0,0 512,0 512,512 0,512" style="fill:#ffffff; stroke:#000000;stroke-width:0"/>
<polygon points="-82.2161,131.212 -74.3918,173.155 -292.907,213.918 -300.731,171.975" style="fill:#006363; stroke:#000000;stroke-width:0"/>
<circle fill="#006363" stroke="#006363" stroke-width="0" cx="-78.3039" cy="152.184" r="21.3333"/>
<circle fill="#006363" stroke="#006363" stroke-width="0" cx="-296.819" cy="192.947" r="21.3333"/>
<polygon points="745.019,302.056 704.178,289.708 764.613,89.8157 805.454,102.163" style="fill:#006363; stroke:#000000;stroke-width:0"/>
<circle fill="#006363" stroke="#006363" stroke-width="0" cx="724.599" cy="295.882" r="21.3333"/>
<circle fill="#006363" stroke="#006363" stroke-width="0" cx="785.034" cy="95.9896" r="21.3333"/>
<polygon points="1256,469.333 256,1469.33 -744,469.333" style="fill:#000000; stroke:#000000;stroke-width:0"/>
<polygon points="-744,42.6667 256,-957.333 1256,42.6667" style="fill:#000000; stroke:#000000;stroke-width:0"/>
<circle fill="#a64b00" stroke="#a64b00" stroke-width="0" cx="-78.3039" cy="152.184" r="21.3333"/>
<circle fill="#a64b00" stroke="#a64b00" stroke-width="0" cx="-296.819" cy="192.947" r="21.3333"/>
<circle fill="#a64b00" stroke="#a64b00" stroke-width="0" cx="724.599" cy="295.882" r="21.3333"/>
<circle fill="#a64b00" stroke="#a64b00" stroke-width="0" cx="785.034" cy="95.9896" r="21.3333"/>
<circle fill="#a64b00" stroke="#a64b00" stroke-width="0" cx="95.772" cy="363.968" r="21.3333"/>
</svg>
