<?xml version="1.0" encoding="utf-8"?> <!-- Generator: Adobe Illustrator 13.0.0, SVG Export Plug-In . SVG Version: 6.00 Build 14948)  --> <svg version="1.2" baseProfile="tiny" id="Layer_1" xmlns="http://www.w3.org/2000/svg" xmlns:xlink="http://www.w3.org/1999/xlink" x="0px" y="0px" width="512px" height="512px" viewBox="0 0 512 512" xml:space="preserve">
<polygon points="0,0 512,0 512,512 0,512" style="fill:#ffffff; stroke:#000000;stroke-width:0"/>
<polygon points="-144.434,120.599 -131.745,79.8628 74.1416,143.996 61.4523,184.732" style="fill:#006363; stroke:#000000;stroke-width:0"/>
<circle fill="#006363" stroke="#006363" stroke-width="0" cx="-138.089" cy="100.231" r="21.3333"/>
<circle fill="#006363" stroke="#006363" stroke-width="0" cx="67.797" cy="164.364" r="21.3333"/>
<polygon points="566.888,316.814 525.27,307.414 572.474,98.4219 614.092,107.822" style="fill:#006363; stroke:#000000;stroke-width:0"/>
<circle fill="#006363" stroke="#006363" stroke-width="0" cx="546.079" cy="312.114" r="21.3333"/>
<circle fill="#006363" stroke="#006363" stroke-width="0" cx="593.283" cy="103.122" r="21.3333"/>
<polygon points="1256,469.333 256,1469.33 -744,469.333" style="fill:#000000; stroke:#000000;stroke-width:0"/>
<polygon points="-744,42.6667 256,-957.333 1256,42.6667" style="fill:#000000; stroke:#000000;stroke-width:0"/>
<circle fill="#a64b00" stroke="#a64b00" stroke-width="0" cx="-138.089" cy="100.231" r="21.3333"/>
<circle fill="#a64b00" stroke="#a64b00" stroke-width="0" cx="67.797" cy="164.364" r="21.3333"/>
<circle fill="#a64b00" stroke="#a64b00" stroke-width="0" cx="546.079" cy="312.114" r="21.3333"/>
<circle fill="#a64b00" stroke="#a64b00" stroke-width="0" cx="593.283" cy="103.122" r="21.3333"/>
<circle fill="#a64b00" stroke="#a64b00" stroke-width="0" cx="442.363" cy="430.752" r="21.3333"/>
</svg>
