<?xml version="1.0" encoding="utf-8"?> <!-- Generator: Adobe Illustrator 13.0.0, SVG Export Plug-In . SVG Version: 6.00 Build 14948)  --> <svg version="1.2" baseProfile="tiny" id="Layer_1" xmlns="http://www.w3.org/2000/svg" xmlns:xlink="http://www.w3.org/1999/xlink" x="0px" y="0px" width="512px" height="512px" viewBox="0 0 512 512" xml:space="preserve">
<polygon points="0,0 512,0 512,512 0,512" style="fill:#ffffff; stroke:#000000;stroke-width:0"/>
<polygon points="-91.0898,80.7491 -97.3263,122.957 -320.235,90.0216 -313.999,47.8132" style="fill:#006363; stroke:#000000;stroke-width:0"/>
<circle fill="#006363" stroke="#006363" stroke-width="0" cx="-94.2081" cy="101.853" r="21.3333"/>
<circle fill="#006363" stroke="#006363" stroke-width="0" cx="-317.117" cy="68.9174" r="21.3333"/>
<polygon points="750.2,361.678 711.916,342.842 803.406,156.89 841.69,175.726" style="fill:#006363; stroke:#000000;stroke-width:0"/>
<circle fill="#006363" stroke="#006363" stroke-width="0" cx="731.058" cy="352.26" r="21.3333"/>
<circle fill="#006363" stroke="#006363" stroke-width="0" cx="822.548" cy="166.308" r="21.3333"/>
<polygon points="1256,469.333 256,1469.33 -744,469.333" style="fill:#000000; stroke:#000000;stroke-width:0"/>
<polygon points="-744,42.6667 256,-957.333 1256,42.6667" style="fill:#000000; stroke:#000000;stroke-width:0"/>
<circle fill="#a64b00" stroke="#a64b00" stroke-width="0" cx="-94.2081" cy="101.853" r="21.3333"/>
<circle fill="#a64b00" stroke="#a64b00" stroke-width="0" cx="-317.117" cy="68.9174" r="21.3333"/>
<circle fill="#a64b00" stroke="#a64b00" stroke-width="0" cx="731.058" cy="352.26" r="21.3333"/>
<circle fill="#a64b00" stroke="#a64b00" stroke-width="0" cx="822.548" cy="166.308" r="21.3333"/>
<circle fill="#a64b00" stroke="#a64b00" stroke-width="0" cx="54.6107" cy="411.671" r="21.3333"/>
</svg>
