<?xml version="1.0" encoding="utf-8"?> <!-- Generator: Adobe Illustrator 13.0.0, SVG Export Plug-In . SVG Version: 6.00 Build 14948)  --> <svg version="1.2" baseProfile="tiny" id="Layer_1" xmlns="http://www.w3.org/2000/svg" xmlns:xlink="http://www.w3.org/1999/xlink" x="0px" y="0px" width="512px" height="512px" viewBox="0 0 512 512" xml:space="preserve">
<polygon points="0,0 512,0 512,512 0,512" style="fill:#ffffff; stroke:#000000;stroke-width:0"/>
<polygon points="-186.24,354.972 -217.159,384.373 -365.696,228.162 -334.776,198.762" style="fill:#006363; stroke:#000000;stroke-width:0"/>
<circle fill="#006363" stroke="#006363" stroke-width="0" cx="-201.7" cy="369.673" r="21.3333"/>
<circle fill="#006363" stroke="#006363" stroke-width="0" cx="-350.236" cy="213.462" r="21.3333"/>
<polygon points="763.958,305.844 787.034,269.956 960.444,381.46 937.368,417.348" style="fill:#006363; stroke:#000000;stroke-width:0"/>
<circle fill="#006363" stroke="#006363" stroke-width="0" cx="775.496" cy="287.9" r="21.3333"/>
<circle fill="#006363" stroke="#006363" stroke-width="0" cx="948.906" cy="399.404" r="21.3333"/>
<polygon points="1256,469.333 256,1469.33 -744,469.333" style="fill:#000000; stroke:#000000;stroke-width:0"/>
<polygon points="-744,42.6667 256,-957.333 1256,42.6667" style="fill:#000000; stroke:#000000;stroke-width:0"/>
<circle fill="#a64b00" stroke="#a64b00" stroke-width="0" cx="-201.7" cy="369.673" r="21.3333"/>
<circle fill="#a64b00" stroke="#a64b00" stroke-width="0" cx="-350.236" cy="213.462" r="21.3333"/>
<circle fill="#a64b00" stroke="#a64b00" stroke-width="0" cx="775.496" cy="287.9" r="21.3333"/>
<circle fill="#a64b00" stroke="#a64b00" stroke-width="0" cx="948.906" cy="399.404" r="21.3333"/>
<circle fill="#a64b00" stroke="#a64b00" stroke-width="0" cx="-105.263" cy="278.104" r="21.3333"/>
</svg>
