<?xml version="1.0" encoding="utf-8"?> <!-- Generator: Adobe Illustrator 13.0.0, SVG Export Plug-In . SVG Version: 6.00 Build 14948)  --> <svg version="1.2" baseProfile="tiny" id="Layer_1" xmlns="http://www.w3.org/2000/svg" xmlns:xlink="http://www.w3.org/1999/xlink" x="0px" y="0px" width="512px" height="512px" viewBox="0 0 512 512" xml:space="preserve">
<polygon points="0,0 512,0 512,512 0,512" style="fill:#ffffff; stroke:#000000;stroke-width:0"/>
<polygon points="-124.69,163.031 -123.56,205.683 -325.461,211.031 -326.59,168.379" style="fill:#006363; stroke:#000000;stroke-width:0"/>
<circle fill="#006363" stroke="#006363" stroke-width="0" cx="-124.125" cy="184.357" r="21.3333"/>
<circle fill="#006363" stroke="#006363" stroke-width="0" cx="-326.025" cy="189.705" r="21.3333"/>
<polygon points="752.789,428.224 718.379,402.997 847.977,226.221 882.387,251.447" style="fill:#006363; stroke:#000000;stroke-width:0"/>
<circle fill="#006363" stroke="#006363" stroke-width="0" cx="735.584" cy="415.61" r="21.3333"/>
<circle fill="#006363" stroke="#006363" stroke-width="0" cx="865.182" cy="238.834" r="21.3333"/>
<polygon points="1256,469.333 256,1469.33 -744,469.333" style="fill:#000000; stroke:#000000;stroke-width:0"/>
<polygon points="-744,42.6667 256,-957.333 1256,42.6667" style="fill:#000000; stroke:#000000;stroke-width:0"/>
<circle fill="#a64b00" stroke="#a64b00" stroke-width="0" cx="-124.125" cy="184.357" r="21.3333"/>
<circle fill="#a64b00" stroke="#a64b00" stroke-width="0" cx="-326.025" cy="189.705" r="21.3333"/>
<circle fill="#a64b00" stroke="#a64b00" stroke-width="0" cx="735.584" cy="415.61" r="21.3333"/>
<circle fill="#a64b00" stroke="#a64b00" stroke-width="0" cx="865.182" cy="238.834" r="21.3333"/>
<circle fill="#a64b00" stroke="#a64b00" stroke-width="0" cx="10.4665" cy="335.347" r="21.3333"/>
</svg>
