<?xml version="1.0" encoding="utf-8"?> <!-- Generator: Adobe Illustrator 13.0.0, SVG Export Plug-In . SVG Version: 6.00 Build 14948)  --> <svg version="1.2" baseProfile="tiny" id="Layer_1" xmlns="http://www.w3.org/2000/svg" xmlns:xlink="http://www.w3.org/1999/xlink" x="0px" y="0px" width="512px" height="512px" viewBox="0 0 512 512" xml:space="preserve">
<polygon points="0,0 512,0 512,512 0,512" style="fill:#ffffff; stroke:#000000;stroke-width:0"/>
<polygon points="-146.492,232.612 -136.66,274.13 -335.138,321.137 -344.971,279.618" style="fill:#006363; stroke:#000000;stroke-width:0"/>
<circle fill="#006363" stroke="#006363" stroke-width="0" cx="-141.576" cy="253.371" r="21.3333"/>
<circle fill="#006363" stroke="#006363" stroke-width="0" cx="-340.054" cy="300.378" r="21.3333"/>
<polygon points="746.887,449.898 720.144,416.653 892.116,278.312 918.86,311.557" style="fill:#006363; stroke:#000000;stroke-width:0"/>
<circle fill="#006363" stroke="#006363" stroke-width="0" cx="733.516" cy="433.275" r="21.3333"/>
<circle fill="#006363" stroke="#006363" stroke-width="0" cx="905.488" cy="294.935" r="21.3333"/>
<polygon points="1256,469.333 256,1469.33 -744,469.333" style="fill:#000000; stroke:#000000;stroke-width:0"/>
<polygon points="-744,42.6667 256,-957.333 1256,42.6667" style="fill:#000000; stroke:#000000;stroke-width:0"/>
<circle fill="#a64b00" stroke="#a64b00" stroke-width="0" cx="-141.576" cy="253.371" r="21.3333"/>
<circle fill="#a64b00" stroke="#a64b00" stroke-width="0" cx="-340.054" cy="300.378" r="21.3333"/>
<circle fill="#a64b00" stroke="#a64b00" stroke-width="0" cx="733.516" cy="433.275" r="21.3333"/>
<circle fill="#a64b00" stroke="#a64b00" stroke-width="0" cx="905.488" cy="294.935" r="21.3333"/>
<circle fill="#a64b00" stroke="#a64b00" stroke-width="0" cx="-25.326" cy="125.455" r="21.3333"/>
</svg>
