<?xml version="1.0" encoding="utf-8"?> <!-- Generator: Adobe Illustrator 13.0.0, SVG Export Plug-In . SVG Version: 6.00 Build 14948)  --> <svg version="1.2" baseProfile="tiny" id="Layer_1" xmlns="http://www.w3.org/2000/svg" xmlns:xlink="http://www.w3.org/1999/xlink" x="0px" y="0px" width="512px" height="512px" viewBox="0 0 512 512" xml:space="preserve">
<polygon points="0,0 512,0 512,512 0,512" style="fill:#ffffff; stroke:#000000;stroke-width:0"/>
<polygon points="-165.683,332.987 -160.826,375.377 -366.84,398.979 -371.697,356.59" style="fill:#006363; stroke:#000000;stroke-width:0"/>
<circle fill="#006363" stroke="#006363" stroke-width="0" cx="-163.255" cy="354.182" r="21.3333"/>
<circle fill="#006363" stroke="#006363" stroke-width="0" cx="-369.268" cy="377.785" r="21.3333"/>
<polygon points="740.44,345.901 750.002,304.32 960.381,352.698 950.819,394.279" style="fill:#006363; stroke:#000000;stroke-width:0"/>
<circle fill="#006363" stroke="#006363" stroke-width="0" cx="745.221" cy="325.11" r="21.3333"/>
<circle fill="#006363" stroke="#006363" stroke-width="0" cx="955.6" cy="373.489" r="21.3333"/>
<polygon points="1256,469.333 256,1469.33 -744,469.333" style="fill:#000000; stroke:#000000;stroke-width:0"/>
<polygon points="-744,42.6667 256,-957.333 1256,42.6667" style="fill:#000000; stroke:#000000;stroke-width:0"/>
<circle fill="#a64b00" stroke="#a64b00" stroke-width="0" cx="-163.255" cy="354.182" r="21.3333"/>
<circle fill="#a64b00" stroke="#a64b00" stroke-width="0" cx="-369.268" cy="377.785" r="21.3333"/>
<circle fill="#a64b00" stroke="#a64b00" stroke-width="0" cx="745.221" cy="325.11" r="21.3333"/>
<circle fill="#a64b00" stroke="#a64b00" stroke-width="0" cx="955.6" cy="373.489" r="21.3333"/>
<circle fill="#a64b00" stroke="#a64b00" stroke-width="0" cx="-83.1905" cy="268.563" r="21.3333"/>
</svg>
