<?xml version="1.0" encoding="utf-8"?> <!-- Generator: Adobe Illustrator 13.0.0, SVG Export Plug-In . SVG Version: 6.00 Build 14948)  --> <svg version="1.2" baseProfile="tiny" id="Layer_1" xmlns="http://www.w3.org/2000/svg" xmlns:xlink="http://www.w3.org/1999/xlink" x="0px" y="0px" width="512px" height="512px" viewBox="0 0 512 512" xml:space="preserve">
<polygon points="0,0 512,0 512,512 0,512" style="fill:#ffffff; stroke:#000000;stroke-width:0"/>
<polygon points="-92.9786,123.572 -84.397,165.366 -283.719,206.293 -292.3,164.498" style="fill:#006363; stroke:#000000;stroke-width:0"/>
<circle fill="#006363" stroke="#006363" stroke-width="0" cx="-88.6878" cy="144.469" r="21.3333"/>
<circle fill="#006363" stroke="#006363" stroke-width="0" cx="-288.009" cy="185.395" r="21.3333"/>
<polygon points="743.576,310.085 702.823,297.452 767.968,87.2953 808.722,99.9283" style="fill:#006363; stroke:#000000;stroke-width:0"/>
<circle fill="#006363" stroke="#006363" stroke-width="0" cx="723.199" cy="303.768" r="21.3333"/>
<circle fill="#006363" stroke="#006363" stroke-width="0" cx="788.345" cy="93.6118" r="21.3333"/>
<polygon points="1256,469.333 256,1469.33 -744,469.333" style="fill:#000000; stroke:#000000;stroke-width:0"/>
<polygon points="-744,42.6667 256,-957.333 1256,42.6667" style="fill:#000000; stroke:#000000;stroke-width:0"/>
<circle fill="#a64b00" stroke="#a64b00" stroke-width="0" cx="-88.6878" cy="144.469" r="21.3333"/>
<circle fill="#a64b00" stroke="#a64b00" stroke-width="0" cx="-288.009" cy="185.395" r="21.3333"/>
<circle fill="#a64b00" stroke="#a64b00" stroke-width="0" cx="723.199" cy="303.768" r="21.3333"/>
<circle fill="#a64b00" stroke="#a64b00" stroke-width="0" cx="788.345" cy="93.6118" r="21.3333"/>
<circle fill="#a64b00" stroke="#a64b00" stroke-width="0" cx="93.9824" cy="335.347" r="21.3333"/>
</svg>
