<?xml version="1.0" encoding="utf-8"?> <!-- Generator: Adobe Illustrator 13.0.0, SVG Export Plug-In . SVG Version: 6.00 Build 14948)  --> <svg version="1.2" baseProfile="tiny" id="Layer_1" xmlns="http://www.w3.org/2000/svg" xmlns:xlink="http://www.w3.org/1999/xlink" x="0px" y="0px" width="512px" height="512px" viewBox="0 0 512 512" xml:space="preserve">
<polygon points="0,0 512,0 512,512 0,512" style="fill:#ffffff; stroke:#000000;stroke-width:0"/>
<polygon points="-329.259,419.964 -370.99,411.074 -327.147,205.286 -285.417,214.176" style="fill:#006363; stroke:#000000;stroke-width:0"/>
<circle fill="#006363" stroke="#006363" stroke-width="0" cx="-350.125" cy="415.519" r="21.3333"/>
<circle fill="#006363" stroke="#006363" stroke-width="0" cx="-306.282" cy="209.731" r="21.3333"/>
<polygon points="970.629,220.528 1003.61,247.59 869.124,411.523 836.138,384.461" style="fill:#006363; stroke:#000000;stroke-width:0"/>
<circle fill="#006363" stroke="#006363" stroke-width="0" cx="987.122" cy="234.059" r="21.3333"/>
<circle fill="#006363" stroke="#006363" stroke-width="0" cx="852.631" cy="397.992" r="21.3333"/>
<polygon points="1256,469.333 256,1469.33 -744,469.333" style="fill:#000000; stroke:#000000;stroke-width:0"/>
<polygon points="-744,42.6667 256,-957.333 1256,42.6667" style="fill:#000000; stroke:#000000;stroke-width:0"/>
<circle fill="#a64b00" stroke="#a64b00" stroke-width="0" cx="-350.125" cy="415.519" r="21.3333"/>
<circle fill="#a64b00" stroke="#a64b00" stroke-width="0" cx="-306.282" cy="209.731" r="21.3333"/>
<circle fill="#a64b00" stroke="#a64b00" stroke-width="0" cx="987.122" cy="234.059" r="21.3333"/>
<circle fill="#a64b00" stroke="#a64b00" stroke-width="0" cx="852.631" cy="397.992" r="21.3333"/>
<circle fill="#a64b00" stroke="#a64b00" stroke-width="0" cx="737.388" cy="288.747" r="21.3333"/>
</svg>
