<?xml version="1.0" encoding="utf-8"?> <!-- Generator: Adobe Illustrator 13.0.0, SVG Export Plug-In . SVG Version: 6.00 Build 14948)  --> <svg version="1.2" baseProfile="tiny" id="Layer_1" xmlns="http://www.w3.org/2000/svg" xmlns:xlink="http://www.w3.org/1999/xlink" x="0px" y="0px" width="512px" height="512px" viewBox="0 0 512 512" xml:space="preserve">
<polygon points="0,0 512,0 512,512 0,512" style="fill:#ffffff; stroke:#000000;stroke-width:0"/>
<polygon points="-57.3236,390.017 -69.9253,430.78 -275.302,367.29 -262.7,326.527" style="fill:#006363; stroke:#000000;stroke-width:0"/>
<circle fill="#006363" stroke="#006363" stroke-width="0" cx="-63.6245" cy="410.399" r="21.3333"/>
<circle fill="#006363" stroke="#006363" stroke-width="0" cx="-269.001" cy="346.908" r="21.3333"/>
<polygon points="708.59,363.549 668.982,347.686 749.421,146.837 789.029,162.699" style="fill:#006363; stroke:#000000;stroke-width:0"/>
<circle fill="#006363" stroke="#006363" stroke-width="0" cx="688.786" cy="355.617" r="21.3333"/>
<circle fill="#006363" stroke="#006363" stroke-width="0" cx="769.225" cy="154.768" r="21.3333"/>
<polygon points="1256,469.333 256,1469.33 -744,469.333" style="fill:#000000; stroke:#000000;stroke-width:0"/>
<polygon points="-744,42.6667 256,-957.333 1256,42.6667" style="fill:#000000; stroke:#000000;stroke-width:0"/>
<circle fill="#a64b00" stroke="#a64b00" stroke-width="0" cx="-63.6245" cy="410.399" r="21.3333"/>
<circle fill="#a64b00" stroke="#a64b00" stroke-width="0" cx="-269.001" cy="346.908" r="21.3333"/>
<circle fill="#a64b00" stroke="#a64b00" stroke-width="0" cx="688.786" cy="355.617" r="21.3333"/>
<circle fill="#a64b00" stroke="#a64b00" stroke-width="0" cx="769.225" cy="154.768" r="21.3333"/>
<circle fill="#a64b00" stroke="#a64b00" stroke-width="0" cx="144.092" cy="354.428" r="21.3333"/>
</svg>
