<?xml version="1.0" encoding="utf-8"?> <!-- Generator: Adobe Illustrator 13.0.0, SVG Export Plug-In . SVG Version: 6.00 Build 14948)  --> <svg version="1.2" baseProfile="tiny" id="Layer_1" xmlns="http://www.w3.org/2000/svg" xmlns:xlink="http://www.w3.org/1999/xlink" x="0px" y="0px" width="512px" height="512px" viewBox="0 0 512 512" xml:space="preserve">
<polygon points="0,0 512,0 512,512 0,512" style="fill:#ffffff; stroke:#000000;stroke-width:0"/>
<polygon points="-164.248,191.698 -121.625,193.633 -131.126,402.968 -173.749,401.033" style="fill:#006363; stroke:#000000;stroke-width:0"/>
<circle fill="#006363" stroke="#006363" stroke-width="0" cx="-142.937" cy="192.665" r="21.3333"/>
<circle fill="#006363" stroke="#006363" stroke-width="0" cx="-152.437" cy="402" r="21.3333"/>
<polygon points="653.327,446.997 621.147,418.981 759.436,260.138 791.616,288.154" style="fill:#006363; stroke:#000000;stroke-width:0"/>
<circle fill="#006363" stroke="#006363" stroke-width="0" cx="637.237" cy="432.989" r="21.3333"/>
<circle fill="#006363" stroke="#006363" stroke-width="0" cx="775.526" cy="274.146" r="21.3333"/>
<polygon points="1256,469.333 256,1469.33 -744,469.333" style="fill:#000000; stroke:#000000;stroke-width:0"/>
<polygon points="-744,42.6667 256,-957.333 1256,42.6667" style="fill:#000000; stroke:#000000;stroke-width:0"/>
<circle fill="#a64b00" stroke="#a64b00" stroke-width="0" cx="-142.937" cy="192.665" r="21.3333"/>
<circle fill="#a64b00" stroke="#a64b00" stroke-width="0" cx="-152.437" cy="402" r="21.3333"/>
<circle fill="#a64b00" stroke="#a64b00" stroke-width="0" cx="637.237" cy="432.989" r="21.3333"/>
<circle fill="#a64b00" stroke="#a64b00" stroke-width="0" cx="775.526" cy="274.146" r="21.3333"/>
<circle fill="#a64b00" stroke="#a64b00" stroke-width="0" cx="186.446" cy="249.482" r="21.3333"/>
</svg>
