<?xml version="1.0" encoding="utf-8"?> <!-- Generator: Adobe Illustrator 13.0.0, SVG Export Plug-In . SVG Version: 6.00 Build 14948)  --> <svg version="1.2" baseProfile="tiny" id="Layer_1" xmlns="http://www.w3.org/2000/svg" xmlns:xlink="http://www.w3.org/1999/xlink" x="0px" y="0px" width="512px" height="512px" viewBox="0 0 512 512" xml:space="preserve">
<polygon points="0,0 512,0 512,512 0,512" style="fill:#ffffff; stroke:#000000;stroke-width:0"/>
<polygon points="21.3333,206.933 64,206.933 64,420.267 21.3333,420.267" style="fill:#006363; stroke:#000000;stroke-width:0"/>
<circle fill="#006363" stroke="#006363" stroke-width="0" cx="42.6667" cy="206.933" r="21.3333"/>
<circle fill="#006363" stroke="#006363" stroke-width="0" cx="42.6667" cy="420.267" r="21.3333"/>
<polygon points="448.794,91.8086 491.46,91.6593 492.207,304.991 449.54,305.141" style="fill:#006363; stroke:#000000;stroke-width:0"/>
<circle fill="#006363" stroke="#006363" stroke-width="0" cx="470.127" cy="91.734" r="21.3333"/>
<circle fill="#006363" stroke="#006363" stroke-width="0" cx="470.874" cy="305.066" r="21.3333"/>
<polygon points="1256,469.333 256,1469.33 -744,469.333" style="fill:#000000; stroke:#000000;stroke-width:0"/>
<polygon points="-744,42.6667 256,-957.333 1256,42.6667" style="fill:#000000; stroke:#000000;stroke-width:0"/>
<circle fill="#a64b00" stroke="#a64b00" stroke-width="0" cx="42.6667" cy="206.933" r="21.3333"/>
<circle fill="#a64b00" stroke="#a64b00" stroke-width="0" cx="42.6667" cy="420.267" r="21.3333"/>
<circle fill="#a64b00" stroke="#a64b00" stroke-width="0" cx="470.127" cy="91.734" r="21.3333"/>
<circle fill="#a64b00" stroke="#a64b00" stroke-width="0" cx="470.874" cy="305.066" r="21.3333"/>
<circle fill="#a64b00" stroke="#a64b00" stroke-width="0" cx="310.62" cy="256" r="21.3333"/>
</svg>
