<?xml version="1.0" encoding="utf-8"?> <!-- Generator: Adobe Illustrator 13.0.0, SVG Export Plug-In . SVG Version: 6.00 Build 14948)  --> <svg version="1.2" baseProfile="tiny" id="Layer_1" xmlns="http://www.w3.org/2000/svg" xmlns:xlink="http://www.w3.org/1999/xlink" x="0px" y="0px" width="512px" height="512px" viewBox="0 0 512 512" xml:space="preserve">
<polygon points="0,0 512,0 512,512 0,512" style="fill:#ffffff; stroke:#000000;stroke-width:0"/>
<polygon points="-139.843,151.984 -115.292,117.089 54.86,236.802 30.3089,271.697" style="fill:#006363; stroke:#000000;stroke-width:0"/>
<circle fill="#006363" stroke="#006363" stroke-width="0" cx="-127.567" cy="134.537" r="21.3333"/>
<circle fill="#006363" stroke="#006363" stroke-width="0" cx="42.5845" cy="254.249" r="21.3333"/>
<polygon points="616.024,317.813 573.875,324.439 541.182,116.474 583.331,109.848" style="fill:#006363; stroke:#000000;stroke-width:0"/>
<circle fill="#006363" stroke="#006363" stroke-width="0" cx="594.95" cy="321.126" r="21.3333"/>
<circle fill="#006363" stroke="#006363" stroke-width="0" cx="562.257" cy="113.161" r="21.3333"/>
<polygon points="1256,469.333 256,1469.33 -744,469.333" style="fill:#000000; stroke:#000000;stroke-width:0"/>
<polygon points="-744,42.6667 256,-957.333 1256,42.6667" style="fill:#000000; stroke:#000000;stroke-width:0"/>
<circle fill="#a64b00" stroke="#a64b00" stroke-width="0" cx="-127.567" cy="134.537" r="21.3333"/>
<circle fill="#a64b00" stroke="#a64b00" stroke-width="0" cx="42.5845" cy="254.249" r="21.3333"/>
<circle fill="#a64b00" stroke="#a64b00" stroke-width="0" cx="594.95" cy="321.126" r="21.3333"/>
<circle fill="#a64b00" stroke="#a64b00" stroke-width="0" cx="562.257" cy="113.161" r="21.3333"/>
<circle fill="#a64b00" stroke="#a64b00" stroke-width="0" cx="425.66" cy="163.617" r="21.3333"/>
</svg>
