<?xml version="1.0" encoding="utf-8"?> <!-- Generator: Adobe Illustrator 13.0.0, SVG Export Plug-In . SVG Version: 6.00 Build 14948)  --> <svg version="1.2" baseProfile="tiny" id="Layer_1" xmlns="http://www.w3.org/2000/svg" xmlns:xlink="http://www.w3.org/1999/xlink" x="0px" y="0px" width="512px" height="512px" viewBox="0 0 512 512" xml:space="preserve">
<polygon points="0,0 512,0 512,512 0,512" style="fill:#ffffff; stroke:#000000;stroke-width:0"/>
<polygon points="20.2575,211.679 62.9237,211.501 63.8195,425.654 21.1532,425.833" style="fill:#006363; stroke:#000000;stroke-width:0"/>
<circle fill="#006363" stroke="#006363" stroke-width="0" cx="41.5906" cy="211.59" r="21.3333"/>
<circle fill="#006363" stroke="#006363" stroke-width="0" cx="42.4864" cy="425.744" r="21.3333"/>
<polygon points="450.389,81.1126 493.05,80.4106 496.552,293.268 453.891,293.97" style="fill:#006363; stroke:#000000;stroke-width:0"/>
<circle fill="#006363" stroke="#006363" stroke-width="0" cx="471.719" cy="80.7616" r="21.3333"/>
<circle fill="#006363" stroke="#006363" stroke-width="0" cx="475.222" cy="293.619" r="21.3333"/>
<polygon points="1256,469.333 256,1469.33 -744,469.333" style="fill:#000000; stroke:#000000;stroke-width:0"/>
<polygon points="-744,42.6667 256,-957.333 1256,42.6667" style="fill:#000000; stroke:#000000;stroke-width:0"/>
<circle fill="#a64b00" stroke="#a64b00" stroke-width="0" cx="41.5906" cy="211.59" r="21.3333"/>
<circle fill="#a64b00" stroke="#a64b00" stroke-width="0" cx="42.4864" cy="425.744" r="21.3333"/>
<circle fill="#a64b00" stroke="#a64b00" stroke-width="0" cx="471.719" cy="80.7616" r="21.3333"/>
<circle fill="#a64b00" stroke="#a64b00" stroke-width="0" cx="475.222" cy="293.619" r="21.3333"/>
<circle fill="#a64b00" stroke="#a64b00" stroke-width="0" cx="140.865" cy="256" r="21.3333"/>
</svg>
