<?xml version="1.0" encoding="utf-8"?> <!-- Generator: Adobe Illustrator 13.0.0, SVG Export Plug-In . SVG Version: 6.00 Build 14948)  --> <svg version="1.2" baseProfile="tiny" id="Layer_1" xmlns="http://www.w3.org/2000/svg" xmlns:xlink="http://www.w3.org/1999/xlink" x="0px" y="0px" width="512px" height="512px" viewBox="0 0 512 512" xml:space="preserve">
<polygon points="0,0 512,0 512,512 0,512" style="fill:#ffffff; stroke:#000000;stroke-width:0"/>
<polygon points="-76.5151,226.974 -76.2727,269.64 -282.868,270.814 -283.111,228.148" style="fill:#006363; stroke:#000000;stroke-width:0"/>
<circle fill="#006363" stroke="#006363" stroke-width="0" cx="-76.3939" cy="248.307" r="21.3333"/>
<circle fill="#006363" stroke="#006363" stroke-width="0" cx="-282.989" cy="249.481" r="21.3333"/>
<polygon points="742.265,278.49 700.646,269.092 748.248,58.2959 789.867,67.6943" style="fill:#006363; stroke:#000000;stroke-width:0"/>
<circle fill="#006363" stroke="#006363" stroke-width="0" cx="721.455" cy="273.791" r="21.3333"/>
<circle fill="#006363" stroke="#006363" stroke-width="0" cx="769.058" cy="62.9951" r="21.3333"/>
<polygon points="1256,469.333 256,1469.33 -744,469.333" style="fill:#000000; stroke:#000000;stroke-width:0"/>
<polygon points="-744,42.6667 256,-957.333 1256,42.6667" style="fill:#000000; stroke:#000000;stroke-width:0"/>
<circle fill="#a64b00" stroke="#a64b00" stroke-width="0" cx="-76.3939" cy="248.307" r="21.3333"/>
<circle fill="#a64b00" stroke="#a64b00" stroke-width="0" cx="-282.989" cy="249.481" r="21.3333"/>
<circle fill="#a64b00" stroke="#a64b00" stroke-width="0" cx="721.455" cy="273.791" r="21.3333"/>
<circle fill="#a64b00" stroke="#a64b00" stroke-width="0" cx="769.058" cy="62.9951" r="21.3333"/>
<circle fill="#a64b00" stroke="#a64b00" stroke-width="0" cx="113.668" cy="249.482" r="21.3333"/>
</svg>
