<?xml version="1.0" encoding="utf-8"?> <!-- Generator: Adobe Illustrator 13.0.0, SVG Export Plug-In . SVG Version: 6.00 Build 14948)  --> <svg version="1.2" baseProfile="tiny" id="Layer_1" xmlns="http://www.w3.org/2000/svg" xmlns:xlink="http://www.w3.org/1999/xlink" x="0px" y="0px" width="512px" height="512px" viewBox="0 0 512 512" xml:space="preserve">
<polygon points="0,0 512,0 512,512 0,512" style="fill:#ffffff; stroke:#000000;stroke-width:0"/>
<polygon points="-182.147,291.926 -151.161,262.594 -1.99823,420.166 -32.9835,449.498" style="fill:#006363; stroke:#000000;stroke-width:0"/>
<circle fill="#006363" stroke="#006363" stroke-width="0" cx="-166.654" cy="277.26" r="21.3333"/>
<circle fill="#006363" stroke="#006363" stroke-width="0" cx="-17.4909" cy="434.832" r="21.3333"/>
<polygon points="664.822,175.101 703.499,193.114 612.834,387.786 574.156,369.772" style="fill:#006363; stroke:#000000;stroke-width:0"/>
<circle fill="#006363" stroke="#006363" stroke-width="0" cx="684.161" cy="184.107" r="21.3333"/>
<circle fill="#006363" stroke="#006363" stroke-width="0" cx="593.495" cy="378.779" r="21.3333"/>
<polygon points="1256,469.333 256,1469.33 -744,469.333" style="fill:#000000; stroke:#000000;stroke-width:0"/>
<polygon points="-744,42.6667 256,-957.333 1256,42.6667" style="fill:#000000; stroke:#000000;stroke-width:0"/>
<circle fill="#a64b00" stroke="#a64b00" stroke-width="0" cx="-166.654" cy="277.26" r="21.3333"/>
<circle fill="#a64b00" stroke="#a64b00" stroke-width="0" cx="-17.4909" cy="434.832" r="21.3333"/>
<circle fill="#a64b00" stroke="#a64b00" stroke-width="0" cx="684.161" cy="184.107" r="21.3333"/>
<circle fill="#a64b00" stroke="#a64b00" stroke-width="0" cx="593.495" cy="378.779" r="21.3333"/>
<circle fill="#a64b00" stroke="#a64b00" stroke-width="0" cx="312.913" cy="192.239" r="21.3333"/>
</svg>
