<?xml version="1.0" encoding="utf-8"?> <!-- Generator: Adobe Illustrator 13.0.0, SVG Export Plug-In . SVG Version: 6.00 Build 14948)  --> <svg version="1.2" baseProfile="tiny" id="Layer_1" xmlns="http://www.w3.org/2000/svg" xmlns:xlink="http://www.w3.org/1999/xlink" x="0px" y="0px" width="512px" height="512px" viewBox="0 0 512 512" xml:space="preserve">
<polygon points="0,0 512,0 512,512 0,512" style="fill:#ffffff; stroke:#000000;stroke-width:0"/>
<polygon points="-18.6568,157.596 23.4573,150.752 56.6155,354.777 14.5014,361.621" style="fill:#006363; stroke:#000000;stroke-width:0"/>
<circle fill="#006363" stroke="#006363" stroke-width="0" cx="2.40023" cy="154.174" r="21.3333"/>
<circle fill="#006363" stroke="#006363" stroke-width="0" cx="35.5585" cy="358.199" r="21.3333"/>
<polygon points="450.525,152.887 491.213,140.043 555.671,344.23 514.983,357.074" style="fill:#006363; stroke:#000000;stroke-width:0"/>
<circle fill="#006363" stroke="#006363" stroke-width="0" cx="470.869" cy="146.465" r="21.3333"/>
<circle fill="#006363" stroke="#006363" stroke-width="0" cx="535.327" cy="350.652" r="21.3333"/>
<polygon points="1256,469.333 256,1469.33 -744,469.333" style="fill:#000000; stroke:#000000;stroke-width:0"/>
<polygon points="-744,42.6667 256,-957.333 1256,42.6667" style="fill:#000000; stroke:#000000;stroke-width:0"/>
<circle fill="#a64b00" stroke="#a64b00" stroke-width="0" cx="2.40023" cy="154.174" r="21.3333"/>
<circle fill="#a64b00" stroke="#a64b00" stroke-width="0" cx="35.5585" cy="358.199" r="21.3333"/>
<circle fill="#a64b00" stroke="#a64b00" stroke-width="0" cx="470.869" cy="146.465" r="21.3333"/>
<circle fill="#a64b00" stroke="#a64b00" stroke-width="0" cx="535.327" cy="350.652" r="21.3333"/>
<circle fill="#a64b00" stroke="#a64b00" stroke-width="0" cx="384.547" cy="188.454" r="21.3333"/>
</svg>
