<?xml version="1.0" encoding="utf-8"?> <!-- Generator: Adobe Illustrator 13.0.0, SVG Export Plug-In . SVG Version: 6.00 Build 14948)  --> <svg version="1.2" baseProfile="tiny" id="Layer_1" xmlns="http://www.w3.org/2000/svg" xmlns:xlink="http://www.w3.org/1999/xlink" x="0px" y="0px" width="512px" height="512px" viewBox="0 0 512 512" xml:space="preserve">
<polygon points="0,0 512,0 512,512 0,512" style="fill:#ffffff; stroke:#000000;stroke-width:0"/>
<polygon points="-171.912,286.844 -138.284,260.584 -10.1342,424.69 -43.7624,450.95" style="fill:#006363; stroke:#000000;stroke-width:0"/>
<circle fill="#006363" stroke="#006363" stroke-width="0" cx="-155.098" cy="273.714" r="21.3333"/>
<circle fill="#006363" stroke="#006363" stroke-width="0" cx="-26.9483" cy="437.82" r="21.3333"/>
<polygon points="668.689,176.112 706.359,196.148 606.417,384.053 568.747,364.017" style="fill:#006363; stroke:#000000;stroke-width:0"/>
<circle fill="#006363" stroke="#006363" stroke-width="0" cx="687.524" cy="186.13" r="21.3333"/>
<circle fill="#006363" stroke="#006363" stroke-width="0" cx="587.582" cy="374.035" r="21.3333"/>
<polygon points="1256,469.333 256,1469.33 -744,469.333" style="fill:#000000; stroke:#000000;stroke-width:0"/>
<polygon points="-744,42.6667 256,-957.333 1256,42.6667" style="fill:#000000; stroke:#000000;stroke-width:0"/>
<circle fill="#a64b00" stroke="#a64b00" stroke-width="0" cx="-155.098" cy="273.714" r="21.3333"/>
<circle fill="#a64b00" stroke="#a64b00" stroke-width="0" cx="-26.9483" cy="437.82" r="21.3333"/>
<circle fill="#a64b00" stroke="#a64b00" stroke-width="0" cx="687.524" cy="186.13" r="21.3333"/>
<circle fill="#a64b00" stroke="#a64b00" stroke-width="0" cx="587.582" cy="374.035" r="21.3333"/>
<circle fill="#a64b00" stroke="#a64b00" stroke-width="0" cx="315.299" cy="154.077" r="21.3333"/>
</svg>
