<?xml version="1.0" encoding="utf-8"?> <!-- Generator: Adobe Illustrator 13.0.0, SVG Export Plug-In . SVG Version: 6.00 Build 14948)  --> <svg version="1.2" baseProfile="tiny" id="Layer_1" xmlns="http://www.w3.org/2000/svg" xmlns:xlink="http://www.w3.org/1999/xlink" x="0px" y="0px" width="512px" height="512px" viewBox="0 0 512 512" xml:space="preserve">
<polygon points="0,0 512,0 512,512 0,512" style="fill:#ffffff; stroke:#000000;stroke-width:0"/>
<polygon points="-53.608,416.43 -68.1554,456.54 -274.82,381.586 -260.273,341.476" style="fill:#006363; stroke:#000000;stroke-width:0"/>
<circle fill="#006363" stroke="#006363" stroke-width="0" cx="-60.8817" cy="436.485" r="21.3333"/>
<circle fill="#006363" stroke="#006363" stroke-width="0" cx="-267.546" cy="361.531" r="21.3333"/>
<polygon points="703.513,376.229 664.313,359.383 749.4,161.388 788.6,178.234" style="fill:#006363; stroke:#000000;stroke-width:0"/>
<circle fill="#006363" stroke="#006363" stroke-width="0" cx="683.913" cy="367.806" r="21.3333"/>
<circle fill="#006363" stroke="#006363" stroke-width="0" cx="769" cy="169.811" r="21.3333"/>
<polygon points="1256,469.333 256,1469.33 -744,469.333" style="fill:#000000; stroke:#000000;stroke-width:0"/>
<polygon points="-744,42.6667 256,-957.333 1256,42.6667" style="fill:#000000; stroke:#000000;stroke-width:0"/>
<circle fill="#a64b00" stroke="#a64b00" stroke-width="0" cx="-60.8817" cy="436.485" r="21.3333"/>
<circle fill="#a64b00" stroke="#a64b00" stroke-width="0" cx="-267.546" cy="361.531" r="21.3333"/>
<circle fill="#a64b00" stroke="#a64b00" stroke-width="0" cx="683.913" cy="367.806" r="21.3333"/>
<circle fill="#a64b00" stroke="#a64b00" stroke-width="0" cx="769" cy="169.811" r="21.3333"/>
<circle fill="#a64b00" stroke="#a64b00" stroke-width="0" cx="148.864" cy="430.752" r="21.3333"/>
</svg>
