<?xml version="1.0" encoding="utf-8"?> <!-- Generator: Adobe Illustrator 13.0.0, SVG Export Plug-In . SVG Version: 6.00 Build 14948)  --> <svg version="1.2" baseProfile="tiny" id="Layer_1" xmlns="http://www.w3.org/2000/svg" xmlns:xlink="http://www.w3.org/1999/xlink" x="0px" y="0px" width="512px" height="512px" viewBox="0 0 512 512" xml:space="preserve">
<polygon points="0,0 512,0 512,512 0,512" style="fill:#ffffff; stroke:#000000;stroke-width:0"/>
<polygon points="-154.925,265.38 -140.976,305.702 -341.921,375.218 -355.87,334.896" style="fill:#006363; stroke:#000000;stroke-width:0"/>
<circle fill="#006363" stroke="#006363" stroke-width="0" cx="-147.95" cy="285.541" r="21.3333"/>
<circle fill="#006363" stroke="#006363" stroke-width="0" cx="-348.895" cy="355.057" r="21.3333"/>
<polygon points="741.657,420.517 724.744,381.345 915.829,298.841 932.742,338.012" style="fill:#006363; stroke:#000000;stroke-width:0"/>
<circle fill="#006363" stroke="#006363" stroke-width="0" cx="733.2" cy="400.931" r="21.3333"/>
<circle fill="#006363" stroke="#006363" stroke-width="0" cx="924.285" cy="318.426" r="21.3333"/>
<polygon points="1256,469.333 256,1469.33 -744,469.333" style="fill:#000000; stroke:#000000;stroke-width:0"/>
<polygon points="-744,42.6667 256,-957.333 1256,42.6667" style="fill:#000000; stroke:#000000;stroke-width:0"/>
<circle fill="#a64b00" stroke="#a64b00" stroke-width="0" cx="-147.95" cy="285.541" r="21.3333"/>
<circle fill="#a64b00" stroke="#a64b00" stroke-width="0" cx="-348.895" cy="355.057" r="21.3333"/>
<circle fill="#a64b00" stroke="#a64b00" stroke-width="0" cx="733.2" cy="400.931" r="21.3333"/>
<circle fill="#a64b00" stroke="#a64b00" stroke-width="0" cx="924.285" cy="318.426" r="21.3333"/>
<circle fill="#a64b00" stroke="#a64b00" stroke-width="0" cx="-42.6257" cy="402.13" r="21.3333"/>
</svg>
