<?xml version="1.0" encoding="utf-8"?> <!-- Generator: Adobe Illustrator 13.0.0, SVG Export Plug-In . SVG Version: 6.00 Build 14948)  --> <svg version="1.2" baseProfile="tiny" id="Layer_1" xmlns="http://www.w3.org/2000/svg" xmlns:xlink="http://www.w3.org/1999/xlink" x="0px" y="0px" width="512px" height="512px" viewBox="0 0 512 512" xml:space="preserve">
<polygon points="0,0 512,0 512,512 0,512" style="fill:#ffffff; stroke:#000000;stroke-width:0"/>
<polygon points="-161.031,398.584 -196.029,374.179 -72.432,196.932 -37.434,221.337" style="fill:#006363; stroke:#000000;stroke-width:0"/>
<circle fill="#006363" stroke="#006363" stroke-width="0" cx="-178.53" cy="386.382" r="21.3333"/>
<circle fill="#006363" stroke="#006363" stroke-width="0" cx="-54.933" cy="209.135" r="21.3333"/>
<polygon points="574.296,256.347 602.999,224.779 763.266,370.498 734.562,402.067" style="fill:#006363; stroke:#000000;stroke-width:0"/>
<circle fill="#006363" stroke="#006363" stroke-width="0" cx="588.648" cy="240.563" r="21.3333"/>
<circle fill="#006363" stroke="#006363" stroke-width="0" cx="748.914" cy="386.282" r="21.3333"/>
<polygon points="1256,469.333 256,1469.33 -744,469.333" style="fill:#000000; stroke:#000000;stroke-width:0"/>
<polygon points="-744,42.6667 256,-957.333 1256,42.6667" style="fill:#000000; stroke:#000000;stroke-width:0"/>
<circle fill="#a64b00" stroke="#a64b00" stroke-width="0" cx="-178.53" cy="386.382" r="21.3333"/>
<circle fill="#a64b00" stroke="#a64b00" stroke-width="0" cx="-54.933" cy="209.135" r="21.3333"/>
<circle fill="#a64b00" stroke="#a64b00" stroke-width="0" cx="588.648" cy="240.563" r="21.3333"/>
<circle fill="#a64b00" stroke="#a64b00" stroke-width="0" cx="748.914" cy="386.282" r="21.3333"/>
<circle fill="#a64b00" stroke="#a64b00" stroke-width="0" cx="256.838" cy="306.725" r="21.3333"/>
</svg>
