<?xml version="1.0" encoding="utf-8"?> <!-- Generator: Adobe Illustrator 13.0.0, SVG Export Plug-In . SVG Version: 6.00 Build 14948)  --> <svg version="1.2" baseProfile="tiny" id="Layer_1" xmlns="http://www.w3.org/2000/svg" xmlns:xlink="http://www.w3.org/1999/xlink" x="0px" y="0px" width="512px" height="512px" viewBox="0 0 512 512" xml:space="preserve">
<polygon points="0,0 512,0 512,512 0,512" style="fill:#ffffff; stroke:#000000;stroke-width:0"/>
<polygon points="-164.616,330.945 -199.786,306.789 -77.7667,129.132 -42.5965,153.288" style="fill:#006363; stroke:#000000;stroke-width:0"/>
<circle fill="#006363" stroke="#006363" stroke-width="0" cx="-182.201" cy="318.867" r="21.3333"/>
<circle fill="#006363" stroke="#006363" stroke-width="0" cx="-60.1816" cy="141.21" r="21.3333"/>
<polygon points="569.259,285.153 590.028,247.882 779.137,353.26 758.368,390.531" style="fill:#006363; stroke:#000000;stroke-width:0"/>
<circle fill="#006363" stroke="#006363" stroke-width="0" cx="579.643" cy="266.517" r="21.3333"/>
<circle fill="#006363" stroke="#006363" stroke-width="0" cx="768.752" cy="371.895" r="21.3333"/>
<polygon points="1256,469.333 256,1469.33 -744,469.333" style="fill:#000000; stroke:#000000;stroke-width:0"/>
<polygon points="-744,42.6667 256,-957.333 1256,42.6667" style="fill:#000000; stroke:#000000;stroke-width:0"/>
<circle fill="#a64b00" stroke="#a64b00" stroke-width="0" cx="-182.201" cy="318.867" r="21.3333"/>
<circle fill="#a64b00" stroke="#a64b00" stroke-width="0" cx="-60.1816" cy="141.21" r="21.3333"/>
<circle fill="#a64b00" stroke="#a64b00" stroke-width="0" cx="579.643" cy="266.517" r="21.3333"/>
<circle fill="#a64b00" stroke="#a64b00" stroke-width="0" cx="768.752" cy="371.895" r="21.3333"/>
<circle fill="#a64b00" stroke="#a64b00" stroke-width="0" cx="246.697" cy="430.752" r="21.3333"/>
</svg>
