<?xml version="1.0" encoding="utf-8"?> <!-- Generator: Adobe Illustrator 13.0.0, SVG Export Plug-In . SVG Version: 6.00 Build 14948)  --> <svg version="1.2" baseProfile="tiny" id="Layer_1" xmlns="http://www.w3.org/2000/svg" xmlns:xlink="http://www.w3.org/1999/xlink" x="0px" y="0px" width="512px" height="512px" viewBox="0 0 512 512" xml:space="preserve">
<polygon points="0,0 512,0 512,512 0,512" style="fill:#ffffff; stroke:#000000;stroke-width:0"/>
<polygon points="-25.1929,178.716 16.7244,170.755 55.5264,375.045 13.6091,383.007" style="fill:#006363; stroke:#000000;stroke-width:0"/>
<circle fill="#006363" stroke="#006363" stroke-width="0" cx="-4.23423" cy="174.735" r="21.3333"/>
<circle fill="#006363" stroke="#006363" stroke-width="0" cx="34.5677" cy="379.026" r="21.3333"/>
<polygon points="448.872,127.063 488.476,111.188 567.433,308.165 527.83,324.04" style="fill:#006363; stroke:#000000;stroke-width:0"/>
<circle fill="#006363" stroke="#006363" stroke-width="0" cx="468.674" cy="119.126" r="21.3333"/>
<circle fill="#006363" stroke="#006363" stroke-width="0" cx="547.632" cy="316.102" r="21.3333"/>
<polygon points="1256,469.333 256,1469.33 -744,469.333" style="fill:#000000; stroke:#000000;stroke-width:0"/>
<polygon points="-744,42.6667 256,-957.333 1256,42.6667" style="fill:#000000; stroke:#000000;stroke-width:0"/>
<circle fill="#a64b00" stroke="#a64b00" stroke-width="0" cx="-4.23423" cy="174.735" r="21.3333"/>
<circle fill="#a64b00" stroke="#a64b00" stroke-width="0" cx="34.5677" cy="379.026" r="21.3333"/>
<circle fill="#a64b00" stroke="#a64b00" stroke-width="0" cx="468.674" cy="119.126" r="21.3333"/>
<circle fill="#a64b00" stroke="#a64b00" stroke-width="0" cx="547.632" cy="316.102" r="21.3333"/>
<circle fill="#a64b00" stroke="#a64b00" stroke-width="0" cx="338.765" cy="72.0471" r="21.3333"/>
</svg>
