<?xml version="1.0" encoding="utf-8"?> <!-- Generator: Adobe Illustrator 13.0.0, SVG Export Plug-In . SVG Version: 6.00 Build 14948)  --> <svg version="1.2" baseProfile="tiny" id="Layer_1" xmlns="http://www.w3.org/2000/svg" xmlns:xlink="http://www.w3.org/1999/xlink" x="0px" y="0px" width="512px" height="512px" viewBox="0 0 512 512" xml:space="preserve">
<polygon points="0,0 512,0 512,512 0,512" style="fill:#ffffff; stroke:#000000;stroke-width:0"/>
<polygon points="-403.715,127.111 -404.232,84.4472 -197.015,81.9336 -196.497,124.597" style="fill:#006363; stroke:#000000;stroke-width:0"/>
<circle fill="#006363" stroke="#006363" stroke-width="0" cx="-403.973" cy="105.779" r="21.3333"/>
<circle fill="#006363" stroke="#006363" stroke-width="0" cx="-196.756" cy="103.265" r="21.3333"/>
<polygon points="856.259,224.414 898.549,218.756 927.411,434.5 885.122,440.158" style="fill:#006363; stroke:#000000;stroke-width:0"/>
<circle fill="#006363" stroke="#006363" stroke-width="0" cx="877.404" cy="221.585" r="21.3333"/>
<circle fill="#006363" stroke="#006363" stroke-width="0" cx="906.267" cy="437.329" r="21.3333"/>
<polygon points="1256,469.333 256,1469.33 -744,469.333" style="fill:#000000; stroke:#000000;stroke-width:0"/>
<polygon points="-744,42.6667 256,-957.333 1256,42.6667" style="fill:#000000; stroke:#000000;stroke-width:0"/>
<circle fill="#a64b00" stroke="#a64b00" stroke-width="0" cx="-403.973" cy="105.779" r="21.3333"/>
<circle fill="#a64b00" stroke="#a64b00" stroke-width="0" cx="-196.756" cy="103.265" r="21.3333"/>
<circle fill="#a64b00" stroke="#a64b00" stroke-width="0" cx="877.404" cy="221.585" r="21.3333"/>
<circle fill="#a64b00" stroke="#a64b00" stroke-width="0" cx="906.267" cy="437.329" r="21.3333"/>
<circle fill="#a64b00" stroke="#a64b00" stroke-width="0" cx="-160.741" cy="173.158" r="21.3333"/>
</svg>
