<?xml version="1.0" encoding="utf-8"?> <!-- Generator: Adobe Illustrator 13.0.0, SVG Export Plug-In . SVG Version: 6.00 Build 14948)  --> <svg version="1.2" baseProfile="tiny" id="Layer_1" xmlns="http://www.w3.org/2000/svg" xmlns:xlink="http://www.w3.org/1999/xlink" x="0px" y="0px" width="512px" height="512px" viewBox="0 0 512 512" xml:space="preserve">
<polygon points="0,0 512,0 512,512 0,512" style="fill:#ffffff; stroke:#000000;stroke-width:0"/>
<polygon points="-80.2672,199.161 -44.8774,175.328 72.876,350.181 37.4862,374.014" style="fill:#006363; stroke:#000000;stroke-width:0"/>
<circle fill="#006363" stroke="#006363" stroke-width="0" cx="-62.5723" cy="187.244" r="21.3333"/>
<circle fill="#006363" stroke="#006363" stroke-width="0" cx="55.1811" cy="362.098" r="21.3333"/>
<polygon points="425.474,157.903 438.595,117.303 640.848,182.668 627.727,223.267" style="fill:#006363; stroke:#000000;stroke-width:0"/>
<circle fill="#006363" stroke="#006363" stroke-width="0" cx="432.034" cy="137.603" r="21.3333"/>
<circle fill="#006363" stroke="#006363" stroke-width="0" cx="634.288" cy="202.967" r="21.3333"/>
<polygon points="1256,469.333 256,1469.33 -744,469.333" style="fill:#000000; stroke:#000000;stroke-width:0"/>
<polygon points="-744,42.6667 256,-957.333 1256,42.6667" style="fill:#000000; stroke:#000000;stroke-width:0"/>
<circle fill="#a64b00" stroke="#a64b00" stroke-width="0" cx="-62.5723" cy="187.244" r="21.3333"/>
<circle fill="#a64b00" stroke="#a64b00" stroke-width="0" cx="55.1811" cy="362.098" r="21.3333"/>
<circle fill="#a64b00" stroke="#a64b00" stroke-width="0" cx="432.034" cy="137.603" r="21.3333"/>
<circle fill="#a64b00" stroke="#a64b00" stroke-width="0" cx="634.288" cy="202.967" r="21.3333"/>
<circle fill="#a64b00" stroke="#a64b00" stroke-width="0" cx="112.267" cy="103.089" r="21.3333"/>
</svg>
