<?xml version="1.0" encoding="utf-8"?> <!-- Generator: Adobe Illustrator 13.0.0, SVG Export Plug-In . SVG Version: 6.00 Build 14948)  --> <svg version="1.2" baseProfile="tiny" id="Layer_1" xmlns="http://www.w3.org/2000/svg" xmlns:xlink="http://www.w3.org/1999/xlink" x="0px" y="0px" width="512px" height="512px" viewBox="0 0 512 512" xml:space="preserve">
<polygon points="0,0 512,0 512,512 0,512" style="fill:#ffffff; stroke:#000000;stroke-width:0"/>
<polygon points="-103.301,84.0623 -112.222,125.786 -310.648,83.3596 -301.727,41.636" style="fill:#006363; stroke:#000000;stroke-width:0"/>
<circle fill="#006363" stroke="#006363" stroke-width="0" cx="-107.761" cy="104.924" r="21.3333"/>
<circle fill="#006363" stroke="#006363" stroke-width="0" cx="-306.187" cy="62.4978" r="21.3333"/>
<polygon points="748.299,370.505 710.236,351.226 808.494,157.243 846.556,176.523" style="fill:#006363; stroke:#000000;stroke-width:0"/>
<circle fill="#006363" stroke="#006363" stroke-width="0" cx="729.267" cy="360.865" r="21.3333"/>
<circle fill="#006363" stroke="#006363" stroke-width="0" cx="827.525" cy="166.883" r="21.3333"/>
<polygon points="1256,469.333 256,1469.33 -744,469.333" style="fill:#000000; stroke:#000000;stroke-width:0"/>
<polygon points="-744,42.6667 256,-957.333 1256,42.6667" style="fill:#000000; stroke:#000000;stroke-width:0"/>
<circle fill="#a64b00" stroke="#a64b00" stroke-width="0" cx="-107.761" cy="104.924" r="21.3333"/>
<circle fill="#a64b00" stroke="#a64b00" stroke-width="0" cx="-306.187" cy="62.4978" r="21.3333"/>
<circle fill="#a64b00" stroke="#a64b00" stroke-width="0" cx="729.267" cy="360.865" r="21.3333"/>
<circle fill="#a64b00" stroke="#a64b00" stroke-width="0" cx="827.525" cy="166.883" r="21.3333"/>
<circle fill="#a64b00" stroke="#a64b00" stroke-width="0" cx="51.6279" cy="440.293" r="21.3333"/>
</svg>
