<?xml version="1.0" encoding="utf-8"?> <!-- Generator: Adobe Illustrator 13.0.0, SVG Export Plug-In . SVG Version: 6.00 Build 14948)  --> <svg version="1.2" baseProfile="tiny" id="Layer_1" xmlns="http://www.w3.org/2000/svg" xmlns:xlink="http://www.w3.org/1999/xlink" x="0px" y="0px" width="512px" height="512px" viewBox="0 0 512 512" xml:space="preserve">
<polygon points="0,0 512,0 512,512 0,512" style="fill:#ffffff; stroke:#000000;stroke-width:0"/>
<polygon points="-98.3794,239.374 -65.8235,266.952 -207.488,434.186 -240.044,406.608" style="fill:#006363; stroke:#000000;stroke-width:0"/>
<circle fill="#006363" stroke="#006363" stroke-width="0" cx="-82.1015" cy="253.163" r="21.3333"/>
<circle fill="#006363" stroke="#006363" stroke-width="0" cx="-223.766" cy="420.397" r="21.3333"/>
<polygon points="675.91,445.006 639.308,423.079 749.599,238.978 786.2,260.905" style="fill:#006363; stroke:#000000;stroke-width:0"/>
<circle fill="#006363" stroke="#006363" stroke-width="0" cx="657.609" cy="434.043" r="21.3333"/>
<circle fill="#006363" stroke="#006363" stroke-width="0" cx="767.9" cy="249.942" r="21.3333"/>
<polygon points="1256,469.333 256,1469.33 -744,469.333" style="fill:#000000; stroke:#000000;stroke-width:0"/>
<polygon points="-744,42.6667 256,-957.333 1256,42.6667" style="fill:#000000; stroke:#000000;stroke-width:0"/>
<circle fill="#a64b00" stroke="#a64b00" stroke-width="0" cx="-82.1015" cy="253.163" r="21.3333"/>
<circle fill="#a64b00" stroke="#a64b00" stroke-width="0" cx="-223.766" cy="420.397" r="21.3333"/>
<circle fill="#a64b00" stroke="#a64b00" stroke-width="0" cx="657.609" cy="434.043" r="21.3333"/>
<circle fill="#a64b00" stroke="#a64b00" stroke-width="0" cx="767.9" cy="249.942" r="21.3333"/>
<circle fill="#a64b00" stroke="#a64b00" stroke-width="0" cx="174.516" cy="58.6716" r="21.3333"/>
</svg>
