<?xml version="1.0" encoding="utf-8"?> <!-- Generator: Adobe Illustrator 13.0.0, SVG Export Plug-In . SVG Version: 6.00 Build 14948)  --> <svg version="1.2" baseProfile="tiny" id="Layer_1" xmlns="http://www.w3.org/2000/svg" xmlns:xlink="http://www.w3.org/1999/xlink" x="0px" y="0px" width="512px" height="512px" viewBox="0 0 512 512" xml:space="preserve">
<polygon points="0,0 512,0 512,512 0,512" style="fill:#ffffff; stroke:#000000;stroke-width:0"/>
<polygon points="-116.795,166.118 -115.21,208.756 -334.929,216.928 -336.515,174.291" style="fill:#006363; stroke:#000000;stroke-width:0"/>
<circle fill="#006363" stroke="#006363" stroke-width="0" cx="-116.003" cy="187.437" r="21.3333"/>
<circle fill="#006363" stroke="#006363" stroke-width="0" cx="-335.722" cy="195.609" r="21.3333"/>
<polygon points="756.584,425.854 722.355,400.383 846.093,234.098 880.323,259.57" style="fill:#006363; stroke:#000000;stroke-width:0"/>
<circle fill="#006363" stroke="#006363" stroke-width="0" cx="739.47" cy="413.119" r="21.3333"/>
<circle fill="#006363" stroke="#006363" stroke-width="0" cx="863.208" cy="246.834" r="21.3333"/>
<polygon points="1256,469.333 256,1469.33 -744,469.333" style="fill:#000000; stroke:#000000;stroke-width:0"/>
<polygon points="-744,42.6667 256,-957.333 1256,42.6667" style="fill:#000000; stroke:#000000;stroke-width:0"/>
<circle fill="#a64b00" stroke="#a64b00" stroke-width="0" cx="-116.003" cy="187.437" r="21.3333"/>
<circle fill="#a64b00" stroke="#a64b00" stroke-width="0" cx="-335.722" cy="195.609" r="21.3333"/>
<circle fill="#a64b00" stroke="#a64b00" stroke-width="0" cx="739.47" cy="413.119" r="21.3333"/>
<circle fill="#a64b00" stroke="#a64b00" stroke-width="0" cx="863.208" cy="246.834" r="21.3333"/>
<circle fill="#a64b00" stroke="#a64b00" stroke-width="0" cx="8.67692" cy="363.968" r="21.3333"/>
</svg>
