<?xml version="1.0" encoding="utf-8"?> <!-- Generator: Adobe Illustrator 13.0.0, SVG Export Plug-In . SVG Version: 6.00 Build 14948)  --> <svg version="1.2" baseProfile="tiny" id="Layer_1" xmlns="http://www.w3.org/2000/svg" xmlns:xlink="http://www.w3.org/1999/xlink" x="0px" y="0px" width="512px" height="512px" viewBox="0 0 512 512" xml:space="preserve">
<polygon points="0,0 512,0 512,512 0,512" style="fill:#ffffff; stroke:#000000;stroke-width:0"/>
<polygon points="-406.297,216.608 -419.602,176.069 -217.58,109.761 -204.274,150.3" style="fill:#006363; stroke:#000000;stroke-width:0"/>
<circle fill="#006363" stroke="#006363" stroke-width="0" cx="-412.95" cy="196.338" r="21.3333"/>
<circle fill="#006363" stroke="#006363" stroke-width="0" cx="-210.927" cy="130.031" r="21.3333"/>
<polygon points="904.558,218.136 946.269,227.118 902.692,429.483 860.982,420.501" style="fill:#006363; stroke:#000000;stroke-width:0"/>
<circle fill="#006363" stroke="#006363" stroke-width="0" cx="925.413" cy="222.627" r="21.3333"/>
<circle fill="#006363" stroke="#006363" stroke-width="0" cx="881.837" cy="424.992" r="21.3333"/>
<polygon points="1256,469.333 256,1469.33 -744,469.333" style="fill:#000000; stroke:#000000;stroke-width:0"/>
<polygon points="-744,42.6667 256,-957.333 1256,42.6667" style="fill:#000000; stroke:#000000;stroke-width:0"/>
<circle fill="#a64b00" stroke="#a64b00" stroke-width="0" cx="-412.95" cy="196.338" r="21.3333"/>
<circle fill="#a64b00" stroke="#a64b00" stroke-width="0" cx="-210.927" cy="130.031" r="21.3333"/>
<circle fill="#a64b00" stroke="#a64b00" stroke-width="0" cx="925.413" cy="222.627" r="21.3333"/>
<circle fill="#a64b00" stroke="#a64b00" stroke-width="0" cx="881.837" cy="424.992" r="21.3333"/>
<circle fill="#a64b00" stroke="#a64b00" stroke-width="0" cx="190.647" cy="195.398" r="21.3333"/>
</svg>
