<?xml version="1.0" encoding="utf-8"?> <!-- Generator: Adobe Illustrator 13.0.0, SVG Export Plug-In . SVG Version: 6.00 Build 14948)  --> <svg version="1.2" baseProfile="tiny" id="Layer_1" xmlns="http://www.w3.org/2000/svg" xmlns:xlink="http://www.w3.org/1999/xlink" x="0px" y="0px" width="512px" height="512px" viewBox="0 0 512 512" xml:space="preserve">
<polygon points="0,0 512,0 512,512 0,512" style="fill:#ffffff; stroke:#000000;stroke-width:0"/>
<polygon points="-193.08,242.246 -221.312,210.256 -65.0428,72.3455 -36.8107,104.336" style="fill:#006363; stroke:#000000;stroke-width:0"/>
<circle fill="#006363" stroke="#006363" stroke-width="0" cx="-207.196" cy="226.251" r="21.3333"/>
<circle fill="#006363" stroke="#006363" stroke-width="0" cx="-50.9267" cy="88.3408" r="21.3333"/>
<polygon points="576.748,339.688 581.179,297.252 790.767,319.138 786.335,361.574" style="fill:#006363; stroke:#000000;stroke-width:0"/>
<circle fill="#006363" stroke="#006363" stroke-width="0" cx="578.964" cy="318.47" r="21.3333"/>
<circle fill="#006363" stroke="#006363" stroke-width="0" cx="788.551" cy="340.356" r="21.3333"/>
<polygon points="1256,469.333 256,1469.33 -744,469.333" style="fill:#000000; stroke:#000000;stroke-width:0"/>
<polygon points="-744,42.6667 256,-957.333 1256,42.6667" style="fill:#000000; stroke:#000000;stroke-width:0"/>
<circle fill="#a64b00" stroke="#a64b00" stroke-width="0" cx="-207.196" cy="226.251" r="21.3333"/>
<circle fill="#a64b00" stroke="#a64b00" stroke-width="0" cx="-50.9267" cy="88.3408" r="21.3333"/>
<circle fill="#a64b00" stroke="#a64b00" stroke-width="0" cx="578.964" cy="318.47" r="21.3333"/>
<circle fill="#a64b00" stroke="#a64b00" stroke-width="0" cx="788.551" cy="340.356" r="21.3333"/>
<circle fill="#a64b00" stroke="#a64b00" stroke-width="0" cx="228.801" cy="144.536" r="21.3333"/>
</svg>
