<?xml version="1.0" encoding="utf-8"?> <!-- Generator: Adobe Illustrator 13.0.0, SVG Export Plug-In . SVG Version: 6.00 Build 14948)  --> <svg version="1.2" baseProfile="tiny" id="Layer_1" xmlns="http://www.w3.org/2000/svg" xmlns:xlink="http://www.w3.org/1999/xlink" x="0px" y="0px" width="512px" height="512px" viewBox="0 0 512 512" xml:space="preserve">
<polygon points="0,0 512,0 512,512 0,512" style="fill:#ffffff; stroke:#000000;stroke-width:0"/>
<polygon points="-115.046,86.5398 -72.9114,79.8242 -39.7173,288.09 -81.8522,294.806" style="fill:#006363; stroke:#000000;stroke-width:0"/>
<circle fill="#006363" stroke="#006363" stroke-width="0" cx="-93.9788" cy="83.182" r="21.3333"/>
<circle fill="#006363" stroke="#006363" stroke-width="0" cx="-60.7847" cy="291.448" r="21.3333"/>
<polygon points="712.015,203.017 727.856,242.634 529.952,321.766 514.111,282.149" style="fill:#006363; stroke:#000000;stroke-width:0"/>
<circle fill="#006363" stroke="#006363" stroke-width="0" cx="719.936" cy="222.825" r="21.3333"/>
<circle fill="#006363" stroke="#006363" stroke-width="0" cx="522.031" cy="301.958" r="21.3333"/>
<polygon points="1256,469.333 256,1469.33 -744,469.333" style="fill:#000000; stroke:#000000;stroke-width:0"/>
<polygon points="-744,42.6667 256,-957.333 1256,42.6667" style="fill:#000000; stroke:#000000;stroke-width:0"/>
<circle fill="#a64b00" stroke="#a64b00" stroke-width="0" cx="-93.9788" cy="83.182" r="21.3333"/>
<circle fill="#a64b00" stroke="#a64b00" stroke-width="0" cx="-60.7847" cy="291.448" r="21.3333"/>
<circle fill="#a64b00" stroke="#a64b00" stroke-width="0" cx="719.936" cy="222.825" r="21.3333"/>
<circle fill="#a64b00" stroke="#a64b00" stroke-width="0" cx="522.031" cy="301.958" r="21.3333"/>
<circle fill="#a64b00" stroke="#a64b00" stroke-width="0" cx="346.32" cy="440.293" r="21.3333"/>
</svg>
