<?xml version="1.0" encoding="utf-8"?> <!-- Generator: Adobe Illustrator 13.0.0, SVG Export Plug-In . SVG Version: 6.00 Build 14948)  --> <svg version="1.2" baseProfile="tiny" id="Layer_1" xmlns="http://www.w3.org/2000/svg" xmlns:xlink="http://www.w3.org/1999/xlink" x="0px" y="0px" width="512px" height="512px" viewBox="0 0 512 512" xml:space="preserve">
<polygon points="0,0 512,0 512,512 0,512" style="fill:#ffffff; stroke:#000000;stroke-width:0"/>
<polygon points="-247.517,205.335 -233.717,164.962 -27.3951,235.487 -41.1955,275.86" style="fill:#006363; stroke:#000000;stroke-width:0"/>
<circle fill="#006363" stroke="#006363" stroke-width="0" cx="-240.617" cy="185.149" r="21.3333"/>
<circle fill="#006363" stroke="#006363" stroke-width="0" cx="-34.2953" cy="255.673" r="21.3333"/>
<polygon points="598.523,395.276 584.789,354.88 789.385,285.323 803.119,325.719" style="fill:#006363; stroke:#000000;stroke-width:0"/>
<circle fill="#006363" stroke="#006363" stroke-width="0" cx="591.656" cy="375.078" r="21.3333"/>
<circle fill="#006363" stroke="#006363" stroke-width="0" cx="796.252" cy="305.521" r="21.3333"/>
<polygon points="1256,469.333 256,1469.33 -744,469.333" style="fill:#000000; stroke:#000000;stroke-width:0"/>
<polygon points="-744,42.6667 256,-957.333 1256,42.6667" style="fill:#000000; stroke:#000000;stroke-width:0"/>
<circle fill="#a64b00" stroke="#a64b00" stroke-width="0" cx="-240.617" cy="185.149" r="21.3333"/>
<circle fill="#a64b00" stroke="#a64b00" stroke-width="0" cx="-34.2953" cy="255.673" r="21.3333"/>
<circle fill="#a64b00" stroke="#a64b00" stroke-width="0" cx="591.656" cy="375.078" r="21.3333"/>
<circle fill="#a64b00" stroke="#a64b00" stroke-width="0" cx="796.252" cy="305.521" r="21.3333"/>
<circle fill="#a64b00" stroke="#a64b00" stroke-width="0" cx="209.712" cy="278.104" r="21.3333"/>
</svg>
