<?xml version="1.0" encoding="utf-8"?> <!-- Generator: Adobe Illustrator 13.0.0, SVG Export Plug-In . SVG Version: 6.00 Build 14948)  --> <svg version="1.2" baseProfile="tiny" id="Layer_1" xmlns="http://www.w3.org/2000/svg" xmlns:xlink="http://www.w3.org/1999/xlink" x="0px" y="0px" width="512px" height="512px" viewBox="0 0 512 512" xml:space="preserve">
<polygon points="0,0 512,0 512,512 0,512" style="fill:#ffffff; stroke:#000000;stroke-width:0"/>
<polygon points="-315.77,295.486 -354.004,276.548 -261.874,90.5479 -223.641,109.486" style="fill:#006363; stroke:#000000;stroke-width:0"/>
<circle fill="#006363" stroke="#006363" stroke-width="0" cx="-334.887" cy="286.017" r="21.3333"/>
<circle fill="#006363" stroke="#006363" stroke-width="0" cx="-242.758" cy="100.017" r="21.3333"/>
<polygon points="802.801,253.134 839.334,231.093 952.828,419.212 916.295,441.253" style="fill:#006363; stroke:#000000;stroke-width:0"/>
<circle fill="#006363" stroke="#006363" stroke-width="0" cx="821.067" cy="242.113" r="21.3333"/>
<circle fill="#006363" stroke="#006363" stroke-width="0" cx="934.562" cy="430.232" r="21.3333"/>
<polygon points="1256,469.333 256,1469.33 -744,469.333" style="fill:#000000; stroke:#000000;stroke-width:0"/>
<polygon points="-744,42.6667 256,-957.333 1256,42.6667" style="fill:#000000; stroke:#000000;stroke-width:0"/>
<circle fill="#a64b00" stroke="#a64b00" stroke-width="0" cx="-334.887" cy="286.017" r="21.3333"/>
<circle fill="#a64b00" stroke="#a64b00" stroke-width="0" cx="-242.758" cy="100.017" r="21.3333"/>
<circle fill="#a64b00" stroke="#a64b00" stroke-width="0" cx="821.067" cy="242.113" r="21.3333"/>
<circle fill="#a64b00" stroke="#a64b00" stroke-width="0" cx="934.562" cy="430.232" r="21.3333"/>
<circle fill="#a64b00" stroke="#a64b00" stroke-width="0" cx="-134.493" cy="306.725" r="21.3333"/>
</svg>
