<?xml version="1.0" encoding="utf-8"?> <!-- Generator: Adobe Illustrator 13.0.0, SVG Export Plug-In . SVG Version: 6.00 Build 14948)  --> <svg version="1.2" baseProfile="tiny" id="Layer_1" xmlns="http://www.w3.org/2000/svg" xmlns:xlink="http://www.w3.org/1999/xlink" x="0px" y="0px" width="512px" height="512px" viewBox="0 0 512 512" xml:space="preserve">
<polygon points="0,0 512,0 512,512 0,512" style="fill:#ffffff; stroke:#000000;stroke-width:0"/>
<polygon points="-180.859,181.129 -138.507,175.955 -111.892,393.814 -154.243,398.988" style="fill:#006363; stroke:#000000;stroke-width:0"/>
<circle fill="#006363" stroke="#006363" stroke-width="0" cx="-159.683" cy="178.542" r="21.3333"/>
<circle fill="#006363" stroke="#006363" stroke-width="0" cx="-133.068" cy="396.401" r="21.3333"/>
<polygon points="643.413,443.615 613.203,413.486 766.164,260.117 796.374,290.247" style="fill:#006363; stroke:#000000;stroke-width:0"/>
<circle fill="#006363" stroke="#006363" stroke-width="0" cx="628.308" cy="428.55" r="21.3333"/>
<circle fill="#006363" stroke="#006363" stroke-width="0" cx="781.269" cy="275.182" r="21.3333"/>
<polygon points="1256,469.333 256,1469.33 -744,469.333" style="fill:#000000; stroke:#000000;stroke-width:0"/>
<polygon points="-744,42.6667 256,-957.333 1256,42.6667" style="fill:#000000; stroke:#000000;stroke-width:0"/>
<circle fill="#a64b00" stroke="#a64b00" stroke-width="0" cx="-159.683" cy="178.542" r="21.3333"/>
<circle fill="#a64b00" stroke="#a64b00" stroke-width="0" cx="-133.068" cy="396.401" r="21.3333"/>
<circle fill="#a64b00" stroke="#a64b00" stroke-width="0" cx="628.308" cy="428.55" r="21.3333"/>
<circle fill="#a64b00" stroke="#a64b00" stroke-width="0" cx="781.269" cy="275.182" r="21.3333"/>
<circle fill="#a64b00" stroke="#a64b00" stroke-width="0" cx="189.429" cy="297.185" r="21.3333"/>
</svg>
