<?xml version="1.0" encoding="utf-8"?> <!-- Generator: Adobe Illustrator 13.0.0, SVG Export Plug-In . SVG Version: 6.00 Build 14948)  --> <svg version="1.2" baseProfile="tiny" id="Layer_1" xmlns="http://www.w3.org/2000/svg" xmlns:xlink="http://www.w3.org/1999/xlink" x="0px" y="0px" width="512px" height="512px" viewBox="0 0 512 512" xml:space="preserve">
<polygon points="0,0 512,0 512,512 0,512" style="fill:#ffffff; stroke:#000000;stroke-width:0"/>
<polygon points="-300.773,442.264 -343.221,446.569 -365.201,229.833 -322.753,225.529" style="fill:#006363; stroke:#000000;stroke-width:0"/>
<circle fill="#006363" stroke="#006363" stroke-width="0" cx="-321.997" cy="444.416" r="21.3333"/>
<circle fill="#006363" stroke="#006363" stroke-width="0" cx="-343.977" cy="227.681" r="21.3333"/>
<polygon points="991.659,223.435 1020.55,254.828 858.028,404.423 829.133,373.03" style="fill:#006363; stroke:#000000;stroke-width:0"/>
<circle fill="#006363" stroke="#006363" stroke-width="0" cx="1006.11" cy="239.132" r="21.3333"/>
<circle fill="#006363" stroke="#006363" stroke-width="0" cx="843.581" cy="388.727" r="21.3333"/>
<polygon points="1256,469.333 256,1469.33 -744,469.333" style="fill:#000000; stroke:#000000;stroke-width:0"/>
<polygon points="-744,42.6667 256,-957.333 1256,42.6667" style="fill:#000000; stroke:#000000;stroke-width:0"/>
<circle fill="#a64b00" stroke="#a64b00" stroke-width="0" cx="-321.997" cy="444.416" r="21.3333"/>
<circle fill="#a64b00" stroke="#a64b00" stroke-width="0" cx="-343.977" cy="227.681" r="21.3333"/>
<circle fill="#a64b00" stroke="#a64b00" stroke-width="0" cx="1006.11" cy="239.132" r="21.3333"/>
<circle fill="#a64b00" stroke="#a64b00" stroke-width="0" cx="843.581" cy="388.727" r="21.3333"/>
<circle fill="#a64b00" stroke="#a64b00" stroke-width="0" cx="860.625" cy="277.481" r="21.3333"/>
</svg>
