<?xml version="1.0" encoding="utf-8"?> <!-- Generator: Adobe Illustrator 13.0.0, SVG Export Plug-In . SVG Version: 6.00 Build 14948)  --> <svg version="1.2" baseProfile="tiny" id="Layer_1" xmlns="http://www.w3.org/2000/svg" xmlns:xlink="http://www.w3.org/1999/xlink" x="0px" y="0px" width="512px" height="512px" viewBox="0 0 512 512" xml:space="preserve">
<polygon points="0,0 512,0 512,512 0,512" style="fill:#ffffff; stroke:#000000;stroke-width:0"/>
<polygon points="-113.105,223.375 -72.9655,208.911 -0.734104,409.357 -40.8741,423.821" style="fill:#006363; stroke:#000000;stroke-width:0"/>
<circle fill="#006363" stroke="#006363" stroke-width="0" cx="-93.0355" cy="216.143" r="21.3333"/>
<circle fill="#006363" stroke="#006363" stroke-width="0" cx="-20.8041" cy="416.589" r="21.3333"/>
<polygon points="692.99,285.653 666.427,319.042 499.268,186.058 525.831,152.668" style="fill:#006363; stroke:#000000;stroke-width:0"/>
<circle fill="#006363" stroke="#006363" stroke-width="0" cx="679.708" cy="302.347" r="21.3333"/>
<circle fill="#006363" stroke="#006363" stroke-width="0" cx="512.549" cy="169.363" r="21.3333"/>
<polygon points="1256,469.333 256,1469.33 -744,469.333" style="fill:#000000; stroke:#000000;stroke-width:0"/>
<polygon points="-744,42.6667 256,-957.333 1256,42.6667" style="fill:#000000; stroke:#000000;stroke-width:0"/>
<circle fill="#a64b00" stroke="#a64b00" stroke-width="0" cx="-93.0355" cy="216.143" r="21.3333"/>
<circle fill="#a64b00" stroke="#a64b00" stroke-width="0" cx="-20.8041" cy="416.589" r="21.3333"/>
<circle fill="#a64b00" stroke="#a64b00" stroke-width="0" cx="679.708" cy="302.347" r="21.3333"/>
<circle fill="#a64b00" stroke="#a64b00" stroke-width="0" cx="512.549" cy="169.363" r="21.3333"/>
<circle fill="#a64b00" stroke="#a64b00" stroke-width="0" cx="392.85" cy="421.212" r="21.3333"/>
</svg>
