<?xml version="1.0" encoding="utf-8"?> <!-- Generator: Adobe Illustrator 13.0.0, SVG Export Plug-In . SVG Version: 6.00 Build 14948)  --> <svg version="1.2" baseProfile="tiny" id="Layer_1" xmlns="http://www.w3.org/2000/svg" xmlns:xlink="http://www.w3.org/1999/xlink" x="0px" y="0px" width="512px" height="512px" viewBox="0 0 512 512" xml:space="preserve">
<polygon points="0,0 512,0 512,512 0,512" style="fill:#ffffff; stroke:#000000;stroke-width:0"/>
<polygon points="-149.293,244.964 -137.868,286.073 -338.108,341.727 -349.534,300.619" style="fill:#006363; stroke:#000000;stroke-width:0"/>
<circle fill="#006363" stroke="#006363" stroke-width="0" cx="-143.58" cy="265.518" r="21.3333"/>
<circle fill="#006363" stroke="#006363" stroke-width="0" cx="-343.821" cy="321.173" r="21.3333"/>
<polygon points="746.123,437.741 722.9,401.949 899.891,287.111 923.114,322.903" style="fill:#006363; stroke:#000000;stroke-width:0"/>
<circle fill="#006363" stroke="#006363" stroke-width="0" cx="734.511" cy="419.845" r="21.3333"/>
<circle fill="#006363" stroke="#006363" stroke-width="0" cx="911.503" cy="305.007" r="21.3333"/>
<polygon points="1256,469.333 256,1469.33 -744,469.333" style="fill:#000000; stroke:#000000;stroke-width:0"/>
<polygon points="-744,42.6667 256,-957.333 1256,42.6667" style="fill:#000000; stroke:#000000;stroke-width:0"/>
<circle fill="#a64b00" stroke="#a64b00" stroke-width="0" cx="-143.58" cy="265.518" r="21.3333"/>
<circle fill="#a64b00" stroke="#a64b00" stroke-width="0" cx="-343.821" cy="321.173" r="21.3333"/>
<circle fill="#a64b00" stroke="#a64b00" stroke-width="0" cx="734.511" cy="419.845" r="21.3333"/>
<circle fill="#a64b00" stroke="#a64b00" stroke-width="0" cx="911.503" cy="305.007" r="21.3333"/>
<circle fill="#a64b00" stroke="#a64b00" stroke-width="0" cx="-31.8879" cy="230.401" r="21.3333"/>
</svg>
