<?xml version="1.0" encoding="utf-8"?> <!-- Generator: Adobe Illustrator 13.0.0, SVG Export Plug-In . SVG Version: 6.00 Build 14948)  --> <svg version="1.2" baseProfile="tiny" id="Layer_1" xmlns="http://www.w3.org/2000/svg" xmlns:xlink="http://www.w3.org/1999/xlink" x="0px" y="0px" width="512px" height="512px" viewBox="0 0 512 512" xml:space="preserve">
<polygon points="0,0 512,0 512,512 0,512" style="fill:#ffffff; stroke:#000000;stroke-width:0"/>
<polygon points="-388.237,290.215 -413.859,256.098 -245.845,129.92 -220.223,164.037" style="fill:#006363; stroke:#000000;stroke-width:0"/>
<circle fill="#006363" stroke="#006363" stroke-width="0" cx="-401.048" cy="273.157" r="21.3333"/>
<circle fill="#006363" stroke="#006363" stroke-width="0" cx="-233.034" cy="146.979" r="21.3333"/>
<polygon points="926.419,214.049 966.338,229.112 891.029,428.686 851.109,413.622" style="fill:#006363; stroke:#000000;stroke-width:0"/>
<circle fill="#006363" stroke="#006363" stroke-width="0" cx="946.378" cy="221.581" r="21.3333"/>
<circle fill="#006363" stroke="#006363" stroke-width="0" cx="871.069" cy="421.154" r="21.3333"/>
<polygon points="1256,469.333 256,1469.33 -744,469.333" style="fill:#000000; stroke:#000000;stroke-width:0"/>
<polygon points="-744,42.6667 256,-957.333 1256,42.6667" style="fill:#000000; stroke:#000000;stroke-width:0"/>
<circle fill="#a64b00" stroke="#a64b00" stroke-width="0" cx="-401.048" cy="273.157" r="21.3333"/>
<circle fill="#a64b00" stroke="#a64b00" stroke-width="0" cx="-233.034" cy="146.979" r="21.3333"/>
<circle fill="#a64b00" stroke="#a64b00" stroke-width="0" cx="946.378" cy="221.581" r="21.3333"/>
<circle fill="#a64b00" stroke="#a64b00" stroke-width="0" cx="871.069" cy="421.154" r="21.3333"/>
<circle fill="#a64b00" stroke="#a64b00" stroke-width="0" cx="362.173" cy="224.684" r="21.3333"/>
</svg>
