<?xml version="1.0" encoding="utf-8"?> <!-- Generator: Adobe Illustrator 13.0.0, SVG Export Plug-In . SVG Version: 6.00 Build 14948)  --> <svg version="1.2" baseProfile="tiny" id="Layer_1" xmlns="http://www.w3.org/2000/svg" xmlns:xlink="http://www.w3.org/1999/xlink" x="0px" y="0px" width="512px" height="512px" viewBox="0 0 512 512" xml:space="preserve">
<polygon points="0,0 512,0 512,512 0,512" style="fill:#ffffff; stroke:#000000;stroke-width:0"/>
<polygon points="-111.389,135.703 -113.759,178.304 -326.17,166.484 -323.799,123.883" style="fill:#006363; stroke:#000000;stroke-width:0"/>
<circle fill="#006363" stroke="#006363" stroke-width="0" cx="-112.574" cy="157.003" r="21.3333"/>
<circle fill="#006363" stroke="#006363" stroke-width="0" cx="-324.984" cy="145.184" r="21.3333"/>
<polygon points="753.371,405.045 717.579,381.82 832.1,205.331 867.891,228.556" style="fill:#006363; stroke:#000000;stroke-width:0"/>
<circle fill="#006363" stroke="#006363" stroke-width="0" cx="735.475" cy="393.432" r="21.3333"/>
<circle fill="#006363" stroke="#006363" stroke-width="0" cx="849.996" cy="216.944" r="21.3333"/>
<polygon points="1256,469.333 256,1469.33 -744,469.333" style="fill:#000000; stroke:#000000;stroke-width:0"/>
<polygon points="-744,42.6667 256,-957.333 1256,42.6667" style="fill:#000000; stroke:#000000;stroke-width:0"/>
<circle fill="#a64b00" stroke="#a64b00" stroke-width="0" cx="-112.574" cy="157.003" r="21.3333"/>
<circle fill="#a64b00" stroke="#a64b00" stroke-width="0" cx="-324.984" cy="145.184" r="21.3333"/>
<circle fill="#a64b00" stroke="#a64b00" stroke-width="0" cx="735.475" cy="393.432" r="21.3333"/>
<circle fill="#a64b00" stroke="#a64b00" stroke-width="0" cx="849.996" cy="216.944" r="21.3333"/>
<circle fill="#a64b00" stroke="#a64b00" stroke-width="0" cx="24.7836" cy="106.374" r="21.3333"/>
</svg>
