<?xml version="1.0" encoding="utf-8"?> <!-- Generator: Adobe Illustrator 13.0.0, SVG Export Plug-In . SVG Version: 6.00 Build 14948)  --> <svg version="1.2" baseProfile="tiny" id="Layer_1" xmlns="http://www.w3.org/2000/svg" xmlns:xlink="http://www.w3.org/1999/xlink" x="0px" y="0px" width="512px" height="512px" viewBox="0 0 512 512" xml:space="preserve">
<polygon points="0,0 512,0 512,512 0,512" style="fill:#ffffff; stroke:#000000;stroke-width:0"/>
<polygon points="-53.9836,426.29 -68.4672,466.423 -271.296,393.224 -256.813,353.091" style="fill:#006363; stroke:#000000;stroke-width:0"/>
<circle fill="#006363" stroke="#006363" stroke-width="0" cx="-61.2254" cy="446.357" r="21.3333"/>
<circle fill="#006363" stroke="#006363" stroke-width="0" cx="-264.055" cy="373.157" r="21.3333"/>
<polygon points="700.66,383.657 661.781,366.083 748.428,174.383 787.308,191.957" style="fill:#006363; stroke:#000000;stroke-width:0"/>
<circle fill="#006363" stroke="#006363" stroke-width="0" cx="681.221" cy="374.87" r="21.3333"/>
<circle fill="#006363" stroke="#006363" stroke-width="0" cx="767.868" cy="183.17" r="21.3333"/>
<polygon points="1256,469.333 256,1469.33 -744,469.333" style="fill:#000000; stroke:#000000;stroke-width:0"/>
<polygon points="-744,42.6667 256,-957.333 1256,42.6667" style="fill:#000000; stroke:#000000;stroke-width:0"/>
<circle fill="#a64b00" stroke="#a64b00" stroke-width="0" cx="-61.2254" cy="446.357" r="21.3333"/>
<circle fill="#a64b00" stroke="#a64b00" stroke-width="0" cx="-264.055" cy="373.157" r="21.3333"/>
<circle fill="#a64b00" stroke="#a64b00" stroke-width="0" cx="681.221" cy="374.87" r="21.3333"/>
<circle fill="#a64b00" stroke="#a64b00" stroke-width="0" cx="767.868" cy="183.17" r="21.3333"/>
<circle fill="#a64b00" stroke="#a64b00" stroke-width="0" cx="152.444" cy="411.671" r="21.3333"/>
</svg>
