<?xml version="1.0" encoding="utf-8"?> <!-- Generator: Adobe Illustrator 13.0.0, SVG Export Plug-In . SVG Version: 6.00 Build 14948)  --> <svg version="1.2" baseProfile="tiny" id="Layer_1" xmlns="http://www.w3.org/2000/svg" xmlns:xlink="http://www.w3.org/1999/xlink" x="0px" y="0px" width="512px" height="512px" viewBox="0 0 512 512" xml:space="preserve">
<polygon points="0,0 512,0 512,512 0,512" style="fill:#ffffff; stroke:#000000;stroke-width:0"/>
<polygon points="-60.6561,392.112 -73.5059,432.798 -271.445,370.283 -258.595,329.597" style="fill:#006363; stroke:#000000;stroke-width:0"/>
<circle fill="#006363" stroke="#006363" stroke-width="0" cx="-67.081" cy="412.455" r="21.3333"/>
<circle fill="#006363" stroke="#006363" stroke-width="0" cx="-265.02" cy="349.94" r="21.3333"/>
<polygon points="707.961,365.147 668.401,349.164 749.413,148.643 788.973,164.625" style="fill:#006363; stroke:#000000;stroke-width:0"/>
<circle fill="#006363" stroke="#006363" stroke-width="0" cx="688.181" cy="357.155" r="21.3333"/>
<circle fill="#006363" stroke="#006363" stroke-width="0" cx="769.193" cy="156.634" r="21.3333"/>
<polygon points="1256,469.333 256,1469.33 -744,469.333" style="fill:#000000; stroke:#000000;stroke-width:0"/>
<polygon points="-744,42.6667 256,-957.333 1256,42.6667" style="fill:#000000; stroke:#000000;stroke-width:0"/>
<circle fill="#a64b00" stroke="#a64b00" stroke-width="0" cx="-67.081" cy="412.455" r="21.3333"/>
<circle fill="#a64b00" stroke="#a64b00" stroke-width="0" cx="-265.02" cy="349.94" r="21.3333"/>
<circle fill="#a64b00" stroke="#a64b00" stroke-width="0" cx="688.181" cy="357.155" r="21.3333"/>
<circle fill="#a64b00" stroke="#a64b00" stroke-width="0" cx="769.193" cy="156.634" r="21.3333"/>
<circle fill="#a64b00" stroke="#a64b00" stroke-width="0" cx="144.688" cy="363.968" r="21.3333"/>
</svg>
