<?xml version="1.0" encoding="utf-8"?> <!-- Generator: Adobe Illustrator 13.0.0, SVG Export Plug-In . SVG Version: 6.00 Build 14948)  --> <svg version="1.2" baseProfile="tiny" id="Layer_1" xmlns="http://www.w3.org/2000/svg" xmlns:xlink="http://www.w3.org/1999/xlink" x="0px" y="0px" width="512px" height="512px" viewBox="0 0 512 512" xml:space="preserve">
<polygon points="0,0 512,0 512,512 0,512" style="fill:#ffffff; stroke:#000000;stroke-width:0"/>
<polygon points="-215.386,184.125 -178.967,161.897 -70.544,339.536 -106.963,361.764" style="fill:#006363; stroke:#000000;stroke-width:0"/>
<circle fill="#006363" stroke="#006363" stroke-width="0" cx="-197.177" cy="173.011" r="21.3333"/>
<circle fill="#006363" stroke="#006363" stroke-width="0" cx="-88.7535" cy="350.65" r="21.3333"/>
<polygon points="626.821,425.244 602.331,390.306 774.47,269.643 798.96,304.582" style="fill:#006363; stroke:#000000;stroke-width:0"/>
<circle fill="#006363" stroke="#006363" stroke-width="0" cx="614.576" cy="407.775" r="21.3333"/>
<circle fill="#006363" stroke="#006363" stroke-width="0" cx="786.715" cy="287.113" r="21.3333"/>
<polygon points="1256,469.333 256,1469.33 -744,469.333" style="fill:#000000; stroke:#000000;stroke-width:0"/>
<polygon points="-744,42.6667 256,-957.333 1256,42.6667" style="fill:#000000; stroke:#000000;stroke-width:0"/>
<circle fill="#a64b00" stroke="#a64b00" stroke-width="0" cx="-197.177" cy="173.011" r="21.3333"/>
<circle fill="#a64b00" stroke="#a64b00" stroke-width="0" cx="-88.7535" cy="350.65" r="21.3333"/>
<circle fill="#a64b00" stroke="#a64b00" stroke-width="0" cx="614.576" cy="407.775" r="21.3333"/>
<circle fill="#a64b00" stroke="#a64b00" stroke-width="0" cx="786.715" cy="287.113" r="21.3333"/>
<circle fill="#a64b00" stroke="#a64b00" stroke-width="0" cx="197.184" cy="421.212" r="21.3333"/>
</svg>
