<?xml version="1.0" encoding="utf-8"?> <!-- Generator: Adobe Illustrator 13.0.0, SVG Export Plug-In . SVG Version: 6.00 Build 14948)  --> <svg version="1.2" baseProfile="tiny" id="Layer_1" xmlns="http://www.w3.org/2000/svg" xmlns:xlink="http://www.w3.org/1999/xlink" x="0px" y="0px" width="512px" height="512px" viewBox="0 0 512 512" xml:space="preserve">
<polygon points="0,0 512,0 512,512 0,512" style="fill:#ffffff; stroke:#000000;stroke-width:0"/>
<polygon points="-119.085,169.636 -117.095,212.256 -334.214,222.395 -336.204,179.774" style="fill:#006363; stroke:#000000;stroke-width:0"/>
<circle fill="#006363" stroke="#006363" stroke-width="0" cx="-118.09" cy="190.946" r="21.3333"/>
<circle fill="#006363" stroke="#006363" stroke-width="0" cx="-335.209" cy="201.084" r="21.3333"/>
<polygon points="754.713,431.078 720.673,405.354 849.876,234.383 883.916,260.107" style="fill:#006363; stroke:#000000;stroke-width:0"/>
<circle fill="#006363" stroke="#006363" stroke-width="0" cx="737.693" cy="418.216" r="21.3333"/>
<circle fill="#006363" stroke="#006363" stroke-width="0" cx="866.896" cy="247.245" r="21.3333"/>
<polygon points="1256,469.333 256,1469.33 -744,469.333" style="fill:#000000; stroke:#000000;stroke-width:0"/>
<polygon points="-744,42.6667 256,-957.333 1256,42.6667" style="fill:#000000; stroke:#000000;stroke-width:0"/>
<circle fill="#a64b00" stroke="#a64b00" stroke-width="0" cx="-118.09" cy="190.946" r="21.3333"/>
<circle fill="#a64b00" stroke="#a64b00" stroke-width="0" cx="-335.209" cy="201.084" r="21.3333"/>
<circle fill="#a64b00" stroke="#a64b00" stroke-width="0" cx="737.693" cy="418.216" r="21.3333"/>
<circle fill="#a64b00" stroke="#a64b00" stroke-width="0" cx="866.896" cy="247.245" r="21.3333"/>
<circle fill="#a64b00" stroke="#a64b00" stroke-width="0" cx="6.8873" cy="392.59" r="21.3333"/>
</svg>
