<?xml version="1.0" encoding="utf-8"?> <!-- Generator: Adobe Illustrator 13.0.0, SVG Export Plug-In . SVG Version: 6.00 Build 14948)  --> <svg version="1.2" baseProfile="tiny" id="Layer_1" xmlns="http://www.w3.org/2000/svg" xmlns:xlink="http://www.w3.org/1999/xlink" x="0px" y="0px" width="512px" height="512px" viewBox="0 0 512 512" xml:space="preserve">
<polygon points="0,0 512,0 512,512 0,512" style="fill:#ffffff; stroke:#000000;stroke-width:0"/>
<polygon points="-142.706,153.502 -116.594,119.759 55.6241,253.025 29.5125,286.769" style="fill:#006363; stroke:#000000;stroke-width:0"/>
<circle fill="#006363" stroke="#006363" stroke-width="0" cx="-129.65" cy="136.631" r="21.3333"/>
<circle fill="#006363" stroke="#006363" stroke-width="0" cx="42.5683" cy="269.897" r="21.3333"/>
<polygon points="623.291,319.605 581.565,328.518 536.465,117.404 578.19,108.491" style="fill:#006363; stroke:#000000;stroke-width:0"/>
<circle fill="#006363" stroke="#006363" stroke-width="0" cx="602.428" cy="324.062" r="21.3333"/>
<circle fill="#006363" stroke="#006363" stroke-width="0" cx="557.328" cy="112.948" r="21.3333"/>
<polygon points="1256,469.333 256,1469.33 -744,469.333" style="fill:#000000; stroke:#000000;stroke-width:0"/>
<polygon points="-744,42.6667 256,-957.333 1256,42.6667" style="fill:#000000; stroke:#000000;stroke-width:0"/>
<circle fill="#a64b00" stroke="#a64b00" stroke-width="0" cx="-129.65" cy="136.631" r="21.3333"/>
<circle fill="#a64b00" stroke="#a64b00" stroke-width="0" cx="42.5683" cy="269.897" r="21.3333"/>
<circle fill="#a64b00" stroke="#a64b00" stroke-width="0" cx="602.428" cy="324.062" r="21.3333"/>
<circle fill="#a64b00" stroke="#a64b00" stroke-width="0" cx="557.328" cy="112.948" r="21.3333"/>
<circle fill="#a64b00" stroke="#a64b00" stroke-width="0" cx="423.274" cy="125.455" r="21.3333"/>
</svg>
