<?xml version="1.0" encoding="utf-8"?> <!-- Generator: Adobe Illustrator 13.0.0, SVG Export Plug-In . SVG Version: 6.00 Build 14948)  --> <svg version="1.2" baseProfile="tiny" id="Layer_1" xmlns="http://www.w3.org/2000/svg" xmlns:xlink="http://www.w3.org/1999/xlink" x="0px" y="0px" width="512px" height="512px" viewBox="0 0 512 512" xml:space="preserve">
<polygon points="0,0 512,0 512,512 0,512" style="fill:#ffffff; stroke:#000000;stroke-width:0"/>
<polygon points="-121.372,187.319 -117.026,229.764 -340.321,252.628 -344.667,210.184" style="fill:#006363; stroke:#000000;stroke-width:0"/>
<circle fill="#006363" stroke="#006363" stroke-width="0" cx="-119.199" cy="208.541" r="21.3333"/>
<circle fill="#006363" stroke="#006363" stroke-width="0" cx="-342.494" cy="231.406" r="21.3333"/>
<polygon points="758.041,441.543 725,414.548 856.745,253.297 889.786,280.292" style="fill:#006363; stroke:#000000;stroke-width:0"/>
<circle fill="#006363" stroke="#006363" stroke-width="0" cx="741.521" cy="428.045" r="21.3333"/>
<circle fill="#006363" stroke="#006363" stroke-width="0" cx="873.266" cy="266.795" r="21.3333"/>
<polygon points="1256,469.333 256,1469.33 -744,469.333" style="fill:#000000; stroke:#000000;stroke-width:0"/>
<polygon points="-744,42.6667 256,-957.333 1256,42.6667" style="fill:#000000; stroke:#000000;stroke-width:0"/>
<circle fill="#a64b00" stroke="#a64b00" stroke-width="0" cx="-119.199" cy="208.541" r="21.3333"/>
<circle fill="#a64b00" stroke="#a64b00" stroke-width="0" cx="-342.494" cy="231.406" r="21.3333"/>
<circle fill="#a64b00" stroke="#a64b00" stroke-width="0" cx="741.521" cy="428.045" r="21.3333"/>
<circle fill="#a64b00" stroke="#a64b00" stroke-width="0" cx="873.266" cy="266.795" r="21.3333"/>
<circle fill="#a64b00" stroke="#a64b00" stroke-width="0" cx="-2.65738" cy="354.428" r="21.3333"/>
</svg>
