<?xml version="1.0" encoding="utf-8"?> <!-- Generator: Adobe Illustrator 13.0.0, SVG Export Plug-In . SVG Version: 6.00 Build 14948)  --> <svg version="1.2" baseProfile="tiny" id="Layer_1" xmlns="http://www.w3.org/2000/svg" xmlns:xlink="http://www.w3.org/1999/xlink" x="0px" y="0px" width="512px" height="512px" viewBox="0 0 512 512" xml:space="preserve">
<polygon points="0,0 512,0 512,512 0,512" style="fill:#ffffff; stroke:#000000;stroke-width:0"/>
<polygon points="-69.0049,217.347 -68.0195,260.002 -291.952,265.175 -292.938,222.52" style="fill:#006363; stroke:#000000;stroke-width:0"/>
<circle fill="#006363" stroke="#006363" stroke-width="0" cx="-68.5122" cy="238.675" r="21.3333"/>
<circle fill="#006363" stroke="#006363" stroke-width="0" cx="-292.445" cy="243.848" r="21.3333"/>
<polygon points="743.484,276.637 701.935,266.934 748.941,65.658 790.49,75.3613" style="fill:#006363; stroke:#000000;stroke-width:0"/>
<circle fill="#006363" stroke="#006363" stroke-width="0" cx="722.71" cy="271.785" r="21.3333"/>
<circle fill="#006363" stroke="#006363" stroke-width="0" cx="769.716" cy="70.5097" r="21.3333"/>
<polygon points="1256,469.333 256,1469.33 -744,469.333" style="fill:#000000; stroke:#000000;stroke-width:0"/>
<polygon points="-744,42.6667 256,-957.333 1256,42.6667" style="fill:#000000; stroke:#000000;stroke-width:0"/>
<circle fill="#a64b00" stroke="#a64b00" stroke-width="0" cx="-68.5122" cy="238.675" r="21.3333"/>
<circle fill="#a64b00" stroke="#a64b00" stroke-width="0" cx="-292.445" cy="243.848" r="21.3333"/>
<circle fill="#a64b00" stroke="#a64b00" stroke-width="0" cx="722.71" cy="271.785" r="21.3333"/>
<circle fill="#a64b00" stroke="#a64b00" stroke-width="0" cx="769.716" cy="70.5097" r="21.3333"/>
<circle fill="#a64b00" stroke="#a64b00" stroke-width="0" cx="111.879" cy="278.104" r="21.3333"/>
</svg>
