<?xml version="1.0" encoding="utf-8"?> <!-- Generator: Adobe Illustrator 13.0.0, SVG Export Plug-In . SVG Version: 6.00 Build 14948)  --> <svg version="1.2" baseProfile="tiny" id="Layer_1" xmlns="http://www.w3.org/2000/svg" xmlns:xlink="http://www.w3.org/1999/xlink" x="0px" y="0px" width="512px" height="512px" viewBox="0 0 512 512" xml:space="preserve">
<polygon points="0,0 512,0 512,512 0,512" style="fill:#ffffff; stroke:#000000;stroke-width:0"/>
<polygon points="-96.7602,55.7742 -82.9624,96.1483 -290.955,167.229 -304.753,126.855" style="fill:#006363; stroke:#000000;stroke-width:0"/>
<circle fill="#006363" stroke="#006363" stroke-width="0" cx="-89.8613" cy="75.9612" r="21.3333"/>
<circle fill="#006363" stroke="#006363" stroke-width="0" cx="-297.854" cy="147.042" r="21.3333"/>
<polygon points="746.81,322.987 706.734,308.346 778.117,112.953 818.193,127.594" style="fill:#006363; stroke:#000000;stroke-width:0"/>
<circle fill="#006363" stroke="#006363" stroke-width="0" cx="726.772" cy="315.667" r="21.3333"/>
<circle fill="#006363" stroke="#006363" stroke-width="0" cx="798.155" cy="120.273" r="21.3333"/>
<polygon points="1256,469.333 256,1469.33 -744,469.333" style="fill:#000000; stroke:#000000;stroke-width:0"/>
<polygon points="-744,42.6667 256,-957.333 1256,42.6667" style="fill:#000000; stroke:#000000;stroke-width:0"/>
<circle fill="#a64b00" stroke="#a64b00" stroke-width="0" cx="-89.8613" cy="75.9612" r="21.3333"/>
<circle fill="#a64b00" stroke="#a64b00" stroke-width="0" cx="-297.854" cy="147.042" r="21.3333"/>
<circle fill="#a64b00" stroke="#a64b00" stroke-width="0" cx="726.772" cy="315.667" r="21.3333"/>
<circle fill="#a64b00" stroke="#a64b00" stroke-width="0" cx="798.155" cy="120.273" r="21.3333"/>
<circle fill="#a64b00" stroke="#a64b00" stroke-width="0" cx="81.455" cy="134.996" r="21.3333"/>
</svg>
