<?xml version="1.0" encoding="utf-8"?> <!-- Generator: Adobe Illustrator 13.0.0, SVG Export Plug-In . SVG Version: 6.00 Build 14948)  --> <svg version="1.2" baseProfile="tiny" id="Layer_1" xmlns="http://www.w3.org/2000/svg" xmlns:xlink="http://www.w3.org/1999/xlink" x="0px" y="0px" width="512px" height="512px" viewBox="0 0 512 512" xml:space="preserve">
<polygon points="0,0 512,0 512,512 0,512" style="fill:#ffffff; stroke:#000000;stroke-width:0"/>
<polygon points="-74.0016,211.161 -72.5407,253.802 -288.005,261.184 -289.466,218.543" style="fill:#006363; stroke:#000000;stroke-width:0"/>
<circle fill="#006363" stroke="#006363" stroke-width="0" cx="-73.2712" cy="232.482" r="21.3333"/>
<circle fill="#006363" stroke="#006363" stroke-width="0" cx="-288.735" cy="239.864" r="21.3333"/>
<polygon points="742.793,281.851 701.293,271.944 750.906,64.1158 792.407,74.0229" style="fill:#006363; stroke:#000000;stroke-width:0"/>
<circle fill="#006363" stroke="#006363" stroke-width="0" cx="722.043" cy="276.898" r="21.3333"/>
<circle fill="#006363" stroke="#006363" stroke-width="0" cx="771.656" cy="69.0694" r="21.3333"/>
<polygon points="1256,469.333 256,1469.33 -744,469.333" style="fill:#000000; stroke:#000000;stroke-width:0"/>
<polygon points="-744,42.6667 256,-957.333 1256,42.6667" style="fill:#000000; stroke:#000000;stroke-width:0"/>
<circle fill="#a64b00" stroke="#a64b00" stroke-width="0" cx="-73.2712" cy="232.482" r="21.3333"/>
<circle fill="#a64b00" stroke="#a64b00" stroke-width="0" cx="-288.735" cy="239.864" r="21.3333"/>
<circle fill="#a64b00" stroke="#a64b00" stroke-width="0" cx="722.043" cy="276.898" r="21.3333"/>
<circle fill="#a64b00" stroke="#a64b00" stroke-width="0" cx="771.656" cy="69.0694" r="21.3333"/>
<circle fill="#a64b00" stroke="#a64b00" stroke-width="0" cx="110.686" cy="297.185" r="21.3333"/>
</svg>
