<?xml version="1.0" encoding="utf-8"?> <!-- Generator: Adobe Illustrator 13.0.0, SVG Export Plug-In . SVG Version: 6.00 Build 14948)  --> <svg version="1.2" baseProfile="tiny" id="Layer_1" xmlns="http://www.w3.org/2000/svg" xmlns:xlink="http://www.w3.org/1999/xlink" x="0px" y="0px" width="512px" height="512px" viewBox="0 0 512 512" xml:space="preserve">
<polygon points="0,0 512,0 512,512 0,512" style="fill:#ffffff; stroke:#000000;stroke-width:0"/>
<polygon points="-166.562,269.458 -201.882,245.523 -83.691,71.1127 -48.3704,95.0481" style="fill:#006363; stroke:#000000;stroke-width:0"/>
<circle fill="#006363" stroke="#006363" stroke-width="0" cx="-184.222" cy="257.491" r="21.3333"/>
<circle fill="#006363" stroke="#006363" stroke-width="0" cx="-66.0307" cy="83.0804" r="21.3333"/>
<polygon points="571.428,312.744 584.267,272.054 786.527,335.875 773.688,376.564" style="fill:#006363; stroke:#000000;stroke-width:0"/>
<circle fill="#006363" stroke="#006363" stroke-width="0" cx="577.847" cy="292.399" r="21.3333"/>
<circle fill="#006363" stroke="#006363" stroke-width="0" cx="780.108" cy="356.22" r="21.3333"/>
<polygon points="1256,469.333 256,1469.33 -744,469.333" style="fill:#000000; stroke:#000000;stroke-width:0"/>
<polygon points="-744,42.6667 256,-957.333 1256,42.6667" style="fill:#000000; stroke:#000000;stroke-width:0"/>
<circle fill="#a64b00" stroke="#a64b00" stroke-width="0" cx="-184.222" cy="257.491" r="21.3333"/>
<circle fill="#a64b00" stroke="#a64b00" stroke-width="0" cx="-66.0307" cy="83.0804" r="21.3333"/>
<circle fill="#a64b00" stroke="#a64b00" stroke-width="0" cx="577.847" cy="292.399" r="21.3333"/>
<circle fill="#a64b00" stroke="#a64b00" stroke-width="0" cx="780.108" cy="356.22" r="21.3333"/>
<circle fill="#a64b00" stroke="#a64b00" stroke-width="0" cx="237.749" cy="287.644" r="21.3333"/>
</svg>
