<?xml version="1.0" encoding="utf-8"?> <!-- Generator: Adobe Illustrator 13.0.0, SVG Export Plug-In . SVG Version: 6.00 Build 14948)  --> <svg version="1.2" baseProfile="tiny" id="Layer_1" xmlns="http://www.w3.org/2000/svg" xmlns:xlink="http://www.w3.org/1999/xlink" x="0px" y="0px" width="512px" height="512px" viewBox="0 0 512 512" xml:space="preserve">
<polygon points="0,0 512,0 512,512 0,512" style="fill:#ffffff; stroke:#000000;stroke-width:0"/>
<polygon points="-144.584,117.255 -133.196,76.1362 75.8655,134.034 64.478,175.153" style="fill:#006363; stroke:#000000;stroke-width:0"/>
<circle fill="#006363" stroke="#006363" stroke-width="0" cx="-138.89" cy="96.6957" r="21.3333"/>
<circle fill="#006363" stroke="#006363" stroke-width="0" cx="70.1717" cy="154.593" r="21.3333"/>
<polygon points="561.457,316.19 520.243,305.151 575.993,97.0048 617.207,108.044" style="fill:#006363; stroke:#000000;stroke-width:0"/>
<circle fill="#006363" stroke="#006363" stroke-width="0" cx="540.85" cy="310.67" r="21.3333"/>
<circle fill="#006363" stroke="#006363" stroke-width="0" cx="596.6" cy="102.524" r="21.3333"/>
<polygon points="1256,469.333 256,1469.33 -744,469.333" style="fill:#000000; stroke:#000000;stroke-width:0"/>
<polygon points="-744,42.6667 256,-957.333 1256,42.6667" style="fill:#000000; stroke:#000000;stroke-width:0"/>
<circle fill="#a64b00" stroke="#a64b00" stroke-width="0" cx="-138.89" cy="96.6957" r="21.3333"/>
<circle fill="#a64b00" stroke="#a64b00" stroke-width="0" cx="70.1717" cy="154.593" r="21.3333"/>
<circle fill="#a64b00" stroke="#a64b00" stroke-width="0" cx="540.85" cy="310.67" r="21.3333"/>
<circle fill="#a64b00" stroke="#a64b00" stroke-width="0" cx="596.6" cy="102.524" r="21.3333"/>
<circle fill="#a64b00" stroke="#a64b00" stroke-width="0" cx="444.153" cy="440.293" r="21.3333"/>
</svg>
