<?xml version="1.0" encoding="utf-8"?> <!-- Generator: Adobe Illustrator 13.0.0, SVG Export Plug-In . SVG Version: 6.00 Build 14948)  --> <svg version="1.2" baseProfile="tiny" id="Layer_1" xmlns="http://www.w3.org/2000/svg" xmlns:xlink="http://www.w3.org/1999/xlink" x="0px" y="0px" width="512px" height="512px" viewBox="0 0 512 512" xml:space="preserve">
<polygon points="0,0 512,0 512,512 0,512" style="fill:#ffffff; stroke:#000000;stroke-width:0"/>
<polygon points="-113.042,222.998 -72.7471,208.972 -1.32175,414.17 -41.6171,428.196" style="fill:#006363; stroke:#000000;stroke-width:0"/>
<circle fill="#006363" stroke="#006363" stroke-width="0" cx="-92.8948" cy="215.985" r="21.3333"/>
<circle fill="#006363" stroke="#006363" stroke-width="0" cx="-21.4694" cy="421.183" r="21.3333"/>
<polygon points="694.78,285.328 668.665,319.069 498.115,187.062 524.23,153.322" style="fill:#006363; stroke:#000000;stroke-width:0"/>
<circle fill="#006363" stroke="#006363" stroke-width="0" cx="681.722" cy="302.199" r="21.3333"/>
<circle fill="#006363" stroke="#006363" stroke-width="0" cx="511.173" cy="170.192" r="21.3333"/>
<polygon points="1256,469.333 256,1469.33 -744,469.333" style="fill:#000000; stroke:#000000;stroke-width:0"/>
<polygon points="-744,42.6667 256,-957.333 1256,42.6667" style="fill:#000000; stroke:#000000;stroke-width:0"/>
<circle fill="#a64b00" stroke="#a64b00" stroke-width="0" cx="-92.8948" cy="215.985" r="21.3333"/>
<circle fill="#a64b00" stroke="#a64b00" stroke-width="0" cx="-21.4694" cy="421.183" r="21.3333"/>
<circle fill="#a64b00" stroke="#a64b00" stroke-width="0" cx="681.722" cy="302.199" r="21.3333"/>
<circle fill="#a64b00" stroke="#a64b00" stroke-width="0" cx="511.173" cy="170.192" r="21.3333"/>
<circle fill="#a64b00" stroke="#a64b00" stroke-width="0" cx="392.253" cy="411.671" r="21.3333"/>
</svg>
