<?xml version="1.0" encoding="utf-8"?> <!-- Generator: Adobe Illustrator 13.0.0, SVG Export Plug-In . SVG Version: 6.00 Build 14948)  --> <svg version="1.2" baseProfile="tiny" id="Layer_1" xmlns="http://www.w3.org/2000/svg" xmlns:xlink="http://www.w3.org/1999/xlink" x="0px" y="0px" width="512px" height="512px" viewBox="0 0 512 512" xml:space="preserve">
<polygon points="0,0 512,0 512,512 0,512" style="fill:#ffffff; stroke:#000000;stroke-width:0"/>
<polygon points="-132.75,200.723 -126.817,242.975 -334.715,272.167 -340.648,229.915" style="fill:#006363; stroke:#000000;stroke-width:0"/>
<circle fill="#006363" stroke="#006363" stroke-width="0" cx="-129.783" cy="221.849" r="21.3333"/>
<circle fill="#006363" stroke="#006363" stroke-width="0" cx="-337.681" cy="251.041" r="21.3333"/>
<polygon points="755.848,454.105 723.523,426.256 865.949,260.933 898.274,288.782" style="fill:#006363; stroke:#000000;stroke-width:0"/>
<circle fill="#006363" stroke="#006363" stroke-width="0" cx="739.685" cy="440.18" r="21.3333"/>
<circle fill="#006363" stroke="#006363" stroke-width="0" cx="882.111" cy="274.857" r="21.3333"/>
<polygon points="1256,469.333 256,1469.33 -744,469.333" style="fill:#000000; stroke:#000000;stroke-width:0"/>
<polygon points="-744,42.6667 256,-957.333 1256,42.6667" style="fill:#000000; stroke:#000000;stroke-width:0"/>
<circle fill="#a64b00" stroke="#a64b00" stroke-width="0" cx="-129.783" cy="221.849" r="21.3333"/>
<circle fill="#a64b00" stroke="#a64b00" stroke-width="0" cx="-337.681" cy="251.041" r="21.3333"/>
<circle fill="#a64b00" stroke="#a64b00" stroke-width="0" cx="739.685" cy="440.18" r="21.3333"/>
<circle fill="#a64b00" stroke="#a64b00" stroke-width="0" cx="882.111" cy="274.857" r="21.3333"/>
<circle fill="#a64b00" stroke="#a64b00" stroke-width="0" cx="-9.21934" cy="249.482" r="21.3333"/>
</svg>
