<?xml version="1.0" encoding="utf-8"?> <!-- Generator: Adobe Illustrator 13.0.0, SVG Export Plug-In . SVG Version: 6.00 Build 14948)  --> <svg version="1.2" baseProfile="tiny" id="Layer_1" xmlns="http://www.w3.org/2000/svg" xmlns:xlink="http://www.w3.org/1999/xlink" x="0px" y="0px" width="512px" height="512px" viewBox="0 0 512 512" xml:space="preserve">
<polygon points="0,0 512,0 512,512 0,512" style="fill:#ffffff; stroke:#000000;stroke-width:0"/>
<polygon points="-101.498,166.375 -71.9405,135.605 85.6785,287.008 56.1214,317.778" style="fill:#006363; stroke:#000000;stroke-width:0"/>
<circle fill="#006363" stroke="#006363" stroke-width="0" cx="-86.719" cy="150.99" r="21.3333"/>
<circle fill="#006363" stroke="#006363" stroke-width="0" cx="70.9" cy="302.393" r="21.3333"/>
<polygon points="430.114,192.576 431.888,149.946 647.382,158.915 645.608,201.544" style="fill:#006363; stroke:#000000;stroke-width:0"/>
<circle fill="#006363" stroke="#006363" stroke-width="0" cx="431.001" cy="171.261" r="21.3333"/>
<circle fill="#006363" stroke="#006363" stroke-width="0" cx="646.495" cy="180.229" r="21.3333"/>
<polygon points="1256,469.333 256,1469.33 -744,469.333" style="fill:#000000; stroke:#000000;stroke-width:0"/>
<polygon points="-744,42.6667 256,-957.333 1256,42.6667" style="fill:#000000; stroke:#000000;stroke-width:0"/>
<circle fill="#a64b00" stroke="#a64b00" stroke-width="0" cx="-86.719" cy="150.99" r="21.3333"/>
<circle fill="#a64b00" stroke="#a64b00" stroke-width="0" cx="70.9" cy="302.393" r="21.3333"/>
<circle fill="#a64b00" stroke="#a64b00" stroke-width="0" cx="431.001" cy="171.261" r="21.3333"/>
<circle fill="#a64b00" stroke="#a64b00" stroke-width="0" cx="646.495" cy="180.229" r="21.3333"/>
<circle fill="#a64b00" stroke="#a64b00" stroke-width="0" cx="61.6664" cy="172.933" r="21.3333"/>
</svg>
