<?xml version="1.0" encoding="utf-8"?> <!-- Generator: Adobe Illustrator 13.0.0, SVG Export Plug-In . SVG Version: 6.00 Build 14948)  --> <svg version="1.2" baseProfile="tiny" id="Layer_1" xmlns="http://www.w3.org/2000/svg" xmlns:xlink="http://www.w3.org/1999/xlink" x="0px" y="0px" width="512px" height="512px" viewBox="0 0 512 512" xml:space="preserve">
<polygon points="0,0 512,0 512,512 0,512" style="fill:#ffffff; stroke:#000000;stroke-width:0"/>
<polygon points="-415.029,146.635 -416.271,103.986 -199.918,97.6881 -198.676,140.337" style="fill:#006363; stroke:#000000;stroke-width:0"/>
<circle fill="#006363" stroke="#006363" stroke-width="0" cx="-415.65" cy="125.31" r="21.3333"/>
<circle fill="#006363" stroke="#006363" stroke-width="0" cx="-199.297" cy="119.012" r="21.3333"/>
<polygon points="886.834,216.71 929.354,220.244 911.494,435.183 868.974,431.649" style="fill:#006363; stroke:#000000;stroke-width:0"/>
<circle fill="#006363" stroke="#006363" stroke-width="0" cx="908.094" cy="218.477" r="21.3333"/>
<circle fill="#006363" stroke="#006363" stroke-width="0" cx="890.234" cy="433.416" r="21.3333"/>
<polygon points="1256,469.333 256,1469.33 -744,469.333" style="fill:#000000; stroke:#000000;stroke-width:0"/>
<polygon points="-744,42.6667 256,-957.333 1256,42.6667" style="fill:#000000; stroke:#000000;stroke-width:0"/>
<circle fill="#a64b00" stroke="#a64b00" stroke-width="0" cx="-415.65" cy="125.31" r="21.3333"/>
<circle fill="#a64b00" stroke="#a64b00" stroke-width="0" cx="-199.297" cy="119.012" r="21.3333"/>
<circle fill="#a64b00" stroke="#a64b00" stroke-width="0" cx="908.094" cy="218.477" r="21.3333"/>
<circle fill="#a64b00" stroke="#a64b00" stroke-width="0" cx="890.234" cy="433.416" r="21.3333"/>
<circle fill="#a64b00" stroke="#a64b00" stroke-width="0" cx="40.5608" cy="169.773" r="21.3333"/>
</svg>
