<?xml version="1.0" encoding="utf-8"?> <!-- Generator: Adobe Illustrator 13.0.0, SVG Export Plug-In . SVG Version: 6.00 Build 14948)  --> <svg version="1.2" baseProfile="tiny" id="Layer_1" xmlns="http://www.w3.org/2000/svg" xmlns:xlink="http://www.w3.org/1999/xlink" x="0px" y="0px" width="512px" height="512px" viewBox="0 0 512 512" xml:space="preserve">
<polygon points="0,0 512,0 512,512 0,512" style="fill:#ffffff; stroke:#000000;stroke-width:0"/>
<polygon points="-153.96,191.525 -111.728,197.598 -142.988,414.975 -185.22,408.902" style="fill:#006363; stroke:#000000;stroke-width:0"/>
<circle fill="#006363" stroke="#006363" stroke-width="0" cx="-132.844" cy="194.561" r="21.3333"/>
<circle fill="#006363" stroke="#006363" stroke-width="0" cx="-164.104" cy="411.939" r="21.3333"/>
<polygon points="656.337,452.292 623.05,425.601 758.338,256.884 791.625,283.575" style="fill:#006363; stroke:#000000;stroke-width:0"/>
<circle fill="#006363" stroke="#006363" stroke-width="0" cx="639.693" cy="438.947" r="21.3333"/>
<circle fill="#006363" stroke="#006363" stroke-width="0" cx="774.982" cy="270.229" r="21.3333"/>
<polygon points="1256,469.333 256,1469.33 -744,469.333" style="fill:#000000; stroke:#000000;stroke-width:0"/>
<polygon points="-744,42.6667 256,-957.333 1256,42.6667" style="fill:#000000; stroke:#000000;stroke-width:0"/>
<circle fill="#a64b00" stroke="#a64b00" stroke-width="0" cx="-132.844" cy="194.561" r="21.3333"/>
<circle fill="#a64b00" stroke="#a64b00" stroke-width="0" cx="-164.104" cy="411.939" r="21.3333"/>
<circle fill="#a64b00" stroke="#a64b00" stroke-width="0" cx="639.693" cy="438.947" r="21.3333"/>
<circle fill="#a64b00" stroke="#a64b00" stroke-width="0" cx="774.982" cy="270.229" r="21.3333"/>
<circle fill="#a64b00" stroke="#a64b00" stroke-width="0" cx="184.657" cy="220.861" r="21.3333"/>
</svg>
