<?xml version="1.0" encoding="utf-8"?> <!-- Generator: Adobe Illustrator 13.0.0, SVG Export Plug-In . SVG Version: 6.00 Build 14948)  --> <svg version="1.2" baseProfile="tiny" id="Layer_1" xmlns="http://www.w3.org/2000/svg" xmlns:xlink="http://www.w3.org/1999/xlink" x="0px" y="0px" width="512px" height="512px" viewBox="0 0 512 512" xml:space="preserve">
<polygon points="0,0 512,0 512,512 0,512" style="fill:#ffffff; stroke:#000000;stroke-width:0"/>
<polygon points="-53.3844,384.999 -65.5293,425.9 -280.29,362.131 -268.145,321.23" style="fill:#006363; stroke:#000000;stroke-width:0"/>
<circle fill="#006363" stroke="#006363" stroke-width="0" cx="-59.4568" cy="405.449" r="21.3333"/>
<circle fill="#006363" stroke="#006363" stroke-width="0" cx="-274.218" cy="341.68" r="21.3333"/>
<polygon points="710.56,358.574 670.855,342.955 748.726,145.003 788.431,160.622" style="fill:#006363; stroke:#000000;stroke-width:0"/>
<circle fill="#006363" stroke="#006363" stroke-width="0" cx="690.707" cy="350.765" r="21.3333"/>
<circle fill="#006363" stroke="#006363" stroke-width="0" cx="768.578" cy="152.813" r="21.3333"/>
<polygon points="1256,469.333 256,1469.33 -744,469.333" style="fill:#000000; stroke:#000000;stroke-width:0"/>
<polygon points="-744,42.6667 256,-957.333 1256,42.6667" style="fill:#000000; stroke:#000000;stroke-width:0"/>
<circle fill="#a64b00" stroke="#a64b00" stroke-width="0" cx="-59.4568" cy="405.449" r="21.3333"/>
<circle fill="#a64b00" stroke="#a64b00" stroke-width="0" cx="-274.218" cy="341.68" r="21.3333"/>
<circle fill="#a64b00" stroke="#a64b00" stroke-width="0" cx="690.707" cy="350.765" r="21.3333"/>
<circle fill="#a64b00" stroke="#a64b00" stroke-width="0" cx="768.578" cy="152.813" r="21.3333"/>
<circle fill="#a64b00" stroke="#a64b00" stroke-width="0" cx="142.899" cy="335.347" r="21.3333"/>
</svg>
