<?xml version="1.0" encoding="utf-8"?> <!-- Generator: Adobe Illustrator 13.0.0, SVG Export Plug-In . SVG Version: 6.00 Build 14948)  --> <svg version="1.2" baseProfile="tiny" id="Layer_1" xmlns="http://www.w3.org/2000/svg" xmlns:xlink="http://www.w3.org/1999/xlink" x="0px" y="0px" width="512px" height="512px" viewBox="0 0 512 512" xml:space="preserve">
<polygon points="0,0 512,0 512,512 0,512" style="fill:#ffffff; stroke:#000000;stroke-width:0"/>
<polygon points="-118.523,220.78 -81.1195,241.309 -184.197,429.112 -221.6,408.583" style="fill:#006363; stroke:#000000;stroke-width:0"/>
<circle fill="#006363" stroke="#006363" stroke-width="0" cx="-99.8211" cy="231.044" r="21.3333"/>
<circle fill="#006363" stroke="#006363" stroke-width="0" cx="-202.898" cy="418.847" r="21.3333"/>
<polygon points="673.271,452.627 637.083,430.025 748.414,251.78 784.602,274.383" style="fill:#006363; stroke:#000000;stroke-width:0"/>
<circle fill="#006363" stroke="#006363" stroke-width="0" cx="655.177" cy="441.326" r="21.3333"/>
<circle fill="#006363" stroke="#006363" stroke-width="0" cx="766.508" cy="263.082" r="21.3333"/>
<polygon points="1256,469.333 256,1469.33 -744,469.333" style="fill:#000000; stroke:#000000;stroke-width:0"/>
<polygon points="-744,42.6667 256,-957.333 1256,42.6667" style="fill:#000000; stroke:#000000;stroke-width:0"/>
<circle fill="#a64b00" stroke="#a64b00" stroke-width="0" cx="-99.8211" cy="231.044" r="21.3333"/>
<circle fill="#a64b00" stroke="#a64b00" stroke-width="0" cx="-202.898" cy="418.847" r="21.3333"/>
<circle fill="#a64b00" stroke="#a64b00" stroke-width="0" cx="655.177" cy="441.326" r="21.3333"/>
<circle fill="#a64b00" stroke="#a64b00" stroke-width="0" cx="766.508" cy="263.082" r="21.3333"/>
<circle fill="#a64b00" stroke="#a64b00" stroke-width="0" cx="178.095" cy="115.915" r="21.3333"/>
</svg>
