<?xml version="1.0" encoding="utf-8"?> <!-- Generator: Adobe Illustrator 13.0.0, SVG Export Plug-In . SVG Version: 6.00 Build 14948)  --> <svg version="1.2" baseProfile="tiny" id="Layer_1" xmlns="http://www.w3.org/2000/svg" xmlns:xlink="http://www.w3.org/1999/xlink" x="0px" y="0px" width="512px" height="512px" viewBox="0 0 512 512" xml:space="preserve">
<polygon points="0,0 512,0 512,512 0,512" style="fill:#ffffff; stroke:#000000;stroke-width:0"/>
<polygon points="-55.2014,354.706 -51.9242,397.247 -263.258,413.527 -266.535,370.986" style="fill:#006363; stroke:#000000;stroke-width:0"/>
<circle fill="#006363" stroke="#006363" stroke-width="0" cx="-53.5628" cy="375.976" r="21.3333"/>
<circle fill="#006363" stroke="#006363" stroke-width="0" cx="-264.897" cy="392.257" r="21.3333"/>
<polygon points="690.977,407.397 652.839,388.269 749.827,194.893 787.965,214.022" style="fill:#006363; stroke:#000000;stroke-width:0"/>
<circle fill="#006363" stroke="#006363" stroke-width="0" cx="671.908" cy="397.833" r="21.3333"/>
<circle fill="#006363" stroke="#006363" stroke-width="0" cx="768.896" cy="204.458" r="21.3333"/>
<polygon points="1256,469.333 256,1469.33 -744,469.333" style="fill:#000000; stroke:#000000;stroke-width:0"/>
<polygon points="-744,42.6667 256,-957.333 1256,42.6667" style="fill:#000000; stroke:#000000;stroke-width:0"/>
<circle fill="#a64b00" stroke="#a64b00" stroke-width="0" cx="-53.5628" cy="375.976" r="21.3333"/>
<circle fill="#a64b00" stroke="#a64b00" stroke-width="0" cx="-264.897" cy="392.257" r="21.3333"/>
<circle fill="#a64b00" stroke="#a64b00" stroke-width="0" cx="671.908" cy="397.833" r="21.3333"/>
<circle fill="#a64b00" stroke="#a64b00" stroke-width="0" cx="768.896" cy="204.458" r="21.3333"/>
<circle fill="#a64b00" stroke="#a64b00" stroke-width="0" cx="160.199" cy="287.644" r="21.3333"/>
</svg>
