<?xml version="1.0" encoding="utf-8"?> <!-- Generator: Adobe Illustrator 13.0.0, SVG Export Plug-In . SVG Version: 6.00 Build 14948)  --> <svg version="1.2" baseProfile="tiny" id="Layer_1" xmlns="http://www.w3.org/2000/svg" xmlns:xlink="http://www.w3.org/1999/xlink" x="0px" y="0px" width="512px" height="512px" viewBox="0 0 512 512" xml:space="preserve">
<polygon points="0,0 512,0 512,512 0,512" style="fill:#ffffff; stroke:#000000;stroke-width:0"/>
<polygon points="-96.1046,99.5396 -103.298,141.595 -324.14,103.82 -316.946,61.7639" style="fill:#006363; stroke:#000000;stroke-width:0"/>
<circle fill="#006363" stroke="#006363" stroke-width="0" cx="-99.7015" cy="120.567" r="21.3333"/>
<circle fill="#006363" stroke="#006363" stroke-width="0" cx="-320.543" cy="82.7919" r="21.3333"/>
<polygon points="751.649,375.884 714.155,355.522 812.791,173.898 850.285,194.26" style="fill:#006363; stroke:#000000;stroke-width:0"/>
<circle fill="#006363" stroke="#006363" stroke-width="0" cx="732.902" cy="365.703" r="21.3333"/>
<circle fill="#006363" stroke="#006363" stroke-width="0" cx="831.538" cy="184.079" r="21.3333"/>
<polygon points="1256,469.333 256,1469.33 -744,469.333" style="fill:#000000; stroke:#000000;stroke-width:0"/>
<polygon points="-744,42.6667 256,-957.333 1256,42.6667" style="fill:#000000; stroke:#000000;stroke-width:0"/>
<circle fill="#a64b00" stroke="#a64b00" stroke-width="0" cx="-99.7015" cy="120.567" r="21.3333"/>
<circle fill="#a64b00" stroke="#a64b00" stroke-width="0" cx="-320.543" cy="82.7919" r="21.3333"/>
<circle fill="#a64b00" stroke="#a64b00" stroke-width="0" cx="732.902" cy="365.703" r="21.3333"/>
<circle fill="#a64b00" stroke="#a64b00" stroke-width="0" cx="831.538" cy="184.079" r="21.3333"/>
<circle fill="#a64b00" stroke="#a64b00" stroke-width="0" cx="44.4694" cy="325.806" r="21.3333"/>
</svg>
