<?xml version="1.0" encoding="utf-8"?> <!-- Generator: Adobe Illustrator 13.0.0, SVG Export Plug-In . SVG Version: 6.00 Build 14948)  --> <svg version="1.2" baseProfile="tiny" id="Layer_1" xmlns="http://www.w3.org/2000/svg" xmlns:xlink="http://www.w3.org/1999/xlink" x="0px" y="0px" width="512px" height="512px" viewBox="0 0 512 512" xml:space="preserve">
<polygon points="0,0 512,0 512,512 0,512" style="fill:#ffffff; stroke:#000000;stroke-width:0"/>
<polygon points="-180.396,327.808 -159.496,365.005 -343.733,468.519 -364.632,431.321" style="fill:#006363; stroke:#000000;stroke-width:0"/>
<circle fill="#006363" stroke="#006363" stroke-width="0" cx="-169.946" cy="346.406" r="21.3333"/>
<circle fill="#006363" stroke="#006363" stroke-width="0" cx="-354.182" cy="449.92" r="21.3333"/>
<polygon points="739.607,364.981 742.89,322.441 951.018,338.502 947.735,381.042" style="fill:#006363; stroke:#000000;stroke-width:0"/>
<circle fill="#006363" stroke="#006363" stroke-width="0" cx="741.248" cy="343.711" r="21.3333"/>
<circle fill="#006363" stroke="#006363" stroke-width="0" cx="949.376" cy="359.772" r="21.3333"/>
<polygon points="1256,469.333 256,1469.33 -744,469.333" style="fill:#000000; stroke:#000000;stroke-width:0"/>
<polygon points="-744,42.6667 256,-957.333 1256,42.6667" style="fill:#000000; stroke:#000000;stroke-width:0"/>
<circle fill="#a64b00" stroke="#a64b00" stroke-width="0" cx="-169.946" cy="346.406" r="21.3333"/>
<circle fill="#a64b00" stroke="#a64b00" stroke-width="0" cx="-354.182" cy="449.92" r="21.3333"/>
<circle fill="#a64b00" stroke="#a64b00" stroke-width="0" cx="741.248" cy="343.711" r="21.3333"/>
<circle fill="#a64b00" stroke="#a64b00" stroke-width="0" cx="949.376" cy="359.772" r="21.3333"/>
<circle fill="#a64b00" stroke="#a64b00" stroke-width="0" cx="-73.6459" cy="115.915" r="21.3333"/>
</svg>
