<?xml version="1.0" encoding="utf-8"?> <!-- Generator: Adobe Illustrator 13.0.0, SVG Export Plug-In . SVG Version: 6.00 Build 14948)  --> <svg version="1.2" baseProfile="tiny" id="Layer_1" xmlns="http://www.w3.org/2000/svg" xmlns:xlink="http://www.w3.org/1999/xlink" x="0px" y="0px" width="512px" height="512px" viewBox="0 0 512 512" xml:space="preserve">
<polygon points="0,0 512,0 512,512 0,512" style="fill:#ffffff; stroke:#000000;stroke-width:0"/>
<polygon points="-114.88,167.18 -113.159,209.812 -337.369,218.861 -339.09,176.229" style="fill:#006363; stroke:#000000;stroke-width:0"/>
<circle fill="#006363" stroke="#006363" stroke-width="0" cx="-114.02" cy="188.496" r="21.3333"/>
<circle fill="#006363" stroke="#006363" stroke-width="0" cx="-338.229" cy="197.545" r="21.3333"/>
<polygon points="756.794,426.483 722.629,400.926 846.521,235.306 880.686,260.863" style="fill:#006363; stroke:#000000;stroke-width:0"/>
<circle fill="#006363" stroke="#006363" stroke-width="0" cx="739.712" cy="413.704" r="21.3333"/>
<circle fill="#006363" stroke="#006363" stroke-width="0" cx="863.603" cy="248.085" r="21.3333"/>
<polygon points="1256,469.333 256,1469.33 -744,469.333" style="fill:#000000; stroke:#000000;stroke-width:0"/>
<polygon points="-744,42.6667 256,-957.333 1256,42.6667" style="fill:#000000; stroke:#000000;stroke-width:0"/>
<circle fill="#a64b00" stroke="#a64b00" stroke-width="0" cx="-114.02" cy="188.496" r="21.3333"/>
<circle fill="#a64b00" stroke="#a64b00" stroke-width="0" cx="-338.229" cy="197.545" r="21.3333"/>
<circle fill="#a64b00" stroke="#a64b00" stroke-width="0" cx="739.712" cy="413.704" r="21.3333"/>
<circle fill="#a64b00" stroke="#a64b00" stroke-width="0" cx="863.603" cy="248.085" r="21.3333"/>
<circle fill="#a64b00" stroke="#a64b00" stroke-width="0" cx="8.08038" cy="373.509" r="21.3333"/>
</svg>
