<?xml version="1.0" encoding="utf-8"?> <!-- Generator: Adobe Illustrator 13.0.0, SVG Export Plug-In . SVG Version: 6.00 Build 14948)  --> <svg version="1.2" baseProfile="tiny" id="Layer_1" xmlns="http://www.w3.org/2000/svg" xmlns:xlink="http://www.w3.org/1999/xlink" x="0px" y="0px" width="512px" height="512px" viewBox="0 0 512 512" xml:space="preserve">
<polygon points="0,0 512,0 512,512 0,512" style="fill:#ffffff; stroke:#000000;stroke-width:0"/>
<polygon points="-64.8903,294.187 -70.0653,336.538 -283.475,310.462 -278.3,268.11" style="fill:#006363; stroke:#000000;stroke-width:0"/>
<circle fill="#006363" stroke="#006363" stroke-width="0" cx="-67.4778" cy="315.363" r="21.3333"/>
<circle fill="#006363" stroke="#006363" stroke-width="0" cx="-280.887" cy="289.286" r="21.3333"/>
<polygon points="729.226,310.947 688.31,298.848 747.904,97.3208 788.82,109.42" style="fill:#006363; stroke:#000000;stroke-width:0"/>
<circle fill="#006363" stroke="#006363" stroke-width="0" cx="708.768" cy="304.898" r="21.3333"/>
<circle fill="#006363" stroke="#006363" stroke-width="0" cx="768.362" cy="103.37" r="21.3333"/>
<polygon points="1256,469.333 256,1469.33 -744,469.333" style="fill:#000000; stroke:#000000;stroke-width:0"/>
<polygon points="-744,42.6667 256,-957.333 1256,42.6667" style="fill:#000000; stroke:#000000;stroke-width:0"/>
<circle fill="#a64b00" stroke="#a64b00" stroke-width="0" cx="-67.4778" cy="315.363" r="21.3333"/>
<circle fill="#a64b00" stroke="#a64b00" stroke-width="0" cx="-280.887" cy="289.286" r="21.3333"/>
<circle fill="#a64b00" stroke="#a64b00" stroke-width="0" cx="708.768" cy="304.898" r="21.3333"/>
<circle fill="#a64b00" stroke="#a64b00" stroke-width="0" cx="768.362" cy="103.37" r="21.3333"/>
<circle fill="#a64b00" stroke="#a64b00" stroke-width="0" cx="126.196" cy="68.2121" r="21.3333"/>
</svg>
