<?xml version="1.0" encoding="utf-8"?> <!-- Generator: Adobe Illustrator 13.0.0, SVG Export Plug-In . SVG Version: 6.00 Build 14948)  --> <svg version="1.2" baseProfile="tiny" id="Layer_1" xmlns="http://www.w3.org/2000/svg" xmlns:xlink="http://www.w3.org/1999/xlink" x="0px" y="0px" width="512px" height="512px" viewBox="0 0 512 512" xml:space="preserve">
<polygon points="0,0 512,0 512,512 0,512" style="fill:#ffffff; stroke:#000000;stroke-width:0"/>
<polygon points="-242.3,214.269 -235.2,172.198 -29.9884,206.829 -37.0884,248.901" style="fill:#006363; stroke:#000000;stroke-width:0"/>
<circle fill="#006363" stroke="#006363" stroke-width="0" cx="-238.75" cy="193.234" r="21.3333"/>
<circle fill="#006363" stroke="#006363" stroke-width="0" cx="-33.5384" cy="227.865" r="21.3333"/>
<polygon points="596.292,386.294 585.299,345.068 788.43,290.902 799.423,332.128" style="fill:#006363; stroke:#000000;stroke-width:0"/>
<circle fill="#006363" stroke="#006363" stroke-width="0" cx="590.795" cy="365.681" r="21.3333"/>
<circle fill="#006363" stroke="#006363" stroke-width="0" cx="793.926" cy="311.515" r="21.3333"/>
<polygon points="1256,469.333 256,1469.33 -744,469.333" style="fill:#000000; stroke:#000000;stroke-width:0"/>
<polygon points="-744,42.6667 256,-957.333 1256,42.6667" style="fill:#000000; stroke:#000000;stroke-width:0"/>
<circle fill="#a64b00" stroke="#a64b00" stroke-width="0" cx="-238.75" cy="193.234" r="21.3333"/>
<circle fill="#a64b00" stroke="#a64b00" stroke-width="0" cx="-33.5384" cy="227.865" r="21.3333"/>
<circle fill="#a64b00" stroke="#a64b00" stroke-width="0" cx="590.795" cy="365.681" r="21.3333"/>
<circle fill="#a64b00" stroke="#a64b00" stroke-width="0" cx="793.926" cy="311.515" r="21.3333"/>
<circle fill="#a64b00" stroke="#a64b00" stroke-width="0" cx="212.694" cy="230.401" r="21.3333"/>
</svg>
