<?xml version="1.0" encoding="utf-8"?> <!-- Generator: Adobe Illustrator 13.0.0, SVG Export Plug-In . SVG Version: 6.00 Build 14948)  --> <svg version="1.2" baseProfile="tiny" id="Layer_1" xmlns="http://www.w3.org/2000/svg" xmlns:xlink="http://www.w3.org/1999/xlink" x="0px" y="0px" width="512px" height="512px" viewBox="0 0 512 512" xml:space="preserve">
<polygon points="0,0 512,0 512,512 0,512" style="fill:#ffffff; stroke:#000000;stroke-width:0"/>
<polygon points="-187.368,297.492 -158.31,266.249 1.64895,415.02 -27.4085,446.262" style="fill:#006363; stroke:#000000;stroke-width:0"/>
<circle fill="#006363" stroke="#006363" stroke-width="0" cx="-172.839" cy="281.871" r="21.3333"/>
<circle fill="#006363" stroke="#006363" stroke-width="0" cx="-12.8797" cy="430.641" r="21.3333"/>
<polygon points="660.528,177.217 699.912,193.628 619.04,387.71 579.655,371.299" style="fill:#006363; stroke:#000000;stroke-width:0"/>
<circle fill="#006363" stroke="#006363" stroke-width="0" cx="680.22" cy="185.423" r="21.3333"/>
<circle fill="#006363" stroke="#006363" stroke-width="0" cx="599.348" cy="379.505" r="21.3333"/>
<polygon points="1256,469.333 256,1469.33 -744,469.333" style="fill:#000000; stroke:#000000;stroke-width:0"/>
<polygon points="-744,42.6667 256,-957.333 1256,42.6667" style="fill:#000000; stroke:#000000;stroke-width:0"/>
<circle fill="#a64b00" stroke="#a64b00" stroke-width="0" cx="-172.839" cy="281.871" r="21.3333"/>
<circle fill="#a64b00" stroke="#a64b00" stroke-width="0" cx="-12.8797" cy="430.641" r="21.3333"/>
<circle fill="#a64b00" stroke="#a64b00" stroke-width="0" cx="680.22" cy="185.423" r="21.3333"/>
<circle fill="#a64b00" stroke="#a64b00" stroke-width="0" cx="599.348" cy="379.505" r="21.3333"/>
<circle fill="#a64b00" stroke="#a64b00" stroke-width="0" cx="311.124" cy="220.861" r="21.3333"/>
</svg>
