<?xml version="1.0" encoding="utf-8"?> <!-- Generator: Adobe Illustrator 13.0.0, SVG Export Plug-In . SVG Version: 6.00 Build 14948)  --> <svg version="1.2" baseProfile="tiny" id="Layer_1" xmlns="http://www.w3.org/2000/svg" xmlns:xlink="http://www.w3.org/1999/xlink" x="0px" y="0px" width="512px" height="512px" viewBox="0 0 512 512" xml:space="preserve">
<polygon points="0,0 512,0 512,512 0,512" style="fill:#ffffff; stroke:#000000;stroke-width:0"/>
<polygon points="-145.417,137.641 -125.307,100.011 66.2054,202.356 46.0956,239.986" style="fill:#006363; stroke:#000000;stroke-width:0"/>
<circle fill="#006363" stroke="#006363" stroke-width="0" cx="-135.362" cy="118.826" r="21.3333"/>
<circle fill="#006363" stroke="#006363" stroke-width="0" cx="56.1505" cy="221.171" r="21.3333"/>
<polygon points="597.215,320.772 554.549,321.083 552.982,106.031 595.647,105.72" style="fill:#006363; stroke:#000000;stroke-width:0"/>
<circle fill="#006363" stroke="#006363" stroke-width="0" cx="575.882" cy="320.927" r="21.3333"/>
<circle fill="#006363" stroke="#006363" stroke-width="0" cx="574.314" cy="105.875" r="21.3333"/>
<polygon points="1256,469.333 256,1469.33 -744,469.333" style="fill:#000000; stroke:#000000;stroke-width:0"/>
<polygon points="-744,42.6667 256,-957.333 1256,42.6667" style="fill:#000000; stroke:#000000;stroke-width:0"/>
<circle fill="#a64b00" stroke="#a64b00" stroke-width="0" cx="-135.362" cy="118.826" r="21.3333"/>
<circle fill="#a64b00" stroke="#a64b00" stroke-width="0" cx="56.1505" cy="221.171" r="21.3333"/>
<circle fill="#a64b00" stroke="#a64b00" stroke-width="0" cx="575.882" cy="320.927" r="21.3333"/>
<circle fill="#a64b00" stroke="#a64b00" stroke-width="0" cx="574.314" cy="105.875" r="21.3333"/>
<circle fill="#a64b00" stroke="#a64b00" stroke-width="0" cx="432.222" cy="268.563" r="21.3333"/>
</svg>
