<?xml version="1.0" encoding="utf-8"?> <!-- Generator: Adobe Illustrator 13.0.0, SVG Export Plug-In . SVG Version: 6.00 Build 14948)  --> <svg version="1.2" baseProfile="tiny" id="Layer_1" xmlns="http://www.w3.org/2000/svg" xmlns:xlink="http://www.w3.org/1999/xlink" x="0px" y="0px" width="512px" height="512px" viewBox="0 0 512 512" xml:space="preserve">
<polygon points="0,0 512,0 512,512 0,512" style="fill:#ffffff; stroke:#000000;stroke-width:0"/>
<polygon points="-106.396,235.01 -72.1299,260.433 -198.422,430.66 -232.688,405.238" style="fill:#006363; stroke:#000000;stroke-width:0"/>
<circle fill="#006363" stroke="#006363" stroke-width="0" cx="-89.2629" cy="247.722" r="21.3333"/>
<circle fill="#006363" stroke="#006363" stroke-width="0" cx="-215.555" cy="417.949" r="21.3333"/>
<polygon points="674.184,448.946 637.717,426.797 750.05,241.846 786.517,263.995" style="fill:#006363; stroke:#000000;stroke-width:0"/>
<circle fill="#006363" stroke="#006363" stroke-width="0" cx="655.951" cy="437.871" r="21.3333"/>
<circle fill="#006363" stroke="#006363" stroke-width="0" cx="768.284" cy="252.921" r="21.3333"/>
<polygon points="1256,469.333 256,1469.33 -744,469.333" style="fill:#000000; stroke:#000000;stroke-width:0"/>
<polygon points="-744,42.6667 256,-957.333 1256,42.6667" style="fill:#000000; stroke:#000000;stroke-width:0"/>
<circle fill="#a64b00" stroke="#a64b00" stroke-width="0" cx="-89.2629" cy="247.722" r="21.3333"/>
<circle fill="#a64b00" stroke="#a64b00" stroke-width="0" cx="-215.555" cy="417.949" r="21.3333"/>
<circle fill="#a64b00" stroke="#a64b00" stroke-width="0" cx="655.951" cy="437.871" r="21.3333"/>
<circle fill="#a64b00" stroke="#a64b00" stroke-width="0" cx="768.284" cy="252.921" r="21.3333"/>
<circle fill="#a64b00" stroke="#a64b00" stroke-width="0" cx="175.709" cy="77.7526" r="21.3333"/>
</svg>
