<?xml version="1.0" encoding="utf-8"?> <!-- Generator: Adobe Illustrator 13.0.0, SVG Export Plug-In . SVG Version: 6.00 Build 14948)  --> <svg version="1.2" baseProfile="tiny" id="Layer_1" xmlns="http://www.w3.org/2000/svg" xmlns:xlink="http://www.w3.org/1999/xlink" x="0px" y="0px" width="512px" height="512px" viewBox="0 0 512 512" xml:space="preserve">
<polygon points="0,0 512,0 512,512 0,512" style="fill:#ffffff; stroke:#000000;stroke-width:0"/>
<polygon points="-242.921,217.444 -238.727,174.984 -28.3186,195.765 -32.5121,238.225" style="fill:#006363; stroke:#000000;stroke-width:0"/>
<circle fill="#006363" stroke="#006363" stroke-width="0" cx="-240.824" cy="196.214" r="21.3333"/>
<circle fill="#006363" stroke="#006363" stroke-width="0" cx="-30.4153" cy="216.995" r="21.3333"/>
<polygon points="593.175,383.234 583.322,341.72 790.272,292.602 800.125,334.115" style="fill:#006363; stroke:#000000;stroke-width:0"/>
<circle fill="#006363" stroke="#006363" stroke-width="0" cx="588.248" cy="362.477" r="21.3333"/>
<circle fill="#006363" stroke="#006363" stroke-width="0" cx="795.199" cy="313.359" r="21.3333"/>
<polygon points="1256,469.333 256,1469.33 -744,469.333" style="fill:#000000; stroke:#000000;stroke-width:0"/>
<polygon points="-744,42.6667 256,-957.333 1256,42.6667" style="fill:#000000; stroke:#000000;stroke-width:0"/>
<circle fill="#a64b00" stroke="#a64b00" stroke-width="0" cx="-240.824" cy="196.214" r="21.3333"/>
<circle fill="#a64b00" stroke="#a64b00" stroke-width="0" cx="-30.4153" cy="216.995" r="21.3333"/>
<circle fill="#a64b00" stroke="#a64b00" stroke-width="0" cx="588.248" cy="362.477" r="21.3333"/>
<circle fill="#a64b00" stroke="#a64b00" stroke-width="0" cx="795.199" cy="313.359" r="21.3333"/>
<circle fill="#a64b00" stroke="#a64b00" stroke-width="0" cx="213.887" cy="211.32" r="21.3333"/>
</svg>
