<?xml version="1.0" encoding="utf-8"?> <!-- Generator: Adobe Illustrator 13.0.0, SVG Export Plug-In . SVG Version: 6.00 Build 14948)  --> <svg version="1.2" baseProfile="tiny" id="Layer_1" xmlns="http://www.w3.org/2000/svg" xmlns:xlink="http://www.w3.org/1999/xlink" x="0px" y="0px" width="512px" height="512px" viewBox="0 0 512 512" xml:space="preserve">
<polygon points="0,0 512,0 512,512 0,512" style="fill:#ffffff; stroke:#000000;stroke-width:0"/>
<polygon points="-62.1436,373.129 -73.5774,414.235 -273.105,358.735 -261.671,317.629" style="fill:#006363; stroke:#000000;stroke-width:0"/>
<circle fill="#006363" stroke="#006363" stroke-width="0" cx="-67.8605" cy="393.682" r="21.3333"/>
<circle fill="#006363" stroke="#006363" stroke-width="0" cx="-267.388" cy="338.182" r="21.3333"/>
<polygon points="712.824,352.892 672.972,337.653 748.373,140.474 788.226,155.713" style="fill:#006363; stroke:#000000;stroke-width:0"/>
<circle fill="#006363" stroke="#006363" stroke-width="0" cx="692.898" cy="345.273" r="21.3333"/>
<circle fill="#006363" stroke="#006363" stroke-width="0" cx="768.299" cy="148.093" r="21.3333"/>
<polygon points="1256,469.333 256,1469.33 -744,469.333" style="fill:#000000; stroke:#000000;stroke-width:0"/>
<polygon points="-744,42.6667 256,-957.333 1256,42.6667" style="fill:#000000; stroke:#000000;stroke-width:0"/>
<circle fill="#a64b00" stroke="#a64b00" stroke-width="0" cx="-67.8605" cy="393.682" r="21.3333"/>
<circle fill="#a64b00" stroke="#a64b00" stroke-width="0" cx="-267.388" cy="338.182" r="21.3333"/>
<circle fill="#a64b00" stroke="#a64b00" stroke-width="0" cx="692.898" cy="345.273" r="21.3333"/>
<circle fill="#a64b00" stroke="#a64b00" stroke-width="0" cx="768.299" cy="148.093" r="21.3333"/>
<circle fill="#a64b00" stroke="#a64b00" stroke-width="0" cx="141.109" cy="306.725" r="21.3333"/>
</svg>
