<?xml version="1.0" encoding="utf-8"?> <!-- Generator: Adobe Illustrator 13.0.0, SVG Export Plug-In . SVG Version: 6.00 Build 14948)  --> <svg version="1.2" baseProfile="tiny" id="Layer_1" xmlns="http://www.w3.org/2000/svg" xmlns:xlink="http://www.w3.org/1999/xlink" x="0px" y="0px" width="512px" height="512px" viewBox="0 0 512 512" xml:space="preserve">
<polygon points="0,0 512,0 512,512 0,512" style="fill:#ffffff; stroke:#000000;stroke-width:0"/>
<polygon points="-100.777,244.533 -58.7478,237.186 -21.9819,447.487 -64.0111,454.835" style="fill:#006363; stroke:#000000;stroke-width:0"/>
<circle fill="#006363" stroke="#006363" stroke-width="0" cx="-79.7624" cy="240.859" r="21.3333"/>
<circle fill="#006363" stroke="#006363" stroke-width="0" cx="-42.9965" cy="451.161" r="21.3333"/>
<polygon points="706.799,267.924 688.523,306.478 496.292,215.353 514.569,176.799" style="fill:#006363; stroke:#000000;stroke-width:0"/>
<circle fill="#006363" stroke="#006363" stroke-width="0" cx="697.661" cy="287.201" r="21.3333"/>
<circle fill="#006363" stroke="#006363" stroke-width="0" cx="505.431" cy="196.076" r="21.3333"/>
<polygon points="1256,469.333 256,1469.33 -744,469.333" style="fill:#000000; stroke:#000000;stroke-width:0"/>
<polygon points="-744,42.6667 256,-957.333 1256,42.6667" style="fill:#000000; stroke:#000000;stroke-width:0"/>
<circle fill="#a64b00" stroke="#a64b00" stroke-width="0" cx="-79.7624" cy="240.859" r="21.3333"/>
<circle fill="#a64b00" stroke="#a64b00" stroke-width="0" cx="-42.9965" cy="451.161" r="21.3333"/>
<circle fill="#a64b00" stroke="#a64b00" stroke-width="0" cx="697.661" cy="287.201" r="21.3333"/>
<circle fill="#a64b00" stroke="#a64b00" stroke-width="0" cx="505.431" cy="196.076" r="21.3333"/>
<circle fill="#a64b00" stroke="#a64b00" stroke-width="0" cx="382.709" cy="259.023" r="21.3333"/>
</svg>
