<?xml version="1.0" encoding="utf-8"?> <!-- Generator: Adobe Illustrator 13.0.0, SVG Export Plug-In . SVG Version: 6.00 Build 14948)  --> <svg version="1.2" baseProfile="tiny" id="Layer_1" xmlns="http://www.w3.org/2000/svg" xmlns:xlink="http://www.w3.org/1999/xlink" x="0px" y="0px" width="512px" height="512px" viewBox="0 0 512 512" xml:space="preserve">
<polygon points="0,0 512,0 512,512 0,512" style="fill:#ffffff; stroke:#000000;stroke-width:0"/>
<polygon points="-205.299,372.876 -202.508,330.301 3.84032,343.826 1.04963,386.402" style="fill:#006363; stroke:#000000;stroke-width:0"/>
<circle fill="#006363" stroke="#006363" stroke-width="0" cx="-203.904" cy="351.588" r="21.3333"/>
<circle fill="#006363" stroke="#006363" stroke-width="0" cx="2.44498" cy="365.114" r="21.3333"/>
<polygon points="626.935,184.597 669.599,184.173 671.752,400.743 629.087,401.167" style="fill:#006363; stroke:#000000;stroke-width:0"/>
<circle fill="#006363" stroke="#006363" stroke-width="0" cx="648.267" cy="184.385" r="21.3333"/>
<circle fill="#006363" stroke="#006363" stroke-width="0" cx="650.419" cy="400.955" r="21.3333"/>
<polygon points="1256,469.333 256,1469.33 -744,469.333" style="fill:#000000; stroke:#000000;stroke-width:0"/>
<polygon points="-744,42.6667 256,-957.333 1256,42.6667" style="fill:#000000; stroke:#000000;stroke-width:0"/>
<circle fill="#a64b00" stroke="#a64b00" stroke-width="0" cx="-203.904" cy="351.588" r="21.3333"/>
<circle fill="#a64b00" stroke="#a64b00" stroke-width="0" cx="2.44498" cy="365.114" r="21.3333"/>
<circle fill="#a64b00" stroke="#a64b00" stroke-width="0" cx="648.267" cy="184.385" r="21.3333"/>
<circle fill="#a64b00" stroke="#a64b00" stroke-width="0" cx="650.419" cy="400.955" r="21.3333"/>
<circle fill="#a64b00" stroke="#a64b00" stroke-width="0" cx="293.227" cy="392.59" r="21.3333"/>
</svg>
