<?xml version="1.0" encoding="utf-8"?> <!-- Generator: Adobe Illustrator 13.0.0, SVG Export Plug-In . SVG Version: 6.00 Build 14948)  --> <svg version="1.2" baseProfile="tiny" id="Layer_1" xmlns="http://www.w3.org/2000/svg" xmlns:xlink="http://www.w3.org/1999/xlink" x="0px" y="0px" width="512px" height="512px" viewBox="0 0 512 512" xml:space="preserve">
<polygon points="0,0 512,0 512,512 0,512" style="fill:#ffffff; stroke:#000000;stroke-width:0"/>
<polygon points="-119.678,209.616 -80.9804,191.645 10.0356,387.633 -28.6619,405.604" style="fill:#006363; stroke:#000000;stroke-width:0"/>
<circle fill="#006363" stroke="#006363" stroke-width="0" cx="-100.329" cy="200.63" r="21.3333"/>
<circle fill="#006363" stroke="#006363" stroke-width="0" cx="-9.31314" cy="396.619" r="21.3333"/>
<polygon points="685.041,293.612 655.033,323.942 502.118,172.655 532.126,142.325" style="fill:#006363; stroke:#000000;stroke-width:0"/>
<circle fill="#006363" stroke="#006363" stroke-width="0" cx="670.037" cy="308.777" r="21.3333"/>
<circle fill="#006363" stroke="#006363" stroke-width="0" cx="517.122" cy="157.49" r="21.3333"/>
<polygon points="1256,469.333 256,1469.33 -744,469.333" style="fill:#000000; stroke:#000000;stroke-width:0"/>
<polygon points="-744,42.6667 256,-957.333 1256,42.6667" style="fill:#000000; stroke:#000000;stroke-width:0"/>
<circle fill="#a64b00" stroke="#a64b00" stroke-width="0" cx="-100.329" cy="200.63" r="21.3333"/>
<circle fill="#a64b00" stroke="#a64b00" stroke-width="0" cx="-9.31314" cy="396.619" r="21.3333"/>
<circle fill="#a64b00" stroke="#a64b00" stroke-width="0" cx="670.037" cy="308.777" r="21.3333"/>
<circle fill="#a64b00" stroke="#a64b00" stroke-width="0" cx="517.122" cy="157.49" r="21.3333"/>
<circle fill="#a64b00" stroke="#a64b00" stroke-width="0" cx="397.622" cy="402.13" r="21.3333"/>
</svg>
