<?xml version="1.0" encoding="utf-8"?> <!-- Generator: Adobe Illustrator 13.0.0, SVG Export Plug-In . SVG Version: 6.00 Build 14948)  --> <svg version="1.2" baseProfile="tiny" id="Layer_1" xmlns="http://www.w3.org/2000/svg" xmlns:xlink="http://www.w3.org/1999/xlink" x="0px" y="0px" width="512px" height="512px" viewBox="0 0 512 512" xml:space="preserve">
<polygon points="0,0 512,0 512,512 0,512" style="fill:#ffffff; stroke:#000000;stroke-width:0"/>
<polygon points="-412.353,115.968 -408.36,73.4891 -198.767,93.1917 -202.76,135.671" style="fill:#006363; stroke:#000000;stroke-width:0"/>
<circle fill="#006363" stroke="#006363" stroke-width="0" cx="-410.356" cy="94.7288" r="21.3333"/>
<circle fill="#006363" stroke="#006363" stroke-width="0" cx="-200.764" cy="114.431" r="21.3333"/>
<polygon points="878.733,216.755 921.386,217.848 915.771,436.969 873.118,435.876" style="fill:#006363; stroke:#000000;stroke-width:0"/>
<circle fill="#006363" stroke="#006363" stroke-width="0" cx="900.06" cy="217.302" r="21.3333"/>
<circle fill="#006363" stroke="#006363" stroke-width="0" cx="894.445" cy="436.423" r="21.3333"/>
<polygon points="1256,469.333 256,1469.33 -744,469.333" style="fill:#000000; stroke:#000000;stroke-width:0"/>
<polygon points="-744,42.6667 256,-957.333 1256,42.6667" style="fill:#000000; stroke:#000000;stroke-width:0"/>
<circle fill="#a64b00" stroke="#a64b00" stroke-width="0" cx="-410.356" cy="94.7288" r="21.3333"/>
<circle fill="#a64b00" stroke="#a64b00" stroke-width="0" cx="-200.764" cy="114.431" r="21.3333"/>
<circle fill="#a64b00" stroke="#a64b00" stroke-width="0" cx="900.06" cy="217.302" r="21.3333"/>
<circle fill="#a64b00" stroke="#a64b00" stroke-width="0" cx="894.445" cy="436.423" r="21.3333"/>
<circle fill="#a64b00" stroke="#a64b00" stroke-width="0" cx="-23.7617" cy="158.791" r="21.3333"/>
</svg>
