<?xml version="1.0" encoding="utf-8"?> <!-- Generator: Adobe Illustrator 13.0.0, SVG Export Plug-In . SVG Version: 6.00 Build 14948)  --> <svg version="1.2" baseProfile="tiny" id="Layer_1" xmlns="http://www.w3.org/2000/svg" xmlns:xlink="http://www.w3.org/1999/xlink" x="0px" y="0px" width="512px" height="512px" viewBox="0 0 512 512" xml:space="preserve">
<polygon points="0,0 512,0 512,512 0,512" style="fill:#ffffff; stroke:#000000;stroke-width:0"/>
<polygon points="-331.159,416.786 -372.692,407.016 -324.609,202.604 -283.076,212.374" style="fill:#006363; stroke:#000000;stroke-width:0"/>
<circle fill="#006363" stroke="#006363" stroke-width="0" cx="-351.926" cy="411.901" r="21.3333"/>
<circle fill="#006363" stroke="#006363" stroke-width="0" cx="-303.843" cy="207.489" r="21.3333"/>
<polygon points="971.071,218.179 1004.3,244.936 868.044,414.177 834.81,387.419" style="fill:#006363; stroke:#000000;stroke-width:0"/>
<circle fill="#006363" stroke="#006363" stroke-width="0" cx="987.688" cy="231.558" r="21.3333"/>
<circle fill="#006363" stroke="#006363" stroke-width="0" cx="851.427" cy="400.798" r="21.3333"/>
<polygon points="1256,469.333 256,1469.33 -744,469.333" style="fill:#000000; stroke:#000000;stroke-width:0"/>
<polygon points="-744,42.6667 256,-957.333 1256,42.6667" style="fill:#000000; stroke:#000000;stroke-width:0"/>
<circle fill="#a64b00" stroke="#a64b00" stroke-width="0" cx="-351.926" cy="411.901" r="21.3333"/>
<circle fill="#a64b00" stroke="#a64b00" stroke-width="0" cx="-303.843" cy="207.489" r="21.3333"/>
<circle fill="#a64b00" stroke="#a64b00" stroke-width="0" cx="987.688" cy="231.558" r="21.3333"/>
<circle fill="#a64b00" stroke="#a64b00" stroke-width="0" cx="851.427" cy="400.798" r="21.3333"/>
<circle fill="#a64b00" stroke="#a64b00" stroke-width="0" cx="726.668" cy="286.917" r="21.3333"/>
</svg>
