<?xml version="1.0" encoding="utf-8"?> <!-- Generator: Adobe Illustrator 13.0.0, SVG Export Plug-In . SVG Version: 6.00 Build 14948)  --> <svg version="1.2" baseProfile="tiny" id="Layer_1" xmlns="http://www.w3.org/2000/svg" xmlns:xlink="http://www.w3.org/1999/xlink" x="0px" y="0px" width="512px" height="512px" viewBox="0 0 512 512" xml:space="preserve">
<polygon points="0,0 512,0 512,512 0,512" style="fill:#ffffff; stroke:#000000;stroke-width:0"/>
<polygon points="-75.0671,206.74 -38.0641,185.498 70.4852,374.589 33.4821,395.831" style="fill:#006363; stroke:#000000;stroke-width:0"/>
<circle fill="#006363" stroke="#006363" stroke-width="0" cx="-56.5656" cy="196.119" r="21.3333"/>
<circle fill="#006363" stroke="#006363" stroke-width="0" cx="51.9837" cy="385.21" r="21.3333"/>
<polygon points="423.59,145.69 440.339,106.448 639.007,191.241 622.258,230.483" style="fill:#006363; stroke:#000000;stroke-width:0"/>
<circle fill="#006363" stroke="#006363" stroke-width="0" cx="431.965" cy="126.069" r="21.3333"/>
<circle fill="#006363" stroke="#006363" stroke-width="0" cx="630.633" cy="210.862" r="21.3333"/>
<polygon points="1256,469.333 256,1469.33 -744,469.333" style="fill:#000000; stroke:#000000;stroke-width:0"/>
<polygon points="-744,42.6667 256,-957.333 1256,42.6667" style="fill:#000000; stroke:#000000;stroke-width:0"/>
<circle fill="#a64b00" stroke="#a64b00" stroke-width="0" cx="-56.5656" cy="196.119" r="21.3333"/>
<circle fill="#a64b00" stroke="#a64b00" stroke-width="0" cx="51.9837" cy="385.21" r="21.3333"/>
<circle fill="#a64b00" stroke="#a64b00" stroke-width="0" cx="431.965" cy="126.069" r="21.3333"/>
<circle fill="#a64b00" stroke="#a64b00" stroke-width="0" cx="630.633" cy="210.862" r="21.3333"/>
<circle fill="#a64b00" stroke="#a64b00" stroke-width="0" cx="129.134" cy="157.412" r="21.3333"/>
</svg>
