<?xml version="1.0" encoding="utf-8"?> <!-- Generator: Adobe Illustrator 13.0.0, SVG Export Plug-In . SVG Version: 6.00 Build 14948)  --> <svg version="1.2" baseProfile="tiny" id="Layer_1" xmlns="http://www.w3.org/2000/svg" xmlns:xlink="http://www.w3.org/1999/xlink" x="0px" y="0px" width="512px" height="512px" viewBox="0 0 512 512" xml:space="preserve">
<polygon points="0,0 512,0 512,512 0,512" style="fill:#ffffff; stroke:#000000;stroke-width:0"/>
<polygon points="-116.109,217.612 -76.6785,201.313 4.36827,397.379 -35.0624,413.678" style="fill:#006363; stroke:#000000;stroke-width:0"/>
<circle fill="#006363" stroke="#006363" stroke-width="0" cx="-96.3938" cy="209.462" r="21.3333"/>
<circle fill="#006363" stroke="#006363" stroke-width="0" cx="-15.3471" cy="405.528" r="21.3333"/>
<polygon points="688.394,289.154 660.035,321.032 501.314,179.835 529.673,147.956" style="fill:#006363; stroke:#000000;stroke-width:0"/>
<circle fill="#006363" stroke="#006363" stroke-width="0" cx="674.215" cy="305.093" r="21.3333"/>
<circle fill="#006363" stroke="#006363" stroke-width="0" cx="515.494" cy="163.895" r="21.3333"/>
<polygon points="1256,469.333 256,1469.33 -744,469.333" style="fill:#000000; stroke:#000000;stroke-width:0"/>
<polygon points="-744,42.6667 256,-957.333 1256,42.6667" style="fill:#000000; stroke:#000000;stroke-width:0"/>
<circle fill="#a64b00" stroke="#a64b00" stroke-width="0" cx="-96.3938" cy="209.462" r="21.3333"/>
<circle fill="#a64b00" stroke="#a64b00" stroke-width="0" cx="-15.3471" cy="405.528" r="21.3333"/>
<circle fill="#a64b00" stroke="#a64b00" stroke-width="0" cx="674.215" cy="305.093" r="21.3333"/>
<circle fill="#a64b00" stroke="#a64b00" stroke-width="0" cx="515.494" cy="163.895" r="21.3333"/>
<circle fill="#a64b00" stroke="#a64b00" stroke-width="0" cx="395.236" cy="440.293" r="21.3333"/>
</svg>
