<?xml version="1.0" encoding="utf-8"?> <!-- Generator: Adobe Illustrator 13.0.0, SVG Export Plug-In . SVG Version: 6.00 Build 14948)  --> <svg version="1.2" baseProfile="tiny" id="Layer_1" xmlns="http://www.w3.org/2000/svg" xmlns:xlink="http://www.w3.org/1999/xlink" x="0px" y="0px" width="512px" height="512px" viewBox="0 0 512 512" xml:space="preserve">
<polygon points="0,0 512,0 512,512 0,512" style="fill:#ffffff; stroke:#000000;stroke-width:0"/>
<polygon points="-122.007,128.317 -103.555,89.847 90.0153,182.693 71.5631,221.163" style="fill:#006363; stroke:#000000;stroke-width:0"/>
<circle fill="#006363" stroke="#006363" stroke-width="0" cx="-112.781" cy="109.082" r="21.3333"/>
<circle fill="#006363" stroke="#006363" stroke-width="0" cx="80.7892" cy="201.928" r="21.3333"/>
<polygon points="455.182,243.062 439.615,203.337 639.34,125.069 654.908,164.795" style="fill:#006363; stroke:#000000;stroke-width:0"/>
<circle fill="#006363" stroke="#006363" stroke-width="0" cx="447.399" cy="223.199" r="21.3333"/>
<circle fill="#006363" stroke="#006363" stroke-width="0" cx="647.124" cy="144.932" r="21.3333"/>
<polygon points="1256,469.333 256,1469.33 -744,469.333" style="fill:#000000; stroke:#000000;stroke-width:0"/>
<polygon points="-744,42.6667 256,-957.333 1256,42.6667" style="fill:#000000; stroke:#000000;stroke-width:0"/>
<circle fill="#a64b00" stroke="#a64b00" stroke-width="0" cx="-112.781" cy="109.082" r="21.3333"/>
<circle fill="#a64b00" stroke="#a64b00" stroke-width="0" cx="80.7892" cy="201.928" r="21.3333"/>
<circle fill="#a64b00" stroke="#a64b00" stroke-width="0" cx="447.399" cy="223.199" r="21.3333"/>
<circle fill="#a64b00" stroke="#a64b00" stroke-width="0" cx="647.124" cy="144.932" r="21.3333"/>
<circle fill="#a64b00" stroke="#a64b00" stroke-width="0" cx="317.576" cy="88.2552" r="21.3333"/>
</svg>
