<?xml version="1.0" encoding="utf-8"?> <!-- Generator: Adobe Illustrator 13.0.0, SVG Export Plug-In . SVG Version: 6.00 Build 14948)  --> <svg version="1.2" baseProfile="tiny" id="Layer_1" xmlns="http://www.w3.org/2000/svg" xmlns:xlink="http://www.w3.org/1999/xlink" x="0px" y="0px" width="512px" height="512px" viewBox="0 0 512 512" xml:space="preserve">
<polygon points="0,0 512,0 512,512 0,512" style="fill:#ffffff; stroke:#000000;stroke-width:0"/>
<polygon points="-410.792,166.811 -415.555,124.411 -206.706,100.954 -201.944,143.354" style="fill:#006363; stroke:#000000;stroke-width:0"/>
<circle fill="#006363" stroke="#006363" stroke-width="0" cx="-413.174" cy="145.611" r="21.3333"/>
<circle fill="#006363" stroke="#006363" stroke-width="0" cx="-204.325" cy="122.154" r="21.3333"/>
<polygon points="891.84,217.108 934.207,222.152 909.038,433.564 866.67,428.52" style="fill:#006363; stroke:#000000;stroke-width:0"/>
<circle fill="#006363" stroke="#006363" stroke-width="0" cx="913.023" cy="219.63" r="21.3333"/>
<circle fill="#006363" stroke="#006363" stroke-width="0" cx="887.854" cy="431.042" r="21.3333"/>
<polygon points="1256,469.333 256,1469.33 -744,469.333" style="fill:#000000; stroke:#000000;stroke-width:0"/>
<polygon points="-744,42.6667 256,-957.333 1256,42.6667" style="fill:#000000; stroke:#000000;stroke-width:0"/>
<circle fill="#a64b00" stroke="#a64b00" stroke-width="0" cx="-413.174" cy="145.611" r="21.3333"/>
<circle fill="#a64b00" stroke="#a64b00" stroke-width="0" cx="-204.325" cy="122.154" r="21.3333"/>
<circle fill="#a64b00" stroke="#a64b00" stroke-width="0" cx="913.023" cy="219.63" r="21.3333"/>
<circle fill="#a64b00" stroke="#a64b00" stroke-width="0" cx="887.854" cy="431.042" r="21.3333"/>
<circle fill="#a64b00" stroke="#a64b00" stroke-width="0" cx="83.4425" cy="177.094" r="21.3333"/>
</svg>
