<?xml version="1.0" encoding="utf-8"?> <!-- Generator: Adobe Illustrator 13.0.0, SVG Export Plug-In . SVG Version: 6.00 Build 14948)  --> <svg version="1.2" baseProfile="tiny" id="Layer_1" xmlns="http://www.w3.org/2000/svg" xmlns:xlink="http://www.w3.org/1999/xlink" x="0px" y="0px" width="512px" height="512px" viewBox="0 0 512 512" xml:space="preserve">
<polygon points="0,0 512,0 512,512 0,512" style="fill:#ffffff; stroke:#000000;stroke-width:0"/>
<polygon points="-93.8387,178.127 -61.8662,149.874 81.2303,311.812 49.2578,340.065" style="fill:#006363; stroke:#000000;stroke-width:0"/>
<circle fill="#006363" stroke="#006363" stroke-width="0" cx="-77.8525" cy="164.001" r="21.3333"/>
<circle fill="#006363" stroke="#006363" stroke-width="0" cx="65.244" cy="325.938" r="21.3333"/>
<polygon points="427.494,179.259 433.671,137.042 645.745,168.072 639.568,210.289" style="fill:#006363; stroke:#000000;stroke-width:0"/>
<circle fill="#006363" stroke="#006363" stroke-width="0" cx="430.582" cy="158.15" r="21.3333"/>
<circle fill="#006363" stroke="#006363" stroke-width="0" cx="642.657" cy="189.18" r="21.3333"/>
<polygon points="1256,469.333 256,1469.33 -744,469.333" style="fill:#000000; stroke:#000000;stroke-width:0"/>
<polygon points="-744,42.6667 256,-957.333 1256,42.6667" style="fill:#000000; stroke:#000000;stroke-width:0"/>
<circle fill="#a64b00" stroke="#a64b00" stroke-width="0" cx="-77.8525" cy="164.001" r="21.3333"/>
<circle fill="#a64b00" stroke="#a64b00" stroke-width="0" cx="65.244" cy="325.938" r="21.3333"/>
<circle fill="#a64b00" stroke="#a64b00" stroke-width="0" cx="430.582" cy="158.15" r="21.3333"/>
<circle fill="#a64b00" stroke="#a64b00" stroke-width="0" cx="642.657" cy="189.18" r="21.3333"/>
<circle fill="#a64b00" stroke="#a64b00" stroke-width="0" cx="80.9429" cy="110.85" r="21.3333"/>
</svg>
