<?xml version="1.0" encoding="utf-8"?> <!-- Generator: Adobe Illustrator 13.0.0, SVG Export Plug-In . SVG Version: 6.00 Build 14948)  --> <svg version="1.2" baseProfile="tiny" id="Layer_1" xmlns="http://www.w3.org/2000/svg" xmlns:xlink="http://www.w3.org/1999/xlink" x="0px" y="0px" width="512px" height="512px" viewBox="0 0 512 512" xml:space="preserve">
<polygon points="0,0 512,0 512,512 0,512" style="fill:#ffffff; stroke:#000000;stroke-width:0"/>
<polygon points="15.9182,156.536 58.5754,155.637 63.1332,371.997 20.476,372.896" style="fill:#006363; stroke:#000000;stroke-width:0"/>
<circle fill="#006363" stroke="#006363" stroke-width="0" cx="37.2468" cy="156.087" r="21.3333"/>
<circle fill="#006363" stroke="#006363" stroke-width="0" cx="41.8046" cy="372.447" r="21.3333"/>
<polygon points="451.304,126.879 493.949,125.512 500.729,337.06 458.084,338.427" style="fill:#006363; stroke:#000000;stroke-width:0"/>
<circle fill="#006363" stroke="#006363" stroke-width="0" cx="472.627" cy="126.196" r="21.3333"/>
<circle fill="#006363" stroke="#006363" stroke-width="0" cx="479.406" cy="337.743" r="21.3333"/>
<polygon points="1256,469.333 256,1469.33 -744,469.333" style="fill:#000000; stroke:#000000;stroke-width:0"/>
<polygon points="-744,42.6667 256,-957.333 1256,42.6667" style="fill:#000000; stroke:#000000;stroke-width:0"/>
<circle fill="#a64b00" stroke="#a64b00" stroke-width="0" cx="37.2468" cy="156.087" r="21.3333"/>
<circle fill="#a64b00" stroke="#a64b00" stroke-width="0" cx="41.8046" cy="372.447" r="21.3333"/>
<circle fill="#a64b00" stroke="#a64b00" stroke-width="0" cx="472.627" cy="126.196" r="21.3333"/>
<circle fill="#a64b00" stroke="#a64b00" stroke-width="0" cx="479.406" cy="337.743" r="21.3333"/>
<circle fill="#a64b00" stroke="#a64b00" stroke-width="0" cx="390.223" cy="256" r="21.3333"/>
</svg>
