<?xml version="1.0" encoding="utf-8"?> <!-- Generator: Adobe Illustrator 13.0.0, SVG Export Plug-In . SVG Version: 6.00 Build 14948)  --> <svg version="1.2" baseProfile="tiny" id="Layer_1" xmlns="http://www.w3.org/2000/svg" xmlns:xlink="http://www.w3.org/1999/xlink" x="0px" y="0px" width="512px" height="512px" viewBox="0 0 512 512" xml:space="preserve">
<polygon points="0,0 512,0 512,512 0,512" style="fill:#ffffff; stroke:#000000;stroke-width:0"/>
<polygon points="-171.544,317.47 -151.438,355.102 -349.436,460.888 -369.542,423.255" style="fill:#006363; stroke:#000000;stroke-width:0"/>
<circle fill="#006363" stroke="#006363" stroke-width="0" cx="-161.491" cy="336.286" r="21.3333"/>
<circle fill="#006363" stroke="#006363" stroke-width="0" cx="-359.489" cy="442.071" r="21.3333"/>
<polygon points="738.179,371.623 739.141,328.967 948.622,333.692 947.66,376.347" style="fill:#006363; stroke:#000000;stroke-width:0"/>
<circle fill="#006363" stroke="#006363" stroke-width="0" cx="738.66" cy="350.295" r="21.3333"/>
<circle fill="#006363" stroke="#006363" stroke-width="0" cx="948.141" cy="355.019" r="21.3333"/>
<polygon points="1256,469.333 256,1469.33 -744,469.333" style="fill:#000000; stroke:#000000;stroke-width:0"/>
<polygon points="-744,42.6667 256,-957.333 1256,42.6667" style="fill:#000000; stroke:#000000;stroke-width:0"/>
<circle fill="#a64b00" stroke="#a64b00" stroke-width="0" cx="-161.491" cy="336.286" r="21.3333"/>
<circle fill="#a64b00" stroke="#a64b00" stroke-width="0" cx="-359.489" cy="442.071" r="21.3333"/>
<circle fill="#a64b00" stroke="#a64b00" stroke-width="0" cx="738.66" cy="350.295" r="21.3333"/>
<circle fill="#a64b00" stroke="#a64b00" stroke-width="0" cx="948.141" cy="355.019" r="21.3333"/>
<circle fill="#a64b00" stroke="#a64b00" stroke-width="0" cx="-70.0666" cy="58.6716" r="21.3333"/>
</svg>
