<?xml version="1.0" encoding="utf-8"?> <!-- Generator: Adobe Illustrator 13.0.0, SVG Export Plug-In . SVG Version: 6.00 Build 14948)  --> <svg version="1.2" baseProfile="tiny" id="Layer_1" xmlns="http://www.w3.org/2000/svg" xmlns:xlink="http://www.w3.org/1999/xlink" x="0px" y="0px" width="512px" height="512px" viewBox="0 0 512 512" xml:space="preserve">
<polygon points="0,0 512,0 512,512 0,512" style="fill:#ffffff; stroke:#000000;stroke-width:0"/>
<polygon points="-85.5578,190.739 -51.3882,165.188 76.16,335.756 41.9903,361.307" style="fill:#006363; stroke:#000000;stroke-width:0"/>
<circle fill="#006363" stroke="#006363" stroke-width="0" cx="-68.473" cy="177.963" r="21.3333"/>
<circle fill="#006363" stroke="#006363" stroke-width="0" cx="59.0752" cy="348.531" r="21.3333"/>
<polygon points="426.135,166.06 436.644,124.708 642.847,177.11 632.339,218.462" style="fill:#006363; stroke:#000000;stroke-width:0"/>
<circle fill="#006363" stroke="#006363" stroke-width="0" cx="431.389" cy="145.384" r="21.3333"/>
<circle fill="#006363" stroke="#006363" stroke-width="0" cx="637.593" cy="197.786" r="21.3333"/>
<polygon points="1256,469.333 256,1469.33 -744,469.333" style="fill:#000000; stroke:#000000;stroke-width:0"/>
<polygon points="-744,42.6667 256,-957.333 1256,42.6667" style="fill:#000000; stroke:#000000;stroke-width:0"/>
<circle fill="#a64b00" stroke="#a64b00" stroke-width="0" cx="-68.473" cy="177.963" r="21.3333"/>
<circle fill="#a64b00" stroke="#a64b00" stroke-width="0" cx="59.0752" cy="348.531" r="21.3333"/>
<circle fill="#a64b00" stroke="#a64b00" stroke-width="0" cx="431.389" cy="145.384" r="21.3333"/>
<circle fill="#a64b00" stroke="#a64b00" stroke-width="0" cx="637.593" cy="197.786" r="21.3333"/>
<circle fill="#a64b00" stroke="#a64b00" stroke-width="0" cx="100.219" cy="64.2866" r="21.3333"/>
</svg>
