<?xml version="1.0" encoding="utf-8"?> <!-- Generator: Adobe Illustrator 13.0.0, SVG Export Plug-In . SVG Version: 6.00 Build 14948)  --> <svg version="1.2" baseProfile="tiny" id="Layer_1" xmlns="http://www.w3.org/2000/svg" xmlns:xlink="http://www.w3.org/1999/xlink" x="0px" y="0px" width="512px" height="512px" viewBox="0 0 512 512" xml:space="preserve">
<polygon points="0,0 512,0 512,512 0,512" style="fill:#ffffff; stroke:#000000;stroke-width:0"/>
<polygon points="-105.868,93.1331 -113.648,135.084 -312.278,98.2471 -304.498,56.2958" style="fill:#006363; stroke:#000000;stroke-width:0"/>
<circle fill="#006363" stroke="#006363" stroke-width="0" cx="-109.758" cy="114.109" r="21.3333"/>
<circle fill="#006363" stroke="#006363" stroke-width="0" cx="-308.388" cy="77.2714" r="21.3333"/>
<polygon points="748.338,378.169 710.65,358.167 813.553,164.269 851.241,184.27" style="fill:#006363; stroke:#000000;stroke-width:0"/>
<circle fill="#006363" stroke="#006363" stroke-width="0" cx="729.494" cy="368.168" r="21.3333"/>
<circle fill="#006363" stroke="#006363" stroke-width="0" cx="832.397" cy="174.27" r="21.3333"/>
<polygon points="1256,469.333 256,1469.33 -744,469.333" style="fill:#000000; stroke:#000000;stroke-width:0"/>
<polygon points="-744,42.6667 256,-957.333 1256,42.6667" style="fill:#000000; stroke:#000000;stroke-width:0"/>
<circle fill="#a64b00" stroke="#a64b00" stroke-width="0" cx="-109.758" cy="114.109" r="21.3333"/>
<circle fill="#a64b00" stroke="#a64b00" stroke-width="0" cx="-308.388" cy="77.2714" r="21.3333"/>
<circle fill="#a64b00" stroke="#a64b00" stroke-width="0" cx="729.494" cy="368.168" r="21.3333"/>
<circle fill="#a64b00" stroke="#a64b00" stroke-width="0" cx="832.397" cy="174.27" r="21.3333"/>
<circle fill="#a64b00" stroke="#a64b00" stroke-width="0" cx="46.8556" cy="363.968" r="21.3333"/>
</svg>
