<?xml version="1.0" encoding="utf-8"?> <!-- Generator: Adobe Illustrator 13.0.0, SVG Export Plug-In . SVG Version: 6.00 Build 14948)  --> <svg version="1.2" baseProfile="tiny" id="Layer_1" xmlns="http://www.w3.org/2000/svg" xmlns:xlink="http://www.w3.org/1999/xlink" x="0px" y="0px" width="512px" height="512px" viewBox="0 0 512 512" xml:space="preserve">
<polygon points="0,0 512,0 512,512 0,512" style="fill:#ffffff; stroke:#000000;stroke-width:0"/>
<polygon points="-60.9369,304.067 -66.8172,346.326 -285.854,315.848 -279.974,273.589" style="fill:#006363; stroke:#000000;stroke-width:0"/>
<circle fill="#006363" stroke="#006363" stroke-width="0" cx="-63.8771" cy="325.196" r="21.3333"/>
<circle fill="#006363" stroke="#006363" stroke-width="0" cx="-282.914" cy="294.718" r="21.3333"/>
<polygon points="726.539,318.323 685.74,305.838 748.679,100.157 789.478,112.642" style="fill:#006363; stroke:#000000;stroke-width:0"/>
<circle fill="#006363" stroke="#006363" stroke-width="0" cx="706.139" cy="312.08" r="21.3333"/>
<circle fill="#006363" stroke="#006363" stroke-width="0" cx="769.079" cy="106.4" r="21.3333"/>
<polygon points="1256,469.333 256,1469.33 -744,469.333" style="fill:#000000; stroke:#000000;stroke-width:0"/>
<polygon points="-744,42.6667 256,-957.333 1256,42.6667" style="fill:#000000; stroke:#000000;stroke-width:0"/>
<circle fill="#a64b00" stroke="#a64b00" stroke-width="0" cx="-63.8771" cy="325.196" r="21.3333"/>
<circle fill="#a64b00" stroke="#a64b00" stroke-width="0" cx="-282.914" cy="294.718" r="21.3333"/>
<circle fill="#a64b00" stroke="#a64b00" stroke-width="0" cx="706.139" cy="312.08" r="21.3333"/>
<circle fill="#a64b00" stroke="#a64b00" stroke-width="0" cx="769.079" cy="106.4" r="21.3333"/>
<circle fill="#a64b00" stroke="#a64b00" stroke-width="0" cx="127.985" cy="96.8337" r="21.3333"/>
</svg>
