<?xml version="1.0" encoding="utf-8"?> <!-- Generator: Adobe Illustrator 13.0.0, SVG Export Plug-In . SVG Version: 6.00 Build 14948)  --> <svg version="1.2" baseProfile="tiny" id="Layer_1" xmlns="http://www.w3.org/2000/svg" xmlns:xlink="http://www.w3.org/1999/xlink" x="0px" y="0px" width="512px" height="512px" viewBox="0 0 512 512" xml:space="preserve">
<polygon points="0,0 512,0 512,512 0,512" style="fill:#ffffff; stroke:#000000;stroke-width:0"/>
<polygon points="-220.987,183.985 -186.181,159.307 -63.8932,331.787 -98.6993,356.465" style="fill:#006363; stroke:#000000;stroke-width:0"/>
<circle fill="#006363" stroke="#006363" stroke-width="0" cx="-203.584" cy="171.646" r="21.3333"/>
<circle fill="#006363" stroke="#006363" stroke-width="0" cx="-81.2962" cy="344.126" r="21.3333"/>
<polygon points="622.971,423.227 599.452,387.628 777.046,270.299 800.565,305.899" style="fill:#006363; stroke:#000000;stroke-width:0"/>
<circle fill="#006363" stroke="#006363" stroke-width="0" cx="611.211" cy="405.428" r="21.3333"/>
<circle fill="#006363" stroke="#006363" stroke-width="0" cx="788.806" cy="288.099" r="21.3333"/>
<polygon points="1256,469.333 256,1469.33 -744,469.333" style="fill:#000000; stroke:#000000;stroke-width:0"/>
<polygon points="-744,42.6667 256,-957.333 1256,42.6667" style="fill:#000000; stroke:#000000;stroke-width:0"/>
<circle fill="#a64b00" stroke="#a64b00" stroke-width="0" cx="-203.584" cy="171.646" r="21.3333"/>
<circle fill="#a64b00" stroke="#a64b00" stroke-width="0" cx="-81.2962" cy="344.126" r="21.3333"/>
<circle fill="#a64b00" stroke="#a64b00" stroke-width="0" cx="611.211" cy="405.428" r="21.3333"/>
<circle fill="#a64b00" stroke="#a64b00" stroke-width="0" cx="788.806" cy="288.099" r="21.3333"/>
<circle fill="#a64b00" stroke="#a64b00" stroke-width="0" cx="198.377" cy="440.293" r="21.3333"/>
</svg>
