<?xml version="1.0" encoding="utf-8"?> <!-- Generator: Adobe Illustrator 13.0.0, SVG Export Plug-In . SVG Version: 6.00 Build 14948)  --> <svg version="1.2" baseProfile="tiny" id="Layer_1" xmlns="http://www.w3.org/2000/svg" xmlns:xlink="http://www.w3.org/1999/xlink" x="0px" y="0px" width="512px" height="512px" viewBox="0 0 512 512" xml:space="preserve">
<polygon points="0,0 512,0 512,512 0,512" style="fill:#ffffff; stroke:#000000;stroke-width:0"/>
<polygon points="-93.3917,177.358 -62.3231,148.114 79.5793,298.872 48.5107,328.116" style="fill:#006363; stroke:#000000;stroke-width:0"/>
<circle fill="#006363" stroke="#006363" stroke-width="0" cx="-77.8574" cy="162.736" r="21.3333"/>
<circle fill="#006363" stroke="#006363" stroke-width="0" cx="64.045" cy="313.494" r="21.3333"/>
<polygon points="430.574,184.552 435.08,142.124 644.261,164.339 639.755,206.767" style="fill:#006363; stroke:#000000;stroke-width:0"/>
<circle fill="#006363" stroke="#006363" stroke-width="0" cx="432.827" cy="163.338" r="21.3333"/>
<circle fill="#006363" stroke="#006363" stroke-width="0" cx="642.008" cy="185.553" r="21.3333"/>
<polygon points="1256,469.333 256,1469.33 -744,469.333" style="fill:#000000; stroke:#000000;stroke-width:0"/>
<polygon points="-744,42.6667 256,-957.333 1256,42.6667" style="fill:#000000; stroke:#000000;stroke-width:0"/>
<circle fill="#a64b00" stroke="#a64b00" stroke-width="0" cx="-77.8574" cy="162.736" r="21.3333"/>
<circle fill="#a64b00" stroke="#a64b00" stroke-width="0" cx="64.045" cy="313.494" r="21.3333"/>
<circle fill="#a64b00" stroke="#a64b00" stroke-width="0" cx="432.827" cy="163.338" r="21.3333"/>
<circle fill="#a64b00" stroke="#a64b00" stroke-width="0" cx="642.008" cy="185.553" r="21.3333"/>
<circle fill="#a64b00" stroke="#a64b00" stroke-width="0" cx="73.7142" cy="134.131" r="21.3333"/>
</svg>
