<?xml version="1.0" encoding="utf-8"?> <!-- Generator: Adobe Illustrator 13.0.0, SVG Export Plug-In . SVG Version: 6.00 Build 14948)  --> <svg version="1.2" baseProfile="tiny" id="Layer_1" xmlns="http://www.w3.org/2000/svg" xmlns:xlink="http://www.w3.org/1999/xlink" x="0px" y="0px" width="512px" height="512px" viewBox="0 0 512 512" xml:space="preserve">
<polygon points="0,0 512,0 512,512 0,512" style="fill:#ffffff; stroke:#000000;stroke-width:0"/>
<polygon points="-160.437,376.314 -195.486,351.982 -75.6495,179.367 -40.601,203.699" style="fill:#006363; stroke:#000000;stroke-width:0"/>
<circle fill="#006363" stroke="#006363" stroke-width="0" cx="-177.961" cy="364.148" r="21.3333"/>
<circle fill="#006363" stroke="#006363" stroke-width="0" cx="-58.1253" cy="191.533" r="21.3333"/>
<polygon points="574.615,266.45 601.116,233.012 766.134,363.798 739.632,397.236" style="fill:#006363; stroke:#000000;stroke-width:0"/>
<circle fill="#006363" stroke="#006363" stroke-width="0" cx="587.865" cy="249.731" r="21.3333"/>
<circle fill="#006363" stroke="#006363" stroke-width="0" cx="752.883" cy="380.517" r="21.3333"/>
<polygon points="1256,469.333 256,1469.33 -744,469.333" style="fill:#000000; stroke:#000000;stroke-width:0"/>
<polygon points="-744,42.6667 256,-957.333 1256,42.6667" style="fill:#000000; stroke:#000000;stroke-width:0"/>
<circle fill="#a64b00" stroke="#a64b00" stroke-width="0" cx="-177.961" cy="364.148" r="21.3333"/>
<circle fill="#a64b00" stroke="#a64b00" stroke-width="0" cx="-58.1253" cy="191.533" r="21.3333"/>
<circle fill="#a64b00" stroke="#a64b00" stroke-width="0" cx="587.865" cy="249.731" r="21.3333"/>
<circle fill="#a64b00" stroke="#a64b00" stroke-width="0" cx="752.883" cy="380.517" r="21.3333"/>
<circle fill="#a64b00" stroke="#a64b00" stroke-width="0" cx="253.856" cy="354.428" r="21.3333"/>
</svg>
