<?xml version="1.0" encoding="utf-8"?> <!-- Generator: Adobe Illustrator 13.0.0, SVG Export Plug-In . SVG Version: 6.00 Build 14948)  --> <svg version="1.2" baseProfile="tiny" id="Layer_1" xmlns="http://www.w3.org/2000/svg" xmlns:xlink="http://www.w3.org/1999/xlink" x="0px" y="0px" width="512px" height="512px" viewBox="0 0 512 512" xml:space="preserve">
<polygon points="0,0 512,0 512,512 0,512" style="fill:#ffffff; stroke:#000000;stroke-width:0"/>
<polygon points="-165.173,323.179 -200.363,299.052 -78.2593,120.963 -43.0695,145.09" style="fill:#006363; stroke:#000000;stroke-width:0"/>
<circle fill="#006363" stroke="#006363" stroke-width="0" cx="-182.768" cy="311.116" r="21.3333"/>
<circle fill="#006363" stroke="#006363" stroke-width="0" cx="-60.6644" cy="133.027" r="21.3333"/>
<polygon points="569.845,289.033 589.624,251.228 779.825,350.74 760.046,388.545" style="fill:#006363; stroke:#000000;stroke-width:0"/>
<circle fill="#006363" stroke="#006363" stroke-width="0" cx="579.735" cy="270.131" r="21.3333"/>
<circle fill="#006363" stroke="#006363" stroke-width="0" cx="769.936" cy="369.643" r="21.3333"/>
<polygon points="1256,469.333 256,1469.33 -744,469.333" style="fill:#000000; stroke:#000000;stroke-width:0"/>
<polygon points="-744,42.6667 256,-957.333 1256,42.6667" style="fill:#000000; stroke:#000000;stroke-width:0"/>
<circle fill="#a64b00" stroke="#a64b00" stroke-width="0" cx="-182.768" cy="311.116" r="21.3333"/>
<circle fill="#a64b00" stroke="#a64b00" stroke-width="0" cx="-60.6644" cy="133.027" r="21.3333"/>
<circle fill="#a64b00" stroke="#a64b00" stroke-width="0" cx="579.735" cy="270.131" r="21.3333"/>
<circle fill="#a64b00" stroke="#a64b00" stroke-width="0" cx="769.936" cy="369.643" r="21.3333"/>
<circle fill="#a64b00" stroke="#a64b00" stroke-width="0" cx="245.504" cy="411.671" r="21.3333"/>
</svg>
