<?xml version="1.0" encoding="utf-8"?> <!-- Generator: Adobe Illustrator 13.0.0, SVG Export Plug-In . SVG Version: 6.00 Build 14948)  --> <svg version="1.2" baseProfile="tiny" id="Layer_1" xmlns="http://www.w3.org/2000/svg" xmlns:xlink="http://www.w3.org/1999/xlink" x="0px" y="0px" width="512px" height="512px" viewBox="0 0 512 512" xml:space="preserve">
<polygon points="0,0 512,0 512,512 0,512" style="fill:#ffffff; stroke:#000000;stroke-width:0"/>
<polygon points="-352.568,383.16 -390.857,364.336 -296.185,171.765 -257.895,190.589" style="fill:#006363; stroke:#000000;stroke-width:0"/>
<circle fill="#006363" stroke="#006363" stroke-width="0" cx="-371.712" cy="373.748" r="21.3333"/>
<circle fill="#006363" stroke="#006363" stroke-width="0" cx="-277.04" cy="181.177" r="21.3333"/>
<polygon points="957.97,214.265 993.739,237.525 874.135,421.449 838.366,398.188" style="fill:#006363; stroke:#000000;stroke-width:0"/>
<circle fill="#006363" stroke="#006363" stroke-width="0" cx="975.855" cy="225.895" r="21.3333"/>
<circle fill="#006363" stroke="#006363" stroke-width="0" cx="856.25" cy="409.818" r="21.3333"/>
<polygon points="1256,469.333 256,1469.33 -744,469.333" style="fill:#000000; stroke:#000000;stroke-width:0"/>
<polygon points="-744,42.6667 256,-957.333 1256,42.6667" style="fill:#000000; stroke:#000000;stroke-width:0"/>
<circle fill="#a64b00" stroke="#a64b00" stroke-width="0" cx="-371.712" cy="373.748" r="21.3333"/>
<circle fill="#a64b00" stroke="#a64b00" stroke-width="0" cx="-277.04" cy="181.177" r="21.3333"/>
<circle fill="#a64b00" stroke="#a64b00" stroke-width="0" cx="975.855" cy="225.895" r="21.3333"/>
<circle fill="#a64b00" stroke="#a64b00" stroke-width="0" cx="856.25" cy="409.818" r="21.3333"/>
<circle fill="#a64b00" stroke="#a64b00" stroke-width="0" cx="608.743" cy="266.782" r="21.3333"/>
</svg>
