<?xml version="1.0" encoding="utf-8"?> <!-- Generator: Adobe Illustrator 13.0.0, SVG Export Plug-In . SVG Version: 6.00 Build 14948)  --> <svg version="1.2" baseProfile="tiny" id="Layer_1" xmlns="http://www.w3.org/2000/svg" xmlns:xlink="http://www.w3.org/1999/xlink" x="0px" y="0px" width="512px" height="512px" viewBox="0 0 512 512" xml:space="preserve">
<polygon points="0,0 512,0 512,512 0,512" style="fill:#ffffff; stroke:#000000;stroke-width:0"/>
<polygon points="-111.366,67.8775 -69.0564,62.3681 -41.299,275.53 -83.6085,281.039" style="fill:#006363; stroke:#000000;stroke-width:0"/>
<circle fill="#006363" stroke="#006363" stroke-width="0" cx="-90.2111" cy="65.1228" r="21.3333"/>
<circle fill="#006363" stroke="#006363" stroke-width="0" cx="-62.4537" cy="278.284" r="21.3333"/>
<polygon points="713.751,206.793 727.388,247.221 525.667,315.269 512.029,274.84" style="fill:#006363; stroke:#000000;stroke-width:0"/>
<circle fill="#006363" stroke="#006363" stroke-width="0" cx="720.57" cy="227.007" r="21.3333"/>
<circle fill="#006363" stroke="#006363" stroke-width="0" cx="518.848" cy="295.054" r="21.3333"/>
<polygon points="1256,469.333 256,1469.33 -744,469.333" style="fill:#000000; stroke:#000000;stroke-width:0"/>
<polygon points="-744,42.6667 256,-957.333 1256,42.6667" style="fill:#000000; stroke:#000000;stroke-width:0"/>
<circle fill="#a64b00" stroke="#a64b00" stroke-width="0" cx="-90.2111" cy="65.1228" r="21.3333"/>
<circle fill="#a64b00" stroke="#a64b00" stroke-width="0" cx="-62.4537" cy="278.284" r="21.3333"/>
<circle fill="#a64b00" stroke="#a64b00" stroke-width="0" cx="720.57" cy="227.007" r="21.3333"/>
<circle fill="#a64b00" stroke="#a64b00" stroke-width="0" cx="518.848" cy="295.054" r="21.3333"/>
<circle fill="#a64b00" stroke="#a64b00" stroke-width="0" cx="348.706" cy="402.13" r="21.3333"/>
</svg>
