<?xml version="1.0" encoding="utf-8"?> <!-- Generator: Adobe Illustrator 13.0.0, SVG Export Plug-In . SVG Version: 6.00 Build 14948)  --> <svg version="1.2" baseProfile="tiny" id="Layer_1" xmlns="http://www.w3.org/2000/svg" xmlns:xlink="http://www.w3.org/1999/xlink" x="0px" y="0px" width="512px" height="512px" viewBox="0 0 512 512" xml:space="preserve">
<polygon points="0,0 512,0 512,512 0,512" style="fill:#ffffff; stroke:#000000;stroke-width:0"/>
<polygon points="-117.424,92.2891 -75.387,84.9861 -38.3888,297.952 -80.4258,305.255" style="fill:#006363; stroke:#000000;stroke-width:0"/>
<circle fill="#006363" stroke="#006363" stroke-width="0" cx="-96.4055" cy="88.6376" r="21.3333"/>
<circle fill="#006363" stroke="#006363" stroke-width="0" cx="-59.4073" cy="301.604" r="21.3333"/>
<polygon points="712.605,200.628 729.492,239.81 530.637,325.516 513.749,286.334" style="fill:#006363; stroke:#000000;stroke-width:0"/>
<circle fill="#006363" stroke="#006363" stroke-width="0" cx="721.048" cy="220.219" r="21.3333"/>
<circle fill="#006363" stroke="#006363" stroke-width="0" cx="522.193" cy="305.925" r="21.3333"/>
<polygon points="1256,469.333 256,1469.33 -744,469.333" style="fill:#000000; stroke:#000000;stroke-width:0"/>
<polygon points="-744,42.6667 256,-957.333 1256,42.6667" style="fill:#000000; stroke:#000000;stroke-width:0"/>
<circle fill="#a64b00" stroke="#a64b00" stroke-width="0" cx="-96.4055" cy="88.6376" r="21.3333"/>
<circle fill="#a64b00" stroke="#a64b00" stroke-width="0" cx="-59.4073" cy="301.604" r="21.3333"/>
<circle fill="#a64b00" stroke="#a64b00" stroke-width="0" cx="721.048" cy="220.219" r="21.3333"/>
<circle fill="#a64b00" stroke="#a64b00" stroke-width="0" cx="522.193" cy="305.925" r="21.3333"/>
<circle fill="#a64b00" stroke="#a64b00" stroke-width="0" cx="345.127" cy="440.293" r="21.3333"/>
</svg>
