<?xml version="1.0" encoding="utf-8"?> <!-- Generator: Adobe Illustrator 13.0.0, SVG Export Plug-In . SVG Version: 6.00 Build 14948)  --> <svg version="1.2" baseProfile="tiny" id="Layer_1" xmlns="http://www.w3.org/2000/svg" xmlns:xlink="http://www.w3.org/1999/xlink" x="0px" y="0px" width="512px" height="512px" viewBox="0 0 512 512" xml:space="preserve">
<polygon points="0,0 512,0 512,512 0,512" style="fill:#ffffff; stroke:#000000;stroke-width:0"/>
<polygon points="-147.837,197.294 -106.072,206.018 -150.16,417.095 -191.926,408.372" style="fill:#006363; stroke:#000000;stroke-width:0"/>
<circle fill="#006363" stroke="#006363" stroke-width="0" cx="-126.954" cy="201.656" r="21.3333"/>
<circle fill="#006363" stroke="#006363" stroke-width="0" cx="-171.043" cy="412.733" r="21.3333"/>
<polygon points="659.88,453.861 625.903,428.054 756.069,256.676 790.047,282.483" style="fill:#006363; stroke:#000000;stroke-width:0"/>
<circle fill="#006363" stroke="#006363" stroke-width="0" cx="642.891" cy="440.957" r="21.3333"/>
<circle fill="#006363" stroke="#006363" stroke-width="0" cx="773.058" cy="269.58" r="21.3333"/>
<polygon points="1256,469.333 256,1469.33 -744,469.333" style="fill:#000000; stroke:#000000;stroke-width:0"/>
<polygon points="-744,42.6667 256,-957.333 1256,42.6667" style="fill:#000000; stroke:#000000;stroke-width:0"/>
<circle fill="#a64b00" stroke="#a64b00" stroke-width="0" cx="-126.954" cy="201.656" r="21.3333"/>
<circle fill="#a64b00" stroke="#a64b00" stroke-width="0" cx="-171.043" cy="412.733" r="21.3333"/>
<circle fill="#a64b00" stroke="#a64b00" stroke-width="0" cx="642.891" cy="440.957" r="21.3333"/>
<circle fill="#a64b00" stroke="#a64b00" stroke-width="0" cx="773.058" cy="269.58" r="21.3333"/>
<circle fill="#a64b00" stroke="#a64b00" stroke-width="0" cx="183.464" cy="201.779" r="21.3333"/>
</svg>
