<?xml version="1.0" encoding="utf-8"?> <!-- Generator: Adobe Illustrator 13.0.0, SVG Export Plug-In . SVG Version: 6.00 Build 14948)  --> <svg version="1.2" baseProfile="tiny" id="Layer_1" xmlns="http://www.w3.org/2000/svg" xmlns:xlink="http://www.w3.org/1999/xlink" x="0px" y="0px" width="512px" height="512px" viewBox="0 0 512 512" xml:space="preserve">
<polygon points="0,0 512,0 512,512 0,512" style="fill:#ffffff; stroke:#000000;stroke-width:0"/>
<polygon points="-183.878,180.437 -141.708,173.943 -108.348,390.56 -150.518,397.055" style="fill:#006363; stroke:#000000;stroke-width:0"/>
<circle fill="#006363" stroke="#006363" stroke-width="0" cx="-162.793" cy="177.19" r="21.3333"/>
<circle fill="#006363" stroke="#006363" stroke-width="0" cx="-129.433" cy="393.807" r="21.3333"/>
<polygon points="642.16,442.201 612.348,411.677 766.779,260.851 796.591,291.375" style="fill:#006363; stroke:#000000;stroke-width:0"/>
<circle fill="#006363" stroke="#006363" stroke-width="0" cx="627.254" cy="426.939" r="21.3333"/>
<circle fill="#006363" stroke="#006363" stroke-width="0" cx="781.685" cy="276.113" r="21.3333"/>
<polygon points="1256,469.333 256,1469.33 -744,469.333" style="fill:#000000; stroke:#000000;stroke-width:0"/>
<polygon points="-744,42.6667 256,-957.333 1256,42.6667" style="fill:#000000; stroke:#000000;stroke-width:0"/>
<circle fill="#a64b00" stroke="#a64b00" stroke-width="0" cx="-162.793" cy="177.19" r="21.3333"/>
<circle fill="#a64b00" stroke="#a64b00" stroke-width="0" cx="-129.433" cy="393.807" r="21.3333"/>
<circle fill="#a64b00" stroke="#a64b00" stroke-width="0" cx="627.254" cy="426.939" r="21.3333"/>
<circle fill="#a64b00" stroke="#a64b00" stroke-width="0" cx="781.685" cy="276.113" r="21.3333"/>
<circle fill="#a64b00" stroke="#a64b00" stroke-width="0" cx="190.026" cy="306.725" r="21.3333"/>
</svg>
