<?xml version="1.0" encoding="utf-8"?> <!-- Generator: Adobe Illustrator 13.0.0, SVG Export Plug-In . SVG Version: 6.00 Build 14948)  --> <svg version="1.2" baseProfile="tiny" id="Layer_1" xmlns="http://www.w3.org/2000/svg" xmlns:xlink="http://www.w3.org/1999/xlink" x="0px" y="0px" width="512px" height="512px" viewBox="0 0 512 512" xml:space="preserve">
<polygon points="0,0 512,0 512,512 0,512" style="fill:#ffffff; stroke:#000000;stroke-width:0"/>
<polygon points="-146.472,255.501 -133.51,296.151 -346.701,364.133 -359.663,323.483" style="fill:#006363; stroke:#000000;stroke-width:0"/>
<circle fill="#006363" stroke="#006363" stroke-width="0" cx="-139.991" cy="275.826" r="21.3333"/>
<circle fill="#006363" stroke="#006363" stroke-width="0" cx="-353.182" cy="343.808" r="21.3333"/>
<polygon points="744.241,426.678 724.848,388.674 908.784,294.816 928.177,332.82" style="fill:#006363; stroke:#000000;stroke-width:0"/>
<circle fill="#006363" stroke="#006363" stroke-width="0" cx="734.544" cy="407.676" r="21.3333"/>
<circle fill="#006363" stroke="#006363" stroke-width="0" cx="918.48" cy="313.818" r="21.3333"/>
<polygon points="1256,469.333 256,1469.33 -744,469.333" style="fill:#000000; stroke:#000000;stroke-width:0"/>
<polygon points="-744,42.6667 256,-957.333 1256,42.6667" style="fill:#000000; stroke:#000000;stroke-width:0"/>
<circle fill="#a64b00" stroke="#a64b00" stroke-width="0" cx="-139.991" cy="275.826" r="21.3333"/>
<circle fill="#a64b00" stroke="#a64b00" stroke-width="0" cx="-353.182" cy="343.808" r="21.3333"/>
<circle fill="#a64b00" stroke="#a64b00" stroke-width="0" cx="734.544" cy="407.676" r="21.3333"/>
<circle fill="#a64b00" stroke="#a64b00" stroke-width="0" cx="918.48" cy="313.818" r="21.3333"/>
<circle fill="#a64b00" stroke="#a64b00" stroke-width="0" cx="-38.4499" cy="335.347" r="21.3333"/>
</svg>
