<?xml version="1.0" encoding="utf-8"?> <!-- Generator: Adobe Illustrator 13.0.0, SVG Export Plug-In . SVG Version: 6.00 Build 14948)  --> <svg version="1.2" baseProfile="tiny" id="Layer_1" xmlns="http://www.w3.org/2000/svg" xmlns:xlink="http://www.w3.org/1999/xlink" x="0px" y="0px" width="512px" height="512px" viewBox="0 0 512 512" xml:space="preserve">
<polygon points="0,0 512,0 512,512 0,512" style="fill:#ffffff; stroke:#000000;stroke-width:0"/>
<polygon points="-147.64,235.02 -108.389,218.292 -25.4873,412.811 -64.7379,429.539" style="fill:#006363; stroke:#000000;stroke-width:0"/>
<circle fill="#006363" stroke="#006363" stroke-width="0" cx="-128.014" cy="226.656" r="21.3333"/>
<circle fill="#006363" stroke="#006363" stroke-width="0" cx="-45.1126" cy="421.175" r="21.3333"/>
<polygon points="686.382,179.802 718.51,207.878 577.89,368.795 545.762,340.72" style="fill:#006363; stroke:#000000;stroke-width:0"/>
<circle fill="#006363" stroke="#006363" stroke-width="0" cx="702.446" cy="193.84" r="21.3333"/>
<circle fill="#006363" stroke="#006363" stroke-width="0" cx="561.826" cy="354.757" r="21.3333"/>
<polygon points="1256,469.333 256,1469.33 -744,469.333" style="fill:#000000; stroke:#000000;stroke-width:0"/>
<polygon points="-744,42.6667 256,-957.333 1256,42.6667" style="fill:#000000; stroke:#000000;stroke-width:0"/>
<circle fill="#a64b00" stroke="#a64b00" stroke-width="0" cx="-128.014" cy="226.656" r="21.3333"/>
<circle fill="#a64b00" stroke="#a64b00" stroke-width="0" cx="-45.1126" cy="421.175" r="21.3333"/>
<circle fill="#a64b00" stroke="#a64b00" stroke-width="0" cx="702.446" cy="193.84" r="21.3333"/>
<circle fill="#a64b00" stroke="#a64b00" stroke-width="0" cx="561.826" cy="354.757" r="21.3333"/>
<circle fill="#a64b00" stroke="#a64b00" stroke-width="0" cx="325.441" cy="125.455" r="21.3333"/>
</svg>
