<?xml version="1.0" encoding="utf-8"?> <!-- Generator: Adobe Illustrator 13.0.0, SVG Export Plug-In . SVG Version: 6.00 Build 14948)  --> <svg version="1.2" baseProfile="tiny" id="Layer_1" xmlns="http://www.w3.org/2000/svg" xmlns:xlink="http://www.w3.org/1999/xlink" x="0px" y="0px" width="512px" height="512px" viewBox="0 0 512 512" xml:space="preserve">
<polygon points="0,0 512,0 512,512 0,512" style="fill:#ffffff; stroke:#000000;stroke-width:0"/>
<polygon points="-144.463,129.986 -127.777,90.718 69.4492,174.527 52.7625,213.795" style="fill:#006363; stroke:#000000;stroke-width:0"/>
<circle fill="#006363" stroke="#006363" stroke-width="0" cx="-136.12" cy="110.352" r="21.3333"/>
<circle fill="#006363" stroke="#006363" stroke-width="0" cx="61.1058" cy="194.161" r="21.3333"/>
<polygon points="583.037,319.058 540.587,314.767 562.061,102.302 604.511,106.592" style="fill:#006363; stroke:#000000;stroke-width:0"/>
<circle fill="#006363" stroke="#006363" stroke-width="0" cx="561.812" cy="316.912" r="21.3333"/>
<circle fill="#006363" stroke="#006363" stroke-width="0" cx="583.286" cy="104.447" r="21.3333"/>
<polygon points="1256,469.333 256,1469.33 -744,469.333" style="fill:#000000; stroke:#000000;stroke-width:0"/>
<polygon points="-744,42.6667 256,-957.333 1256,42.6667" style="fill:#000000; stroke:#000000;stroke-width:0"/>
<circle fill="#a64b00" stroke="#a64b00" stroke-width="0" cx="-136.12" cy="110.352" r="21.3333"/>
<circle fill="#a64b00" stroke="#a64b00" stroke-width="0" cx="61.1058" cy="194.161" r="21.3333"/>
<circle fill="#a64b00" stroke="#a64b00" stroke-width="0" cx="561.812" cy="316.912" r="21.3333"/>
<circle fill="#a64b00" stroke="#a64b00" stroke-width="0" cx="583.286" cy="104.447" r="21.3333"/>
<circle fill="#a64b00" stroke="#a64b00" stroke-width="0" cx="436.994" cy="344.887" r="21.3333"/>
</svg>
