<?xml version="1.0" encoding="utf-8"?> <!-- Generator: Adobe Illustrator 13.0.0, SVG Export Plug-In . SVG Version: 6.00 Build 14948)  --> <svg version="1.2" baseProfile="tiny" id="Layer_1" xmlns="http://www.w3.org/2000/svg" xmlns:xlink="http://www.w3.org/1999/xlink" x="0px" y="0px" width="512px" height="512px" viewBox="0 0 512 512" xml:space="preserve">
<polygon points="0,0 512,0 512,512 0,512" style="fill:#ffffff; stroke:#000000;stroke-width:0"/>
<polygon points="-137.394,203.538 -131.147,245.745 -331.12,275.341 -337.366,233.135" style="fill:#006363; stroke:#000000;stroke-width:0"/>
<circle fill="#006363" stroke="#006363" stroke-width="0" cx="-134.271" cy="224.641" r="21.3333"/>
<circle fill="#006363" stroke="#006363" stroke-width="0" cx="-334.243" cy="254.238" r="21.3333"/>
<polygon points="755.935,455.828 723.735,427.835 867.136,262.883 899.336,290.876" style="fill:#006363; stroke:#000000;stroke-width:0"/>
<circle fill="#006363" stroke="#006363" stroke-width="0" cx="739.835" cy="441.831" r="21.3333"/>
<circle fill="#006363" stroke="#006363" stroke-width="0" cx="883.236" cy="276.879" r="21.3333"/>
<polygon points="1256,469.333 256,1469.33 -744,469.333" style="fill:#000000; stroke:#000000;stroke-width:0"/>
<polygon points="-744,42.6667 256,-957.333 1256,42.6667" style="fill:#000000; stroke:#000000;stroke-width:0"/>
<circle fill="#a64b00" stroke="#a64b00" stroke-width="0" cx="-134.271" cy="224.641" r="21.3333"/>
<circle fill="#a64b00" stroke="#a64b00" stroke-width="0" cx="-334.243" cy="254.238" r="21.3333"/>
<circle fill="#a64b00" stroke="#a64b00" stroke-width="0" cx="739.835" cy="441.831" r="21.3333"/>
<circle fill="#a64b00" stroke="#a64b00" stroke-width="0" cx="883.236" cy="276.879" r="21.3333"/>
<circle fill="#a64b00" stroke="#a64b00" stroke-width="0" cx="-10.4124" cy="230.401" r="21.3333"/>
</svg>
