<?xml version="1.0" encoding="utf-8"?> <!-- Generator: Adobe Illustrator 13.0.0, SVG Export Plug-In . SVG Version: 6.00 Build 14948)  --> <svg version="1.2" baseProfile="tiny" id="Layer_1" xmlns="http://www.w3.org/2000/svg" xmlns:xlink="http://www.w3.org/1999/xlink" x="0px" y="0px" width="512px" height="512px" viewBox="0 0 512 512" xml:space="preserve">
<polygon points="0,0 512,0 512,512 0,512" style="fill:#ffffff; stroke:#000000;stroke-width:0"/>
<polygon points="-107.571,71.421 -65.1785,66.5961 -40.896,279.953 -83.289,284.778" style="fill:#006363; stroke:#000000;stroke-width:0"/>
<circle fill="#006363" stroke="#006363" stroke-width="0" cx="-86.375" cy="69.0085" r="21.3333"/>
<circle fill="#006363" stroke="#006363" stroke-width="0" cx="-62.0925" cy="282.366" r="21.3333"/>
<polygon points="715.787,214.663 724.995,256.324 518.532,301.955 509.325,260.293" style="fill:#006363; stroke:#000000;stroke-width:0"/>
<circle fill="#006363" stroke="#006363" stroke-width="0" cx="720.391" cy="235.494" r="21.3333"/>
<circle fill="#006363" stroke="#006363" stroke-width="0" cx="513.928" cy="281.124" r="21.3333"/>
<polygon points="1256,469.333 256,1469.33 -744,469.333" style="fill:#000000; stroke:#000000;stroke-width:0"/>
<polygon points="-744,42.6667 256,-957.333 1256,42.6667" style="fill:#000000; stroke:#000000;stroke-width:0"/>
<circle fill="#a64b00" stroke="#a64b00" stroke-width="0" cx="-86.375" cy="69.0085" r="21.3333"/>
<circle fill="#a64b00" stroke="#a64b00" stroke-width="0" cx="-62.0925" cy="282.366" r="21.3333"/>
<circle fill="#a64b00" stroke="#a64b00" stroke-width="0" cx="720.391" cy="235.494" r="21.3333"/>
<circle fill="#a64b00" stroke="#a64b00" stroke-width="0" cx="513.928" cy="281.124" r="21.3333"/>
<circle fill="#a64b00" stroke="#a64b00" stroke-width="0" cx="353.478" cy="325.806" r="21.3333"/>
</svg>
