<?xml version="1.0" encoding="utf-8"?> <!-- Generator: Adobe Illustrator 13.0.0, SVG Export Plug-In . SVG Version: 6.00 Build 14948)  --> <svg version="1.2" baseProfile="tiny" id="Layer_1" xmlns="http://www.w3.org/2000/svg" xmlns:xlink="http://www.w3.org/1999/xlink" x="0px" y="0px" width="512px" height="512px" viewBox="0 0 512 512" xml:space="preserve">
<polygon points="0,0 512,0 512,512 0,512" style="fill:#ffffff; stroke:#000000;stroke-width:0"/>
<polygon points="-186.652,181.195 -144.709,173.367 -105.05,385.858 -146.992,393.686" style="fill:#006363; stroke:#000000;stroke-width:0"/>
<circle fill="#006363" stroke="#006363" stroke-width="0" cx="-165.681" cy="177.281" r="21.3333"/>
<circle fill="#006363" stroke="#006363" stroke-width="0" cx="-126.021" cy="389.772" r="21.3333"/>
<polygon points="641.354,440.345 611.952,409.427 766.948,262.027 796.35,292.945" style="fill:#006363; stroke:#000000;stroke-width:0"/>
<circle fill="#006363" stroke="#006363" stroke-width="0" cx="626.653" cy="424.886" r="21.3333"/>
<circle fill="#006363" stroke="#006363" stroke-width="0" cx="781.649" cy="277.486" r="21.3333"/>
<polygon points="1256,469.333 256,1469.33 -744,469.333" style="fill:#000000; stroke:#000000;stroke-width:0"/>
<polygon points="-744,42.6667 256,-957.333 1256,42.6667" style="fill:#000000; stroke:#000000;stroke-width:0"/>
<circle fill="#a64b00" stroke="#a64b00" stroke-width="0" cx="-165.681" cy="177.281" r="21.3333"/>
<circle fill="#a64b00" stroke="#a64b00" stroke-width="0" cx="-126.021" cy="389.772" r="21.3333"/>
<circle fill="#a64b00" stroke="#a64b00" stroke-width="0" cx="626.653" cy="424.886" r="21.3333"/>
<circle fill="#a64b00" stroke="#a64b00" stroke-width="0" cx="781.649" cy="277.486" r="21.3333"/>
<circle fill="#a64b00" stroke="#a64b00" stroke-width="0" cx="190.622" cy="316.266" r="21.3333"/>
</svg>
