<?xml version="1.0" encoding="utf-8"?> <!-- Generator: Adobe Illustrator 13.0.0, SVG Export Plug-In . SVG Version: 6.00 Build 14948)  --> <svg version="1.2" baseProfile="tiny" id="Layer_1" xmlns="http://www.w3.org/2000/svg" xmlns:xlink="http://www.w3.org/1999/xlink" x="0px" y="0px" width="512px" height="512px" viewBox="0 0 512 512" xml:space="preserve">
<polygon points="0,0 512,0 512,512 0,512" style="fill:#ffffff; stroke:#000000;stroke-width:0"/>
<polygon points="5.32464,74.0639 47.9088,71.4115 61.1283,283.648 18.5442,286.301" style="fill:#006363; stroke:#000000;stroke-width:0"/>
<circle fill="#006363" stroke="#006363" stroke-width="0" cx="26.6167" cy="72.7377" r="21.3333"/>
<circle fill="#006363" stroke="#006363" stroke-width="0" cx="39.8362" cy="284.974" r="21.3333"/>
<polygon points="457.361,222.501 499.92,219.484 514.947,431.416 472.387,434.433" style="fill:#006363; stroke:#000000;stroke-width:0"/>
<circle fill="#006363" stroke="#006363" stroke-width="0" cx="478.64" cy="220.993" r="21.3333"/>
<circle fill="#006363" stroke="#006363" stroke-width="0" cx="493.667" cy="432.924" r="21.3333"/>
<polygon points="1256,469.333 256,1469.33 -744,469.333" style="fill:#000000; stroke:#000000;stroke-width:0"/>
<polygon points="-744,42.6667 256,-957.333 1256,42.6667" style="fill:#000000; stroke:#000000;stroke-width:0"/>
<circle fill="#a64b00" stroke="#a64b00" stroke-width="0" cx="26.6167" cy="72.7377" r="21.3333"/>
<circle fill="#a64b00" stroke="#a64b00" stroke-width="0" cx="39.8362" cy="284.974" r="21.3333"/>
<circle fill="#a64b00" stroke="#a64b00" stroke-width="0" cx="478.64" cy="220.993" r="21.3333"/>
<circle fill="#a64b00" stroke="#a64b00" stroke-width="0" cx="493.667" cy="432.924" r="21.3333"/>
<circle fill="#a64b00" stroke="#a64b00" stroke-width="0" cx="166.647" cy="315.507" r="21.3333"/>
</svg>
