<?xml version="1.0" encoding="utf-8"?> <!-- Generator: Adobe Illustrator 13.0.0, SVG Export Plug-In . SVG Version: 6.00 Build 14948)  --> <svg version="1.2" baseProfile="tiny" id="Layer_1" xmlns="http://www.w3.org/2000/svg" xmlns:xlink="http://www.w3.org/1999/xlink" x="0px" y="0px" width="512px" height="512px" viewBox="0 0 512 512" xml:space="preserve">
<polygon points="0,0 512,0 512,512 0,512" style="fill:#ffffff; stroke:#000000;stroke-width:0"/>
<polygon points="-84.3678,154.322 -78.3246,196.559 -287.083,226.428 -293.126,184.192" style="fill:#006363; stroke:#000000;stroke-width:0"/>
<circle fill="#006363" stroke="#006363" stroke-width="0" cx="-81.3462" cy="175.44" r="21.3333"/>
<circle fill="#006363" stroke="#006363" stroke-width="0" cx="-290.104" cy="205.31" r="21.3333"/>
<polygon points="743.497,299.479 702.457,287.81 761.674,79.5397 802.714,91.2084" style="fill:#006363; stroke:#000000;stroke-width:0"/>
<circle fill="#006363" stroke="#006363" stroke-width="0" cx="722.977" cy="293.644" r="21.3333"/>
<circle fill="#006363" stroke="#006363" stroke-width="0" cx="782.194" cy="85.374" r="21.3333"/>
<polygon points="1256,469.333 256,1469.33 -744,469.333" style="fill:#000000; stroke:#000000;stroke-width:0"/>
<polygon points="-744,42.6667 256,-957.333 1256,42.6667" style="fill:#000000; stroke:#000000;stroke-width:0"/>
<circle fill="#a64b00" stroke="#a64b00" stroke-width="0" cx="-81.3462" cy="175.44" r="21.3333"/>
<circle fill="#a64b00" stroke="#a64b00" stroke-width="0" cx="-290.104" cy="205.31" r="21.3333"/>
<circle fill="#a64b00" stroke="#a64b00" stroke-width="0" cx="722.977" cy="293.644" r="21.3333"/>
<circle fill="#a64b00" stroke="#a64b00" stroke-width="0" cx="782.194" cy="85.374" r="21.3333"/>
<circle fill="#a64b00" stroke="#a64b00" stroke-width="0" cx="99.9478" cy="430.752" r="21.3333"/>
</svg>
