<?xml version="1.0" encoding="utf-8"?> <!-- Generator: Adobe Illustrator 13.0.0, SVG Export Plug-In . SVG Version: 6.00 Build 14948)  --> <svg version="1.2" baseProfile="tiny" id="Layer_1" xmlns="http://www.w3.org/2000/svg" xmlns:xlink="http://www.w3.org/1999/xlink" x="0px" y="0px" width="512px" height="512px" viewBox="0 0 512 512" xml:space="preserve">
<polygon points="0,0 512,0 512,512 0,512" style="fill:#ffffff; stroke:#000000;stroke-width:0"/>
<polygon points="-112.754,124.051 -116.597,166.544 -319.558,148.188 -315.715,105.695" style="fill:#006363; stroke:#000000;stroke-width:0"/>
<circle fill="#006363" stroke="#006363" stroke-width="0" cx="-114.675" cy="145.298" r="21.3333"/>
<circle fill="#006363" stroke="#006363" stroke-width="0" cx="-317.637" cy="126.942" r="21.3333"/>
<polygon points="750.955,399.382 714.623,377.012 828.142,192.633 864.475,215.002" style="fill:#006363; stroke:#000000;stroke-width:0"/>
<circle fill="#006363" stroke="#006363" stroke-width="0" cx="732.789" cy="388.197" r="21.3333"/>
<circle fill="#006363" stroke="#006363" stroke-width="0" cx="846.309" cy="203.818" r="21.3333"/>
<polygon points="1256,469.333 256,1469.33 -744,469.333" style="fill:#000000; stroke:#000000;stroke-width:0"/>
<polygon points="-744,42.6667 256,-957.333 1256,42.6667" style="fill:#000000; stroke:#000000;stroke-width:0"/>
<circle fill="#a64b00" stroke="#a64b00" stroke-width="0" cx="-114.675" cy="145.298" r="21.3333"/>
<circle fill="#a64b00" stroke="#a64b00" stroke-width="0" cx="-317.637" cy="126.942" r="21.3333"/>
<circle fill="#a64b00" stroke="#a64b00" stroke-width="0" cx="732.789" cy="388.197" r="21.3333"/>
<circle fill="#a64b00" stroke="#a64b00" stroke-width="0" cx="846.309" cy="203.818" r="21.3333"/>
<circle fill="#a64b00" stroke="#a64b00" stroke-width="0" cx="30.749" cy="106.374" r="21.3333"/>
</svg>
