<?xml version="1.0" encoding="utf-8"?> <!-- Generator: Adobe Illustrator 13.0.0, SVG Export Plug-In . SVG Version: 6.00 Build 14948)  --> <svg version="1.2" baseProfile="tiny" id="Layer_1" xmlns="http://www.w3.org/2000/svg" xmlns:xlink="http://www.w3.org/1999/xlink" x="0px" y="0px" width="512px" height="512px" viewBox="0 0 512 512" xml:space="preserve">
<polygon points="0,0 512,0 512,512 0,512" style="fill:#ffffff; stroke:#000000;stroke-width:0"/>
<polygon points="-327.523,423.862 -369.429,415.845 -329.522,207.249 -287.615,215.266" style="fill:#006363; stroke:#000000;stroke-width:0"/>
<circle fill="#006363" stroke="#006363" stroke-width="0" cx="-348.476" cy="419.853" r="21.3333"/>
<circle fill="#006363" stroke="#006363" stroke-width="0" cx="-308.568" cy="211.258" r="21.3333"/>
<polygon points="970.398,222.621 1003.12,249.999 869.992,409.124 837.268,381.746" style="fill:#006363; stroke:#000000;stroke-width:0"/>
<circle fill="#006363" stroke="#006363" stroke-width="0" cx="986.76" cy="236.31" r="21.3333"/>
<circle fill="#006363" stroke="#006363" stroke-width="0" cx="853.63" cy="395.435" r="21.3333"/>
<polygon points="1256,469.333 256,1469.33 -744,469.333" style="fill:#000000; stroke:#000000;stroke-width:0"/>
<polygon points="-744,42.6667 256,-957.333 1256,42.6667" style="fill:#000000; stroke:#000000;stroke-width:0"/>
<circle fill="#a64b00" stroke="#a64b00" stroke-width="0" cx="-348.476" cy="419.853" r="21.3333"/>
<circle fill="#a64b00" stroke="#a64b00" stroke-width="0" cx="-308.568" cy="211.258" r="21.3333"/>
<circle fill="#a64b00" stroke="#a64b00" stroke-width="0" cx="986.76" cy="236.31" r="21.3333"/>
<circle fill="#a64b00" stroke="#a64b00" stroke-width="0" cx="853.63" cy="395.435" r="21.3333"/>
<circle fill="#a64b00" stroke="#a64b00" stroke-width="0" cx="748.109" cy="290.577" r="21.3333"/>
</svg>
