<?xml version="1.0" encoding="utf-8"?> <!-- Generator: Adobe Illustrator 13.0.0, SVG Export Plug-In . SVG Version: 6.00 Build 14948)  --> <svg version="1.2" baseProfile="tiny" id="Layer_1" xmlns="http://www.w3.org/2000/svg" xmlns:xlink="http://www.w3.org/1999/xlink" x="0px" y="0px" width="512px" height="512px" viewBox="0 0 512 512" xml:space="preserve">
<polygon points="0,0 512,0 512,512 0,512" style="fill:#ffffff; stroke:#000000;stroke-width:0"/>
<polygon points="-124.332,185.372 -120.254,227.843 -336.312,248.586 -340.39,206.114" style="fill:#006363; stroke:#000000;stroke-width:0"/>
<circle fill="#006363" stroke="#006363" stroke-width="0" cx="-122.293" cy="206.608" r="21.3333"/>
<circle fill="#006363" stroke="#006363" stroke-width="0" cx="-338.351" cy="227.35" r="21.3333"/>
<polygon points="757.845,439.991 724.669,413.162 855.666,251.177 888.842,278.006" style="fill:#006363; stroke:#000000;stroke-width:0"/>
<circle fill="#006363" stroke="#006363" stroke-width="0" cx="741.257" cy="426.576" r="21.3333"/>
<circle fill="#006363" stroke="#006363" stroke-width="0" cx="872.254" cy="264.591" r="21.3333"/>
<polygon points="1256,469.333 256,1469.33 -744,469.333" style="fill:#000000; stroke:#000000;stroke-width:0"/>
<polygon points="-744,42.6667 256,-957.333 1256,42.6667" style="fill:#000000; stroke:#000000;stroke-width:0"/>
<circle fill="#a64b00" stroke="#a64b00" stroke-width="0" cx="-122.293" cy="206.608" r="21.3333"/>
<circle fill="#a64b00" stroke="#a64b00" stroke-width="0" cx="-338.351" cy="227.35" r="21.3333"/>
<circle fill="#a64b00" stroke="#a64b00" stroke-width="0" cx="741.257" cy="426.576" r="21.3333"/>
<circle fill="#a64b00" stroke="#a64b00" stroke-width="0" cx="872.254" cy="264.591" r="21.3333"/>
<circle fill="#a64b00" stroke="#a64b00" stroke-width="0" cx="-1.46429" cy="373.509" r="21.3333"/>
</svg>
