<?xml version="1.0" encoding="utf-8"?> <!-- Generator: Adobe Illustrator 13.0.0, SVG Export Plug-In . SVG Version: 6.00 Build 14948)  --> <svg version="1.2" baseProfile="tiny" id="Layer_1" xmlns="http://www.w3.org/2000/svg" xmlns:xlink="http://www.w3.org/1999/xlink" x="0px" y="0px" width="512px" height="512px" viewBox="0 0 512 512" xml:space="preserve">
<polygon points="0,0 512,0 512,512 0,512" style="fill:#ffffff; stroke:#000000;stroke-width:0"/>
<polygon points="-155.494,274.118 -117.701,254.317 -22.3544,436.298 -60.1479,456.099" style="fill:#006363; stroke:#000000;stroke-width:0"/>
<circle fill="#006363" stroke="#006363" stroke-width="0" cx="-136.598" cy="264.217" r="21.3333"/>
<circle fill="#006363" stroke="#006363" stroke-width="0" cx="-41.2512" cy="446.199" r="21.3333"/>
<polygon points="677.604,176.7 712.896,200.678 592.404,378.022 557.113,354.044" style="fill:#006363; stroke:#000000;stroke-width:0"/>
<circle fill="#006363" stroke="#006363" stroke-width="0" cx="695.25" cy="188.689" r="21.3333"/>
<circle fill="#006363" stroke="#006363" stroke-width="0" cx="574.758" cy="366.033" r="21.3333"/>
<polygon points="1256,469.333 256,1469.33 -744,469.333" style="fill:#000000; stroke:#000000;stroke-width:0"/>
<polygon points="-744,42.6667 256,-957.333 1256,42.6667" style="fill:#000000; stroke:#000000;stroke-width:0"/>
<circle fill="#a64b00" stroke="#a64b00" stroke-width="0" cx="-136.598" cy="264.217" r="21.3333"/>
<circle fill="#a64b00" stroke="#a64b00" stroke-width="0" cx="-41.2512" cy="446.199" r="21.3333"/>
<circle fill="#a64b00" stroke="#a64b00" stroke-width="0" cx="695.25" cy="188.689" r="21.3333"/>
<circle fill="#a64b00" stroke="#a64b00" stroke-width="0" cx="574.758" cy="366.033" r="21.3333"/>
<circle fill="#a64b00" stroke="#a64b00" stroke-width="0" cx="320.072" cy="77.7526" r="21.3333"/>
</svg>
