<?xml version="1.0" encoding="utf-8"?> <!-- Generator: Adobe Illustrator 13.0.0, SVG Export Plug-In . SVG Version: 6.00 Build 14948)  --> <svg version="1.2" baseProfile="tiny" id="Layer_1" xmlns="http://www.w3.org/2000/svg" xmlns:xlink="http://www.w3.org/1999/xlink" x="0px" y="0px" width="512px" height="512px" viewBox="0 0 512 512" xml:space="preserve">
<polygon points="0,0 512,0 512,512 0,512" style="fill:#ffffff; stroke:#000000;stroke-width:0"/>
<polygon points="-244.69,221.757 -244.588,179.091 -24.9749,179.618 -25.0773,222.284" style="fill:#006363; stroke:#000000;stroke-width:0"/>
<circle fill="#006363" stroke="#006363" stroke-width="0" cx="-244.639" cy="200.424" r="21.3333"/>
<circle fill="#006363" stroke="#006363" stroke-width="0" cx="-25.0261" cy="200.951" r="21.3333"/>
<polygon points="588.686,378.614 580.491,336.742 792.85,295.18 801.045,337.053" style="fill:#006363; stroke:#000000;stroke-width:0"/>
<circle fill="#006363" stroke="#006363" stroke-width="0" cx="584.588" cy="357.678" r="21.3333"/>
<circle fill="#006363" stroke="#006363" stroke-width="0" cx="796.947" cy="316.116" r="21.3333"/>
<polygon points="1256,469.333 256,1469.33 -744,469.333" style="fill:#000000; stroke:#000000;stroke-width:0"/>
<polygon points="-744,42.6667 256,-957.333 1256,42.6667" style="fill:#000000; stroke:#000000;stroke-width:0"/>
<circle fill="#a64b00" stroke="#a64b00" stroke-width="0" cx="-244.639" cy="200.424" r="21.3333"/>
<circle fill="#a64b00" stroke="#a64b00" stroke-width="0" cx="-25.0261" cy="200.951" r="21.3333"/>
<circle fill="#a64b00" stroke="#a64b00" stroke-width="0" cx="584.588" cy="357.678" r="21.3333"/>
<circle fill="#a64b00" stroke="#a64b00" stroke-width="0" cx="796.947" cy="316.116" r="21.3333"/>
<circle fill="#a64b00" stroke="#a64b00" stroke-width="0" cx="215.677" cy="182.698" r="21.3333"/>
</svg>
