<?xml version="1.0" encoding="utf-8"?> <!-- Generator: Adobe Illustrator 13.0.0, SVG Export Plug-In . SVG Version: 6.00 Build 14948)  --> <svg version="1.2" baseProfile="tiny" id="Layer_1" xmlns="http://www.w3.org/2000/svg" xmlns:xlink="http://www.w3.org/1999/xlink" x="0px" y="0px" width="512px" height="512px" viewBox="0 0 512 512" xml:space="preserve">
<polygon points="0,0 512,0 512,512 0,512" style="fill:#ffffff; stroke:#000000;stroke-width:0"/>
<polygon points="-136.273,202.303 -130.186,244.534 -331.716,273.581 -337.803,231.351" style="fill:#006363; stroke:#000000;stroke-width:0"/>
<circle fill="#006363" stroke="#006363" stroke-width="0" cx="-133.23" cy="223.419" r="21.3333"/>
<circle fill="#006363" stroke="#006363" stroke-width="0" cx="-334.759" cy="252.466" r="21.3333"/>
<polygon points="755.34,455.604 723.077,427.683 867.094,261.27 899.357,289.191" style="fill:#006363; stroke:#000000;stroke-width:0"/>
<circle fill="#006363" stroke="#006363" stroke-width="0" cx="739.208" cy="441.643" r="21.3333"/>
<circle fill="#006363" stroke="#006363" stroke-width="0" cx="883.225" cy="275.231" r="21.3333"/>
<polygon points="1256,469.333 256,1469.33 -744,469.333" style="fill:#000000; stroke:#000000;stroke-width:0"/>
<polygon points="-744,42.6667 256,-957.333 1256,42.6667" style="fill:#000000; stroke:#000000;stroke-width:0"/>
<circle fill="#a64b00" stroke="#a64b00" stroke-width="0" cx="-133.23" cy="223.419" r="21.3333"/>
<circle fill="#a64b00" stroke="#a64b00" stroke-width="0" cx="-334.759" cy="252.466" r="21.3333"/>
<circle fill="#a64b00" stroke="#a64b00" stroke-width="0" cx="739.208" cy="441.643" r="21.3333"/>
<circle fill="#a64b00" stroke="#a64b00" stroke-width="0" cx="883.225" cy="275.231" r="21.3333"/>
<circle fill="#a64b00" stroke="#a64b00" stroke-width="0" cx="-9.81588" cy="239.942" r="21.3333"/>
</svg>
