<?xml version="1.0" encoding="utf-8"?> <!-- Generator: Adobe Illustrator 13.0.0, SVG Export Plug-In . SVG Version: 6.00 Build 14948)  --> <svg version="1.2" baseProfile="tiny" id="Layer_1" xmlns="http://www.w3.org/2000/svg" xmlns:xlink="http://www.w3.org/1999/xlink" x="0px" y="0px" width="512px" height="512px" viewBox="0 0 512 512" xml:space="preserve">
<polygon points="0,0 512,0 512,512 0,512" style="fill:#ffffff; stroke:#000000;stroke-width:0"/>
<polygon points="13.0637,121.512 55.7081,120.133 62.6374,334.488 19.993,335.867" style="fill:#006363; stroke:#000000;stroke-width:0"/>
<circle fill="#006363" stroke="#006363" stroke-width="0" cx="34.3859" cy="120.822" r="21.3333"/>
<circle fill="#006363" stroke="#006363" stroke-width="0" cx="41.3152" cy="335.178" r="21.3333"/>
<polygon points="452.878,156.461 495.504,154.594 504.81,367.104 462.185,368.971" style="fill:#006363; stroke:#000000;stroke-width:0"/>
<circle fill="#006363" stroke="#006363" stroke-width="0" cx="474.191" cy="155.527" r="21.3333"/>
<circle fill="#006363" stroke="#006363" stroke-width="0" cx="483.498" cy="368.038" r="21.3333"/>
<polygon points="1256,469.333 256,1469.33 -744,469.333" style="fill:#000000; stroke:#000000;stroke-width:0"/>
<polygon points="-744,42.6667 256,-957.333 1256,42.6667" style="fill:#000000; stroke:#000000;stroke-width:0"/>
<circle fill="#a64b00" stroke="#a64b00" stroke-width="0" cx="34.3859" cy="120.822" r="21.3333"/>
<circle fill="#a64b00" stroke="#a64b00" stroke-width="0" cx="41.3152" cy="335.178" r="21.3333"/>
<circle fill="#a64b00" stroke="#a64b00" stroke-width="0" cx="474.191" cy="155.527" r="21.3333"/>
<circle fill="#a64b00" stroke="#a64b00" stroke-width="0" cx="483.498" cy="368.038" r="21.3333"/>
<circle fill="#a64b00" stroke="#a64b00" stroke-width="0" cx="330.389" cy="263.981" r="21.3333"/>
</svg>
