<?xml version="1.0" encoding="utf-8"?> <!-- Generator: Adobe Illustrator 13.0.0, SVG Export Plug-In . SVG Version: 6.00 Build 14948)  --> <svg version="1.2" baseProfile="tiny" id="Layer_1" xmlns="http://www.w3.org/2000/svg" xmlns:xlink="http://www.w3.org/1999/xlink" x="0px" y="0px" width="512px" height="512px" viewBox="0 0 512 512" xml:space="preserve">
<polygon points="0,0 512,0 512,512 0,512" style="fill:#ffffff; stroke:#000000;stroke-width:0"/>
<polygon points="-52.4573,360.013 -50.5768,402.638 -266.527,412.165 -268.407,369.54" style="fill:#006363; stroke:#000000;stroke-width:0"/>
<circle fill="#006363" stroke="#006363" stroke-width="0" cx="-51.517" cy="381.325" r="21.3333"/>
<circle fill="#006363" stroke="#006363" stroke-width="0" cx="-267.467" cy="390.852" r="21.3333"/>
<polygon points="691.626,405.766 653.43,386.753 749.815,193.121 788.011,212.134" style="fill:#006363; stroke:#000000;stroke-width:0"/>
<circle fill="#006363" stroke="#006363" stroke-width="0" cx="672.528" cy="396.26" r="21.3333"/>
<circle fill="#006363" stroke="#006363" stroke-width="0" cx="768.913" cy="202.627" r="21.3333"/>
<polygon points="1256,469.333 256,1469.33 -744,469.333" style="fill:#000000; stroke:#000000;stroke-width:0"/>
<polygon points="-744,42.6667 256,-957.333 1256,42.6667" style="fill:#000000; stroke:#000000;stroke-width:0"/>
<circle fill="#a64b00" stroke="#a64b00" stroke-width="0" cx="-51.517" cy="381.325" r="21.3333"/>
<circle fill="#a64b00" stroke="#a64b00" stroke-width="0" cx="-267.467" cy="390.852" r="21.3333"/>
<circle fill="#a64b00" stroke="#a64b00" stroke-width="0" cx="672.528" cy="396.26" r="21.3333"/>
<circle fill="#a64b00" stroke="#a64b00" stroke-width="0" cx="768.913" cy="202.627" r="21.3333"/>
<circle fill="#a64b00" stroke="#a64b00" stroke-width="0" cx="159.602" cy="297.185" r="21.3333"/>
</svg>
