<?xml version="1.0" encoding="utf-8"?> <!-- Generator: Adobe Illustrator 13.0.0, SVG Export Plug-In . SVG Version: 6.00 Build 14948)  --> <svg version="1.2" baseProfile="tiny" id="Layer_1" xmlns="http://www.w3.org/2000/svg" xmlns:xlink="http://www.w3.org/1999/xlink" x="0px" y="0px" width="512px" height="512px" viewBox="0 0 512 512" xml:space="preserve">
<polygon points="0,0 512,0 512,512 0,512" style="fill:#ffffff; stroke:#000000;stroke-width:0"/>
<polygon points="-35.6449,206.365 5.93016,196.775 54.7412,408.39 13.1662,417.979" style="fill:#006363; stroke:#000000;stroke-width:0"/>
<circle fill="#006363" stroke="#006363" stroke-width="0" cx="-14.8573" cy="201.57" r="21.3333"/>
<circle fill="#006363" stroke="#006363" stroke-width="0" cx="33.9537" cy="413.184" r="21.3333"/>
<polygon points="446.722,88.7747 484.318,68.5994 584.482,255.248 546.886,275.423" style="fill:#006363; stroke:#000000;stroke-width:0"/>
<circle fill="#006363" stroke="#006363" stroke-width="0" cx="465.52" cy="78.6871" r="21.3333"/>
<circle fill="#006363" stroke="#006363" stroke-width="0" cx="565.684" cy="265.335" r="21.3333"/>
<polygon points="1256,469.333 256,1469.33 -744,469.333" style="fill:#000000; stroke:#000000;stroke-width:0"/>
<polygon points="-744,42.6667 256,-957.333 1256,42.6667" style="fill:#000000; stroke:#000000;stroke-width:0"/>
<circle fill="#a64b00" stroke="#a64b00" stroke-width="0" cx="-14.8573" cy="201.57" r="21.3333"/>
<circle fill="#a64b00" stroke="#a64b00" stroke-width="0" cx="33.9537" cy="413.184" r="21.3333"/>
<circle fill="#a64b00" stroke="#a64b00" stroke-width="0" cx="465.52" cy="78.6871" r="21.3333"/>
<circle fill="#a64b00" stroke="#a64b00" stroke-width="0" cx="565.684" cy="265.335" r="21.3333"/>
<circle fill="#a64b00" stroke="#a64b00" stroke-width="0" cx="271.298" cy="289.341" r="21.3333"/>
</svg>
