<?xml version="1.0" encoding="utf-8"?> <!-- Generator: Adobe Illustrator 13.0.0, SVG Export Plug-In . SVG Version: 6.00 Build 14948)  --> <svg version="1.2" baseProfile="tiny" id="Layer_1" xmlns="http://www.w3.org/2000/svg" xmlns:xlink="http://www.w3.org/1999/xlink" x="0px" y="0px" width="512px" height="512px" viewBox="0 0 512 512" xml:space="preserve">
<polygon points="0,0 512,0 512,512 0,512" style="fill:#ffffff; stroke:#000000;stroke-width:0"/>
<polygon points="-130.129,194.789 -124.883,237.132 -334.712,263.126 -339.958,220.783" style="fill:#006363; stroke:#000000;stroke-width:0"/>
<circle fill="#006363" stroke="#006363" stroke-width="0" cx="-127.506" cy="215.961" r="21.3333"/>
<circle fill="#006363" stroke="#006363" stroke-width="0" cx="-337.335" cy="241.955" r="21.3333"/>
<polygon points="757.72,447.46 725.058,420.008 860.89,258.397 893.552,285.849" style="fill:#006363; stroke:#000000;stroke-width:0"/>
<circle fill="#006363" stroke="#006363" stroke-width="0" cx="741.389" cy="433.734" r="21.3333"/>
<circle fill="#006363" stroke="#006363" stroke-width="0" cx="877.221" cy="272.123" r="21.3333"/>
<polygon points="1256,469.333 256,1469.33 -744,469.333" style="fill:#000000; stroke:#000000;stroke-width:0"/>
<polygon points="-744,42.6667 256,-957.333 1256,42.6667" style="fill:#000000; stroke:#000000;stroke-width:0"/>
<circle fill="#a64b00" stroke="#a64b00" stroke-width="0" cx="-127.506" cy="215.961" r="21.3333"/>
<circle fill="#a64b00" stroke="#a64b00" stroke-width="0" cx="-337.335" cy="241.955" r="21.3333"/>
<circle fill="#a64b00" stroke="#a64b00" stroke-width="0" cx="741.389" cy="433.734" r="21.3333"/>
<circle fill="#a64b00" stroke="#a64b00" stroke-width="0" cx="877.221" cy="272.123" r="21.3333"/>
<circle fill="#a64b00" stroke="#a64b00" stroke-width="0" cx="-6.23663" cy="297.185" r="21.3333"/>
</svg>
