<?xml version="1.0" encoding="utf-8"?> <!-- Generator: Adobe Illustrator 13.0.0, SVG Export Plug-In . SVG Version: 6.00 Build 14948)  --> <svg version="1.2" baseProfile="tiny" id="Layer_1" xmlns="http://www.w3.org/2000/svg" xmlns:xlink="http://www.w3.org/1999/xlink" x="0px" y="0px" width="512px" height="512px" viewBox="0 0 512 512" xml:space="preserve">
<polygon points="0,0 512,0 512,512 0,512" style="fill:#ffffff; stroke:#000000;stroke-width:0"/>
<polygon points="-159.931,336.159 -161.349,378.802 -375.74,371.673 -374.322,329.03" style="fill:#006363; stroke:#000000;stroke-width:0"/>
<circle fill="#006363" stroke="#006363" stroke-width="0" cx="-160.64" cy="357.481" r="21.3333"/>
<circle fill="#006363" stroke="#006363" stroke-width="0" cx="-375.031" cy="350.351" r="21.3333"/>
<polygon points="741.194,338.247 753.122,297.282 963.451,358.52 951.524,399.486" style="fill:#006363; stroke:#000000;stroke-width:0"/>
<circle fill="#006363" stroke="#006363" stroke-width="0" cx="747.158" cy="317.764" r="21.3333"/>
<circle fill="#006363" stroke="#006363" stroke-width="0" cx="957.487" cy="379.003" r="21.3333"/>
<polygon points="1256,469.333 256,1469.33 -744,469.333" style="fill:#000000; stroke:#000000;stroke-width:0"/>
<polygon points="-744,42.6667 256,-957.333 1256,42.6667" style="fill:#000000; stroke:#000000;stroke-width:0"/>
<circle fill="#a64b00" stroke="#a64b00" stroke-width="0" cx="-160.64" cy="357.481" r="21.3333"/>
<circle fill="#a64b00" stroke="#a64b00" stroke-width="0" cx="-375.031" cy="350.351" r="21.3333"/>
<circle fill="#a64b00" stroke="#a64b00" stroke-width="0" cx="747.158" cy="317.764" r="21.3333"/>
<circle fill="#a64b00" stroke="#a64b00" stroke-width="0" cx="957.487" cy="379.003" r="21.3333"/>
<circle fill="#a64b00" stroke="#a64b00" stroke-width="0" cx="-86.7698" cy="325.806" r="21.3333"/>
</svg>
