<?xml version="1.0" encoding="utf-8"?> <!-- Generator: Adobe Illustrator 13.0.0, SVG Export Plug-In . SVG Version: 6.00 Build 14948)  --> <svg version="1.2" baseProfile="tiny" id="Layer_1" xmlns="http://www.w3.org/2000/svg" xmlns:xlink="http://www.w3.org/1999/xlink" x="0px" y="0px" width="512px" height="512px" viewBox="0 0 512 512" xml:space="preserve">
<polygon points="0,0 512,0 512,512 0,512" style="fill:#ffffff; stroke:#000000;stroke-width:0"/>
<polygon points="-161.204,333.961 -158.533,376.544 -372.368,389.96 -375.04,347.377" style="fill:#006363; stroke:#000000;stroke-width:0"/>
<circle fill="#006363" stroke="#006363" stroke-width="0" cx="-159.869" cy="355.253" r="21.3333"/>
<circle fill="#006363" stroke="#006363" stroke-width="0" cx="-373.704" cy="368.669" r="21.3333"/>
<polygon points="745.641,344.621 755.994,303.23 956.455,353.367 946.102,394.759" style="fill:#006363; stroke:#000000;stroke-width:0"/>
<circle fill="#006363" stroke="#006363" stroke-width="0" cx="750.818" cy="323.925" r="21.3333"/>
<circle fill="#006363" stroke="#006363" stroke-width="0" cx="951.279" cy="374.063" r="21.3333"/>
<polygon points="1256,469.333 256,1469.33 -744,469.333" style="fill:#000000; stroke:#000000;stroke-width:0"/>
<polygon points="-744,42.6667 256,-957.333 1256,42.6667" style="fill:#000000; stroke:#000000;stroke-width:0"/>
<circle fill="#a64b00" stroke="#a64b00" stroke-width="0" cx="-159.869" cy="355.253" r="21.3333"/>
<circle fill="#a64b00" stroke="#a64b00" stroke-width="0" cx="-373.704" cy="368.669" r="21.3333"/>
<circle fill="#a64b00" stroke="#a64b00" stroke-width="0" cx="750.818" cy="323.925" r="21.3333"/>
<circle fill="#a64b00" stroke="#a64b00" stroke-width="0" cx="951.279" cy="374.063" r="21.3333"/>
<circle fill="#a64b00" stroke="#a64b00" stroke-width="0" cx="-84.3836" cy="287.644" r="21.3333"/>
</svg>
