<?xml version="1.0" encoding="utf-8"?> <!-- Generator: Adobe Illustrator 13.0.0, SVG Export Plug-In . SVG Version: 6.00 Build 14948)  --> <svg version="1.2" baseProfile="tiny" id="Layer_1" xmlns="http://www.w3.org/2000/svg" xmlns:xlink="http://www.w3.org/1999/xlink" x="0px" y="0px" width="512px" height="512px" viewBox="0 0 512 512" xml:space="preserve">
<polygon points="0,0 512,0 512,512 0,512" style="fill:#ffffff; stroke:#000000;stroke-width:0"/>
<polygon points="-33.5949,196.69 8.07275,187.512 55.5006,402.816 13.8329,411.994" style="fill:#006363; stroke:#000000;stroke-width:0"/>
<circle fill="#006363" stroke="#006363" stroke-width="0" cx="-12.7611" cy="192.101" r="21.3333"/>
<circle fill="#006363" stroke="#006363" stroke-width="0" cx="34.6667" cy="407.405" r="21.3333"/>
<polygon points="446.79,97.485 484.931,78.3608 580.689,269.339 542.549,288.463" style="fill:#006363; stroke:#000000;stroke-width:0"/>
<circle fill="#006363" stroke="#006363" stroke-width="0" cx="465.86" cy="87.9229" r="21.3333"/>
<circle fill="#006363" stroke="#006363" stroke-width="0" cx="561.619" cy="278.901" r="21.3333"/>
<polygon points="1256,469.333 256,1469.33 -744,469.333" style="fill:#000000; stroke:#000000;stroke-width:0"/>
<polygon points="-744,42.6667 256,-957.333 1256,42.6667" style="fill:#000000; stroke:#000000;stroke-width:0"/>
<circle fill="#a64b00" stroke="#a64b00" stroke-width="0" cx="-12.7611" cy="192.101" r="21.3333"/>
<circle fill="#a64b00" stroke="#a64b00" stroke-width="0" cx="34.6667" cy="407.405" r="21.3333"/>
<circle fill="#a64b00" stroke="#a64b00" stroke-width="0" cx="465.86" cy="87.9229" r="21.3333"/>
<circle fill="#a64b00" stroke="#a64b00" stroke-width="0" cx="561.619" cy="278.901" r="21.3333"/>
<circle fill="#a64b00" stroke="#a64b00" stroke-width="0" cx="288.165" cy="235.017" r="21.3333"/>
</svg>
