<?xml version="1.0" encoding="utf-8"?> <!-- Generator: Adobe Illustrator 13.0.0, SVG Export Plug-In . SVG Version: 6.00 Build 14948)  --> <svg version="1.2" baseProfile="tiny" id="Layer_1" xmlns="http://www.w3.org/2000/svg" xmlns:xlink="http://www.w3.org/1999/xlink" x="0px" y="0px" width="512px" height="512px" viewBox="0 0 512 512" xml:space="preserve">
<polygon points="0,0 512,0 512,512 0,512" style="fill:#ffffff; stroke:#000000;stroke-width:0"/>
<polygon points="-79.0394,182.636 -75.2827,225.137 -287.689,243.912 -291.446,201.411" style="fill:#006363; stroke:#000000;stroke-width:0"/>
<circle fill="#006363" stroke="#006363" stroke-width="0" cx="-77.161" cy="203.886" r="21.3333"/>
<circle fill="#006363" stroke="#006363" stroke-width="0" cx="-289.568" cy="222.661" r="21.3333"/>
<polygon points="743.153,290.715 701.873,279.925 756.283,71.7777 797.562,82.5682" style="fill:#006363; stroke:#000000;stroke-width:0"/>
<circle fill="#006363" stroke="#006363" stroke-width="0" cx="722.513" cy="285.32" r="21.3333"/>
<circle fill="#006363" stroke="#006363" stroke-width="0" cx="776.923" cy="77.1729" r="21.3333"/>
<polygon points="1256,469.333 256,1469.33 -744,469.333" style="fill:#000000; stroke:#000000;stroke-width:0"/>
<polygon points="-744,42.6667 256,-957.333 1256,42.6667" style="fill:#000000; stroke:#000000;stroke-width:0"/>
<circle fill="#a64b00" stroke="#a64b00" stroke-width="0" cx="-77.161" cy="203.886" r="21.3333"/>
<circle fill="#a64b00" stroke="#a64b00" stroke-width="0" cx="-289.568" cy="222.661" r="21.3333"/>
<circle fill="#a64b00" stroke="#a64b00" stroke-width="0" cx="722.513" cy="285.32" r="21.3333"/>
<circle fill="#a64b00" stroke="#a64b00" stroke-width="0" cx="776.923" cy="77.1729" r="21.3333"/>
<circle fill="#a64b00" stroke="#a64b00" stroke-width="0" cx="105.317" cy="383.049" r="21.3333"/>
</svg>
