<?xml version="1.0" encoding="utf-8"?> <!-- Generator: Adobe Illustrator 13.0.0, SVG Export Plug-In . SVG Version: 6.00 Build 14948)  --> <svg version="1.2" baseProfile="tiny" id="Layer_1" xmlns="http://www.w3.org/2000/svg" xmlns:xlink="http://www.w3.org/1999/xlink" x="0px" y="0px" width="512px" height="512px" viewBox="0 0 512 512" xml:space="preserve">
<polygon points="0,0 512,0 512,512 0,512" style="fill:#ffffff; stroke:#000000;stroke-width:0"/>
<polygon points="-306.656,311.494 -346.573,296.426 -268.89,90.6296 -228.972,105.698" style="fill:#006363; stroke:#000000;stroke-width:0"/>
<circle fill="#006363" stroke="#006363" stroke-width="0" cx="-326.615" cy="303.96" r="21.3333"/>
<circle fill="#006363" stroke="#006363" stroke-width="0" cx="-248.931" cy="98.1636" r="21.3333"/>
<polygon points="801.709,261.309 837.42,237.961 951.371,412.258 915.66,435.606" style="fill:#006363; stroke:#000000;stroke-width:0"/>
<circle fill="#006363" stroke="#006363" stroke-width="0" cx="819.565" cy="249.635" r="21.3333"/>
<circle fill="#006363" stroke="#006363" stroke-width="0" cx="933.515" cy="423.932" r="21.3333"/>
<polygon points="1256,469.333 256,1469.33 -744,469.333" style="fill:#000000; stroke:#000000;stroke-width:0"/>
<polygon points="-744,42.6667 256,-957.333 1256,42.6667" style="fill:#000000; stroke:#000000;stroke-width:0"/>
<circle fill="#a64b00" stroke="#a64b00" stroke-width="0" cx="-326.615" cy="303.96" r="21.3333"/>
<circle fill="#a64b00" stroke="#a64b00" stroke-width="0" cx="-248.931" cy="98.1636" r="21.3333"/>
<circle fill="#a64b00" stroke="#a64b00" stroke-width="0" cx="819.565" cy="249.635" r="21.3333"/>
<circle fill="#a64b00" stroke="#a64b00" stroke-width="0" cx="933.515" cy="423.932" r="21.3333"/>
<circle fill="#a64b00" stroke="#a64b00" stroke-width="0" cx="-132.107" cy="268.563" r="21.3333"/>
</svg>
