<?xml version="1.0" encoding="utf-8"?> <!-- Generator: Adobe Illustrator 13.0.0, SVG Export Plug-In . SVG Version: 6.00 Build 14948)  --> <svg version="1.2" baseProfile="tiny" id="Layer_1" xmlns="http://www.w3.org/2000/svg" xmlns:xlink="http://www.w3.org/1999/xlink" x="0px" y="0px" width="512px" height="512px" viewBox="0 0 512 512" xml:space="preserve">
<polygon points="0,0 512,0 512,512 0,512" style="fill:#ffffff; stroke:#000000;stroke-width:0"/>
<polygon points="-103.813,167.006 -61.6019,160.79 -30.4882,372.071 -72.6996,378.287" style="fill:#006363; stroke:#000000;stroke-width:0"/>
<circle fill="#006363" stroke="#006363" stroke-width="0" cx="-82.7076" cy="163.898" r="21.3333"/>
<circle fill="#006363" stroke="#006363" stroke-width="0" cx="-51.5939" cy="375.179" r="21.3333"/>
<polygon points="717.255,243.64 711.01,285.848 499.858,254.606 506.103,212.399" style="fill:#006363; stroke:#000000;stroke-width:0"/>
<circle fill="#006363" stroke="#006363" stroke-width="0" cx="714.132" cy="264.744" r="21.3333"/>
<circle fill="#006363" stroke="#006363" stroke-width="0" cx="502.98" cy="233.503" r="21.3333"/>
<polygon points="1256,469.333 256,1469.33 -744,469.333" style="fill:#000000; stroke:#000000;stroke-width:0"/>
<polygon points="-744,42.6667 256,-957.333 1256,42.6667" style="fill:#000000; stroke:#000000;stroke-width:0"/>
<circle fill="#a64b00" stroke="#a64b00" stroke-width="0" cx="-82.7076" cy="163.898" r="21.3333"/>
<circle fill="#a64b00" stroke="#a64b00" stroke-width="0" cx="-51.5939" cy="375.179" r="21.3333"/>
<circle fill="#a64b00" stroke="#a64b00" stroke-width="0" cx="714.132" cy="264.744" r="21.3333"/>
<circle fill="#a64b00" stroke="#a64b00" stroke-width="0" cx="502.98" cy="233.503" r="21.3333"/>
<circle fill="#a64b00" stroke="#a64b00" stroke-width="0" cx="369.585" cy="68.2121" r="21.3333"/>
</svg>
