<?xml version="1.0" encoding="utf-8"?> <!-- Generator: Adobe Illustrator 13.0.0, SVG Export Plug-In . SVG Version: 6.00 Build 14948)  --> <svg version="1.2" baseProfile="tiny" id="Layer_1" xmlns="http://www.w3.org/2000/svg" xmlns:xlink="http://www.w3.org/1999/xlink" x="0px" y="0px" width="512px" height="512px" viewBox="0 0 512 512" xml:space="preserve">
<polygon points="0,0 512,0 512,512 0,512" style="fill:#ffffff; stroke:#000000;stroke-width:0"/>
<polygon points="-161.988,336.746 -164.481,379.34 -374.208,367.063 -371.714,324.469" style="fill:#006363; stroke:#000000;stroke-width:0"/>
<circle fill="#006363" stroke="#006363" stroke-width="0" cx="-163.235" cy="358.043" r="21.3333"/>
<circle fill="#006363" stroke="#006363" stroke-width="0" cx="-372.961" cy="345.766" r="21.3333"/>
<polygon points="740.727,336.858 753.013,295.998 964.556,359.604 952.27,400.464" style="fill:#006363; stroke:#000000;stroke-width:0"/>
<circle fill="#006363" stroke="#006363" stroke-width="0" cx="746.87" cy="316.428" r="21.3333"/>
<circle fill="#006363" stroke="#006363" stroke-width="0" cx="958.413" cy="380.034" r="21.3333"/>
<polygon points="1256,469.333 256,1469.33 -744,469.333" style="fill:#000000; stroke:#000000;stroke-width:0"/>
<polygon points="-744,42.6667 256,-957.333 1256,42.6667" style="fill:#000000; stroke:#000000;stroke-width:0"/>
<circle fill="#a64b00" stroke="#a64b00" stroke-width="0" cx="-163.235" cy="358.043" r="21.3333"/>
<circle fill="#a64b00" stroke="#a64b00" stroke-width="0" cx="-372.961" cy="345.766" r="21.3333"/>
<circle fill="#a64b00" stroke="#a64b00" stroke-width="0" cx="746.87" cy="316.428" r="21.3333"/>
<circle fill="#a64b00" stroke="#a64b00" stroke-width="0" cx="958.413" cy="380.034" r="21.3333"/>
<circle fill="#a64b00" stroke="#a64b00" stroke-width="0" cx="-87.3663" cy="335.347" r="21.3333"/>
</svg>
