<?xml version="1.0" encoding="utf-8"?> <!-- Generator: Adobe Illustrator 13.0.0, SVG Export Plug-In . SVG Version: 6.00 Build 14948)  --> <svg version="1.2" baseProfile="tiny" id="Layer_1" xmlns="http://www.w3.org/2000/svg" xmlns:xlink="http://www.w3.org/1999/xlink" x="0px" y="0px" width="512px" height="512px" viewBox="0 0 512 512" xml:space="preserve">
<polygon points="0,0 512,0 512,512 0,512" style="fill:#ffffff; stroke:#000000;stroke-width:0"/>
<polygon points="-137.438,107.043 -131.155,64.841 74.4913,95.457 68.2085,137.659" style="fill:#006363; stroke:#000000;stroke-width:0"/>
<circle fill="#006363" stroke="#006363" stroke-width="0" cx="-134.297" cy="85.9418" r="21.3333"/>
<circle fill="#006363" stroke="#006363" stroke-width="0" cx="71.3499" cy="116.558" r="21.3333"/>
<polygon points="542.753,308.009 503.627,290.993 587.686,97.7007 626.813,114.716" style="fill:#006363; stroke:#000000;stroke-width:0"/>
<circle fill="#006363" stroke="#006363" stroke-width="0" cx="523.19" cy="299.501" r="21.3333"/>
<circle fill="#006363" stroke="#006363" stroke-width="0" cx="607.25" cy="106.209" r="21.3333"/>
<polygon points="1256,469.333 256,1469.33 -744,469.333" style="fill:#000000; stroke:#000000;stroke-width:0"/>
<polygon points="-744,42.6667 256,-957.333 1256,42.6667" style="fill:#000000; stroke:#000000;stroke-width:0"/>
<circle fill="#a64b00" stroke="#a64b00" stroke-width="0" cx="-134.297" cy="85.9418" r="21.3333"/>
<circle fill="#a64b00" stroke="#a64b00" stroke-width="0" cx="71.3499" cy="116.558" r="21.3333"/>
<circle fill="#a64b00" stroke="#a64b00" stroke-width="0" cx="523.19" cy="299.501" r="21.3333"/>
<circle fill="#a64b00" stroke="#a64b00" stroke-width="0" cx="607.25" cy="106.209" r="21.3333"/>
<circle fill="#a64b00" stroke="#a64b00" stroke-width="0" cx="450.714" cy="335.347" r="21.3333"/>
</svg>
