<?xml version="1.0" encoding="utf-8"?> <!-- Generator: Adobe Illustrator 13.0.0, SVG Export Plug-In . SVG Version: 6.00 Build 14948)  --> <svg version="1.2" baseProfile="tiny" id="Layer_1" xmlns="http://www.w3.org/2000/svg" xmlns:xlink="http://www.w3.org/1999/xlink" x="0px" y="0px" width="512px" height="512px" viewBox="0 0 512 512" xml:space="preserve">
<polygon points="0,0 512,0 512,512 0,512" style="fill:#ffffff; stroke:#000000;stroke-width:0"/>
<polygon points="-122.581,120.608 -80.886,111.552 -36.3802,316.468 -78.0748,325.523" style="fill:#006363; stroke:#000000;stroke-width:0"/>
<circle fill="#006363" stroke="#006363" stroke-width="0" cx="-101.733" cy="116.08" r="21.3333"/>
<circle fill="#006363" stroke="#006363" stroke-width="0" cx="-57.2275" cy="320.996" r="21.3333"/>
<polygon points="706.986,196.634 727,234.315 540.079,333.593 520.066,295.911" style="fill:#006363; stroke:#000000;stroke-width:0"/>
<circle fill="#006363" stroke="#006363" stroke-width="0" cx="716.993" cy="215.474" r="21.3333"/>
<circle fill="#006363" stroke="#006363" stroke-width="0" cx="530.072" cy="314.752" r="21.3333"/>
<polygon points="1256,469.333 256,1469.33 -744,469.333" style="fill:#000000; stroke:#000000;stroke-width:0"/>
<polygon points="-744,42.6667 256,-957.333 1256,42.6667" style="fill:#000000; stroke:#000000;stroke-width:0"/>
<circle fill="#a64b00" stroke="#a64b00" stroke-width="0" cx="-101.733" cy="116.08" r="21.3333"/>
<circle fill="#a64b00" stroke="#a64b00" stroke-width="0" cx="-57.2275" cy="320.996" r="21.3333"/>
<circle fill="#a64b00" stroke="#a64b00" stroke-width="0" cx="716.993" cy="215.474" r="21.3333"/>
<circle fill="#a64b00" stroke="#a64b00" stroke-width="0" cx="530.072" cy="314.752" r="21.3333"/>
<circle fill="#a64b00" stroke="#a64b00" stroke-width="0" cx="341.547" cy="383.049" r="21.3333"/>
</svg>
