<?xml version="1.0" encoding="utf-8"?> <!-- Generator: Adobe Illustrator 13.0.0, SVG Export Plug-In . SVG Version: 6.00 Build 14948)  --> <svg version="1.2" baseProfile="tiny" id="Layer_1" xmlns="http://www.w3.org/2000/svg" xmlns:xlink="http://www.w3.org/1999/xlink" x="0px" y="0px" width="512px" height="512px" viewBox="0 0 512 512" xml:space="preserve">
<polygon points="0,0 512,0 512,512 0,512" style="fill:#ffffff; stroke:#000000;stroke-width:0"/>
<polygon points="8.40551,63.1159 51.0195,60.9971 61.6594,274.991 19.0453,277.11" style="fill:#006363; stroke:#000000;stroke-width:0"/>
<circle fill="#006363" stroke="#006363" stroke-width="0" cx="29.7125" cy="62.0565" r="21.3333"/>
<circle fill="#006363" stroke="#006363" stroke-width="0" cx="40.3523" cy="276.051" r="21.3333"/>
<polygon points="456.196,205.372 498.776,202.651 512.352,415.026 469.772,417.747" style="fill:#006363; stroke:#000000;stroke-width:0"/>
<circle fill="#006363" stroke="#006363" stroke-width="0" cx="477.486" cy="204.011" r="21.3333"/>
<circle fill="#006363" stroke="#006363" stroke-width="0" cx="491.062" cy="416.386" r="21.3333"/>
<polygon points="1256,469.333 256,1469.33 -744,469.333" style="fill:#000000; stroke:#000000;stroke-width:0"/>
<polygon points="-744,42.6667 256,-957.333 1256,42.6667" style="fill:#000000; stroke:#000000;stroke-width:0"/>
<circle fill="#a64b00" stroke="#a64b00" stroke-width="0" cx="29.7125" cy="62.0565" r="21.3333"/>
<circle fill="#a64b00" stroke="#a64b00" stroke-width="0" cx="40.3523" cy="276.051" r="21.3333"/>
<circle fill="#a64b00" stroke="#a64b00" stroke-width="0" cx="477.486" cy="204.011" r="21.3333"/>
<circle fill="#a64b00" stroke="#a64b00" stroke-width="0" cx="491.062" cy="416.386" r="21.3333"/>
<circle fill="#a64b00" stroke="#a64b00" stroke-width="0" cx="85.3683" cy="285.457" r="21.3333"/>
</svg>
