<?xml version="1.0" encoding="utf-8"?> <!-- Generator: Adobe Illustrator 13.0.0, SVG Export Plug-In . SVG Version: 6.00 Build 14948)  --> <svg version="1.2" baseProfile="tiny" id="Layer_1" xmlns="http://www.w3.org/2000/svg" xmlns:xlink="http://www.w3.org/1999/xlink" x="0px" y="0px" width="512px" height="512px" viewBox="0 0 512 512" xml:space="preserve">
<polygon points="0,0 512,0 512,512 0,512" style="fill:#ffffff; stroke:#000000;stroke-width:0"/>
<polygon points="-12.866,138.504 29.398,132.657 57.6473,336.837 15.3833,342.685" style="fill:#006363; stroke:#000000;stroke-width:0"/>
<circle fill="#006363" stroke="#006363" stroke-width="0" cx="8.26599" cy="135.581" r="21.3333"/>
<circle fill="#006363" stroke="#006363" stroke-width="0" cx="36.5153" cy="339.761" r="21.3333"/>
<polygon points="452.631,177.47 494.092,167.399 544.52,375.022 503.058,385.092" style="fill:#006363; stroke:#000000;stroke-width:0"/>
<circle fill="#006363" stroke="#006363" stroke-width="0" cx="473.361" cy="172.435" r="21.3333"/>
<circle fill="#006363" stroke="#006363" stroke-width="0" cx="523.789" cy="380.057" r="21.3333"/>
<polygon points="1256,469.333 256,1469.33 -744,469.333" style="fill:#000000; stroke:#000000;stroke-width:0"/>
<polygon points="-744,42.6667 256,-957.333 1256,42.6667" style="fill:#000000; stroke:#000000;stroke-width:0"/>
<circle fill="#a64b00" stroke="#a64b00" stroke-width="0" cx="8.26599" cy="135.581" r="21.3333"/>
<circle fill="#a64b00" stroke="#a64b00" stroke-width="0" cx="36.5153" cy="339.761" r="21.3333"/>
<circle fill="#a64b00" stroke="#a64b00" stroke-width="0" cx="473.361" cy="172.435" r="21.3333"/>
<circle fill="#a64b00" stroke="#a64b00" stroke-width="0" cx="523.789" cy="380.057" r="21.3333"/>
<circle fill="#a64b00" stroke="#a64b00" stroke-width="0" cx="425.509" cy="320.383" r="21.3333"/>
</svg>
