<?xml version="1.0" encoding="utf-8"?> <!-- Generator: Adobe Illustrator 13.0.0, SVG Export Plug-In . SVG Version: 6.00 Build 14948)  --> <svg version="1.2" baseProfile="tiny" id="Layer_1" xmlns="http://www.w3.org/2000/svg" xmlns:xlink="http://www.w3.org/1999/xlink" x="0px" y="0px" width="512px" height="512px" viewBox="0 0 512 512" xml:space="preserve">
<polygon points="0,0 512,0 512,512 0,512" style="fill:#ffffff; stroke:#000000;stroke-width:0"/>
<polygon points="-167.02,287.293 -202.3,263.298 -81.1338,85.1463 -45.8538,109.141" style="fill:#006363; stroke:#000000;stroke-width:0"/>
<circle fill="#006363" stroke="#006363" stroke-width="0" cx="-184.66" cy="275.295" r="21.3333"/>
<circle fill="#006363" stroke="#006363" stroke-width="0" cx="-63.4938" cy="97.1439" r="21.3333"/>
<polygon points="570.071,305.158 585.127,265.236 785.335,340.74 770.279,380.662" style="fill:#006363; stroke:#000000;stroke-width:0"/>
<circle fill="#006363" stroke="#006363" stroke-width="0" cx="577.599" cy="285.197" r="21.3333"/>
<circle fill="#006363" stroke="#006363" stroke-width="0" cx="777.807" cy="360.701" r="21.3333"/>
<polygon points="1256,469.333 256,1469.33 -744,469.333" style="fill:#000000; stroke:#000000;stroke-width:0"/>
<polygon points="-744,42.6667 256,-957.333 1256,42.6667" style="fill:#000000; stroke:#000000;stroke-width:0"/>
<circle fill="#a64b00" stroke="#a64b00" stroke-width="0" cx="-184.66" cy="275.295" r="21.3333"/>
<circle fill="#a64b00" stroke="#a64b00" stroke-width="0" cx="-63.4938" cy="97.1439" r="21.3333"/>
<circle fill="#a64b00" stroke="#a64b00" stroke-width="0" cx="577.599" cy="285.197" r="21.3333"/>
<circle fill="#a64b00" stroke="#a64b00" stroke-width="0" cx="777.807" cy="360.701" r="21.3333"/>
<circle fill="#a64b00" stroke="#a64b00" stroke-width="0" cx="240.135" cy="325.806" r="21.3333"/>
</svg>
