<?xml version="1.0" encoding="utf-8"?> <!-- Generator: Adobe Illustrator 13.0.0, SVG Export Plug-In . SVG Version: 6.00 Build 14948)  --> <svg version="1.2" baseProfile="tiny" id="Layer_1" xmlns="http://www.w3.org/2000/svg" xmlns:xlink="http://www.w3.org/1999/xlink" x="0px" y="0px" width="512px" height="512px" viewBox="0 0 512 512" xml:space="preserve">
<polygon points="0,0 512,0 512,512 0,512" style="fill:#ffffff; stroke:#000000;stroke-width:0"/>
<polygon points="-318.27,438.153 -360.77,434.385 -341.963,222.26 -299.463,226.028" style="fill:#006363; stroke:#000000;stroke-width:0"/>
<circle fill="#006363" stroke="#006363" stroke-width="0" cx="-339.52" cy="436.269" r="21.3333"/>
<circle fill="#006363" stroke="#006363" stroke-width="0" cx="-320.713" cy="224.144" r="21.3333"/>
<polygon points="980.843,219.451 1012.24,248.347 862.733,410.768 831.341,381.872" style="fill:#006363; stroke:#000000;stroke-width:0"/>
<circle fill="#006363" stroke="#006363" stroke-width="0" cx="996.539" cy="233.899" r="21.3333"/>
<circle fill="#006363" stroke="#006363" stroke-width="0" cx="847.037" cy="396.32" r="21.3333"/>
<polygon points="1256,469.333 256,1469.33 -744,469.333" style="fill:#000000; stroke:#000000;stroke-width:0"/>
<polygon points="-744,42.6667 256,-957.333 1256,42.6667" style="fill:#000000; stroke:#000000;stroke-width:0"/>
<circle fill="#a64b00" stroke="#a64b00" stroke-width="0" cx="-339.52" cy="436.269" r="21.3333"/>
<circle fill="#a64b00" stroke="#a64b00" stroke-width="0" cx="-320.713" cy="224.144" r="21.3333"/>
<circle fill="#a64b00" stroke="#a64b00" stroke-width="0" cx="996.539" cy="233.899" r="21.3333"/>
<circle fill="#a64b00" stroke="#a64b00" stroke-width="0" cx="847.037" cy="396.32" r="21.3333"/>
<circle fill="#a64b00" stroke="#a64b00" stroke-width="0" cx="801.711" cy="299.729" r="21.3333"/>
</svg>
