<?xml version="1.0" encoding="utf-8"?> <!-- Generator: Adobe Illustrator 13.0.0, SVG Export Plug-In . SVG Version: 6.00 Build 14948)  --> <svg version="1.2" baseProfile="tiny" id="Layer_1" xmlns="http://www.w3.org/2000/svg" xmlns:xlink="http://www.w3.org/1999/xlink" x="0px" y="0px" width="512px" height="512px" viewBox="0 0 512 512" xml:space="preserve">
<polygon points="0,0 512,0 512,512 0,512" style="fill:#ffffff; stroke:#000000;stroke-width:0"/>
<polygon points="-289.946,317.335 -331.441,307.404 -282.976,104.901 -241.481,114.831" style="fill:#006363; stroke:#000000;stroke-width:0"/>
<circle fill="#006363" stroke="#006363" stroke-width="0" cx="-310.693" cy="312.37" r="21.3333"/>
<circle fill="#006363" stroke="#006363" stroke-width="0" cx="-262.229" cy="109.866" r="21.3333"/>
<polygon points="793.034,260.77 827.596,235.751 956.859,414.324 922.297,439.342" style="fill:#006363; stroke:#000000;stroke-width:0"/>
<circle fill="#006363" stroke="#006363" stroke-width="0" cx="810.315" cy="248.26" r="21.3333"/>
<circle fill="#006363" stroke="#006363" stroke-width="0" cx="939.578" cy="426.833" r="21.3333"/>
<polygon points="1256,469.333 256,1469.33 -744,469.333" style="fill:#000000; stroke:#000000;stroke-width:0"/>
<polygon points="-744,42.6667 256,-957.333 1256,42.6667" style="fill:#000000; stroke:#000000;stroke-width:0"/>
<circle fill="#a64b00" stroke="#a64b00" stroke-width="0" cx="-310.693" cy="312.37" r="21.3333"/>
<circle fill="#a64b00" stroke="#a64b00" stroke-width="0" cx="-262.229" cy="109.866" r="21.3333"/>
<circle fill="#a64b00" stroke="#a64b00" stroke-width="0" cx="810.315" cy="248.26" r="21.3333"/>
<circle fill="#a64b00" stroke="#a64b00" stroke-width="0" cx="939.578" cy="426.833" r="21.3333"/>
<circle fill="#a64b00" stroke="#a64b00" stroke-width="0" cx="-129.124" cy="220.861" r="21.3333"/>
</svg>
