<?xml version="1.0" encoding="utf-8"?> <!-- Generator: Adobe Illustrator 13.0.0, SVG Export Plug-In . SVG Version: 6.00 Build 14948)  --> <svg version="1.2" baseProfile="tiny" id="Layer_1" xmlns="http://www.w3.org/2000/svg" xmlns:xlink="http://www.w3.org/1999/xlink" x="0px" y="0px" width="512px" height="512px" viewBox="0 0 512 512" xml:space="preserve">
<polygon points="0,0 512,0 512,512 0,512" style="fill:#ffffff; stroke:#000000;stroke-width:0"/>
<polygon points="1.75145,89.714 44.2895,86.4035 60.2869,291.96 17.7488,295.27" style="fill:#006363; stroke:#000000;stroke-width:0"/>
<circle fill="#006363" stroke="#006363" stroke-width="0" cx="23.0205" cy="88.0587" r="21.3333"/>
<circle fill="#006363" stroke="#006363" stroke-width="0" cx="39.0179" cy="293.615" r="21.3333"/>
<polygon points="458.616,241.317 501.138,237.812 518.286,445.856 475.764,449.361" style="fill:#006363; stroke:#000000;stroke-width:0"/>
<circle fill="#006363" stroke="#006363" stroke-width="0" cx="479.877" cy="239.565" r="21.3333"/>
<circle fill="#006363" stroke="#006363" stroke-width="0" cx="497.025" cy="447.608" r="21.3333"/>
<polygon points="1256,469.333 256,1469.33 -744,469.333" style="fill:#000000; stroke:#000000;stroke-width:0"/>
<polygon points="-744,42.6667 256,-957.333 1256,42.6667" style="fill:#000000; stroke:#000000;stroke-width:0"/>
<circle fill="#a64b00" stroke="#a64b00" stroke-width="0" cx="23.0205" cy="88.0587" r="21.3333"/>
<circle fill="#a64b00" stroke="#a64b00" stroke-width="0" cx="39.0179" cy="293.615" r="21.3333"/>
<circle fill="#a64b00" stroke="#a64b00" stroke-width="0" cx="479.877" cy="239.565" r="21.3333"/>
<circle fill="#a64b00" stroke="#a64b00" stroke-width="0" cx="497.025" cy="447.608" r="21.3333"/>
<circle fill="#a64b00" stroke="#a64b00" stroke-width="0" cx="265.988" cy="352.235" r="21.3333"/>
</svg>
