<?xml version="1.0" encoding="utf-8"?> <!-- Generator: Adobe Illustrator 13.0.0, SVG Export Plug-In . SVG Version: 6.00 Build 14948)  --> <svg version="1.2" baseProfile="tiny" id="Layer_1" xmlns="http://www.w3.org/2000/svg" xmlns:xlink="http://www.w3.org/1999/xlink" x="0px" y="0px" width="512px" height="512px" viewBox="0 0 512 512" xml:space="preserve">
<polygon points="0,0 512,0 512,512 0,512" style="fill:#ffffff; stroke:#000000;stroke-width:0"/>
<polygon points="-225.024,351.334 -265.306,365.399 -335.831,163.419 -295.549,149.354" style="fill:#006363; stroke:#000000;stroke-width:0"/>
<circle fill="#006363" stroke="#006363" stroke-width="0" cx="-245.165" cy="358.366" r="21.3333"/>
<circle fill="#006363" stroke="#006363" stroke-width="0" cx="-315.69" cy="156.386" r="21.3333"/>
<polygon points="776.235,287.952 804.677,256.148 959.001,394.163 930.558,425.966" style="fill:#006363; stroke:#000000;stroke-width:0"/>
<circle fill="#006363" stroke="#006363" stroke-width="0" cx="790.456" cy="272.05" r="21.3333"/>
<circle fill="#006363" stroke="#006363" stroke-width="0" cx="944.78" cy="410.065" r="21.3333"/>
<polygon points="1256,469.333 256,1469.33 -744,469.333" style="fill:#000000; stroke:#000000;stroke-width:0"/>
<polygon points="-744,42.6667 256,-957.333 1256,42.6667" style="fill:#000000; stroke:#000000;stroke-width:0"/>
<circle fill="#a64b00" stroke="#a64b00" stroke-width="0" cx="-245.165" cy="358.366" r="21.3333"/>
<circle fill="#a64b00" stroke="#a64b00" stroke-width="0" cx="-315.69" cy="156.386" r="21.3333"/>
<circle fill="#a64b00" stroke="#a64b00" stroke-width="0" cx="790.456" cy="272.05" r="21.3333"/>
<circle fill="#a64b00" stroke="#a64b00" stroke-width="0" cx="944.78" cy="410.065" r="21.3333"/>
<circle fill="#a64b00" stroke="#a64b00" stroke-width="0" cx="-115.404" cy="115.915" r="21.3333"/>
</svg>
