<?xml version="1.0" encoding="utf-8"?> <!-- Generator: Adobe Illustrator 13.0.0, SVG Export Plug-In . SVG Version: 6.00 Build 14948)  --> <svg version="1.2" baseProfile="tiny" id="Layer_1" xmlns="http://www.w3.org/2000/svg" xmlns:xlink="http://www.w3.org/1999/xlink" x="0px" y="0px" width="512px" height="512px" viewBox="0 0 512 512" xml:space="preserve">
<polygon points="0,0 512,0 512,512 0,512" style="fill:#ffffff; stroke:#000000;stroke-width:0"/>
<polygon points="-103.869,92.3504 -111.807,134.272 -313.752,96.035 -305.814,54.1132" style="fill:#006363; stroke:#000000;stroke-width:0"/>
<circle fill="#006363" stroke="#006363" stroke-width="0" cx="-107.838" cy="113.311" r="21.3333"/>
<circle fill="#006363" stroke="#006363" stroke-width="0" cx="-309.783" cy="75.0741" r="21.3333"/>
<polygon points="748.199,377.434 710.467,357.517 813.054,163.167 850.787,183.084" style="fill:#006363; stroke:#000000;stroke-width:0"/>
<circle fill="#006363" stroke="#006363" stroke-width="0" cx="729.333" cy="367.476" r="21.3333"/>
<circle fill="#006363" stroke="#006363" stroke-width="0" cx="831.92" cy="173.126" r="21.3333"/>
<polygon points="1256,469.333 256,1469.33 -744,469.333" style="fill:#000000; stroke:#000000;stroke-width:0"/>
<polygon points="-744,42.6667 256,-957.333 1256,42.6667" style="fill:#000000; stroke:#000000;stroke-width:0"/>
<circle fill="#a64b00" stroke="#a64b00" stroke-width="0" cx="-107.838" cy="113.311" r="21.3333"/>
<circle fill="#a64b00" stroke="#a64b00" stroke-width="0" cx="-309.783" cy="75.0741" r="21.3333"/>
<circle fill="#a64b00" stroke="#a64b00" stroke-width="0" cx="729.333" cy="367.476" r="21.3333"/>
<circle fill="#a64b00" stroke="#a64b00" stroke-width="0" cx="831.92" cy="173.126" r="21.3333"/>
<circle fill="#a64b00" stroke="#a64b00" stroke-width="0" cx="47.4521" cy="373.509" r="21.3333"/>
</svg>
