<?xml version="1.0" encoding="utf-8"?> <!-- Generator: Adobe Illustrator 13.0.0, SVG Export Plug-In . SVG Version: 6.00 Build 14948)  --> <svg version="1.2" baseProfile="tiny" id="Layer_1" xmlns="http://www.w3.org/2000/svg" xmlns:xlink="http://www.w3.org/1999/xlink" x="0px" y="0px" width="512px" height="512px" viewBox="0 0 512 512" xml:space="preserve">
<polygon points="0,0 512,0 512,512 0,512" style="fill:#ffffff; stroke:#000000;stroke-width:0"/>
<polygon points="-85.7129,128.649 -77.6514,170.547 -289.935,211.392 -297.996,169.494" style="fill:#006363; stroke:#000000;stroke-width:0"/>
<circle fill="#006363" stroke="#006363" stroke-width="0" cx="-81.6822" cy="149.598" r="21.3333"/>
<circle fill="#006363" stroke="#006363" stroke-width="0" cx="-293.966" cy="190.443" r="21.3333"/>
<polygon points="744.432,305.077 703.621,292.63 765.837,88.6308 806.648,101.077" style="fill:#006363; stroke:#000000;stroke-width:0"/>
<circle fill="#006363" stroke="#006363" stroke-width="0" cx="724.027" cy="298.854" r="21.3333"/>
<circle fill="#006363" stroke="#006363" stroke-width="0" cx="786.243" cy="94.854" r="21.3333"/>
<polygon points="1256,469.333 256,1469.33 -744,469.333" style="fill:#000000; stroke:#000000;stroke-width:0"/>
<polygon points="-744,42.6667 256,-957.333 1256,42.6667" style="fill:#000000; stroke:#000000;stroke-width:0"/>
<circle fill="#a64b00" stroke="#a64b00" stroke-width="0" cx="-81.6822" cy="149.598" r="21.3333"/>
<circle fill="#a64b00" stroke="#a64b00" stroke-width="0" cx="-293.966" cy="190.443" r="21.3333"/>
<circle fill="#a64b00" stroke="#a64b00" stroke-width="0" cx="724.027" cy="298.854" r="21.3333"/>
<circle fill="#a64b00" stroke="#a64b00" stroke-width="0" cx="786.243" cy="94.854" r="21.3333"/>
<circle fill="#a64b00" stroke="#a64b00" stroke-width="0" cx="95.1755" cy="354.428" r="21.3333"/>
</svg>
