<?xml version="1.0" encoding="utf-8"?> <!-- Generator: Adobe Illustrator 13.0.0, SVG Export Plug-In . SVG Version: 6.00 Build 14948)  --> <svg version="1.2" baseProfile="tiny" id="Layer_1" xmlns="http://www.w3.org/2000/svg" xmlns:xlink="http://www.w3.org/1999/xlink" x="0px" y="0px" width="512px" height="512px" viewBox="0 0 512 512" xml:space="preserve">
<polygon points="0,0 512,0 512,512 0,512" style="fill:#ffffff; stroke:#000000;stroke-width:0"/>
<polygon points="-165.408,291.651 -148.489,330.819 -342.98,414.832 -359.9,375.664" style="fill:#006363; stroke:#000000;stroke-width:0"/>
<circle fill="#006363" stroke="#006363" stroke-width="0" cx="-156.948" cy="311.235" r="21.3333"/>
<circle fill="#006363" stroke="#006363" stroke-width="0" cx="-351.44" cy="395.248" r="21.3333"/>
<polygon points="732.461,399.185 723.925,357.381 939.045,313.456 947.581,355.26" style="fill:#006363; stroke:#000000;stroke-width:0"/>
<circle fill="#006363" stroke="#006363" stroke-width="0" cx="728.193" cy="378.283" r="21.3333"/>
<circle fill="#006363" stroke="#006363" stroke-width="0" cx="943.313" cy="334.358" r="21.3333"/>
<polygon points="1256,469.333 256,1469.33 -744,469.333" style="fill:#000000; stroke:#000000;stroke-width:0"/>
<polygon points="-744,42.6667 256,-957.333 1256,42.6667" style="fill:#000000; stroke:#000000;stroke-width:0"/>
<circle fill="#a64b00" stroke="#a64b00" stroke-width="0" cx="-156.948" cy="311.235" r="21.3333"/>
<circle fill="#a64b00" stroke="#a64b00" stroke-width="0" cx="-351.44" cy="395.248" r="21.3333"/>
<circle fill="#a64b00" stroke="#a64b00" stroke-width="0" cx="728.193" cy="378.283" r="21.3333"/>
<circle fill="#a64b00" stroke="#a64b00" stroke-width="0" cx="943.313" cy="334.358" r="21.3333"/>
<circle fill="#a64b00" stroke="#a64b00" stroke-width="0" cx="-55.7496" cy="287.644" r="21.3333"/>
</svg>
