<?xml version="1.0" encoding="utf-8"?> <!-- Generator: Adobe Illustrator 13.0.0, SVG Export Plug-In . SVG Version: 6.00 Build 14948)  --> <svg version="1.2" baseProfile="tiny" id="Layer_1" xmlns="http://www.w3.org/2000/svg" xmlns:xlink="http://www.w3.org/1999/xlink" x="0px" y="0px" width="512px" height="512px" viewBox="0 0 512 512" xml:space="preserve">
<polygon points="0,0 512,0 512,512 0,512" style="fill:#ffffff; stroke:#000000;stroke-width:0"/>
<polygon points="-125.028,126.716 -83.4659,117.07 -34.9823,325.971 -76.5443,335.617" style="fill:#006363; stroke:#000000;stroke-width:0"/>
<circle fill="#006363" stroke="#006363" stroke-width="0" cx="-104.247" cy="121.893" r="21.3333"/>
<circle fill="#006363" stroke="#006363" stroke-width="0" cx="-55.7633" cy="330.794" r="21.3333"/>
<polygon points="707.576,194.063 728.595,231.194 540.764,337.524 519.745,300.394" style="fill:#006363; stroke:#000000;stroke-width:0"/>
<circle fill="#006363" stroke="#006363" stroke-width="0" cx="718.086" cy="212.628" r="21.3333"/>
<circle fill="#006363" stroke="#006363" stroke-width="0" cx="530.254" cy="318.959" r="21.3333"/>
<polygon points="1256,469.333 256,1469.33 -744,469.333" style="fill:#000000; stroke:#000000;stroke-width:0"/>
<polygon points="-744,42.6667 256,-957.333 1256,42.6667" style="fill:#000000; stroke:#000000;stroke-width:0"/>
<circle fill="#a64b00" stroke="#a64b00" stroke-width="0" cx="-104.247" cy="121.893" r="21.3333"/>
<circle fill="#a64b00" stroke="#a64b00" stroke-width="0" cx="-55.7633" cy="330.794" r="21.3333"/>
<circle fill="#a64b00" stroke="#a64b00" stroke-width="0" cx="718.086" cy="212.628" r="21.3333"/>
<circle fill="#a64b00" stroke="#a64b00" stroke-width="0" cx="530.254" cy="318.959" r="21.3333"/>
<circle fill="#a64b00" stroke="#a64b00" stroke-width="0" cx="340.354" cy="363.968" r="21.3333"/>
</svg>
