<?xml version="1.0" encoding="utf-8"?> <!-- Generator: Adobe Illustrator 13.0.0, SVG Export Plug-In . SVG Version: 6.00 Build 14948)  --> <svg version="1.2" baseProfile="tiny" id="Layer_1" xmlns="http://www.w3.org/2000/svg" xmlns:xlink="http://www.w3.org/1999/xlink" x="0px" y="0px" width="512px" height="512px" viewBox="0 0 512 512" xml:space="preserve">
<polygon points="0,0 512,0 512,512 0,512" style="fill:#ffffff; stroke:#000000;stroke-width:0"/>
<polygon points="-105.527,124.293 -63.2297,118.693 -35.0703,331.36 -77.3678,336.961" style="fill:#006363; stroke:#000000;stroke-width:0"/>
<circle fill="#006363" stroke="#006363" stroke-width="0" cx="-84.3785" cy="121.493" r="21.3333"/>
<circle fill="#006363" stroke="#006363" stroke-width="0" cx="-56.2191" cy="334.16" r="21.3333"/>
<polygon points="717.631,230.192 718.311,272.853 507.129,276.22 506.449,233.559" style="fill:#006363; stroke:#000000;stroke-width:0"/>
<circle fill="#006363" stroke="#006363" stroke-width="0" cx="717.971" cy="251.522" r="21.3333"/>
<circle fill="#006363" stroke="#006363" stroke-width="0" cx="506.789" cy="254.889" r="21.3333"/>
<polygon points="1256,469.333 256,1469.33 -744,469.333" style="fill:#000000; stroke:#000000;stroke-width:0"/>
<polygon points="-744,42.6667 256,-957.333 1256,42.6667" style="fill:#000000; stroke:#000000;stroke-width:0"/>
<circle fill="#a64b00" stroke="#a64b00" stroke-width="0" cx="-84.3785" cy="121.493" r="21.3333"/>
<circle fill="#a64b00" stroke="#a64b00" stroke-width="0" cx="-56.2191" cy="334.16" r="21.3333"/>
<circle fill="#a64b00" stroke="#a64b00" stroke-width="0" cx="717.971" cy="251.522" r="21.3333"/>
<circle fill="#a64b00" stroke="#a64b00" stroke-width="0" cx="506.789" cy="254.889" r="21.3333"/>
<circle fill="#a64b00" stroke="#a64b00" stroke-width="0" cx="362.426" cy="182.698" r="21.3333"/>
</svg>
