<?xml version="1.0" encoding="utf-8"?> <!-- Generator: Adobe Illustrator 13.0.0, SVG Export Plug-In . SVG Version: 6.00 Build 14948)  --> <svg version="1.2" baseProfile="tiny" id="Layer_1" xmlns="http://www.w3.org/2000/svg" xmlns:xlink="http://www.w3.org/1999/xlink" x="0px" y="0px" width="512px" height="512px" viewBox="0 0 512 512" xml:space="preserve">
<polygon points="0,0 512,0 512,512 0,512" style="fill:#ffffff; stroke:#000000;stroke-width:0"/>
<polygon points="-414.369,105.385 -408.628,63.1067 -195.475,92.0541 -201.217,134.333" style="fill:#006363; stroke:#000000;stroke-width:0"/>
<circle fill="#006363" stroke="#006363" stroke-width="0" cx="-411.499" cy="84.246" r="21.3333"/>
<circle fill="#006363" stroke="#006363" stroke-width="0" cx="-198.346" cy="113.193" r="21.3333"/>
<polygon points="876.169,217.582 918.835,217.928 917.06,436.753 874.395,436.407" style="fill:#006363; stroke:#000000;stroke-width:0"/>
<circle fill="#006363" stroke="#006363" stroke-width="0" cx="897.502" cy="217.755" r="21.3333"/>
<circle fill="#006363" stroke="#006363" stroke-width="0" cx="895.728" cy="436.58" r="21.3333"/>
<polygon points="1256,469.333 256,1469.33 -744,469.333" style="fill:#000000; stroke:#000000;stroke-width:0"/>
<polygon points="-744,42.6667 256,-957.333 1256,42.6667" style="fill:#000000; stroke:#000000;stroke-width:0"/>
<circle fill="#a64b00" stroke="#a64b00" stroke-width="0" cx="-411.499" cy="84.246" r="21.3333"/>
<circle fill="#a64b00" stroke="#a64b00" stroke-width="0" cx="-198.346" cy="113.193" r="21.3333"/>
<circle fill="#a64b00" stroke="#a64b00" stroke-width="0" cx="897.502" cy="217.755" r="21.3333"/>
<circle fill="#a64b00" stroke="#a64b00" stroke-width="0" cx="895.728" cy="436.58" r="21.3333"/>
<circle fill="#a64b00" stroke="#a64b00" stroke-width="0" cx="-45.2025" cy="155.13" r="21.3333"/>
</svg>
