<?xml version="1.0" encoding="utf-8"?> <!-- Generator: Adobe Illustrator 13.0.0, SVG Export Plug-In . SVG Version: 6.00 Build 14948)  --> <svg version="1.2" baseProfile="tiny" id="Layer_1" xmlns="http://www.w3.org/2000/svg" xmlns:xlink="http://www.w3.org/1999/xlink" x="0px" y="0px" width="512px" height="512px" viewBox="0 0 512 512" xml:space="preserve">
<polygon points="0,0 512,0 512,512 0,512" style="fill:#ffffff; stroke:#000000;stroke-width:0"/>
<polygon points="-241.998,215.951 -236.359,173.659 -29.7662,201.203 -35.4048,243.495" style="fill:#006363; stroke:#000000;stroke-width:0"/>
<circle fill="#006363" stroke="#006363" stroke-width="0" cx="-239.178" cy="194.805" r="21.3333"/>
<circle fill="#006363" stroke="#006363" stroke-width="0" cx="-32.5855" cy="222.349" r="21.3333"/>
<polygon points="595.038,384.69 584.617,343.315 789.047,291.827 799.468,333.201" style="fill:#006363; stroke:#000000;stroke-width:0"/>
<circle fill="#006363" stroke="#006363" stroke-width="0" cx="589.827" cy="364.002" r="21.3333"/>
<circle fill="#006363" stroke="#006363" stroke-width="0" cx="794.257" cy="312.514" r="21.3333"/>
<polygon points="1256,469.333 256,1469.33 -744,469.333" style="fill:#000000; stroke:#000000;stroke-width:0"/>
<polygon points="-744,42.6667 256,-957.333 1256,42.6667" style="fill:#000000; stroke:#000000;stroke-width:0"/>
<circle fill="#a64b00" stroke="#a64b00" stroke-width="0" cx="-239.178" cy="194.805" r="21.3333"/>
<circle fill="#a64b00" stroke="#a64b00" stroke-width="0" cx="-32.5855" cy="222.349" r="21.3333"/>
<circle fill="#a64b00" stroke="#a64b00" stroke-width="0" cx="589.827" cy="364.002" r="21.3333"/>
<circle fill="#a64b00" stroke="#a64b00" stroke-width="0" cx="794.257" cy="312.514" r="21.3333"/>
<circle fill="#a64b00" stroke="#a64b00" stroke-width="0" cx="213.291" cy="220.861" r="21.3333"/>
</svg>
