<?xml version="1.0" encoding="utf-8"?> <!-- Generator: Adobe Illustrator 13.0.0, SVG Export Plug-In . SVG Version: 6.00 Build 14948)  --> <svg version="1.2" baseProfile="tiny" id="Layer_1" xmlns="http://www.w3.org/2000/svg" xmlns:xlink="http://www.w3.org/1999/xlink" x="0px" y="0px" width="512px" height="512px" viewBox="0 0 512 512" xml:space="preserve">
<polygon points="0,0 512,0 512,512 0,512" style="fill:#ffffff; stroke:#000000;stroke-width:0"/>
<polygon points="-99.6427,169.416 -69.4963,139.223 84.6262,293.106 54.4798,323.299" style="fill:#006363; stroke:#000000;stroke-width:0"/>
<circle fill="#006363" stroke="#006363" stroke-width="0" cx="-84.5695" cy="154.32" r="21.3333"/>
<circle fill="#006363" stroke="#006363" stroke-width="0" cx="69.553" cy="308.202" r="21.3333"/>
<polygon points="429.077,189.304 431.925,146.732 647.355,161.147 644.507,203.718" style="fill:#006363; stroke:#000000;stroke-width:0"/>
<circle fill="#006363" stroke="#006363" stroke-width="0" cx="430.501" cy="168.018" r="21.3333"/>
<circle fill="#006363" stroke="#006363" stroke-width="0" cx="645.931" cy="182.433" r="21.3333"/>
<polygon points="1256,469.333 256,1469.33 -744,469.333" style="fill:#000000; stroke:#000000;stroke-width:0"/>
<polygon points="-744,42.6667 256,-957.333 1256,42.6667" style="fill:#000000; stroke:#000000;stroke-width:0"/>
<circle fill="#a64b00" stroke="#a64b00" stroke-width="0" cx="-84.5695" cy="154.32" r="21.3333"/>
<circle fill="#a64b00" stroke="#a64b00" stroke-width="0" cx="69.553" cy="308.202" r="21.3333"/>
<circle fill="#a64b00" stroke="#a64b00" stroke-width="0" cx="430.501" cy="168.018" r="21.3333"/>
<circle fill="#a64b00" stroke="#a64b00" stroke-width="0" cx="645.931" cy="182.433" r="21.3333"/>
<circle fill="#a64b00" stroke="#a64b00" stroke-width="0" cx="66.4855" cy="157.412" r="21.3333"/>
</svg>
