<?xml version="1.0" encoding="utf-8"?> <!-- Generator: Adobe Illustrator 13.0.0, SVG Export Plug-In . SVG Version: 6.00 Build 14948)  --> <svg version="1.2" baseProfile="tiny" id="Layer_1" xmlns="http://www.w3.org/2000/svg" xmlns:xlink="http://www.w3.org/1999/xlink" x="0px" y="0px" width="512px" height="512px" viewBox="0 0 512 512" xml:space="preserve">
<polygon points="0,0 512,0 512,512 0,512" style="fill:#ffffff; stroke:#000000;stroke-width:0"/>
<polygon points="-97.9135,92.3213 -86.8132,133.519 -284.03,186.657 -295.131,145.459" style="fill:#006363; stroke:#000000;stroke-width:0"/>
<circle fill="#006363" stroke="#006363" stroke-width="0" cx="-92.3634" cy="112.92" r="21.3333"/>
<circle fill="#006363" stroke="#006363" stroke-width="0" cx="-289.581" cy="166.058" r="21.3333"/>
<polygon points="744.466,317.983 704.021,304.393 773.451,97.7588 813.896,111.348" style="fill:#006363; stroke:#000000;stroke-width:0"/>
<circle fill="#006363" stroke="#006363" stroke-width="0" cx="724.244" cy="311.188" r="21.3333"/>
<circle fill="#006363" stroke="#006363" stroke-width="0" cx="793.673" cy="104.554" r="21.3333"/>
<polygon points="1256,469.333 256,1469.33 -744,469.333" style="fill:#000000; stroke:#000000;stroke-width:0"/>
<polygon points="-744,42.6667 256,-957.333 1256,42.6667" style="fill:#000000; stroke:#000000;stroke-width:0"/>
<circle fill="#a64b00" stroke="#a64b00" stroke-width="0" cx="-92.3634" cy="112.92" r="21.3333"/>
<circle fill="#a64b00" stroke="#a64b00" stroke-width="0" cx="-289.581" cy="166.058" r="21.3333"/>
<circle fill="#a64b00" stroke="#a64b00" stroke-width="0" cx="724.244" cy="311.188" r="21.3333"/>
<circle fill="#a64b00" stroke="#a64b00" stroke-width="0" cx="793.673" cy="104.554" r="21.3333"/>
<circle fill="#a64b00" stroke="#a64b00" stroke-width="0" cx="88.017" cy="239.942" r="21.3333"/>
</svg>
