<?xml version="1.0" encoding="utf-8"?> <!-- Generator: Adobe Illustrator 13.0.0, SVG Export Plug-In . SVG Version: 6.00 Build 14948)  --> <svg version="1.2" baseProfile="tiny" id="Layer_1" xmlns="http://www.w3.org/2000/svg" xmlns:xlink="http://www.w3.org/1999/xlink" x="0px" y="0px" width="512px" height="512px" viewBox="0 0 512 512" xml:space="preserve">
<polygon points="0,0 512,0 512,512 0,512" style="fill:#ffffff; stroke:#000000;stroke-width:0"/>
<polygon points="-345.996,391.426 -385.387,375.033 -304.67,181.08 -265.279,197.474" style="fill:#006363; stroke:#000000;stroke-width:0"/>
<circle fill="#006363" stroke="#006363" stroke-width="0" cx="-365.691" cy="383.229" r="21.3333"/>
<circle fill="#006363" stroke="#006363" stroke-width="0" cx="-284.974" cy="189.277" r="21.3333"/>
<polygon points="960.054,217.296 995.192,241.499 873.962,417.502 838.825,393.299" style="fill:#006363; stroke:#000000;stroke-width:0"/>
<circle fill="#006363" stroke="#006363" stroke-width="0" cx="977.623" cy="229.397" r="21.3333"/>
<circle fill="#006363" stroke="#006363" stroke-width="0" cx="856.394" cy="405.401" r="21.3333"/>
<polygon points="1256,469.333 256,1469.33 -744,469.333" style="fill:#000000; stroke:#000000;stroke-width:0"/>
<polygon points="-744,42.6667 256,-957.333 1256,42.6667" style="fill:#000000; stroke:#000000;stroke-width:0"/>
<circle fill="#a64b00" stroke="#a64b00" stroke-width="0" cx="-365.691" cy="383.229" r="21.3333"/>
<circle fill="#a64b00" stroke="#a64b00" stroke-width="0" cx="-284.974" cy="189.277" r="21.3333"/>
<circle fill="#a64b00" stroke="#a64b00" stroke-width="0" cx="977.623" cy="229.397" r="21.3333"/>
<circle fill="#a64b00" stroke="#a64b00" stroke-width="0" cx="856.394" cy="405.401" r="21.3333"/>
<circle fill="#a64b00" stroke="#a64b00" stroke-width="0" cx="640.904" cy="272.274" r="21.3333"/>
</svg>
