<?xml version="1.0" encoding="utf-8"?> <!-- Generator: Adobe Illustrator 13.0.0, SVG Export Plug-In . SVG Version: 6.00 Build 14948)  --> <svg version="1.2" baseProfile="tiny" id="Layer_1" xmlns="http://www.w3.org/2000/svg" xmlns:xlink="http://www.w3.org/1999/xlink" x="0px" y="0px" width="512px" height="512px" viewBox="0 0 512 512" xml:space="preserve">
<polygon points="0,0 512,0 512,512 0,512" style="fill:#ffffff; stroke:#000000;stroke-width:0"/>
<polygon points="-107.16,157.322 -79.8797,124.516 88.2853,264.36 61.0047,297.166" style="fill:#006363; stroke:#000000;stroke-width:0"/>
<circle fill="#006363" stroke="#006363" stroke-width="0" cx="-93.52" cy="140.919" r="21.3333"/>
<circle fill="#006363" stroke="#006363" stroke-width="0" cx="74.645" cy="280.763" r="21.3333"/>
<polygon points="433.656,204.234 431.541,161.62 647.564,150.897 649.68,193.511" style="fill:#006363; stroke:#000000;stroke-width:0"/>
<circle fill="#006363" stroke="#006363" stroke-width="0" cx="432.598" cy="182.927" r="21.3333"/>
<circle fill="#006363" stroke="#006363" stroke-width="0" cx="648.622" cy="172.204" r="21.3333"/>
<polygon points="1256,469.333 256,1469.33 -744,469.333" style="fill:#000000; stroke:#000000;stroke-width:0"/>
<polygon points="-744,42.6667 256,-957.333 1256,42.6667" style="fill:#000000; stroke:#000000;stroke-width:0"/>
<circle fill="#a64b00" stroke="#a64b00" stroke-width="0" cx="-93.52" cy="140.919" r="21.3333"/>
<circle fill="#a64b00" stroke="#a64b00" stroke-width="0" cx="74.645" cy="280.763" r="21.3333"/>
<circle fill="#a64b00" stroke="#a64b00" stroke-width="0" cx="432.598" cy="182.927" r="21.3333"/>
<circle fill="#a64b00" stroke="#a64b00" stroke-width="0" cx="648.622" cy="172.204" r="21.3333"/>
<circle fill="#a64b00" stroke="#a64b00" stroke-width="0" cx="69.4673" cy="198.738" r="21.3333"/>
</svg>
