<?xml version="1.0" encoding="utf-8"?> <!-- Generator: Adobe Illustrator 13.0.0, SVG Export Plug-In . SVG Version: 6.00 Build 14948)  --> <svg version="1.2" baseProfile="tiny" id="Layer_1" xmlns="http://www.w3.org/2000/svg" xmlns:xlink="http://www.w3.org/1999/xlink" x="0px" y="0px" width="512px" height="512px" viewBox="0 0 512 512" xml:space="preserve">
<polygon points="0,0 512,0 512,512 0,512" style="fill:#ffffff; stroke:#000000;stroke-width:0"/>
<polygon points="-172.731,290.214 -139.747,263.148 -9.84017,421.459 -42.8235,448.525" style="fill:#006363; stroke:#000000;stroke-width:0"/>
<circle fill="#006363" stroke="#006363" stroke-width="0" cx="-156.239" cy="276.681" r="21.3333"/>
<circle fill="#006363" stroke="#006363" stroke-width="0" cx="-26.3319" cy="434.992" r="21.3333"/>
<polygon points="668.119,175.054 706.055,194.582 607.624,385.791 569.689,366.263" style="fill:#006363; stroke:#000000;stroke-width:0"/>
<circle fill="#006363" stroke="#006363" stroke-width="0" cx="687.087" cy="184.818" r="21.3333"/>
<circle fill="#006363" stroke="#006363" stroke-width="0" cx="588.657" cy="376.027" r="21.3333"/>
<polygon points="1256,469.333 256,1469.33 -744,469.333" style="fill:#000000; stroke:#000000;stroke-width:0"/>
<polygon points="-744,42.6667 256,-957.333 1256,42.6667" style="fill:#000000; stroke:#000000;stroke-width:0"/>
<circle fill="#a64b00" stroke="#a64b00" stroke-width="0" cx="-156.239" cy="276.681" r="21.3333"/>
<circle fill="#a64b00" stroke="#a64b00" stroke-width="0" cx="-26.3319" cy="434.992" r="21.3333"/>
<circle fill="#a64b00" stroke="#a64b00" stroke-width="0" cx="687.087" cy="184.818" r="21.3333"/>
<circle fill="#a64b00" stroke="#a64b00" stroke-width="0" cx="588.657" cy="376.027" r="21.3333"/>
<circle fill="#a64b00" stroke="#a64b00" stroke-width="0" cx="314.703" cy="163.617" r="21.3333"/>
</svg>
