<?xml version="1.0" encoding="utf-8"?> <!-- Generator: Adobe Illustrator 13.0.0, SVG Export Plug-In . SVG Version: 6.00 Build 14948)  --> <svg version="1.2" baseProfile="tiny" id="Layer_1" xmlns="http://www.w3.org/2000/svg" xmlns:xlink="http://www.w3.org/1999/xlink" x="0px" y="0px" width="512px" height="512px" viewBox="0 0 512 512" xml:space="preserve">
<polygon points="0,0 512,0 512,512 0,512" style="fill:#ffffff; stroke:#000000;stroke-width:0"/>
<polygon points="-105.085,94.432 -112.707,136.412 -313.585,99.943 -305.964,57.9626" style="fill:#006363; stroke:#000000;stroke-width:0"/>
<circle fill="#006363" stroke="#006363" stroke-width="0" cx="-108.896" cy="115.422" r="21.3333"/>
<circle fill="#006363" stroke="#006363" stroke-width="0" cx="-309.775" cy="78.9528" r="21.3333"/>
<polygon points="749.199,377.539 711.557,357.452 813.328,166.735 850.971,186.822" style="fill:#006363; stroke:#000000;stroke-width:0"/>
<circle fill="#006363" stroke="#006363" stroke-width="0" cx="730.378" cy="367.496" r="21.3333"/>
<circle fill="#006363" stroke="#006363" stroke-width="0" cx="832.15" cy="176.778" r="21.3333"/>
<polygon points="1256,469.333 256,1469.33 -744,469.333" style="fill:#000000; stroke:#000000;stroke-width:0"/>
<polygon points="-744,42.6667 256,-957.333 1256,42.6667" style="fill:#000000; stroke:#000000;stroke-width:0"/>
<circle fill="#a64b00" stroke="#a64b00" stroke-width="0" cx="-108.896" cy="115.422" r="21.3333"/>
<circle fill="#a64b00" stroke="#a64b00" stroke-width="0" cx="-309.775" cy="78.9528" r="21.3333"/>
<circle fill="#a64b00" stroke="#a64b00" stroke-width="0" cx="730.378" cy="367.496" r="21.3333"/>
<circle fill="#a64b00" stroke="#a64b00" stroke-width="0" cx="832.15" cy="176.778" r="21.3333"/>
<circle fill="#a64b00" stroke="#a64b00" stroke-width="0" cx="46.2591" cy="354.428" r="21.3333"/>
</svg>
