<?xml version="1.0" encoding="utf-8"?> <!-- Generator: Adobe Illustrator 13.0.0, SVG Export Plug-In . SVG Version: 6.00 Build 14948)  --> <svg version="1.2" baseProfile="tiny" id="Layer_1" xmlns="http://www.w3.org/2000/svg" xmlns:xlink="http://www.w3.org/1999/xlink" x="0px" y="0px" width="512px" height="512px" viewBox="0 0 512 512" xml:space="preserve">
<polygon points="0,0 512,0 512,512 0,512" style="fill:#ffffff; stroke:#000000;stroke-width:0"/>
<polygon points="-162.437,340.634 -197.577,316.434 -78.3719,143.343 -43.2322,167.544" style="fill:#006363; stroke:#000000;stroke-width:0"/>
<circle fill="#006363" stroke="#006363" stroke-width="0" cx="-180.007" cy="328.534" r="21.3333"/>
<circle fill="#006363" stroke="#006363" stroke-width="0" cx="-60.802" cy="155.443" r="21.3333"/>
<polygon points="572.119,281.377 594.372,244.973 774.365,354.995 752.112,391.399" style="fill:#006363; stroke:#000000;stroke-width:0"/>
<circle fill="#006363" stroke="#006363" stroke-width="0" cx="583.245" cy="263.175" r="21.3333"/>
<circle fill="#006363" stroke="#006363" stroke-width="0" cx="763.238" cy="373.197" r="21.3333"/>
<polygon points="1256,469.333 256,1469.33 -744,469.333" style="fill:#000000; stroke:#000000;stroke-width:0"/>
<polygon points="-744,42.6667 256,-957.333 1256,42.6667" style="fill:#000000; stroke:#000000;stroke-width:0"/>
<circle fill="#a64b00" stroke="#a64b00" stroke-width="0" cx="-180.007" cy="328.534" r="21.3333"/>
<circle fill="#a64b00" stroke="#a64b00" stroke-width="0" cx="-60.802" cy="155.443" r="21.3333"/>
<circle fill="#a64b00" stroke="#a64b00" stroke-width="0" cx="583.245" cy="263.175" r="21.3333"/>
<circle fill="#a64b00" stroke="#a64b00" stroke-width="0" cx="763.238" cy="373.197" r="21.3333"/>
<circle fill="#a64b00" stroke="#a64b00" stroke-width="0" cx="248.487" cy="440.293" r="21.3333"/>
</svg>
