<?xml version="1.0" encoding="utf-8"?> <!-- Generator: Adobe Illustrator 13.0.0, SVG Export Plug-In . SVG Version: 6.00 Build 14948)  --> <svg version="1.2" baseProfile="tiny" id="Layer_1" xmlns="http://www.w3.org/2000/svg" xmlns:xlink="http://www.w3.org/1999/xlink" x="0px" y="0px" width="512px" height="512px" viewBox="0 0 512 512" xml:space="preserve">
<polygon points="0,0 512,0 512,512 0,512" style="fill:#ffffff; stroke:#000000;stroke-width:0"/>
<polygon points="-100.553,164.863 -72.2999,132.891 83.1288,270.242 54.8755,302.214" style="fill:#006363; stroke:#000000;stroke-width:0"/>
<circle fill="#006363" stroke="#006363" stroke-width="0" cx="-86.4265" cy="148.877" r="21.3333"/>
<circle fill="#006363" stroke="#006363" stroke-width="0" cx="69.0021" cy="286.228" r="21.3333"/>
<polygon points="434.726,199.256 434.265,156.591 644.899,154.315 645.36,196.98" style="fill:#006363; stroke:#000000;stroke-width:0"/>
<circle fill="#006363" stroke="#006363" stroke-width="0" cx="434.495" cy="177.923" r="21.3333"/>
<circle fill="#006363" stroke="#006363" stroke-width="0" cx="645.129" cy="175.647" r="21.3333"/>
<polygon points="1256,469.333 256,1469.33 -744,469.333" style="fill:#000000; stroke:#000000;stroke-width:0"/>
<polygon points="-744,42.6667 256,-957.333 1256,42.6667" style="fill:#000000; stroke:#000000;stroke-width:0"/>
<circle fill="#a64b00" stroke="#a64b00" stroke-width="0" cx="-86.4265" cy="148.877" r="21.3333"/>
<circle fill="#a64b00" stroke="#a64b00" stroke-width="0" cx="69.0021" cy="286.228" r="21.3333"/>
<circle fill="#a64b00" stroke="#a64b00" stroke-width="0" cx="434.495" cy="177.923" r="21.3333"/>
<circle fill="#a64b00" stroke="#a64b00" stroke-width="0" cx="645.129" cy="175.647" r="21.3333"/>
<circle fill="#a64b00" stroke="#a64b00" stroke-width="0" cx="52.0282" cy="203.975" r="21.3333"/>
</svg>
