<?xml version="1.0" encoding="utf-8"?> <!-- Generator: Adobe Illustrator 13.0.0, SVG Export Plug-In . SVG Version: 6.00 Build 14948)  --> <svg version="1.2" baseProfile="tiny" id="Layer_1" xmlns="http://www.w3.org/2000/svg" xmlns:xlink="http://www.w3.org/1999/xlink" x="0px" y="0px" width="512px" height="512px" viewBox="0 0 512 512" xml:space="preserve">
<polygon points="0,0 512,0 512,512 0,512" style="fill:#ffffff; stroke:#000000;stroke-width:0"/>
<polygon points="-36.1677,217.019 5.34129,207.147 53.2574,408.627 11.7484,418.499" style="fill:#006363; stroke:#000000;stroke-width:0"/>
<circle fill="#006363" stroke="#006363" stroke-width="0" cx="-15.4132" cy="212.083" r="21.3333"/>
<circle fill="#006363" stroke="#006363" stroke-width="0" cx="32.5029" cy="413.563" r="21.3333"/>
<polygon points="445.818,80.9319 483.008,60.0184 588.046,246.804 550.856,267.717" style="fill:#006363; stroke:#000000;stroke-width:0"/>
<circle fill="#006363" stroke="#006363" stroke-width="0" cx="464.413" cy="70.4752" r="21.3333"/>
<circle fill="#006363" stroke="#006363" stroke-width="0" cx="569.451" cy="257.261" r="21.3333"/>
<polygon points="1256,469.333 256,1469.33 -744,469.333" style="fill:#000000; stroke:#000000;stroke-width:0"/>
<polygon points="-744,42.6667 256,-957.333 1256,42.6667" style="fill:#000000; stroke:#000000;stroke-width:0"/>
<circle fill="#a64b00" stroke="#a64b00" stroke-width="0" cx="-15.4132" cy="212.083" r="21.3333"/>
<circle fill="#a64b00" stroke="#a64b00" stroke-width="0" cx="32.5029" cy="413.563" r="21.3333"/>
<circle fill="#a64b00" stroke="#a64b00" stroke-width="0" cx="464.413" cy="70.4752" r="21.3333"/>
<circle fill="#a64b00" stroke="#a64b00" stroke-width="0" cx="569.451" cy="257.261" r="21.3333"/>
<circle fill="#a64b00" stroke="#a64b00" stroke-width="0" cx="259.25" cy="328.143" r="21.3333"/>
</svg>
