<?xml version="1.0" encoding="utf-8"?> <!-- Generator: Adobe Illustrator 13.0.0, SVG Export Plug-In . SVG Version: 6.00 Build 14948)  --> <svg version="1.2" baseProfile="tiny" id="Layer_1" xmlns="http://www.w3.org/2000/svg" xmlns:xlink="http://www.w3.org/1999/xlink" x="0px" y="0px" width="512px" height="512px" viewBox="0 0 512 512" xml:space="preserve">
<polygon points="0,0 512,0 512,512 0,512" style="fill:#ffffff; stroke:#000000;stroke-width:0"/>
<polygon points="-165.12,327.391 -200.3,303.249 -77.7873,124.719 -42.6073,148.86" style="fill:#006363; stroke:#000000;stroke-width:0"/>
<circle fill="#006363" stroke="#006363" stroke-width="0" cx="-182.71" cy="315.32" r="21.3333"/>
<circle fill="#006363" stroke="#006363" stroke-width="0" cx="-60.1973" cy="136.789" r="21.3333"/>
<polygon points="569.224,286.918 589.502,249.378 779.809,352.175 759.531,389.715" style="fill:#006363; stroke:#000000;stroke-width:0"/>
<circle fill="#006363" stroke="#006363" stroke-width="0" cx="579.363" cy="268.148" r="21.3333"/>
<circle fill="#006363" stroke="#006363" stroke-width="0" cx="769.67" cy="370.945" r="21.3333"/>
<polygon points="1256,469.333 256,1469.33 -744,469.333" style="fill:#000000; stroke:#000000;stroke-width:0"/>
<polygon points="-744,42.6667 256,-957.333 1256,42.6667" style="fill:#000000; stroke:#000000;stroke-width:0"/>
<circle fill="#a64b00" stroke="#a64b00" stroke-width="0" cx="-182.71" cy="315.32" r="21.3333"/>
<circle fill="#a64b00" stroke="#a64b00" stroke-width="0" cx="-60.1973" cy="136.789" r="21.3333"/>
<circle fill="#a64b00" stroke="#a64b00" stroke-width="0" cx="579.363" cy="268.148" r="21.3333"/>
<circle fill="#a64b00" stroke="#a64b00" stroke-width="0" cx="769.67" cy="370.945" r="21.3333"/>
<circle fill="#a64b00" stroke="#a64b00" stroke-width="0" cx="246.101" cy="421.212" r="21.3333"/>
</svg>
