<?xml version="1.0" encoding="utf-8"?> <!-- Generator: Adobe Illustrator 13.0.0, SVG Export Plug-In . SVG Version: 6.00 Build 14948)  --> <svg version="1.2" baseProfile="tiny" id="Layer_1" xmlns="http://www.w3.org/2000/svg" xmlns:xlink="http://www.w3.org/1999/xlink" x="0px" y="0px" width="512px" height="512px" viewBox="0 0 512 512" xml:space="preserve">
<polygon points="0,0 512,0 512,512 0,512" style="fill:#ffffff; stroke:#000000;stroke-width:0"/>
<polygon points="-154.299,276.215 -138.855,315.989 -348.318,397.325 -363.762,357.552" style="fill:#006363; stroke:#000000;stroke-width:0"/>
<circle fill="#006363" stroke="#006363" stroke-width="0" cx="-146.577" cy="296.102" r="21.3333"/>
<circle fill="#006363" stroke="#006363" stroke-width="0" cx="-356.04" cy="377.438" r="21.3333"/>
<polygon points="739.152,409.538 726.39,368.824 925.344,306.461 938.105,347.175" style="fill:#006363; stroke:#000000;stroke-width:0"/>
<circle fill="#006363" stroke="#006363" stroke-width="0" cx="732.771" cy="389.181" r="21.3333"/>
<circle fill="#006363" stroke="#006363" stroke-width="0" cx="931.724" cy="326.818" r="21.3333"/>
<polygon points="1256,469.333 256,1469.33 -744,469.333" style="fill:#000000; stroke:#000000;stroke-width:0"/>
<polygon points="-744,42.6667 256,-957.333 1256,42.6667" style="fill:#000000; stroke:#000000;stroke-width:0"/>
<circle fill="#a64b00" stroke="#a64b00" stroke-width="0" cx="-146.577" cy="296.102" r="21.3333"/>
<circle fill="#a64b00" stroke="#a64b00" stroke-width="0" cx="-356.04" cy="377.438" r="21.3333"/>
<circle fill="#a64b00" stroke="#a64b00" stroke-width="0" cx="732.771" cy="389.181" r="21.3333"/>
<circle fill="#a64b00" stroke="#a64b00" stroke-width="0" cx="931.724" cy="326.818" r="21.3333"/>
<circle fill="#a64b00" stroke="#a64b00" stroke-width="0" cx="-49.1876" cy="392.59" r="21.3333"/>
</svg>
