<?xml version="1.0" encoding="utf-8"?> <!-- Generator: Adobe Illustrator 13.0.0, SVG Export Plug-In . SVG Version: 6.00 Build 14948)  --> <svg version="1.2" baseProfile="tiny" id="Layer_1" xmlns="http://www.w3.org/2000/svg" xmlns:xlink="http://www.w3.org/1999/xlink" x="0px" y="0px" width="512px" height="512px" viewBox="0 0 512 512" xml:space="preserve">
<polygon points="0,0 512,0 512,512 0,512" style="fill:#ffffff; stroke:#000000;stroke-width:0"/>
<polygon points="-105.63,118.56 -63.3187,113.063 -36.0172,323.189 -78.3282,328.687" style="fill:#006363; stroke:#000000;stroke-width:0"/>
<circle fill="#006363" stroke="#006363" stroke-width="0" cx="-84.4742" cy="115.812" r="21.3333"/>
<circle fill="#006363" stroke="#006363" stroke-width="0" cx="-57.1727" cy="325.938" r="21.3333"/>
<polygon points="719.721,227.948 721.553,270.575 506.314,279.825 504.482,237.197" style="fill:#006363; stroke:#000000;stroke-width:0"/>
<circle fill="#006363" stroke="#006363" stroke-width="0" cx="720.637" cy="249.261" r="21.3333"/>
<circle fill="#006363" stroke="#006363" stroke-width="0" cx="505.398" cy="258.511" r="21.3333"/>
<polygon points="1256,469.333 256,1469.33 -744,469.333" style="fill:#000000; stroke:#000000;stroke-width:0"/>
<polygon points="-744,42.6667 256,-957.333 1256,42.6667" style="fill:#000000; stroke:#000000;stroke-width:0"/>
<circle fill="#a64b00" stroke="#a64b00" stroke-width="0" cx="-84.4742" cy="115.812" r="21.3333"/>
<circle fill="#a64b00" stroke="#a64b00" stroke-width="0" cx="-57.1727" cy="325.938" r="21.3333"/>
<circle fill="#a64b00" stroke="#a64b00" stroke-width="0" cx="720.637" cy="249.261" r="21.3333"/>
<circle fill="#a64b00" stroke="#a64b00" stroke-width="0" cx="505.398" cy="258.511" r="21.3333"/>
<circle fill="#a64b00" stroke="#a64b00" stroke-width="0" cx="361.233" cy="201.779" r="21.3333"/>
</svg>
