<?xml version="1.0" encoding="utf-8"?> <!-- Generator: Adobe Illustrator 13.0.0, SVG Export Plug-In . SVG Version: 6.00 Build 14948)  --> <svg version="1.2" baseProfile="tiny" id="Layer_1" xmlns="http://www.w3.org/2000/svg" xmlns:xlink="http://www.w3.org/1999/xlink" x="0px" y="0px" width="512px" height="512px" viewBox="0 0 512 512" xml:space="preserve">
<polygon points="0,0 512,0 512,512 0,512" style="fill:#ffffff; stroke:#000000;stroke-width:0"/>
<polygon points="-143.529,147.553 -119.77,112.114 59.5949,232.362 35.8359,267.801" style="fill:#006363; stroke:#000000;stroke-width:0"/>
<circle fill="#006363" stroke="#006363" stroke-width="0" cx="-131.649" cy="129.834" r="21.3333"/>
<circle fill="#006363" stroke="#006363" stroke-width="0" cx="47.7154" cy="250.081" r="21.3333"/>
<polygon points="612.878,320.042 570.565,325.517 543.053,112.884 585.367,107.409" style="fill:#006363; stroke:#000000;stroke-width:0"/>
<circle fill="#006363" stroke="#006363" stroke-width="0" cx="591.721" cy="322.78" r="21.3333"/>
<circle fill="#006363" stroke="#006363" stroke-width="0" cx="564.21" cy="110.147" r="21.3333"/>
<polygon points="1256,469.333 256,1469.33 -744,469.333" style="fill:#000000; stroke:#000000;stroke-width:0"/>
<polygon points="-744,42.6667 256,-957.333 1256,42.6667" style="fill:#000000; stroke:#000000;stroke-width:0"/>
<circle fill="#a64b00" stroke="#a64b00" stroke-width="0" cx="-131.649" cy="129.834" r="21.3333"/>
<circle fill="#a64b00" stroke="#a64b00" stroke-width="0" cx="47.7154" cy="250.081" r="21.3333"/>
<circle fill="#a64b00" stroke="#a64b00" stroke-width="0" cx="591.721" cy="322.78" r="21.3333"/>
<circle fill="#a64b00" stroke="#a64b00" stroke-width="0" cx="564.21" cy="110.147" r="21.3333"/>
<circle fill="#a64b00" stroke="#a64b00" stroke-width="0" cx="426.853" cy="182.698" r="21.3333"/>
</svg>
