<?xml version="1.0" encoding="utf-8"?> <!-- Generator: Adobe Illustrator 13.0.0, SVG Export Plug-In . SVG Version: 6.00 Build 14948)  --> <svg version="1.2" baseProfile="tiny" id="Layer_1" xmlns="http://www.w3.org/2000/svg" xmlns:xlink="http://www.w3.org/1999/xlink" x="0px" y="0px" width="512px" height="512px" viewBox="0 0 512 512" xml:space="preserve">
<polygon points="0,0 512,0 512,512 0,512" style="fill:#ffffff; stroke:#000000;stroke-width:0"/>
<polygon points="-102.954,120.45 -107.407,162.884 -327.259,139.81 -322.806,97.3763" style="fill:#006363; stroke:#000000;stroke-width:0"/>
<circle fill="#006363" stroke="#006363" stroke-width="0" cx="-105.181" cy="141.667" r="21.3333"/>
<circle fill="#006363" stroke="#006363" stroke-width="0" cx="-325.032" cy="118.593" r="21.3333"/>
<polygon points="751.865,394.001 715.33,371.964 824.683,190.668 861.218,212.705" style="fill:#006363; stroke:#000000;stroke-width:0"/>
<circle fill="#006363" stroke="#006363" stroke-width="0" cx="733.598" cy="382.983" r="21.3333"/>
<circle fill="#006363" stroke="#006363" stroke-width="0" cx="842.951" cy="201.687" r="21.3333"/>
<polygon points="1256,469.333 256,1469.33 -744,469.333" style="fill:#000000; stroke:#000000;stroke-width:0"/>
<polygon points="-744,42.6667 256,-957.333 1256,42.6667" style="fill:#000000; stroke:#000000;stroke-width:0"/>
<circle fill="#a64b00" stroke="#a64b00" stroke-width="0" cx="-105.181" cy="141.667" r="21.3333"/>
<circle fill="#a64b00" stroke="#a64b00" stroke-width="0" cx="-325.032" cy="118.593" r="21.3333"/>
<circle fill="#a64b00" stroke="#a64b00" stroke-width="0" cx="733.598" cy="382.983" r="21.3333"/>
<circle fill="#a64b00" stroke="#a64b00" stroke-width="0" cx="842.951" cy="201.687" r="21.3333"/>
<circle fill="#a64b00" stroke="#a64b00" stroke-width="0" cx="33.1351" cy="144.536" r="21.3333"/>
</svg>
