<?xml version="1.0" encoding="utf-8"?> <!-- Generator: Adobe Illustrator 13.0.0, SVG Export Plug-In . SVG Version: 6.00 Build 14948)  --> <svg version="1.2" baseProfile="tiny" id="Layer_1" xmlns="http://www.w3.org/2000/svg" xmlns:xlink="http://www.w3.org/1999/xlink" x="0px" y="0px" width="512px" height="512px" viewBox="0 0 512 512" xml:space="preserve">
<polygon points="0,0 512,0 512,512 0,512" style="fill:#ffffff; stroke:#000000;stroke-width:0"/>
<polygon points="-118.667,137.034 -97.239,100.138 90.873,209.391 69.4446,246.287" style="fill:#006363; stroke:#000000;stroke-width:0"/>
<circle fill="#006363" stroke="#006363" stroke-width="0" cx="-107.953" cy="118.586" r="21.3333"/>
<circle fill="#006363" stroke="#006363" stroke-width="0" cx="80.1588" cy="227.839" r="21.3333"/>
<polygon points="446.816,231.306 435.445,190.183 643.45,132.665 654.821,173.789" style="fill:#006363; stroke:#000000;stroke-width:0"/>
<circle fill="#006363" stroke="#006363" stroke-width="0" cx="441.13" cy="210.744" r="21.3333"/>
<circle fill="#006363" stroke="#006363" stroke-width="0" cx="649.135" cy="153.227" r="21.3333"/>
<polygon points="1256,469.333 256,1469.33 -744,469.333" style="fill:#000000; stroke:#000000;stroke-width:0"/>
<polygon points="-744,42.6667 256,-957.333 1256,42.6667" style="fill:#000000; stroke:#000000;stroke-width:0"/>
<circle fill="#a64b00" stroke="#a64b00" stroke-width="0" cx="-107.953" cy="118.586" r="21.3333"/>
<circle fill="#a64b00" stroke="#a64b00" stroke-width="0" cx="80.1588" cy="227.839" r="21.3333"/>
<circle fill="#a64b00" stroke="#a64b00" stroke-width="0" cx="441.13" cy="210.744" r="21.3333"/>
<circle fill="#a64b00" stroke="#a64b00" stroke-width="0" cx="649.135" cy="153.227" r="21.3333"/>
<circle fill="#a64b00" stroke="#a64b00" stroke-width="0" cx="238.181" cy="88.2552" r="21.3333"/>
</svg>
