<?xml version="1.0" encoding="utf-8"?> <!-- Generator: Adobe Illustrator 13.0.0, SVG Export Plug-In . SVG Version: 6.00 Build 14948)  --> <svg version="1.2" baseProfile="tiny" id="Layer_1" xmlns="http://www.w3.org/2000/svg" xmlns:xlink="http://www.w3.org/1999/xlink" x="0px" y="0px" width="512px" height="512px" viewBox="0 0 512 512" xml:space="preserve">
<polygon points="0,0 512,0 512,512 0,512" style="fill:#ffffff; stroke:#000000;stroke-width:0"/>
<polygon points="20.6107,215.041 63.2772,214.921 63.8851,431.359 21.2186,431.479" style="fill:#006363; stroke:#000000;stroke-width:0"/>
<circle fill="#006363" stroke="#006363" stroke-width="0" cx="41.9439" cy="214.981" r="21.3333"/>
<circle fill="#006363" stroke="#006363" stroke-width="0" cx="42.5518" cy="431.419" r="21.3333"/>
<polygon points="450.326,77.9739 492.988,77.3281 496.191,288.943 453.529,289.589" style="fill:#006363; stroke:#000000;stroke-width:0"/>
<circle fill="#006363" stroke="#006363" stroke-width="0" cx="471.657" cy="77.651" r="21.3333"/>
<circle fill="#006363" stroke="#006363" stroke-width="0" cx="474.86" cy="289.266" r="21.3333"/>
<polygon points="1256,469.333 256,1469.33 -744,469.333" style="fill:#000000; stroke:#000000;stroke-width:0"/>
<polygon points="-744,42.6667 256,-957.333 1256,42.6667" style="fill:#000000; stroke:#000000;stroke-width:0"/>
<circle fill="#a64b00" stroke="#a64b00" stroke-width="0" cx="41.9439" cy="214.981" r="21.3333"/>
<circle fill="#a64b00" stroke="#a64b00" stroke-width="0" cx="42.5518" cy="431.419" r="21.3333"/>
<circle fill="#a64b00" stroke="#a64b00" stroke-width="0" cx="471.657" cy="77.651" r="21.3333"/>
<circle fill="#a64b00" stroke="#a64b00" stroke-width="0" cx="474.86" cy="289.266" r="21.3333"/>
<circle fill="#a64b00" stroke="#a64b00" stroke-width="0" cx="120.085" cy="256" r="21.3333"/>
</svg>
