<?xml version="1.0" encoding="utf-8"?> <!-- Generator: Adobe Illustrator 13.0.0, SVG Export Plug-In . SVG Version: 6.00 Build 14948)  --> <svg version="1.2" baseProfile="tiny" id="Layer_1" xmlns="http://www.w3.org/2000/svg" xmlns:xlink="http://www.w3.org/1999/xlink" x="0px" y="0px" width="512px" height="512px" viewBox="0 0 512 512" xml:space="preserve">
<polygon points="0,0 512,0 512,512 0,512" style="fill:#ffffff; stroke:#000000;stroke-width:0"/>
<polygon points="-412.062,177.199 -418.579,135.033 -206.712,102.287 -200.195,144.453" style="fill:#006363; stroke:#000000;stroke-width:0"/>
<circle fill="#006363" stroke="#006363" stroke-width="0" cx="-415.321" cy="156.116" r="21.3333"/>
<circle fill="#006363" stroke="#006363" stroke-width="0" cx="-203.453" cy="123.37" r="21.3333"/>
<polygon points="894.099,220.146 936.361,226.014 908.053,429.915 865.791,424.048" style="fill:#006363; stroke:#000000;stroke-width:0"/>
<circle fill="#006363" stroke="#006363" stroke-width="0" cx="915.23" cy="223.08" r="21.3333"/>
<circle fill="#006363" stroke="#006363" stroke-width="0" cx="886.922" cy="426.981" r="21.3333"/>
<polygon points="1256,469.333 256,1469.33 -744,469.333" style="fill:#000000; stroke:#000000;stroke-width:0"/>
<polygon points="-744,42.6667 256,-957.333 1256,42.6667" style="fill:#000000; stroke:#000000;stroke-width:0"/>
<circle fill="#a64b00" stroke="#a64b00" stroke-width="0" cx="-415.321" cy="156.116" r="21.3333"/>
<circle fill="#a64b00" stroke="#a64b00" stroke-width="0" cx="-203.453" cy="123.37" r="21.3333"/>
<circle fill="#a64b00" stroke="#a64b00" stroke-width="0" cx="915.23" cy="223.08" r="21.3333"/>
<circle fill="#a64b00" stroke="#a64b00" stroke-width="0" cx="886.922" cy="426.981" r="21.3333"/>
<circle fill="#a64b00" stroke="#a64b00" stroke-width="0" cx="104.883" cy="180.755" r="21.3333"/>
</svg>
