<?xml version="1.0" encoding="utf-8"?> <!-- Generator: Adobe Illustrator 13.0.0, SVG Export Plug-In . SVG Version: 6.00 Build 14948)  --> <svg version="1.2" baseProfile="tiny" id="Layer_1" xmlns="http://www.w3.org/2000/svg" xmlns:xlink="http://www.w3.org/1999/xlink" x="0px" y="0px" width="512px" height="512px" viewBox="0 0 512 512" xml:space="preserve">
<polygon points="0,0 512,0 512,512 0,512" style="fill:#ffffff; stroke:#000000;stroke-width:0"/>
<polygon points="-97.1566,87.6932 -105.78,129.479 -317.841,85.7184 -309.218,43.9321" style="fill:#006363; stroke:#000000;stroke-width:0"/>
<circle fill="#006363" stroke="#006363" stroke-width="0" cx="-101.468" cy="108.586" r="21.3333"/>
<circle fill="#006363" stroke="#006363" stroke-width="0" cx="-313.53" cy="64.8252" r="21.3333"/>
<polygon points="750.46,368.234 712.49,348.774 807.607,163.186 845.577,182.647" style="fill:#006363; stroke:#000000;stroke-width:0"/>
<circle fill="#006363" stroke="#006363" stroke-width="0" cx="731.475" cy="358.504" r="21.3333"/>
<circle fill="#006363" stroke="#006363" stroke-width="0" cx="826.592" cy="172.916" r="21.3333"/>
<polygon points="1256,469.333 256,1469.33 -744,469.333" style="fill:#000000; stroke:#000000;stroke-width:0"/>
<polygon points="-744,42.6667 256,-957.333 1256,42.6667" style="fill:#000000; stroke:#000000;stroke-width:0"/>
<circle fill="#a64b00" stroke="#a64b00" stroke-width="0" cx="-101.468" cy="108.586" r="21.3333"/>
<circle fill="#a64b00" stroke="#a64b00" stroke-width="0" cx="-313.53" cy="64.8252" r="21.3333"/>
<circle fill="#a64b00" stroke="#a64b00" stroke-width="0" cx="731.475" cy="358.504" r="21.3333"/>
<circle fill="#a64b00" stroke="#a64b00" stroke-width="0" cx="826.592" cy="172.916" r="21.3333"/>
<circle fill="#a64b00" stroke="#a64b00" stroke-width="0" cx="50.4349" cy="421.212" r="21.3333"/>
</svg>
