<?xml version="1.0" encoding="utf-8"?> <!-- Generator: Adobe Illustrator 13.0.0, SVG Export Plug-In . SVG Version: 6.00 Build 14948)  --> <svg version="1.2" baseProfile="tiny" id="Layer_1" xmlns="http://www.w3.org/2000/svg" xmlns:xlink="http://www.w3.org/1999/xlink" x="0px" y="0px" width="512px" height="512px" viewBox="0 0 512 512" xml:space="preserve">
<polygon points="0,0 512,0 512,512 0,512" style="fill:#ffffff; stroke:#000000;stroke-width:0"/>
<polygon points="-135.745,84.5917 -132.568,42.0434 83.8156,58.1967 80.6393,100.745" style="fill:#006363; stroke:#000000;stroke-width:0"/>
<circle fill="#006363" stroke="#006363" stroke-width="0" cx="-134.156" cy="63.3175" r="21.3333"/>
<circle fill="#006363" stroke="#006363" stroke-width="0" cx="82.2274" cy="79.4708" r="21.3333"/>
<polygon points="506.205,291.89 473.416,264.588 610.852,99.5316 643.64,126.833" style="fill:#006363; stroke:#000000;stroke-width:0"/>
<circle fill="#006363" stroke="#006363" stroke-width="0" cx="489.811" cy="278.239" r="21.3333"/>
<circle fill="#006363" stroke="#006363" stroke-width="0" cx="627.246" cy="113.182" r="21.3333"/>
<polygon points="1256,469.333 256,1469.33 -744,469.333" style="fill:#000000; stroke:#000000;stroke-width:0"/>
<polygon points="-744,42.6667 256,-957.333 1256,42.6667" style="fill:#000000; stroke:#000000;stroke-width:0"/>
<circle fill="#a64b00" stroke="#a64b00" stroke-width="0" cx="-134.156" cy="63.3175" r="21.3333"/>
<circle fill="#a64b00" stroke="#a64b00" stroke-width="0" cx="82.2274" cy="79.4708" r="21.3333"/>
<circle fill="#a64b00" stroke="#a64b00" stroke-width="0" cx="489.811" cy="278.239" r="21.3333"/>
<circle fill="#a64b00" stroke="#a64b00" stroke-width="0" cx="627.246" cy="113.182" r="21.3333"/>
<circle fill="#a64b00" stroke="#a64b00" stroke-width="0" cx="463.242" cy="134.996" r="21.3333"/>
</svg>
