<?xml version="1.0" encoding="utf-8"?> <!-- Generator: Adobe Illustrator 13.0.0, SVG Export Plug-In . SVG Version: 6.00 Build 14948)  --> <svg version="1.2" baseProfile="tiny" id="Layer_1" xmlns="http://www.w3.org/2000/svg" xmlns:xlink="http://www.w3.org/1999/xlink" x="0px" y="0px" width="512px" height="512px" viewBox="0 0 512 512" xml:space="preserve">
<polygon points="0,0 512,0 512,512 0,512" style="fill:#ffffff; stroke:#000000;stroke-width:0"/>
<polygon points="15.0914,148.332 57.7452,147.284 62.9131,357.534 20.2593,358.583" style="fill:#006363; stroke:#000000;stroke-width:0"/>
<circle fill="#006363" stroke="#006363" stroke-width="0" cx="36.4183" cy="147.808" r="21.3333"/>
<circle fill="#006363" stroke="#006363" stroke-width="0" cx="41.5862" cy="358.059" r="21.3333"/>
<polygon points="451.435,134.628 494.075,133.123 501.659,347.969 459.019,349.474" style="fill:#006363; stroke:#000000;stroke-width:0"/>
<circle fill="#006363" stroke="#006363" stroke-width="0" cx="472.755" cy="133.875" r="21.3333"/>
<circle fill="#006363" stroke="#006363" stroke-width="0" cx="480.339" cy="348.722" r="21.3333"/>
<polygon points="1256,469.333 256,1469.33 -744,469.333" style="fill:#000000; stroke:#000000;stroke-width:0"/>
<polygon points="-744,42.6667 256,-957.333 1256,42.6667" style="fill:#000000; stroke:#000000;stroke-width:0"/>
<circle fill="#a64b00" stroke="#a64b00" stroke-width="0" cx="36.4183" cy="147.808" r="21.3333"/>
<circle fill="#a64b00" stroke="#a64b00" stroke-width="0" cx="41.5862" cy="358.059" r="21.3333"/>
<circle fill="#a64b00" stroke="#a64b00" stroke-width="0" cx="472.755" cy="133.875" r="21.3333"/>
<circle fill="#a64b00" stroke="#a64b00" stroke-width="0" cx="480.339" cy="348.722" r="21.3333"/>
<circle fill="#a64b00" stroke="#a64b00" stroke-width="0" cx="442.172" cy="256" r="21.3333"/>
</svg>
