<?xml version="1.0" encoding="utf-8"?> <!-- Generator: Adobe Illustrator 13.0.0, SVG Export Plug-In . SVG Version: 6.00 Build 14948)  --> <svg version="1.2" baseProfile="tiny" id="Layer_1" xmlns="http://www.w3.org/2000/svg" xmlns:xlink="http://www.w3.org/1999/xlink" x="0px" y="0px" width="512px" height="512px" viewBox="0 0 512 512" xml:space="preserve">
<polygon points="0,0 512,0 512,512 0,512" style="fill:#ffffff; stroke:#000000;stroke-width:0"/>
<polygon points="-15.6477,143.62 26.5581,137.366 57.6197,346.97 15.4139,353.224" style="fill:#006363; stroke:#000000;stroke-width:0"/>
<circle fill="#006363" stroke="#006363" stroke-width="0" cx="5.45519" cy="140.493" r="21.3333"/>
<circle fill="#006363" stroke="#006363" stroke-width="0" cx="36.5168" cy="350.097" r="21.3333"/>
<polygon points="451.574,166.711 492.739,155.489 549.301,362.98 508.136,374.201" style="fill:#006363; stroke:#000000;stroke-width:0"/>
<circle fill="#006363" stroke="#006363" stroke-width="0" cx="472.157" cy="161.1" r="21.3333"/>
<circle fill="#006363" stroke="#006363" stroke-width="0" cx="528.718" cy="368.59" r="21.3333"/>
<polygon points="1256,469.333 256,1469.33 -744,469.333" style="fill:#000000; stroke:#000000;stroke-width:0"/>
<polygon points="-744,42.6667 256,-957.333 1256,42.6667" style="fill:#000000; stroke:#000000;stroke-width:0"/>
<circle fill="#a64b00" stroke="#a64b00" stroke-width="0" cx="5.45519" cy="140.493" r="21.3333"/>
<circle fill="#a64b00" stroke="#a64b00" stroke-width="0" cx="36.5168" cy="350.097" r="21.3333"/>
<circle fill="#a64b00" stroke="#a64b00" stroke-width="0" cx="472.157" cy="161.1" r="21.3333"/>
<circle fill="#a64b00" stroke="#a64b00" stroke-width="0" cx="528.718" cy="368.59" r="21.3333"/>
<circle fill="#a64b00" stroke="#a64b00" stroke-width="0" cx="408.642" cy="266.059" r="21.3333"/>
</svg>
