<?xml version="1.0" encoding="utf-8"?> <!-- Generator: Adobe Illustrator 13.0.0, SVG Export Plug-In . SVG Version: 6.00 Build 14948)  --> <svg version="1.2" baseProfile="tiny" id="Layer_1" xmlns="http://www.w3.org/2000/svg" xmlns:xlink="http://www.w3.org/1999/xlink" x="0px" y="0px" width="512px" height="512px" viewBox="0 0 512 512" xml:space="preserve">
<polygon points="0,0 512,0 512,512 0,512" style="fill:#ffffff; stroke:#000000;stroke-width:0"/>
<polygon points="-233.203,233.937 -244.254,192.727 -32.2651,135.88 -21.2141,177.091" style="fill:#006363; stroke:#000000;stroke-width:0"/>
<circle fill="#006363" stroke="#006363" stroke-width="0" cx="-238.728" cy="213.332" r="21.3333"/>
<circle fill="#006363" stroke="#006363" stroke-width="0" cx="-26.7396" cy="156.485" r="21.3333"/>
<polygon points="582.131,364.633 578.505,322.121 794.306,303.718 797.932,346.23" style="fill:#006363; stroke:#000000;stroke-width:0"/>
<circle fill="#006363" stroke="#006363" stroke-width="0" cx="580.318" cy="343.377" r="21.3333"/>
<circle fill="#006363" stroke="#006363" stroke-width="0" cx="796.119" cy="324.974" r="21.3333"/>
<polygon points="1256,469.333 256,1469.33 -744,469.333" style="fill:#000000; stroke:#000000;stroke-width:0"/>
<polygon points="-744,42.6667 256,-957.333 1256,42.6667" style="fill:#000000; stroke:#000000;stroke-width:0"/>
<circle fill="#a64b00" stroke="#a64b00" stroke-width="0" cx="-238.728" cy="213.332" r="21.3333"/>
<circle fill="#a64b00" stroke="#a64b00" stroke-width="0" cx="-26.7396" cy="156.485" r="21.3333"/>
<circle fill="#a64b00" stroke="#a64b00" stroke-width="0" cx="580.318" cy="343.377" r="21.3333"/>
<circle fill="#a64b00" stroke="#a64b00" stroke-width="0" cx="796.119" cy="324.974" r="21.3333"/>
<circle fill="#a64b00" stroke="#a64b00" stroke-width="0" cx="220.449" cy="106.374" r="21.3333"/>
</svg>
