<?xml version="1.0" encoding="utf-8"?> <!-- Generator: Adobe Illustrator 13.0.0, SVG Export Plug-In . SVG Version: 6.00 Build 14948)  --> <svg version="1.2" baseProfile="tiny" id="Layer_1" xmlns="http://www.w3.org/2000/svg" xmlns:xlink="http://www.w3.org/1999/xlink" x="0px" y="0px" width="512px" height="512px" viewBox="0 0 512 512" xml:space="preserve">
<polygon points="0,0 512,0 512,512 0,512" style="fill:#ffffff; stroke:#000000;stroke-width:0"/>
<polygon points="-411.16,112.814 -408.431,70.235 -191.143,84.1625 -193.872,126.742" style="fill:#006363; stroke:#000000;stroke-width:0"/>
<circle fill="#006363" stroke="#006363" stroke-width="0" cx="-409.796" cy="91.5247" r="21.3333"/>
<circle fill="#006363" stroke="#006363" stroke-width="0" cx="-192.508" cy="105.452" r="21.3333"/>
<polygon points="860.855,228.859 903.29,224.416 924.727,429.139 882.293,433.582" style="fill:#006363; stroke:#000000;stroke-width:0"/>
<circle fill="#006363" stroke="#006363" stroke-width="0" cx="882.072" cy="226.638" r="21.3333"/>
<circle fill="#006363" stroke="#006363" stroke-width="0" cx="903.51" cy="431.361" r="21.3333"/>
<polygon points="1256,469.333 256,1469.33 -744,469.333" style="fill:#000000; stroke:#000000;stroke-width:0"/>
<polygon points="-744,42.6667 256,-957.333 1256,42.6667" style="fill:#000000; stroke:#000000;stroke-width:0"/>
<circle fill="#a64b00" stroke="#a64b00" stroke-width="0" cx="-409.796" cy="91.5247" r="21.3333"/>
<circle fill="#a64b00" stroke="#a64b00" stroke-width="0" cx="-192.508" cy="105.452" r="21.3333"/>
<circle fill="#a64b00" stroke="#a64b00" stroke-width="0" cx="882.072" cy="226.638" r="21.3333"/>
<circle fill="#a64b00" stroke="#a64b00" stroke-width="0" cx="903.51" cy="431.361" r="21.3333"/>
<circle fill="#a64b00" stroke="#a64b00" stroke-width="0" cx="-162.531" cy="144.536" r="21.3333"/>
</svg>
