<?xml version="1.0" encoding="utf-8"?> <!-- Generator: Adobe Illustrator 13.0.0, SVG Export Plug-In . SVG Version: 6.00 Build 14948)  --> <svg version="1.2" baseProfile="tiny" id="Layer_1" xmlns="http://www.w3.org/2000/svg" xmlns:xlink="http://www.w3.org/1999/xlink" x="0px" y="0px" width="512px" height="512px" viewBox="0 0 512 512" xml:space="preserve">
<polygon points="0,0 512,0 512,512 0,512" style="fill:#ffffff; stroke:#000000;stroke-width:0"/>
<polygon points="-378.779,320.411 -408.98,290.272 -259.768,140.748 -229.567,170.886" style="fill:#006363; stroke:#000000;stroke-width:0"/>
<circle fill="#006363" stroke="#006363" stroke-width="0" cx="-393.879" cy="305.342" r="21.3333"/>
<circle fill="#006363" stroke="#006363" stroke-width="0" cx="-244.668" cy="155.817" r="21.3333"/>
<polygon points="937.142,211.137 975.984,228.794 884.767,429.461 845.925,411.804" style="fill:#006363; stroke:#000000;stroke-width:0"/>
<circle fill="#006363" stroke="#006363" stroke-width="0" cx="956.563" cy="219.965" r="21.3333"/>
<circle fill="#006363" stroke="#006363" stroke-width="0" cx="865.346" cy="420.633" r="21.3333"/>
<polygon points="1256,469.333 256,1469.33 -744,469.333" style="fill:#000000; stroke:#000000;stroke-width:0"/>
<polygon points="-744,42.6667 256,-957.333 1256,42.6667" style="fill:#000000; stroke:#000000;stroke-width:0"/>
<circle fill="#a64b00" stroke="#a64b00" stroke-width="0" cx="-393.879" cy="305.342" r="21.3333"/>
<circle fill="#a64b00" stroke="#a64b00" stroke-width="0" cx="-244.668" cy="155.817" r="21.3333"/>
<circle fill="#a64b00" stroke="#a64b00" stroke-width="0" cx="956.563" cy="219.965" r="21.3333"/>
<circle fill="#a64b00" stroke="#a64b00" stroke-width="0" cx="865.346" cy="420.633" r="21.3333"/>
<circle fill="#a64b00" stroke="#a64b00" stroke-width="0" cx="437.216" cy="237.497" r="21.3333"/>
</svg>
