<?xml version="1.0" encoding="utf-8"?> <!-- Generator: Adobe Illustrator 13.0.0, SVG Export Plug-In . SVG Version: 6.00 Build 14948)  --> <svg version="1.2" baseProfile="tiny" id="Layer_1" xmlns="http://www.w3.org/2000/svg" xmlns:xlink="http://www.w3.org/1999/xlink" x="0px" y="0px" width="512px" height="512px" viewBox="0 0 512 512" xml:space="preserve">
<polygon points="0,0 512,0 512,512 0,512" style="fill:#ffffff; stroke:#000000;stroke-width:0"/>
<polygon points="-130.39,187.415 -95.2362,163.235 28.6179,343.303 -6.53603,367.483" style="fill:#006363; stroke:#000000;stroke-width:0"/>
<circle fill="#006363" stroke="#006363" stroke-width="0" cx="-112.813" cy="175.325" r="21.3333"/>
<circle fill="#006363" stroke="#006363" stroke-width="0" cx="11.0409" cy="355.393" r="21.3333"/>
<polygon points="666.38,306.026 630.869,329.677 511.22,150.035 546.731,126.383" style="fill:#006363; stroke:#000000;stroke-width:0"/>
<circle fill="#006363" stroke="#006363" stroke-width="0" cx="648.625" cy="317.851" r="21.3333"/>
<circle fill="#006363" stroke="#006363" stroke-width="0" cx="528.975" cy="138.209" r="21.3333"/>
<polygon points="1256,469.333 256,1469.33 -744,469.333" style="fill:#000000; stroke:#000000;stroke-width:0"/>
<polygon points="-744,42.6667 256,-957.333 1256,42.6667" style="fill:#000000; stroke:#000000;stroke-width:0"/>
<circle fill="#a64b00" stroke="#a64b00" stroke-width="0" cx="-112.813" cy="175.325" r="21.3333"/>
<circle fill="#a64b00" stroke="#a64b00" stroke-width="0" cx="11.0409" cy="355.393" r="21.3333"/>
<circle fill="#a64b00" stroke="#a64b00" stroke-width="0" cx="648.625" cy="317.851" r="21.3333"/>
<circle fill="#a64b00" stroke="#a64b00" stroke-width="0" cx="528.975" cy="138.209" r="21.3333"/>
<circle fill="#a64b00" stroke="#a64b00" stroke-width="0" cx="406.57" cy="259.023" r="21.3333"/>
</svg>
