<?xml version="1.0" encoding="utf-8"?> <!-- Generator: Adobe Illustrator 13.0.0, SVG Export Plug-In . SVG Version: 6.00 Build 14948)  --> <svg version="1.2" baseProfile="tiny" id="Layer_1" xmlns="http://www.w3.org/2000/svg" xmlns:xlink="http://www.w3.org/1999/xlink" x="0px" y="0px" width="512px" height="512px" viewBox="0 0 512 512" xml:space="preserve">
<polygon points="0,0 512,0 512,512 0,512" style="fill:#ffffff; stroke:#000000;stroke-width:0"/>
<polygon points="-143.292,206.362 -103.37,191.306 -26.6866,394.634 -66.6085,409.69" style="fill:#006363; stroke:#000000;stroke-width:0"/>
<circle fill="#006363" stroke="#006363" stroke-width="0" cx="-123.331" cy="198.834" r="21.3333"/>
<circle fill="#006363" stroke="#006363" stroke-width="0" cx="-46.6476" cy="402.162" r="21.3333"/>
<polygon points="692.924,181.61 722.653,212.214 567.524,362.905 537.795,332.301" style="fill:#006363; stroke:#000000;stroke-width:0"/>
<circle fill="#006363" stroke="#006363" stroke-width="0" cx="707.789" cy="196.912" r="21.3333"/>
<circle fill="#006363" stroke="#006363" stroke-width="0" cx="552.66" cy="347.603" r="21.3333"/>
<polygon points="1256,469.333 256,1469.33 -744,469.333" style="fill:#000000; stroke:#000000;stroke-width:0"/>
<polygon points="-744,42.6667 256,-957.333 1256,42.6667" style="fill:#000000; stroke:#000000;stroke-width:0"/>
<circle fill="#a64b00" stroke="#a64b00" stroke-width="0" cx="-123.331" cy="198.834" r="21.3333"/>
<circle fill="#a64b00" stroke="#a64b00" stroke-width="0" cx="-46.6476" cy="402.162" r="21.3333"/>
<circle fill="#a64b00" stroke="#a64b00" stroke-width="0" cx="707.789" cy="196.912" r="21.3333"/>
<circle fill="#a64b00" stroke="#a64b00" stroke-width="0" cx="552.66" cy="347.603" r="21.3333"/>
<circle fill="#a64b00" stroke="#a64b00" stroke-width="0" cx="329.02" cy="182.698" r="21.3333"/>
</svg>
