<?xml version="1.0" encoding="utf-8"?> <!-- Generator: Adobe Illustrator 13.0.0, SVG Export Plug-In . SVG Version: 6.00 Build 14948)  --> <svg version="1.2" baseProfile="tiny" id="Layer_1" xmlns="http://www.w3.org/2000/svg" xmlns:xlink="http://www.w3.org/1999/xlink" x="0px" y="0px" width="512px" height="512px" viewBox="0 0 512 512" xml:space="preserve">
<polygon points="0,0 512,0 512,512 0,512" style="fill:#ffffff; stroke:#000000;stroke-width:0"/>
<polygon points="15.5842,153.073 58.2402,152.116 63.0484,366.393 20.3925,367.35" style="fill:#006363; stroke:#000000;stroke-width:0"/>
<circle fill="#006363" stroke="#006363" stroke-width="0" cx="36.9122" cy="152.595" r="21.3333"/>
<circle fill="#006363" stroke="#006363" stroke-width="0" cx="41.7204" cy="366.872" r="21.3333"/>
<polygon points="451.359,130.076 494.002,128.654 501.098,341.326 458.455,342.749" style="fill:#006363; stroke:#000000;stroke-width:0"/>
<circle fill="#006363" stroke="#006363" stroke-width="0" cx="472.681" cy="129.365" r="21.3333"/>
<circle fill="#006363" stroke="#006363" stroke-width="0" cx="479.777" cy="342.037" r="21.3333"/>
<polygon points="1256,469.333 256,1469.33 -744,469.333" style="fill:#000000; stroke:#000000;stroke-width:0"/>
<polygon points="-744,42.6667 256,-957.333 1256,42.6667" style="fill:#000000; stroke:#000000;stroke-width:0"/>
<circle fill="#a64b00" stroke="#a64b00" stroke-width="0" cx="36.9122" cy="152.595" r="21.3333"/>
<circle fill="#a64b00" stroke="#a64b00" stroke-width="0" cx="41.7204" cy="366.872" r="21.3333"/>
<circle fill="#a64b00" stroke="#a64b00" stroke-width="0" cx="472.681" cy="129.365" r="21.3333"/>
<circle fill="#a64b00" stroke="#a64b00" stroke-width="0" cx="479.777" cy="342.037" r="21.3333"/>
<circle fill="#a64b00" stroke="#a64b00" stroke-width="0" cx="411.003" cy="256" r="21.3333"/>
</svg>
