<?xml version="1.0" encoding="utf-8"?> <!-- Generator: Adobe Illustrator 13.0.0, SVG Export Plug-In . SVG Version: 6.00 Build 14948)  --> <svg version="1.2" baseProfile="tiny" id="Layer_1" xmlns="http://www.w3.org/2000/svg" xmlns:xlink="http://www.w3.org/1999/xlink" x="0px" y="0px" width="512px" height="512px" viewBox="0 0 512 512" xml:space="preserve">
<polygon points="0,0 512,0 512,512 0,512" style="fill:#ffffff; stroke:#000000;stroke-width:0"/>
<polygon points="-0.98135,98.6492 41.5174,94.8679 59.8091,300.451 17.3103,304.232" style="fill:#006363; stroke:#000000;stroke-width:0"/>
<circle fill="#006363" stroke="#006363" stroke-width="0" cx="20.268" cy="96.7585" r="21.3333"/>
<circle fill="#006363" stroke="#006363" stroke-width="0" cx="38.5597" cy="302.342" r="21.3333"/>
<polygon points="457.402,228.849 499.821,224.258 522.842,436.987 480.423,441.577" style="fill:#006363; stroke:#000000;stroke-width:0"/>
<circle fill="#006363" stroke="#006363" stroke-width="0" cx="478.611" cy="226.553" r="21.3333"/>
<circle fill="#006363" stroke="#006363" stroke-width="0" cx="501.632" cy="439.282" r="21.3333"/>
<polygon points="1256,469.333 256,1469.33 -744,469.333" style="fill:#000000; stroke:#000000;stroke-width:0"/>
<polygon points="-744,42.6667 256,-957.333 1256,42.6667" style="fill:#000000; stroke:#000000;stroke-width:0"/>
<circle fill="#a64b00" stroke="#a64b00" stroke-width="0" cx="20.268" cy="96.7585" r="21.3333"/>
<circle fill="#a64b00" stroke="#a64b00" stroke-width="0" cx="38.5597" cy="302.342" r="21.3333"/>
<circle fill="#a64b00" stroke="#a64b00" stroke-width="0" cx="478.611" cy="226.553" r="21.3333"/>
<circle fill="#a64b00" stroke="#a64b00" stroke-width="0" cx="501.632" cy="439.282" r="21.3333"/>
<circle fill="#a64b00" stroke="#a64b00" stroke-width="0" cx="338.236" cy="378.946" r="21.3333"/>
</svg>
