<?xml version="1.0" encoding="utf-8"?> <!-- Generator: Adobe Illustrator 13.0.0, SVG Export Plug-In . SVG Version: 6.00 Build 14948)  --> <svg version="1.2" baseProfile="tiny" id="Layer_1" xmlns="http://www.w3.org/2000/svg" xmlns:xlink="http://www.w3.org/1999/xlink" x="0px" y="0px" width="512px" height="512px" viewBox="0 0 512 512" xml:space="preserve">
<polygon points="0,0 512,0 512,512 0,512" style="fill:#ffffff; stroke:#000000;stroke-width:0"/>
<polygon points="-161.252,390.334 -196.27,365.957 -73.2608,189.248 -38.2431,213.625" style="fill:#006363; stroke:#000000;stroke-width:0"/>
<circle fill="#006363" stroke="#006363" stroke-width="0" cx="-178.761" cy="378.145" r="21.3333"/>
<circle fill="#006363" stroke="#006363" stroke-width="0" cx="-55.752" cy="201.437" r="21.3333"/>
<polygon points="574.513,260.458 602.371,228.141 764.323,367.749 736.465,400.065" style="fill:#006363; stroke:#000000;stroke-width:0"/>
<circle fill="#006363" stroke="#006363" stroke-width="0" cx="588.442" cy="244.299" r="21.3333"/>
<circle fill="#006363" stroke="#006363" stroke-width="0" cx="750.394" cy="383.907" r="21.3333"/>
<polygon points="1256,469.333 256,1469.33 -744,469.333" style="fill:#000000; stroke:#000000;stroke-width:0"/>
<polygon points="-744,42.6667 256,-957.333 1256,42.6667" style="fill:#000000; stroke:#000000;stroke-width:0"/>
<circle fill="#a64b00" stroke="#a64b00" stroke-width="0" cx="-178.761" cy="378.145" r="21.3333"/>
<circle fill="#a64b00" stroke="#a64b00" stroke-width="0" cx="-55.752" cy="201.437" r="21.3333"/>
<circle fill="#a64b00" stroke="#a64b00" stroke-width="0" cx="588.442" cy="244.299" r="21.3333"/>
<circle fill="#a64b00" stroke="#a64b00" stroke-width="0" cx="750.394" cy="383.907" r="21.3333"/>
<circle fill="#a64b00" stroke="#a64b00" stroke-width="0" cx="255.645" cy="325.806" r="21.3333"/>
</svg>
