<?xml version="1.0" encoding="utf-8"?> <!-- Generator: Adobe Illustrator 13.0.0, SVG Export Plug-In . SVG Version: 6.00 Build 14948)  --> <svg version="1.2" baseProfile="tiny" id="Layer_1" xmlns="http://www.w3.org/2000/svg" xmlns:xlink="http://www.w3.org/1999/xlink" x="0px" y="0px" width="512px" height="512px" viewBox="0 0 512 512" xml:space="preserve">
<polygon points="0,0 512,0 512,512 0,512" style="fill:#ffffff; stroke:#000000;stroke-width:0"/>
<polygon points="-161.766,342.341 -172.644,383.598 -378.627,329.289 -367.749,288.032" style="fill:#006363; stroke:#000000;stroke-width:0"/>
<circle fill="#006363" stroke="#006363" stroke-width="0" cx="-167.205" cy="362.969" r="21.3333"/>
<circle fill="#006363" stroke="#006363" stroke-width="0" cx="-373.188" cy="308.66" r="21.3333"/>
<polygon points="744.856,327.445 760.168,287.621 965.525,366.575 950.213,406.399" style="fill:#006363; stroke:#000000;stroke-width:0"/>
<circle fill="#006363" stroke="#006363" stroke-width="0" cx="752.512" cy="307.533" r="21.3333"/>
<circle fill="#006363" stroke="#006363" stroke-width="0" cx="957.869" cy="386.487" r="21.3333"/>
<polygon points="1256,469.333 256,1469.33 -744,469.333" style="fill:#000000; stroke:#000000;stroke-width:0"/>
<polygon points="-744,42.6667 256,-957.333 1256,42.6667" style="fill:#000000; stroke:#000000;stroke-width:0"/>
<circle fill="#a64b00" stroke="#a64b00" stroke-width="0" cx="-167.205" cy="362.969" r="21.3333"/>
<circle fill="#a64b00" stroke="#a64b00" stroke-width="0" cx="-373.188" cy="308.66" r="21.3333"/>
<circle fill="#a64b00" stroke="#a64b00" stroke-width="0" cx="752.512" cy="307.533" r="21.3333"/>
<circle fill="#a64b00" stroke="#a64b00" stroke-width="0" cx="957.869" cy="386.487" r="21.3333"/>
<circle fill="#a64b00" stroke="#a64b00" stroke-width="0" cx="-92.1387" cy="411.671" r="21.3333"/>
</svg>
