<?xml version="1.0" encoding="utf-8"?> <!-- Generator: Adobe Illustrator 13.0.0, SVG Export Plug-In . SVG Version: 6.00 Build 14948)  --> <svg version="1.2" baseProfile="tiny" id="Layer_1" xmlns="http://www.w3.org/2000/svg" xmlns:xlink="http://www.w3.org/1999/xlink" x="0px" y="0px" width="512px" height="512px" viewBox="0 0 512 512" xml:space="preserve">
<polygon points="0,0 512,0 512,512 0,512" style="fill:#ffffff; stroke:#000000;stroke-width:0"/>
<polygon points="-163.468,454.288 -195.802,426.45 -59.5021,268.142 -27.1685,295.98" style="fill:#006363; stroke:#000000;stroke-width:0"/>
<circle fill="#006363" stroke="#006363" stroke-width="0" cx="-179.635" cy="440.369" r="21.3333"/>
<circle fill="#006363" stroke="#006363" stroke-width="0" cx="-43.3353" cy="282.061" r="21.3333"/>
<polygon points="587.647,228.247 623.715,205.454 737.169,384.991 701.1,407.783" style="fill:#006363; stroke:#000000;stroke-width:0"/>
<circle fill="#006363" stroke="#006363" stroke-width="0" cx="605.681" cy="216.85" r="21.3333"/>
<circle fill="#006363" stroke="#006363" stroke-width="0" cx="719.135" cy="396.387" r="21.3333"/>
<polygon points="1256,469.333 256,1469.33 -744,469.333" style="fill:#000000; stroke:#000000;stroke-width:0"/>
<polygon points="-744,42.6667 256,-957.333 1256,42.6667" style="fill:#000000; stroke:#000000;stroke-width:0"/>
<circle fill="#a64b00" stroke="#a64b00" stroke-width="0" cx="-179.635" cy="440.369" r="21.3333"/>
<circle fill="#a64b00" stroke="#a64b00" stroke-width="0" cx="-43.3353" cy="282.061" r="21.3333"/>
<circle fill="#a64b00" stroke="#a64b00" stroke-width="0" cx="605.681" cy="216.85" r="21.3333"/>
<circle fill="#a64b00" stroke="#a64b00" stroke-width="0" cx="719.135" cy="396.387" r="21.3333"/>
<circle fill="#a64b00" stroke="#a64b00" stroke-width="0" cx="268.769" cy="115.915" r="21.3333"/>
</svg>
