<?xml version="1.0" encoding="utf-8"?> <!-- Generator: Adobe Illustrator 13.0.0, SVG Export Plug-In . SVG Version: 6.00 Build 14948)  --> <svg version="1.2" baseProfile="tiny" id="Layer_1" xmlns="http://www.w3.org/2000/svg" xmlns:xlink="http://www.w3.org/1999/xlink" x="0px" y="0px" width="512px" height="512px" viewBox="0 0 512 512" xml:space="preserve">
<polygon points="0,0 512,0 512,512 0,512" style="fill:#ffffff; stroke:#000000;stroke-width:0"/>
<polygon points="-404.907,150.638 -410.708,108.368 -193.199,78.5184 -187.398,120.789" style="fill:#006363; stroke:#000000;stroke-width:0"/>
<circle fill="#006363" stroke="#006363" stroke-width="0" cx="-407.808" cy="129.503" r="21.3333"/>
<circle fill="#006363" stroke="#006363" stroke-width="0" cx="-190.298" cy="99.6536" r="21.3333"/>
<polygon points="850.897,232.284 892.886,224.71 929.586,428.156 887.597,435.73" style="fill:#006363; stroke:#000000;stroke-width:0"/>
<circle fill="#006363" stroke="#006363" stroke-width="0" cx="871.892" cy="228.497" r="21.3333"/>
<circle fill="#006363" stroke="#006363" stroke-width="0" cx="908.592" cy="431.943" r="21.3333"/>
<polygon points="1256,469.333 256,1469.33 -744,469.333" style="fill:#000000; stroke:#000000;stroke-width:0"/>
<polygon points="-744,42.6667 256,-957.333 1256,42.6667" style="fill:#000000; stroke:#000000;stroke-width:0"/>
<circle fill="#a64b00" stroke="#a64b00" stroke-width="0" cx="-407.808" cy="129.503" r="21.3333"/>
<circle fill="#a64b00" stroke="#a64b00" stroke-width="0" cx="-190.298" cy="99.6536" r="21.3333"/>
<circle fill="#a64b00" stroke="#a64b00" stroke-width="0" cx="871.892" cy="228.497" r="21.3333"/>
<circle fill="#a64b00" stroke="#a64b00" stroke-width="0" cx="908.592" cy="431.943" r="21.3333"/>
<circle fill="#a64b00" stroke="#a64b00" stroke-width="0" cx="-157.758" cy="220.861" r="21.3333"/>
</svg>
