<?xml version="1.0" encoding="utf-8"?> <!-- Generator: Adobe Illustrator 13.0.0, SVG Export Plug-In . SVG Version: 6.00 Build 14948)  --> <svg version="1.2" baseProfile="tiny" id="Layer_1" xmlns="http://www.w3.org/2000/svg" xmlns:xlink="http://www.w3.org/1999/xlink" x="0px" y="0px" width="512px" height="512px" viewBox="0 0 512 512" xml:space="preserve">
<polygon points="0,0 512,0 512,512 0,512" style="fill:#ffffff; stroke:#000000;stroke-width:0"/>
<polygon points="-27.6627,177.488 14.2108,169.299 56.3909,384.987 14.5174,393.176" style="fill:#006363; stroke:#000000;stroke-width:0"/>
<circle fill="#006363" stroke="#006363" stroke-width="0" cx="-6.72597" cy="173.393" r="21.3333"/>
<circle fill="#006363" stroke="#006363" stroke-width="0" cx="35.4542" cy="389.081" r="21.3333"/>
<polygon points="448.127,120.639 487.471,104.131 570.307,301.56 530.963,318.068" style="fill:#006363; stroke:#000000;stroke-width:0"/>
<circle fill="#006363" stroke="#006363" stroke-width="0" cx="467.799" cy="112.385" r="21.3333"/>
<circle fill="#006363" stroke="#006363" stroke-width="0" cx="550.635" cy="309.814" r="21.3333"/>
<polygon points="1256,469.333 256,1469.33 -744,469.333" style="fill:#000000; stroke:#000000;stroke-width:0"/>
<polygon points="-744,42.6667 256,-957.333 1256,42.6667" style="fill:#000000; stroke:#000000;stroke-width:0"/>
<circle fill="#a64b00" stroke="#a64b00" stroke-width="0" cx="-6.72597" cy="173.393" r="21.3333"/>
<circle fill="#a64b00" stroke="#a64b00" stroke-width="0" cx="35.4542" cy="389.081" r="21.3333"/>
<circle fill="#a64b00" stroke="#a64b00" stroke-width="0" cx="467.799" cy="112.385" r="21.3333"/>
<circle fill="#a64b00" stroke="#a64b00" stroke-width="0" cx="550.635" cy="309.814" r="21.3333"/>
<circle fill="#a64b00" stroke="#a64b00" stroke-width="0" cx="329.127" cy="103.089" r="21.3333"/>
</svg>
