<?xml version="1.0" encoding="utf-8"?> <!-- Generator: Adobe Illustrator 13.0.0, SVG Export Plug-In . SVG Version: 6.00 Build 14948)  --> <svg version="1.2" baseProfile="tiny" id="Layer_1" xmlns="http://www.w3.org/2000/svg" xmlns:xlink="http://www.w3.org/1999/xlink" x="0px" y="0px" width="512px" height="512px" viewBox="0 0 512 512" xml:space="preserve">
<polygon points="0,0 512,0 512,512 0,512" style="fill:#ffffff; stroke:#000000;stroke-width:0"/>
<polygon points="-12.6898,136.119 29.5828,130.334 57.8724,337.044 15.5998,342.83" style="fill:#006363; stroke:#000000;stroke-width:0"/>
<circle fill="#006363" stroke="#006363" stroke-width="0" cx="8.44652" cy="133.226" r="21.3333"/>
<circle fill="#006363" stroke="#006363" stroke-width="0" cx="36.7361" cy="339.937" r="21.3333"/>
<polygon points="452.632,178.405 494.132,168.498 543.986,377.344 502.486,387.251" style="fill:#006363; stroke:#000000;stroke-width:0"/>
<circle fill="#006363" stroke="#006363" stroke-width="0" cx="473.382" cy="173.452" r="21.3333"/>
<circle fill="#006363" stroke="#006363" stroke-width="0" cx="523.236" cy="382.297" r="21.3333"/>
<polygon points="1256,469.333 256,1469.33 -744,469.333" style="fill:#000000; stroke:#000000;stroke-width:0"/>
<polygon points="-744,42.6667 256,-957.333 1256,42.6667" style="fill:#000000; stroke:#000000;stroke-width:0"/>
<circle fill="#a64b00" stroke="#a64b00" stroke-width="0" cx="8.44652" cy="133.226" r="21.3333"/>
<circle fill="#a64b00" stroke="#a64b00" stroke-width="0" cx="36.7361" cy="339.937" r="21.3333"/>
<circle fill="#a64b00" stroke="#a64b00" stroke-width="0" cx="473.382" cy="173.452" r="21.3333"/>
<circle fill="#a64b00" stroke="#a64b00" stroke-width="0" cx="523.236" cy="382.297" r="21.3333"/>
<circle fill="#a64b00" stroke="#a64b00" stroke-width="0" cx="427.919" cy="328.143" r="21.3333"/>
</svg>
