<?xml version="1.0" encoding="utf-8"?> <!-- Generator: Adobe Illustrator 13.0.0, SVG Export Plug-In . SVG Version: 6.00 Build 14948)  --> <svg version="1.2" baseProfile="tiny" id="Layer_1" xmlns="http://www.w3.org/2000/svg" xmlns:xlink="http://www.w3.org/1999/xlink" x="0px" y="0px" width="512px" height="512px" viewBox="0 0 512 512" xml:space="preserve">
<polygon points="0,0 512,0 512,512 0,512" style="fill:#ffffff; stroke:#000000;stroke-width:0"/>
<polygon points="-66.3135,243.103 -67.3897,285.756 -290.446,280.128 -289.37,237.475" style="fill:#006363; stroke:#000000;stroke-width:0"/>
<circle fill="#006363" stroke="#006363" stroke-width="0" cx="-66.8516" cy="264.429" r="21.3333"/>
<circle fill="#006363" stroke="#006363" stroke-width="0" cx="-289.908" cy="258.802" r="21.3333"/>
<polygon points="739.472,284.746 698.007,274.694 747.854,69.06 789.32,79.1117" style="fill:#006363; stroke:#000000;stroke-width:0"/>
<circle fill="#006363" stroke="#006363" stroke-width="0" cx="718.739" cy="279.72" r="21.3333"/>
<circle fill="#006363" stroke="#006363" stroke-width="0" cx="768.587" cy="74.0858" r="21.3333"/>
<polygon points="1256,469.333 256,1469.33 -744,469.333" style="fill:#000000; stroke:#000000;stroke-width:0"/>
<polygon points="-744,42.6667 256,-957.333 1256,42.6667" style="fill:#000000; stroke:#000000;stroke-width:0"/>
<circle fill="#a64b00" stroke="#a64b00" stroke-width="0" cx="-66.8516" cy="264.429" r="21.3333"/>
<circle fill="#a64b00" stroke="#a64b00" stroke-width="0" cx="-289.908" cy="258.802" r="21.3333"/>
<circle fill="#a64b00" stroke="#a64b00" stroke-width="0" cx="718.739" cy="279.72" r="21.3333"/>
<circle fill="#a64b00" stroke="#a64b00" stroke-width="0" cx="768.587" cy="74.0858" r="21.3333"/>
<circle fill="#a64b00" stroke="#a64b00" stroke-width="0" cx="116.651" cy="201.779" r="21.3333"/>
</svg>
