<?xml version="1.0" encoding="utf-8"?> <!-- Generator: Adobe Illustrator 13.0.0, SVG Export Plug-In . SVG Version: 6.00 Build 14948)  --> <svg version="1.2" baseProfile="tiny" id="Layer_1" xmlns="http://www.w3.org/2000/svg" xmlns:xlink="http://www.w3.org/1999/xlink" x="0px" y="0px" width="512px" height="512px" viewBox="0 0 512 512" xml:space="preserve">
<polygon points="0,0 512,0 512,512 0,512" style="fill:#ffffff; stroke:#000000;stroke-width:0"/>
<polygon points="-187.163,246.075 -218.416,217.028 -69.3855,56.682 -38.133,85.7289" style="fill:#006363; stroke:#000000;stroke-width:0"/>
<circle fill="#006363" stroke="#006363" stroke-width="0" cx="-202.789" cy="231.552" r="21.3333"/>
<circle fill="#006363" stroke="#006363" stroke-width="0" cx="-53.7593" cy="71.2055" r="21.3333"/>
<polygon points="572.678,333.932 578.819,291.71 792.925,322.852 786.784,365.074" style="fill:#006363; stroke:#000000;stroke-width:0"/>
<circle fill="#006363" stroke="#006363" stroke-width="0" cx="575.748" cy="312.821" r="21.3333"/>
<circle fill="#006363" stroke="#006363" stroke-width="0" cx="789.855" cy="343.963" r="21.3333"/>
<polygon points="1256,469.333 256,1469.33 -744,469.333" style="fill:#000000; stroke:#000000;stroke-width:0"/>
<polygon points="-744,42.6667 256,-957.333 1256,42.6667" style="fill:#000000; stroke:#000000;stroke-width:0"/>
<circle fill="#a64b00" stroke="#a64b00" stroke-width="0" cx="-202.789" cy="231.552" r="21.3333"/>
<circle fill="#a64b00" stroke="#a64b00" stroke-width="0" cx="-53.7593" cy="71.2055" r="21.3333"/>
<circle fill="#a64b00" stroke="#a64b00" stroke-width="0" cx="575.748" cy="312.821" r="21.3333"/>
<circle fill="#a64b00" stroke="#a64b00" stroke-width="0" cx="789.855" cy="343.963" r="21.3333"/>
<circle fill="#a64b00" stroke="#a64b00" stroke-width="0" cx="230.591" cy="173.158" r="21.3333"/>
</svg>
