<?xml version="1.0" encoding="utf-8"?> <!-- Generator: Adobe Illustrator 13.0.0, SVG Export Plug-In . SVG Version: 6.00 Build 14948)  --> <svg version="1.2" baseProfile="tiny" id="Layer_1" xmlns="http://www.w3.org/2000/svg" xmlns:xlink="http://www.w3.org/1999/xlink" x="0px" y="0px" width="512px" height="512px" viewBox="0 0 512 512" xml:space="preserve">
<polygon points="0,0 512,0 512,512 0,512" style="fill:#ffffff; stroke:#000000;stroke-width:0"/>
<polygon points="-139.441,196.567 -99.215,182.343 -28.964,381.012 -69.1898,395.236" style="fill:#006363; stroke:#000000;stroke-width:0"/>
<circle fill="#006363" stroke="#006363" stroke-width="0" cx="-119.328" cy="189.455" r="21.3333"/>
<circle fill="#006363" stroke="#006363" stroke-width="0" cx="-49.0769" cy="388.124" r="21.3333"/>
<polygon points="694.295,184.247 722.785,216.008 564.242,358.227 535.752,326.466" style="fill:#006363; stroke:#000000;stroke-width:0"/>
<circle fill="#006363" stroke="#006363" stroke-width="0" cx="708.54" cy="200.127" r="21.3333"/>
<circle fill="#006363" stroke="#006363" stroke-width="0" cx="549.997" cy="342.347" r="21.3333"/>
<polygon points="1256,469.333 256,1469.33 -744,469.333" style="fill:#000000; stroke:#000000;stroke-width:0"/>
<polygon points="-744,42.6667 256,-957.333 1256,42.6667" style="fill:#000000; stroke:#000000;stroke-width:0"/>
<circle fill="#a64b00" stroke="#a64b00" stroke-width="0" cx="-119.328" cy="189.455" r="21.3333"/>
<circle fill="#a64b00" stroke="#a64b00" stroke-width="0" cx="-49.0769" cy="388.124" r="21.3333"/>
<circle fill="#a64b00" stroke="#a64b00" stroke-width="0" cx="708.54" cy="200.127" r="21.3333"/>
<circle fill="#a64b00" stroke="#a64b00" stroke-width="0" cx="549.997" cy="342.347" r="21.3333"/>
<circle fill="#a64b00" stroke="#a64b00" stroke-width="0" cx="330.81" cy="211.32" r="21.3333"/>
</svg>
