<?xml version="1.0" encoding="utf-8"?> <!-- Generator: Adobe Illustrator 13.0.0, SVG Export Plug-In . SVG Version: 6.00 Build 14948)  --> <svg version="1.2" baseProfile="tiny" id="Layer_1" xmlns="http://www.w3.org/2000/svg" xmlns:xlink="http://www.w3.org/1999/xlink" x="0px" y="0px" width="512px" height="512px" viewBox="0 0 512 512" xml:space="preserve">
<polygon points="0,0 512,0 512,512 0,512" style="fill:#ffffff; stroke:#000000;stroke-width:0"/>
<polygon points="-87.6868,102.886 -77.6181,144.347 -292.158,196.447 -302.227,154.985" style="fill:#006363; stroke:#000000;stroke-width:0"/>
<circle fill="#006363" stroke="#006363" stroke-width="0" cx="-82.6524" cy="123.617" r="21.3333"/>
<circle fill="#006363" stroke="#006363" stroke-width="0" cx="-297.193" cy="175.716" r="21.3333"/>
<polygon points="745.433,310.662 704.865,297.444 769.935,97.7354 810.503,110.953" style="fill:#006363; stroke:#000000;stroke-width:0"/>
<circle fill="#006363" stroke="#006363" stroke-width="0" cx="725.149" cy="304.053" r="21.3333"/>
<circle fill="#006363" stroke="#006363" stroke-width="0" cx="790.219" cy="104.344" r="21.3333"/>
<polygon points="1256,469.333 256,1469.33 -744,469.333" style="fill:#000000; stroke:#000000;stroke-width:0"/>
<polygon points="-744,42.6667 256,-957.333 1256,42.6667" style="fill:#000000; stroke:#000000;stroke-width:0"/>
<circle fill="#a64b00" stroke="#a64b00" stroke-width="0" cx="-82.6524" cy="123.617" r="21.3333"/>
<circle fill="#a64b00" stroke="#a64b00" stroke-width="0" cx="-297.193" cy="175.716" r="21.3333"/>
<circle fill="#a64b00" stroke="#a64b00" stroke-width="0" cx="725.149" cy="304.053" r="21.3333"/>
<circle fill="#a64b00" stroke="#a64b00" stroke-width="0" cx="790.219" cy="104.344" r="21.3333"/>
<circle fill="#a64b00" stroke="#a64b00" stroke-width="0" cx="90.4032" cy="278.104" r="21.3333"/>
</svg>
