<?xml version="1.0" encoding="utf-8"?> <!-- Generator: Adobe Illustrator 13.0.0, SVG Export Plug-In . SVG Version: 6.00 Build 14948)  --> <svg version="1.2" baseProfile="tiny" id="Layer_1" xmlns="http://www.w3.org/2000/svg" xmlns:xlink="http://www.w3.org/1999/xlink" x="0px" y="0px" width="512px" height="512px" viewBox="0 0 512 512" xml:space="preserve">
<polygon points="0,0 512,0 512,512 0,512" style="fill:#ffffff; stroke:#000000;stroke-width:0"/>
<polygon points="-95.9599,91.5268 -104.186,133.393 -320.612,90.8691 -312.386,49.0029" style="fill:#006363; stroke:#000000;stroke-width:0"/>
<circle fill="#006363" stroke="#006363" stroke-width="0" cx="-100.073" cy="112.46" r="21.3333"/>
<circle fill="#006363" stroke="#006363" stroke-width="0" cx="-316.499" cy="69.936" r="21.3333"/>
<polygon points="749.828,372.352 712.004,352.609 810.151,164.577 847.975,184.32" style="fill:#006363; stroke:#000000;stroke-width:0"/>
<circle fill="#006363" stroke="#006363" stroke-width="0" cx="730.916" cy="362.481" r="21.3333"/>
<circle fill="#006363" stroke="#006363" stroke-width="0" cx="829.063" cy="174.449" r="21.3333"/>
<polygon points="1256,469.333 256,1469.33 -744,469.333" style="fill:#000000; stroke:#000000;stroke-width:0"/>
<polygon points="-744,42.6667 256,-957.333 1256,42.6667" style="fill:#000000; stroke:#000000;stroke-width:0"/>
<circle fill="#a64b00" stroke="#a64b00" stroke-width="0" cx="-100.073" cy="112.46" r="21.3333"/>
<circle fill="#a64b00" stroke="#a64b00" stroke-width="0" cx="-316.499" cy="69.936" r="21.3333"/>
<circle fill="#a64b00" stroke="#a64b00" stroke-width="0" cx="730.916" cy="362.481" r="21.3333"/>
<circle fill="#a64b00" stroke="#a64b00" stroke-width="0" cx="829.063" cy="174.449" r="21.3333"/>
<circle fill="#a64b00" stroke="#a64b00" stroke-width="0" cx="48.6452" cy="392.59" r="21.3333"/>
</svg>
