<?xml version="1.0" encoding="utf-8"?> <!-- Generator: Adobe Illustrator 13.0.0, SVG Export Plug-In . SVG Version: 6.00 Build 14948)  --> <svg version="1.2" baseProfile="tiny" id="Layer_1" xmlns="http://www.w3.org/2000/svg" xmlns:xlink="http://www.w3.org/1999/xlink" x="0px" y="0px" width="512px" height="512px" viewBox="0 0 512 512" xml:space="preserve">
<polygon points="0,0 512,0 512,512 0,512" style="fill:#ffffff; stroke:#000000;stroke-width:0"/>
<polygon points="-116.356,225.639 -79.6587,247.405 -186.888,428.197 -223.585,406.432" style="fill:#006363; stroke:#000000;stroke-width:0"/>
<circle fill="#006363" stroke="#006363" stroke-width="0" cx="-98.0074" cy="236.522" r="21.3333"/>
<circle fill="#006363" stroke="#006363" stroke-width="0" cx="-205.237" cy="417.315" r="21.3333"/>
<polygon points="673.721,451.352 637.461,428.865 748.602,249.652 784.861,272.139" style="fill:#006363; stroke:#000000;stroke-width:0"/>
<circle fill="#006363" stroke="#006363" stroke-width="0" cx="655.591" cy="440.108" r="21.3333"/>
<circle fill="#006363" stroke="#006363" stroke-width="0" cx="766.731" cy="260.896" r="21.3333"/>
<polygon points="1256,469.333 256,1469.33 -744,469.333" style="fill:#000000; stroke:#000000;stroke-width:0"/>
<polygon points="-744,42.6667 256,-957.333 1256,42.6667" style="fill:#000000; stroke:#000000;stroke-width:0"/>
<circle fill="#a64b00" stroke="#a64b00" stroke-width="0" cx="-98.0074" cy="236.522" r="21.3333"/>
<circle fill="#a64b00" stroke="#a64b00" stroke-width="0" cx="-205.237" cy="417.315" r="21.3333"/>
<circle fill="#a64b00" stroke="#a64b00" stroke-width="0" cx="655.591" cy="440.108" r="21.3333"/>
<circle fill="#a64b00" stroke="#a64b00" stroke-width="0" cx="766.731" cy="260.896" r="21.3333"/>
<circle fill="#a64b00" stroke="#a64b00" stroke-width="0" cx="177.498" cy="106.374" r="21.3333"/>
</svg>
