<?xml version="1.0" encoding="utf-8"?> <!-- Generator: Adobe Illustrator 13.0.0, SVG Export Plug-In . SVG Version: 6.00 Build 14948)  --> <svg version="1.2" baseProfile="tiny" id="Layer_1" xmlns="http://www.w3.org/2000/svg" xmlns:xlink="http://www.w3.org/1999/xlink" x="0px" y="0px" width="512px" height="512px" viewBox="0 0 512 512" xml:space="preserve">
<polygon points="0,0 512,0 512,512 0,512" style="fill:#ffffff; stroke:#000000;stroke-width:0"/>
<polygon points="12.5194,114.44 55.1608,112.974 62.5535,327.96 19.9121,329.426" style="fill:#006363; stroke:#000000;stroke-width:0"/>
<circle fill="#006363" stroke="#006363" stroke-width="0" cx="33.8401" cy="113.707" r="21.3333"/>
<circle fill="#006363" stroke="#006363" stroke-width="0" cx="41.2328" cy="328.693" r="21.3333"/>
<polygon points="453.266,162.283 495.887,160.317 505.676,372.455 463.054,374.421" style="fill:#006363; stroke:#000000;stroke-width:0"/>
<circle fill="#006363" stroke="#006363" stroke-width="0" cx="474.576" cy="161.3" r="21.3333"/>
<circle fill="#006363" stroke="#006363" stroke-width="0" cx="484.365" cy="373.438" r="21.3333"/>
<polygon points="1256,469.333 256,1469.33 -744,469.333" style="fill:#000000; stroke:#000000;stroke-width:0"/>
<polygon points="-744,42.6667 256,-957.333 1256,42.6667" style="fill:#000000; stroke:#000000;stroke-width:0"/>
<circle fill="#a64b00" stroke="#a64b00" stroke-width="0" cx="33.8401" cy="113.707" r="21.3333"/>
<circle fill="#a64b00" stroke="#a64b00" stroke-width="0" cx="41.2328" cy="328.693" r="21.3333"/>
<circle fill="#a64b00" stroke="#a64b00" stroke-width="0" cx="474.576" cy="161.3" r="21.3333"/>
<circle fill="#a64b00" stroke="#a64b00" stroke-width="0" cx="484.365" cy="373.438" r="21.3333"/>
<circle fill="#a64b00" stroke="#a64b00" stroke-width="0" cx="299.903" cy="266.157" r="21.3333"/>
</svg>
