<?xml version="1.0" encoding="utf-8"?> <!-- Generator: Adobe Illustrator 13.0.0, SVG Export Plug-In . SVG Version: 6.00 Build 14948)  --> <svg version="1.2" baseProfile="tiny" id="Layer_1" xmlns="http://www.w3.org/2000/svg" xmlns:xlink="http://www.w3.org/1999/xlink" x="0px" y="0px" width="512px" height="512px" viewBox="0 0 512 512" xml:space="preserve">
<polygon points="0,0 512,0 512,512 0,512" style="fill:#ffffff; stroke:#000000;stroke-width:0"/>
<polygon points="-320.284,436.678 -362.698,432.047 -339.312,217.874 -296.897,222.506" style="fill:#006363; stroke:#000000;stroke-width:0"/>
<circle fill="#006363" stroke="#006363" stroke-width="0" cx="-341.491" cy="434.362" r="21.3333"/>
<circle fill="#006363" stroke="#006363" stroke-width="0" cx="-318.105" cy="220.19" r="21.3333"/>
<polygon points="978.733,220.135 1010.38,248.753 864.206,410.389 832.56,381.771" style="fill:#006363; stroke:#000000;stroke-width:0"/>
<circle fill="#006363" stroke="#006363" stroke-width="0" cx="994.556" cy="234.444" r="21.3333"/>
<circle fill="#006363" stroke="#006363" stroke-width="0" cx="848.383" cy="396.08" r="21.3333"/>
<polygon points="1256,469.333 256,1469.33 -744,469.333" style="fill:#000000; stroke:#000000;stroke-width:0"/>
<polygon points="-744,42.6667 256,-957.333 1256,42.6667" style="fill:#000000; stroke:#000000;stroke-width:0"/>
<circle fill="#a64b00" stroke="#a64b00" stroke-width="0" cx="-341.491" cy="434.362" r="21.3333"/>
<circle fill="#a64b00" stroke="#a64b00" stroke-width="0" cx="-318.105" cy="220.19" r="21.3333"/>
<circle fill="#a64b00" stroke="#a64b00" stroke-width="0" cx="994.556" cy="234.444" r="21.3333"/>
<circle fill="#a64b00" stroke="#a64b00" stroke-width="0" cx="848.383" cy="396.08" r="21.3333"/>
<circle fill="#a64b00" stroke="#a64b00" stroke-width="0" cx="790.99" cy="297.899" r="21.3333"/>
</svg>
