<?xml version="1.0" encoding="utf-8"?> <!-- Generator: Adobe Illustrator 13.0.0, SVG Export Plug-In . SVG Version: 6.00 Build 14948)  --> <svg version="1.2" baseProfile="tiny" id="Layer_1" xmlns="http://www.w3.org/2000/svg" xmlns:xlink="http://www.w3.org/1999/xlink" x="0px" y="0px" width="512px" height="512px" viewBox="0 0 512 512" xml:space="preserve">
<polygon points="0,0 512,0 512,512 0,512" style="fill:#ffffff; stroke:#000000;stroke-width:0"/>
<polygon points="-78.3687,201.996 -42.7284,178.54 71.3788,351.915 35.7385,375.372" style="fill:#006363; stroke:#000000;stroke-width:0"/>
<circle fill="#006363" stroke="#006363" stroke-width="0" cx="-60.5485" cy="190.268" r="21.3333"/>
<circle fill="#006363" stroke="#006363" stroke-width="0" cx="53.5587" cy="363.644" r="21.3333"/>
<polygon points="426.244,156.519 439.898,116.096 639.546,183.532 625.892,223.955" style="fill:#006363; stroke:#000000;stroke-width:0"/>
<circle fill="#006363" stroke="#006363" stroke-width="0" cx="433.071" cy="136.307" r="21.3333"/>
<circle fill="#006363" stroke="#006363" stroke-width="0" cx="632.719" cy="203.743" r="21.3333"/>
<polygon points="1256,469.333 256,1469.33 -744,469.333" style="fill:#000000; stroke:#000000;stroke-width:0"/>
<polygon points="-744,42.6667 256,-957.333 1256,42.6667" style="fill:#000000; stroke:#000000;stroke-width:0"/>
<circle fill="#a64b00" stroke="#a64b00" stroke-width="0" cx="-60.5485" cy="190.268" r="21.3333"/>
<circle fill="#a64b00" stroke="#a64b00" stroke-width="0" cx="53.5587" cy="363.644" r="21.3333"/>
<circle fill="#a64b00" stroke="#a64b00" stroke-width="0" cx="433.071" cy="136.307" r="21.3333"/>
<circle fill="#a64b00" stroke="#a64b00" stroke-width="0" cx="632.719" cy="203.743" r="21.3333"/>
<circle fill="#a64b00" stroke="#a64b00" stroke-width="0" cx="114.677" cy="110.85" r="21.3333"/>
</svg>
