<?xml version="1.0" encoding="utf-8"?> <!-- Generator: Adobe Illustrator 13.0.0, SVG Export Plug-In . SVG Version: 6.00 Build 14948)  --> <svg version="1.2" baseProfile="tiny" id="Layer_1" xmlns="http://www.w3.org/2000/svg" xmlns:xlink="http://www.w3.org/1999/xlink" x="0px" y="0px" width="512px" height="512px" viewBox="0 0 512 512" xml:space="preserve">
<polygon points="0,0 512,0 512,512 0,512" style="fill:#ffffff; stroke:#000000;stroke-width:0"/>
<polygon points="-173.373,445.964 -201.769,414.118 -46.4487,275.628 -18.0534,307.473" style="fill:#006363; stroke:#000000;stroke-width:0"/>
<circle fill="#006363" stroke="#006363" stroke-width="0" cx="-187.571" cy="430.041" r="21.3333"/>
<circle fill="#006363" stroke="#006363" stroke-width="0" cx="-32.251" cy="291.551" r="21.3333"/>
<polygon points="591.383,218.508 629.187,198.727 729.609,390.647 691.805,410.428" style="fill:#006363; stroke:#000000;stroke-width:0"/>
<circle fill="#006363" stroke="#006363" stroke-width="0" cx="610.285" cy="208.617" r="21.3333"/>
<circle fill="#006363" stroke="#006363" stroke-width="0" cx="710.707" cy="400.537" r="21.3333"/>
<polygon points="1256,469.333 256,1469.33 -744,469.333" style="fill:#000000; stroke:#000000;stroke-width:0"/>
<polygon points="-744,42.6667 256,-957.333 1256,42.6667" style="fill:#000000; stroke:#000000;stroke-width:0"/>
<circle fill="#a64b00" stroke="#a64b00" stroke-width="0" cx="-187.571" cy="430.041" r="21.3333"/>
<circle fill="#a64b00" stroke="#a64b00" stroke-width="0" cx="-32.251" cy="291.551" r="21.3333"/>
<circle fill="#a64b00" stroke="#a64b00" stroke-width="0" cx="610.285" cy="208.617" r="21.3333"/>
<circle fill="#a64b00" stroke="#a64b00" stroke-width="0" cx="710.707" cy="400.537" r="21.3333"/>
<circle fill="#a64b00" stroke="#a64b00" stroke-width="0" cx="272.348" cy="58.6716" r="21.3333"/>
</svg>
