<?xml version="1.0" encoding="utf-8"?> <!-- Generator: Adobe Illustrator 13.0.0, SVG Export Plug-In . SVG Version: 6.00 Build 14948)  --> <svg version="1.2" baseProfile="tiny" id="Layer_1" xmlns="http://www.w3.org/2000/svg" xmlns:xlink="http://www.w3.org/1999/xlink" x="0px" y="0px" width="512px" height="512px" viewBox="0 0 512 512" xml:space="preserve">
<polygon points="0,0 512,0 512,512 0,512" style="fill:#ffffff; stroke:#000000;stroke-width:0"/>
<polygon points="-405.546,122.368 -404.945,79.7054 -195.708,82.6539 -196.309,125.316" style="fill:#006363; stroke:#000000;stroke-width:0"/>
<circle fill="#006363" stroke="#006363" stroke-width="0" cx="-405.246" cy="101.037" r="21.3333"/>
<circle fill="#006363" stroke="#006363" stroke-width="0" cx="-196.009" cy="103.985" r="21.3333"/>
<polygon points="857.86,226.502 900.2,221.232 926.448,432.107 884.108,437.377" style="fill:#006363; stroke:#000000;stroke-width:0"/>
<circle fill="#006363" stroke="#006363" stroke-width="0" cx="879.03" cy="223.867" r="21.3333"/>
<circle fill="#006363" stroke="#006363" stroke-width="0" cx="905.278" cy="434.742" r="21.3333"/>
<polygon points="1256,469.333 256,1469.33 -744,469.333" style="fill:#000000; stroke:#000000;stroke-width:0"/>
<polygon points="-744,42.6667 256,-957.333 1256,42.6667" style="fill:#000000; stroke:#000000;stroke-width:0"/>
<circle fill="#a64b00" stroke="#a64b00" stroke-width="0" cx="-405.246" cy="101.037" r="21.3333"/>
<circle fill="#a64b00" stroke="#a64b00" stroke-width="0" cx="-196.009" cy="103.985" r="21.3333"/>
<circle fill="#a64b00" stroke="#a64b00" stroke-width="0" cx="879.03" cy="223.867" r="21.3333"/>
<circle fill="#a64b00" stroke="#a64b00" stroke-width="0" cx="905.278" cy="434.742" r="21.3333"/>
<circle fill="#a64b00" stroke="#a64b00" stroke-width="0" cx="-161.338" cy="163.617" r="21.3333"/>
</svg>
