<?xml version="1.0" encoding="utf-8"?> <!-- Generator: Adobe Illustrator 13.0.0, SVG Export Plug-In . SVG Version: 6.00 Build 14948)  --> <svg version="1.2" baseProfile="tiny" id="Layer_1" xmlns="http://www.w3.org/2000/svg" xmlns:xlink="http://www.w3.org/1999/xlink" x="0px" y="0px" width="512px" height="512px" viewBox="0 0 512 512" xml:space="preserve">
<polygon points="0,0 512,0 512,512 0,512" style="fill:#ffffff; stroke:#000000;stroke-width:0"/>
<polygon points="-101.029,234.892 -58.9727,227.7 -23.304,436.272 -65.3601,443.465" style="fill:#006363; stroke:#000000;stroke-width:0"/>
<circle fill="#006363" stroke="#006363" stroke-width="0" cx="-80.0008" cy="231.296" r="21.3333"/>
<circle fill="#006363" stroke="#006363" stroke-width="0" cx="-44.3321" cy="439.869" r="21.3333"/>
<polygon points="710.39,265.454 693.661,304.704 494.613,219.865 511.343,180.615" style="fill:#006363; stroke:#000000;stroke-width:0"/>
<circle fill="#006363" stroke="#006363" stroke-width="0" cx="702.026" cy="285.079" r="21.3333"/>
<circle fill="#006363" stroke="#006363" stroke-width="0" cx="502.978" cy="200.24" r="21.3333"/>
<polygon points="1256,469.333 256,1469.33 -744,469.333" style="fill:#000000; stroke:#000000;stroke-width:0"/>
<polygon points="-744,42.6667 256,-957.333 1256,42.6667" style="fill:#000000; stroke:#000000;stroke-width:0"/>
<circle fill="#a64b00" stroke="#a64b00" stroke-width="0" cx="-80.0008" cy="231.296" r="21.3333"/>
<circle fill="#a64b00" stroke="#a64b00" stroke-width="0" cx="-44.3321" cy="439.869" r="21.3333"/>
<circle fill="#a64b00" stroke="#a64b00" stroke-width="0" cx="702.026" cy="285.079" r="21.3333"/>
<circle fill="#a64b00" stroke="#a64b00" stroke-width="0" cx="502.978" cy="200.24" r="21.3333"/>
<circle fill="#a64b00" stroke="#a64b00" stroke-width="0" cx="380.919" cy="230.401" r="21.3333"/>
</svg>
