<?xml version="1.0" encoding="utf-8"?> <!-- Generator: Adobe Illustrator 13.0.0, SVG Export Plug-In . SVG Version: 6.00 Build 14948)  --> <svg version="1.2" baseProfile="tiny" id="Layer_1" xmlns="http://www.w3.org/2000/svg" xmlns:xlink="http://www.w3.org/1999/xlink" x="0px" y="0px" width="512px" height="512px" viewBox="0 0 512 512" xml:space="preserve">
<polygon points="0,0 512,0 512,512 0,512" style="fill:#ffffff; stroke:#000000;stroke-width:0"/>
<polygon points="-6.7046,114.249 35.6998,109.525 59.1111,319.705 16.7067,324.428" style="fill:#006363; stroke:#000000;stroke-width:0"/>
<circle fill="#006363" stroke="#006363" stroke-width="0" cx="14.4976" cy="111.887" r="21.3333"/>
<circle fill="#006363" stroke="#006363" stroke-width="0" cx="37.9089" cy="322.066" r="21.3333"/>
<polygon points="455.033,204.552 497.135,197.633 532.007,409.829 489.906,416.748" style="fill:#006363; stroke:#000000;stroke-width:0"/>
<circle fill="#006363" stroke="#006363" stroke-width="0" cx="476.084" cy="201.093" r="21.3333"/>
<circle fill="#006363" stroke="#006363" stroke-width="0" cx="510.957" cy="413.288" r="21.3333"/>
<polygon points="1256,469.333 256,1469.33 -744,469.333" style="fill:#000000; stroke:#000000;stroke-width:0"/>
<polygon points="-744,42.6667 256,-957.333 1256,42.6667" style="fill:#000000; stroke:#000000;stroke-width:0"/>
<circle fill="#a64b00" stroke="#a64b00" stroke-width="0" cx="14.4976" cy="111.887" r="21.3333"/>
<circle fill="#a64b00" stroke="#a64b00" stroke-width="0" cx="37.9089" cy="322.066" r="21.3333"/>
<circle fill="#a64b00" stroke="#a64b00" stroke-width="0" cx="476.084" cy="201.093" r="21.3333"/>
<circle fill="#a64b00" stroke="#a64b00" stroke-width="0" cx="510.957" cy="413.288" r="21.3333"/>
<circle fill="#a64b00" stroke="#a64b00" stroke-width="0" cx="471.291" cy="436.79" r="21.3333"/>
</svg>
