<?xml version="1.0" encoding="utf-8"?> <!-- Generator: Adobe Illustrator 13.0.0, SVG Export Plug-In . SVG Version: 6.00 Build 14948)  --> <svg version="1.2" baseProfile="tiny" id="Layer_1" xmlns="http://www.w3.org/2000/svg" xmlns:xlink="http://www.w3.org/1999/xlink" x="0px" y="0px" width="512px" height="512px" viewBox="0 0 512 512" xml:space="preserve">
<polygon points="0,0 512,0 512,512 0,512" style="fill:#ffffff; stroke:#000000;stroke-width:0"/>
<polygon points="-133.681,164.478 -92.8078,152.238 -31.0511,358.461 -71.9243,370.701" style="fill:#006363; stroke:#000000;stroke-width:0"/>
<circle fill="#006363" stroke="#006363" stroke-width="0" cx="-113.244" cy="158.358" r="21.3333"/>
<circle fill="#006363" stroke="#006363" stroke-width="0" cx="-51.4877" cy="364.581" r="21.3333"/>
<polygon points="701.311,187.438 726.67,221.751 552.765,350.273 527.406,315.96" style="fill:#006363; stroke:#000000;stroke-width:0"/>
<circle fill="#006363" stroke="#006363" stroke-width="0" cx="713.99" cy="204.594" r="21.3333"/>
<circle fill="#006363" stroke="#006363" stroke-width="0" cx="540.085" cy="333.116" r="21.3333"/>
<polygon points="1256,469.333 256,1469.33 -744,469.333" style="fill:#000000; stroke:#000000;stroke-width:0"/>
<polygon points="-744,42.6667 256,-957.333 1256,42.6667" style="fill:#000000; stroke:#000000;stroke-width:0"/>
<circle fill="#a64b00" stroke="#a64b00" stroke-width="0" cx="-113.244" cy="158.358" r="21.3333"/>
<circle fill="#a64b00" stroke="#a64b00" stroke-width="0" cx="-51.4877" cy="364.581" r="21.3333"/>
<circle fill="#a64b00" stroke="#a64b00" stroke-width="0" cx="713.99" cy="204.594" r="21.3333"/>
<circle fill="#a64b00" stroke="#a64b00" stroke-width="0" cx="540.085" cy="333.116" r="21.3333"/>
<circle fill="#a64b00" stroke="#a64b00" stroke-width="0" cx="334.985" cy="278.104" r="21.3333"/>
</svg>
