<?xml version="1.0" encoding="utf-8"?> <!-- Generator: Adobe Illustrator 13.0.0, SVG Export Plug-In . SVG Version: 6.00 Build 14948)  --> <svg version="1.2" baseProfile="tiny" id="Layer_1" xmlns="http://www.w3.org/2000/svg" xmlns:xlink="http://www.w3.org/1999/xlink" x="0px" y="0px" width="512px" height="512px" viewBox="0 0 512 512" xml:space="preserve">
<polygon points="0,0 512,0 512,512 0,512" style="fill:#ffffff; stroke:#000000;stroke-width:0"/>
<polygon points="-403.406,131.857 -405.046,89.2222 -196.799,81.2095 -195.158,123.845" style="fill:#006363; stroke:#000000;stroke-width:0"/>
<circle fill="#006363" stroke="#006363" stroke-width="0" cx="-404.226" cy="110.54" r="21.3333"/>
<circle fill="#006363" stroke="#006363" stroke-width="0" cx="-195.979" cy="102.527" r="21.3333"/>
<polygon points="854.802,223.391 897.04,217.361 928.231,435.828 885.993,441.858" style="fill:#006363; stroke:#000000;stroke-width:0"/>
<circle fill="#006363" stroke="#006363" stroke-width="0" cx="875.921" cy="220.376" r="21.3333"/>
<circle fill="#006363" stroke="#006363" stroke-width="0" cx="907.112" cy="438.843" r="21.3333"/>
<polygon points="1256,469.333 256,1469.33 -744,469.333" style="fill:#000000; stroke:#000000;stroke-width:0"/>
<polygon points="-744,42.6667 256,-957.333 1256,42.6667" style="fill:#000000; stroke:#000000;stroke-width:0"/>
<circle fill="#a64b00" stroke="#a64b00" stroke-width="0" cx="-404.226" cy="110.54" r="21.3333"/>
<circle fill="#a64b00" stroke="#a64b00" stroke-width="0" cx="-195.979" cy="102.527" r="21.3333"/>
<circle fill="#a64b00" stroke="#a64b00" stroke-width="0" cx="875.921" cy="220.376" r="21.3333"/>
<circle fill="#a64b00" stroke="#a64b00" stroke-width="0" cx="907.112" cy="438.843" r="21.3333"/>
<circle fill="#a64b00" stroke="#a64b00" stroke-width="0" cx="-160.144" cy="182.698" r="21.3333"/>
</svg>
