<?xml version="1.0" encoding="utf-8"?> <!-- Generator: Adobe Illustrator 13.0.0, SVG Export Plug-In . SVG Version: 6.00 Build 14948)  --> <svg version="1.2" baseProfile="tiny" id="Layer_1" xmlns="http://www.w3.org/2000/svg" xmlns:xlink="http://www.w3.org/1999/xlink" x="0px" y="0px" width="512px" height="512px" viewBox="0 0 512 512" xml:space="preserve">
<polygon points="0,0 512,0 512,512 0,512" style="fill:#ffffff; stroke:#000000;stroke-width:0"/>
<polygon points="-52.8237,404.263 -62.1094,445.907 -270.358,399.472 -261.072,357.828" style="fill:#006363; stroke:#000000;stroke-width:0"/>
<circle fill="#006363" stroke="#006363" stroke-width="0" cx="-57.4666" cy="425.085" r="21.3333"/>
<circle fill="#006363" stroke="#006363" stroke-width="0" cx="-265.715" cy="378.65" r="21.3333"/>
<polygon points="696.795,392.935 658.137,374.881 749.744,178.72 788.403,196.774" style="fill:#006363; stroke:#000000;stroke-width:0"/>
<circle fill="#006363" stroke="#006363" stroke-width="0" cx="677.466" cy="383.908" r="21.3333"/>
<circle fill="#006363" stroke="#006363" stroke-width="0" cx="769.074" cy="187.747" r="21.3333"/>
<polygon points="1256,469.333 256,1469.33 -744,469.333" style="fill:#000000; stroke:#000000;stroke-width:0"/>
<polygon points="-744,42.6667 256,-957.333 1256,42.6667" style="fill:#000000; stroke:#000000;stroke-width:0"/>
<circle fill="#a64b00" stroke="#a64b00" stroke-width="0" cx="-57.4666" cy="425.085" r="21.3333"/>
<circle fill="#a64b00" stroke="#a64b00" stroke-width="0" cx="-265.715" cy="378.65" r="21.3333"/>
<circle fill="#a64b00" stroke="#a64b00" stroke-width="0" cx="677.466" cy="383.908" r="21.3333"/>
<circle fill="#a64b00" stroke="#a64b00" stroke-width="0" cx="769.074" cy="187.747" r="21.3333"/>
<circle fill="#a64b00" stroke="#a64b00" stroke-width="0" cx="154.83" cy="373.509" r="21.3333"/>
</svg>
