<?xml version="1.0" encoding="utf-8"?> <!-- Generator: Adobe Illustrator 13.0.0, SVG Export Plug-In . SVG Version: 6.00 Build 14948)  --> <svg version="1.2" baseProfile="tiny" id="Layer_1" xmlns="http://www.w3.org/2000/svg" xmlns:xlink="http://www.w3.org/1999/xlink" x="0px" y="0px" width="512px" height="512px" viewBox="0 0 512 512" xml:space="preserve">
<polygon points="0,0 512,0 512,512 0,512" style="fill:#ffffff; stroke:#000000;stroke-width:0"/>
<polygon points="-93.6102,74.8239 -81.3253,115.684 -290.957,178.711 -303.242,137.851" style="fill:#006363; stroke:#000000;stroke-width:0"/>
<circle fill="#006363" stroke="#006363" stroke-width="0" cx="-87.4678" cy="95.2538" r="21.3333"/>
<circle fill="#006363" stroke="#006363" stroke-width="0" cx="-297.099" cy="158.281" r="21.3333"/>
<polygon points="745.802,319.287 705.526,305.205 775.302,105.636 815.577,119.717" style="fill:#006363; stroke:#000000;stroke-width:0"/>
<circle fill="#006363" stroke="#006363" stroke-width="0" cx="725.664" cy="312.246" r="21.3333"/>
<circle fill="#006363" stroke="#006363" stroke-width="0" cx="795.44" cy="112.676" r="21.3333"/>
<polygon points="1256,469.333 256,1469.33 -744,469.333" style="fill:#000000; stroke:#000000;stroke-width:0"/>
<polygon points="-744,42.6667 256,-957.333 1256,42.6667" style="fill:#000000; stroke:#000000;stroke-width:0"/>
<circle fill="#a64b00" stroke="#a64b00" stroke-width="0" cx="-87.4678" cy="95.2538" r="21.3333"/>
<circle fill="#a64b00" stroke="#a64b00" stroke-width="0" cx="-297.099" cy="158.281" r="21.3333"/>
<circle fill="#a64b00" stroke="#a64b00" stroke-width="0" cx="725.664" cy="312.246" r="21.3333"/>
<circle fill="#a64b00" stroke="#a64b00" stroke-width="0" cx="795.44" cy="112.676" r="21.3333"/>
<circle fill="#a64b00" stroke="#a64b00" stroke-width="0" cx="85.0343" cy="192.239" r="21.3333"/>
</svg>
