<?xml version="1.0" encoding="utf-8"?> <!-- Generator: Adobe Illustrator 13.0.0, SVG Export Plug-In . SVG Version: 6.00 Build 14948)  --> <svg version="1.2" baseProfile="tiny" id="Layer_1" xmlns="http://www.w3.org/2000/svg" xmlns:xlink="http://www.w3.org/1999/xlink" x="0px" y="0px" width="512px" height="512px" viewBox="0 0 512 512" xml:space="preserve">
<polygon points="0,0 512,0 512,512 0,512" style="fill:#ffffff; stroke:#000000;stroke-width:0"/>
<polygon points="-128.666,108.975 -116.881,67.9683 87.7552,126.778 75.9705,167.785" style="fill:#006363; stroke:#000000;stroke-width:0"/>
<circle fill="#006363" stroke="#006363" stroke-width="0" cx="-122.774" cy="88.4717" r="21.3333"/>
<circle fill="#006363" stroke="#006363" stroke-width="0" cx="81.8628" cy="147.281" r="21.3333"/>
<polygon points="475.254,266.047 451.37,230.692 628.419,111.085 652.303,146.441" style="fill:#006363; stroke:#000000;stroke-width:0"/>
<circle fill="#006363" stroke="#006363" stroke-width="0" cx="463.312" cy="248.369" r="21.3333"/>
<circle fill="#006363" stroke="#006363" stroke-width="0" cx="640.361" cy="128.763" r="21.3333"/>
<polygon points="1256,469.333 256,1469.33 -744,469.333" style="fill:#000000; stroke:#000000;stroke-width:0"/>
<polygon points="-744,42.6667 256,-957.333 1256,42.6667" style="fill:#000000; stroke:#000000;stroke-width:0"/>
<circle fill="#a64b00" stroke="#a64b00" stroke-width="0" cx="-122.774" cy="88.4717" r="21.3333"/>
<circle fill="#a64b00" stroke="#a64b00" stroke-width="0" cx="81.8628" cy="147.281" r="21.3333"/>
<circle fill="#a64b00" stroke="#a64b00" stroke-width="0" cx="463.312" cy="248.369" r="21.3333"/>
<circle fill="#a64b00" stroke="#a64b00" stroke-width="0" cx="640.361" cy="128.763" r="21.3333"/>
<circle fill="#a64b00" stroke="#a64b00" stroke-width="0" cx="475.769" cy="182.698" r="21.3333"/>
</svg>
