<?xml version="1.0" encoding="utf-8"?> <!-- Generator: Adobe Illustrator 13.0.0, SVG Export Plug-In . SVG Version: 6.00 Build 14948)  --> <svg version="1.2" baseProfile="tiny" id="Layer_1" xmlns="http://www.w3.org/2000/svg" xmlns:xlink="http://www.w3.org/1999/xlink" x="0px" y="0px" width="512px" height="512px" viewBox="0 0 512 512" xml:space="preserve">
<polygon points="0,0 512,0 512,512 0,512" style="fill:#ffffff; stroke:#000000;stroke-width:0"/>
<polygon points="-86.97,188.329 -53.6326,161.701 76.3682,324.457 43.0308,351.085" style="fill:#006363; stroke:#000000;stroke-width:0"/>
<circle fill="#006363" stroke="#006363" stroke-width="0" cx="-70.3013" cy="175.015" r="21.3333"/>
<circle fill="#006363" stroke="#006363" stroke-width="0" cx="59.6995" cy="337.771" r="21.3333"/>
<polygon points="427.569,171.31 436.427,129.573 643.01,173.421 634.151,215.158" style="fill:#006363; stroke:#000000;stroke-width:0"/>
<circle fill="#006363" stroke="#006363" stroke-width="0" cx="431.998" cy="150.441" r="21.3333"/>
<circle fill="#006363" stroke="#006363" stroke-width="0" cx="638.581" cy="194.289" r="21.3333"/>
<polygon points="1256,469.333 256,1469.33 -744,469.333" style="fill:#000000; stroke:#000000;stroke-width:0"/>
<polygon points="-744,42.6667 256,-957.333 1256,42.6667" style="fill:#000000; stroke:#000000;stroke-width:0"/>
<circle fill="#a64b00" stroke="#a64b00" stroke-width="0" cx="-70.3013" cy="175.015" r="21.3333"/>
<circle fill="#a64b00" stroke="#a64b00" stroke-width="0" cx="59.6995" cy="337.771" r="21.3333"/>
<circle fill="#a64b00" stroke="#a64b00" stroke-width="0" cx="431.998" cy="150.441" r="21.3333"/>
<circle fill="#a64b00" stroke="#a64b00" stroke-width="0" cx="638.581" cy="194.289" r="21.3333"/>
<circle fill="#a64b00" stroke="#a64b00" stroke-width="0" cx="92.9906" cy="72.0471" r="21.3333"/>
</svg>
