<?xml version="1.0" encoding="utf-8"?> <!-- Generator: Adobe Illustrator 13.0.0, SVG Export Plug-In . SVG Version: 6.00 Build 14948)  --> <svg version="1.2" baseProfile="tiny" id="Layer_1" xmlns="http://www.w3.org/2000/svg" xmlns:xlink="http://www.w3.org/1999/xlink" x="0px" y="0px" width="512px" height="512px" viewBox="0 0 512 512" xml:space="preserve">
<polygon points="0,0 512,0 512,512 0,512" style="fill:#ffffff; stroke:#000000;stroke-width:0"/>
<polygon points="-184.145,246.163 -216.29,218.107 -71.8793,52.65 -39.7343,80.7061" style="fill:#006363; stroke:#000000;stroke-width:0"/>
<circle fill="#006363" stroke="#006363" stroke-width="0" cx="-200.217" cy="232.135" r="21.3333"/>
<circle fill="#006363" stroke="#006363" stroke-width="0" cx="-55.8068" cy="66.6781" r="21.3333"/>
<polygon points="572.255,332.141 578.95,290.003 792.71,323.963 786.016,366.101" style="fill:#006363; stroke:#000000;stroke-width:0"/>
<circle fill="#006363" stroke="#006363" stroke-width="0" cx="575.603" cy="311.072" r="21.3333"/>
<circle fill="#006363" stroke="#006363" stroke-width="0" cx="789.363" cy="345.032" r="21.3333"/>
<polygon points="1256,469.333 256,1469.33 -744,469.333" style="fill:#000000; stroke:#000000;stroke-width:0"/>
<polygon points="-744,42.6667 256,-957.333 1256,42.6667" style="fill:#000000; stroke:#000000;stroke-width:0"/>
<circle fill="#a64b00" stroke="#a64b00" stroke-width="0" cx="-200.217" cy="232.135" r="21.3333"/>
<circle fill="#a64b00" stroke="#a64b00" stroke-width="0" cx="-55.8068" cy="66.6781" r="21.3333"/>
<circle fill="#a64b00" stroke="#a64b00" stroke-width="0" cx="575.603" cy="311.072" r="21.3333"/>
<circle fill="#a64b00" stroke="#a64b00" stroke-width="0" cx="789.363" cy="345.032" r="21.3333"/>
<circle fill="#a64b00" stroke="#a64b00" stroke-width="0" cx="231.187" cy="182.698" r="21.3333"/>
</svg>
