<?xml version="1.0" encoding="utf-8"?> <!-- Generator: Adobe Illustrator 13.0.0, SVG Export Plug-In . SVG Version: 6.00 Build 14948)  --> <svg version="1.2" baseProfile="tiny" id="Layer_1" xmlns="http://www.w3.org/2000/svg" xmlns:xlink="http://www.w3.org/1999/xlink" x="0px" y="0px" width="512px" height="512px" viewBox="0 0 512 512" xml:space="preserve">
<polygon points="0,0 512,0 512,512 0,512" style="fill:#ffffff; stroke:#000000;stroke-width:0"/>
<polygon points="-136.907,182.91 -96.384,169.557 -29.9235,371.251 -70.4468,384.604" style="fill:#006363; stroke:#000000;stroke-width:0"/>
<circle fill="#006363" stroke="#006363" stroke-width="0" cx="-116.646" cy="176.234" r="21.3333"/>
<circle fill="#006363" stroke="#006363" stroke-width="0" cx="-50.1851" cy="377.928" r="21.3333"/>
<polygon points="696.128,186.611 723.281,219.522 560.497,353.822 533.344,320.91" style="fill:#006363; stroke:#000000;stroke-width:0"/>
<circle fill="#006363" stroke="#006363" stroke-width="0" cx="709.705" cy="203.066" r="21.3333"/>
<circle fill="#006363" stroke="#006363" stroke-width="0" cx="546.92" cy="337.366" r="21.3333"/>
<polygon points="1256,469.333 256,1469.33 -744,469.333" style="fill:#000000; stroke:#000000;stroke-width:0"/>
<polygon points="-744,42.6667 256,-957.333 1256,42.6667" style="fill:#000000; stroke:#000000;stroke-width:0"/>
<circle fill="#a64b00" stroke="#a64b00" stroke-width="0" cx="-116.646" cy="176.234" r="21.3333"/>
<circle fill="#a64b00" stroke="#a64b00" stroke-width="0" cx="-50.1851" cy="377.928" r="21.3333"/>
<circle fill="#a64b00" stroke="#a64b00" stroke-width="0" cx="709.705" cy="203.066" r="21.3333"/>
<circle fill="#a64b00" stroke="#a64b00" stroke-width="0" cx="546.92" cy="337.366" r="21.3333"/>
<circle fill="#a64b00" stroke="#a64b00" stroke-width="0" cx="332.599" cy="239.942" r="21.3333"/>
</svg>
