<?xml version="1.0" encoding="utf-8"?> <!-- Generator: Adobe Illustrator 13.0.0, SVG Export Plug-In . SVG Version: 6.00 Build 14948)  --> <svg version="1.2" baseProfile="tiny" id="Layer_1" xmlns="http://www.w3.org/2000/svg" xmlns:xlink="http://www.w3.org/1999/xlink" x="0px" y="0px" width="512px" height="512px" viewBox="0 0 512 512" xml:space="preserve">
<polygon points="0,0 512,0 512,512 0,512" style="fill:#ffffff; stroke:#000000;stroke-width:0"/>
<polygon points="-143.255,234.938 -132.962,276.344 -339.95,327.796 -350.242,286.389" style="fill:#006363; stroke:#000000;stroke-width:0"/>
<circle fill="#006363" stroke="#006363" stroke-width="0" cx="-138.108" cy="255.641" r="21.3333"/>
<circle fill="#006363" stroke="#006363" stroke-width="0" cx="-345.096" cy="307.092" r="21.3333"/>
<polygon points="750.626,443.517 724.808,409.548 890.29,283.777 916.107,317.746" style="fill:#006363; stroke:#000000;stroke-width:0"/>
<circle fill="#006363" stroke="#006363" stroke-width="0" cx="737.717" cy="426.533" r="21.3333"/>
<circle fill="#006363" stroke="#006363" stroke-width="0" cx="903.199" cy="300.761" r="21.3333"/>
<polygon points="1256,469.333 256,1469.33 -744,469.333" style="fill:#000000; stroke:#000000;stroke-width:0"/>
<polygon points="-744,42.6667 256,-957.333 1256,42.6667" style="fill:#000000; stroke:#000000;stroke-width:0"/>
<circle fill="#a64b00" stroke="#a64b00" stroke-width="0" cx="-138.108" cy="255.641" r="21.3333"/>
<circle fill="#a64b00" stroke="#a64b00" stroke-width="0" cx="-345.096" cy="307.092" r="21.3333"/>
<circle fill="#a64b00" stroke="#a64b00" stroke-width="0" cx="737.717" cy="426.533" r="21.3333"/>
<circle fill="#a64b00" stroke="#a64b00" stroke-width="0" cx="903.199" cy="300.761" r="21.3333"/>
<circle fill="#a64b00" stroke="#a64b00" stroke-width="0" cx="-27.1156" cy="154.077" r="21.3333"/>
</svg>
