<?xml version="1.0" encoding="utf-8"?> <!-- Generator: Adobe Illustrator 13.0.0, SVG Export Plug-In . SVG Version: 6.00 Build 14948)  --> <svg version="1.2" baseProfile="tiny" id="Layer_1" xmlns="http://www.w3.org/2000/svg" xmlns:xlink="http://www.w3.org/1999/xlink" x="0px" y="0px" width="512px" height="512px" viewBox="0 0 512 512" xml:space="preserve">
<polygon points="0,0 512,0 512,512 0,512" style="fill:#ffffff; stroke:#000000;stroke-width:0"/>
<polygon points="-98.3008,109.54 -104.194,151.797 -326.666,120.773 -320.773,78.515" style="fill:#006363; stroke:#000000;stroke-width:0"/>
<circle fill="#006363" stroke="#006363" stroke-width="0" cx="-101.247" cy="130.668" r="21.3333"/>
<circle fill="#006363" stroke="#006363" stroke-width="0" cx="-323.719" cy="99.6439" r="21.3333"/>
<polygon points="752.263,383.645 715.213,362.485 817.912,182.663 854.962,203.822" style="fill:#006363; stroke:#000000;stroke-width:0"/>
<circle fill="#006363" stroke="#006363" stroke-width="0" cx="733.738" cy="373.065" r="21.3333"/>
<circle fill="#006363" stroke="#006363" stroke-width="0" cx="836.437" cy="193.243" r="21.3333"/>
<polygon points="1256,469.333 256,1469.33 -744,469.333" style="fill:#000000; stroke:#000000;stroke-width:0"/>
<polygon points="-744,42.6667 256,-957.333 1256,42.6667" style="fill:#000000; stroke:#000000;stroke-width:0"/>
<circle fill="#a64b00" stroke="#a64b00" stroke-width="0" cx="-101.247" cy="130.668" r="21.3333"/>
<circle fill="#a64b00" stroke="#a64b00" stroke-width="0" cx="-323.719" cy="99.6439" r="21.3333"/>
<circle fill="#a64b00" stroke="#a64b00" stroke-width="0" cx="733.738" cy="373.065" r="21.3333"/>
<circle fill="#a64b00" stroke="#a64b00" stroke-width="0" cx="836.437" cy="193.243" r="21.3333"/>
<circle fill="#a64b00" stroke="#a64b00" stroke-width="0" cx="39.1006" cy="239.942" r="21.3333"/>
</svg>
