<?xml version="1.0" encoding="utf-8"?> <!-- Generator: Adobe Illustrator 13.0.0, SVG Export Plug-In . SVG Version: 6.00 Build 14948)  --> <svg version="1.2" baseProfile="tiny" id="Layer_1" xmlns="http://www.w3.org/2000/svg" xmlns:xlink="http://www.w3.org/1999/xlink" x="0px" y="0px" width="512px" height="512px" viewBox="0 0 512 512" xml:space="preserve">
<polygon points="0,0 512,0 512,512 0,512" style="fill:#ffffff; stroke:#000000;stroke-width:0"/>
<polygon points="-237.325,191.972 -211.242,158.207 -42.8336,288.297 -68.9166,322.063" style="fill:#006363; stroke:#000000;stroke-width:0"/>
<circle fill="#006363" stroke="#006363" stroke-width="0" cx="-224.284" cy="175.089" r="21.3333"/>
<circle fill="#006363" stroke="#006363" stroke-width="0" cx="-55.8751" cy="305.18" r="21.3333"/>
<polygon points="611.087,410.43 592.054,372.243 783.194,276.973 802.228,315.159" style="fill:#006363; stroke:#000000;stroke-width:0"/>
<circle fill="#006363" stroke="#006363" stroke-width="0" cx="601.57" cy="391.336" r="21.3333"/>
<circle fill="#006363" stroke="#006363" stroke-width="0" cx="792.711" cy="296.066" r="21.3333"/>
<polygon points="1256,469.333 256,1469.33 -744,469.333" style="fill:#000000; stroke:#000000;stroke-width:0"/>
<polygon points="-744,42.6667 256,-957.333 1256,42.6667" style="fill:#000000; stroke:#000000;stroke-width:0"/>
<circle fill="#a64b00" stroke="#a64b00" stroke-width="0" cx="-224.284" cy="175.089" r="21.3333"/>
<circle fill="#a64b00" stroke="#a64b00" stroke-width="0" cx="-55.8751" cy="305.18" r="21.3333"/>
<circle fill="#a64b00" stroke="#a64b00" stroke-width="0" cx="601.57" cy="391.336" r="21.3333"/>
<circle fill="#a64b00" stroke="#a64b00" stroke-width="0" cx="792.711" cy="296.066" r="21.3333"/>
<circle fill="#a64b00" stroke="#a64b00" stroke-width="0" cx="203.746" cy="373.509" r="21.3333"/>
</svg>
