<?xml version="1.0" encoding="utf-8"?> <!-- Generator: Adobe Illustrator 13.0.0, SVG Export Plug-In . SVG Version: 6.00 Build 14948)  --> <svg version="1.2" baseProfile="tiny" id="Layer_1" xmlns="http://www.w3.org/2000/svg" xmlns:xlink="http://www.w3.org/1999/xlink" x="0px" y="0px" width="512px" height="512px" viewBox="0 0 512 512" xml:space="preserve">
<polygon points="0,0 512,0 512,512 0,512" style="fill:#ffffff; stroke:#000000;stroke-width:0"/>
<polygon points="-313.448,299.492 -352.161,281.555 -263.672,90.5644 -224.959,108.501" style="fill:#006363; stroke:#000000;stroke-width:0"/>
<circle fill="#006363" stroke="#006363" stroke-width="0" cx="-332.804" cy="290.523" r="21.3333"/>
<circle fill="#006363" stroke="#006363" stroke-width="0" cx="-244.315" cy="99.5326" r="21.3333"/>
<polygon points="801.47,253.473 837.809,231.114 953.522,419.179 917.183,441.537" style="fill:#006363; stroke:#000000;stroke-width:0"/>
<circle fill="#006363" stroke="#006363" stroke-width="0" cx="819.639" cy="242.293" r="21.3333"/>
<circle fill="#006363" stroke="#006363" stroke-width="0" cx="935.353" cy="430.358" r="21.3333"/>
<polygon points="1256,469.333 256,1469.33 -744,469.333" style="fill:#000000; stroke:#000000;stroke-width:0"/>
<polygon points="-744,42.6667 256,-957.333 1256,42.6667" style="fill:#000000; stroke:#000000;stroke-width:0"/>
<circle fill="#a64b00" stroke="#a64b00" stroke-width="0" cx="-332.804" cy="290.523" r="21.3333"/>
<circle fill="#a64b00" stroke="#a64b00" stroke-width="0" cx="-244.315" cy="99.5326" r="21.3333"/>
<circle fill="#a64b00" stroke="#a64b00" stroke-width="0" cx="819.639" cy="242.293" r="21.3333"/>
<circle fill="#a64b00" stroke="#a64b00" stroke-width="0" cx="935.353" cy="430.358" r="21.3333"/>
<circle fill="#a64b00" stroke="#a64b00" stroke-width="0" cx="-133.897" cy="297.185" r="21.3333"/>
</svg>
