<?xml version="1.0" encoding="utf-8"?> <!-- Generator: Adobe Illustrator 13.0.0, SVG Export Plug-In . SVG Version: 6.00 Build 14948)  --> <svg version="1.2" baseProfile="tiny" id="Layer_1" xmlns="http://www.w3.org/2000/svg" xmlns:xlink="http://www.w3.org/1999/xlink" x="0px" y="0px" width="512px" height="512px" viewBox="0 0 512 512" xml:space="preserve">
<polygon points="0,0 512,0 512,512 0,512" style="fill:#ffffff; stroke:#000000;stroke-width:0"/>
<polygon points="-140.724,224.792 -131.719,266.497 -337.758,310.989 -346.764,269.283" style="fill:#006363; stroke:#000000;stroke-width:0"/>
<circle fill="#006363" stroke="#006363" stroke-width="0" cx="-136.222" cy="245.644" r="21.3333"/>
<circle fill="#006363" stroke="#006363" stroke-width="0" cx="-342.261" cy="290.136" r="21.3333"/>
<polygon points="754.235,450.894 725.658,419.211 880.945,279.147 909.522,310.83" style="fill:#006363; stroke:#000000;stroke-width:0"/>
<circle fill="#006363" stroke="#006363" stroke-width="0" cx="739.946" cy="435.053" r="21.3333"/>
<circle fill="#006363" stroke="#006363" stroke-width="0" cx="895.234" cy="294.989" r="21.3333"/>
<polygon points="1256,469.333 256,1469.33 -744,469.333" style="fill:#000000; stroke:#000000;stroke-width:0"/>
<polygon points="-744,42.6667 256,-957.333 1256,42.6667" style="fill:#000000; stroke:#000000;stroke-width:0"/>
<circle fill="#a64b00" stroke="#a64b00" stroke-width="0" cx="-136.222" cy="245.644" r="21.3333"/>
<circle fill="#a64b00" stroke="#a64b00" stroke-width="0" cx="-342.261" cy="290.136" r="21.3333"/>
<circle fill="#a64b00" stroke="#a64b00" stroke-width="0" cx="739.946" cy="435.053" r="21.3333"/>
<circle fill="#a64b00" stroke="#a64b00" stroke-width="0" cx="895.234" cy="294.989" r="21.3333"/>
<circle fill="#a64b00" stroke="#a64b00" stroke-width="0" cx="-21.7467" cy="68.2121" r="21.3333"/>
</svg>
