<?xml version="1.0" encoding="utf-8"?> <!-- Generator: Adobe Illustrator 13.0.0, SVG Export Plug-In . SVG Version: 6.00 Build 14948)  --> <svg version="1.2" baseProfile="tiny" id="Layer_1" xmlns="http://www.w3.org/2000/svg" xmlns:xlink="http://www.w3.org/1999/xlink" x="0px" y="0px" width="512px" height="512px" viewBox="0 0 512 512" xml:space="preserve">
<polygon points="0,0 512,0 512,512 0,512" style="fill:#ffffff; stroke:#000000;stroke-width:0"/>
<polygon points="-137.4,211.282 -130.161,253.331 -334.786,288.56 -342.026,246.512" style="fill:#006363; stroke:#000000;stroke-width:0"/>
<circle fill="#006363" stroke="#006363" stroke-width="0" cx="-133.78" cy="232.307" r="21.3333"/>
<circle fill="#006363" stroke="#006363" stroke-width="0" cx="-338.406" cy="267.536" r="21.3333"/>
<polygon points="756.367,461.508 724.642,432.977 871.166,270.055 902.89,298.586" style="fill:#006363; stroke:#000000;stroke-width:0"/>
<circle fill="#006363" stroke="#006363" stroke-width="0" cx="740.505" cy="447.243" r="21.3333"/>
<circle fill="#006363" stroke="#006363" stroke-width="0" cx="887.028" cy="284.321" r="21.3333"/>
<polygon points="1256,469.333 256,1469.33 -744,469.333" style="fill:#000000; stroke:#000000;stroke-width:0"/>
<polygon points="-744,42.6667 256,-957.333 1256,42.6667" style="fill:#000000; stroke:#000000;stroke-width:0"/>
<circle fill="#a64b00" stroke="#a64b00" stroke-width="0" cx="-133.78" cy="232.307" r="21.3333"/>
<circle fill="#a64b00" stroke="#a64b00" stroke-width="0" cx="-338.406" cy="267.536" r="21.3333"/>
<circle fill="#a64b00" stroke="#a64b00" stroke-width="0" cx="740.505" cy="447.243" r="21.3333"/>
<circle fill="#a64b00" stroke="#a64b00" stroke-width="0" cx="887.028" cy="284.321" r="21.3333"/>
<circle fill="#a64b00" stroke="#a64b00" stroke-width="0" cx="-14.5882" cy="163.617" r="21.3333"/>
</svg>
