<?xml version="1.0" encoding="utf-8"?> <!-- Generator: Adobe Illustrator 13.0.0, SVG Export Plug-In . SVG Version: 6.00 Build 14948)  --> <svg version="1.2" baseProfile="tiny" id="Layer_1" xmlns="http://www.w3.org/2000/svg" xmlns:xlink="http://www.w3.org/1999/xlink" x="0px" y="0px" width="512px" height="512px" viewBox="0 0 512 512" xml:space="preserve">
<polygon points="0,0 512,0 512,512 0,512" style="fill:#ffffff; stroke:#000000;stroke-width:0"/>
<polygon points="-339.712,407.821 -380.309,394.693 -313.505,188.127 -272.909,201.256" style="fill:#006363; stroke:#000000;stroke-width:0"/>
<circle fill="#006363" stroke="#006363" stroke-width="0" cx="-360.01" cy="401.257" r="21.3333"/>
<circle fill="#006363" stroke="#006363" stroke-width="0" cx="-293.207" cy="194.691" r="21.3333"/>
<polygon points="964.438,219.455 998.606,245.009 872.128,414.121 837.96,388.568" style="fill:#006363; stroke:#000000;stroke-width:0"/>
<circle fill="#006363" stroke="#006363" stroke-width="0" cx="981.522" cy="232.232" r="21.3333"/>
<circle fill="#006363" stroke="#006363" stroke-width="0" cx="855.044" cy="401.345" r="21.3333"/>
<polygon points="1256,469.333 256,1469.33 -744,469.333" style="fill:#000000; stroke:#000000;stroke-width:0"/>
<polygon points="-744,42.6667 256,-957.333 1256,42.6667" style="fill:#000000; stroke:#000000;stroke-width:0"/>
<circle fill="#a64b00" stroke="#a64b00" stroke-width="0" cx="-360.01" cy="401.257" r="21.3333"/>
<circle fill="#a64b00" stroke="#a64b00" stroke-width="0" cx="-293.207" cy="194.691" r="21.3333"/>
<circle fill="#a64b00" stroke="#a64b00" stroke-width="0" cx="981.522" cy="232.232" r="21.3333"/>
<circle fill="#a64b00" stroke="#a64b00" stroke-width="0" cx="855.044" cy="401.345" r="21.3333"/>
<circle fill="#a64b00" stroke="#a64b00" stroke-width="0" cx="683.786" cy="279.595" r="21.3333"/>
</svg>
