<?xml version="1.0" encoding="utf-8"?> <!-- Generator: Adobe Illustrator 13.0.0, SVG Export Plug-In . SVG Version: 6.00 Build 14948)  --> <svg version="1.2" baseProfile="tiny" id="Layer_1" xmlns="http://www.w3.org/2000/svg" xmlns:xlink="http://www.w3.org/1999/xlink" x="0px" y="0px" width="512px" height="512px" viewBox="0 0 512 512" xml:space="preserve">
<polygon points="0,0 512,0 512,512 0,512" style="fill:#ffffff; stroke:#000000;stroke-width:0"/>
<polygon points="-166.7,300.027 -148.708,338.715 -345.886,430.414 -363.878,391.726" style="fill:#006363; stroke:#000000;stroke-width:0"/>
<circle fill="#006363" stroke="#006363" stroke-width="0" cx="-157.704" cy="319.371" r="21.3333"/>
<circle fill="#006363" stroke="#006363" stroke-width="0" cx="-354.882" cy="411.07" r="21.3333"/>
<polygon points="733.488,389.943 728.102,347.617 943.116,320.257 948.502,362.582" style="fill:#006363; stroke:#000000;stroke-width:0"/>
<circle fill="#006363" stroke="#006363" stroke-width="0" cx="730.795" cy="368.78" r="21.3333"/>
<circle fill="#006363" stroke="#006363" stroke-width="0" cx="945.809" cy="341.419" r="21.3333"/>
<polygon points="1256,469.333 256,1469.33 -744,469.333" style="fill:#000000; stroke:#000000;stroke-width:0"/>
<polygon points="-744,42.6667 256,-957.333 1256,42.6667" style="fill:#000000; stroke:#000000;stroke-width:0"/>
<circle fill="#a64b00" stroke="#a64b00" stroke-width="0" cx="-157.704" cy="319.371" r="21.3333"/>
<circle fill="#a64b00" stroke="#a64b00" stroke-width="0" cx="-354.882" cy="411.07" r="21.3333"/>
<circle fill="#a64b00" stroke="#a64b00" stroke-width="0" cx="730.795" cy="368.78" r="21.3333"/>
<circle fill="#a64b00" stroke="#a64b00" stroke-width="0" cx="945.809" cy="341.419" r="21.3333"/>
<circle fill="#a64b00" stroke="#a64b00" stroke-width="0" cx="-60.5219" cy="211.32" r="21.3333"/>
</svg>
