<?xml version="1.0" encoding="utf-8"?> <!-- Generator: Adobe Illustrator 13.0.0, SVG Export Plug-In . SVG Version: 6.00 Build 14948)  --> <svg version="1.2" baseProfile="tiny" id="Layer_1" xmlns="http://www.w3.org/2000/svg" xmlns:xlink="http://www.w3.org/1999/xlink" x="0px" y="0px" width="512px" height="512px" viewBox="0 0 512 512" xml:space="preserve">
<polygon points="0,0 512,0 512,512 0,512" style="fill:#ffffff; stroke:#000000;stroke-width:0"/>
<polygon points="-291.597,424.192 -333.221,433.564 -378.204,233.797 -336.58,224.424" style="fill:#006363; stroke:#000000;stroke-width:0"/>
<circle fill="#006363" stroke="#006363" stroke-width="0" cx="-312.409" cy="428.878" r="21.3333"/>
<circle fill="#006363" stroke="#006363" stroke-width="0" cx="-357.392" cy="229.111" r="21.3333"/>
<polygon points="994.913,229.92 1022.04,262.851 859.349,396.882 832.22,363.951" style="fill:#006363; stroke:#000000;stroke-width:0"/>
<circle fill="#006363" stroke="#006363" stroke-width="0" cx="1008.48" cy="246.385" r="21.3333"/>
<circle fill="#006363" stroke="#006363" stroke-width="0" cx="845.785" cy="380.416" r="21.3333"/>
<polygon points="1256,469.333 256,1469.33 -744,469.333" style="fill:#000000; stroke:#000000;stroke-width:0"/>
<polygon points="-744,42.6667 256,-957.333 1256,42.6667" style="fill:#000000; stroke:#000000;stroke-width:0"/>
<circle fill="#a64b00" stroke="#a64b00" stroke-width="0" cx="-312.409" cy="428.878" r="21.3333"/>
<circle fill="#a64b00" stroke="#a64b00" stroke-width="0" cx="-357.392" cy="229.111" r="21.3333"/>
<circle fill="#a64b00" stroke="#a64b00" stroke-width="0" cx="1008.48" cy="246.385" r="21.3333"/>
<circle fill="#a64b00" stroke="#a64b00" stroke-width="0" cx="845.785" cy="380.416" r="21.3333"/>
<circle fill="#a64b00" stroke="#a64b00" stroke-width="0" cx="849.809" cy="211.019" r="21.3333"/>
</svg>
