<?xml version="1.0" encoding="utf-8"?> <!-- Generator: Adobe Illustrator 13.0.0, SVG Export Plug-In . SVG Version: 6.00 Build 14948)  --> <svg version="1.2" baseProfile="tiny" id="Layer_1" xmlns="http://www.w3.org/2000/svg" xmlns:xlink="http://www.w3.org/1999/xlink" x="0px" y="0px" width="512px" height="512px" viewBox="0 0 512 512" xml:space="preserve">
<polygon points="0,0 512,0 512,512 0,512" style="fill:#ffffff; stroke:#000000;stroke-width:0"/>
<polygon points="-142.491,131.872 -125.365,92.7935 66.9525,177.077 49.8263,216.155" style="fill:#006363; stroke:#000000;stroke-width:0"/>
<circle fill="#006363" stroke="#006363" stroke-width="0" cx="-133.928" cy="112.333" r="21.3333"/>
<circle fill="#006363" stroke="#006363" stroke-width="0" cx="58.3894" cy="196.616" r="21.3333"/>
<polygon points="584.923,318.175 542.418,314.462 560.812,103.865 603.317,107.577" style="fill:#006363; stroke:#000000;stroke-width:0"/>
<circle fill="#006363" stroke="#006363" stroke-width="0" cx="563.671" cy="316.319" r="21.3333"/>
<circle fill="#006363" stroke="#006363" stroke-width="0" cx="582.064" cy="105.721" r="21.3333"/>
<polygon points="1256,469.333 256,1469.33 -744,469.333" style="fill:#000000; stroke:#000000;stroke-width:0"/>
<polygon points="-744,42.6667 256,-957.333 1256,42.6667" style="fill:#000000; stroke:#000000;stroke-width:0"/>
<circle fill="#a64b00" stroke="#a64b00" stroke-width="0" cx="-133.928" cy="112.333" r="21.3333"/>
<circle fill="#a64b00" stroke="#a64b00" stroke-width="0" cx="58.3894" cy="196.616" r="21.3333"/>
<circle fill="#a64b00" stroke="#a64b00" stroke-width="0" cx="563.671" cy="316.319" r="21.3333"/>
<circle fill="#a64b00" stroke="#a64b00" stroke-width="0" cx="582.064" cy="105.721" r="21.3333"/>
<circle fill="#a64b00" stroke="#a64b00" stroke-width="0" cx="436.397" cy="335.347" r="21.3333"/>
</svg>
