<?xml version="1.0" encoding="utf-8"?> <!-- Generator: Adobe Illustrator 13.0.0, SVG Export Plug-In . SVG Version: 6.00 Build 14948)  --> <svg version="1.2" baseProfile="tiny" id="Layer_1" xmlns="http://www.w3.org/2000/svg" xmlns:xlink="http://www.w3.org/1999/xlink" x="0px" y="0px" width="512px" height="512px" viewBox="0 0 512 512" xml:space="preserve">
<polygon points="0,0 512,0 512,512 0,512" style="fill:#ffffff; stroke:#000000;stroke-width:0"/>
<polygon points="-333.259,414.416 -374.578,403.776 -321.872,199.113 -280.553,209.754" style="fill:#006363; stroke:#000000;stroke-width:0"/>
<circle fill="#006363" stroke="#006363" stroke-width="0" cx="-353.918" cy="409.096" r="21.3333"/>
<circle fill="#006363" stroke="#006363" stroke-width="0" cx="-301.212" cy="204.434" r="21.3333"/>
<polygon points="970.902,216.593 1004.37,243.056 867.576,416.067 834.107,389.605" style="fill:#006363; stroke:#000000;stroke-width:0"/>
<circle fill="#006363" stroke="#006363" stroke-width="0" cx="987.636" cy="229.825" r="21.3333"/>
<circle fill="#006363" stroke="#006363" stroke-width="0" cx="850.842" cy="402.836" r="21.3333"/>
<polygon points="1256,469.333 256,1469.33 -744,469.333" style="fill:#000000; stroke:#000000;stroke-width:0"/>
<polygon points="-744,42.6667 256,-957.333 1256,42.6667" style="fill:#000000; stroke:#000000;stroke-width:0"/>
<circle fill="#a64b00" stroke="#a64b00" stroke-width="0" cx="-353.918" cy="409.096" r="21.3333"/>
<circle fill="#a64b00" stroke="#a64b00" stroke-width="0" cx="-301.212" cy="204.434" r="21.3333"/>
<circle fill="#a64b00" stroke="#a64b00" stroke-width="0" cx="987.636" cy="229.825" r="21.3333"/>
<circle fill="#a64b00" stroke="#a64b00" stroke-width="0" cx="850.842" cy="402.836" r="21.3333"/>
<circle fill="#a64b00" stroke="#a64b00" stroke-width="0" cx="715.947" cy="285.086" r="21.3333"/>
</svg>
