<?xml version="1.0" encoding="utf-8"?> <!-- Generator: Adobe Illustrator 13.0.0, SVG Export Plug-In . SVG Version: 6.00 Build 14948)  --> <svg version="1.2" baseProfile="tiny" id="Layer_1" xmlns="http://www.w3.org/2000/svg" xmlns:xlink="http://www.w3.org/1999/xlink" x="0px" y="0px" width="512px" height="512px" viewBox="0 0 512 512" xml:space="preserve">
<polygon points="0,0 512,0 512,512 0,512" style="fill:#ffffff; stroke:#000000;stroke-width:0"/>
<polygon points="-58.9068,343.989 -52.7216,386.205 -258.503,416.355 -264.688,374.139" style="fill:#006363; stroke:#000000;stroke-width:0"/>
<circle fill="#006363" stroke="#006363" stroke-width="0" cx="-55.8142" cy="365.097" r="21.3333"/>
<circle fill="#006363" stroke="#006363" stroke-width="0" cx="-261.596" cy="395.247" r="21.3333"/>
<polygon points="690.524,408.976 652.504,389.613 749.005,200.123 787.025,219.485" style="fill:#006363; stroke:#000000;stroke-width:0"/>
<circle fill="#006363" stroke="#006363" stroke-width="0" cx="671.514" cy="399.294" r="21.3333"/>
<circle fill="#006363" stroke="#006363" stroke-width="0" cx="768.015" cy="209.804" r="21.3333"/>
<polygon points="1256,469.333 256,1469.33 -744,469.333" style="fill:#000000; stroke:#000000;stroke-width:0"/>
<polygon points="-744,42.6667 256,-957.333 1256,42.6667" style="fill:#000000; stroke:#000000;stroke-width:0"/>
<circle fill="#a64b00" stroke="#a64b00" stroke-width="0" cx="-55.8142" cy="365.097" r="21.3333"/>
<circle fill="#a64b00" stroke="#a64b00" stroke-width="0" cx="-261.596" cy="395.247" r="21.3333"/>
<circle fill="#a64b00" stroke="#a64b00" stroke-width="0" cx="671.514" cy="399.294" r="21.3333"/>
<circle fill="#a64b00" stroke="#a64b00" stroke-width="0" cx="768.015" cy="209.804" r="21.3333"/>
<circle fill="#a64b00" stroke="#a64b00" stroke-width="0" cx="161.392" cy="268.563" r="21.3333"/>
</svg>
