<?xml version="1.0" encoding="utf-8"?> <!-- Generator: Adobe Illustrator 13.0.0, SVG Export Plug-In . SVG Version: 6.00 Build 14948)  --> <svg version="1.2" baseProfile="tiny" id="Layer_1" xmlns="http://www.w3.org/2000/svg" xmlns:xlink="http://www.w3.org/1999/xlink" x="0px" y="0px" width="512px" height="512px" viewBox="0 0 512 512" xml:space="preserve">
<polygon points="0,0 512,0 512,512 0,512" style="fill:#ffffff; stroke:#000000;stroke-width:0"/>
<polygon points="-82.2344,137.633 -74.8708,179.659 -291.839,217.675 -299.203,175.648" style="fill:#006363; stroke:#000000;stroke-width:0"/>
<circle fill="#006363" stroke="#006363" stroke-width="0" cx="-78.5526" cy="158.646" r="21.3333"/>
<circle fill="#006363" stroke="#006363" stroke-width="0" cx="-295.521" cy="196.661" r="21.3333"/>
<polygon points="745.061,299.77 704.159,287.627 763.296,88.4289 804.199,100.572" style="fill:#006363; stroke:#000000;stroke-width:0"/>
<circle fill="#006363" stroke="#006363" stroke-width="0" cx="724.61" cy="293.699" r="21.3333"/>
<circle fill="#006363" stroke="#006363" stroke-width="0" cx="783.748" cy="94.5003" r="21.3333"/>
<polygon points="1256,469.333 256,1469.33 -744,469.333" style="fill:#000000; stroke:#000000;stroke-width:0"/>
<polygon points="-744,42.6667 256,-957.333 1256,42.6667" style="fill:#000000; stroke:#000000;stroke-width:0"/>
<circle fill="#a64b00" stroke="#a64b00" stroke-width="0" cx="-78.5526" cy="158.646" r="21.3333"/>
<circle fill="#a64b00" stroke="#a64b00" stroke-width="0" cx="-295.521" cy="196.661" r="21.3333"/>
<circle fill="#a64b00" stroke="#a64b00" stroke-width="0" cx="724.61" cy="293.699" r="21.3333"/>
<circle fill="#a64b00" stroke="#a64b00" stroke-width="0" cx="783.748" cy="94.5003" r="21.3333"/>
<circle fill="#a64b00" stroke="#a64b00" stroke-width="0" cx="96.9651" cy="383.049" r="21.3333"/>
</svg>
