<?xml version="1.0" encoding="utf-8"?> <!-- Generator: Adobe Illustrator 13.0.0, SVG Export Plug-In . SVG Version: 6.00 Build 14948)  --> <svg version="1.2" baseProfile="tiny" id="Layer_1" xmlns="http://www.w3.org/2000/svg" xmlns:xlink="http://www.w3.org/1999/xlink" x="0px" y="0px" width="512px" height="512px" viewBox="0 0 512 512" xml:space="preserve">
<polygon points="0,0 512,0 512,512 0,512" style="fill:#ffffff; stroke:#000000;stroke-width:0"/>
<polygon points="-168.654,246.787 -203.591,222.295 -84.7463,52.7751 -49.8099,77.2678" style="fill:#006363; stroke:#000000;stroke-width:0"/>
<circle fill="#006363" stroke="#006363" stroke-width="0" cx="-186.123" cy="234.541" r="21.3333"/>
<circle fill="#006363" stroke="#006363" stroke-width="0" cx="-67.2781" cy="65.0215" r="21.3333"/>
<polygon points="573.202,323.527 582.745,281.941 788.577,329.175 779.034,370.76" style="fill:#006363; stroke:#000000;stroke-width:0"/>
<circle fill="#006363" stroke="#006363" stroke-width="0" cx="577.974" cy="302.734" r="21.3333"/>
<circle fill="#006363" stroke="#006363" stroke-width="0" cx="783.805" cy="349.968" r="21.3333"/>
<polygon points="1256,469.333 256,1469.33 -744,469.333" style="fill:#000000; stroke:#000000;stroke-width:0"/>
<polygon points="-744,42.6667 256,-957.333 1256,42.6667" style="fill:#000000; stroke:#000000;stroke-width:0"/>
<circle fill="#a64b00" stroke="#a64b00" stroke-width="0" cx="-186.123" cy="234.541" r="21.3333"/>
<circle fill="#a64b00" stroke="#a64b00" stroke-width="0" cx="-67.2781" cy="65.0215" r="21.3333"/>
<circle fill="#a64b00" stroke="#a64b00" stroke-width="0" cx="577.974" cy="302.734" r="21.3333"/>
<circle fill="#a64b00" stroke="#a64b00" stroke-width="0" cx="783.805" cy="349.968" r="21.3333"/>
<circle fill="#a64b00" stroke="#a64b00" stroke-width="0" cx="234.17" cy="230.401" r="21.3333"/>
</svg>
