<?xml version="1.0" encoding="utf-8"?> <!-- Generator: Adobe Illustrator 13.0.0, SVG Export Plug-In . SVG Version: 6.00 Build 14948)  --> <svg version="1.2" baseProfile="tiny" id="Layer_1" xmlns="http://www.w3.org/2000/svg" xmlns:xlink="http://www.w3.org/1999/xlink" x="0px" y="0px" width="512px" height="512px" viewBox="0 0 512 512" xml:space="preserve">
<polygon points="0,0 512,0 512,512 0,512" style="fill:#ffffff; stroke:#000000;stroke-width:0"/>
<polygon points="-57.8057,321.744 -46.1479,362.787 -257.506,422.821 -269.163,381.778" style="fill:#006363; stroke:#000000;stroke-width:0"/>
<circle fill="#006363" stroke="#006363" stroke-width="0" cx="-51.9768" cy="342.266" r="21.3333"/>
<circle fill="#006363" stroke="#006363" stroke-width="0" cx="-263.335" cy="402.299" r="21.3333"/>
<polygon points="687.79,415.664 650.018,395.82 749.19,207.05 786.962,226.894" style="fill:#006363; stroke:#000000;stroke-width:0"/>
<circle fill="#006363" stroke="#006363" stroke-width="0" cx="668.904" cy="405.742" r="21.3333"/>
<circle fill="#006363" stroke="#006363" stroke-width="0" cx="768.076" cy="216.972" r="21.3333"/>
<polygon points="1256,469.333 256,1469.33 -744,469.333" style="fill:#000000; stroke:#000000;stroke-width:0"/>
<polygon points="-744,42.6667 256,-957.333 1256,42.6667" style="fill:#000000; stroke:#000000;stroke-width:0"/>
<circle fill="#a64b00" stroke="#a64b00" stroke-width="0" cx="-51.9768" cy="342.266" r="21.3333"/>
<circle fill="#a64b00" stroke="#a64b00" stroke-width="0" cx="-263.335" cy="402.299" r="21.3333"/>
<circle fill="#a64b00" stroke="#a64b00" stroke-width="0" cx="668.904" cy="405.742" r="21.3333"/>
<circle fill="#a64b00" stroke="#a64b00" stroke-width="0" cx="768.076" cy="216.972" r="21.3333"/>
<circle fill="#a64b00" stroke="#a64b00" stroke-width="0" cx="163.778" cy="230.401" r="21.3333"/>
</svg>
