<?xml version="1.0" encoding="utf-8"?> <!-- Generator: Adobe Illustrator 13.0.0, SVG Export Plug-In . SVG Version: 6.00 Build 14948)  --> <svg version="1.2" baseProfile="tiny" id="Layer_1" xmlns="http://www.w3.org/2000/svg" xmlns:xlink="http://www.w3.org/1999/xlink" x="0px" y="0px" width="512px" height="512px" viewBox="0 0 512 512" xml:space="preserve">
<polygon points="0,0 512,0 512,512 0,512" style="fill:#ffffff; stroke:#000000;stroke-width:0"/>
<polygon points="-192.596,311.076 -167.416,276.632 4.25406,402.134 -20.9265,436.577" style="fill:#006363; stroke:#000000;stroke-width:0"/>
<circle fill="#006363" stroke="#006363" stroke-width="0" cx="-180.006" cy="293.854" r="21.3333"/>
<circle fill="#006363" stroke="#006363" stroke-width="0" cx="-8.33624" cy="419.355" r="21.3333"/>
<polygon points="655.943,175.058 696.338,188.794 626.811,393.271 586.416,379.536" style="fill:#006363; stroke:#000000;stroke-width:0"/>
<circle fill="#006363" stroke="#006363" stroke-width="0" cx="676.14" cy="181.926" r="21.3333"/>
<circle fill="#006363" stroke="#006363" stroke-width="0" cx="606.614" cy="386.404" r="21.3333"/>
<polygon points="1256,469.333 256,1469.33 -744,469.333" style="fill:#000000; stroke:#000000;stroke-width:0"/>
<polygon points="-744,42.6667 256,-957.333 1256,42.6667" style="fill:#000000; stroke:#000000;stroke-width:0"/>
<circle fill="#a64b00" stroke="#a64b00" stroke-width="0" cx="-180.006" cy="293.854" r="21.3333"/>
<circle fill="#a64b00" stroke="#a64b00" stroke-width="0" cx="-8.33624" cy="419.355" r="21.3333"/>
<circle fill="#a64b00" stroke="#a64b00" stroke-width="0" cx="676.14" cy="181.926" r="21.3333"/>
<circle fill="#a64b00" stroke="#a64b00" stroke-width="0" cx="606.614" cy="386.404" r="21.3333"/>
<circle fill="#a64b00" stroke="#a64b00" stroke-width="0" cx="308.141" cy="268.563" r="21.3333"/>
</svg>
