<?xml version="1.0" encoding="utf-8"?> <!-- Generator: Adobe Illustrator 13.0.0, SVG Export Plug-In . SVG Version: 6.00 Build 14948)  --> <svg version="1.2" baseProfile="tiny" id="Layer_1" xmlns="http://www.w3.org/2000/svg" xmlns:xlink="http://www.w3.org/1999/xlink" x="0px" y="0px" width="512px" height="512px" viewBox="0 0 512 512" xml:space="preserve">
<polygon points="0,0 512,0 512,512 0,512" style="fill:#ffffff; stroke:#000000;stroke-width:0"/>
<polygon points="-81.0033,205.026 -79.0101,247.646 -282.053,257.142 -284.046,214.522" style="fill:#006363; stroke:#000000;stroke-width:0"/>
<circle fill="#006363" stroke="#006363" stroke-width="0" cx="-80.0067" cy="226.336" r="21.3333"/>
<circle fill="#006363" stroke="#006363" stroke-width="0" cx="-283.049" cy="235.832" r="21.3333"/>
<polygon points="742.178,286.774 700.723,276.678 752.797,62.8651 794.252,72.9614" style="fill:#006363; stroke:#000000;stroke-width:0"/>
<circle fill="#006363" stroke="#006363" stroke-width="0" cx="721.45" cy="281.726" r="21.3333"/>
<circle fill="#006363" stroke="#006363" stroke-width="0" cx="773.524" cy="67.9132" r="21.3333"/>
<polygon points="1256,469.333 256,1469.33 -744,469.333" style="fill:#000000; stroke:#000000;stroke-width:0"/>
<polygon points="-744,42.6667 256,-957.333 1256,42.6667" style="fill:#000000; stroke:#000000;stroke-width:0"/>
<circle fill="#a64b00" stroke="#a64b00" stroke-width="0" cx="-80.0067" cy="226.336" r="21.3333"/>
<circle fill="#a64b00" stroke="#a64b00" stroke-width="0" cx="-283.049" cy="235.832" r="21.3333"/>
<circle fill="#a64b00" stroke="#a64b00" stroke-width="0" cx="721.45" cy="281.726" r="21.3333"/>
<circle fill="#a64b00" stroke="#a64b00" stroke-width="0" cx="773.524" cy="67.9132" r="21.3333"/>
<circle fill="#a64b00" stroke="#a64b00" stroke-width="0" cx="109.493" cy="316.266" r="21.3333"/>
</svg>
