<?xml version="1.0" encoding="utf-8"?> <!-- Generator: Adobe Illustrator 13.0.0, SVG Export Plug-In . SVG Version: 6.00 Build 14948)  --> <svg version="1.2" baseProfile="tiny" id="Layer_1" xmlns="http://www.w3.org/2000/svg" xmlns:xlink="http://www.w3.org/1999/xlink" x="0px" y="0px" width="512px" height="512px" viewBox="0 0 512 512" xml:space="preserve">
<polygon points="0,0 512,0 512,512 0,512" style="fill:#ffffff; stroke:#000000;stroke-width:0"/>
<polygon points="-114.137,146.056 -89.8615,110.969 90.5405,235.784 66.2645,270.871" style="fill:#006363; stroke:#000000;stroke-width:0"/>
<circle fill="#006363" stroke="#006363" stroke-width="0" cx="-102" cy="128.512" r="21.3333"/>
<circle fill="#006363" stroke="#006363" stroke-width="0" cx="78.4025" cy="253.327" r="21.3333"/>
<polygon points="439.756,218.834 432.706,176.754 646.253,140.977 653.303,183.057" style="fill:#006363; stroke:#000000;stroke-width:0"/>
<circle fill="#006363" stroke="#006363" stroke-width="0" cx="436.231" cy="197.794" r="21.3333"/>
<circle fill="#006363" stroke="#006363" stroke-width="0" cx="649.778" cy="162.017" r="21.3333"/>
<polygon points="1256,469.333 256,1469.33 -744,469.333" style="fill:#000000; stroke:#000000;stroke-width:0"/>
<polygon points="-744,42.6667 256,-957.333 1256,42.6667" style="fill:#000000; stroke:#000000;stroke-width:0"/>
<circle fill="#a64b00" stroke="#a64b00" stroke-width="0" cx="-102" cy="128.512" r="21.3333"/>
<circle fill="#a64b00" stroke="#a64b00" stroke-width="0" cx="78.4025" cy="253.327" r="21.3333"/>
<circle fill="#a64b00" stroke="#a64b00" stroke-width="0" cx="436.231" cy="197.794" r="21.3333"/>
<circle fill="#a64b00" stroke="#a64b00" stroke-width="0" cx="649.778" cy="162.017" r="21.3333"/>
<circle fill="#a64b00" stroke="#a64b00" stroke-width="0" cx="158.787" cy="140.247" r="21.3333"/>
</svg>
