<?xml version="1.0" encoding="utf-8"?> <!-- Generator: Adobe Illustrator 13.0.0, SVG Export Plug-In . SVG Version: 6.00 Build 14948)  --> <svg version="1.2" baseProfile="tiny" id="Layer_1" xmlns="http://www.w3.org/2000/svg" xmlns:xlink="http://www.w3.org/1999/xlink" x="0px" y="0px" width="512px" height="512px" viewBox="0 0 512 512" xml:space="preserve">
<polygon points="0,0 512,0 512,512 0,512" style="fill:#ffffff; stroke:#000000;stroke-width:0"/>
<polygon points="14.4837,138.875 57.1352,137.736 62.8926,353.392 20.2411,354.531" style="fill:#006363; stroke:#000000;stroke-width:0"/>
<circle fill="#006363" stroke="#006363" stroke-width="0" cx="35.8094" cy="138.305" r="21.3333"/>
<circle fill="#006363" stroke="#006363" stroke-width="0" cx="41.5668" cy="353.961" r="21.3333"/>
<polygon points="451.87,141.75 494.507,140.146 502.476,352.02 459.84,353.624" style="fill:#006363; stroke:#000000;stroke-width:0"/>
<circle fill="#006363" stroke="#006363" stroke-width="0" cx="473.189" cy="140.948" r="21.3333"/>
<circle fill="#006363" stroke="#006363" stroke-width="0" cx="481.158" cy="352.822" r="21.3333"/>
<polygon points="1256,469.333 256,1469.33 -744,469.333" style="fill:#000000; stroke:#000000;stroke-width:0"/>
<polygon points="-744,42.6667 256,-957.333 1256,42.6667" style="fill:#000000; stroke:#000000;stroke-width:0"/>
<circle fill="#a64b00" stroke="#a64b00" stroke-width="0" cx="35.8094" cy="138.305" r="21.3333"/>
<circle fill="#a64b00" stroke="#a64b00" stroke-width="0" cx="41.5668" cy="353.961" r="21.3333"/>
<circle fill="#a64b00" stroke="#a64b00" stroke-width="0" cx="473.189" cy="140.948" r="21.3333"/>
<circle fill="#a64b00" stroke="#a64b00" stroke-width="0" cx="481.158" cy="352.822" r="21.3333"/>
<circle fill="#a64b00" stroke="#a64b00" stroke-width="0" cx="411.686" cy="258.177" r="21.3333"/>
</svg>
