<?xml version="1.0" encoding="utf-8"?> <!-- Generator: Adobe Illustrator 13.0.0, SVG Export Plug-In . SVG Version: 6.00 Build 14948)  --> <svg version="1.2" baseProfile="tiny" id="Layer_1" xmlns="http://www.w3.org/2000/svg" xmlns:xlink="http://www.w3.org/1999/xlink" x="0px" y="0px" width="512px" height="512px" viewBox="0 0 512 512" xml:space="preserve">
<polygon points="0,0 512,0 512,512 0,512" style="fill:#ffffff; stroke:#000000;stroke-width:0"/>
<polygon points="-59.958,426.666 -75.5073,466.399 -266.371,391.704 -250.822,351.971" style="fill:#006363; stroke:#000000;stroke-width:0"/>
<circle fill="#006363" stroke="#006363" stroke-width="0" cx="-67.7326" cy="446.533" r="21.3333"/>
<circle fill="#006363" stroke="#006363" stroke-width="0" cx="-258.597" cy="371.838" r="21.3333"/>
<polygon points="701.672,381.063 662.681,363.738 748.691,170.169 787.682,187.494" style="fill:#006363; stroke:#000000;stroke-width:0"/>
<circle fill="#006363" stroke="#006363" stroke-width="0" cx="682.177" cy="372.4" r="21.3333"/>
<circle fill="#006363" stroke="#006363" stroke-width="0" cx="768.187" cy="178.832" r="21.3333"/>
<polygon points="1256,469.333 256,1469.33 -744,469.333" style="fill:#000000; stroke:#000000;stroke-width:0"/>
<polygon points="-744,42.6667 256,-957.333 1256,42.6667" style="fill:#000000; stroke:#000000;stroke-width:0"/>
<circle fill="#a64b00" stroke="#a64b00" stroke-width="0" cx="-67.7326" cy="446.533" r="21.3333"/>
<circle fill="#a64b00" stroke="#a64b00" stroke-width="0" cx="-258.597" cy="371.838" r="21.3333"/>
<circle fill="#a64b00" stroke="#a64b00" stroke-width="0" cx="682.177" cy="372.4" r="21.3333"/>
<circle fill="#a64b00" stroke="#a64b00" stroke-width="0" cx="768.187" cy="178.832" r="21.3333"/>
<circle fill="#a64b00" stroke="#a64b00" stroke-width="0" cx="151.25" cy="430.752" r="21.3333"/>
</svg>
