<?xml version="1.0" encoding="utf-8"?> <!-- Generator: Adobe Illustrator 13.0.0, SVG Export Plug-In . SVG Version: 6.00 Build 14948)  --> <svg version="1.2" baseProfile="tiny" id="Layer_1" xmlns="http://www.w3.org/2000/svg" xmlns:xlink="http://www.w3.org/1999/xlink" x="0px" y="0px" width="512px" height="512px" viewBox="0 0 512 512" xml:space="preserve">
<polygon points="0,0 512,0 512,512 0,512" style="fill:#ffffff; stroke:#000000;stroke-width:0"/>
<polygon points="-138.655,160.575 -111.116,127.986 49.4746,263.694 21.9352,296.283" style="fill:#006363; stroke:#000000;stroke-width:0"/>
<circle fill="#006363" stroke="#006363" stroke-width="0" cx="-124.885" cy="144.281" r="21.3333"/>
<circle fill="#006363" stroke="#006363" stroke-width="0" cx="35.7049" cy="279.988" r="21.3333"/>
<polygon points="629.312,316.412 588.12,327.531 532.993,123.319 574.185,112.199" style="fill:#006363; stroke:#000000;stroke-width:0"/>
<circle fill="#006363" stroke="#006363" stroke-width="0" cx="608.716" cy="321.972" r="21.3333"/>
<circle fill="#006363" stroke="#006363" stroke-width="0" cx="553.589" cy="117.759" r="21.3333"/>
<polygon points="1256,469.333 256,1469.33 -744,469.333" style="fill:#000000; stroke:#000000;stroke-width:0"/>
<polygon points="-744,42.6667 256,-957.333 1256,42.6667" style="fill:#000000; stroke:#000000;stroke-width:0"/>
<circle fill="#a64b00" stroke="#a64b00" stroke-width="0" cx="-124.885" cy="144.281" r="21.3333"/>
<circle fill="#a64b00" stroke="#a64b00" stroke-width="0" cx="35.7049" cy="279.988" r="21.3333"/>
<circle fill="#a64b00" stroke="#a64b00" stroke-width="0" cx="608.716" cy="321.972" r="21.3333"/>
<circle fill="#a64b00" stroke="#a64b00" stroke-width="0" cx="553.589" cy="117.759" r="21.3333"/>
<circle fill="#a64b00" stroke="#a64b00" stroke-width="0" cx="420.887" cy="87.2932" r="21.3333"/>
</svg>
