<?xml version="1.0" encoding="utf-8"?> <!-- Generator: Adobe Illustrator 13.0.0, SVG Export Plug-In . SVG Version: 6.00 Build 14948)  --> <svg version="1.2" baseProfile="tiny" id="Layer_1" xmlns="http://www.w3.org/2000/svg" xmlns:xlink="http://www.w3.org/1999/xlink" x="0px" y="0px" width="512px" height="512px" viewBox="0 0 512 512" xml:space="preserve">
<polygon points="0,0 512,0 512,512 0,512" style="fill:#ffffff; stroke:#000000;stroke-width:0"/>
<polygon points="-158.925,434.094 -193.831,409.558 -69.8162,233.126 -34.91,257.661" style="fill:#006363; stroke:#000000;stroke-width:0"/>
<circle fill="#006363" stroke="#006363" stroke-width="0" cx="-176.378" cy="421.826" r="21.3333"/>
<circle fill="#006363" stroke="#006363" stroke-width="0" cx="-52.3631" cy="245.394" r="21.3333"/>
<polygon points="579.057,242.302 611.369,214.439 752.769,378.42 720.457,406.283" style="fill:#006363; stroke:#000000;stroke-width:0"/>
<circle fill="#006363" stroke="#006363" stroke-width="0" cx="595.213" cy="228.371" r="21.3333"/>
<circle fill="#006363" stroke="#006363" stroke-width="0" cx="736.613" cy="392.351" r="21.3333"/>
<polygon points="1256,469.333 256,1469.33 -744,469.333" style="fill:#000000; stroke:#000000;stroke-width:0"/>
<polygon points="-744,42.6667 256,-957.333 1256,42.6667" style="fill:#000000; stroke:#000000;stroke-width:0"/>
<circle fill="#a64b00" stroke="#a64b00" stroke-width="0" cx="-176.378" cy="421.826" r="21.3333"/>
<circle fill="#a64b00" stroke="#a64b00" stroke-width="0" cx="-52.3631" cy="245.394" r="21.3333"/>
<circle fill="#a64b00" stroke="#a64b00" stroke-width="0" cx="595.213" cy="228.371" r="21.3333"/>
<circle fill="#a64b00" stroke="#a64b00" stroke-width="0" cx="736.613" cy="392.351" r="21.3333"/>
<circle fill="#a64b00" stroke="#a64b00" stroke-width="0" cx="262.207" cy="220.861" r="21.3333"/>
</svg>
