<?xml version="1.0" encoding="utf-8"?> <!-- Generator: Adobe Illustrator 13.0.0, SVG Export Plug-In . SVG Version: 6.00 Build 14948)  --> <svg version="1.2" baseProfile="tiny" id="Layer_1" xmlns="http://www.w3.org/2000/svg" xmlns:xlink="http://www.w3.org/1999/xlink" x="0px" y="0px" width="512px" height="512px" viewBox="0 0 512 512" xml:space="preserve">
<polygon points="0,0 512,0 512,512 0,512" style="fill:#ffffff; stroke:#000000;stroke-width:0"/>
<polygon points="-157.281,457.423 -192.125,432.799 -68.3127,257.599 -33.4687,282.223" style="fill:#006363; stroke:#000000;stroke-width:0"/>
<circle fill="#006363" stroke="#006363" stroke-width="0" cx="-174.703" cy="445.111" r="21.3333"/>
<circle fill="#006363" stroke="#006363" stroke-width="0" cx="-50.8907" cy="269.911" r="21.3333"/>
<polygon points="584.036,234.853 618.512,209.717 743.966,381.786 709.49,406.922" style="fill:#006363; stroke:#000000;stroke-width:0"/>
<circle fill="#006363" stroke="#006363" stroke-width="0" cx="601.274" cy="222.285" r="21.3333"/>
<circle fill="#006363" stroke="#006363" stroke-width="0" cx="726.728" cy="394.354" r="21.3333"/>
<polygon points="1256,469.333 256,1469.33 -744,469.333" style="fill:#000000; stroke:#000000;stroke-width:0"/>
<polygon points="-744,42.6667 256,-957.333 1256,42.6667" style="fill:#000000; stroke:#000000;stroke-width:0"/>
<circle fill="#a64b00" stroke="#a64b00" stroke-width="0" cx="-174.703" cy="445.111" r="21.3333"/>
<circle fill="#a64b00" stroke="#a64b00" stroke-width="0" cx="-50.8907" cy="269.911" r="21.3333"/>
<circle fill="#a64b00" stroke="#a64b00" stroke-width="0" cx="601.274" cy="222.285" r="21.3333"/>
<circle fill="#a64b00" stroke="#a64b00" stroke-width="0" cx="726.728" cy="394.354" r="21.3333"/>
<circle fill="#a64b00" stroke="#a64b00" stroke-width="0" cx="265.786" cy="163.617" r="21.3333"/>
</svg>
