<?xml version="1.0" encoding="utf-8"?> <!-- Generator: Adobe Illustrator 13.0.0, SVG Export Plug-In . SVG Version: 6.00 Build 14948)  --> <svg version="1.2" baseProfile="tiny" id="Layer_1" xmlns="http://www.w3.org/2000/svg" xmlns:xlink="http://www.w3.org/1999/xlink" x="0px" y="0px" width="512px" height="512px" viewBox="0 0 512 512" xml:space="preserve">
<polygon points="0,0 512,0 512,512 0,512" style="fill:#ffffff; stroke:#000000;stroke-width:0"/>
<polygon points="-158.75,408.16 -193.717,383.712 -73.1398,211.257 -38.1724,235.705" style="fill:#006363; stroke:#000000;stroke-width:0"/>
<circle fill="#006363" stroke="#006363" stroke-width="0" cx="-176.233" cy="395.936" r="21.3333"/>
<circle fill="#006363" stroke="#006363" stroke-width="0" cx="-55.6561" cy="223.481" r="21.3333"/>
<polygon points="577.484,253.348 607.428,222.954 758.165,371.456 728.222,401.85" style="fill:#006363; stroke:#000000;stroke-width:0"/>
<circle fill="#006363" stroke="#006363" stroke-width="0" cx="592.456" cy="238.151" r="21.3333"/>
<circle fill="#006363" stroke="#006363" stroke-width="0" cx="743.194" cy="386.653" r="21.3333"/>
<polygon points="1256,469.333 256,1469.33 -744,469.333" style="fill:#000000; stroke:#000000;stroke-width:0"/>
<polygon points="-744,42.6667 256,-957.333 1256,42.6667" style="fill:#000000; stroke:#000000;stroke-width:0"/>
<circle fill="#a64b00" stroke="#a64b00" stroke-width="0" cx="-176.233" cy="395.936" r="21.3333"/>
<circle fill="#a64b00" stroke="#a64b00" stroke-width="0" cx="-55.6561" cy="223.481" r="21.3333"/>
<circle fill="#a64b00" stroke="#a64b00" stroke-width="0" cx="592.456" cy="238.151" r="21.3333"/>
<circle fill="#a64b00" stroke="#a64b00" stroke-width="0" cx="743.194" cy="386.653" r="21.3333"/>
<circle fill="#a64b00" stroke="#a64b00" stroke-width="0" cx="258.628" cy="278.104" r="21.3333"/>
</svg>
