<?xml version="1.0" encoding="utf-8"?> <!-- Generator: Adobe Illustrator 13.0.0, SVG Export Plug-In . SVG Version: 6.00 Build 14948)  --> <svg version="1.2" baseProfile="tiny" id="Layer_1" xmlns="http://www.w3.org/2000/svg" xmlns:xlink="http://www.w3.org/1999/xlink" x="0px" y="0px" width="512px" height="512px" viewBox="0 0 512 512" xml:space="preserve">
<polygon points="0,0 512,0 512,512 0,512" style="fill:#ffffff; stroke:#000000;stroke-width:0"/>
<polygon points="-164.083,283.101 -148.245,322.719 -340.108,399.423 -355.946,359.805" style="fill:#006363; stroke:#000000;stroke-width:0"/>
<circle fill="#006363" stroke="#006363" stroke-width="0" cx="-156.164" cy="302.91" r="21.3333"/>
<circle fill="#006363" stroke="#006363" stroke-width="0" cx="-348.027" cy="379.614" r="21.3333"/>
<polygon points="732.787,408.198 721.145,367.151 933.62,306.885 945.263,347.933" style="fill:#006363; stroke:#000000;stroke-width:0"/>
<circle fill="#006363" stroke="#006363" stroke-width="0" cx="726.966" cy="387.675" r="21.3333"/>
<circle fill="#006363" stroke="#006363" stroke-width="0" cx="939.441" cy="327.409" r="21.3333"/>
<polygon points="1256,469.333 256,1469.33 -744,469.333" style="fill:#000000; stroke:#000000;stroke-width:0"/>
<polygon points="-744,42.6667 256,-957.333 1256,42.6667" style="fill:#000000; stroke:#000000;stroke-width:0"/>
<circle fill="#a64b00" stroke="#a64b00" stroke-width="0" cx="-156.164" cy="302.91" r="21.3333"/>
<circle fill="#a64b00" stroke="#a64b00" stroke-width="0" cx="-348.027" cy="379.614" r="21.3333"/>
<circle fill="#a64b00" stroke="#a64b00" stroke-width="0" cx="726.966" cy="387.675" r="21.3333"/>
<circle fill="#a64b00" stroke="#a64b00" stroke-width="0" cx="939.441" cy="327.409" r="21.3333"/>
<circle fill="#a64b00" stroke="#a64b00" stroke-width="0" cx="-50.9773" cy="363.968" r="21.3333"/>
</svg>
