<?xml version="1.0" encoding="utf-8"?> <!-- Generator: Adobe Illustrator 13.0.0, SVG Export Plug-In . SVG Version: 6.00 Build 14948)  --> <svg version="1.2" baseProfile="tiny" id="Layer_1" xmlns="http://www.w3.org/2000/svg" xmlns:xlink="http://www.w3.org/1999/xlink" x="0px" y="0px" width="512px" height="512px" viewBox="0 0 512 512" xml:space="preserve">
<polygon points="0,0 512,0 512,512 0,512" style="fill:#ffffff; stroke:#000000;stroke-width:0"/>
<polygon points="-107.741,235.789 -66.7419,223.978 -9.24646,423.555 -50.2457,435.367" style="fill:#006363; stroke:#000000;stroke-width:0"/>
<circle fill="#006363" stroke="#006363" stroke-width="0" cx="-87.2415" cy="229.883" r="21.3333"/>
<circle fill="#006363" stroke="#006363" stroke-width="0" cx="-29.7461" cy="429.461" r="21.3333"/>
<polygon points="697.239,278.866 673.439,314.277 498.842,196.927 522.643,161.516" style="fill:#006363; stroke:#000000;stroke-width:0"/>
<circle fill="#006363" stroke="#006363" stroke-width="0" cx="685.339" cy="296.571" r="21.3333"/>
<circle fill="#006363" stroke="#006363" stroke-width="0" cx="510.743" cy="179.221" r="21.3333"/>
<polygon points="1256,469.333 256,1469.33 -744,469.333" style="fill:#000000; stroke:#000000;stroke-width:0"/>
<polygon points="-744,42.6667 256,-957.333 1256,42.6667" style="fill:#000000; stroke:#000000;stroke-width:0"/>
<circle fill="#a64b00" stroke="#a64b00" stroke-width="0" cx="-87.2415" cy="229.883" r="21.3333"/>
<circle fill="#a64b00" stroke="#a64b00" stroke-width="0" cx="-29.7461" cy="429.461" r="21.3333"/>
<circle fill="#a64b00" stroke="#a64b00" stroke-width="0" cx="685.339" cy="296.571" r="21.3333"/>
<circle fill="#a64b00" stroke="#a64b00" stroke-width="0" cx="510.743" cy="179.221" r="21.3333"/>
<circle fill="#a64b00" stroke="#a64b00" stroke-width="0" cx="389.271" cy="363.968" r="21.3333"/>
</svg>
