<?xml version="1.0" encoding="utf-8"?> <!-- Generator: Adobe Illustrator 13.0.0, SVG Export Plug-In . SVG Version: 6.00 Build 14948)  --> <svg version="1.2" baseProfile="tiny" id="Layer_1" xmlns="http://www.w3.org/2000/svg" xmlns:xlink="http://www.w3.org/1999/xlink" x="0px" y="0px" width="512px" height="512px" viewBox="0 0 512 512" xml:space="preserve">
<polygon points="0,0 512,0 512,512 0,512" style="fill:#ffffff; stroke:#000000;stroke-width:0"/>
<polygon points="-37.9678,217.265 3.49764,207.212 53.8536,414.916 12.3881,424.969" style="fill:#006363; stroke:#000000;stroke-width:0"/>
<circle fill="#006363" stroke="#006363" stroke-width="0" cx="-17.2351" cy="212.238" r="21.3333"/>
<circle fill="#006363" stroke="#006363" stroke-width="0" cx="33.1208" cy="419.943" r="21.3333"/>
<polygon points="446.303,78.0719 483.239,56.7142 589.158,239.892 552.222,261.25" style="fill:#006363; stroke:#000000;stroke-width:0"/>
<circle fill="#006363" stroke="#006363" stroke-width="0" cx="464.771" cy="67.3931" r="21.3333"/>
<circle fill="#006363" stroke="#006363" stroke-width="0" cx="570.69" cy="250.571" r="21.3333"/>
<polygon points="1256,469.333 256,1469.33 -744,469.333" style="fill:#000000; stroke:#000000;stroke-width:0"/>
<polygon points="-744,42.6667 256,-957.333 1256,42.6667" style="fill:#000000; stroke:#000000;stroke-width:0"/>
<circle fill="#a64b00" stroke="#a64b00" stroke-width="0" cx="-17.2351" cy="212.238" r="21.3333"/>
<circle fill="#a64b00" stroke="#a64b00" stroke-width="0" cx="33.1208" cy="419.943" r="21.3333"/>
<circle fill="#a64b00" stroke="#a64b00" stroke-width="0" cx="464.771" cy="67.3931" r="21.3333"/>
<circle fill="#a64b00" stroke="#a64b00" stroke-width="0" cx="570.69" cy="250.571" r="21.3333"/>
<circle fill="#a64b00" stroke="#a64b00" stroke-width="0" cx="252.021" cy="351.425" r="21.3333"/>
</svg>
