<?xml version="1.0" encoding="utf-8"?> <!-- Generator: Adobe Illustrator 13.0.0, SVG Export Plug-In . SVG Version: 6.00 Build 14948)  --> <svg version="1.2" baseProfile="tiny" id="Layer_1" xmlns="http://www.w3.org/2000/svg" xmlns:xlink="http://www.w3.org/1999/xlink" x="0px" y="0px" width="512px" height="512px" viewBox="0 0 512 512" xml:space="preserve">
<polygon points="0,0 512,0 512,512 0,512" style="fill:#ffffff; stroke:#000000;stroke-width:0"/>
<polygon points="-90.8438,71.7916 -92.7656,114.415 -316.284,104.337 -314.362,61.7137" style="fill:#006363; stroke:#000000;stroke-width:0"/>
<circle fill="#006363" stroke="#006363" stroke-width="0" cx="-91.8047" cy="93.1033" r="21.3333"/>
<circle fill="#006363" stroke="#006363" stroke-width="0" cx="-315.323" cy="83.0254" r="21.3333"/>
<polygon points="749.137,355.787 710.504,337.678 799.371,148.092 838.004,166.201" style="fill:#006363; stroke:#000000;stroke-width:0"/>
<circle fill="#006363" stroke="#006363" stroke-width="0" cx="729.82" cy="346.732" r="21.3333"/>
<circle fill="#006363" stroke="#006363" stroke-width="0" cx="818.687" cy="157.146" r="21.3333"/>
<polygon points="1256,469.333 256,1469.33 -744,469.333" style="fill:#000000; stroke:#000000;stroke-width:0"/>
<polygon points="-744,42.6667 256,-957.333 1256,42.6667" style="fill:#000000; stroke:#000000;stroke-width:0"/>
<circle fill="#a64b00" stroke="#a64b00" stroke-width="0" cx="-91.8047" cy="93.1033" r="21.3333"/>
<circle fill="#a64b00" stroke="#a64b00" stroke-width="0" cx="-315.323" cy="83.0254" r="21.3333"/>
<circle fill="#a64b00" stroke="#a64b00" stroke-width="0" cx="729.82" cy="346.732" r="21.3333"/>
<circle fill="#a64b00" stroke="#a64b00" stroke-width="0" cx="818.687" cy="157.146" r="21.3333"/>
<circle fill="#a64b00" stroke="#a64b00" stroke-width="0" cx="59.383" cy="335.347" r="21.3333"/>
</svg>
