<?xml version="1.0" encoding="utf-8"?> <!-- Generator: Adobe Illustrator 13.0.0, SVG Export Plug-In . SVG Version: 6.00 Build 14948)  --> <svg version="1.2" baseProfile="tiny" id="Layer_1" xmlns="http://www.w3.org/2000/svg" xmlns:xlink="http://www.w3.org/1999/xlink" x="0px" y="0px" width="512px" height="512px" viewBox="0 0 512 512" xml:space="preserve">
<polygon points="0,0 512,0 512,512 0,512" style="fill:#ffffff; stroke:#000000;stroke-width:0"/>
<polygon points="-244.339,218.865 -241.546,176.289 -26.3762,190.4 -29.1682,232.975" style="fill:#006363; stroke:#000000;stroke-width:0"/>
<circle fill="#006363" stroke="#006363" stroke-width="0" cx="-242.942" cy="197.577" r="21.3333"/>
<circle fill="#006363" stroke="#006363" stroke-width="0" cx="-27.7722" cy="211.688" r="21.3333"/>
<polygon points="591.163,381.809 581.868,340.167 791.647,293.346 800.941,334.988" style="fill:#006363; stroke:#000000;stroke-width:0"/>
<circle fill="#006363" stroke="#006363" stroke-width="0" cx="586.516" cy="360.988" r="21.3333"/>
<circle fill="#006363" stroke="#006363" stroke-width="0" cx="796.294" cy="314.167" r="21.3333"/>
<polygon points="1256,469.333 256,1469.33 -744,469.333" style="fill:#000000; stroke:#000000;stroke-width:0"/>
<polygon points="-744,42.6667 256,-957.333 1256,42.6667" style="fill:#000000; stroke:#000000;stroke-width:0"/>
<circle fill="#a64b00" stroke="#a64b00" stroke-width="0" cx="-242.942" cy="197.577" r="21.3333"/>
<circle fill="#a64b00" stroke="#a64b00" stroke-width="0" cx="-27.7722" cy="211.688" r="21.3333"/>
<circle fill="#a64b00" stroke="#a64b00" stroke-width="0" cx="586.516" cy="360.988" r="21.3333"/>
<circle fill="#a64b00" stroke="#a64b00" stroke-width="0" cx="796.294" cy="314.167" r="21.3333"/>
<circle fill="#a64b00" stroke="#a64b00" stroke-width="0" cx="214.484" cy="201.779" r="21.3333"/>
</svg>
