<?xml version="1.0" encoding="utf-8"?> <!-- Generator: Adobe Illustrator 13.0.0, SVG Export Plug-In . SVG Version: 6.00 Build 14948)  --> <svg version="1.2" baseProfile="tiny" id="Layer_1" xmlns="http://www.w3.org/2000/svg" xmlns:xlink="http://www.w3.org/1999/xlink" x="0px" y="0px" width="512px" height="512px" viewBox="0 0 512 512" xml:space="preserve">
<polygon points="0,0 512,0 512,512 0,512" style="fill:#ffffff; stroke:#000000;stroke-width:0"/>
<polygon points="-242.601,223.199 -243.841,180.551 -26.5398,174.231 -25.2995,216.88" style="fill:#006363; stroke:#000000;stroke-width:0"/>
<circle fill="#006363" stroke="#006363" stroke-width="0" cx="-243.221" cy="201.875" r="21.3333"/>
<circle fill="#006363" stroke="#006363" stroke-width="0" cx="-25.9197" cy="195.555" r="21.3333"/>
<polygon points="588.572,376.786 580.931,334.809 792.326,296.328 799.967,338.305" style="fill:#006363; stroke:#000000;stroke-width:0"/>
<circle fill="#006363" stroke="#006363" stroke-width="0" cx="584.751" cy="355.797" r="21.3333"/>
<circle fill="#006363" stroke="#006363" stroke-width="0" cx="796.147" cy="317.317" r="21.3333"/>
<polygon points="1256,469.333 256,1469.33 -744,469.333" style="fill:#000000; stroke:#000000;stroke-width:0"/>
<polygon points="-744,42.6667 256,-957.333 1256,42.6667" style="fill:#000000; stroke:#000000;stroke-width:0"/>
<circle fill="#a64b00" stroke="#a64b00" stroke-width="0" cx="-243.221" cy="201.875" r="21.3333"/>
<circle fill="#a64b00" stroke="#a64b00" stroke-width="0" cx="-25.9197" cy="195.555" r="21.3333"/>
<circle fill="#a64b00" stroke="#a64b00" stroke-width="0" cx="584.751" cy="355.797" r="21.3333"/>
<circle fill="#a64b00" stroke="#a64b00" stroke-width="0" cx="796.147" cy="317.317" r="21.3333"/>
<circle fill="#a64b00" stroke="#a64b00" stroke-width="0" cx="216.274" cy="173.158" r="21.3333"/>
</svg>
