<?xml version="1.0" encoding="utf-8"?> <!-- Generator: Adobe Illustrator 13.0.0, SVG Export Plug-In . SVG Version: 6.00 Build 14948)  --> <svg version="1.2" baseProfile="tiny" id="Layer_1" xmlns="http://www.w3.org/2000/svg" xmlns:xlink="http://www.w3.org/1999/xlink" x="0px" y="0px" width="512px" height="512px" viewBox="0 0 512 512" xml:space="preserve">
<polygon points="0,0 512,0 512,512 0,512" style="fill:#ffffff; stroke:#000000;stroke-width:0"/>
<polygon points="-42.2616,232.531 -0.982124,221.739 52.9301,427.969 11.6506,438.76" style="fill:#006363; stroke:#000000;stroke-width:0"/>
<circle fill="#006363" stroke="#006363" stroke-width="0" cx="-21.6219" cy="227.135" r="21.3333"/>
<circle fill="#006363" stroke="#006363" stroke-width="0" cx="32.2904" cy="433.364" r="21.3333"/>
<polygon points="438.819,89.8629 472.121,63.1912 603.559,227.306 570.257,253.978" style="fill:#006363; stroke:#000000;stroke-width:0"/>
<circle fill="#006363" stroke="#006363" stroke-width="0" cx="455.47" cy="76.5271" r="21.3333"/>
<circle fill="#006363" stroke="#006363" stroke-width="0" cx="586.908" cy="240.642" r="21.3333"/>
<polygon points="1256,469.333 256,1469.33 -744,469.333" style="fill:#000000; stroke:#000000;stroke-width:0"/>
<polygon points="-744,42.6667 256,-957.333 1256,42.6667" style="fill:#000000; stroke:#000000;stroke-width:0"/>
<circle fill="#a64b00" stroke="#a64b00" stroke-width="0" cx="-21.6219" cy="227.135" r="21.3333"/>
<circle fill="#a64b00" stroke="#a64b00" stroke-width="0" cx="32.2904" cy="433.364" r="21.3333"/>
<circle fill="#a64b00" stroke="#a64b00" stroke-width="0" cx="455.47" cy="76.5271" r="21.3333"/>
<circle fill="#a64b00" stroke="#a64b00" stroke-width="0" cx="586.908" cy="240.642" r="21.3333"/>
<circle fill="#a64b00" stroke="#a64b00" stroke-width="0" cx="220.697" cy="452.311" r="21.3333"/>
</svg>
