<?xml version="1.0" encoding="utf-8"?> <!-- Generator: Adobe Illustrator 13.0.0, SVG Export Plug-In . SVG Version: 6.00 Build 14948)  --> <svg version="1.2" baseProfile="tiny" id="Layer_1" xmlns="http://www.w3.org/2000/svg" xmlns:xlink="http://www.w3.org/1999/xlink" x="0px" y="0px" width="512px" height="512px" viewBox="0 0 512 512" xml:space="preserve">
<polygon points="0,0 512,0 512,512 0,512" style="fill:#ffffff; stroke:#000000;stroke-width:0"/>
<polygon points="-130.513,183.747 -126.737,226.246 -329.082,244.221 -332.857,201.722" style="fill:#006363; stroke:#000000;stroke-width:0"/>
<circle fill="#006363" stroke="#006363" stroke-width="0" cx="-128.625" cy="204.996" r="21.3333"/>
<circle fill="#006363" stroke="#006363" stroke-width="0" cx="-330.97" cy="222.972" r="21.3333"/>
<polygon points="754.888,441.848 721.584,415.177 857.35,245.648 890.653,272.318" style="fill:#006363; stroke:#000000;stroke-width:0"/>
<circle fill="#006363" stroke="#006363" stroke-width="0" cx="738.236" cy="428.512" r="21.3333"/>
<circle fill="#006363" stroke="#006363" stroke-width="0" cx="874.001" cy="258.983" r="21.3333"/>
<polygon points="1256,469.333 256,1469.33 -744,469.333" style="fill:#000000; stroke:#000000;stroke-width:0"/>
<polygon points="-744,42.6667 256,-957.333 1256,42.6667" style="fill:#000000; stroke:#000000;stroke-width:0"/>
<circle fill="#a64b00" stroke="#a64b00" stroke-width="0" cx="-128.625" cy="204.996" r="21.3333"/>
<circle fill="#a64b00" stroke="#a64b00" stroke-width="0" cx="-330.97" cy="222.972" r="21.3333"/>
<circle fill="#a64b00" stroke="#a64b00" stroke-width="0" cx="738.236" cy="428.512" r="21.3333"/>
<circle fill="#a64b00" stroke="#a64b00" stroke-width="0" cx="874.001" cy="258.983" r="21.3333"/>
<circle fill="#a64b00" stroke="#a64b00" stroke-width="0" cx="-0.271207" cy="392.59" r="21.3333"/>
</svg>
