<?xml version="1.0" encoding="utf-8"?> <!-- Generator: Adobe Illustrator 13.0.0, SVG Export Plug-In . SVG Version: 6.00 Build 14948)  --> <svg version="1.2" baseProfile="tiny" id="Layer_1" xmlns="http://www.w3.org/2000/svg" xmlns:xlink="http://www.w3.org/1999/xlink" x="0px" y="0px" width="512px" height="512px" viewBox="0 0 512 512" xml:space="preserve">
<polygon points="0,0 512,0 512,512 0,512" style="fill:#ffffff; stroke:#000000;stroke-width:0"/>
<polygon points="-69.5294,303.561 -52.6172,342.733 -243.683,425.225 -260.595,386.053" style="fill:#006363; stroke:#000000;stroke-width:0"/>
<circle fill="#006363" stroke="#006363" stroke-width="0" cx="-61.0733" cy="323.147" r="21.3333"/>
<circle fill="#006363" stroke="#006363" stroke-width="0" cx="-252.139" cy="405.639" r="21.3333"/>
<polygon points="685.008,422.525 647.482,402.222 749.423,213.805 786.949,234.108" style="fill:#006363; stroke:#000000;stroke-width:0"/>
<circle fill="#006363" stroke="#006363" stroke-width="0" cx="666.245" cy="412.373" r="21.3333"/>
<circle fill="#006363" stroke="#006363" stroke-width="0" cx="768.186" cy="223.957" r="21.3333"/>
<polygon points="1256,469.333 256,1469.33 -744,469.333" style="fill:#000000; stroke:#000000;stroke-width:0"/>
<polygon points="-744,42.6667 256,-957.333 1256,42.6667" style="fill:#000000; stroke:#000000;stroke-width:0"/>
<circle fill="#a64b00" stroke="#a64b00" stroke-width="0" cx="-61.0733" cy="323.147" r="21.3333"/>
<circle fill="#a64b00" stroke="#a64b00" stroke-width="0" cx="-252.139" cy="405.639" r="21.3333"/>
<circle fill="#a64b00" stroke="#a64b00" stroke-width="0" cx="666.245" cy="412.373" r="21.3333"/>
<circle fill="#a64b00" stroke="#a64b00" stroke-width="0" cx="768.186" cy="223.957" r="21.3333"/>
<circle fill="#a64b00" stroke="#a64b00" stroke-width="0" cx="166.164" cy="192.239" r="21.3333"/>
</svg>
