<?xml version="1.0" encoding="utf-8"?> <!-- Generator: Adobe Illustrator 13.0.0, SVG Export Plug-In . SVG Version: 6.00 Build 14948)  --> <svg version="1.2" baseProfile="tiny" id="Layer_1" xmlns="http://www.w3.org/2000/svg" xmlns:xlink="http://www.w3.org/1999/xlink" x="0px" y="0px" width="512px" height="512px" viewBox="0 0 512 512" xml:space="preserve">
<polygon points="0,0 512,0 512,512 0,512" style="fill:#ffffff; stroke:#000000;stroke-width:0"/>
<polygon points="-233.721,232.424 -243.466,190.885 -32.2719,141.338 -22.5268,182.877" style="fill:#006363; stroke:#000000;stroke-width:0"/>
<circle fill="#006363" stroke="#006363" stroke-width="0" cx="-238.593" cy="211.655" r="21.3333"/>
<circle fill="#006363" stroke="#006363" stroke-width="0" cx="-27.3994" cy="162.108" r="21.3333"/>
<polygon points="583.385,366.315 579.2,323.854 793.689,302.716 797.874,345.177" style="fill:#006363; stroke:#000000;stroke-width:0"/>
<circle fill="#006363" stroke="#006363" stroke-width="0" cx="581.293" cy="345.085" r="21.3333"/>
<circle fill="#006363" stroke="#006363" stroke-width="0" cx="795.782" cy="323.947" r="21.3333"/>
<polygon points="1256,469.333 256,1469.33 -744,469.333" style="fill:#000000; stroke:#000000;stroke-width:0"/>
<polygon points="-744,42.6667 256,-957.333 1256,42.6667" style="fill:#000000; stroke:#000000;stroke-width:0"/>
<circle fill="#a64b00" stroke="#a64b00" stroke-width="0" cx="-238.593" cy="211.655" r="21.3333"/>
<circle fill="#a64b00" stroke="#a64b00" stroke-width="0" cx="-27.3994" cy="162.108" r="21.3333"/>
<circle fill="#a64b00" stroke="#a64b00" stroke-width="0" cx="581.293" cy="345.085" r="21.3333"/>
<circle fill="#a64b00" stroke="#a64b00" stroke-width="0" cx="795.782" cy="323.947" r="21.3333"/>
<circle fill="#a64b00" stroke="#a64b00" stroke-width="0" cx="219.853" cy="115.915" r="21.3333"/>
</svg>
