<?xml version="1.0" encoding="utf-8"?> <!-- Generator: Adobe Illustrator 13.0.0, SVG Export Plug-In . SVG Version: 6.00 Build 14948)  --> <svg version="1.2" baseProfile="tiny" id="Layer_1" xmlns="http://www.w3.org/2000/svg" xmlns:xlink="http://www.w3.org/1999/xlink" x="0px" y="0px" width="512px" height="512px" viewBox="0 0 512 512" xml:space="preserve">
<polygon points="0,0 512,0 512,512 0,512" style="fill:#ffffff; stroke:#000000;stroke-width:0"/>
<polygon points="-112.16,73.4208 -69.8905,67.6163 -41.0291,277.792 -83.299,283.597" style="fill:#006363; stroke:#000000;stroke-width:0"/>
<circle fill="#006363" stroke="#006363" stroke-width="0" cx="-91.0255" cy="70.5186" r="21.3333"/>
<circle fill="#006363" stroke="#006363" stroke-width="0" cx="-62.164" cy="280.694" r="21.3333"/>
<polygon points="712.395,206.177 726.585,246.415 527.66,316.565 513.47,276.327" style="fill:#006363; stroke:#000000;stroke-width:0"/>
<circle fill="#006363" stroke="#006363" stroke-width="0" cx="719.49" cy="226.296" r="21.3333"/>
<circle fill="#006363" stroke="#006363" stroke-width="0" cx="520.565" cy="296.446" r="21.3333"/>
<polygon points="1256,469.333 256,1469.33 -744,469.333" style="fill:#000000; stroke:#000000;stroke-width:0"/>
<polygon points="-744,42.6667 256,-957.333 1256,42.6667" style="fill:#000000; stroke:#000000;stroke-width:0"/>
<circle fill="#a64b00" stroke="#a64b00" stroke-width="0" cx="-91.0255" cy="70.5186" r="21.3333"/>
<circle fill="#a64b00" stroke="#a64b00" stroke-width="0" cx="-62.164" cy="280.694" r="21.3333"/>
<circle fill="#a64b00" stroke="#a64b00" stroke-width="0" cx="719.49" cy="226.296" r="21.3333"/>
<circle fill="#a64b00" stroke="#a64b00" stroke-width="0" cx="520.565" cy="296.446" r="21.3333"/>
<circle fill="#a64b00" stroke="#a64b00" stroke-width="0" cx="348.109" cy="411.671" r="21.3333"/>
</svg>
