<?xml version="1.0" encoding="utf-8"?> <!-- Generator: Adobe Illustrator 13.0.0, SVG Export Plug-In . SVG Version: 6.00 Build 14948)  --> <svg version="1.2" baseProfile="tiny" id="Layer_1" xmlns="http://www.w3.org/2000/svg" xmlns:xlink="http://www.w3.org/1999/xlink" x="0px" y="0px" width="512px" height="512px" viewBox="0 0 512 512" xml:space="preserve">
<polygon points="0,0 512,0 512,512 0,512" style="fill:#ffffff; stroke:#000000;stroke-width:0"/>
<polygon points="-39.0904,227.718 2.29138,217.326 52.5682,417.533 11.1864,427.925" style="fill:#006363; stroke:#000000;stroke-width:0"/>
<circle fill="#006363" stroke="#006363" stroke-width="0" cx="-18.3995" cy="222.522" r="21.3333"/>
<circle fill="#006363" stroke="#006363" stroke-width="0" cx="31.8773" cy="422.729" r="21.3333"/>
<polygon points="442.764,79.8186 478.333,56.2552 595.89,233.711 560.32,257.274" style="fill:#006363; stroke:#000000;stroke-width:0"/>
<circle fill="#006363" stroke="#006363" stroke-width="0" cx="460.548" cy="68.0369" r="21.3333"/>
<circle fill="#006363" stroke="#006363" stroke-width="0" cx="578.105" cy="245.492" r="21.3333"/>
<polygon points="1256,469.333 256,1469.33 -744,469.333" style="fill:#000000; stroke:#000000;stroke-width:0"/>
<polygon points="-744,42.6667 256,-957.333 1256,42.6667" style="fill:#000000; stroke:#000000;stroke-width:0"/>
<circle fill="#a64b00" stroke="#a64b00" stroke-width="0" cx="-18.3995" cy="222.522" r="21.3333"/>
<circle fill="#a64b00" stroke="#a64b00" stroke-width="0" cx="31.8773" cy="422.729" r="21.3333"/>
<circle fill="#a64b00" stroke="#a64b00" stroke-width="0" cx="460.548" cy="68.0369" r="21.3333"/>
<circle fill="#a64b00" stroke="#a64b00" stroke-width="0" cx="578.105" cy="245.492" r="21.3333"/>
<circle fill="#a64b00" stroke="#a64b00" stroke-width="0" cx="237.564" cy="397.988" r="21.3333"/>
</svg>
