<?xml version="1.0" encoding="utf-8"?> <!-- Generator: Adobe Illustrator 13.0.0, SVG Export Plug-In . SVG Version: 6.00 Build 14948)  --> <svg version="1.2" baseProfile="tiny" id="Layer_1" xmlns="http://www.w3.org/2000/svg" xmlns:xlink="http://www.w3.org/1999/xlink" x="0px" y="0px" width="512px" height="512px" viewBox="0 0 512 512" xml:space="preserve">
<polygon points="0,0 512,0 512,512 0,512" style="fill:#ffffff; stroke:#000000;stroke-width:0"/>
<polygon points="-175.625,243.373 -209.105,216.925 -79.3502,52.6687 -45.8697,79.1167" style="fill:#006363; stroke:#000000;stroke-width:0"/>
<circle fill="#006363" stroke="#006363" stroke-width="0" cx="-192.365" cy="230.149" r="21.3333"/>
<circle fill="#006363" stroke="#006363" stroke-width="0" cx="-62.6099" cy="65.8927" r="21.3333"/>
<polygon points="573.351,328.86 581.165,286.915 790.34,325.883 782.525,367.828" style="fill:#006363; stroke:#000000;stroke-width:0"/>
<circle fill="#006363" stroke="#006363" stroke-width="0" cx="577.258" cy="307.887" r="21.3333"/>
<circle fill="#006363" stroke="#006363" stroke-width="0" cx="786.432" cy="346.855" r="21.3333"/>
<polygon points="1256,469.333 256,1469.33 -744,469.333" style="fill:#000000; stroke:#000000;stroke-width:0"/>
<polygon points="-744,42.6667 256,-957.333 1256,42.6667" style="fill:#000000; stroke:#000000;stroke-width:0"/>
<circle fill="#a64b00" stroke="#a64b00" stroke-width="0" cx="-192.365" cy="230.149" r="21.3333"/>
<circle fill="#a64b00" stroke="#a64b00" stroke-width="0" cx="-62.6099" cy="65.8927" r="21.3333"/>
<circle fill="#a64b00" stroke="#a64b00" stroke-width="0" cx="577.258" cy="307.887" r="21.3333"/>
<circle fill="#a64b00" stroke="#a64b00" stroke-width="0" cx="786.432" cy="346.855" r="21.3333"/>
<circle fill="#a64b00" stroke="#a64b00" stroke-width="0" cx="232.38" cy="201.779" r="21.3333"/>
</svg>
