<?xml version="1.0" encoding="utf-8"?> <!-- Generator: Adobe Illustrator 13.0.0, SVG Export Plug-In . SVG Version: 6.00 Build 14948)  --> <svg version="1.2" baseProfile="tiny" id="Layer_1" xmlns="http://www.w3.org/2000/svg" xmlns:xlink="http://www.w3.org/1999/xlink" x="0px" y="0px" width="512px" height="512px" viewBox="0 0 512 512" xml:space="preserve">
<polygon points="0,0 512,0 512,512 0,512" style="fill:#ffffff; stroke:#000000;stroke-width:0"/>
<polygon points="-33.431,202.761 8.21187,193.471 54.534,401.101 12.8911,410.392" style="fill:#006363; stroke:#000000;stroke-width:0"/>
<circle fill="#006363" stroke="#006363" stroke-width="0" cx="-12.6096" cy="198.116" r="21.3333"/>
<circle fill="#006363" stroke="#006363" stroke-width="0" cx="33.7126" cy="405.747" r="21.3333"/>
<polygon points="446.321,94.1142 484.31,74.6911 582.222,266.195 544.233,285.618" style="fill:#006363; stroke:#000000;stroke-width:0"/>
<circle fill="#006363" stroke="#006363" stroke-width="0" cx="465.316" cy="84.4027" r="21.3333"/>
<circle fill="#006363" stroke="#006363" stroke-width="0" cx="563.228" cy="275.906" r="21.3333"/>
<polygon points="1256,469.333 256,1469.33 -744,469.333" style="fill:#000000; stroke:#000000;stroke-width:0"/>
<polygon points="-744,42.6667 256,-957.333 1256,42.6667" style="fill:#000000; stroke:#000000;stroke-width:0"/>
<circle fill="#a64b00" stroke="#a64b00" stroke-width="0" cx="-12.6096" cy="198.116" r="21.3333"/>
<circle fill="#a64b00" stroke="#a64b00" stroke-width="0" cx="33.7126" cy="405.747" r="21.3333"/>
<circle fill="#a64b00" stroke="#a64b00" stroke-width="0" cx="465.316" cy="84.4027" r="21.3333"/>
<circle fill="#a64b00" stroke="#a64b00" stroke-width="0" cx="563.228" cy="275.906" r="21.3333"/>
<circle fill="#a64b00" stroke="#a64b00" stroke-width="0" cx="283.346" cy="250.538" r="21.3333"/>
</svg>
