<?xml version="1.0" encoding="utf-8"?> <!-- Generator: Adobe Illustrator 13.0.0, SVG Export Plug-In . SVG Version: 6.00 Build 14948)  --> <svg version="1.2" baseProfile="tiny" id="Layer_1" xmlns="http://www.w3.org/2000/svg" xmlns:xlink="http://www.w3.org/1999/xlink" x="0px" y="0px" width="512px" height="512px" viewBox="0 0 512 512" xml:space="preserve">
<polygon points="0,0 512,0 512,512 0,512" style="fill:#ffffff; stroke:#000000;stroke-width:0"/>
<polygon points="-140.717,143.228 -119.342,106.301 59.9316,210.075 38.5566,247.001" style="fill:#006363; stroke:#000000;stroke-width:0"/>
<circle fill="#006363" stroke="#006363" stroke-width="0" cx="-130.03" cy="124.765" r="21.3333"/>
<circle fill="#006363" stroke="#006363" stroke-width="0" cx="49.2441" cy="228.538" r="21.3333"/>
<polygon points="602.432,318.38 559.815,320.438 549.676,110.464 592.293,108.406" style="fill:#006363; stroke:#000000;stroke-width:0"/>
<circle fill="#006363" stroke="#006363" stroke-width="0" cx="581.124" cy="319.409" r="21.3333"/>
<circle fill="#006363" stroke="#006363" stroke-width="0" cx="570.984" cy="109.435" r="21.3333"/>
<polygon points="1256,469.333 256,1469.33 -744,469.333" style="fill:#000000; stroke:#000000;stroke-width:0"/>
<polygon points="-744,42.6667 256,-957.333 1256,42.6667" style="fill:#000000; stroke:#000000;stroke-width:0"/>
<circle fill="#a64b00" stroke="#a64b00" stroke-width="0" cx="-130.03" cy="124.765" r="21.3333"/>
<circle fill="#a64b00" stroke="#a64b00" stroke-width="0" cx="49.2441" cy="228.538" r="21.3333"/>
<circle fill="#a64b00" stroke="#a64b00" stroke-width="0" cx="581.124" cy="319.409" r="21.3333"/>
<circle fill="#a64b00" stroke="#a64b00" stroke-width="0" cx="570.984" cy="109.435" r="21.3333"/>
<circle fill="#a64b00" stroke="#a64b00" stroke-width="0" cx="430.432" cy="239.942" r="21.3333"/>
</svg>
