<?xml version="1.0" encoding="utf-8"?> <!-- Generator: Adobe Illustrator 13.0.0, SVG Export Plug-In . SVG Version: 6.00 Build 14948)  --> <svg version="1.2" baseProfile="tiny" id="Layer_1" xmlns="http://www.w3.org/2000/svg" xmlns:xlink="http://www.w3.org/1999/xlink" x="0px" y="0px" width="512px" height="512px" viewBox="0 0 512 512" xml:space="preserve">
<polygon points="0,0 512,0 512,512 0,512" style="fill:#ffffff; stroke:#000000;stroke-width:0"/>
<polygon points="-131.49,216.591 -123.37,258.478 -343.844,301.22 -351.965,259.334" style="fill:#006363; stroke:#000000;stroke-width:0"/>
<circle fill="#006363" stroke="#006363" stroke-width="0" cx="-127.43" cy="237.535" r="21.3333"/>
<circle fill="#006363" stroke="#006363" stroke-width="0" cx="-347.905" cy="280.277" r="21.3333"/>
<polygon points="757.084,455.139 726.825,425.059 874.272,276.734 904.531,306.815" style="fill:#006363; stroke:#000000;stroke-width:0"/>
<circle fill="#006363" stroke="#006363" stroke-width="0" cx="741.955" cy="440.099" r="21.3333"/>
<circle fill="#006363" stroke="#006363" stroke-width="0" cx="889.401" cy="291.775" r="21.3333"/>
<polygon points="1256,469.333 256,1469.33 -744,469.333" style="fill:#000000; stroke:#000000;stroke-width:0"/>
<polygon points="-744,42.6667 256,-957.333 1256,42.6667" style="fill:#000000; stroke:#000000;stroke-width:0"/>
<circle fill="#a64b00" stroke="#a64b00" stroke-width="0" cx="-127.43" cy="237.535" r="21.3333"/>
<circle fill="#a64b00" stroke="#a64b00" stroke-width="0" cx="-347.905" cy="280.277" r="21.3333"/>
<circle fill="#a64b00" stroke="#a64b00" stroke-width="0" cx="741.955" cy="440.099" r="21.3333"/>
<circle fill="#a64b00" stroke="#a64b00" stroke-width="0" cx="889.401" cy="291.775" r="21.3333"/>
<circle fill="#a64b00" stroke="#a64b00" stroke-width="0" cx="-18.1675" cy="106.374" r="21.3333"/>
</svg>
