<?xml version="1.0" encoding="utf-8"?> <!-- Generator: Adobe Illustrator 13.0.0, SVG Export Plug-In . SVG Version: 6.00 Build 14948)  --> <svg version="1.2" baseProfile="tiny" id="Layer_1" xmlns="http://www.w3.org/2000/svg" xmlns:xlink="http://www.w3.org/1999/xlink" x="0px" y="0px" width="512px" height="512px" viewBox="0 0 512 512" xml:space="preserve">
<polygon points="0,0 512,0 512,512 0,512" style="fill:#ffffff; stroke:#000000;stroke-width:0"/>
<polygon points="-63.9978,306.769 -70.1202,348.995 -282.269,318.234 -276.146,276.009" style="fill:#006363; stroke:#000000;stroke-width:0"/>
<circle fill="#006363" stroke="#006363" stroke-width="0" cx="-67.059" cy="327.882" r="21.3333"/>
<circle fill="#006363" stroke="#006363" stroke-width="0" cx="-279.208" cy="297.121" r="21.3333"/>
<polygon points="725.694,320.619 684.933,308.01 748.887,101.265 789.648,113.874" style="fill:#006363; stroke:#000000;stroke-width:0"/>
<circle fill="#006363" stroke="#006363" stroke-width="0" cx="705.313" cy="314.315" r="21.3333"/>
<circle fill="#006363" stroke="#006363" stroke-width="0" cx="769.267" cy="107.569" r="21.3333"/>
<polygon points="1256,469.333 256,1469.33 -744,469.333" style="fill:#000000; stroke:#000000;stroke-width:0"/>
<polygon points="-744,42.6667 256,-957.333 1256,42.6667" style="fill:#000000; stroke:#000000;stroke-width:0"/>
<circle fill="#a64b00" stroke="#a64b00" stroke-width="0" cx="-67.059" cy="327.882" r="21.3333"/>
<circle fill="#a64b00" stroke="#a64b00" stroke-width="0" cx="-279.208" cy="297.121" r="21.3333"/>
<circle fill="#a64b00" stroke="#a64b00" stroke-width="0" cx="705.313" cy="314.315" r="21.3333"/>
<circle fill="#a64b00" stroke="#a64b00" stroke-width="0" cx="769.267" cy="107.569" r="21.3333"/>
<circle fill="#a64b00" stroke="#a64b00" stroke-width="0" cx="128.582" cy="106.374" r="21.3333"/>
</svg>
