<?xml version="1.0" encoding="utf-8"?> <!-- Generator: Adobe Illustrator 13.0.0, SVG Export Plug-In . SVG Version: 6.00 Build 14948)  --> <svg version="1.2" baseProfile="tiny" id="Layer_1" xmlns="http://www.w3.org/2000/svg" xmlns:xlink="http://www.w3.org/1999/xlink" x="0px" y="0px" width="512px" height="512px" viewBox="0 0 512 512" xml:space="preserve">
<polygon points="0,0 512,0 512,512 0,512" style="fill:#ffffff; stroke:#000000;stroke-width:0"/>
<polygon points="-255.019,343.627 -297.599,346.345 -311.607,126.878 -269.027,124.16" style="fill:#006363; stroke:#000000;stroke-width:0"/>
<circle fill="#006363" stroke="#006363" stroke-width="0" cx="-276.309" cy="344.986" r="21.3333"/>
<circle fill="#006363" stroke="#006363" stroke-width="0" cx="-290.317" cy="125.519" r="21.3333"/>
<polygon points="784.757,276.015 816.341,247.33 957.489,402.741 925.905,431.427" style="fill:#006363; stroke:#000000;stroke-width:0"/>
<circle fill="#006363" stroke="#006363" stroke-width="0" cx="800.549" cy="261.672" r="21.3333"/>
<circle fill="#006363" stroke="#006363" stroke-width="0" cx="941.697" cy="417.084" r="21.3333"/>
<polygon points="1256,469.333 256,1469.33 -744,469.333" style="fill:#000000; stroke:#000000;stroke-width:0"/>
<polygon points="-744,42.6667 256,-957.333 1256,42.6667" style="fill:#000000; stroke:#000000;stroke-width:0"/>
<circle fill="#a64b00" stroke="#a64b00" stroke-width="0" cx="-276.309" cy="344.986" r="21.3333"/>
<circle fill="#a64b00" stroke="#a64b00" stroke-width="0" cx="-290.317" cy="125.519" r="21.3333"/>
<circle fill="#a64b00" stroke="#a64b00" stroke-width="0" cx="800.549" cy="261.672" r="21.3333"/>
<circle fill="#a64b00" stroke="#a64b00" stroke-width="0" cx="941.697" cy="417.084" r="21.3333"/>
<circle fill="#a64b00" stroke="#a64b00" stroke-width="0" cx="-121.966" cy="106.374" r="21.3333"/>
</svg>
