<?xml version="1.0" encoding="utf-8"?> <!-- Generator: Adobe Illustrator 13.0.0, SVG Export Plug-In . SVG Version: 6.00 Build 14948)  --> <svg version="1.2" baseProfile="tiny" id="Layer_1" xmlns="http://www.w3.org/2000/svg" xmlns:xlink="http://www.w3.org/1999/xlink" x="0px" y="0px" width="512px" height="512px" viewBox="0 0 512 512" xml:space="preserve">
<polygon points="0,0 512,0 512,512 0,512" style="fill:#ffffff; stroke:#000000;stroke-width:0"/>
<polygon points="11.4376,100.963 54.0724,99.3156 62.379,314.237 19.7441,315.884" style="fill:#006363; stroke:#000000;stroke-width:0"/>
<circle fill="#006363" stroke="#006363" stroke-width="0" cx="32.755" cy="100.139" r="21.3333"/>
<circle fill="#006363" stroke="#006363" stroke-width="0" cx="41.0616" cy="315.061" r="21.3333"/>
<polygon points="454.035,173.57 496.647,171.407 507.413,383.514 464.801,385.677" style="fill:#006363; stroke:#000000;stroke-width:0"/>
<circle fill="#006363" stroke="#006363" stroke-width="0" cx="475.341" cy="172.489" r="21.3333"/>
<circle fill="#006363" stroke="#006363" stroke-width="0" cx="486.107" cy="384.595" r="21.3333"/>
<polygon points="1256,469.333 256,1469.33 -744,469.333" style="fill:#000000; stroke:#000000;stroke-width:0"/>
<polygon points="-744,42.6667 256,-957.333 1256,42.6667" style="fill:#000000; stroke:#000000;stroke-width:0"/>
<circle fill="#a64b00" stroke="#a64b00" stroke-width="0" cx="32.755" cy="100.139" r="21.3333"/>
<circle fill="#a64b00" stroke="#a64b00" stroke-width="0" cx="41.0616" cy="315.061" r="21.3333"/>
<circle fill="#a64b00" stroke="#a64b00" stroke-width="0" cx="475.341" cy="172.489" r="21.3333"/>
<circle fill="#a64b00" stroke="#a64b00" stroke-width="0" cx="486.107" cy="384.595" r="21.3333"/>
<circle fill="#a64b00" stroke="#a64b00" stroke-width="0" cx="238.931" cy="270.51" r="21.3333"/>
</svg>
