<?xml version="1.0" encoding="utf-8"?> <!-- Generator: Adobe Illustrator 13.0.0, SVG Export Plug-In . SVG Version: 6.00 Build 14948)  --> <svg version="1.2" baseProfile="tiny" id="Layer_1" xmlns="http://www.w3.org/2000/svg" xmlns:xlink="http://www.w3.org/1999/xlink" x="0px" y="0px" width="512px" height="512px" viewBox="0 0 512 512" xml:space="preserve">
<polygon points="0,0 512,0 512,512 0,512" style="fill:#ffffff; stroke:#000000;stroke-width:0"/>
<polygon points="-238.471,345.531 -280.157,354.628 -325.007,149.109 -283.322,140.012" style="fill:#006363; stroke:#000000;stroke-width:0"/>
<circle fill="#006363" stroke="#006363" stroke-width="0" cx="-259.314" cy="350.08" r="21.3333"/>
<circle fill="#006363" stroke="#006363" stroke-width="0" cx="-304.164" cy="144.561" r="21.3333"/>
<polygon points="775.503,278.092 805.414,247.665 962.919,402.496 933.008,432.923" style="fill:#006363; stroke:#000000;stroke-width:0"/>
<circle fill="#006363" stroke="#006363" stroke-width="0" cx="790.458" cy="262.879" r="21.3333"/>
<circle fill="#006363" stroke="#006363" stroke-width="0" cx="947.964" cy="417.709" r="21.3333"/>
<polygon points="1256,469.333 256,1469.33 -744,469.333" style="fill:#000000; stroke:#000000;stroke-width:0"/>
<polygon points="-744,42.6667 256,-957.333 1256,42.6667" style="fill:#000000; stroke:#000000;stroke-width:0"/>
<circle fill="#a64b00" stroke="#a64b00" stroke-width="0" cx="-259.314" cy="350.08" r="21.3333"/>
<circle fill="#a64b00" stroke="#a64b00" stroke-width="0" cx="-304.164" cy="144.561" r="21.3333"/>
<circle fill="#a64b00" stroke="#a64b00" stroke-width="0" cx="790.458" cy="262.879" r="21.3333"/>
<circle fill="#a64b00" stroke="#a64b00" stroke-width="0" cx="947.964" cy="417.709" r="21.3333"/>
<circle fill="#a64b00" stroke="#a64b00" stroke-width="0" cx="-118.387" cy="68.2121" r="21.3333"/>
</svg>
