<?xml version="1.0" encoding="utf-8"?> <!-- Generator: Adobe Illustrator 13.0.0, SVG Export Plug-In . SVG Version: 6.00 Build 14948)  --> <svg version="1.2" baseProfile="tiny" id="Layer_1" xmlns="http://www.w3.org/2000/svg" xmlns:xlink="http://www.w3.org/1999/xlink" x="0px" y="0px" width="512px" height="512px" viewBox="0 0 512 512" xml:space="preserve">
<polygon points="0,0 512,0 512,512 0,512" style="fill:#ffffff; stroke:#000000;stroke-width:0"/>
<polygon points="-241.676,202.444 -223.918,163.649 -34.8099,250.212 -52.5683,289.008" style="fill:#006363; stroke:#000000;stroke-width:0"/>
<circle fill="#006363" stroke="#006363" stroke-width="0" cx="-232.797" cy="183.046" r="21.3333"/>
<circle fill="#006363" stroke="#006363" stroke-width="0" cx="-43.6891" cy="269.61" r="21.3333"/>
<polygon points="604.414,399.106 589.054,359.3 785.406,283.533 800.766,323.339" style="fill:#006363; stroke:#000000;stroke-width:0"/>
<circle fill="#006363" stroke="#006363" stroke-width="0" cx="596.734" cy="379.203" r="21.3333"/>
<circle fill="#006363" stroke="#006363" stroke-width="0" cx="793.086" cy="303.436" r="21.3333"/>
<polygon points="1256,469.333 256,1469.33 -744,469.333" style="fill:#000000; stroke:#000000;stroke-width:0"/>
<polygon points="-744,42.6667 256,-957.333 1256,42.6667" style="fill:#000000; stroke:#000000;stroke-width:0"/>
<circle fill="#a64b00" stroke="#a64b00" stroke-width="0" cx="-232.797" cy="183.046" r="21.3333"/>
<circle fill="#a64b00" stroke="#a64b00" stroke-width="0" cx="-43.6891" cy="269.61" r="21.3333"/>
<circle fill="#a64b00" stroke="#a64b00" stroke-width="0" cx="596.734" cy="379.203" r="21.3333"/>
<circle fill="#a64b00" stroke="#a64b00" stroke-width="0" cx="793.086" cy="303.436" r="21.3333"/>
<circle fill="#a64b00" stroke="#a64b00" stroke-width="0" cx="207.922" cy="306.725" r="21.3333"/>
</svg>
