<?xml version="1.0" encoding="utf-8"?> <!-- Generator: Adobe Illustrator 13.0.0, SVG Export Plug-In . SVG Version: 6.00 Build 14948)  --> <svg version="1.2" baseProfile="tiny" id="Layer_1" xmlns="http://www.w3.org/2000/svg" xmlns:xlink="http://www.w3.org/1999/xlink" x="0px" y="0px" width="512px" height="512px" viewBox="0 0 512 512" xml:space="preserve">
<polygon points="0,0 512,0 512,512 0,512" style="fill:#ffffff; stroke:#000000;stroke-width:0"/>
<polygon points="-412.128,121.171 -409.032,78.6164 -199.63,93.85 -202.726,136.404" style="fill:#006363; stroke:#000000;stroke-width:0"/>
<circle fill="#006363" stroke="#006363" stroke-width="0" cx="-410.58" cy="99.8935" r="21.3333"/>
<circle fill="#006363" stroke="#006363" stroke-width="0" cx="-201.178" cy="115.127" r="21.3333"/>
<polygon points="879.965,218.746 922.606,220.223 915.177,434.673 872.536,433.196" style="fill:#006363; stroke:#000000;stroke-width:0"/>
<circle fill="#006363" stroke="#006363" stroke-width="0" cx="901.285" cy="219.485" r="21.3333"/>
<circle fill="#006363" stroke="#006363" stroke-width="0" cx="893.857" cy="433.935" r="21.3333"/>
<polygon points="1256,469.333 256,1469.33 -744,469.333" style="fill:#000000; stroke:#000000;stroke-width:0"/>
<polygon points="-744,42.6667 256,-957.333 1256,42.6667" style="fill:#000000; stroke:#000000;stroke-width:0"/>
<circle fill="#a64b00" stroke="#a64b00" stroke-width="0" cx="-410.58" cy="99.8935" r="21.3333"/>
<circle fill="#a64b00" stroke="#a64b00" stroke-width="0" cx="-201.178" cy="115.127" r="21.3333"/>
<circle fill="#a64b00" stroke="#a64b00" stroke-width="0" cx="901.285" cy="219.485" r="21.3333"/>
<circle fill="#a64b00" stroke="#a64b00" stroke-width="0" cx="893.857" cy="433.935" r="21.3333"/>
<circle fill="#a64b00" stroke="#a64b00" stroke-width="0" cx="-13.0413" cy="160.621" r="21.3333"/>
</svg>
