<?xml version="1.0" encoding="utf-8"?> <!-- Generator: Adobe Illustrator 13.0.0, SVG Export Plug-In . SVG Version: 6.00 Build 14948)  --> <svg version="1.2" baseProfile="tiny" id="Layer_1" xmlns="http://www.w3.org/2000/svg" xmlns:xlink="http://www.w3.org/1999/xlink" x="0px" y="0px" width="512px" height="512px" viewBox="0 0 512 512" xml:space="preserve">
<polygon points="0,0 512,0 512,512 0,512" style="fill:#ffffff; stroke:#000000;stroke-width:0"/>
<polygon points="-208.463,402.714 -217.145,360.939 0.708481,315.665 9.39,357.439" style="fill:#006363; stroke:#000000;stroke-width:0"/>
<circle fill="#006363" stroke="#006363" stroke-width="0" cx="-212.804" cy="381.827" r="21.3333"/>
<circle fill="#006363" stroke="#006363" stroke-width="0" cx="5.04924" cy="336.552" r="21.3333"/>
<polygon points="614.124,196.254 656.166,188.978 692.21,397.252 650.168,404.527" style="fill:#006363; stroke:#000000;stroke-width:0"/>
<circle fill="#006363" stroke="#006363" stroke-width="0" cx="635.145" cy="192.616" r="21.3333"/>
<circle fill="#006363" stroke="#006363" stroke-width="0" cx="671.189" cy="400.889" r="21.3333"/>
<polygon points="1256,469.333 256,1469.33 -744,469.333" style="fill:#000000; stroke:#000000;stroke-width:0"/>
<polygon points="-744,42.6667 256,-957.333 1256,42.6667" style="fill:#000000; stroke:#000000;stroke-width:0"/>
<circle fill="#a64b00" stroke="#a64b00" stroke-width="0" cx="-212.804" cy="381.827" r="21.3333"/>
<circle fill="#a64b00" stroke="#a64b00" stroke-width="0" cx="5.04924" cy="336.552" r="21.3333"/>
<circle fill="#a64b00" stroke="#a64b00" stroke-width="0" cx="635.145" cy="192.616" r="21.3333"/>
<circle fill="#a64b00" stroke="#a64b00" stroke-width="0" cx="671.189" cy="400.889" r="21.3333"/>
<circle fill="#a64b00" stroke="#a64b00" stroke-width="0" cx="286.069" cy="278.104" r="21.3333"/>
</svg>
