<?xml version="1.0" encoding="utf-8"?> <!-- Generator: Adobe Illustrator 13.0.0, SVG Export Plug-In . SVG Version: 6.00 Build 14948)  --> <svg version="1.2" baseProfile="tiny" id="Layer_1" xmlns="http://www.w3.org/2000/svg" xmlns:xlink="http://www.w3.org/1999/xlink" x="0px" y="0px" width="512px" height="512px" viewBox="0 0 512 512" xml:space="preserve">
<polygon points="0,0 512,0 512,512 0,512" style="fill:#ffffff; stroke:#000000;stroke-width:0"/>
<polygon points="-134.172,177.947 -101.309,150.736 36.597,317.288 3.73365,344.499" style="fill:#006363; stroke:#000000;stroke-width:0"/>
<circle fill="#006363" stroke="#006363" stroke-width="0" cx="-117.74" cy="164.342" r="21.3333"/>
<circle fill="#006363" stroke="#006363" stroke-width="0" cx="20.1653" cy="330.893" r="21.3333"/>
<polygon points="654.667,310.646 616.811,330.329 517.835,139.971 555.69,120.288" style="fill:#006363; stroke:#000000;stroke-width:0"/>
<circle fill="#006363" stroke="#006363" stroke-width="0" cx="635.739" cy="320.488" r="21.3333"/>
<circle fill="#006363" stroke="#006363" stroke-width="0" cx="536.763" cy="130.13" r="21.3333"/>
<polygon points="1256,469.333 256,1469.33 -744,469.333" style="fill:#000000; stroke:#000000;stroke-width:0"/>
<polygon points="-744,42.6667 256,-957.333 1256,42.6667" style="fill:#000000; stroke:#000000;stroke-width:0"/>
<circle fill="#a64b00" stroke="#a64b00" stroke-width="0" cx="-117.74" cy="164.342" r="21.3333"/>
<circle fill="#a64b00" stroke="#a64b00" stroke-width="0" cx="20.1653" cy="330.893" r="21.3333"/>
<circle fill="#a64b00" stroke="#a64b00" stroke-width="0" cx="635.739" cy="320.488" r="21.3333"/>
<circle fill="#a64b00" stroke="#a64b00" stroke-width="0" cx="536.763" cy="130.13" r="21.3333"/>
<circle fill="#a64b00" stroke="#a64b00" stroke-width="0" cx="411.343" cy="182.698" r="21.3333"/>
</svg>
