<?xml version="1.0" encoding="utf-8"?> <!-- Generator: Adobe Illustrator 13.0.0, SVG Export Plug-In . SVG Version: 6.00 Build 14948)  --> <svg version="1.2" baseProfile="tiny" id="Layer_1" xmlns="http://www.w3.org/2000/svg" xmlns:xlink="http://www.w3.org/1999/xlink" x="0px" y="0px" width="512px" height="512px" viewBox="0 0 512 512" xml:space="preserve">
<polygon points="0,0 512,0 512,512 0,512" style="fill:#ffffff; stroke:#000000;stroke-width:0"/>
<polygon points="-52.6504,240.996 -12.2538,227.264 55.6937,427.153 15.2971,440.885" style="fill:#006363; stroke:#000000;stroke-width:0"/>
<circle fill="#006363" stroke="#006363" stroke-width="0" cx="-32.4521" cy="234.13" r="21.3333"/>
<circle fill="#006363" stroke="#006363" stroke-width="0" cx="35.4954" cy="434.019" r="21.3333"/>
<polygon points="428.627,116.227 454.419,82.2393 623.861,210.822 598.068,244.81" style="fill:#006363; stroke:#000000;stroke-width:0"/>
<circle fill="#006363" stroke="#006363" stroke-width="0" cx="441.523" cy="99.2334" r="21.3333"/>
<circle fill="#006363" stroke="#006363" stroke-width="0" cx="610.965" cy="227.816" r="21.3333"/>
<polygon points="1256,469.333 256,1469.33 -744,469.333" style="fill:#000000; stroke:#000000;stroke-width:0"/>
<polygon points="-744,42.6667 256,-957.333 1256,42.6667" style="fill:#000000; stroke:#000000;stroke-width:0"/>
<circle fill="#a64b00" stroke="#a64b00" stroke-width="0" cx="-32.4521" cy="234.13" r="21.3333"/>
<circle fill="#a64b00" stroke="#a64b00" stroke-width="0" cx="35.4954" cy="434.019" r="21.3333"/>
<circle fill="#a64b00" stroke="#a64b00" stroke-width="0" cx="441.523" cy="99.2334" r="21.3333"/>
<circle fill="#a64b00" stroke="#a64b00" stroke-width="0" cx="610.965" cy="227.816" r="21.3333"/>
<circle fill="#a64b00" stroke="#a64b00" stroke-width="0" cx="174.916" cy="304.862" r="21.3333"/>
</svg>
