<?xml version="1.0" encoding="utf-8"?> <!-- Generator: Adobe Illustrator 13.0.0, SVG Export Plug-In . SVG Version: 6.00 Build 14948)  --> <svg version="1.2" baseProfile="tiny" id="Layer_1" xmlns="http://www.w3.org/2000/svg" xmlns:xlink="http://www.w3.org/1999/xlink" x="0px" y="0px" width="512px" height="512px" viewBox="0 0 512 512" xml:space="preserve">
<polygon points="0,0 512,0 512,512 0,512" style="fill:#ffffff; stroke:#000000;stroke-width:0"/>
<polygon points="9.61331,77.7852 52.2356,75.8391 62.1093,292.081 19.487,294.028" style="fill:#006363; stroke:#000000;stroke-width:0"/>
<circle fill="#006363" stroke="#006363" stroke-width="0" cx="30.9244" cy="76.8122" r="21.3333"/>
<circle fill="#006363" stroke="#006363" stroke-width="0" cx="40.7981" cy="293.055" r="21.3333"/>
<polygon points="455.334,192.779 497.928,190.286 510.29,401.549 467.696,404.041" style="fill:#006363; stroke:#000000;stroke-width:0"/>
<circle fill="#006363" stroke="#006363" stroke-width="0" cx="476.631" cy="191.532" r="21.3333"/>
<circle fill="#006363" stroke="#006363" stroke-width="0" cx="488.993" cy="402.795" r="21.3333"/>
<polygon points="1256,469.333 256,1469.33 -744,469.333" style="fill:#000000; stroke:#000000;stroke-width:0"/>
<polygon points="-744,42.6667 256,-957.333 1256,42.6667" style="fill:#000000; stroke:#000000;stroke-width:0"/>
<circle fill="#a64b00" stroke="#a64b00" stroke-width="0" cx="30.9244" cy="76.8122" r="21.3333"/>
<circle fill="#a64b00" stroke="#a64b00" stroke-width="0" cx="40.7981" cy="293.055" r="21.3333"/>
<circle fill="#a64b00" stroke="#a64b00" stroke-width="0" cx="476.631" cy="191.532" r="21.3333"/>
<circle fill="#a64b00" stroke="#a64b00" stroke-width="0" cx="488.993" cy="402.795" r="21.3333"/>
<circle fill="#a64b00" stroke="#a64b00" stroke-width="0" cx="137.31" cy="277.765" r="21.3333"/>
</svg>
