<?xml version="1.0" encoding="utf-8"?> <!-- Generator: Adobe Illustrator 13.0.0, SVG Export Plug-In . SVG Version: 6.00 Build 14948)  --> <svg version="1.2" baseProfile="tiny" id="Layer_1" xmlns="http://www.w3.org/2000/svg" xmlns:xlink="http://www.w3.org/1999/xlink" x="0px" y="0px" width="512px" height="512px" viewBox="0 0 512 512" xml:space="preserve">
<polygon points="0,0 512,0 512,512 0,512" style="fill:#ffffff; stroke:#000000;stroke-width:0"/>
<polygon points="-0.645763,92.2577 41.8637,88.5983 60.2761,302.486 17.7667,306.145" style="fill:#006363; stroke:#000000;stroke-width:0"/>
<circle fill="#006363" stroke="#006363" stroke-width="0" cx="20.609" cy="90.428" r="21.3333"/>
<circle fill="#006363" stroke="#006363" stroke-width="0" cx="39.0214" cy="304.316" r="21.3333"/>
<polygon points="457.63,231.306 500.079,227.001 521.778,440.955 479.329,445.261" style="fill:#006363; stroke:#000000;stroke-width:0"/>
<circle fill="#006363" stroke="#006363" stroke-width="0" cx="478.854" cy="229.154" r="21.3333"/>
<circle fill="#006363" stroke="#006363" stroke-width="0" cx="500.554" cy="443.108" r="21.3333"/>
<polygon points="1256,469.333 256,1469.33 -744,469.333" style="fill:#000000; stroke:#000000;stroke-width:0"/>
<polygon points="-744,42.6667 256,-957.333 1256,42.6667" style="fill:#000000; stroke:#000000;stroke-width:0"/>
<circle fill="#a64b00" stroke="#a64b00" stroke-width="0" cx="20.609" cy="90.428" r="21.3333"/>
<circle fill="#a64b00" stroke="#a64b00" stroke-width="0" cx="39.0214" cy="304.316" r="21.3333"/>
<circle fill="#a64b00" stroke="#a64b00" stroke-width="0" cx="478.854" cy="229.154" r="21.3333"/>
<circle fill="#a64b00" stroke="#a64b00" stroke-width="0" cx="500.554" cy="443.108" r="21.3333"/>
<circle fill="#a64b00" stroke="#a64b00" stroke-width="0" cx="320.174" cy="372.268" r="21.3333"/>
</svg>
