<?xml version="1.0" encoding="utf-8"?> <!-- Generator: Adobe Illustrator 13.0.0, SVG Export Plug-In . SVG Version: 6.00 Build 14948)  --> <svg version="1.2" baseProfile="tiny" id="Layer_1" xmlns="http://www.w3.org/2000/svg" xmlns:xlink="http://www.w3.org/1999/xlink" x="0px" y="0px" width="512px" height="512px" viewBox="0 0 512 512" xml:space="preserve">
<polygon points="0,0 512,0 512,512 0,512" style="fill:#ffffff; stroke:#000000;stroke-width:0"/>
<polygon points="-282.679,424.024 -323.406,436.743 -389.673,224.559 -348.947,211.84" style="fill:#006363; stroke:#000000;stroke-width:0"/>
<circle fill="#006363" stroke="#006363" stroke-width="0" cx="-303.042" cy="430.383" r="21.3333"/>
<circle fill="#006363" stroke="#006363" stroke-width="0" cx="-369.31" cy="218.199" r="21.3333"/>
<polygon points="1001.99,229.884 1027.96,263.732 855.324,396.213 829.349,362.364" style="fill:#006363; stroke:#000000;stroke-width:0"/>
<circle fill="#006363" stroke="#006363" stroke-width="0" cx="1014.98" cy="246.808" r="21.3333"/>
<circle fill="#006363" stroke="#006363" stroke-width="0" cx="842.337" cy="379.289" r="21.3333"/>
<polygon points="1256,469.333 256,1469.33 -744,469.333" style="fill:#000000; stroke:#000000;stroke-width:0"/>
<polygon points="-744,42.6667 256,-957.333 1256,42.6667" style="fill:#000000; stroke:#000000;stroke-width:0"/>
<circle fill="#a64b00" stroke="#a64b00" stroke-width="0" cx="-303.042" cy="430.383" r="21.3333"/>
<circle fill="#a64b00" stroke="#a64b00" stroke-width="0" cx="-369.31" cy="218.199" r="21.3333"/>
<circle fill="#a64b00" stroke="#a64b00" stroke-width="0" cx="1014.98" cy="246.808" r="21.3333"/>
<circle fill="#a64b00" stroke="#a64b00" stroke-width="0" cx="842.337" cy="379.289" r="21.3333"/>
<circle fill="#a64b00" stroke="#a64b00" stroke-width="0" cx="842.598" cy="166.711" r="21.3333"/>
</svg>
