<?xml version="1.0" encoding="utf-8"?> <!-- Generator: Adobe Illustrator 13.0.0, SVG Export Plug-In . SVG Version: 6.00 Build 14948)  --> <svg version="1.2" baseProfile="tiny" id="Layer_1" xmlns="http://www.w3.org/2000/svg" xmlns:xlink="http://www.w3.org/1999/xlink" x="0px" y="0px" width="512px" height="512px" viewBox="0 0 512 512" xml:space="preserve">
<polygon points="0,0 512,0 512,512 0,512" style="fill:#ffffff; stroke:#000000;stroke-width:0"/>
<polygon points="7.90923,69.3564 50.517,67.1151 61.353,273.107 18.7452,275.349" style="fill:#006363; stroke:#000000;stroke-width:0"/>
<circle fill="#006363" stroke="#006363" stroke-width="0" cx="29.2131" cy="68.2358" r="21.3333"/>
<circle fill="#006363" stroke="#006363" stroke-width="0" cx="40.0491" cy="274.228" r="21.3333"/>
<polygon points="456.488,209.717 499.064,206.929 512.895,418.129 470.32,420.918" style="fill:#006363; stroke:#000000;stroke-width:0"/>
<circle fill="#006363" stroke="#006363" stroke-width="0" cx="477.776" cy="208.323" r="21.3333"/>
<circle fill="#006363" stroke="#006363" stroke-width="0" cx="491.608" cy="419.523" r="21.3333"/>
<polygon points="1256,469.333 256,1469.33 -744,469.333" style="fill:#000000; stroke:#000000;stroke-width:0"/>
<polygon points="-744,42.6667 256,-957.333 1256,42.6667" style="fill:#000000; stroke:#000000;stroke-width:0"/>
<circle fill="#a64b00" stroke="#a64b00" stroke-width="0" cx="29.2131" cy="68.2358" r="21.3333"/>
<circle fill="#a64b00" stroke="#a64b00" stroke-width="0" cx="40.0491" cy="274.228" r="21.3333"/>
<circle fill="#a64b00" stroke="#a64b00" stroke-width="0" cx="477.776" cy="208.323" r="21.3333"/>
<circle fill="#a64b00" stroke="#a64b00" stroke-width="0" cx="491.608" cy="419.523" r="21.3333"/>
<circle fill="#a64b00" stroke="#a64b00" stroke-width="0" cx="103.43" cy="292.135" r="21.3333"/>
</svg>
