<?xml version="1.0" encoding="utf-8"?> <!-- Generator: Adobe Illustrator 13.0.0, SVG Export Plug-In . SVG Version: 6.00 Build 14948)  --> <svg version="1.2" baseProfile="tiny" id="Layer_1" xmlns="http://www.w3.org/2000/svg" xmlns:xlink="http://www.w3.org/1999/xlink" x="0px" y="0px" width="512px" height="512px" viewBox="0 0 512 512" xml:space="preserve">
<polygon points="0,0 512,0 512,512 0,512" style="fill:#ffffff; stroke:#000000;stroke-width:0"/>
<polygon points="-157.764,341.133 -165.648,383.065 -381.055,342.564 -373.171,300.632" style="fill:#006363; stroke:#000000;stroke-width:0"/>
<circle fill="#006363" stroke="#006363" stroke-width="0" cx="-161.706" cy="362.099" r="21.3333"/>
<circle fill="#006363" stroke="#006363" stroke-width="0" cx="-377.113" cy="321.598" r="21.3333"/>
<polygon points="749.673,333.208 763.865,292.971 958.796,361.728 944.604,401.965" style="fill:#006363; stroke:#000000;stroke-width:0"/>
<circle fill="#006363" stroke="#006363" stroke-width="0" cx="756.769" cy="313.089" r="21.3333"/>
<circle fill="#006363" stroke="#006363" stroke-width="0" cx="951.7" cy="381.846" r="21.3333"/>
<polygon points="1256,469.333 256,1469.33 -744,469.333" style="fill:#000000; stroke:#000000;stroke-width:0"/>
<polygon points="-744,42.6667 256,-957.333 1256,42.6667" style="fill:#000000; stroke:#000000;stroke-width:0"/>
<circle fill="#a64b00" stroke="#a64b00" stroke-width="0" cx="-161.706" cy="362.099" r="21.3333"/>
<circle fill="#a64b00" stroke="#a64b00" stroke-width="0" cx="-377.113" cy="321.598" r="21.3333"/>
<circle fill="#a64b00" stroke="#a64b00" stroke-width="0" cx="756.769" cy="313.089" r="21.3333"/>
<circle fill="#a64b00" stroke="#a64b00" stroke-width="0" cx="951.7" cy="381.846" r="21.3333"/>
<circle fill="#a64b00" stroke="#a64b00" stroke-width="0" cx="-90.349" cy="383.049" r="21.3333"/>
</svg>
