<?xml version="1.0" encoding="utf-8"?> <!-- Generator: Adobe Illustrator 13.0.0, SVG Export Plug-In . SVG Version: 6.00 Build 14948)  --> <svg version="1.2" baseProfile="tiny" id="Layer_1" xmlns="http://www.w3.org/2000/svg" xmlns:xlink="http://www.w3.org/1999/xlink" x="0px" y="0px" width="512px" height="512px" viewBox="0 0 512 512" xml:space="preserve">
<polygon points="0,0 512,0 512,512 0,512" style="fill:#ffffff; stroke:#000000;stroke-width:0"/>
<polygon points="-77.2537,159.764 -71.6956,202.067 -293.147,231.163 -298.706,188.86" style="fill:#006363; stroke:#000000;stroke-width:0"/>
<circle fill="#006363" stroke="#006363" stroke-width="0" cx="-74.4747" cy="180.916" r="21.3333"/>
<circle fill="#006363" stroke="#006363" stroke-width="0" cx="-295.927" cy="210.012" r="21.3333"/>
<polygon points="744.556,293.5 703.461,282.028 759.34,81.8459 800.436,93.3175" style="fill:#006363; stroke:#000000;stroke-width:0"/>
<circle fill="#006363" stroke="#006363" stroke-width="0" cx="724.008" cy="287.764" r="21.3333"/>
<circle fill="#006363" stroke="#006363" stroke-width="0" cx="779.888" cy="87.5817" r="21.3333"/>
<polygon points="1256,469.333 256,1469.33 -744,469.333" style="fill:#000000; stroke:#000000;stroke-width:0"/>
<polygon points="-744,42.6667 256,-957.333 1256,42.6667" style="fill:#000000; stroke:#000000;stroke-width:0"/>
<circle fill="#a64b00" stroke="#a64b00" stroke-width="0" cx="-74.4747" cy="180.916" r="21.3333"/>
<circle fill="#a64b00" stroke="#a64b00" stroke-width="0" cx="-295.927" cy="210.012" r="21.3333"/>
<circle fill="#a64b00" stroke="#a64b00" stroke-width="0" cx="724.008" cy="287.764" r="21.3333"/>
<circle fill="#a64b00" stroke="#a64b00" stroke-width="0" cx="779.888" cy="87.5817" r="21.3333"/>
<circle fill="#a64b00" stroke="#a64b00" stroke-width="0" cx="101.141" cy="449.833" r="21.3333"/>
</svg>
