<?xml version="1.0" encoding="utf-8"?> <!-- Generator: Adobe Illustrator 13.0.0, SVG Export Plug-In . SVG Version: 6.00 Build 14948)  --> <svg version="1.2" baseProfile="tiny" id="Layer_1" xmlns="http://www.w3.org/2000/svg" xmlns:xlink="http://www.w3.org/1999/xlink" x="0px" y="0px" width="512px" height="512px" viewBox="0 0 512 512" xml:space="preserve">
<polygon points="0,0 512,0 512,512 0,512" style="fill:#ffffff; stroke:#000000;stroke-width:0"/>
<polygon points="-58.1048,326.852 -65.7891,368.821 -285.014,328.683 -277.33,286.714" style="fill:#006363; stroke:#000000;stroke-width:0"/>
<circle fill="#006363" stroke="#006363" stroke-width="0" cx="-61.9469" cy="347.837" r="21.3333"/>
<circle fill="#006363" stroke="#006363" stroke-width="0" cx="-281.172" cy="307.698" r="21.3333"/>
<polygon points="722.508,328.233 681.99,314.863 748.249,114.074 788.767,127.445" style="fill:#006363; stroke:#000000;stroke-width:0"/>
<circle fill="#006363" stroke="#006363" stroke-width="0" cx="702.249" cy="321.548" r="21.3333"/>
<circle fill="#006363" stroke="#006363" stroke-width="0" cx="768.508" cy="120.759" r="21.3333"/>
<polygon points="1256,469.333 256,1469.33 -744,469.333" style="fill:#000000; stroke:#000000;stroke-width:0"/>
<polygon points="-744,42.6667 256,-957.333 1256,42.6667" style="fill:#000000; stroke:#000000;stroke-width:0"/>
<circle fill="#a64b00" stroke="#a64b00" stroke-width="0" cx="-61.9469" cy="347.837" r="21.3333"/>
<circle fill="#a64b00" stroke="#a64b00" stroke-width="0" cx="-281.172" cy="307.698" r="21.3333"/>
<circle fill="#a64b00" stroke="#a64b00" stroke-width="0" cx="702.249" cy="321.548" r="21.3333"/>
<circle fill="#a64b00" stroke="#a64b00" stroke-width="0" cx="768.508" cy="120.759" r="21.3333"/>
<circle fill="#a64b00" stroke="#a64b00" stroke-width="0" cx="132.161" cy="163.617" r="21.3333"/>
</svg>
