<?xml version="1.0" encoding="utf-8"?> <!-- Generator: Adobe Illustrator 13.0.0, SVG Export Plug-In . SVG Version: 6.00 Build 14948)  --> <svg version="1.2" baseProfile="tiny" id="Layer_1" xmlns="http://www.w3.org/2000/svg" xmlns:xlink="http://www.w3.org/1999/xlink" x="0px" y="0px" width="512px" height="512px" viewBox="0 0 512 512" xml:space="preserve">
<polygon points="0,0 512,0 512,512 0,512" style="fill:#ffffff; stroke:#000000;stroke-width:0"/>
<polygon points="-100.82,85.7533 -109.588,127.51 -313.653,84.6634 -304.885,42.9072" style="fill:#006363; stroke:#000000;stroke-width:0"/>
<circle fill="#006363" stroke="#006363" stroke-width="0" cx="-105.204" cy="106.631" r="21.3333"/>
<circle fill="#006363" stroke="#006363" stroke-width="0" cx="-309.269" cy="63.7853" r="21.3333"/>
<polygon points="749.405,369.319 711.388,349.95 808.024,160.266 846.041,179.634" style="fill:#006363; stroke:#000000;stroke-width:0"/>
<circle fill="#006363" stroke="#006363" stroke-width="0" cx="730.397" cy="359.635" r="21.3333"/>
<circle fill="#006363" stroke="#006363" stroke-width="0" cx="827.033" cy="169.95" r="21.3333"/>
<polygon points="1256,469.333 256,1469.33 -744,469.333" style="fill:#000000; stroke:#000000;stroke-width:0"/>
<polygon points="-744,42.6667 256,-957.333 1256,42.6667" style="fill:#000000; stroke:#000000;stroke-width:0"/>
<circle fill="#a64b00" stroke="#a64b00" stroke-width="0" cx="-105.204" cy="106.631" r="21.3333"/>
<circle fill="#a64b00" stroke="#a64b00" stroke-width="0" cx="-309.269" cy="63.7853" r="21.3333"/>
<circle fill="#a64b00" stroke="#a64b00" stroke-width="0" cx="730.397" cy="359.635" r="21.3333"/>
<circle fill="#a64b00" stroke="#a64b00" stroke-width="0" cx="827.033" cy="169.95" r="21.3333"/>
<circle fill="#a64b00" stroke="#a64b00" stroke-width="0" cx="51.0314" cy="430.752" r="21.3333"/>
</svg>
