<?xml version="1.0" encoding="utf-8"?> <!-- Generator: Adobe Illustrator 13.0.0, SVG Export Plug-In . SVG Version: 6.00 Build 14948)  --> <svg version="1.2" baseProfile="tiny" id="Layer_1" xmlns="http://www.w3.org/2000/svg" xmlns:xlink="http://www.w3.org/1999/xlink" x="0px" y="0px" width="512px" height="512px" viewBox="0 0 512 512" xml:space="preserve">
<polygon points="0,0 512,0 512,512 0,512" style="fill:#ffffff; stroke:#000000;stroke-width:0"/>
<polygon points="10.9158,94.505 53.5472,92.7695 62.2725,307.095 19.6412,308.831" style="fill:#006363; stroke:#000000;stroke-width:0"/>
<circle fill="#006363" stroke="#006363" stroke-width="0" cx="32.2315" cy="93.6372" r="21.3333"/>
<circle fill="#006363" stroke="#006363" stroke-width="0" cx="40.9569" cy="307.963" r="21.3333"/>
<polygon points="454.407,179.061 497.013,176.798 508.294,389.196 465.687,391.459" style="fill:#006363; stroke:#000000;stroke-width:0"/>
<circle fill="#006363" stroke="#006363" stroke-width="0" cx="475.71" cy="177.93" r="21.3333"/>
<circle fill="#006363" stroke="#006363" stroke-width="0" cx="486.99" cy="390.327" r="21.3333"/>
<polygon points="1256,469.333 256,1469.33 -744,469.333" style="fill:#000000; stroke:#000000;stroke-width:0"/>
<polygon points="-744,42.6667 256,-957.333 1256,42.6667" style="fill:#000000; stroke:#000000;stroke-width:0"/>
<circle fill="#a64b00" stroke="#a64b00" stroke-width="0" cx="32.2315" cy="93.6372" r="21.3333"/>
<circle fill="#a64b00" stroke="#a64b00" stroke-width="0" cx="40.9569" cy="307.963" r="21.3333"/>
<circle fill="#a64b00" stroke="#a64b00" stroke-width="0" cx="475.71" cy="177.93" r="21.3333"/>
<circle fill="#a64b00" stroke="#a64b00" stroke-width="0" cx="486.99" cy="390.327" r="21.3333"/>
<circle fill="#a64b00" stroke="#a64b00" stroke-width="0" cx="208.444" cy="272.687" r="21.3333"/>
</svg>
