<?xml version="1.0" encoding="utf-8"?> <!-- Generator: Adobe Illustrator 13.0.0, SVG Export Plug-In . SVG Version: 6.00 Build 14948)  --> <svg version="1.2" baseProfile="tiny" id="Layer_1" xmlns="http://www.w3.org/2000/svg" xmlns:xlink="http://www.w3.org/1999/xlink" x="0px" y="0px" width="512px" height="512px" viewBox="0 0 512 512" xml:space="preserve">
<polygon points="0,0 512,0 512,512 0,512" style="fill:#ffffff; stroke:#000000;stroke-width:0"/>
<polygon points="-76.5223,204.402 -39.7264,182.804 71.539,372.356 34.7432,393.955" style="fill:#006363; stroke:#000000;stroke-width:0"/>
<circle fill="#006363" stroke="#006363" stroke-width="0" cx="-58.1244" cy="193.603" r="21.3333"/>
<circle fill="#006363" stroke="#006363" stroke-width="0" cx="53.1411" cy="383.156" r="21.3333"/>
<polygon points="423.312,147.199 439.565,107.749 639.817,190.252 623.564,229.701" style="fill:#006363; stroke:#000000;stroke-width:0"/>
<circle fill="#006363" stroke="#006363" stroke-width="0" cx="431.439" cy="127.474" r="21.3333"/>
<circle fill="#006363" stroke="#006363" stroke-width="0" cx="631.691" cy="209.976" r="21.3333"/>
<polygon points="1256,469.333 256,1469.33 -744,469.333" style="fill:#000000; stroke:#000000;stroke-width:0"/>
<polygon points="-744,42.6667 256,-957.333 1256,42.6667" style="fill:#000000; stroke:#000000;stroke-width:0"/>
<circle fill="#a64b00" stroke="#a64b00" stroke-width="0" cx="-58.1244" cy="193.603" r="21.3333"/>
<circle fill="#a64b00" stroke="#a64b00" stroke-width="0" cx="53.1411" cy="383.156" r="21.3333"/>
<circle fill="#a64b00" stroke="#a64b00" stroke-width="0" cx="431.439" cy="127.474" r="21.3333"/>
<circle fill="#a64b00" stroke="#a64b00" stroke-width="0" cx="631.691" cy="209.976" r="21.3333"/>
<circle fill="#a64b00" stroke="#a64b00" stroke-width="0" cx="126.724" cy="149.652" r="21.3333"/>
</svg>
