<?xml version="1.0" encoding="utf-8"?> <!-- Generator: Adobe Illustrator 13.0.0, SVG Export Plug-In . SVG Version: 6.00 Build 14948)  --> <svg version="1.2" baseProfile="tiny" id="Layer_1" xmlns="http://www.w3.org/2000/svg" xmlns:xlink="http://www.w3.org/1999/xlink" x="0px" y="0px" width="512px" height="512px" viewBox="0 0 512 512" xml:space="preserve">
<polygon points="0,0 512,0 512,512 0,512" style="fill:#ffffff; stroke:#000000;stroke-width:0"/>
<polygon points="-114.979,141.366 -116.656,184 -325.203,175.795 -323.526,133.161" style="fill:#006363; stroke:#000000;stroke-width:0"/>
<circle fill="#006363" stroke="#006363" stroke-width="0" cx="-115.817" cy="162.683" r="21.3333"/>
<circle fill="#006363" stroke="#006363" stroke-width="0" cx="-324.364" cy="154.478" r="21.3333"/>
<polygon points="751.443,412.616 715.936,388.958 837.214,206.941 872.721,230.599" style="fill:#006363; stroke:#000000;stroke-width:0"/>
<circle fill="#006363" stroke="#006363" stroke-width="0" cx="733.689" cy="400.787" r="21.3333"/>
<circle fill="#006363" stroke="#006363" stroke-width="0" cx="854.968" cy="218.77" r="21.3333"/>
<polygon points="1256,469.333 256,1469.33 -744,469.333" style="fill:#000000; stroke:#000000;stroke-width:0"/>
<polygon points="-744,42.6667 256,-957.333 1256,42.6667" style="fill:#000000; stroke:#000000;stroke-width:0"/>
<circle fill="#a64b00" stroke="#a64b00" stroke-width="0" cx="-115.817" cy="162.683" r="21.3333"/>
<circle fill="#a64b00" stroke="#a64b00" stroke-width="0" cx="-324.364" cy="154.478" r="21.3333"/>
<circle fill="#a64b00" stroke="#a64b00" stroke-width="0" cx="733.689" cy="400.787" r="21.3333"/>
<circle fill="#a64b00" stroke="#a64b00" stroke-width="0" cx="854.968" cy="218.77" r="21.3333"/>
<circle fill="#a64b00" stroke="#a64b00" stroke-width="0" cx="21.8008" cy="154.077" r="21.3333"/>
</svg>
