<?xml version="1.0" encoding="utf-8"?> <!-- Generator: Adobe Illustrator 13.0.0, SVG Export Plug-In . SVG Version: 6.00 Build 14948)  --> <svg version="1.2" baseProfile="tiny" id="Layer_1" xmlns="http://www.w3.org/2000/svg" xmlns:xlink="http://www.w3.org/1999/xlink" x="0px" y="0px" width="512px" height="512px" viewBox="0 0 512 512" xml:space="preserve">
<polygon points="0,0 512,0 512,512 0,512" style="fill:#ffffff; stroke:#000000;stroke-width:0"/>
<polygon points="-9.32105,116.553 33.0417,111.47 59.3196,330.47 16.9568,335.553" style="fill:#006363; stroke:#000000;stroke-width:0"/>
<circle fill="#006363" stroke="#006363" stroke-width="0" cx="11.8604" cy="114.012" r="21.3333"/>
<circle fill="#006363" stroke="#006363" stroke-width="0" cx="38.1382" cy="333.012" r="21.3333"/>
<polygon points="454.368,196.699 496.292,188.775 535.865,398.138 493.941,406.063" style="fill:#006363; stroke:#000000;stroke-width:0"/>
<circle fill="#006363" stroke="#006363" stroke-width="0" cx="475.33" cy="192.737" r="21.3333"/>
<circle fill="#006363" stroke="#006363" stroke-width="0" cx="514.903" cy="402.1" r="21.3333"/>
<polygon points="1256,469.333 256,1469.33 -744,469.333" style="fill:#000000; stroke:#000000;stroke-width:0"/>
<polygon points="-744,42.6667 256,-957.333 1256,42.6667" style="fill:#000000; stroke:#000000;stroke-width:0"/>
<circle fill="#a64b00" stroke="#a64b00" stroke-width="0" cx="11.8604" cy="114.012" r="21.3333"/>
<circle fill="#a64b00" stroke="#a64b00" stroke-width="0" cx="38.1382" cy="333.012" r="21.3333"/>
<circle fill="#a64b00" stroke="#a64b00" stroke-width="0" cx="475.33" cy="192.737" r="21.3333"/>
<circle fill="#a64b00" stroke="#a64b00" stroke-width="0" cx="514.903" cy="402.1" r="21.3333"/>
<circle fill="#a64b00" stroke="#a64b00" stroke-width="0" cx="456.834" cy="421.269" r="21.3333"/>
</svg>
