<?xml version="1.0" encoding="utf-8"?> <!-- Generator: Adobe Illustrator 13.0.0, SVG Export Plug-In . SVG Version: 6.00 Build 14948)  --> <svg version="1.2" baseProfile="tiny" id="Layer_1" xmlns="http://www.w3.org/2000/svg" xmlns:xlink="http://www.w3.org/1999/xlink" x="0px" y="0px" width="512px" height="512px" viewBox="0 0 512 512" xml:space="preserve">
<polygon points="0,0 512,0 512,512 0,512" style="fill:#ffffff; stroke:#000000;stroke-width:0"/>
<polygon points="-13.9242,138.19 28.3226,132.219 57.9028,341.508 15.656,347.479" style="fill:#006363; stroke:#000000;stroke-width:0"/>
<circle fill="#006363" stroke="#006363" stroke-width="0" cx="7.19924" cy="135.205" r="21.3333"/>
<circle fill="#006363" stroke="#006363" stroke-width="0" cx="36.7794" cy="344.493" r="21.3333"/>
<polygon points="452.616,175.543 493.995,165.142 545.599,370.434 504.22,380.835" style="fill:#006363; stroke:#000000;stroke-width:0"/>
<circle fill="#006363" stroke="#006363" stroke-width="0" cx="473.305" cy="170.343" r="21.3333"/>
<circle fill="#006363" stroke="#006363" stroke-width="0" cx="524.909" cy="375.634" r="21.3333"/>
<polygon points="1256,469.333 256,1469.33 -744,469.333" style="fill:#000000; stroke:#000000;stroke-width:0"/>
<polygon points="-744,42.6667 256,-957.333 1256,42.6667" style="fill:#000000; stroke:#000000;stroke-width:0"/>
<circle fill="#a64b00" stroke="#a64b00" stroke-width="0" cx="7.19924" cy="135.205" r="21.3333"/>
<circle fill="#a64b00" stroke="#a64b00" stroke-width="0" cx="36.7794" cy="344.493" r="21.3333"/>
<circle fill="#a64b00" stroke="#a64b00" stroke-width="0" cx="473.305" cy="170.343" r="21.3333"/>
<circle fill="#a64b00" stroke="#a64b00" stroke-width="0" cx="524.909" cy="375.634" r="21.3333"/>
<circle fill="#a64b00" stroke="#a64b00" stroke-width="0" cx="420.69" cy="304.862" r="21.3333"/>
</svg>
