<?xml version="1.0" encoding="utf-8"?> <!-- Generator: Adobe Illustrator 13.0.0, SVG Export Plug-In . SVG Version: 6.00 Build 14948)  --> <svg version="1.2" baseProfile="tiny" id="Layer_1" xmlns="http://www.w3.org/2000/svg" xmlns:xlink="http://www.w3.org/1999/xlink" x="0px" y="0px" width="512px" height="512px" viewBox="0 0 512 512" xml:space="preserve">
<polygon points="0,0 512,0 512,512 0,512" style="fill:#ffffff; stroke:#000000;stroke-width:0"/>
<polygon points="-72.8415,188.494 -69.5651,231.035 -292.838,248.231 -296.114,205.69" style="fill:#006363; stroke:#000000;stroke-width:0"/>
<circle fill="#006363" stroke="#006363" stroke-width="0" cx="-71.2033" cy="209.764" r="21.3333"/>
<circle fill="#006363" stroke="#006363" stroke-width="0" cx="-294.476" cy="226.96" r="21.3333"/>
<polygon points="744.043,285.02 702.712,274.431 754.117,73.7999 795.449,84.3899" style="fill:#006363; stroke:#000000;stroke-width:0"/>
<circle fill="#006363" stroke="#006363" stroke-width="0" cx="723.378" cy="279.725" r="21.3333"/>
<circle fill="#006363" stroke="#006363" stroke-width="0" cx="774.783" cy="79.0949" r="21.3333"/>
<polygon points="1256,469.333 256,1469.33 -744,469.333" style="fill:#000000; stroke:#000000;stroke-width:0"/>
<polygon points="-744,42.6667 256,-957.333 1256,42.6667" style="fill:#000000; stroke:#000000;stroke-width:0"/>
<circle fill="#a64b00" stroke="#a64b00" stroke-width="0" cx="-71.2033" cy="209.764" r="21.3333"/>
<circle fill="#a64b00" stroke="#a64b00" stroke-width="0" cx="-294.476" cy="226.96" r="21.3333"/>
<circle fill="#a64b00" stroke="#a64b00" stroke-width="0" cx="723.378" cy="279.725" r="21.3333"/>
<circle fill="#a64b00" stroke="#a64b00" stroke-width="0" cx="774.783" cy="79.0949" r="21.3333"/>
<circle fill="#a64b00" stroke="#a64b00" stroke-width="0" cx="106.51" cy="363.968" r="21.3333"/>
</svg>
