<?xml version="1.0" encoding="utf-8"?> <!-- Generator: Adobe Illustrator 13.0.0, SVG Export Plug-In . SVG Version: 6.00 Build 14948)  --> <svg version="1.2" baseProfile="tiny" id="Layer_1" xmlns="http://www.w3.org/2000/svg" xmlns:xlink="http://www.w3.org/1999/xlink" x="0px" y="0px" width="512px" height="512px" viewBox="0 0 512 512" xml:space="preserve">
<polygon points="0,0 512,0 512,512 0,512" style="fill:#ffffff; stroke:#000000;stroke-width:0"/>
<polygon points="-136.091,174.189 -103.811,146.289 39.5657,312.175 7.28526,340.076" style="fill:#006363; stroke:#000000;stroke-width:0"/>
<circle fill="#006363" stroke="#006363" stroke-width="0" cx="-119.951" cy="160.239" r="21.3333"/>
<circle fill="#006363" stroke="#006363" stroke-width="0" cx="23.4255" cy="326.125" r="21.3333"/>
<polygon points="652.186,312.623 613.825,331.301 519.041,136.634 557.402,117.955" style="fill:#006363; stroke:#000000;stroke-width:0"/>
<circle fill="#006363" stroke="#006363" stroke-width="0" cx="633.006" cy="321.962" r="21.3333"/>
<circle fill="#006363" stroke="#006363" stroke-width="0" cx="538.221" cy="127.294" r="21.3333"/>
<polygon points="1256,469.333 256,1469.33 -744,469.333" style="fill:#000000; stroke:#000000;stroke-width:0"/>
<polygon points="-744,42.6667 256,-957.333 1256,42.6667" style="fill:#000000; stroke:#000000;stroke-width:0"/>
<circle fill="#a64b00" stroke="#a64b00" stroke-width="0" cx="-119.951" cy="160.239" r="21.3333"/>
<circle fill="#a64b00" stroke="#a64b00" stroke-width="0" cx="23.4255" cy="326.125" r="21.3333"/>
<circle fill="#a64b00" stroke="#a64b00" stroke-width="0" cx="633.006" cy="321.962" r="21.3333"/>
<circle fill="#a64b00" stroke="#a64b00" stroke-width="0" cx="538.221" cy="127.294" r="21.3333"/>
<circle fill="#a64b00" stroke="#a64b00" stroke-width="0" cx="412.536" cy="163.617" r="21.3333"/>
</svg>
