<?xml version="1.0" encoding="utf-8"?> <!-- Generator: Adobe Illustrator 13.0.0, SVG Export Plug-In . SVG Version: 6.00 Build 14948)  --> <svg version="1.2" baseProfile="tiny" id="Layer_1" xmlns="http://www.w3.org/2000/svg" xmlns:xlink="http://www.w3.org/1999/xlink" x="0px" y="0px" width="512px" height="512px" viewBox="0 0 512 512" xml:space="preserve">
<polygon points="0,0 512,0 512,512 0,512" style="fill:#ffffff; stroke:#000000;stroke-width:0"/>
<polygon points="-412.836,103.502 -408.114,61.097 -190.63,85.3167 -195.352,127.721" style="fill:#006363; stroke:#000000;stroke-width:0"/>
<circle fill="#006363" stroke="#006363" stroke-width="0" cx="-410.475" cy="82.2993" r="21.3333"/>
<circle fill="#006363" stroke="#006363" stroke-width="0" cx="-192.991" cy="106.519" r="21.3333"/>
<polygon points="863.176,224.702 905.689,221.087 923.681,432.686 881.167,436.301" style="fill:#006363; stroke:#000000;stroke-width:0"/>
<circle fill="#006363" stroke="#006363" stroke-width="0" cx="884.433" cy="222.894" r="21.3333"/>
<circle fill="#006363" stroke="#006363" stroke-width="0" cx="902.424" cy="434.493" r="21.3333"/>
<polygon points="1256,469.333 256,1469.33 -744,469.333" style="fill:#000000; stroke:#000000;stroke-width:0"/>
<polygon points="-744,42.6667 256,-957.333 1256,42.6667" style="fill:#000000; stroke:#000000;stroke-width:0"/>
<circle fill="#a64b00" stroke="#a64b00" stroke-width="0" cx="-410.475" cy="82.2993" r="21.3333"/>
<circle fill="#a64b00" stroke="#a64b00" stroke-width="0" cx="-192.991" cy="106.519" r="21.3333"/>
<circle fill="#a64b00" stroke="#a64b00" stroke-width="0" cx="884.433" cy="222.894" r="21.3333"/>
<circle fill="#a64b00" stroke="#a64b00" stroke-width="0" cx="902.424" cy="434.493" r="21.3333"/>
<circle fill="#a64b00" stroke="#a64b00" stroke-width="0" cx="-152.407" cy="136.826" r="21.3333"/>
</svg>
