<?xml version="1.0" encoding="utf-8"?> <!-- Generator: Adobe Illustrator 13.0.0, SVG Export Plug-In . SVG Version: 6.00 Build 14948)  --> <svg version="1.2" baseProfile="tiny" id="Layer_1" xmlns="http://www.w3.org/2000/svg" xmlns:xlink="http://www.w3.org/1999/xlink" x="0px" y="0px" width="512px" height="512px" viewBox="0 0 512 512" xml:space="preserve">
<polygon points="0,0 512,0 512,512 0,512" style="fill:#ffffff; stroke:#000000;stroke-width:0"/>
<polygon points="-356.712,377.172 -394.22,356.835 -290.764,166.032 -253.256,186.369" style="fill:#006363; stroke:#000000;stroke-width:0"/>
<circle fill="#006363" stroke="#006363" stroke-width="0" cx="-375.466" cy="367.004" r="21.3333"/>
<circle fill="#006363" stroke="#006363" stroke-width="0" cx="-272.01" cy="176.201" r="21.3333"/>
<polygon points="952.838,217.954 989.028,240.552 877.992,418.37 841.802,395.772" style="fill:#006363; stroke:#000000;stroke-width:0"/>
<circle fill="#006363" stroke="#006363" stroke-width="0" cx="970.933" cy="229.253" r="21.3333"/>
<circle fill="#006363" stroke="#006363" stroke-width="0" cx="859.897" cy="407.071" r="21.3333"/>
<polygon points="1256,469.333 256,1469.33 -744,469.333" style="fill:#000000; stroke:#000000;stroke-width:0"/>
<polygon points="-744,42.6667 256,-957.333 1256,42.6667" style="fill:#000000; stroke:#000000;stroke-width:0"/>
<circle fill="#a64b00" stroke="#a64b00" stroke-width="0" cx="-375.466" cy="367.004" r="21.3333"/>
<circle fill="#a64b00" stroke="#a64b00" stroke-width="0" cx="-272.01" cy="176.201" r="21.3333"/>
<circle fill="#a64b00" stroke="#a64b00" stroke-width="0" cx="970.933" cy="229.253" r="21.3333"/>
<circle fill="#a64b00" stroke="#a64b00" stroke-width="0" cx="859.897" cy="407.071" r="21.3333"/>
<circle fill="#a64b00" stroke="#a64b00" stroke-width="0" cx="587.302" cy="263.122" r="21.3333"/>
</svg>
