<?xml version="1.0" encoding="utf-8"?> <!-- Generator: Adobe Illustrator 13.0.0, SVG Export Plug-In . SVG Version: 6.00 Build 14948)  --> <svg version="1.2" baseProfile="tiny" id="Layer_1" xmlns="http://www.w3.org/2000/svg" xmlns:xlink="http://www.w3.org/1999/xlink" x="0px" y="0px" width="512px" height="512px" viewBox="0 0 512 512" xml:space="preserve">
<polygon points="0,0 512,0 512,512 0,512" style="fill:#ffffff; stroke:#000000;stroke-width:0"/>
<polygon points="-247.901,208.264 -236.656,167.106 -25.9616,224.668 -37.2062,265.827" style="fill:#006363; stroke:#000000;stroke-width:0"/>
<circle fill="#006363" stroke="#006363" stroke-width="0" cx="-242.279" cy="187.685" r="21.3333"/>
<circle fill="#006363" stroke="#006363" stroke-width="0" cx="-31.5839" cy="245.248" r="21.3333"/>
<polygon points="596.774,391.974 584.107,351.231 789.86,287.263 802.527,328.007" style="fill:#006363; stroke:#000000;stroke-width:0"/>
<circle fill="#006363" stroke="#006363" stroke-width="0" cx="590.44" cy="371.603" r="21.3333"/>
<circle fill="#006363" stroke="#006363" stroke-width="0" cx="796.193" cy="307.635" r="21.3333"/>
<polygon points="1256,469.333 256,1469.33 -744,469.333" style="fill:#000000; stroke:#000000;stroke-width:0"/>
<polygon points="-744,42.6667 256,-957.333 1256,42.6667" style="fill:#000000; stroke:#000000;stroke-width:0"/>
<circle fill="#a64b00" stroke="#a64b00" stroke-width="0" cx="-242.279" cy="187.685" r="21.3333"/>
<circle fill="#a64b00" stroke="#a64b00" stroke-width="0" cx="-31.5839" cy="245.248" r="21.3333"/>
<circle fill="#a64b00" stroke="#a64b00" stroke-width="0" cx="590.44" cy="371.603" r="21.3333"/>
<circle fill="#a64b00" stroke="#a64b00" stroke-width="0" cx="796.193" cy="307.635" r="21.3333"/>
<circle fill="#a64b00" stroke="#a64b00" stroke-width="0" cx="210.905" cy="259.023" r="21.3333"/>
</svg>
