<?xml version="1.0" encoding="utf-8"?> <!-- Generator: Adobe Illustrator 13.0.0, SVG Export Plug-In . SVG Version: 6.00 Build 14948)  --> <svg version="1.2" baseProfile="tiny" id="Layer_1" xmlns="http://www.w3.org/2000/svg" xmlns:xlink="http://www.w3.org/1999/xlink" x="0px" y="0px" width="512px" height="512px" viewBox="0 0 512 512" xml:space="preserve">
<polygon points="0,0 512,0 512,512 0,512" style="fill:#ffffff; stroke:#000000;stroke-width:0"/>
<polygon points="-136.27,94.5308 -135.7,51.868 79.6193,54.744 79.0494,97.4069" style="fill:#006363; stroke:#000000;stroke-width:0"/>
<circle fill="#006363" stroke="#006363" stroke-width="0" cx="-135.985" cy="73.1994" r="21.3333"/>
<circle fill="#006363" stroke="#006363" stroke-width="0" cx="79.3343" cy="76.0755" r="21.3333"/>
<polygon points="521.288,300.295 485.435,277.165 601.504,97.2503 637.357,120.38" style="fill:#006363; stroke:#000000;stroke-width:0"/>
<circle fill="#006363" stroke="#006363" stroke-width="0" cx="503.362" cy="288.73" r="21.3333"/>
<circle fill="#006363" stroke="#006363" stroke-width="0" cx="619.431" cy="108.815" r="21.3333"/>
<polygon points="1256,469.333 256,1469.33 -744,469.333" style="fill:#000000; stroke:#000000;stroke-width:0"/>
<polygon points="-744,42.6667 256,-957.333 1256,42.6667" style="fill:#000000; stroke:#000000;stroke-width:0"/>
<circle fill="#a64b00" stroke="#a64b00" stroke-width="0" cx="-135.985" cy="73.1994" r="21.3333"/>
<circle fill="#a64b00" stroke="#a64b00" stroke-width="0" cx="79.3343" cy="76.0755" r="21.3333"/>
<circle fill="#a64b00" stroke="#a64b00" stroke-width="0" cx="503.362" cy="288.73" r="21.3333"/>
<circle fill="#a64b00" stroke="#a64b00" stroke-width="0" cx="619.431" cy="108.815" r="21.3333"/>
<circle fill="#a64b00" stroke="#a64b00" stroke-width="0" cx="457.873" cy="220.861" r="21.3333"/>
</svg>
