<?xml version="1.0" encoding="utf-8"?> <!-- Generator: Adobe Illustrator 13.0.0, SVG Export Plug-In . SVG Version: 6.00 Build 14948)  --> <svg version="1.2" baseProfile="tiny" id="Layer_1" xmlns="http://www.w3.org/2000/svg" xmlns:xlink="http://www.w3.org/1999/xlink" x="0px" y="0px" width="512px" height="512px" viewBox="0 0 512 512" xml:space="preserve">
<polygon points="0,0 512,0 512,512 0,512" style="fill:#ffffff; stroke:#000000;stroke-width:0"/>
<polygon points="-70.2476,220.533 -69.4968,263.193 -290.185,267.078 -290.936,224.417" style="fill:#006363; stroke:#000000;stroke-width:0"/>
<circle fill="#006363" stroke="#006363" stroke-width="0" cx="-69.8722" cy="241.863" r="21.3333"/>
<circle fill="#006363" stroke="#006363" stroke-width="0" cx="-290.56" cy="245.748" r="21.3333"/>
<polygon points="743.331,276.157 701.758,266.558 748.457,64.3019 790.03,73.9007" style="fill:#006363; stroke:#000000;stroke-width:0"/>
<circle fill="#006363" stroke="#006363" stroke-width="0" cx="722.544" cy="271.357" r="21.3333"/>
<circle fill="#006363" stroke="#006363" stroke-width="0" cx="769.244" cy="69.1013" r="21.3333"/>
<polygon points="1256,469.333 256,1469.33 -744,469.333" style="fill:#000000; stroke:#000000;stroke-width:0"/>
<polygon points="-744,42.6667 256,-957.333 1256,42.6667" style="fill:#000000; stroke:#000000;stroke-width:0"/>
<circle fill="#a64b00" stroke="#a64b00" stroke-width="0" cx="-69.8722" cy="241.863" r="21.3333"/>
<circle fill="#a64b00" stroke="#a64b00" stroke-width="0" cx="-290.56" cy="245.748" r="21.3333"/>
<circle fill="#a64b00" stroke="#a64b00" stroke-width="0" cx="722.544" cy="271.357" r="21.3333"/>
<circle fill="#a64b00" stroke="#a64b00" stroke-width="0" cx="769.244" cy="69.1013" r="21.3333"/>
<circle fill="#a64b00" stroke="#a64b00" stroke-width="0" cx="112.475" cy="268.563" r="21.3333"/>
</svg>
