<?xml version="1.0" encoding="utf-8"?> <!-- Generator: Adobe Illustrator 13.0.0, SVG Export Plug-In . SVG Version: 6.00 Build 14948)  --> <svg version="1.2" baseProfile="tiny" id="Layer_1" xmlns="http://www.w3.org/2000/svg" xmlns:xlink="http://www.w3.org/1999/xlink" x="0px" y="0px" width="512px" height="512px" viewBox="0 0 512 512" xml:space="preserve">
<polygon points="0,0 512,0 512,512 0,512" style="fill:#ffffff; stroke:#000000;stroke-width:0"/>
<polygon points="-99.6101,60.036 -86.0475,100.49 -287.58,168.056 -301.143,127.602" style="fill:#006363; stroke:#000000;stroke-width:0"/>
<circle fill="#006363" stroke="#006363" stroke-width="0" cx="-92.8288" cy="80.2628" r="21.3333"/>
<circle fill="#006363" stroke="#006363" stroke-width="0" cx="-294.362" cy="147.829" r="21.3333"/>
<polygon points="746.053,324.025 705.941,309.482 778.237,110.079 818.349,124.622" style="fill:#006363; stroke:#000000;stroke-width:0"/>
<circle fill="#006363" stroke="#006363" stroke-width="0" cx="725.997" cy="316.753" r="21.3333"/>
<circle fill="#006363" stroke="#006363" stroke-width="0" cx="798.293" cy="117.35" r="21.3333"/>
<polygon points="1256,469.333 256,1469.33 -744,469.333" style="fill:#000000; stroke:#000000;stroke-width:0"/>
<polygon points="-744,42.6667 256,-957.333 1256,42.6667" style="fill:#000000; stroke:#000000;stroke-width:0"/>
<circle fill="#a64b00" stroke="#a64b00" stroke-width="0" cx="-92.8288" cy="80.2628" r="21.3333"/>
<circle fill="#a64b00" stroke="#a64b00" stroke-width="0" cx="-294.362" cy="147.829" r="21.3333"/>
<circle fill="#a64b00" stroke="#a64b00" stroke-width="0" cx="725.997" cy="316.753" r="21.3333"/>
<circle fill="#a64b00" stroke="#a64b00" stroke-width="0" cx="798.293" cy="117.35" r="21.3333"/>
<circle fill="#a64b00" stroke="#a64b00" stroke-width="0" cx="82.0516" cy="144.536" r="21.3333"/>
</svg>
