<?xml version="1.0" encoding="utf-8"?> <!-- Generator: Adobe Illustrator 13.0.0, SVG Export Plug-In . SVG Version: 6.00 Build 14948)  --> <svg version="1.2" baseProfile="tiny" id="Layer_1" xmlns="http://www.w3.org/2000/svg" xmlns:xlink="http://www.w3.org/1999/xlink" x="0px" y="0px" width="512px" height="512px" viewBox="0 0 512 512" xml:space="preserve">
<polygon points="0,0 512,0 512,512 0,512" style="fill:#ffffff; stroke:#000000;stroke-width:0"/>
<polygon points="-117.933,133.833 -97.9248,96.1486 88.0398,194.884 68.0317,232.569" style="fill:#006363; stroke:#000000;stroke-width:0"/>
<circle fill="#006363" stroke="#006363" stroke-width="0" cx="-107.929" cy="114.991" r="21.3333"/>
<circle fill="#006363" stroke="#006363" stroke-width="0" cx="78.0358" cy="213.726" r="21.3333"/>
<polygon points="452.526,236.631 439.072,196.141 639.869,129.421 653.323,169.911" style="fill:#006363; stroke:#000000;stroke-width:0"/>
<circle fill="#006363" stroke="#006363" stroke-width="0" cx="445.799" cy="216.386" r="21.3333"/>
<circle fill="#006363" stroke="#006363" stroke-width="0" cx="646.596" cy="149.666" r="21.3333"/>
<polygon points="1256,469.333 256,1469.33 -744,469.333" style="fill:#000000; stroke:#000000;stroke-width:0"/>
<polygon points="-744,42.6667 256,-957.333 1256,42.6667" style="fill:#000000; stroke:#000000;stroke-width:0"/>
<circle fill="#a64b00" stroke="#a64b00" stroke-width="0" cx="-107.929" cy="114.991" r="21.3333"/>
<circle fill="#a64b00" stroke="#a64b00" stroke-width="0" cx="78.0358" cy="213.726" r="21.3333"/>
<circle fill="#a64b00" stroke="#a64b00" stroke-width="0" cx="445.799" cy="216.386" r="21.3333"/>
<circle fill="#a64b00" stroke="#a64b00" stroke-width="0" cx="646.596" cy="149.666" r="21.3333"/>
<circle fill="#a64b00" stroke="#a64b00" stroke-width="0" cx="277.879" cy="62.2592" r="21.3333"/>
</svg>
