<?xml version="1.0" encoding="utf-8"?> <!-- Generator: Adobe Illustrator 13.0.0, SVG Export Plug-In . SVG Version: 6.00 Build 14948)  --> <svg version="1.2" baseProfile="tiny" id="Layer_1" xmlns="http://www.w3.org/2000/svg" xmlns:xlink="http://www.w3.org/1999/xlink" x="0px" y="0px" width="512px" height="512px" viewBox="0 0 512 512" xml:space="preserve">
<polygon points="0,0 512,0 512,512 0,512" style="fill:#ffffff; stroke:#000000;stroke-width:0"/>
<polygon points="-138.242,214.602 -130.533,256.567 -335.518,294.225 -343.227,252.26" style="fill:#006363; stroke:#000000;stroke-width:0"/>
<circle fill="#006363" stroke="#006363" stroke-width="0" cx="-134.388" cy="235.585" r="21.3333"/>
<circle fill="#006363" stroke="#006363" stroke-width="0" cx="-339.373" cy="273.243" r="21.3333"/>
<polygon points="758.287,457.819 727.153,428.645 871.158,274.97 902.291,304.144" style="fill:#006363; stroke:#000000;stroke-width:0"/>
<circle fill="#006363" stroke="#006363" stroke-width="0" cx="742.72" cy="443.232" r="21.3333"/>
<circle fill="#006363" stroke="#006363" stroke-width="0" cx="886.724" cy="289.557" r="21.3333"/>
<polygon points="1256,469.333 256,1469.33 -744,469.333" style="fill:#000000; stroke:#000000;stroke-width:0"/>
<polygon points="-744,42.6667 256,-957.333 1256,42.6667" style="fill:#000000; stroke:#000000;stroke-width:0"/>
<circle fill="#a64b00" stroke="#a64b00" stroke-width="0" cx="-134.388" cy="235.585" r="21.3333"/>
<circle fill="#a64b00" stroke="#a64b00" stroke-width="0" cx="-339.373" cy="273.243" r="21.3333"/>
<circle fill="#a64b00" stroke="#a64b00" stroke-width="0" cx="742.72" cy="443.232" r="21.3333"/>
<circle fill="#a64b00" stroke="#a64b00" stroke-width="0" cx="886.724" cy="289.557" r="21.3333"/>
<circle fill="#a64b00" stroke="#a64b00" stroke-width="0" cx="-16.3778" cy="134.996" r="21.3333"/>
</svg>
