<?xml version="1.0" encoding="utf-8"?> <!-- Generator: Adobe Illustrator 13.0.0, SVG Export Plug-In . SVG Version: 6.00 Build 14948)  --> <svg version="1.2" baseProfile="tiny" id="Layer_1" xmlns="http://www.w3.org/2000/svg" xmlns:xlink="http://www.w3.org/1999/xlink" x="0px" y="0px" width="512px" height="512px" viewBox="0 0 512 512" xml:space="preserve">
<polygon points="0,0 512,0 512,512 0,512" style="fill:#ffffff; stroke:#000000;stroke-width:0"/>
<polygon points="-159.071,421.458 -194.007,396.965 -71.2446,221.86 -36.3085,246.353" style="fill:#006363; stroke:#000000;stroke-width:0"/>
<circle fill="#006363" stroke="#006363" stroke-width="0" cx="-176.539" cy="409.211" r="21.3333"/>
<circle fill="#006363" stroke="#006363" stroke-width="0" cx="-53.7766" cy="234.107" r="21.3333"/>
<polygon points="578.828,248.399 610.005,219.27 754.91,374.364 723.733,403.493" style="fill:#006363; stroke:#000000;stroke-width:0"/>
<circle fill="#006363" stroke="#006363" stroke-width="0" cx="594.416" cy="233.835" r="21.3333"/>
<circle fill="#006363" stroke="#006363" stroke-width="0" cx="739.321" cy="388.929" r="21.3333"/>
<polygon points="1256,469.333 256,1469.33 -744,469.333" style="fill:#000000; stroke:#000000;stroke-width:0"/>
<polygon points="-744,42.6667 256,-957.333 1256,42.6667" style="fill:#000000; stroke:#000000;stroke-width:0"/>
<circle fill="#a64b00" stroke="#a64b00" stroke-width="0" cx="-176.539" cy="409.211" r="21.3333"/>
<circle fill="#a64b00" stroke="#a64b00" stroke-width="0" cx="-53.7766" cy="234.107" r="21.3333"/>
<circle fill="#a64b00" stroke="#a64b00" stroke-width="0" cx="594.416" cy="233.835" r="21.3333"/>
<circle fill="#a64b00" stroke="#a64b00" stroke-width="0" cx="739.321" cy="388.929" r="21.3333"/>
<circle fill="#a64b00" stroke="#a64b00" stroke-width="0" cx="260.418" cy="249.482" r="21.3333"/>
</svg>
