<?xml version="1.0" encoding="utf-8"?> <!-- Generator: Adobe Illustrator 13.0.0, SVG Export Plug-In . SVG Version: 6.00 Build 14948)  --> <svg version="1.2" baseProfile="tiny" id="Layer_1" xmlns="http://www.w3.org/2000/svg" xmlns:xlink="http://www.w3.org/1999/xlink" x="0px" y="0px" width="512px" height="512px" viewBox="0 0 512 512" xml:space="preserve">
<polygon points="0,0 512,0 512,512 0,512" style="fill:#ffffff; stroke:#000000;stroke-width:0"/>
<polygon points="-141.459,134.34 -123.426,95.6712 64.8704,183.48 46.838,222.148" style="fill:#006363; stroke:#000000;stroke-width:0"/>
<circle fill="#006363" stroke="#006363" stroke-width="0" cx="-132.442" cy="115.006" r="21.3333"/>
<circle fill="#006363" stroke="#006363" stroke-width="0" cx="55.8542" cy="202.814" r="21.3333"/>
<polygon points="588.543,318.129 545.952,315.594 558.467,105.272 601.058,107.806" style="fill:#006363; stroke:#000000;stroke-width:0"/>
<circle fill="#006363" stroke="#006363" stroke-width="0" cx="567.247" cy="316.862" r="21.3333"/>
<circle fill="#006363" stroke="#006363" stroke-width="0" cx="579.762" cy="106.539" r="21.3333"/>
<polygon points="1256,469.333 256,1469.33 -744,469.333" style="fill:#000000; stroke:#000000;stroke-width:0"/>
<polygon points="-744,42.6667 256,-957.333 1256,42.6667" style="fill:#000000; stroke:#000000;stroke-width:0"/>
<circle fill="#a64b00" stroke="#a64b00" stroke-width="0" cx="-132.442" cy="115.006" r="21.3333"/>
<circle fill="#a64b00" stroke="#a64b00" stroke-width="0" cx="55.8542" cy="202.814" r="21.3333"/>
<circle fill="#a64b00" stroke="#a64b00" stroke-width="0" cx="567.247" cy="316.862" r="21.3333"/>
<circle fill="#a64b00" stroke="#a64b00" stroke-width="0" cx="579.762" cy="106.539" r="21.3333"/>
<circle fill="#a64b00" stroke="#a64b00" stroke-width="0" cx="435.204" cy="316.266" r="21.3333"/>
</svg>
