<?xml version="1.0" encoding="utf-8"?> <!-- Generator: Adobe Illustrator 13.0.0, SVG Export Plug-In . SVG Version: 6.00 Build 14948)  --> <svg version="1.2" baseProfile="tiny" id="Layer_1" xmlns="http://www.w3.org/2000/svg" xmlns:xlink="http://www.w3.org/1999/xlink" x="0px" y="0px" width="512px" height="512px" viewBox="0 0 512 512" xml:space="preserve">
<polygon points="0,0 512,0 512,512 0,512" style="fill:#ffffff; stroke:#000000;stroke-width:0"/>
<polygon points="-164.479,305.017 -199.71,280.949 -81.0512,107.258 -45.8209,131.326" style="fill:#006363; stroke:#000000;stroke-width:0"/>
<circle fill="#006363" stroke="#006363" stroke-width="0" cx="-182.095" cy="292.983" r="21.3333"/>
<circle fill="#006363" stroke="#006363" stroke-width="0" cx="-63.4361" cy="119.292" r="21.3333"/>
<polygon points="571.035,296.86 588.711,258.027 781.185,345.635 763.509,384.468" style="fill:#006363; stroke:#000000;stroke-width:0"/>
<circle fill="#006363" stroke="#006363" stroke-width="0" cx="579.873" cy="277.444" r="21.3333"/>
<circle fill="#006363" stroke="#006363" stroke-width="0" cx="772.347" cy="365.051" r="21.3333"/>
<polygon points="1256,469.333 256,1469.33 -744,469.333" style="fill:#000000; stroke:#000000;stroke-width:0"/>
<polygon points="-744,42.6667 256,-957.333 1256,42.6667" style="fill:#000000; stroke:#000000;stroke-width:0"/>
<circle fill="#a64b00" stroke="#a64b00" stroke-width="0" cx="-182.095" cy="292.983" r="21.3333"/>
<circle fill="#a64b00" stroke="#a64b00" stroke-width="0" cx="-63.4361" cy="119.292" r="21.3333"/>
<circle fill="#a64b00" stroke="#a64b00" stroke-width="0" cx="579.873" cy="277.444" r="21.3333"/>
<circle fill="#a64b00" stroke="#a64b00" stroke-width="0" cx="772.347" cy="365.051" r="21.3333"/>
<circle fill="#a64b00" stroke="#a64b00" stroke-width="0" cx="243.118" cy="373.509" r="21.3333"/>
</svg>
