<?xml version="1.0" encoding="utf-8"?> <!-- Generator: Adobe Illustrator 13.0.0, SVG Export Plug-In . SVG Version: 6.00 Build 14948)  --> <svg version="1.2" baseProfile="tiny" id="Layer_1" xmlns="http://www.w3.org/2000/svg" xmlns:xlink="http://www.w3.org/1999/xlink" x="0px" y="0px" width="512px" height="512px" viewBox="0 0 512 512" xml:space="preserve">
<polygon points="0,0 512,0 512,512 0,512" style="fill:#ffffff; stroke:#000000;stroke-width:0"/>
<polygon points="-141.444,112.926 -132.42,71.2247 75.3489,116.186 66.3247,157.887" style="fill:#006363; stroke:#000000;stroke-width:0"/>
<circle fill="#006363" stroke="#006363" stroke-width="0" cx="-136.932" cy="92.0755" r="21.3333"/>
<circle fill="#006363" stroke="#006363" stroke-width="0" cx="70.8368" cy="137.036" r="21.3333"/>
<polygon points="552.846,312.41 512.483,298.58 581.418,97.3825 621.781,111.212" style="fill:#006363; stroke:#000000;stroke-width:0"/>
<circle fill="#006363" stroke="#006363" stroke-width="0" cx="532.664" cy="305.495" r="21.3333"/>
<circle fill="#006363" stroke="#006363" stroke-width="0" cx="601.599" cy="104.297" r="21.3333"/>
<polygon points="1256,469.333 256,1469.33 -744,469.333" style="fill:#000000; stroke:#000000;stroke-width:0"/>
<polygon points="-744,42.6667 256,-957.333 1256,42.6667" style="fill:#000000; stroke:#000000;stroke-width:0"/>
<circle fill="#a64b00" stroke="#a64b00" stroke-width="0" cx="-136.932" cy="92.0755" r="21.3333"/>
<circle fill="#a64b00" stroke="#a64b00" stroke-width="0" cx="70.8368" cy="137.036" r="21.3333"/>
<circle fill="#a64b00" stroke="#a64b00" stroke-width="0" cx="532.664" cy="305.495" r="21.3333"/>
<circle fill="#a64b00" stroke="#a64b00" stroke-width="0" cx="601.599" cy="104.297" r="21.3333"/>
<circle fill="#a64b00" stroke="#a64b00" stroke-width="0" cx="447.135" cy="392.59" r="21.3333"/>
</svg>
