<?xml version="1.0" encoding="utf-8"?> <!-- Generator: Adobe Illustrator 13.0.0, SVG Export Plug-In . SVG Version: 6.00 Build 14948)  --> <svg version="1.2" baseProfile="tiny" id="Layer_1" xmlns="http://www.w3.org/2000/svg" xmlns:xlink="http://www.w3.org/1999/xlink" x="0px" y="0px" width="512px" height="512px" viewBox="0 0 512 512" xml:space="preserve">
<polygon points="0,0 512,0 512,512 0,512" style="fill:#ffffff; stroke:#000000;stroke-width:0"/>
<polygon points="-164.267,345.416 -179.358,385.324 -378.225,310.124 -363.134,270.215" style="fill:#006363; stroke:#000000;stroke-width:0"/>
<circle fill="#006363" stroke="#006363" stroke-width="0" cx="-171.812" cy="365.37" r="21.3333"/>
<circle fill="#006363" stroke="#006363" stroke-width="0" cx="-370.679" cy="290.169" r="21.3333"/>
<polygon points="752.524,325.239 769.27,285.996 960.407,367.56 943.66,406.803" style="fill:#006363; stroke:#000000;stroke-width:0"/>
<circle fill="#006363" stroke="#006363" stroke-width="0" cx="760.897" cy="305.618" r="21.3333"/>
<circle fill="#006363" stroke="#006363" stroke-width="0" cx="952.034" cy="387.181" r="21.3333"/>
<polygon points="1256,469.333 256,1469.33 -744,469.333" style="fill:#000000; stroke:#000000;stroke-width:0"/>
<polygon points="-744,42.6667 256,-957.333 1256,42.6667" style="fill:#000000; stroke:#000000;stroke-width:0"/>
<circle fill="#a64b00" stroke="#a64b00" stroke-width="0" cx="-171.812" cy="365.37" r="21.3333"/>
<circle fill="#a64b00" stroke="#a64b00" stroke-width="0" cx="-370.679" cy="290.169" r="21.3333"/>
<circle fill="#a64b00" stroke="#a64b00" stroke-width="0" cx="760.897" cy="305.618" r="21.3333"/>
<circle fill="#a64b00" stroke="#a64b00" stroke-width="0" cx="952.034" cy="387.181" r="21.3333"/>
<circle fill="#a64b00" stroke="#a64b00" stroke-width="0" cx="-94.5248" cy="449.833" r="21.3333"/>
</svg>
