<?xml version="1.0" encoding="utf-8"?> <!-- Generator: Adobe Illustrator 13.0.0, SVG Export Plug-In . SVG Version: 6.00 Build 14948)  --> <svg version="1.2" baseProfile="tiny" id="Layer_1" xmlns="http://www.w3.org/2000/svg" xmlns:xlink="http://www.w3.org/1999/xlink" x="0px" y="0px" width="512px" height="512px" viewBox="0 0 512 512" xml:space="preserve">
<polygon points="0,0 512,0 512,512 0,512" style="fill:#ffffff; stroke:#000000;stroke-width:0"/>
<polygon points="-50.722,416.019 -62.6467,456.985 -273.509,395.606 -261.584,354.64" style="fill:#006363; stroke:#000000;stroke-width:0"/>
<circle fill="#006363" stroke="#006363" stroke-width="0" cx="-56.6843" cy="436.502" r="21.3333"/>
<circle fill="#006363" stroke="#006363" stroke-width="0" cx="-267.546" cy="375.123" r="21.3333"/>
<polygon points="698.583,388.609 659.815,370.791 749.232,176.239 788,194.057" style="fill:#006363; stroke:#000000;stroke-width:0"/>
<circle fill="#006363" stroke="#006363" stroke-width="0" cx="679.199" cy="379.7" r="21.3333"/>
<circle fill="#006363" stroke="#006363" stroke-width="0" cx="768.616" cy="185.148" r="21.3333"/>
<polygon points="1256,469.333 256,1469.33 -744,469.333" style="fill:#000000; stroke:#000000;stroke-width:0"/>
<polygon points="-744,42.6667 256,-957.333 1256,42.6667" style="fill:#000000; stroke:#000000;stroke-width:0"/>
<circle fill="#a64b00" stroke="#a64b00" stroke-width="0" cx="-56.6843" cy="436.502" r="21.3333"/>
<circle fill="#a64b00" stroke="#a64b00" stroke-width="0" cx="-267.546" cy="375.123" r="21.3333"/>
<circle fill="#a64b00" stroke="#a64b00" stroke-width="0" cx="679.199" cy="379.7" r="21.3333"/>
<circle fill="#a64b00" stroke="#a64b00" stroke-width="0" cx="768.616" cy="185.148" r="21.3333"/>
<circle fill="#a64b00" stroke="#a64b00" stroke-width="0" cx="153.637" cy="392.59" r="21.3333"/>
</svg>
