<?xml version="1.0" encoding="utf-8"?> <!-- Generator: Adobe Illustrator 13.0.0, SVG Export Plug-In . SVG Version: 6.00 Build 14948)  --> <svg version="1.2" baseProfile="tiny" id="Layer_1" xmlns="http://www.w3.org/2000/svg" xmlns:xlink="http://www.w3.org/1999/xlink" x="0px" y="0px" width="512px" height="512px" viewBox="0 0 512 512" xml:space="preserve">
<polygon points="0,0 512,0 512,512 0,512" style="fill:#ffffff; stroke:#000000;stroke-width:0"/>
<polygon points="-65.0809,268.764 -68.2131,311.316 -287.482,295.176 -284.35,252.624" style="fill:#006363; stroke:#000000;stroke-width:0"/>
<circle fill="#006363" stroke="#006363" stroke-width="0" cx="-66.647" cy="290.04" r="21.3333"/>
<circle fill="#006363" stroke="#006363" stroke-width="0" cx="-285.916" cy="273.9" r="21.3333"/>
<polygon points="734.382,297.711 693.179,286.631 747.846,83.3265 789.049,94.4057" style="fill:#006363; stroke:#000000;stroke-width:0"/>
<circle fill="#006363" stroke="#006363" stroke-width="0" cx="713.781" cy="292.171" r="21.3333"/>
<circle fill="#006363" stroke="#006363" stroke-width="0" cx="768.448" cy="88.8661" r="21.3333"/>
<polygon points="1256,469.333 256,1469.33 -744,469.333" style="fill:#000000; stroke:#000000;stroke-width:0"/>
<polygon points="-744,42.6667 256,-957.333 1256,42.6667" style="fill:#000000; stroke:#000000;stroke-width:0"/>
<circle fill="#a64b00" stroke="#a64b00" stroke-width="0" cx="-66.647" cy="290.04" r="21.3333"/>
<circle fill="#a64b00" stroke="#a64b00" stroke-width="0" cx="-285.916" cy="273.9" r="21.3333"/>
<circle fill="#a64b00" stroke="#a64b00" stroke-width="0" cx="713.781" cy="292.171" r="21.3333"/>
<circle fill="#a64b00" stroke="#a64b00" stroke-width="0" cx="768.448" cy="88.8661" r="21.3333"/>
<circle fill="#a64b00" stroke="#a64b00" stroke-width="0" cx="121.423" cy="125.455" r="21.3333"/>
</svg>
