<?xml version="1.0" encoding="utf-8"?> <!-- Generator: Adobe Illustrator 13.0.0, SVG Export Plug-In . SVG Version: 6.00 Build 14948)  --> <svg version="1.2" baseProfile="tiny" id="Layer_1" xmlns="http://www.w3.org/2000/svg" xmlns:xlink="http://www.w3.org/1999/xlink" x="0px" y="0px" width="512px" height="512px" viewBox="0 0 512 512" xml:space="preserve">
<polygon points="0,0 512,0 512,512 0,512" style="fill:#ffffff; stroke:#000000;stroke-width:0"/>
<polygon points="-136.972,163.703 -108.681,131.764 46.7424,269.437 18.4515,301.376" style="fill:#006363; stroke:#000000;stroke-width:0"/>
<circle fill="#006363" stroke="#006363" stroke-width="0" cx="-122.827" cy="147.733" r="21.3333"/>
<circle fill="#006363" stroke="#006363" stroke-width="0" cx="32.597" cy="285.406" r="21.3333"/>
<polygon points="632.473,315.288 591.604,327.544 531.107,125.804 571.975,113.548" style="fill:#006363; stroke:#000000;stroke-width:0"/>
<circle fill="#006363" stroke="#006363" stroke-width="0" cx="612.038" cy="321.416" r="21.3333"/>
<circle fill="#006363" stroke="#006363" stroke-width="0" cx="551.541" cy="119.676" r="21.3333"/>
<polygon points="1256,469.333 256,1469.33 -744,469.333" style="fill:#000000; stroke:#000000;stroke-width:0"/>
<polygon points="-744,42.6667 256,-957.333 1256,42.6667" style="fill:#000000; stroke:#000000;stroke-width:0"/>
<circle fill="#a64b00" stroke="#a64b00" stroke-width="0" cx="-122.827" cy="147.733" r="21.3333"/>
<circle fill="#a64b00" stroke="#a64b00" stroke-width="0" cx="32.597" cy="285.406" r="21.3333"/>
<circle fill="#a64b00" stroke="#a64b00" stroke-width="0" cx="612.038" cy="321.416" r="21.3333"/>
<circle fill="#a64b00" stroke="#a64b00" stroke-width="0" cx="551.541" cy="119.676" r="21.3333"/>
<circle fill="#a64b00" stroke="#a64b00" stroke-width="0" cx="419.694" cy="68.2121" r="21.3333"/>
</svg>
