<?xml version="1.0" encoding="utf-8"?> <!-- Generator: Adobe Illustrator 13.0.0, SVG Export Plug-In . SVG Version: 6.00 Build 14948)  --> <svg version="1.2" baseProfile="tiny" id="Layer_1" xmlns="http://www.w3.org/2000/svg" xmlns:xlink="http://www.w3.org/1999/xlink" x="0px" y="0px" width="512px" height="512px" viewBox="0 0 512 512" xml:space="preserve">
<polygon points="0,0 512,0 512,512 0,512" style="fill:#ffffff; stroke:#000000;stroke-width:0"/>
<polygon points="-199.011,312.854 -175.347,277.351 9.61918,400.635 -14.0445,436.138" style="fill:#006363; stroke:#000000;stroke-width:0"/>
<circle fill="#006363" stroke="#006363" stroke-width="0" cx="-187.179" cy="295.103" r="21.3333"/>
<circle fill="#006363" stroke="#006363" stroke-width="0" cx="-2.21265" cy="418.387" r="21.3333"/>
<polygon points="653.033,177.365 693.783,190.012 630.995,392.325 590.246,379.679" style="fill:#006363; stroke:#000000;stroke-width:0"/>
<circle fill="#006363" stroke="#006363" stroke-width="0" cx="673.408" cy="183.688" r="21.3333"/>
<circle fill="#006363" stroke="#006363" stroke-width="0" cx="610.621" cy="386.002" r="21.3333"/>
<polygon points="1256,469.333 256,1469.33 -744,469.333" style="fill:#000000; stroke:#000000;stroke-width:0"/>
<polygon points="-744,42.6667 256,-957.333 1256,42.6667" style="fill:#000000; stroke:#000000;stroke-width:0"/>
<circle fill="#a64b00" stroke="#a64b00" stroke-width="0" cx="-187.179" cy="295.103" r="21.3333"/>
<circle fill="#a64b00" stroke="#a64b00" stroke-width="0" cx="-2.21265" cy="418.387" r="21.3333"/>
<circle fill="#a64b00" stroke="#a64b00" stroke-width="0" cx="673.408" cy="183.688" r="21.3333"/>
<circle fill="#a64b00" stroke="#a64b00" stroke-width="0" cx="610.621" cy="386.002" r="21.3333"/>
<circle fill="#a64b00" stroke="#a64b00" stroke-width="0" cx="306.948" cy="287.644" r="21.3333"/>
</svg>
