<?xml version="1.0" encoding="utf-8"?> <!-- Generator: Adobe Illustrator 13.0.0, SVG Export Plug-In . SVG Version: 6.00 Build 14948)  --> <svg version="1.2" baseProfile="tiny" id="Layer_1" xmlns="http://www.w3.org/2000/svg" xmlns:xlink="http://www.w3.org/1999/xlink" x="0px" y="0px" width="512px" height="512px" viewBox="0 0 512 512" xml:space="preserve">
<polygon points="0,0 512,0 512,512 0,512" style="fill:#ffffff; stroke:#000000;stroke-width:0"/>
<polygon points="-360.519,363.608 -396.719,341.024 -285.044,162.015 -248.844,184.599" style="fill:#006363; stroke:#000000;stroke-width:0"/>
<circle fill="#006363" stroke="#006363" stroke-width="0" cx="-378.619" cy="352.316" r="21.3333"/>
<circle fill="#006363" stroke="#006363" stroke-width="0" cx="-266.944" cy="173.307" r="21.3333"/>
<polygon points="949.017,217.166 985.858,238.686 879.902,420.074 843.06,398.554" style="fill:#006363; stroke:#000000;stroke-width:0"/>
<circle fill="#006363" stroke="#006363" stroke-width="0" cx="967.437" cy="227.926" r="21.3333"/>
<circle fill="#006363" stroke="#006363" stroke-width="0" cx="861.481" cy="409.314" r="21.3333"/>
<polygon points="1256,469.333 256,1469.33 -744,469.333" style="fill:#000000; stroke:#000000;stroke-width:0"/>
<polygon points="-744,42.6667 256,-957.333 1256,42.6667" style="fill:#000000; stroke:#000000;stroke-width:0"/>
<circle fill="#a64b00" stroke="#a64b00" stroke-width="0" cx="-378.619" cy="352.316" r="21.3333"/>
<circle fill="#a64b00" stroke="#a64b00" stroke-width="0" cx="-266.944" cy="173.307" r="21.3333"/>
<circle fill="#a64b00" stroke="#a64b00" stroke-width="0" cx="967.437" cy="227.926" r="21.3333"/>
<circle fill="#a64b00" stroke="#a64b00" stroke-width="0" cx="861.481" cy="409.314" r="21.3333"/>
<circle fill="#a64b00" stroke="#a64b00" stroke-width="0" cx="555.141" cy="257.631" r="21.3333"/>
</svg>
