<?xml version="1.0" encoding="utf-8"?> <!-- Generator: Adobe Illustrator 13.0.0, SVG Export Plug-In . SVG Version: 6.00 Build 14948)  --> <svg version="1.2" baseProfile="tiny" id="Layer_1" xmlns="http://www.w3.org/2000/svg" xmlns:xlink="http://www.w3.org/1999/xlink" x="0px" y="0px" width="512px" height="512px" viewBox="0 0 512 512" xml:space="preserve">
<polygon points="0,0 512,0 512,512 0,512" style="fill:#ffffff; stroke:#000000;stroke-width:0"/>
<polygon points="-212.302,243.392 -234.88,207.189 -48.4437,90.9229 -25.8663,127.127" style="fill:#006363; stroke:#000000;stroke-width:0"/>
<circle fill="#006363" stroke="#006363" stroke-width="0" cx="-223.591" cy="225.29" r="21.3333"/>
<circle fill="#006363" stroke="#006363" stroke-width="0" cx="-37.155" cy="109.025" r="21.3333"/>
<polygon points="576.352,348.509 577.898,305.871 794.349,313.718 792.803,356.357" style="fill:#006363; stroke:#000000;stroke-width:0"/>
<circle fill="#006363" stroke="#006363" stroke-width="0" cx="577.125" cy="327.19" r="21.3333"/>
<circle fill="#006363" stroke="#006363" stroke-width="0" cx="793.576" cy="335.037" r="21.3333"/>
<polygon points="1256,469.333 256,1469.33 -744,469.333" style="fill:#000000; stroke:#000000;stroke-width:0"/>
<polygon points="-744,42.6667 256,-957.333 1256,42.6667" style="fill:#000000; stroke:#000000;stroke-width:0"/>
<circle fill="#a64b00" stroke="#a64b00" stroke-width="0" cx="-223.591" cy="225.29" r="21.3333"/>
<circle fill="#a64b00" stroke="#a64b00" stroke-width="0" cx="-37.155" cy="109.025" r="21.3333"/>
<circle fill="#a64b00" stroke="#a64b00" stroke-width="0" cx="577.125" cy="327.19" r="21.3333"/>
<circle fill="#a64b00" stroke="#a64b00" stroke-width="0" cx="793.576" cy="335.037" r="21.3333"/>
<circle fill="#a64b00" stroke="#a64b00" stroke-width="0" cx="225.818" cy="96.8337" r="21.3333"/>
</svg>
