<?xml version="1.0" encoding="utf-8"?> <!-- Generator: Adobe Illustrator 13.0.0, SVG Export Plug-In . SVG Version: 6.00 Build 14948)  --> <svg version="1.2" baseProfile="tiny" id="Layer_1" xmlns="http://www.w3.org/2000/svg" xmlns:xlink="http://www.w3.org/1999/xlink" x="0px" y="0px" width="512px" height="512px" viewBox="0 0 512 512" xml:space="preserve">
<polygon points="0,0 512,0 512,512 0,512" style="fill:#ffffff; stroke:#000000;stroke-width:0"/>
<polygon points="-212.572,358.977 -204.889,317.008 13.7361,357.027 6.05378,398.996" style="fill:#006363; stroke:#000000;stroke-width:0"/>
<circle fill="#006363" stroke="#006363" stroke-width="0" cx="-208.73" cy="337.993" r="21.3333"/>
<circle fill="#006363" stroke="#006363" stroke-width="0" cx="9.89494" cy="378.011" r="21.3333"/>
<polygon points="632.551,184.521 675.146,186.99 662.949,397.417 620.354,394.948" style="fill:#006363; stroke:#000000;stroke-width:0"/>
<circle fill="#006363" stroke="#006363" stroke-width="0" cx="653.849" cy="185.755" r="21.3333"/>
<circle fill="#006363" stroke="#006363" stroke-width="0" cx="641.651" cy="396.183" r="21.3333"/>
<polygon points="1256,469.333 256,1469.33 -744,469.333" style="fill:#000000; stroke:#000000;stroke-width:0"/>
<polygon points="-744,42.6667 256,-957.333 1256,42.6667" style="fill:#000000; stroke:#000000;stroke-width:0"/>
<circle fill="#a64b00" stroke="#a64b00" stroke-width="0" cx="-208.73" cy="337.993" r="21.3333"/>
<circle fill="#a64b00" stroke="#a64b00" stroke-width="0" cx="9.89494" cy="378.011" r="21.3333"/>
<circle fill="#a64b00" stroke="#a64b00" stroke-width="0" cx="653.849" cy="185.755" r="21.3333"/>
<circle fill="#a64b00" stroke="#a64b00" stroke-width="0" cx="641.651" cy="396.183" r="21.3333"/>
<circle fill="#a64b00" stroke="#a64b00" stroke-width="0" cx="296.21" cy="440.293" r="21.3333"/>
</svg>
