<?xml version="1.0" encoding="utf-8"?> <!-- Generator: Adobe Illustrator 13.0.0, SVG Export Plug-In . SVG Version: 6.00 Build 14948)  --> <svg version="1.2" baseProfile="tiny" id="Layer_1" xmlns="http://www.w3.org/2000/svg" xmlns:xlink="http://www.w3.org/1999/xlink" x="0px" y="0px" width="512px" height="512px" viewBox="0 0 512 512" xml:space="preserve">
<polygon points="0,0 512,0 512,512 0,512" style="fill:#ffffff; stroke:#000000;stroke-width:0"/>
<polygon points="-106.652,95.8372 -64.3017,90.6495 -38.1431,304.201 -80.4932,309.388" style="fill:#006363; stroke:#000000;stroke-width:0"/>
<circle fill="#006363" stroke="#006363" stroke-width="0" cx="-85.4767" cy="93.2434" r="21.3333"/>
<circle fill="#006363" stroke="#006363" stroke-width="0" cx="-59.3181" cy="306.795" r="21.3333"/>
<polygon points="716.679,221.783 721.941,264.124 513.18,290.072 507.917,247.731" style="fill:#006363; stroke:#000000;stroke-width:0"/>
<circle fill="#006363" stroke="#006363" stroke-width="0" cx="719.31" cy="242.954" r="21.3333"/>
<circle fill="#006363" stroke="#006363" stroke-width="0" cx="510.548" cy="268.901" r="21.3333"/>
<polygon points="1256,469.333 256,1469.33 -744,469.333" style="fill:#000000; stroke:#000000;stroke-width:0"/>
<polygon points="-744,42.6667 256,-957.333 1256,42.6667" style="fill:#000000; stroke:#000000;stroke-width:0"/>
<circle fill="#a64b00" stroke="#a64b00" stroke-width="0" cx="-85.4767" cy="93.2434" r="21.3333"/>
<circle fill="#a64b00" stroke="#a64b00" stroke-width="0" cx="-59.3181" cy="306.795" r="21.3333"/>
<circle fill="#a64b00" stroke="#a64b00" stroke-width="0" cx="719.31" cy="242.954" r="21.3333"/>
<circle fill="#a64b00" stroke="#a64b00" stroke-width="0" cx="510.548" cy="268.901" r="21.3333"/>
<circle fill="#a64b00" stroke="#a64b00" stroke-width="0" cx="357.654" cy="259.023" r="21.3333"/>
</svg>
