<?xml version="1.0" encoding="utf-8"?> <!-- Generator: Adobe Illustrator 13.0.0, SVG Export Plug-In . SVG Version: 6.00 Build 14948)  --> <svg version="1.2" baseProfile="tiny" id="Layer_1" xmlns="http://www.w3.org/2000/svg" xmlns:xlink="http://www.w3.org/1999/xlink" x="0px" y="0px" width="512px" height="512px" viewBox="0 0 512 512" xml:space="preserve">
<polygon points="0,0 512,0 512,512 0,512" style="fill:#ffffff; stroke:#000000;stroke-width:0"/>
<polygon points="-131.106,107.229 -119.719,66.1096 89.6708,124.097 78.2834,165.216" style="fill:#006363; stroke:#000000;stroke-width:0"/>
<circle fill="#006363" stroke="#006363" stroke-width="0" cx="-125.413" cy="86.6691" r="21.3333"/>
<circle fill="#006363" stroke="#006363" stroke-width="0" cx="83.9771" cy="144.657" r="21.3333"/>
<polygon points="475.772,267.985 451.419,232.951 628.538,109.828 652.892,144.861" style="fill:#006363; stroke:#000000;stroke-width:0"/>
<circle fill="#006363" stroke="#006363" stroke-width="0" cx="463.596" cy="250.468" r="21.3333"/>
<circle fill="#006363" stroke="#006363" stroke-width="0" cx="640.715" cy="127.345" r="21.3333"/>
<polygon points="1256,469.333 256,1469.33 -744,469.333" style="fill:#000000; stroke:#000000;stroke-width:0"/>
<polygon points="-744,42.6667 256,-957.333 1256,42.6667" style="fill:#000000; stroke:#000000;stroke-width:0"/>
<circle fill="#a64b00" stroke="#a64b00" stroke-width="0" cx="-125.413" cy="86.6691" r="21.3333"/>
<circle fill="#a64b00" stroke="#a64b00" stroke-width="0" cx="83.9771" cy="144.657" r="21.3333"/>
<circle fill="#a64b00" stroke="#a64b00" stroke-width="0" cx="463.596" cy="250.468" r="21.3333"/>
<circle fill="#a64b00" stroke="#a64b00" stroke-width="0" cx="640.715" cy="127.345" r="21.3333"/>
<circle fill="#a64b00" stroke="#a64b00" stroke-width="0" cx="475.173" cy="173.158" r="21.3333"/>
</svg>
