<?xml version="1.0" encoding="utf-8"?> <!-- Generator: Adobe Illustrator 13.0.0, SVG Export Plug-In . SVG Version: 6.00 Build 14948)  --> <svg version="1.2" baseProfile="tiny" id="Layer_1" xmlns="http://www.w3.org/2000/svg" xmlns:xlink="http://www.w3.org/1999/xlink" x="0px" y="0px" width="512px" height="512px" viewBox="0 0 512 512" xml:space="preserve">
<polygon points="0,0 512,0 512,512 0,512" style="fill:#ffffff; stroke:#000000;stroke-width:0"/>
<polygon points="-131.179,103.927 -120.955,62.503 88.1691,114.119 77.945,155.542" style="fill:#006363; stroke:#000000;stroke-width:0"/>
<circle fill="#006363" stroke="#006363" stroke-width="0" cx="-126.067" cy="83.2147" r="21.3333"/>
<circle fill="#006363" stroke="#006363" stroke-width="0" cx="83.0571" cy="134.831" r="21.3333"/>
<polygon points="480.618,271.437 454.898,237.394 625.604,108.417 651.325,142.46" style="fill:#006363; stroke:#000000;stroke-width:0"/>
<circle fill="#006363" stroke="#006363" stroke-width="0" cx="467.758" cy="254.416" r="21.3333"/>
<circle fill="#006363" stroke="#006363" stroke-width="0" cx="638.465" cy="125.438" r="21.3333"/>
<polygon points="1256,469.333 256,1469.33 -744,469.333" style="fill:#000000; stroke:#000000;stroke-width:0"/>
<polygon points="-744,42.6667 256,-957.333 1256,42.6667" style="fill:#000000; stroke:#000000;stroke-width:0"/>
<circle fill="#a64b00" stroke="#a64b00" stroke-width="0" cx="-126.067" cy="83.2147" r="21.3333"/>
<circle fill="#a64b00" stroke="#a64b00" stroke-width="0" cx="83.0571" cy="134.831" r="21.3333"/>
<circle fill="#a64b00" stroke="#a64b00" stroke-width="0" cx="467.758" cy="254.416" r="21.3333"/>
<circle fill="#a64b00" stroke="#a64b00" stroke-width="0" cx="638.465" cy="125.438" r="21.3333"/>
<circle fill="#a64b00" stroke="#a64b00" stroke-width="0" cx="473.383" cy="144.536" r="21.3333"/>
</svg>
