<?xml version="1.0" encoding="utf-8"?> <!-- Generator: Adobe Illustrator 13.0.0, SVG Export Plug-In . SVG Version: 6.00 Build 14948)  --> <svg version="1.2" baseProfile="tiny" id="Layer_1" xmlns="http://www.w3.org/2000/svg" xmlns:xlink="http://www.w3.org/1999/xlink" x="0px" y="0px" width="512px" height="512px" viewBox="0 0 512 512" xml:space="preserve">
<polygon points="0,0 512,0 512,512 0,512" style="fill:#ffffff; stroke:#000000;stroke-width:0"/>
<polygon points="-172.341,326.748 -155.117,365.783 -353.886,453.489 -371.11,414.453" style="fill:#006363; stroke:#000000;stroke-width:0"/>
<circle fill="#006363" stroke="#006363" stroke-width="0" cx="-163.729" cy="346.265" r="21.3333"/>
<circle fill="#006363" stroke="#006363" stroke-width="0" cx="-362.498" cy="433.971" r="21.3333"/>
<polygon points="736.656,359.823 741.586,317.442 956.518,342.439 951.588,384.82" style="fill:#006363; stroke:#000000;stroke-width:0"/>
<circle fill="#006363" stroke="#006363" stroke-width="0" cx="739.121" cy="338.632" r="21.3333"/>
<circle fill="#006363" stroke="#006363" stroke-width="0" cx="954.053" cy="363.63" r="21.3333"/>
<polygon points="1256,469.333 256,1469.33 -744,469.333" style="fill:#000000; stroke:#000000;stroke-width:0"/>
<polygon points="-744,42.6667 256,-957.333 1256,42.6667" style="fill:#000000; stroke:#000000;stroke-width:0"/>
<circle fill="#a64b00" stroke="#a64b00" stroke-width="0" cx="-163.729" cy="346.265" r="21.3333"/>
<circle fill="#a64b00" stroke="#a64b00" stroke-width="0" cx="-362.498" cy="433.971" r="21.3333"/>
<circle fill="#a64b00" stroke="#a64b00" stroke-width="0" cx="739.121" cy="338.632" r="21.3333"/>
<circle fill="#a64b00" stroke="#a64b00" stroke-width="0" cx="954.053" cy="363.63" r="21.3333"/>
<circle fill="#a64b00" stroke="#a64b00" stroke-width="0" cx="-76.032" cy="154.077" r="21.3333"/>
</svg>
