<?xml version="1.0" encoding="utf-8"?> <!-- Generator: Adobe Illustrator 13.0.0, SVG Export Plug-In . SVG Version: 6.00 Build 14948)  --> <svg version="1.2" baseProfile="tiny" id="Layer_1" xmlns="http://www.w3.org/2000/svg" xmlns:xlink="http://www.w3.org/1999/xlink" x="0px" y="0px" width="512px" height="512px" viewBox="0 0 512 512" xml:space="preserve">
<polygon points="0,0 512,0 512,512 0,512" style="fill:#ffffff; stroke:#000000;stroke-width:0"/>
<polygon points="7.08796,69.4327 49.689,67.0664 61.3716,277.388 18.7706,279.754" style="fill:#006363; stroke:#000000;stroke-width:0"/>
<circle fill="#006363" stroke="#006363" stroke-width="0" cx="28.3885" cy="68.2496" r="21.3333"/>
<circle fill="#006363" stroke="#006363" stroke-width="0" cx="40.0711" cy="278.571" r="21.3333"/>
<polygon points="456.684,212.595 499.255,209.74 513.535,422.701 470.964,425.555" style="fill:#006363; stroke:#000000;stroke-width:0"/>
<circle fill="#006363" stroke="#006363" stroke-width="0" cx="477.969" cy="211.168" r="21.3333"/>
<circle fill="#006363" stroke="#006363" stroke-width="0" cx="492.249" cy="424.128" r="21.3333"/>
<polygon points="1256,469.333 256,1469.33 -744,469.333" style="fill:#000000; stroke:#000000;stroke-width:0"/>
<polygon points="-744,42.6667 256,-957.333 1256,42.6667" style="fill:#000000; stroke:#000000;stroke-width:0"/>
<circle fill="#a64b00" stroke="#a64b00" stroke-width="0" cx="28.3885" cy="68.2496" r="21.3333"/>
<circle fill="#a64b00" stroke="#a64b00" stroke-width="0" cx="40.0711" cy="278.571" r="21.3333"/>
<circle fill="#a64b00" stroke="#a64b00" stroke-width="0" cx="477.969" cy="211.168" r="21.3333"/>
<circle fill="#a64b00" stroke="#a64b00" stroke-width="0" cx="492.249" cy="424.128" r="21.3333"/>
<circle fill="#a64b00" stroke="#a64b00" stroke-width="0" cx="121.492" cy="298.813" r="21.3333"/>
</svg>
