<?xml version="1.0" encoding="utf-8"?> <!-- Generator: Adobe Illustrator 13.0.0, SVG Export Plug-In . SVG Version: 6.00 Build 14948)  --> <svg version="1.2" baseProfile="tiny" id="Layer_1" xmlns="http://www.w3.org/2000/svg" xmlns:xlink="http://www.w3.org/1999/xlink" x="0px" y="0px" width="512px" height="512px" viewBox="0 0 512 512" xml:space="preserve">
<polygon points="0,0 512,0 512,512 0,512" style="fill:#ffffff; stroke:#000000;stroke-width:0"/>
<polygon points="-158.332,455.456 -191.979,429.22 -65.6878,267.253 -32.0407,293.489" style="fill:#006363; stroke:#000000;stroke-width:0"/>
<circle fill="#006363" stroke="#006363" stroke-width="0" cx="-175.155" cy="442.338" r="21.3333"/>
<circle fill="#006363" stroke="#006363" stroke-width="0" cx="-48.8643" cy="280.371" r="21.3333"/>
<polygon points="585.131,229.329 620.578,205.581 740.96,385.269 705.513,409.017" style="fill:#006363; stroke:#000000;stroke-width:0"/>
<circle fill="#006363" stroke="#006363" stroke-width="0" cx="602.854" cy="217.455" r="21.3333"/>
<circle fill="#006363" stroke="#006363" stroke-width="0" cx="723.236" cy="397.143" r="21.3333"/>
<polygon points="1256,469.333 256,1469.33 -744,469.333" style="fill:#000000; stroke:#000000;stroke-width:0"/>
<polygon points="-744,42.6667 256,-957.333 1256,42.6667" style="fill:#000000; stroke:#000000;stroke-width:0"/>
<circle fill="#a64b00" stroke="#a64b00" stroke-width="0" cx="-175.155" cy="442.338" r="21.3333"/>
<circle fill="#a64b00" stroke="#a64b00" stroke-width="0" cx="-48.8643" cy="280.371" r="21.3333"/>
<circle fill="#a64b00" stroke="#a64b00" stroke-width="0" cx="602.854" cy="217.455" r="21.3333"/>
<circle fill="#a64b00" stroke="#a64b00" stroke-width="0" cx="723.236" cy="397.143" r="21.3333"/>
<circle fill="#a64b00" stroke="#a64b00" stroke-width="0" cx="267.576" cy="134.996" r="21.3333"/>
</svg>
