<?xml version="1.0" encoding="utf-8"?> <!-- Generator: Adobe Illustrator 13.0.0, SVG Export Plug-In . SVG Version: 6.00 Build 14948)  --> <svg version="1.2" baseProfile="tiny" id="Layer_1" xmlns="http://www.w3.org/2000/svg" xmlns:xlink="http://www.w3.org/1999/xlink" x="0px" y="0px" width="512px" height="512px" viewBox="0 0 512 512" xml:space="preserve">
<polygon points="0,0 512,0 512,512 0,512" style="fill:#ffffff; stroke:#000000;stroke-width:0"/>
<polygon points="-125.832,196.972 -88.8866,175.629 20.3871,364.794 -16.5583,386.136" style="fill:#006363; stroke:#000000;stroke-width:0"/>
<circle fill="#006363" stroke="#006363" stroke-width="0" cx="-107.359" cy="186.3" r="21.3333"/>
<circle fill="#006363" stroke="#006363" stroke-width="0" cx="1.91442" cy="375.465" r="21.3333"/>
<polygon points="675.775,300.83 642.669,327.745 506.286,159.994 539.392,133.078" style="fill:#006363; stroke:#000000;stroke-width:0"/>
<circle fill="#006363" stroke="#006363" stroke-width="0" cx="659.222" cy="314.287" r="21.3333"/>
<circle fill="#006363" stroke="#006363" stroke-width="0" cx="522.839" cy="146.536" r="21.3333"/>
<polygon points="1256,469.333 256,1469.33 -744,469.333" style="fill:#000000; stroke:#000000;stroke-width:0"/>
<polygon points="-744,42.6667 256,-957.333 1256,42.6667" style="fill:#000000; stroke:#000000;stroke-width:0"/>
<circle fill="#a64b00" stroke="#a64b00" stroke-width="0" cx="-107.359" cy="186.3" r="21.3333"/>
<circle fill="#a64b00" stroke="#a64b00" stroke-width="0" cx="1.91442" cy="375.465" r="21.3333"/>
<circle fill="#a64b00" stroke="#a64b00" stroke-width="0" cx="659.222" cy="314.287" r="21.3333"/>
<circle fill="#a64b00" stroke="#a64b00" stroke-width="0" cx="522.839" cy="146.536" r="21.3333"/>
<circle fill="#a64b00" stroke="#a64b00" stroke-width="0" cx="402.395" cy="325.806" r="21.3333"/>
</svg>
