<?xml version="1.0" encoding="utf-8"?> <!-- Generator: Adobe Illustrator 13.0.0, SVG Export Plug-In . SVG Version: 6.00 Build 14948)  --> <svg version="1.2" baseProfile="tiny" id="Layer_1" xmlns="http://www.w3.org/2000/svg" xmlns:xlink="http://www.w3.org/1999/xlink" x="0px" y="0px" width="512px" height="512px" viewBox="0 0 512 512" xml:space="preserve">
<polygon points="0,0 512,0 512,512 0,512" style="fill:#ffffff; stroke:#000000;stroke-width:0"/>
<polygon points="-179.646,441.755 -205.662,407.938 -38.6022,279.417 -12.5862,313.235" style="fill:#006363; stroke:#000000;stroke-width:0"/>
<circle fill="#006363" stroke="#006363" stroke-width="0" cx="-192.654" cy="424.847" r="21.3333"/>
<circle fill="#006363" stroke="#006363" stroke-width="0" cx="-25.5942" cy="296.326" r="21.3333"/>
<polygon points="594.966,216.996 633.531,198.742 724.114,390.118 685.549,408.371" style="fill:#006363; stroke:#000000;stroke-width:0"/>
<circle fill="#006363" stroke="#006363" stroke-width="0" cx="614.249" cy="207.869" r="21.3333"/>
<circle fill="#006363" stroke="#006363" stroke-width="0" cx="704.831" cy="399.244" r="21.3333"/>
<polygon points="1256,469.333 256,1469.33 -744,469.333" style="fill:#000000; stroke:#000000;stroke-width:0"/>
<polygon points="-744,42.6667 256,-957.333 1256,42.6667" style="fill:#000000; stroke:#000000;stroke-width:0"/>
<circle fill="#a64b00" stroke="#a64b00" stroke-width="0" cx="-192.654" cy="424.847" r="21.3333"/>
<circle fill="#a64b00" stroke="#a64b00" stroke-width="0" cx="-25.5942" cy="296.326" r="21.3333"/>
<circle fill="#a64b00" stroke="#a64b00" stroke-width="0" cx="614.249" cy="207.869" r="21.3333"/>
<circle fill="#a64b00" stroke="#a64b00" stroke-width="0" cx="704.831" cy="399.244" r="21.3333"/>
<circle fill="#a64b00" stroke="#a64b00" stroke-width="0" cx="274.138" cy="87.2932" r="21.3333"/>
</svg>
