<?xml version="1.0" encoding="utf-8"?> <!-- Generator: Adobe Illustrator 13.0.0, SVG Export Plug-In . SVG Version: 6.00 Build 14948)  --> <svg version="1.2" baseProfile="tiny" id="Layer_1" xmlns="http://www.w3.org/2000/svg" xmlns:xlink="http://www.w3.org/1999/xlink" x="0px" y="0px" width="512px" height="512px" viewBox="0 0 512 512" xml:space="preserve">
<polygon points="0,0 512,0 512,512 0,512" style="fill:#ffffff; stroke:#000000;stroke-width:0"/>
<polygon points="-168.443,329.465 -156.356,370.384 -360.407,430.659 -372.494,389.74" style="fill:#006363; stroke:#000000;stroke-width:0"/>
<circle fill="#006363" stroke="#006363" stroke-width="0" cx="-162.399" cy="349.924" r="21.3333"/>
<circle fill="#006363" stroke="#006363" stroke-width="0" cx="-366.451" cy="410.2" r="21.3333"/>
<polygon points="742.329,354.786 749.17,312.672 954.032,345.95 947.191,388.064" style="fill:#006363; stroke:#000000;stroke-width:0"/>
<circle fill="#006363" stroke="#006363" stroke-width="0" cx="745.749" cy="333.729" r="21.3333"/>
<circle fill="#006363" stroke="#006363" stroke-width="0" cx="950.611" cy="367.007" r="21.3333"/>
<polygon points="1256,469.333 256,1469.33 -744,469.333" style="fill:#000000; stroke:#000000;stroke-width:0"/>
<polygon points="-744,42.6667 256,-957.333 1256,42.6667" style="fill:#000000; stroke:#000000;stroke-width:0"/>
<circle fill="#a64b00" stroke="#a64b00" stroke-width="0" cx="-162.399" cy="349.924" r="21.3333"/>
<circle fill="#a64b00" stroke="#a64b00" stroke-width="0" cx="-366.451" cy="410.2" r="21.3333"/>
<circle fill="#a64b00" stroke="#a64b00" stroke-width="0" cx="745.749" cy="333.729" r="21.3333"/>
<circle fill="#a64b00" stroke="#a64b00" stroke-width="0" cx="950.611" cy="367.007" r="21.3333"/>
<circle fill="#a64b00" stroke="#a64b00" stroke-width="0" cx="-79.0147" cy="201.779" r="21.3333"/>
</svg>
