<?xml version="1.0" encoding="utf-8"?> <!-- Generator: Adobe Illustrator 13.0.0, SVG Export Plug-In . SVG Version: 6.00 Build 14948)  --> <svg version="1.2" baseProfile="tiny" id="Layer_1" xmlns="http://www.w3.org/2000/svg" xmlns:xlink="http://www.w3.org/1999/xlink" x="0px" y="0px" width="512px" height="512px" viewBox="0 0 512 512" xml:space="preserve">
<polygon points="0,0 512,0 512,512 0,512" style="fill:#ffffff; stroke:#000000;stroke-width:0"/>
<polygon points="-102.125,206.84 -60.0008,200.058 -26.4053,408.709 -68.5294,415.491" style="fill:#006363; stroke:#000000;stroke-width:0"/>
<circle fill="#006363" stroke="#006363" stroke-width="0" cx="-81.0629" cy="203.449" r="21.3333"/>
<circle fill="#006363" stroke="#006363" stroke-width="0" cx="-47.4674" cy="412.1" r="21.3333"/>
<polygon points="714.873,256.423 702.48,297.25 495.229,234.339 507.622,193.512" style="fill:#006363; stroke:#000000;stroke-width:0"/>
<circle fill="#006363" stroke="#006363" stroke-width="0" cx="708.676" cy="276.837" r="21.3333"/>
<circle fill="#006363" stroke="#006363" stroke-width="0" cx="501.426" cy="213.925" r="21.3333"/>
<polygon points="1256,469.333 256,1469.33 -744,469.333" style="fill:#000000; stroke:#000000;stroke-width:0"/>
<polygon points="-744,42.6667 256,-957.333 1256,42.6667" style="fill:#000000; stroke:#000000;stroke-width:0"/>
<circle fill="#a64b00" stroke="#a64b00" stroke-width="0" cx="-81.0629" cy="203.449" r="21.3333"/>
<circle fill="#a64b00" stroke="#a64b00" stroke-width="0" cx="-47.4674" cy="412.1" r="21.3333"/>
<circle fill="#a64b00" stroke="#a64b00" stroke-width="0" cx="708.676" cy="276.837" r="21.3333"/>
<circle fill="#a64b00" stroke="#a64b00" stroke-width="0" cx="501.426" cy="213.925" r="21.3333"/>
<circle fill="#a64b00" stroke="#a64b00" stroke-width="0" cx="376.147" cy="154.077" r="21.3333"/>
</svg>
