<?xml version="1.0" encoding="utf-8"?> <!-- Generator: Adobe Illustrator 13.0.0, SVG Export Plug-In . SVG Version: 6.00 Build 14948)  --> <svg version="1.2" baseProfile="tiny" id="Layer_1" xmlns="http://www.w3.org/2000/svg" xmlns:xlink="http://www.w3.org/1999/xlink" x="0px" y="0px" width="512px" height="512px" viewBox="0 0 512 512" xml:space="preserve">
<polygon points="0,0 512,0 512,512 0,512" style="fill:#ffffff; stroke:#000000;stroke-width:0"/>
<polygon points="-186.337,430.311 -207.677,393.365 -28.7635,290.023 -7.42317,326.97" style="fill:#006363; stroke:#000000;stroke-width:0"/>
<circle fill="#006363" stroke="#006363" stroke-width="0" cx="-197.007" cy="411.838" r="21.3333"/>
<circle fill="#006363" stroke="#006363" stroke-width="0" cx="-18.0934" cy="308.497" r="21.3333"/>
<polygon points="599.447,207.737 639.367,192.676 715.809,395.294 675.889,410.354" style="fill:#006363; stroke:#000000;stroke-width:0"/>
<circle fill="#006363" stroke="#006363" stroke-width="0" cx="619.407" cy="200.207" r="21.3333"/>
<circle fill="#006363" stroke="#006363" stroke-width="0" cx="695.849" cy="402.824" r="21.3333"/>
<polygon points="1256,469.333 256,1469.33 -744,469.333" style="fill:#000000; stroke:#000000;stroke-width:0"/>
<polygon points="-744,42.6667 256,-957.333 1256,42.6667" style="fill:#000000; stroke:#000000;stroke-width:0"/>
<circle fill="#a64b00" stroke="#a64b00" stroke-width="0" cx="-197.007" cy="411.838" r="21.3333"/>
<circle fill="#a64b00" stroke="#a64b00" stroke-width="0" cx="-18.0934" cy="308.497" r="21.3333"/>
<circle fill="#a64b00" stroke="#a64b00" stroke-width="0" cx="619.407" cy="200.207" r="21.3333"/>
<circle fill="#a64b00" stroke="#a64b00" stroke-width="0" cx="695.849" cy="402.824" r="21.3333"/>
<circle fill="#a64b00" stroke="#a64b00" stroke-width="0" cx="277.717" cy="144.536" r="21.3333"/>
</svg>
