<?xml version="1.0" encoding="utf-8"?> <!-- Generator: Adobe Illustrator 13.0.0, SVG Export Plug-In . SVG Version: 6.00 Build 14948)  --> <svg version="1.2" baseProfile="tiny" id="Layer_1" xmlns="http://www.w3.org/2000/svg" xmlns:xlink="http://www.w3.org/1999/xlink" x="0px" y="0px" width="512px" height="512px" viewBox="0 0 512 512" xml:space="preserve">
<polygon points="0,0 512,0 512,512 0,512" style="fill:#ffffff; stroke:#000000;stroke-width:0"/>
<polygon points="-203.078,332.157 -185.396,293.327 10.0143,382.31 -7.66768,421.14" style="fill:#006363; stroke:#000000;stroke-width:0"/>
<circle fill="#006363" stroke="#006363" stroke-width="0" cx="-194.237" cy="312.742" r="21.3333"/>
<circle fill="#006363" stroke="#006363" stroke-width="0" cx="1.1733" cy="401.725" r="21.3333"/>
<polygon points="645.446,177.4 687.207,186.144 643.044,397.054 601.283,388.309" style="fill:#006363; stroke:#000000;stroke-width:0"/>
<circle fill="#006363" stroke="#006363" stroke-width="0" cx="666.327" cy="181.772" r="21.3333"/>
<circle fill="#006363" stroke="#006363" stroke-width="0" cx="622.163" cy="392.682" r="21.3333"/>
<polygon points="1256,469.333 256,1469.33 -744,469.333" style="fill:#000000; stroke:#000000;stroke-width:0"/>
<polygon points="-744,42.6667 256,-957.333 1256,42.6667" style="fill:#000000; stroke:#000000;stroke-width:0"/>
<circle fill="#a64b00" stroke="#a64b00" stroke-width="0" cx="-194.237" cy="312.742" r="21.3333"/>
<circle fill="#a64b00" stroke="#a64b00" stroke-width="0" cx="1.1733" cy="401.725" r="21.3333"/>
<circle fill="#a64b00" stroke="#a64b00" stroke-width="0" cx="666.327" cy="181.772" r="21.3333"/>
<circle fill="#a64b00" stroke="#a64b00" stroke-width="0" cx="622.163" cy="392.682" r="21.3333"/>
<circle fill="#a64b00" stroke="#a64b00" stroke-width="0" cx="302.772" cy="354.428" r="21.3333"/>
</svg>
