<?xml version="1.0" encoding="utf-8"?> <!-- Generator: Adobe Illustrator 13.0.0, SVG Export Plug-In . SVG Version: 6.00 Build 14948)  --> <svg version="1.2" baseProfile="tiny" id="Layer_1" xmlns="http://www.w3.org/2000/svg" xmlns:xlink="http://www.w3.org/1999/xlink" x="0px" y="0px" width="512px" height="512px" viewBox="0 0 512 512" xml:space="preserve">
<polygon points="0,0 512,0 512,512 0,512" style="fill:#ffffff; stroke:#000000;stroke-width:0"/>
<polygon points="-137.258,162.621 -109.343,130.354 47.5528,266.083 19.6382,298.351" style="fill:#006363; stroke:#000000;stroke-width:0"/>
<circle fill="#006363" stroke="#006363" stroke-width="0" cx="-123.3" cy="146.488" r="21.3333"/>
<circle fill="#006363" stroke="#006363" stroke-width="0" cx="33.5955" cy="282.217" r="21.3333"/>
<polygon points="630.79,315.484 589.756,327.171 532.152,124.927 573.187,113.24" style="fill:#006363; stroke:#000000;stroke-width:0"/>
<circle fill="#006363" stroke="#006363" stroke-width="0" cx="610.273" cy="321.328" r="21.3333"/>
<circle fill="#006363" stroke="#006363" stroke-width="0" cx="552.669" cy="119.084" r="21.3333"/>
<polygon points="1256,469.333 256,1469.33 -744,469.333" style="fill:#000000; stroke:#000000;stroke-width:0"/>
<polygon points="-744,42.6667 256,-957.333 1256,42.6667" style="fill:#000000; stroke:#000000;stroke-width:0"/>
<circle fill="#a64b00" stroke="#a64b00" stroke-width="0" cx="-123.3" cy="146.488" r="21.3333"/>
<circle fill="#a64b00" stroke="#a64b00" stroke-width="0" cx="33.5955" cy="282.217" r="21.3333"/>
<circle fill="#a64b00" stroke="#a64b00" stroke-width="0" cx="610.273" cy="321.328" r="21.3333"/>
<circle fill="#a64b00" stroke="#a64b00" stroke-width="0" cx="552.669" cy="119.084" r="21.3333"/>
<circle fill="#a64b00" stroke="#a64b00" stroke-width="0" cx="420.291" cy="77.7526" r="21.3333"/>
</svg>
