<?xml version="1.0" encoding="utf-8"?> <!-- Generator: Adobe Illustrator 13.0.0, SVG Export Plug-In . SVG Version: 6.00 Build 14948)  --> <svg version="1.2" baseProfile="tiny" id="Layer_1" xmlns="http://www.w3.org/2000/svg" xmlns:xlink="http://www.w3.org/1999/xlink" x="0px" y="0px" width="512px" height="512px" viewBox="0 0 512 512" xml:space="preserve">
<polygon points="0,0 512,0 512,512 0,512" style="fill:#ffffff; stroke:#000000;stroke-width:0"/>
<polygon points="-96.3253,68.8016 -96.7529,111.466 -309.229,109.336 -308.801,66.6718" style="fill:#006363; stroke:#000000;stroke-width:0"/>
<circle fill="#006363" stroke="#006363" stroke-width="0" cx="-96.5391" cy="90.1338" r="21.3333"/>
<circle fill="#006363" stroke="#006363" stroke-width="0" cx="-309.015" cy="88.0041" r="21.3333"/>
<polygon points="748.61,353.971 709.843,336.152 797.985,144.398 836.753,162.218" style="fill:#006363; stroke:#000000;stroke-width:0"/>
<circle fill="#006363" stroke="#006363" stroke-width="0" cx="729.226" cy="345.062" r="21.3333"/>
<circle fill="#006363" stroke="#006363" stroke-width="0" cx="817.369" cy="153.308" r="21.3333"/>
<polygon points="1256,469.333 256,1469.33 -744,469.333" style="fill:#000000; stroke:#000000;stroke-width:0"/>
<polygon points="-744,42.6667 256,-957.333 1256,42.6667" style="fill:#000000; stroke:#000000;stroke-width:0"/>
<circle fill="#a64b00" stroke="#a64b00" stroke-width="0" cx="-96.5391" cy="90.1338" r="21.3333"/>
<circle fill="#a64b00" stroke="#a64b00" stroke-width="0" cx="-309.015" cy="88.0041" r="21.3333"/>
<circle fill="#a64b00" stroke="#a64b00" stroke-width="0" cx="729.226" cy="345.062" r="21.3333"/>
<circle fill="#a64b00" stroke="#a64b00" stroke-width="0" cx="817.369" cy="153.308" r="21.3333"/>
<circle fill="#a64b00" stroke="#a64b00" stroke-width="0" cx="61.1726" cy="306.725" r="21.3333"/>
</svg>
