<?xml version="1.0" encoding="utf-8"?> <!-- Generator: Adobe Illustrator 13.0.0, SVG Export Plug-In . SVG Version: 6.00 Build 14948)  --> <svg version="1.2" baseProfile="tiny" id="Layer_1" xmlns="http://www.w3.org/2000/svg" xmlns:xlink="http://www.w3.org/1999/xlink" x="0px" y="0px" width="512px" height="512px" viewBox="0 0 512 512" xml:space="preserve">
<polygon points="0,0 512,0 512,512 0,512" style="fill:#ffffff; stroke:#000000;stroke-width:0"/>
<polygon points="-167.628,191.198 -124.964,191.661 -127.221,399.523 -169.885,399.06" style="fill:#006363; stroke:#000000;stroke-width:0"/>
<circle fill="#006363" stroke="#006363" stroke-width="0" cx="-146.296" cy="191.43" r="21.3333"/>
<circle fill="#006363" stroke="#006363" stroke-width="0" cx="-148.553" cy="399.291" r="21.3333"/>
<polygon points="651.822,445.795 620.034,417.335 760.303,260.66 792.092,289.119" style="fill:#006363; stroke:#000000;stroke-width:0"/>
<circle fill="#006363" stroke="#006363" stroke-width="0" cx="635.928" cy="431.565" r="21.3333"/>
<circle fill="#006363" stroke="#006363" stroke-width="0" cx="776.197" cy="274.89" r="21.3333"/>
<polygon points="1256,469.333 256,1469.33 -744,469.333" style="fill:#000000; stroke:#000000;stroke-width:0"/>
<polygon points="-744,42.6667 256,-957.333 1256,42.6667" style="fill:#000000; stroke:#000000;stroke-width:0"/>
<circle fill="#a64b00" stroke="#a64b00" stroke-width="0" cx="-146.296" cy="191.43" r="21.3333"/>
<circle fill="#a64b00" stroke="#a64b00" stroke-width="0" cx="-148.553" cy="399.291" r="21.3333"/>
<circle fill="#a64b00" stroke="#a64b00" stroke-width="0" cx="635.928" cy="431.565" r="21.3333"/>
<circle fill="#a64b00" stroke="#a64b00" stroke-width="0" cx="776.197" cy="274.89" r="21.3333"/>
<circle fill="#a64b00" stroke="#a64b00" stroke-width="0" cx="187.043" cy="259.023" r="21.3333"/>
</svg>
