<?xml version="1.0" encoding="utf-8"?> <!-- Generator: Adobe Illustrator 13.0.0, SVG Export Plug-In . SVG Version: 6.00 Build 14948)  --> <svg version="1.2" baseProfile="tiny" id="Layer_1" xmlns="http://www.w3.org/2000/svg" xmlns:xlink="http://www.w3.org/1999/xlink" x="0px" y="0px" width="512px" height="512px" viewBox="0 0 512 512" xml:space="preserve">
<polygon points="0,0 512,0 512,512 0,512" style="fill:#ffffff; stroke:#000000;stroke-width:0"/>
<polygon points="-122.311,121.403 -106.538,81.7586 86.6464,158.619 70.8735,198.263" style="fill:#006363; stroke:#000000;stroke-width:0"/>
<circle fill="#006363" stroke="#006363" stroke-width="0" cx="-114.424" cy="101.581" r="21.3333"/>
<circle fill="#006363" stroke="#006363" stroke-width="0" cx="78.7599" cy="178.441" r="21.3333"/>
<polygon points="464.336,252.167 445.243,214.011 633.911,119.605 653.004,157.761" style="fill:#006363; stroke:#000000;stroke-width:0"/>
<circle fill="#006363" stroke="#006363" stroke-width="0" cx="454.79" cy="233.089" r="21.3333"/>
<circle fill="#006363" stroke="#006363" stroke-width="0" cx="643.457" cy="138.683" r="21.3333"/>
<polygon points="1256,469.333 256,1469.33 -744,469.333" style="fill:#000000; stroke:#000000;stroke-width:0"/>
<polygon points="-744,42.6667 256,-957.333 1256,42.6667" style="fill:#000000; stroke:#000000;stroke-width:0"/>
<circle fill="#a64b00" stroke="#a64b00" stroke-width="0" cx="-114.424" cy="101.581" r="21.3333"/>
<circle fill="#a64b00" stroke="#a64b00" stroke-width="0" cx="78.7599" cy="178.441" r="21.3333"/>
<circle fill="#a64b00" stroke="#a64b00" stroke-width="0" cx="454.79" cy="233.089" r="21.3333"/>
<circle fill="#a64b00" stroke="#a64b00" stroke-width="0" cx="643.457" cy="138.683" r="21.3333"/>
<circle fill="#a64b00" stroke="#a64b00" stroke-width="0" cx="387.047" cy="133.748" r="21.3333"/>
</svg>
