<?xml version="1.0" encoding="utf-8"?> <!-- Generator: Adobe Illustrator 13.0.0, SVG Export Plug-In . SVG Version: 6.00 Build 14948)  --> <svg version="1.2" baseProfile="tiny" id="Layer_1" xmlns="http://www.w3.org/2000/svg" xmlns:xlink="http://www.w3.org/1999/xlink" x="0px" y="0px" width="512px" height="512px" viewBox="0 0 512 512" xml:space="preserve">
<polygon points="0,0 512,0 512,512 0,512" style="fill:#ffffff; stroke:#000000;stroke-width:0"/>
<polygon points="3.928,78.8086 46.496,75.9084 60.9196,287.617 18.3516,290.517" style="fill:#006363; stroke:#000000;stroke-width:0"/>
<circle fill="#006363" stroke="#006363" stroke-width="0" cx="25.212" cy="77.3585" r="21.3333"/>
<circle fill="#006363" stroke="#006363" stroke-width="0" cx="39.6356" cy="289.067" r="21.3333"/>
<polygon points="457.821,229.369 500.371,226.218 516.157,439.446 473.607,442.596" style="fill:#006363; stroke:#000000;stroke-width:0"/>
<circle fill="#006363" stroke="#006363" stroke-width="0" cx="479.096" cy="227.794" r="21.3333"/>
<circle fill="#006363" stroke="#006363" stroke-width="0" cx="494.882" cy="441.021" r="21.3333"/>
<polygon points="1256,469.333 256,1469.33 -744,469.333" style="fill:#000000; stroke:#000000;stroke-width:0"/>
<polygon points="-744,42.6667 256,-957.333 1256,42.6667" style="fill:#000000; stroke:#000000;stroke-width:0"/>
<circle fill="#a64b00" stroke="#a64b00" stroke-width="0" cx="25.212" cy="77.3585" r="21.3333"/>
<circle fill="#a64b00" stroke="#a64b00" stroke-width="0" cx="39.6356" cy="289.067" r="21.3333"/>
<circle fill="#a64b00" stroke="#a64b00" stroke-width="0" cx="479.096" cy="227.794" r="21.3333"/>
<circle fill="#a64b00" stroke="#a64b00" stroke-width="0" cx="494.882" cy="441.021" r="21.3333"/>
<circle fill="#a64b00" stroke="#a64b00" stroke-width="0" cx="202.771" cy="328.863" r="21.3333"/>
</svg>
