<?xml version="1.0" encoding="utf-8"?> <!-- Generator: Adobe Illustrator 13.0.0, SVG Export Plug-In . SVG Version: 6.00 Build 14948)  --> <svg version="1.2" baseProfile="tiny" id="Layer_1" xmlns="http://www.w3.org/2000/svg" xmlns:xlink="http://www.w3.org/1999/xlink" x="0px" y="0px" width="512px" height="512px" viewBox="0 0 512 512" xml:space="preserve">
<polygon points="0,0 512,0 512,512 0,512" style="fill:#ffffff; stroke:#000000;stroke-width:0"/>
<polygon points="-82.5212,195.793 -47.3766,171.6 74.7287,348.979 39.5841,373.172" style="fill:#006363; stroke:#000000;stroke-width:0"/>
<circle fill="#006363" stroke="#006363" stroke-width="0" cx="-64.9489" cy="183.697" r="21.3333"/>
<circle fill="#006363" stroke="#006363" stroke-width="0" cx="57.1564" cy="361.076" r="21.3333"/>
<polygon points="424.514,159.221 437.11,118.456 642.34,181.869 629.744,222.634" style="fill:#006363; stroke:#000000;stroke-width:0"/>
<circle fill="#006363" stroke="#006363" stroke-width="0" cx="430.812" cy="138.839" r="21.3333"/>
<circle fill="#006363" stroke="#006363" stroke-width="0" cx="636.042" cy="202.251" r="21.3333"/>
<polygon points="1256,469.333 256,1469.33 -744,469.333" style="fill:#000000; stroke:#000000;stroke-width:0"/>
<polygon points="-744,42.6667 256,-957.333 1256,42.6667" style="fill:#000000; stroke:#000000;stroke-width:0"/>
<circle fill="#a64b00" stroke="#a64b00" stroke-width="0" cx="-64.9489" cy="183.697" r="21.3333"/>
<circle fill="#a64b00" stroke="#a64b00" stroke-width="0" cx="57.1564" cy="361.076" r="21.3333"/>
<circle fill="#a64b00" stroke="#a64b00" stroke-width="0" cx="430.812" cy="138.839" r="21.3333"/>
<circle fill="#a64b00" stroke="#a64b00" stroke-width="0" cx="636.042" cy="202.251" r="21.3333"/>
<circle fill="#a64b00" stroke="#a64b00" stroke-width="0" cx="109.858" cy="95.3286" r="21.3333"/>
</svg>
