<?xml version="1.0" encoding="utf-8"?> <!-- Generator: Adobe Illustrator 13.0.0, SVG Export Plug-In . SVG Version: 6.00 Build 14948)  --> <svg version="1.2" baseProfile="tiny" id="Layer_1" xmlns="http://www.w3.org/2000/svg" xmlns:xlink="http://www.w3.org/1999/xlink" x="0px" y="0px" width="512px" height="512px" viewBox="0 0 512 512" xml:space="preserve">
<polygon points="0,0 512,0 512,512 0,512" style="fill:#ffffff; stroke:#000000;stroke-width:0"/>
<polygon points="-30.3968,197.864 11.3338,188.976 54.3091,390.75 12.5785,399.638" style="fill:#006363; stroke:#000000;stroke-width:0"/>
<circle fill="#006363" stroke="#006363" stroke-width="0" cx="-9.53151" cy="193.42" r="21.3333"/>
<circle fill="#006363" stroke="#006363" stroke-width="0" cx="33.4438" cy="395.194" r="21.3333"/>
<polygon points="447.147,104.209 485.663,85.8522 577.671,278.901 539.156,297.258" style="fill:#006363; stroke:#000000;stroke-width:0"/>
<circle fill="#006363" stroke="#006363" stroke-width="0" cx="466.405" cy="95.0306" r="21.3333"/>
<circle fill="#006363" stroke="#006363" stroke-width="0" cx="558.414" cy="288.08" r="21.3333"/>
<polygon points="1256,469.333 256,1469.33 -744,469.333" style="fill:#000000; stroke:#000000;stroke-width:0"/>
<polygon points="-744,42.6667 256,-957.333 1256,42.6667" style="fill:#000000; stroke:#000000;stroke-width:0"/>
<circle fill="#a64b00" stroke="#a64b00" stroke-width="0" cx="-9.53151" cy="193.42" r="21.3333"/>
<circle fill="#a64b00" stroke="#a64b00" stroke-width="0" cx="33.4438" cy="395.194" r="21.3333"/>
<circle fill="#a64b00" stroke="#a64b00" stroke-width="0" cx="466.405" cy="95.0306" r="21.3333"/>
<circle fill="#a64b00" stroke="#a64b00" stroke-width="0" cx="558.414" cy="288.08" r="21.3333"/>
<circle fill="#a64b00" stroke="#a64b00" stroke-width="0" cx="300.212" cy="196.215" r="21.3333"/>
</svg>
