<?xml version="1.0" encoding="utf-8"?> <!-- Generator: Adobe Illustrator 13.0.0, SVG Export Plug-In . SVG Version: 6.00 Build 14948)  --> <svg version="1.2" baseProfile="tiny" id="Layer_1" xmlns="http://www.w3.org/2000/svg" xmlns:xlink="http://www.w3.org/1999/xlink" x="0px" y="0px" width="512px" height="512px" viewBox="0 0 512 512" xml:space="preserve">
<polygon points="0,0 512,0 512,512 0,512" style="fill:#ffffff; stroke:#000000;stroke-width:0"/>
<polygon points="-106.862,237.574 -65.7271,226.244 -10.6503,426.206 -51.7851,437.536" style="fill:#006363; stroke:#000000;stroke-width:0"/>
<circle fill="#006363" stroke="#006363" stroke-width="0" cx="-86.2945" cy="231.909" r="21.3333"/>
<circle fill="#006363" stroke="#006363" stroke-width="0" cx="-31.2177" cy="431.871" r="21.3333"/>
<polygon points="698.163,277.856 674.856,313.594 498.556,198.618 521.863,162.879" style="fill:#006363; stroke:#000000;stroke-width:0"/>
<circle fill="#006363" stroke="#006363" stroke-width="0" cx="686.509" cy="295.725" r="21.3333"/>
<circle fill="#006363" stroke="#006363" stroke-width="0" cx="510.21" cy="180.748" r="21.3333"/>
<polygon points="1256,469.333 256,1469.33 -744,469.333" style="fill:#000000; stroke:#000000;stroke-width:0"/>
<polygon points="-744,42.6667 256,-957.333 1256,42.6667" style="fill:#000000; stroke:#000000;stroke-width:0"/>
<circle fill="#a64b00" stroke="#a64b00" stroke-width="0" cx="-86.2945" cy="231.909" r="21.3333"/>
<circle fill="#a64b00" stroke="#a64b00" stroke-width="0" cx="-31.2177" cy="431.871" r="21.3333"/>
<circle fill="#a64b00" stroke="#a64b00" stroke-width="0" cx="686.509" cy="295.725" r="21.3333"/>
<circle fill="#a64b00" stroke="#a64b00" stroke-width="0" cx="510.21" cy="180.748" r="21.3333"/>
<circle fill="#a64b00" stroke="#a64b00" stroke-width="0" cx="388.674" cy="354.428" r="21.3333"/>
</svg>
