<?xml version="1.0" encoding="utf-8"?> <!-- Generator: Adobe Illustrator 13.0.0, SVG Export Plug-In . SVG Version: 6.00 Build 14948)  --> <svg version="1.2" baseProfile="tiny" id="Layer_1" xmlns="http://www.w3.org/2000/svg" xmlns:xlink="http://www.w3.org/1999/xlink" x="0px" y="0px" width="512px" height="512px" viewBox="0 0 512 512" xml:space="preserve">
<polygon points="0,0 512,0 512,512 0,512" style="fill:#ffffff; stroke:#000000;stroke-width:0"/>
<polygon points="18.812,192.993 61.4766,192.575 63.5898,408.073 20.9252,408.492" style="fill:#006363; stroke:#000000;stroke-width:0"/>
<circle fill="#006363" stroke="#006363" stroke-width="0" cx="40.1443" cy="192.784" r="21.3333"/>
<circle fill="#006363" stroke="#006363" stroke-width="0" cx="42.2575" cy="408.283" r="21.3333"/>
<polygon points="450.695,96.5295 493.351,95.6058 497.944,307.704 455.287,308.627" style="fill:#006363; stroke:#000000;stroke-width:0"/>
<circle fill="#006363" stroke="#006363" stroke-width="0" cx="472.023" cy="96.0677" r="21.3333"/>
<circle fill="#006363" stroke="#006363" stroke-width="0" cx="476.615" cy="308.166" r="21.3333"/>
<polygon points="1256,469.333 256,1469.33 -744,469.333" style="fill:#000000; stroke:#000000;stroke-width:0"/>
<polygon points="-744,42.6667 256,-957.333 1256,42.6667" style="fill:#000000; stroke:#000000;stroke-width:0"/>
<circle fill="#a64b00" stroke="#a64b00" stroke-width="0" cx="40.1443" cy="192.784" r="21.3333"/>
<circle fill="#a64b00" stroke="#a64b00" stroke-width="0" cx="42.2575" cy="408.283" r="21.3333"/>
<circle fill="#a64b00" stroke="#a64b00" stroke-width="0" cx="472.023" cy="96.0677" r="21.3333"/>
<circle fill="#a64b00" stroke="#a64b00" stroke-width="0" cx="476.615" cy="308.166" r="21.3333"/>
<circle fill="#a64b00" stroke="#a64b00" stroke-width="0" cx="223.984" cy="256" r="21.3333"/>
</svg>
