<?xml version="1.0" encoding="utf-8"?> <!-- Generator: Adobe Illustrator 13.0.0, SVG Export Plug-In . SVG Version: 6.00 Build 14948)  --> <svg version="1.2" baseProfile="tiny" id="Layer_1" xmlns="http://www.w3.org/2000/svg" xmlns:xlink="http://www.w3.org/1999/xlink" x="0px" y="0px" width="512px" height="512px" viewBox="0 0 512 512" xml:space="preserve">
<polygon points="0,0 512,0 512,512 0,512" style="fill:#ffffff; stroke:#000000;stroke-width:0"/>
<polygon points="-76.9832,203.96 -40.8484,181.273 70.7959,359.09 34.6612,381.778" style="fill:#006363; stroke:#000000;stroke-width:0"/>
<circle fill="#006363" stroke="#006363" stroke-width="0" cx="-58.9158" cy="192.617" r="21.3333"/>
<circle fill="#006363" stroke="#006363" stroke-width="0" cx="52.7286" cy="370.434" r="21.3333"/>
<polygon points="425.821,153.065 440.544,113.019 638.904,185.945 624.181,225.991" style="fill:#006363; stroke:#000000;stroke-width:0"/>
<circle fill="#006363" stroke="#006363" stroke-width="0" cx="433.183" cy="133.042" r="21.3333"/>
<circle fill="#006363" stroke="#006363" stroke-width="0" cx="631.543" cy="205.968" r="21.3333"/>
<polygon points="1256,469.333 256,1469.33 -744,469.333" style="fill:#000000; stroke:#000000;stroke-width:0"/>
<polygon points="-744,42.6667 256,-957.333 1256,42.6667" style="fill:#000000; stroke:#000000;stroke-width:0"/>
<circle fill="#a64b00" stroke="#a64b00" stroke-width="0" cx="-58.9158" cy="192.617" r="21.3333"/>
<circle fill="#a64b00" stroke="#a64b00" stroke-width="0" cx="52.7286" cy="370.434" r="21.3333"/>
<circle fill="#a64b00" stroke="#a64b00" stroke-width="0" cx="433.183" cy="133.042" r="21.3333"/>
<circle fill="#a64b00" stroke="#a64b00" stroke-width="0" cx="631.543" cy="205.968" r="21.3333"/>
<circle fill="#a64b00" stroke="#a64b00" stroke-width="0" cx="119.496" cy="126.371" r="21.3333"/>
</svg>
