<?xml version="1.0" encoding="utf-8"?> <!-- Generator: Adobe Illustrator 13.0.0, SVG Export Plug-In . SVG Version: 6.00 Build 14948)  --> <svg version="1.2" baseProfile="tiny" id="Layer_1" xmlns="http://www.w3.org/2000/svg" xmlns:xlink="http://www.w3.org/1999/xlink" x="0px" y="0px" width="512px" height="512px" viewBox="0 0 512 512" xml:space="preserve">
<polygon points="0,0 512,0 512,512 0,512" style="fill:#ffffff; stroke:#000000;stroke-width:0"/>
<polygon points="-296.224,313.594 -337.14,301.498 -277.748,100.597 -236.832,112.692" style="fill:#006363; stroke:#000000;stroke-width:0"/>
<circle fill="#006363" stroke="#006363" stroke-width="0" cx="-316.682" cy="307.546" r="21.3333"/>
<circle fill="#006363" stroke="#006363" stroke-width="0" cx="-257.29" cy="106.644" r="21.3333"/>
<polygon points="797.572,262.583 832.58,238.194 953.596,411.9 918.588,436.289" style="fill:#006363; stroke:#000000;stroke-width:0"/>
<circle fill="#006363" stroke="#006363" stroke-width="0" cx="815.076" cy="250.388" r="21.3333"/>
<circle fill="#006363" stroke="#006363" stroke-width="0" cx="936.092" cy="424.094" r="21.3333"/>
<polygon points="1256,469.333 256,1469.33 -744,469.333" style="fill:#000000; stroke:#000000;stroke-width:0"/>
<polygon points="-744,42.6667 256,-957.333 1256,42.6667" style="fill:#000000; stroke:#000000;stroke-width:0"/>
<circle fill="#a64b00" stroke="#a64b00" stroke-width="0" cx="-316.682" cy="307.546" r="21.3333"/>
<circle fill="#a64b00" stroke="#a64b00" stroke-width="0" cx="-257.29" cy="106.644" r="21.3333"/>
<circle fill="#a64b00" stroke="#a64b00" stroke-width="0" cx="815.076" cy="250.388" r="21.3333"/>
<circle fill="#a64b00" stroke="#a64b00" stroke-width="0" cx="936.092" cy="424.094" r="21.3333"/>
<circle fill="#a64b00" stroke="#a64b00" stroke-width="0" cx="-130.317" cy="239.942" r="21.3333"/>
</svg>
