<?xml version="1.0" encoding="utf-8"?> <!-- Generator: Adobe Illustrator 13.0.0, SVG Export Plug-In . SVG Version: 6.00 Build 14948)  --> <svg version="1.2" baseProfile="tiny" id="Layer_1" xmlns="http://www.w3.org/2000/svg" xmlns:xlink="http://www.w3.org/1999/xlink" x="0px" y="0px" width="512px" height="512px" viewBox="0 0 512 512" xml:space="preserve">
<polygon points="0,0 512,0 512,512 0,512" style="fill:#ffffff; stroke:#000000;stroke-width:0"/>
<polygon points="-157.458,263.239 -143.957,303.713 -337.814,368.375 -351.315,327.9" style="fill:#006363; stroke:#000000;stroke-width:0"/>
<circle fill="#006363" stroke="#006363" stroke-width="0" cx="-150.707" cy="283.476" r="21.3333"/>
<circle fill="#006363" stroke="#006363" stroke-width="0" cx="-344.564" cy="348.137" r="21.3333"/>
<polygon points="736.667,426.01 718.685,387.318 918.906,294.263 936.889,332.955" style="fill:#006363; stroke:#000000;stroke-width:0"/>
<circle fill="#006363" stroke="#006363" stroke-width="0" cx="727.676" cy="406.664" r="21.3333"/>
<circle fill="#006363" stroke="#006363" stroke-width="0" cx="927.897" cy="313.609" r="21.3333"/>
<polygon points="1256,469.333 256,1469.33 -744,469.333" style="fill:#000000; stroke:#000000;stroke-width:0"/>
<polygon points="-744,42.6667 256,-957.333 1256,42.6667" style="fill:#000000; stroke:#000000;stroke-width:0"/>
<circle fill="#a64b00" stroke="#a64b00" stroke-width="0" cx="-150.707" cy="283.476" r="21.3333"/>
<circle fill="#a64b00" stroke="#a64b00" stroke-width="0" cx="-344.564" cy="348.137" r="21.3333"/>
<circle fill="#a64b00" stroke="#a64b00" stroke-width="0" cx="727.676" cy="406.664" r="21.3333"/>
<circle fill="#a64b00" stroke="#a64b00" stroke-width="0" cx="927.897" cy="313.609" r="21.3333"/>
<circle fill="#a64b00" stroke="#a64b00" stroke-width="0" cx="-40.8361" cy="373.509" r="21.3333"/>
</svg>
