<?xml version="1.0" encoding="utf-8"?> <!-- Generator: Adobe Illustrator 13.0.0, SVG Export Plug-In . SVG Version: 6.00 Build 14948)  --> <svg version="1.2" baseProfile="tiny" id="Layer_1" xmlns="http://www.w3.org/2000/svg" xmlns:xlink="http://www.w3.org/1999/xlink" x="0px" y="0px" width="512px" height="512px" viewBox="0 0 512 512" xml:space="preserve">
<polygon points="0,0 512,0 512,512 0,512" style="fill:#ffffff; stroke:#000000;stroke-width:0"/>
<polygon points="-95.7522,78.1222 -101.003,120.465 -314.524,93.988 -309.273,51.6456" style="fill:#006363; stroke:#000000;stroke-width:0"/>
<circle fill="#006363" stroke="#006363" stroke-width="0" cx="-98.3774" cy="99.2934" r="21.3333"/>
<circle fill="#006363" stroke="#006363" stroke-width="0" cx="-311.898" cy="72.8168" r="21.3333"/>
<polygon points="749.537,361.081 711.159,342.437 802.794,153.814 841.172,172.458" style="fill:#006363; stroke:#000000;stroke-width:0"/>
<circle fill="#006363" stroke="#006363" stroke-width="0" cx="730.348" cy="351.759" r="21.3333"/>
<circle fill="#006363" stroke="#006363" stroke-width="0" cx="821.983" cy="163.136" r="21.3333"/>
<polygon points="1256,469.333 256,1469.33 -744,469.333" style="fill:#000000; stroke:#000000;stroke-width:0"/>
<polygon points="-744,42.6667 256,-957.333 1256,42.6667" style="fill:#000000; stroke:#000000;stroke-width:0"/>
<circle fill="#a64b00" stroke="#a64b00" stroke-width="0" cx="-98.3774" cy="99.2934" r="21.3333"/>
<circle fill="#a64b00" stroke="#a64b00" stroke-width="0" cx="-311.898" cy="72.8168" r="21.3333"/>
<circle fill="#a64b00" stroke="#a64b00" stroke-width="0" cx="730.348" cy="351.759" r="21.3333"/>
<circle fill="#a64b00" stroke="#a64b00" stroke-width="0" cx="821.983" cy="163.136" r="21.3333"/>
<circle fill="#a64b00" stroke="#a64b00" stroke-width="0" cx="55.8037" cy="392.59" r="21.3333"/>
</svg>
