<?xml version="1.0" encoding="utf-8"?> <!-- Generator: Adobe Illustrator 13.0.0, SVG Export Plug-In . SVG Version: 6.00 Build 14948)  --> <svg version="1.2" baseProfile="tiny" id="Layer_1" xmlns="http://www.w3.org/2000/svg" xmlns:xlink="http://www.w3.org/1999/xlink" x="0px" y="0px" width="512px" height="512px" viewBox="0 0 512 512" xml:space="preserve">
<polygon points="0,0 512,0 512,512 0,512" style="fill:#ffffff; stroke:#000000;stroke-width:0"/>
<polygon points="-171.408,329.651 -158.277,370.247 -356.918,434.496 -370.049,393.9" style="fill:#006363; stroke:#000000;stroke-width:0"/>
<circle fill="#006363" stroke="#006363" stroke-width="0" cx="-164.842" cy="349.949" r="21.3333"/>
<circle fill="#006363" stroke="#006363" stroke-width="0" cx="-363.483" cy="414.198" r="21.3333"/>
<polygon points="739.777,355.609 746.213,313.431 955.946,345.432 949.51,387.611" style="fill:#006363; stroke:#000000;stroke-width:0"/>
<circle fill="#006363" stroke="#006363" stroke-width="0" cx="742.995" cy="334.52" r="21.3333"/>
<circle fill="#006363" stroke="#006363" stroke-width="0" cx="952.728" cy="366.521" r="21.3333"/>
<polygon points="1256,469.333 256,1469.33 -744,469.333" style="fill:#000000; stroke:#000000;stroke-width:0"/>
<polygon points="-744,42.6667 256,-957.333 1256,42.6667" style="fill:#000000; stroke:#000000;stroke-width:0"/>
<circle fill="#a64b00" stroke="#a64b00" stroke-width="0" cx="-164.842" cy="349.949" r="21.3333"/>
<circle fill="#a64b00" stroke="#a64b00" stroke-width="0" cx="-363.483" cy="414.198" r="21.3333"/>
<circle fill="#a64b00" stroke="#a64b00" stroke-width="0" cx="742.995" cy="334.52" r="21.3333"/>
<circle fill="#a64b00" stroke="#a64b00" stroke-width="0" cx="952.728" cy="366.521" r="21.3333"/>
<circle fill="#a64b00" stroke="#a64b00" stroke-width="0" cx="-78.4182" cy="192.239" r="21.3333"/>
</svg>
