<?xml version="1.0" encoding="utf-8"?> <!-- Generator: Adobe Illustrator 13.0.0, SVG Export Plug-In . SVG Version: 6.00 Build 14948)  --> <svg version="1.2" baseProfile="tiny" id="Layer_1" xmlns="http://www.w3.org/2000/svg" xmlns:xlink="http://www.w3.org/1999/xlink" x="0px" y="0px" width="512px" height="512px" viewBox="0 0 512 512" xml:space="preserve">
<polygon points="0,0 512,0 512,512 0,512" style="fill:#ffffff; stroke:#000000;stroke-width:0"/>
<polygon points="-140.019,235.189 -129.59,276.561 -343.71,330.539 -354.139,289.167" style="fill:#006363; stroke:#000000;stroke-width:0"/>
<circle fill="#006363" stroke="#006363" stroke-width="0" cx="-134.804" cy="255.875" r="21.3333"/>
<circle fill="#006363" stroke="#006363" stroke-width="0" cx="-348.925" cy="309.853" r="21.3333"/>
<polygon points="750.962,442.07 725.482,407.847 890.59,284.919 916.07,319.142" style="fill:#006363; stroke:#000000;stroke-width:0"/>
<circle fill="#006363" stroke="#006363" stroke-width="0" cx="738.222" cy="424.958" r="21.3333"/>
<circle fill="#006363" stroke="#006363" stroke-width="0" cx="903.33" cy="302.031" r="21.3333"/>
<polygon points="1256,469.333 256,1469.33 -744,469.333" style="fill:#000000; stroke:#000000;stroke-width:0"/>
<polygon points="-744,42.6667 256,-957.333 1256,42.6667" style="fill:#000000; stroke:#000000;stroke-width:0"/>
<circle fill="#a64b00" stroke="#a64b00" stroke-width="0" cx="-134.804" cy="255.875" r="21.3333"/>
<circle fill="#a64b00" stroke="#a64b00" stroke-width="0" cx="-348.925" cy="309.853" r="21.3333"/>
<circle fill="#a64b00" stroke="#a64b00" stroke-width="0" cx="738.222" cy="424.958" r="21.3333"/>
<circle fill="#a64b00" stroke="#a64b00" stroke-width="0" cx="903.33" cy="302.031" r="21.3333"/>
<circle fill="#a64b00" stroke="#a64b00" stroke-width="0" cx="-27.7121" cy="163.617" r="21.3333"/>
</svg>
