<?xml version="1.0" encoding="utf-8"?> <!-- Generator: Adobe Illustrator 13.0.0, SVG Export Plug-In . SVG Version: 6.00 Build 14948)  --> <svg version="1.2" baseProfile="tiny" id="Layer_1" xmlns="http://www.w3.org/2000/svg" xmlns:xlink="http://www.w3.org/1999/xlink" x="0px" y="0px" width="512px" height="512px" viewBox="0 0 512 512" xml:space="preserve">
<polygon points="0,0 512,0 512,512 0,512" style="fill:#ffffff; stroke:#000000;stroke-width:0"/>
<polygon points="-106.85,87.0339 -64.4816,82.001 -39.5185,292.148 -81.8873,297.181" style="fill:#006363; stroke:#000000;stroke-width:0"/>
<circle fill="#006363" stroke="#006363" stroke-width="0" cx="-85.666" cy="84.5174" r="21.3333"/>
<circle fill="#006363" stroke="#006363" stroke-width="0" cx="-60.7029" cy="294.665" r="21.3333"/>
<polygon points="718.911,218.243 725.89,260.335 512.859,295.653 505.881,253.561" style="fill:#006363; stroke:#000000;stroke-width:0"/>
<circle fill="#006363" stroke="#006363" stroke-width="0" cx="722.4" cy="239.289" r="21.3333"/>
<circle fill="#006363" stroke="#006363" stroke-width="0" cx="509.37" cy="274.607" r="21.3333"/>
<polygon points="1256,469.333 256,1469.33 -744,469.333" style="fill:#000000; stroke:#000000;stroke-width:0"/>
<polygon points="-744,42.6667 256,-957.333 1256,42.6667" style="fill:#000000; stroke:#000000;stroke-width:0"/>
<circle fill="#a64b00" stroke="#a64b00" stroke-width="0" cx="-85.666" cy="84.5174" r="21.3333"/>
<circle fill="#a64b00" stroke="#a64b00" stroke-width="0" cx="-60.7029" cy="294.665" r="21.3333"/>
<circle fill="#a64b00" stroke="#a64b00" stroke-width="0" cx="722.4" cy="239.289" r="21.3333"/>
<circle fill="#a64b00" stroke="#a64b00" stroke-width="0" cx="509.37" cy="274.607" r="21.3333"/>
<circle fill="#a64b00" stroke="#a64b00" stroke-width="0" cx="355.864" cy="287.644" r="21.3333"/>
</svg>
