<?xml version="1.0" encoding="utf-8"?> <!-- Generator: Adobe Illustrator 13.0.0, SVG Export Plug-In . SVG Version: 6.00 Build 14948)  --> <svg version="1.2" baseProfile="tiny" id="Layer_1" xmlns="http://www.w3.org/2000/svg" xmlns:xlink="http://www.w3.org/1999/xlink" x="0px" y="0px" width="512px" height="512px" viewBox="0 0 512 512" xml:space="preserve">
<polygon points="0,0 512,0 512,512 0,512" style="fill:#ffffff; stroke:#000000;stroke-width:0"/>
<polygon points="-51.8956,413.945 -66.2212,454.135 -277.057,378.983 -262.731,338.793" style="fill:#006363; stroke:#000000;stroke-width:0"/>
<circle fill="#006363" stroke="#006363" stroke-width="0" cx="-59.0584" cy="434.04" r="21.3333"/>
<circle fill="#006363" stroke="#006363" stroke-width="0" cx="-269.894" cy="358.888" r="21.3333"/>
<polygon points="704.571,373.638 665.319,356.913 748.979,160.574 788.231,177.3" style="fill:#006363; stroke:#000000;stroke-width:0"/>
<circle fill="#006363" stroke="#006363" stroke-width="0" cx="684.945" cy="365.276" r="21.3333"/>
<circle fill="#006363" stroke="#006363" stroke-width="0" cx="768.605" cy="168.937" r="21.3333"/>
<polygon points="1256,469.333 256,1469.33 -744,469.333" style="fill:#000000; stroke:#000000;stroke-width:0"/>
<polygon points="-744,42.6667 256,-957.333 1256,42.6667" style="fill:#000000; stroke:#000000;stroke-width:0"/>
<circle fill="#a64b00" stroke="#a64b00" stroke-width="0" cx="-59.0584" cy="434.04" r="21.3333"/>
<circle fill="#a64b00" stroke="#a64b00" stroke-width="0" cx="-269.894" cy="358.888" r="21.3333"/>
<circle fill="#a64b00" stroke="#a64b00" stroke-width="0" cx="684.945" cy="365.276" r="21.3333"/>
<circle fill="#a64b00" stroke="#a64b00" stroke-width="0" cx="768.605" cy="168.937" r="21.3333"/>
<circle fill="#a64b00" stroke="#a64b00" stroke-width="0" cx="148.268" cy="421.212" r="21.3333"/>
</svg>
