<?xml version="1.0" encoding="utf-8"?> <!-- Generator: Adobe Illustrator 13.0.0, SVG Export Plug-In . SVG Version: 6.00 Build 14948)  --> <svg version="1.2" baseProfile="tiny" id="Layer_1" xmlns="http://www.w3.org/2000/svg" xmlns:xlink="http://www.w3.org/1999/xlink" x="0px" y="0px" width="512px" height="512px" viewBox="0 0 512 512" xml:space="preserve">
<polygon points="0,0 512,0 512,512 0,512" style="fill:#ffffff; stroke:#000000;stroke-width:0"/>
<polygon points="-377.94,221.106 -399.782,184.454 -211.772,72.4105 -189.929,109.062" style="fill:#006363; stroke:#000000;stroke-width:0"/>
<circle fill="#006363" stroke="#006363" stroke-width="0" cx="-388.861" cy="202.78" r="21.3333"/>
<circle fill="#006363" stroke="#006363" stroke-width="0" cx="-200.851" cy="90.7364" r="21.3333"/>
<polygon points="830.756,238.778 871.16,225.067 939.531,426.547 899.127,440.258" style="fill:#006363; stroke:#000000;stroke-width:0"/>
<circle fill="#006363" stroke="#006363" stroke-width="0" cx="850.958" cy="231.922" r="21.3333"/>
<circle fill="#006363" stroke="#006363" stroke-width="0" cx="919.329" cy="433.402" r="21.3333"/>
<polygon points="1256,469.333 256,1469.33 -744,469.333" style="fill:#000000; stroke:#000000;stroke-width:0"/>
<polygon points="-744,42.6667 256,-957.333 1256,42.6667" style="fill:#000000; stroke:#000000;stroke-width:0"/>
<circle fill="#a64b00" stroke="#a64b00" stroke-width="0" cx="-388.861" cy="202.78" r="21.3333"/>
<circle fill="#a64b00" stroke="#a64b00" stroke-width="0" cx="-200.851" cy="90.7364" r="21.3333"/>
<circle fill="#a64b00" stroke="#a64b00" stroke-width="0" cx="850.958" cy="231.922" r="21.3333"/>
<circle fill="#a64b00" stroke="#a64b00" stroke-width="0" cx="919.329" cy="433.402" r="21.3333"/>
<circle fill="#a64b00" stroke="#a64b00" stroke-width="0" cx="-148.214" cy="373.509" r="21.3333"/>
</svg>
