<?xml version="1.0" encoding="utf-8"?> <!-- Generator: Adobe Illustrator 13.0.0, SVG Export Plug-In . SVG Version: 6.00 Build 14948)  --> <svg version="1.2" baseProfile="tiny" id="Layer_1" xmlns="http://www.w3.org/2000/svg" xmlns:xlink="http://www.w3.org/1999/xlink" x="0px" y="0px" width="512px" height="512px" viewBox="0 0 512 512" xml:space="preserve">
<polygon points="0,0 512,0 512,512 0,512" style="fill:#ffffff; stroke:#000000;stroke-width:0"/>
<polygon points="-97.3534,172.281 -66.9076,142.39 82.7383,294.81 52.2926,324.702" style="fill:#006363; stroke:#000000;stroke-width:0"/>
<circle fill="#006363" stroke="#006363" stroke-width="0" cx="-82.1305" cy="157.335" r="21.3333"/>
<circle fill="#006363" stroke="#006363" stroke-width="0" cx="67.5154" cy="309.756" r="21.3333"/>
<polygon points="429.605,187.727 432.997,145.196 646.294,162.203 642.903,204.735" style="fill:#006363; stroke:#000000;stroke-width:0"/>
<circle fill="#006363" stroke="#006363" stroke-width="0" cx="431.301" cy="166.462" r="21.3333"/>
<circle fill="#006363" stroke="#006363" stroke-width="0" cx="644.598" cy="183.469" r="21.3333"/>
<polygon points="1256,469.333 256,1469.33 -744,469.333" style="fill:#000000; stroke:#000000;stroke-width:0"/>
<polygon points="-744,42.6667 256,-957.333 1256,42.6667" style="fill:#000000; stroke:#000000;stroke-width:0"/>
<circle fill="#a64b00" stroke="#a64b00" stroke-width="0" cx="-82.1305" cy="157.335" r="21.3333"/>
<circle fill="#a64b00" stroke="#a64b00" stroke-width="0" cx="67.5154" cy="309.756" r="21.3333"/>
<circle fill="#a64b00" stroke="#a64b00" stroke-width="0" cx="431.301" cy="166.462" r="21.3333"/>
<circle fill="#a64b00" stroke="#a64b00" stroke-width="0" cx="644.598" cy="183.469" r="21.3333"/>
<circle fill="#a64b00" stroke="#a64b00" stroke-width="0" cx="68.8951" cy="149.652" r="21.3333"/>
</svg>
