<?xml version="1.0" encoding="utf-8"?> <!-- Generator: Adobe Illustrator 13.0.0, SVG Export Plug-In . SVG Version: 6.00 Build 14948)  --> <svg version="1.2" baseProfile="tiny" id="Layer_1" xmlns="http://www.w3.org/2000/svg" xmlns:xlink="http://www.w3.org/1999/xlink" x="0px" y="0px" width="512px" height="512px" viewBox="0 0 512 512" xml:space="preserve">
<polygon points="0,0 512,0 512,512 0,512" style="fill:#ffffff; stroke:#000000;stroke-width:0"/>
<polygon points="12.378,113.266 55.0184,111.77 62.4855,324.6 19.8451,326.096" style="fill:#006363; stroke:#000000;stroke-width:0"/>
<circle fill="#006363" stroke="#006363" stroke-width="0" cx="33.6982" cy="112.518" r="21.3333"/>
<circle fill="#006363" stroke="#006363" stroke-width="0" cx="41.1653" cy="325.348" r="21.3333"/>
<polygon points="453.366,163.579 495.985,161.58 505.994,374.883 463.374,376.883" style="fill:#006363; stroke:#000000;stroke-width:0"/>
<circle fill="#006363" stroke="#006363" stroke-width="0" cx="474.675" cy="162.579" r="21.3333"/>
<circle fill="#006363" stroke="#006363" stroke-width="0" cx="484.684" cy="375.883" r="21.3333"/>
<polygon points="1256,469.333 256,1469.33 -744,469.333" style="fill:#000000; stroke:#000000;stroke-width:0"/>
<polygon points="-744,42.6667 256,-957.333 1256,42.6667" style="fill:#000000; stroke:#000000;stroke-width:0"/>
<circle fill="#a64b00" stroke="#a64b00" stroke-width="0" cx="33.6982" cy="112.518" r="21.3333"/>
<circle fill="#a64b00" stroke="#a64b00" stroke-width="0" cx="41.1653" cy="325.348" r="21.3333"/>
<circle fill="#a64b00" stroke="#a64b00" stroke-width="0" cx="474.675" cy="162.579" r="21.3333"/>
<circle fill="#a64b00" stroke="#a64b00" stroke-width="0" cx="484.684" cy="375.883" r="21.3333"/>
<circle fill="#a64b00" stroke="#a64b00" stroke-width="0" cx="289.741" cy="266.883" r="21.3333"/>
</svg>
