<?xml version="1.0" encoding="utf-8"?> <!-- Generator: Adobe Illustrator 13.0.0, SVG Export Plug-In . SVG Version: 6.00 Build 14948)  --> <svg version="1.2" baseProfile="tiny" id="Layer_1" xmlns="http://www.w3.org/2000/svg" xmlns:xlink="http://www.w3.org/1999/xlink" x="0px" y="0px" width="512px" height="512px" viewBox="0 0 512 512" xml:space="preserve">
<polygon points="0,0 512,0 512,512 0,512" style="fill:#ffffff; stroke:#000000;stroke-width:0"/>
<polygon points="-97.0263,55.5724 -90.3356,97.7112 -301.707,131.272 -308.398,89.1334" style="fill:#006363; stroke:#000000;stroke-width:0"/>
<circle fill="#006363" stroke="#006363" stroke-width="0" cx="-93.6809" cy="76.6418" r="21.3333"/>
<circle fill="#006363" stroke="#006363" stroke-width="0" cx="-305.052" cy="110.203" r="21.3333"/>
<polygon points="746.741,344.937 707.449,328.307 791.569,129.562 830.861,146.193" style="fill:#006363; stroke:#000000;stroke-width:0"/>
<circle fill="#006363" stroke="#006363" stroke-width="0" cx="727.095" cy="336.622" r="21.3333"/>
<circle fill="#006363" stroke="#006363" stroke-width="0" cx="811.215" cy="137.877" r="21.3333"/>
<polygon points="1256,469.333 256,1469.33 -744,469.333" style="fill:#000000; stroke:#000000;stroke-width:0"/>
<polygon points="-744,42.6667 256,-957.333 1256,42.6667" style="fill:#000000; stroke:#000000;stroke-width:0"/>
<circle fill="#a64b00" stroke="#a64b00" stroke-width="0" cx="-93.6809" cy="76.6418" r="21.3333"/>
<circle fill="#a64b00" stroke="#a64b00" stroke-width="0" cx="-305.052" cy="110.203" r="21.3333"/>
<circle fill="#a64b00" stroke="#a64b00" stroke-width="0" cx="727.095" cy="336.622" r="21.3333"/>
<circle fill="#a64b00" stroke="#a64b00" stroke-width="0" cx="811.215" cy="137.877" r="21.3333"/>
<circle fill="#a64b00" stroke="#a64b00" stroke-width="0" cx="68.9277" cy="182.698" r="21.3333"/>
</svg>
