<?xml version="1.0" encoding="utf-8"?> <!-- Generator: Adobe Illustrator 13.0.0, SVG Export Plug-In . SVG Version: 6.00 Build 14948)  --> <svg version="1.2" baseProfile="tiny" id="Layer_1" xmlns="http://www.w3.org/2000/svg" xmlns:xlink="http://www.w3.org/1999/xlink" x="0px" y="0px" width="512px" height="512px" viewBox="0 0 512 512" xml:space="preserve">
<polygon points="0,0 512,0 512,512 0,512" style="fill:#ffffff; stroke:#000000;stroke-width:0"/>
<polygon points="-122.742,203.497 -85.1334,183.346 15.7227,371.575 -21.8855,391.726" style="fill:#006363; stroke:#000000;stroke-width:0"/>
<circle fill="#006363" stroke="#006363" stroke-width="0" cx="-103.937" cy="193.421" r="21.3333"/>
<circle fill="#006363" stroke="#006363" stroke-width="0" cx="-3.08142" cy="381.651" r="21.3333"/>
<polygon points="678.448,297.286 646.436,325.494 505.525,165.579 537.537,137.371" style="fill:#006363; stroke:#000000;stroke-width:0"/>
<circle fill="#006363" stroke="#006363" stroke-width="0" cx="662.442" cy="311.39" r="21.3333"/>
<circle fill="#006363" stroke="#006363" stroke-width="0" cx="521.531" cy="151.475" r="21.3333"/>
<polygon points="1256,469.333 256,1469.33 -744,469.333" style="fill:#000000; stroke:#000000;stroke-width:0"/>
<polygon points="-744,42.6667 256,-957.333 1256,42.6667" style="fill:#000000; stroke:#000000;stroke-width:0"/>
<circle fill="#a64b00" stroke="#a64b00" stroke-width="0" cx="-103.937" cy="193.421" r="21.3333"/>
<circle fill="#a64b00" stroke="#a64b00" stroke-width="0" cx="-3.08142" cy="381.651" r="21.3333"/>
<circle fill="#a64b00" stroke="#a64b00" stroke-width="0" cx="662.442" cy="311.39" r="21.3333"/>
<circle fill="#a64b00" stroke="#a64b00" stroke-width="0" cx="521.531" cy="151.475" r="21.3333"/>
<circle fill="#a64b00" stroke="#a64b00" stroke-width="0" cx="400.605" cy="354.428" r="21.3333"/>
</svg>
