<?xml version="1.0" encoding="utf-8"?> <!-- Generator: Adobe Illustrator 13.0.0, SVG Export Plug-In . SVG Version: 6.00 Build 14948)  --> <svg version="1.2" baseProfile="tiny" id="Layer_1" xmlns="http://www.w3.org/2000/svg" xmlns:xlink="http://www.w3.org/1999/xlink" x="0px" y="0px" width="512px" height="512px" viewBox="0 0 512 512" xml:space="preserve">
<polygon points="0,0 512,0 512,512 0,512" style="fill:#ffffff; stroke:#000000;stroke-width:0"/>
<polygon points="-126.333,110.689 -114.136,69.8027 85.9466,129.491 73.7495,170.377" style="fill:#006363; stroke:#000000;stroke-width:0"/>
<circle fill="#006363" stroke="#006363" stroke-width="0" cx="-120.234" cy="90.2457" r="21.3333"/>
<circle fill="#006363" stroke="#006363" stroke-width="0" cx="79.848" cy="149.934" r="21.3333"/>
<polygon points="474.798,264.063 451.396,228.386 628.238,112.389 651.64,148.066" style="fill:#006363; stroke:#000000;stroke-width:0"/>
<circle fill="#006363" stroke="#006363" stroke-width="0" cx="463.097" cy="246.224" r="21.3333"/>
<circle fill="#006363" stroke="#006363" stroke-width="0" cx="639.939" cy="130.228" r="21.3333"/>
<polygon points="1256,469.333 256,1469.33 -744,469.333" style="fill:#000000; stroke:#000000;stroke-width:0"/>
<polygon points="-744,42.6667 256,-957.333 1256,42.6667" style="fill:#000000; stroke:#000000;stroke-width:0"/>
<circle fill="#a64b00" stroke="#a64b00" stroke-width="0" cx="-120.234" cy="90.2457" r="21.3333"/>
<circle fill="#a64b00" stroke="#a64b00" stroke-width="0" cx="79.848" cy="149.934" r="21.3333"/>
<circle fill="#a64b00" stroke="#a64b00" stroke-width="0" cx="463.097" cy="246.224" r="21.3333"/>
<circle fill="#a64b00" stroke="#a64b00" stroke-width="0" cx="639.939" cy="130.228" r="21.3333"/>
<circle fill="#a64b00" stroke="#a64b00" stroke-width="0" cx="476.366" cy="192.239" r="21.3333"/>
</svg>
