<?xml version="1.0" encoding="utf-8"?> <!-- Generator: Adobe Illustrator 13.0.0, SVG Export Plug-In . SVG Version: 6.00 Build 14948)  --> <svg version="1.2" baseProfile="tiny" id="Layer_1" xmlns="http://www.w3.org/2000/svg" xmlns:xlink="http://www.w3.org/1999/xlink" x="0px" y="0px" width="512px" height="512px" viewBox="0 0 512 512" xml:space="preserve">
<polygon points="0,0 512,0 512,512 0,512" style="fill:#ffffff; stroke:#000000;stroke-width:0"/>
<polygon points="-15.6764,139.965 26.5379,133.768 58.0497,348.447 15.8354,354.643" style="fill:#006363; stroke:#000000;stroke-width:0"/>
<circle fill="#006363" stroke="#006363" stroke-width="0" cx="5.43075" cy="136.866" r="21.3333"/>
<circle fill="#006363" stroke="#006363" stroke-width="0" cx="36.9426" cy="351.545" r="21.3333"/>
<polygon points="451.724,168.267 492.932,157.206 548.619,364.681 507.411,375.742" style="fill:#006363; stroke:#000000;stroke-width:0"/>
<circle fill="#006363" stroke="#006363" stroke-width="0" cx="472.328" cy="162.736" r="21.3333"/>
<circle fill="#006363" stroke="#006363" stroke-width="0" cx="528.015" cy="370.211" r="21.3333"/>
<polygon points="1256,469.333 256,1469.33 -744,469.333" style="fill:#000000; stroke:#000000;stroke-width:0"/>
<polygon points="-744,42.6667 256,-957.333 1256,42.6667" style="fill:#000000; stroke:#000000;stroke-width:0"/>
<circle fill="#a64b00" stroke="#a64b00" stroke-width="0" cx="5.43075" cy="136.866" r="21.3333"/>
<circle fill="#a64b00" stroke="#a64b00" stroke-width="0" cx="36.9426" cy="351.545" r="21.3333"/>
<circle fill="#a64b00" stroke="#a64b00" stroke-width="0" cx="472.328" cy="162.736" r="21.3333"/>
<circle fill="#a64b00" stroke="#a64b00" stroke-width="0" cx="528.015" cy="370.211" r="21.3333"/>
<circle fill="#a64b00" stroke="#a64b00" stroke-width="0" cx="411.052" cy="273.82" r="21.3333"/>
</svg>
