<?xml version="1.0" encoding="utf-8"?> <!-- Generator: Adobe Illustrator 13.0.0, SVG Export Plug-In . SVG Version: 6.00 Build 14948)  --> <svg version="1.2" baseProfile="tiny" id="Layer_1" xmlns="http://www.w3.org/2000/svg" xmlns:xlink="http://www.w3.org/1999/xlink" x="0px" y="0px" width="512px" height="512px" viewBox="0 0 512 512" xml:space="preserve">
<polygon points="0,0 512,0 512,512 0,512" style="fill:#ffffff; stroke:#000000;stroke-width:0"/>
<polygon points="-141.295,133.415 -123.716,94.5379 65.2309,179.969 47.6528,218.846" style="fill:#006363; stroke:#000000;stroke-width:0"/>
<circle fill="#006363" stroke="#006363" stroke-width="0" cx="-132.505" cy="113.977" r="21.3333"/>
<circle fill="#006363" stroke="#006363" stroke-width="0" cx="56.4418" cy="199.408" r="21.3333"/>
<polygon points="586.763,317.769 544.211,314.644 559.609,104.951 602.161,108.076" style="fill:#006363; stroke:#000000;stroke-width:0"/>
<circle fill="#006363" stroke="#006363" stroke-width="0" cx="565.487" cy="316.207" r="21.3333"/>
<circle fill="#006363" stroke="#006363" stroke-width="0" cx="580.885" cy="106.514" r="21.3333"/>
<polygon points="1256,469.333 256,1469.33 -744,469.333" style="fill:#000000; stroke:#000000;stroke-width:0"/>
<polygon points="-744,42.6667 256,-957.333 1256,42.6667" style="fill:#000000; stroke:#000000;stroke-width:0"/>
<circle fill="#a64b00" stroke="#a64b00" stroke-width="0" cx="-132.505" cy="113.977" r="21.3333"/>
<circle fill="#a64b00" stroke="#a64b00" stroke-width="0" cx="56.4418" cy="199.408" r="21.3333"/>
<circle fill="#a64b00" stroke="#a64b00" stroke-width="0" cx="565.487" cy="316.207" r="21.3333"/>
<circle fill="#a64b00" stroke="#a64b00" stroke-width="0" cx="580.885" cy="106.514" r="21.3333"/>
<circle fill="#a64b00" stroke="#a64b00" stroke-width="0" cx="435.801" cy="325.806" r="21.3333"/>
</svg>
