<?xml version="1.0" encoding="utf-8"?> <!-- Generator: Adobe Illustrator 13.0.0, SVG Export Plug-In . SVG Version: 6.00 Build 14948)  --> <svg version="1.2" baseProfile="tiny" id="Layer_1" xmlns="http://www.w3.org/2000/svg" xmlns:xlink="http://www.w3.org/1999/xlink" x="0px" y="0px" width="512px" height="512px" viewBox="0 0 512 512" xml:space="preserve">
<polygon points="0,0 512,0 512,512 0,512" style="fill:#ffffff; stroke:#000000;stroke-width:0"/>
<polygon points="15.7439,154.465 58.4004,153.538 63.0982,369.535 20.4416,370.462" style="fill:#006363; stroke:#000000;stroke-width:0"/>
<circle fill="#006363" stroke="#006363" stroke-width="0" cx="37.0721" cy="154.001" r="21.3333"/>
<circle fill="#006363" stroke="#006363" stroke-width="0" cx="41.7699" cy="369.999" r="21.3333"/>
<polygon points="451.338,128.663 493.982,127.268 500.907,339.008 458.264,340.403" style="fill:#006363; stroke:#000000;stroke-width:0"/>
<circle fill="#006363" stroke="#006363" stroke-width="0" cx="472.66" cy="127.965" r="21.3333"/>
<circle fill="#006363" stroke="#006363" stroke-width="0" cx="479.585" cy="339.705" r="21.3333"/>
<polygon points="1256,469.333 256,1469.33 -744,469.333" style="fill:#000000; stroke:#000000;stroke-width:0"/>
<polygon points="-744,42.6667 256,-957.333 1256,42.6667" style="fill:#000000; stroke:#000000;stroke-width:0"/>
<circle fill="#a64b00" stroke="#a64b00" stroke-width="0" cx="37.0721" cy="154.001" r="21.3333"/>
<circle fill="#a64b00" stroke="#a64b00" stroke-width="0" cx="41.7699" cy="369.999" r="21.3333"/>
<circle fill="#a64b00" stroke="#a64b00" stroke-width="0" cx="472.66" cy="127.965" r="21.3333"/>
<circle fill="#a64b00" stroke="#a64b00" stroke-width="0" cx="479.585" cy="339.705" r="21.3333"/>
<circle fill="#a64b00" stroke="#a64b00" stroke-width="0" cx="400.613" cy="256" r="21.3333"/>
</svg>
