<?xml version="1.0" encoding="utf-8"?> <!-- Generator: Adobe Illustrator 13.0.0, SVG Export Plug-In . SVG Version: 6.00 Build 14948)  --> <svg version="1.2" baseProfile="tiny" id="Layer_1" xmlns="http://www.w3.org/2000/svg" xmlns:xlink="http://www.w3.org/1999/xlink" x="0px" y="0px" width="512px" height="512px" viewBox="0 0 512 512" xml:space="preserve">
<polygon points="0,0 512,0 512,512 0,512" style="fill:#ffffff; stroke:#000000;stroke-width:0"/>
<polygon points="-129.764,185.306 -95.9903,159.234 30.6151,323.235 -3.15867,349.308" style="fill:#006363; stroke:#000000;stroke-width:0"/>
<circle fill="#006363" stroke="#006363" stroke-width="0" cx="-112.877" cy="172.27" r="21.3333"/>
<circle fill="#006363" stroke="#006363" stroke-width="0" cx="13.7282" cy="336.271" r="21.3333"/>
<polygon points="658.014,306.94 620.999,328.161 516.4,145.719 553.414,124.498" style="fill:#006363; stroke:#000000;stroke-width:0"/>
<circle fill="#006363" stroke="#006363" stroke-width="0" cx="639.506" cy="317.55" r="21.3333"/>
<circle fill="#006363" stroke="#006363" stroke-width="0" cx="534.907" cy="135.108" r="21.3333"/>
<polygon points="1256,469.333 256,1469.33 -744,469.333" style="fill:#000000; stroke:#000000;stroke-width:0"/>
<polygon points="-744,42.6667 256,-957.333 1256,42.6667" style="fill:#000000; stroke:#000000;stroke-width:0"/>
<circle fill="#a64b00" stroke="#a64b00" stroke-width="0" cx="-112.877" cy="172.27" r="21.3333"/>
<circle fill="#a64b00" stroke="#a64b00" stroke-width="0" cx="13.7282" cy="336.271" r="21.3333"/>
<circle fill="#a64b00" stroke="#a64b00" stroke-width="0" cx="639.506" cy="317.55" r="21.3333"/>
<circle fill="#a64b00" stroke="#a64b00" stroke-width="0" cx="534.907" cy="135.108" r="21.3333"/>
<circle fill="#a64b00" stroke="#a64b00" stroke-width="0" cx="409.553" cy="211.32" r="21.3333"/>
</svg>
