<?xml version="1.0" encoding="utf-8"?> <!-- Generator: Adobe Illustrator 13.0.0, SVG Export Plug-In . SVG Version: 6.00 Build 14948)  --> <svg version="1.2" baseProfile="tiny" id="Layer_1" xmlns="http://www.w3.org/2000/svg" xmlns:xlink="http://www.w3.org/1999/xlink" x="0px" y="0px" width="512px" height="512px" viewBox="0 0 512 512" xml:space="preserve">
<polygon points="0,0 512,0 512,512 0,512" style="fill:#ffffff; stroke:#000000;stroke-width:0"/>
<polygon points="4.4275,79.9127 46.9996,77.0737 60.8215,284.334 18.2493,287.173" style="fill:#006363; stroke:#000000;stroke-width:0"/>
<circle fill="#006363" stroke="#006363" stroke-width="0" cx="25.7136" cy="78.4932" r="21.3333"/>
<circle fill="#006363" stroke="#006363" stroke-width="0" cx="39.5354" cy="285.754" r="21.3333"/>
<polygon points="457.737,228.085 500.29,224.968 515.823,437.005 473.271,440.122" style="fill:#006363; stroke:#000000;stroke-width:0"/>
<circle fill="#006363" stroke="#006363" stroke-width="0" cx="479.013" cy="226.527" r="21.3333"/>
<circle fill="#006363" stroke="#006363" stroke-width="0" cx="494.547" cy="438.564" r="21.3333"/>
<polygon points="1256,469.333 256,1469.33 -744,469.333" style="fill:#000000; stroke:#000000;stroke-width:0"/>
<polygon points="-744,42.6667 256,-957.333 1256,42.6667" style="fill:#000000; stroke:#000000;stroke-width:0"/>
<circle fill="#a64b00" stroke="#a64b00" stroke-width="0" cx="25.7136" cy="78.4932" r="21.3333"/>
<circle fill="#a64b00" stroke="#a64b00" stroke-width="0" cx="39.5354" cy="285.754" r="21.3333"/>
<circle fill="#a64b00" stroke="#a64b00" stroke-width="0" cx="479.013" cy="226.527" r="21.3333"/>
<circle fill="#a64b00" stroke="#a64b00" stroke-width="0" cx="494.547" cy="438.564" r="21.3333"/>
<circle fill="#a64b00" stroke="#a64b00" stroke-width="0" cx="193.74" cy="325.524" r="21.3333"/>
</svg>
