<?xml version="1.0" encoding="utf-8"?> <!-- Generator: Adobe Illustrator 13.0.0, SVG Export Plug-In . SVG Version: 6.00 Build 14948)  --> <svg version="1.2" baseProfile="tiny" id="Layer_1" xmlns="http://www.w3.org/2000/svg" xmlns:xlink="http://www.w3.org/1999/xlink" x="0px" y="0px" width="512px" height="512px" viewBox="0 0 512 512" xml:space="preserve">
<polygon points="0,0 512,0 512,512 0,512" style="fill:#ffffff; stroke:#000000;stroke-width:0"/>
<polygon points="-85.2488,141.378 -78.1287,183.446 -288.3,219.018 -295.421,176.95" style="fill:#006363; stroke:#000000;stroke-width:0"/>
<circle fill="#006363" stroke="#006363" stroke-width="0" cx="-81.6887" cy="162.412" r="21.3333"/>
<circle fill="#006363" stroke="#006363" stroke-width="0" cx="-291.86" cy="197.984" r="21.3333"/>
<polygon points="744.447,300.759 703.515,288.716 763.273,85.6041 804.205,97.6468" style="fill:#006363; stroke:#000000;stroke-width:0"/>
<circle fill="#006363" stroke="#006363" stroke-width="0" cx="723.981" cy="294.738" r="21.3333"/>
<circle fill="#006363" stroke="#006363" stroke-width="0" cx="783.739" cy="91.6254" r="21.3333"/>
<polygon points="1256,469.333 256,1469.33 -744,469.333" style="fill:#000000; stroke:#000000;stroke-width:0"/>
<polygon points="-744,42.6667 256,-957.333 1256,42.6667" style="fill:#000000; stroke:#000000;stroke-width:0"/>
<circle fill="#a64b00" stroke="#a64b00" stroke-width="0" cx="-81.6887" cy="162.412" r="21.3333"/>
<circle fill="#a64b00" stroke="#a64b00" stroke-width="0" cx="-291.86" cy="197.984" r="21.3333"/>
<circle fill="#a64b00" stroke="#a64b00" stroke-width="0" cx="723.981" cy="294.738" r="21.3333"/>
<circle fill="#a64b00" stroke="#a64b00" stroke-width="0" cx="783.739" cy="91.6254" r="21.3333"/>
<circle fill="#a64b00" stroke="#a64b00" stroke-width="0" cx="97.5617" cy="392.59" r="21.3333"/>
</svg>
