<?xml version="1.0" encoding="utf-8"?> <!-- Generator: Adobe Illustrator 13.0.0, SVG Export Plug-In . SVG Version: 6.00 Build 14948)  --> <svg version="1.2" baseProfile="tiny" id="Layer_1" xmlns="http://www.w3.org/2000/svg" xmlns:xlink="http://www.w3.org/1999/xlink" x="0px" y="0px" width="512px" height="512px" viewBox="0 0 512 512" xml:space="preserve">
<polygon points="0,0 512,0 512,512 0,512" style="fill:#ffffff; stroke:#000000;stroke-width:0"/>
<polygon points="-100.652,65.6046 -99.3371,108.251 -303.327,114.543 -304.643,71.8962" style="fill:#006363; stroke:#000000;stroke-width:0"/>
<circle fill="#006363" stroke="#006363" stroke-width="0" cx="-99.9948" cy="86.9278" r="21.3333"/>
<circle fill="#006363" stroke="#006363" stroke-width="0" cx="-303.985" cy="93.2194" r="21.3333"/>
<polygon points="746.559,355.409 707.67,337.856 798.124,137.452 837.013,155.005" style="fill:#006363; stroke:#000000;stroke-width:0"/>
<circle fill="#006363" stroke="#006363" stroke-width="0" cx="727.115" cy="346.633" r="21.3333"/>
<circle fill="#006363" stroke="#006363" stroke-width="0" cx="817.569" cy="146.228" r="21.3333"/>
<polygon points="1256,469.333 256,1469.33 -744,469.333" style="fill:#000000; stroke:#000000;stroke-width:0"/>
<polygon points="-744,42.6667 256,-957.333 1256,42.6667" style="fill:#000000; stroke:#000000;stroke-width:0"/>
<circle fill="#a64b00" stroke="#a64b00" stroke-width="0" cx="-99.9948" cy="86.9278" r="21.3333"/>
<circle fill="#a64b00" stroke="#a64b00" stroke-width="0" cx="-303.985" cy="93.2194" r="21.3333"/>
<circle fill="#a64b00" stroke="#a64b00" stroke-width="0" cx="727.115" cy="346.633" r="21.3333"/>
<circle fill="#a64b00" stroke="#a64b00" stroke-width="0" cx="817.569" cy="146.228" r="21.3333"/>
<circle fill="#a64b00" stroke="#a64b00" stroke-width="0" cx="62.9622" cy="278.104" r="21.3333"/>
</svg>
