<?xml version="1.0" encoding="utf-8"?> <!-- Generator: Adobe Illustrator 13.0.0, SVG Export Plug-In . SVG Version: 6.00 Build 14948)  --> <svg version="1.2" baseProfile="tiny" id="Layer_1" xmlns="http://www.w3.org/2000/svg" xmlns:xlink="http://www.w3.org/1999/xlink" x="0px" y="0px" width="512px" height="512px" viewBox="0 0 512 512" xml:space="preserve">
<polygon points="0,0 512,0 512,512 0,512" style="fill:#ffffff; stroke:#000000;stroke-width:0"/>
<polygon points="-109.88,147.114 -110.792,189.771 -332.925,185.021 -332.013,142.364" style="fill:#006363; stroke:#000000;stroke-width:0"/>
<circle fill="#006363" stroke="#006363" stroke-width="0" cx="-110.336" cy="168.443" r="21.3333"/>
<circle fill="#006363" stroke="#006363" stroke-width="0" cx="-332.469" cy="163.692" r="21.3333"/>
<polygon points="755.228,411.731 720.001,387.659 836.615,217.006 871.843,241.079" style="fill:#006363; stroke:#000000;stroke-width:0"/>
<circle fill="#006363" stroke="#006363" stroke-width="0" cx="737.615" cy="399.695" r="21.3333"/>
<circle fill="#006363" stroke="#006363" stroke-width="0" cx="854.229" cy="229.043" r="21.3333"/>
<polygon points="1256,469.333 256,1469.33 -744,469.333" style="fill:#000000; stroke:#000000;stroke-width:0"/>
<polygon points="-744,42.6667 256,-957.333 1256,42.6667" style="fill:#000000; stroke:#000000;stroke-width:0"/>
<circle fill="#a64b00" stroke="#a64b00" stroke-width="0" cx="-110.336" cy="168.443" r="21.3333"/>
<circle fill="#a64b00" stroke="#a64b00" stroke-width="0" cx="-332.469" cy="163.692" r="21.3333"/>
<circle fill="#a64b00" stroke="#a64b00" stroke-width="0" cx="737.615" cy="399.695" r="21.3333"/>
<circle fill="#a64b00" stroke="#a64b00" stroke-width="0" cx="854.229" cy="229.043" r="21.3333"/>
<circle fill="#a64b00" stroke="#a64b00" stroke-width="0" cx="18.8181" cy="201.779" r="21.3333"/>
</svg>
