<?xml version="1.0" encoding="utf-8"?> <!-- Generator: Adobe Illustrator 13.0.0, SVG Export Plug-In . SVG Version: 6.00 Build 14948)  --> <svg version="1.2" baseProfile="tiny" id="Layer_1" xmlns="http://www.w3.org/2000/svg" xmlns:xlink="http://www.w3.org/1999/xlink" x="0px" y="0px" width="512px" height="512px" viewBox="0 0 512 512" xml:space="preserve">
<polygon points="0,0 512,0 512,512 0,512" style="fill:#ffffff; stroke:#000000;stroke-width:0"/>
<polygon points="-231.213,235.035 -243.546,194.189 -33.7301,130.838 -21.3974,171.684" style="fill:#006363; stroke:#000000;stroke-width:0"/>
<circle fill="#006363" stroke="#006363" stroke-width="0" cx="-237.38" cy="214.612" r="21.3333"/>
<circle fill="#006363" stroke="#006363" stroke-width="0" cx="-27.5637" cy="151.261" r="21.3333"/>
<polygon points="581.687,362.879 578.62,320.322 794.113,304.792 797.18,347.348" style="fill:#006363; stroke:#000000;stroke-width:0"/>
<circle fill="#006363" stroke="#006363" stroke-width="0" cx="580.153" cy="341.601" r="21.3333"/>
<circle fill="#006363" stroke="#006363" stroke-width="0" cx="795.646" cy="326.07" r="21.3333"/>
<polygon points="1256,469.333 256,1469.33 -744,469.333" style="fill:#000000; stroke:#000000;stroke-width:0"/>
<polygon points="-744,42.6667 256,-957.333 1256,42.6667" style="fill:#000000; stroke:#000000;stroke-width:0"/>
<circle fill="#a64b00" stroke="#a64b00" stroke-width="0" cx="-237.38" cy="214.612" r="21.3333"/>
<circle fill="#a64b00" stroke="#a64b00" stroke-width="0" cx="-27.5637" cy="151.261" r="21.3333"/>
<circle fill="#a64b00" stroke="#a64b00" stroke-width="0" cx="580.153" cy="341.601" r="21.3333"/>
<circle fill="#a64b00" stroke="#a64b00" stroke-width="0" cx="795.646" cy="326.07" r="21.3333"/>
<circle fill="#a64b00" stroke="#a64b00" stroke-width="0" cx="221.046" cy="96.8337" r="21.3333"/>
</svg>
