<?xml version="1.0" encoding="utf-8"?> <!-- Generator: Adobe Illustrator 13.0.0, SVG Export Plug-In . SVG Version: 6.00 Build 14948)  --> <svg version="1.2" baseProfile="tiny" id="Layer_1" xmlns="http://www.w3.org/2000/svg" xmlns:xlink="http://www.w3.org/1999/xlink" x="0px" y="0px" width="512px" height="512px" viewBox="0 0 512 512" xml:space="preserve">
<polygon points="0,0 512,0 512,512 0,512" style="fill:#ffffff; stroke:#000000;stroke-width:0"/>
<polygon points="-77.158,203.457 -40.5725,181.504 71.7735,368.732 35.1879,390.685" style="fill:#006363; stroke:#000000;stroke-width:0"/>
<circle fill="#006363" stroke="#006363" stroke-width="0" cx="-58.8653" cy="192.481" r="21.3333"/>
<circle fill="#006363" stroke="#006363" stroke-width="0" cx="53.4807" cy="379.709" r="21.3333"/>
<polygon points="423.786,149.014 439.54,109.362 639.875,188.956 624.121,228.608" style="fill:#006363; stroke:#000000;stroke-width:0"/>
<circle fill="#006363" stroke="#006363" stroke-width="0" cx="431.663" cy="129.188" r="21.3333"/>
<circle fill="#006363" stroke="#006363" stroke-width="0" cx="631.998" cy="208.782" r="21.3333"/>
<polygon points="1256,469.333 256,1469.33 -744,469.333" style="fill:#000000; stroke:#000000;stroke-width:0"/>
<polygon points="-744,42.6667 256,-957.333 1256,42.6667" style="fill:#000000; stroke:#000000;stroke-width:0"/>
<circle fill="#a64b00" stroke="#a64b00" stroke-width="0" cx="-58.8653" cy="192.481" r="21.3333"/>
<circle fill="#a64b00" stroke="#a64b00" stroke-width="0" cx="53.4807" cy="379.709" r="21.3333"/>
<circle fill="#a64b00" stroke="#a64b00" stroke-width="0" cx="431.663" cy="129.188" r="21.3333"/>
<circle fill="#a64b00" stroke="#a64b00" stroke-width="0" cx="631.998" cy="208.782" r="21.3333"/>
<circle fill="#a64b00" stroke="#a64b00" stroke-width="0" cx="124.315" cy="141.891" r="21.3333"/>
</svg>
