<?xml version="1.0" encoding="utf-8"?> <!-- Generator: Adobe Illustrator 13.0.0, SVG Export Plug-In . SVG Version: 6.00 Build 14948)  --> <svg version="1.2" baseProfile="tiny" id="Layer_1" xmlns="http://www.w3.org/2000/svg" xmlns:xlink="http://www.w3.org/1999/xlink" x="0px" y="0px" width="512px" height="512px" viewBox="0 0 512 512" xml:space="preserve">
<polygon points="0,0 512,0 512,512 0,512" style="fill:#ffffff; stroke:#000000;stroke-width:0"/>
<polygon points="-158.117,437.224 -193.013,412.674 -70.0996,237.962 -35.2035,262.512" style="fill:#006363; stroke:#000000;stroke-width:0"/>
<circle fill="#006363" stroke="#006363" stroke-width="0" cx="-175.565" cy="424.949" r="21.3333"/>
<circle fill="#006363" stroke="#006363" stroke-width="0" cx="-52.6515" cy="250.237" r="21.3333"/>
<polygon points="580.047,241.305 612.724,213.87 751.142,378.736 718.465,406.171" style="fill:#006363; stroke:#000000;stroke-width:0"/>
<circle fill="#006363" stroke="#006363" stroke-width="0" cx="596.386" cy="227.588" r="21.3333"/>
<circle fill="#006363" stroke="#006363" stroke-width="0" cx="734.803" cy="392.454" r="21.3333"/>
<polygon points="1256,469.333 256,1469.33 -744,469.333" style="fill:#000000; stroke:#000000;stroke-width:0"/>
<polygon points="-744,42.6667 256,-957.333 1256,42.6667" style="fill:#000000; stroke:#000000;stroke-width:0"/>
<circle fill="#a64b00" stroke="#a64b00" stroke-width="0" cx="-175.565" cy="424.949" r="21.3333"/>
<circle fill="#a64b00" stroke="#a64b00" stroke-width="0" cx="-52.6515" cy="250.237" r="21.3333"/>
<circle fill="#a64b00" stroke="#a64b00" stroke-width="0" cx="596.386" cy="227.588" r="21.3333"/>
<circle fill="#a64b00" stroke="#a64b00" stroke-width="0" cx="734.803" cy="392.454" r="21.3333"/>
<circle fill="#a64b00" stroke="#a64b00" stroke-width="0" cx="262.804" cy="211.32" r="21.3333"/>
</svg>
