<?xml version="1.0" encoding="utf-8"?> <!-- Generator: Adobe Illustrator 13.0.0, SVG Export Plug-In . SVG Version: 6.00 Build 14948)  --> <svg version="1.2" baseProfile="tiny" id="Layer_1" xmlns="http://www.w3.org/2000/svg" xmlns:xlink="http://www.w3.org/1999/xlink" x="0px" y="0px" width="512px" height="512px" viewBox="0 0 512 512" xml:space="preserve">
<polygon points="0,0 512,0 512,512 0,512" style="fill:#ffffff; stroke:#000000;stroke-width:0"/>
<polygon points="-211.612,354.544 -249.759,373.656 -346.619,180.321 -308.472,161.209" style="fill:#006363; stroke:#000000;stroke-width:0"/>
<circle fill="#006363" stroke="#006363" stroke-width="0" cx="-230.686" cy="364.1" r="21.3333"/>
<circle fill="#006363" stroke="#006363" stroke-width="0" cx="-327.546" cy="170.765" r="21.3333"/>
<polygon points="768.406,289.716 795.376,256.655 963.644,393.924 936.673,426.985" style="fill:#006363; stroke:#000000;stroke-width:0"/>
<circle fill="#006363" stroke="#006363" stroke-width="0" cx="781.891" cy="273.186" r="21.3333"/>
<circle fill="#006363" stroke="#006363" stroke-width="0" cx="950.158" cy="410.455" r="21.3333"/>
<polygon points="1256,469.333 256,1469.33 -744,469.333" style="fill:#000000; stroke:#000000;stroke-width:0"/>
<polygon points="-744,42.6667 256,-957.333 1256,42.6667" style="fill:#000000; stroke:#000000;stroke-width:0"/>
<circle fill="#a64b00" stroke="#a64b00" stroke-width="0" cx="-230.686" cy="364.1" r="21.3333"/>
<circle fill="#a64b00" stroke="#a64b00" stroke-width="0" cx="-327.546" cy="170.765" r="21.3333"/>
<circle fill="#a64b00" stroke="#a64b00" stroke-width="0" cx="781.891" cy="273.186" r="21.3333"/>
<circle fill="#a64b00" stroke="#a64b00" stroke-width="0" cx="950.158" cy="410.455" r="21.3333"/>
<circle fill="#a64b00" stroke="#a64b00" stroke-width="0" cx="-112.421" cy="163.617" r="21.3333"/>
</svg>
