<?xml version="1.0" encoding="utf-8"?> <!-- Generator: Adobe Illustrator 13.0.0, SVG Export Plug-In . SVG Version: 6.00 Build 14948)  --> <svg version="1.2" baseProfile="tiny" id="Layer_1" xmlns="http://www.w3.org/2000/svg" xmlns:xlink="http://www.w3.org/1999/xlink" x="0px" y="0px" width="512px" height="512px" viewBox="0 0 512 512" xml:space="preserve">
<polygon points="0,0 512,0 512,512 0,512" style="fill:#ffffff; stroke:#000000;stroke-width:0"/>
<polygon points="-170.542,306.551 -151.852,344.907 -344.667,438.864 -363.357,400.508" style="fill:#006363; stroke:#000000;stroke-width:0"/>
<circle fill="#006363" stroke="#006363" stroke-width="0" cx="-161.197" cy="325.729" r="21.3333"/>
<circle fill="#006363" stroke="#006363" stroke-width="0" cx="-354.012" cy="419.686" r="21.3333"/>
<polygon points="738.32,384.013 734.856,341.487 941.471,324.66 944.935,367.186" style="fill:#006363; stroke:#000000;stroke-width:0"/>
<circle fill="#006363" stroke="#006363" stroke-width="0" cx="736.588" cy="362.75" r="21.3333"/>
<circle fill="#006363" stroke="#006363" stroke-width="0" cx="943.203" cy="345.923" r="21.3333"/>
<polygon points="1256,469.333 256,1469.33 -744,469.333" style="fill:#000000; stroke:#000000;stroke-width:0"/>
<polygon points="-744,42.6667 256,-957.333 1256,42.6667" style="fill:#000000; stroke:#000000;stroke-width:0"/>
<circle fill="#a64b00" stroke="#a64b00" stroke-width="0" cx="-161.197" cy="325.729" r="21.3333"/>
<circle fill="#a64b00" stroke="#a64b00" stroke-width="0" cx="-354.012" cy="419.686" r="21.3333"/>
<circle fill="#a64b00" stroke="#a64b00" stroke-width="0" cx="736.588" cy="362.75" r="21.3333"/>
<circle fill="#a64b00" stroke="#a64b00" stroke-width="0" cx="943.203" cy="345.923" r="21.3333"/>
<circle fill="#a64b00" stroke="#a64b00" stroke-width="0" cx="-63.5047" cy="163.617" r="21.3333"/>
</svg>
