<?xml version="1.0" encoding="utf-8"?> <!-- Generator: Adobe Illustrator 13.0.0, SVG Export Plug-In . SVG Version: 6.00 Build 14948)  --> <svg version="1.2" baseProfile="tiny" id="Layer_1" xmlns="http://www.w3.org/2000/svg" xmlns:xlink="http://www.w3.org/1999/xlink" x="0px" y="0px" width="512px" height="512px" viewBox="0 0 512 512" xml:space="preserve">
<polygon points="0,0 512,0 512,512 0,512" style="fill:#ffffff; stroke:#000000;stroke-width:0"/>
<polygon points="-362.026,359.417 -397.742,336.076 -282.9,160.345 -247.183,183.686" style="fill:#006363; stroke:#000000;stroke-width:0"/>
<circle fill="#006363" stroke="#006363" stroke-width="0" cx="-379.884" cy="347.747" r="21.3333"/>
<circle fill="#006363" stroke="#006363" stroke-width="0" cx="-265.042" cy="172.016" r="21.3333"/>
<polygon points="949.062,214.698 986.104,235.873 879.219,422.848 842.177,401.673" style="fill:#006363; stroke:#000000;stroke-width:0"/>
<circle fill="#006363" stroke="#006363" stroke-width="0" cx="967.583" cy="225.285" r="21.3333"/>
<circle fill="#006363" stroke="#006363" stroke-width="0" cx="860.698" cy="412.26" r="21.3333"/>
<polygon points="1256,469.333 256,1469.33 -744,469.333" style="fill:#000000; stroke:#000000;stroke-width:0"/>
<polygon points="-744,42.6667 256,-957.333 1256,42.6667" style="fill:#000000; stroke:#000000;stroke-width:0"/>
<circle fill="#a64b00" stroke="#a64b00" stroke-width="0" cx="-379.884" cy="347.747" r="21.3333"/>
<circle fill="#a64b00" stroke="#a64b00" stroke-width="0" cx="-265.042" cy="172.016" r="21.3333"/>
<circle fill="#a64b00" stroke="#a64b00" stroke-width="0" cx="967.583" cy="225.285" r="21.3333"/>
<circle fill="#a64b00" stroke="#a64b00" stroke-width="0" cx="860.698" cy="412.26" r="21.3333"/>
<circle fill="#a64b00" stroke="#a64b00" stroke-width="0" cx="544.421" cy="255.8" r="21.3333"/>
</svg>
