<?xml version="1.0" encoding="utf-8"?> <!-- Generator: Adobe Illustrator 13.0.0, SVG Export Plug-In . SVG Version: 6.00 Build 14948)  --> <svg version="1.2" baseProfile="tiny" id="Layer_1" xmlns="http://www.w3.org/2000/svg" xmlns:xlink="http://www.w3.org/1999/xlink" x="0px" y="0px" width="512px" height="512px" viewBox="0 0 512 512" xml:space="preserve">
<polygon points="0,0 512,0 512,512 0,512" style="fill:#ffffff; stroke:#000000;stroke-width:0"/>
<polygon points="-325.841,428.001 -367.903,420.842 -331.841,208.97 -289.779,216.129" style="fill:#006363; stroke:#000000;stroke-width:0"/>
<circle fill="#006363" stroke="#006363" stroke-width="0" cx="-346.872" cy="424.422" r="21.3333"/>
<circle fill="#006363" stroke="#006363" stroke-width="0" cx="-310.81" cy="212.55" r="21.3333"/>
<polygon points="971.113,223.587 1003.56,251.288 869.914,407.853 837.463,380.152" style="fill:#006363; stroke:#000000;stroke-width:0"/>
<circle fill="#006363" stroke="#006363" stroke-width="0" cx="987.339" cy="237.437" r="21.3333"/>
<circle fill="#006363" stroke="#006363" stroke-width="0" cx="853.688" cy="394.003" r="21.3333"/>
<polygon points="1256,469.333 256,1469.33 -744,469.333" style="fill:#000000; stroke:#000000;stroke-width:0"/>
<polygon points="-744,42.6667 256,-957.333 1256,42.6667" style="fill:#000000; stroke:#000000;stroke-width:0"/>
<circle fill="#a64b00" stroke="#a64b00" stroke-width="0" cx="-346.872" cy="424.422" r="21.3333"/>
<circle fill="#a64b00" stroke="#a64b00" stroke-width="0" cx="-310.81" cy="212.55" r="21.3333"/>
<circle fill="#a64b00" stroke="#a64b00" stroke-width="0" cx="987.339" cy="237.437" r="21.3333"/>
<circle fill="#a64b00" stroke="#a64b00" stroke-width="0" cx="853.688" cy="394.003" r="21.3333"/>
<circle fill="#a64b00" stroke="#a64b00" stroke-width="0" cx="758.829" cy="292.408" r="21.3333"/>
</svg>
