<?xml version="1.0" encoding="utf-8"?> <!-- Generator: Adobe Illustrator 13.0.0, SVG Export Plug-In . SVG Version: 6.00 Build 14948)  --> <svg version="1.2" baseProfile="tiny" id="Layer_1" xmlns="http://www.w3.org/2000/svg" xmlns:xlink="http://www.w3.org/1999/xlink" x="0px" y="0px" width="512px" height="512px" viewBox="0 0 512 512" xml:space="preserve">
<polygon points="0,0 512,0 512,512 0,512" style="fill:#ffffff; stroke:#000000;stroke-width:0"/>
<polygon points="-27.6279,180.53 14.2346,172.286 55.9548,384.122 14.0923,392.367" style="fill:#006363; stroke:#000000;stroke-width:0"/>
<circle fill="#006363" stroke="#006363" stroke-width="0" cx="-6.69669" cy="176.408" r="21.3333"/>
<circle fill="#006363" stroke="#006363" stroke-width="0" cx="35.0236" cy="388.245" r="21.3333"/>
<polygon points="447.873,118.861 487.152,102.199 571.093,300.081 531.814,316.743" style="fill:#006363; stroke:#000000;stroke-width:0"/>
<circle fill="#006363" stroke="#006363" stroke-width="0" cx="467.512" cy="110.53" r="21.3333"/>
<circle fill="#006363" stroke="#006363" stroke-width="0" cx="551.454" cy="308.412" r="21.3333"/>
<polygon points="1256,469.333 256,1469.33 -744,469.333" style="fill:#000000; stroke:#000000;stroke-width:0"/>
<polygon points="-744,42.6667 256,-957.333 1256,42.6667" style="fill:#000000; stroke:#000000;stroke-width:0"/>
<circle fill="#a64b00" stroke="#a64b00" stroke-width="0" cx="-6.69669" cy="176.408" r="21.3333"/>
<circle fill="#a64b00" stroke="#a64b00" stroke-width="0" cx="35.0236" cy="388.245" r="21.3333"/>
<circle fill="#a64b00" stroke="#a64b00" stroke-width="0" cx="467.512" cy="110.53" r="21.3333"/>
<circle fill="#a64b00" stroke="#a64b00" stroke-width="0" cx="551.454" cy="308.412" r="21.3333"/>
<circle fill="#a64b00" stroke="#a64b00" stroke-width="0" cx="326.718" cy="110.85" r="21.3333"/>
</svg>
