<?xml version="1.0" encoding="utf-8"?> <!-- Generator: Adobe Illustrator 13.0.0, SVG Export Plug-In . SVG Version: 6.00 Build 14948)  --> <svg version="1.2" baseProfile="tiny" id="Layer_1" xmlns="http://www.w3.org/2000/svg" xmlns:xlink="http://www.w3.org/1999/xlink" x="0px" y="0px" width="512px" height="512px" viewBox="0 0 512 512" xml:space="preserve">
<polygon points="0,0 512,0 512,512 0,512" style="fill:#ffffff; stroke:#000000;stroke-width:0"/>
<polygon points="-131.366,86.9383 -129.922,44.2961 78.3873,51.3481 76.9437,93.9903" style="fill:#006363; stroke:#000000;stroke-width:0"/>
<circle fill="#006363" stroke="#006363" stroke-width="0" cx="-130.644" cy="65.6172" r="21.3333"/>
<circle fill="#006363" stroke="#006363" stroke-width="0" cx="77.6655" cy="72.6692" r="21.3333"/>
<polygon points="510.733,292.358 477.215,265.958 607.598,100.424 641.116,126.824" style="fill:#006363; stroke:#000000;stroke-width:0"/>
<circle fill="#006363" stroke="#006363" stroke-width="0" cx="493.974" cy="279.158" r="21.3333"/>
<circle fill="#006363" stroke="#006363" stroke-width="0" cx="624.357" cy="113.624" r="21.3333"/>
<polygon points="1256,469.333 256,1469.33 -744,469.333" style="fill:#000000; stroke:#000000;stroke-width:0"/>
<polygon points="-744,42.6667 256,-957.333 1256,42.6667" style="fill:#000000; stroke:#000000;stroke-width:0"/>
<circle fill="#a64b00" stroke="#a64b00" stroke-width="0" cx="-130.644" cy="65.6172" r="21.3333"/>
<circle fill="#a64b00" stroke="#a64b00" stroke-width="0" cx="77.6655" cy="72.6692" r="21.3333"/>
<circle fill="#a64b00" stroke="#a64b00" stroke-width="0" cx="493.974" cy="279.158" r="21.3333"/>
<circle fill="#a64b00" stroke="#a64b00" stroke-width="0" cx="624.357" cy="113.624" r="21.3333"/>
<circle fill="#a64b00" stroke="#a64b00" stroke-width="0" cx="462.049" cy="154.077" r="21.3333"/>
</svg>
