<?xml version="1.0" encoding="utf-8"?> <!-- Generator: Adobe Illustrator 13.0.0, SVG Export Plug-In . SVG Version: 6.00 Build 14948)  --> <svg version="1.2" baseProfile="tiny" id="Layer_1" xmlns="http://www.w3.org/2000/svg" xmlns:xlink="http://www.w3.org/1999/xlink" x="0px" y="0px" width="512px" height="512px" viewBox="0 0 512 512" xml:space="preserve">
<polygon points="0,0 512,0 512,512 0,512" style="fill:#ffffff; stroke:#000000;stroke-width:0"/>
<polygon points="-159.265,340.18 -166.139,382.289 -379.029,347.539 -372.156,305.43" style="fill:#006363; stroke:#000000;stroke-width:0"/>
<circle fill="#006363" stroke="#006363" stroke-width="0" cx="-162.702" cy="361.235" r="21.3333"/>
<circle fill="#006363" stroke="#006363" stroke-width="0" cx="-375.592" cy="326.485" r="21.3333"/>
<polygon points="749.522,334.505 763.314,294.129 958.31,360.736 944.518,401.112" style="fill:#006363; stroke:#000000;stroke-width:0"/>
<circle fill="#006363" stroke="#006363" stroke-width="0" cx="756.418" cy="314.317" r="21.3333"/>
<circle fill="#006363" stroke="#006363" stroke-width="0" cx="951.414" cy="380.924" r="21.3333"/>
<polygon points="1256,469.333 256,1469.33 -744,469.333" style="fill:#000000; stroke:#000000;stroke-width:0"/>
<polygon points="-744,42.6667 256,-957.333 1256,42.6667" style="fill:#000000; stroke:#000000;stroke-width:0"/>
<circle fill="#a64b00" stroke="#a64b00" stroke-width="0" cx="-162.702" cy="361.235" r="21.3333"/>
<circle fill="#a64b00" stroke="#a64b00" stroke-width="0" cx="-375.592" cy="326.485" r="21.3333"/>
<circle fill="#a64b00" stroke="#a64b00" stroke-width="0" cx="756.418" cy="314.317" r="21.3333"/>
<circle fill="#a64b00" stroke="#a64b00" stroke-width="0" cx="951.414" cy="380.924" r="21.3333"/>
<circle fill="#a64b00" stroke="#a64b00" stroke-width="0" cx="-89.7525" cy="373.509" r="21.3333"/>
</svg>
