<?xml version="1.0" encoding="utf-8"?> <!-- Generator: Adobe Illustrator 13.0.0, SVG Export Plug-In . SVG Version: 6.00 Build 14948)  --> <svg version="1.2" baseProfile="tiny" id="Layer_1" xmlns="http://www.w3.org/2000/svg" xmlns:xlink="http://www.w3.org/1999/xlink" x="0px" y="0px" width="512px" height="512px" viewBox="0 0 512 512" xml:space="preserve">
<polygon points="0,0 512,0 512,512 0,512" style="fill:#ffffff; stroke:#000000;stroke-width:0"/>
<polygon points="-391.654,281.803 -415.818,246.638 -241.153,126.612 -216.988,161.776" style="fill:#006363; stroke:#000000;stroke-width:0"/>
<circle fill="#006363" stroke="#006363" stroke-width="0" cx="-403.736" cy="264.221" r="21.3333"/>
<circle fill="#006363" stroke="#006363" stroke-width="0" cx="-229.071" cy="144.194" r="21.3333"/>
<polygon points="925.124,210.513 965.306,224.86 891.049,432.833 850.866,418.485" style="fill:#006363; stroke:#000000;stroke-width:0"/>
<circle fill="#006363" stroke="#006363" stroke-width="0" cx="945.215" cy="217.686" r="21.3333"/>
<circle fill="#006363" stroke="#006363" stroke-width="0" cx="870.957" cy="425.659" r="21.3333"/>
<polygon points="1256,469.333 256,1469.33 -744,469.333" style="fill:#000000; stroke:#000000;stroke-width:0"/>
<polygon points="-744,42.6667 256,-957.333 1256,42.6667" style="fill:#000000; stroke:#000000;stroke-width:0"/>
<circle fill="#a64b00" stroke="#a64b00" stroke-width="0" cx="-403.736" cy="264.221" r="21.3333"/>
<circle fill="#a64b00" stroke="#a64b00" stroke-width="0" cx="-229.071" cy="144.194" r="21.3333"/>
<circle fill="#a64b00" stroke="#a64b00" stroke-width="0" cx="945.215" cy="217.686" r="21.3333"/>
<circle fill="#a64b00" stroke="#a64b00" stroke-width="0" cx="870.957" cy="425.659" r="21.3333"/>
<circle fill="#a64b00" stroke="#a64b00" stroke-width="0" cx="340.733" cy="221.023" r="21.3333"/>
</svg>
