<?xml version="1.0" encoding="utf-8"?> <!-- Generator: Adobe Illustrator 13.0.0, SVG Export Plug-In . SVG Version: 6.00 Build 14948)  --> <svg version="1.2" baseProfile="tiny" id="Layer_1" xmlns="http://www.w3.org/2000/svg" xmlns:xlink="http://www.w3.org/1999/xlink" x="0px" y="0px" width="512px" height="512px" viewBox="0 0 512 512" xml:space="preserve">
<polygon points="0,0 512,0 512,512 0,512" style="fill:#ffffff; stroke:#000000;stroke-width:0"/>
<polygon points="-118.485,154.916 -118.363,197.583 -327.993,198.182 -328.115,155.516" style="fill:#006363; stroke:#000000;stroke-width:0"/>
<circle fill="#006363" stroke="#006363" stroke-width="0" cx="-118.424" cy="176.249" r="21.3333"/>
<circle fill="#006363" stroke="#006363" stroke-width="0" cx="-328.054" cy="176.849" r="21.3333"/>
<polygon points="754.278,419.715 719.452,395.066 842.026,221.876 876.853,246.525" style="fill:#006363; stroke:#000000;stroke-width:0"/>
<circle fill="#006363" stroke="#006363" stroke-width="0" cx="736.865" cy="407.391" r="21.3333"/>
<circle fill="#006363" stroke="#006363" stroke-width="0" cx="859.44" cy="234.2" r="21.3333"/>
<polygon points="1256,469.333 256,1469.33 -744,469.333" style="fill:#000000; stroke:#000000;stroke-width:0"/>
<polygon points="-744,42.6667 256,-957.333 1256,42.6667" style="fill:#000000; stroke:#000000;stroke-width:0"/>
<circle fill="#a64b00" stroke="#a64b00" stroke-width="0" cx="-118.424" cy="176.249" r="21.3333"/>
<circle fill="#a64b00" stroke="#a64b00" stroke-width="0" cx="-328.054" cy="176.849" r="21.3333"/>
<circle fill="#a64b00" stroke="#a64b00" stroke-width="0" cx="736.865" cy="407.391" r="21.3333"/>
<circle fill="#a64b00" stroke="#a64b00" stroke-width="0" cx="859.44" cy="234.2" r="21.3333"/>
<circle fill="#a64b00" stroke="#a64b00" stroke-width="0" cx="14.6423" cy="268.563" r="21.3333"/>
</svg>
