<?xml version="1.0" encoding="utf-8"?> <!-- Generator: Adobe Illustrator 13.0.0, SVG Export Plug-In . SVG Version: 6.00 Build 14948)  --> <svg version="1.2" baseProfile="tiny" id="Layer_1" xmlns="http://www.w3.org/2000/svg" xmlns:xlink="http://www.w3.org/1999/xlink" x="0px" y="0px" width="512px" height="512px" viewBox="0 0 512 512" xml:space="preserve">
<polygon points="0,0 512,0 512,512 0,512" style="fill:#ffffff; stroke:#000000;stroke-width:0"/>
<polygon points="-208.031,177.927 -169.024,160.639 -79.9976,361.513 -119.005,378.801" style="fill:#006363; stroke:#000000;stroke-width:0"/>
<circle fill="#006363" stroke="#006363" stroke-width="0" cx="-188.527" cy="169.283" r="21.3333"/>
<circle fill="#006363" stroke="#006363" stroke-width="0" cx="-99.5013" cy="370.157" r="21.3333"/>
<polygon points="629.917,432.433 603.575,398.869 773.924,265.176 800.266,298.74" style="fill:#006363; stroke:#000000;stroke-width:0"/>
<circle fill="#006363" stroke="#006363" stroke-width="0" cx="616.746" cy="415.651" r="21.3333"/>
<circle fill="#006363" stroke="#006363" stroke-width="0" cx="787.095" cy="281.958" r="21.3333"/>
<polygon points="1256,469.333 256,1469.33 -744,469.333" style="fill:#000000; stroke:#000000;stroke-width:0"/>
<polygon points="-744,42.6667 256,-957.333 1256,42.6667" style="fill:#000000; stroke:#000000;stroke-width:0"/>
<circle fill="#a64b00" stroke="#a64b00" stroke-width="0" cx="-188.527" cy="169.283" r="21.3333"/>
<circle fill="#a64b00" stroke="#a64b00" stroke-width="0" cx="-99.5013" cy="370.157" r="21.3333"/>
<circle fill="#a64b00" stroke="#a64b00" stroke-width="0" cx="616.746" cy="415.651" r="21.3333"/>
<circle fill="#a64b00" stroke="#a64b00" stroke-width="0" cx="787.095" cy="281.958" r="21.3333"/>
<circle fill="#a64b00" stroke="#a64b00" stroke-width="0" cx="194.798" cy="383.049" r="21.3333"/>
</svg>
