<?xml version="1.0" encoding="utf-8"?> <!-- Generator: Adobe Illustrator 13.0.0, SVG Export Plug-In . SVG Version: 6.00 Build 14948)  --> <svg version="1.2" baseProfile="tiny" id="Layer_1" xmlns="http://www.w3.org/2000/svg" xmlns:xlink="http://www.w3.org/1999/xlink" x="0px" y="0px" width="512px" height="512px" viewBox="0 0 512 512" xml:space="preserve">
<polygon points="0,0 512,0 512,512 0,512" style="fill:#ffffff; stroke:#000000;stroke-width:0"/>
<polygon points="-257.909,341.122 -300.542,342.828 -309.242,125.361 -266.609,123.655" style="fill:#006363; stroke:#000000;stroke-width:0"/>
<circle fill="#006363" stroke="#006363" stroke-width="0" cx="-279.225" cy="341.975" r="21.3333"/>
<circle fill="#006363" stroke="#006363" stroke-width="0" cx="-287.926" cy="124.508" r="21.3333"/>
<polygon points="783.913,273.081 815.765,244.692 958.97,405.371 927.119,433.759" style="fill:#006363; stroke:#000000;stroke-width:0"/>
<circle fill="#006363" stroke="#006363" stroke-width="0" cx="799.839" cy="258.886" r="21.3333"/>
<circle fill="#006363" stroke="#006363" stroke-width="0" cx="943.044" cy="419.565" r="21.3333"/>
<polygon points="1256,469.333 256,1469.33 -744,469.333" style="fill:#000000; stroke:#000000;stroke-width:0"/>
<polygon points="-744,42.6667 256,-957.333 1256,42.6667" style="fill:#000000; stroke:#000000;stroke-width:0"/>
<circle fill="#a64b00" stroke="#a64b00" stroke-width="0" cx="-279.225" cy="341.975" r="21.3333"/>
<circle fill="#a64b00" stroke="#a64b00" stroke-width="0" cx="-287.926" cy="124.508" r="21.3333"/>
<circle fill="#a64b00" stroke="#a64b00" stroke-width="0" cx="799.839" cy="258.886" r="21.3333"/>
<circle fill="#a64b00" stroke="#a64b00" stroke-width="0" cx="943.044" cy="419.565" r="21.3333"/>
<circle fill="#a64b00" stroke="#a64b00" stroke-width="0" cx="-122.562" cy="115.915" r="21.3333"/>
</svg>
