<?xml version="1.0" encoding="utf-8"?> <!-- Generator: Adobe Illustrator 13.0.0, SVG Export Plug-In . SVG Version: 6.00 Build 14948)  --> <svg version="1.2" baseProfile="tiny" id="Layer_1" xmlns="http://www.w3.org/2000/svg" xmlns:xlink="http://www.w3.org/1999/xlink" x="0px" y="0px" width="512px" height="512px" viewBox="0 0 512 512" xml:space="preserve">
<polygon points="0,0 512,0 512,512 0,512" style="fill:#ffffff; stroke:#000000;stroke-width:0"/>
<polygon points="-357.225,256.057 -386.669,225.178 -227.764,73.6619 -198.321,104.541" style="fill:#006363; stroke:#000000;stroke-width:0"/>
<circle fill="#006363" stroke="#006363" stroke-width="0" cx="-371.947" cy="240.617" r="21.3333"/>
<circle fill="#006363" stroke="#006363" stroke-width="0" cx="-213.043" cy="89.1016" r="21.3333"/>
<polygon points="820.539,245.794 859.651,228.745 944.012,422.278 904.9,439.327" style="fill:#006363; stroke:#000000;stroke-width:0"/>
<circle fill="#006363" stroke="#006363" stroke-width="0" cx="840.095" cy="237.27" r="21.3333"/>
<circle fill="#006363" stroke="#006363" stroke-width="0" cx="924.456" cy="430.802" r="21.3333"/>
<polygon points="1256,469.333 256,1469.33 -744,469.333" style="fill:#000000; stroke:#000000;stroke-width:0"/>
<polygon points="-744,42.6667 256,-957.333 1256,42.6667" style="fill:#000000; stroke:#000000;stroke-width:0"/>
<circle fill="#a64b00" stroke="#a64b00" stroke-width="0" cx="-371.947" cy="240.617" r="21.3333"/>
<circle fill="#a64b00" stroke="#a64b00" stroke-width="0" cx="-213.043" cy="89.1016" r="21.3333"/>
<circle fill="#a64b00" stroke="#a64b00" stroke-width="0" cx="840.095" cy="237.27" r="21.3333"/>
<circle fill="#a64b00" stroke="#a64b00" stroke-width="0" cx="924.456" cy="430.802" r="21.3333"/>
<circle fill="#a64b00" stroke="#a64b00" stroke-width="0" cx="-142.845" cy="440.293" r="21.3333"/>
</svg>
