<?xml version="1.0" encoding="utf-8"?> <!-- Generator: Adobe Illustrator 13.0.0, SVG Export Plug-In . SVG Version: 6.00 Build 14948)  --> <svg version="1.2" baseProfile="tiny" id="Layer_1" xmlns="http://www.w3.org/2000/svg" xmlns:xlink="http://www.w3.org/1999/xlink" x="0px" y="0px" width="512px" height="512px" viewBox="0 0 512 512" xml:space="preserve">
<polygon points="0,0 512,0 512,512 0,512" style="fill:#ffffff; stroke:#000000;stroke-width:0"/>
<polygon points="-196.049,412.048 -209.443,371.538 -14.3289,307.029 -0.935563,347.54" style="fill:#006363; stroke:#000000;stroke-width:0"/>
<circle fill="#006363" stroke="#006363" stroke-width="0" cx="-202.746" cy="391.793" r="21.3333"/>
<circle fill="#006363" stroke="#006363" stroke-width="0" cx="-7.63224" cy="327.285" r="21.3333"/>
<polygon points="608.38,198.424 649.83,188.305 701.14,398.483 659.691,408.602" style="fill:#006363; stroke:#000000;stroke-width:0"/>
<circle fill="#006363" stroke="#006363" stroke-width="0" cx="629.105" cy="193.364" r="21.3333"/>
<circle fill="#006363" stroke="#006363" stroke-width="0" cx="680.416" cy="403.543" r="21.3333"/>
<polygon points="1256,469.333 256,1469.33 -744,469.333" style="fill:#000000; stroke:#000000;stroke-width:0"/>
<polygon points="-744,42.6667 256,-957.333 1256,42.6667" style="fill:#000000; stroke:#000000;stroke-width:0"/>
<circle fill="#a64b00" stroke="#a64b00" stroke-width="0" cx="-202.746" cy="391.793" r="21.3333"/>
<circle fill="#a64b00" stroke="#a64b00" stroke-width="0" cx="-7.63224" cy="327.285" r="21.3333"/>
<circle fill="#a64b00" stroke="#a64b00" stroke-width="0" cx="629.105" cy="193.364" r="21.3333"/>
<circle fill="#a64b00" stroke="#a64b00" stroke-width="0" cx="680.416" cy="403.543" r="21.3333"/>
<circle fill="#a64b00" stroke="#a64b00" stroke-width="0" cx="283.086" cy="230.401" r="21.3333"/>
</svg>
