<?xml version="1.0" encoding="utf-8"?> <!-- Generator: Adobe Illustrator 13.0.0, SVG Export Plug-In . SVG Version: 6.00 Build 14948)  --> <svg version="1.2" baseProfile="tiny" id="Layer_1" xmlns="http://www.w3.org/2000/svg" xmlns:xlink="http://www.w3.org/1999/xlink" x="0px" y="0px" width="512px" height="512px" viewBox="0 0 512 512" xml:space="preserve">
<polygon points="0,0 512,0 512,512 0,512" style="fill:#ffffff; stroke:#000000;stroke-width:0"/>
<polygon points="-141.472,101.333 -137.559,58.8463 81.1484,78.9895 77.2354,121.476" style="fill:#006363; stroke:#000000;stroke-width:0"/>
<circle fill="#006363" stroke="#006363" stroke-width="0" cx="-139.516" cy="80.0897" r="21.3333"/>
<circle fill="#006363" stroke="#006363" stroke-width="0" cx="79.1919" cy="100.233" r="21.3333"/>
<polygon points="532.749,307.119 494.866,287.49 594.504,95.1887 632.387,114.817" style="fill:#006363; stroke:#000000;stroke-width:0"/>
<circle fill="#006363" stroke="#006363" stroke-width="0" cx="513.808" cy="297.305" r="21.3333"/>
<circle fill="#006363" stroke="#006363" stroke-width="0" cx="613.446" cy="105.003" r="21.3333"/>
<polygon points="1256,469.333 256,1469.33 -744,469.333" style="fill:#000000; stroke:#000000;stroke-width:0"/>
<polygon points="-744,42.6667 256,-957.333 1256,42.6667" style="fill:#000000; stroke:#000000;stroke-width:0"/>
<circle fill="#a64b00" stroke="#a64b00" stroke-width="0" cx="-139.516" cy="80.0897" r="21.3333"/>
<circle fill="#a64b00" stroke="#a64b00" stroke-width="0" cx="79.1919" cy="100.233" r="21.3333"/>
<circle fill="#a64b00" stroke="#a64b00" stroke-width="0" cx="513.808" cy="297.305" r="21.3333"/>
<circle fill="#a64b00" stroke="#a64b00" stroke-width="0" cx="613.446" cy="105.003" r="21.3333"/>
<circle fill="#a64b00" stroke="#a64b00" stroke-width="0" cx="453.697" cy="287.644" r="21.3333"/>
</svg>
