<?xml version="1.0" encoding="utf-8"?> <!-- Generator: Adobe Illustrator 13.0.0, SVG Export Plug-In . SVG Version: 6.00 Build 14948)  --> <svg version="1.2" baseProfile="tiny" id="Layer_1" xmlns="http://www.w3.org/2000/svg" xmlns:xlink="http://www.w3.org/1999/xlink" x="0px" y="0px" width="512px" height="512px" viewBox="0 0 512 512" xml:space="preserve">
<polygon points="0,0 512,0 512,512 0,512" style="fill:#ffffff; stroke:#000000;stroke-width:0"/>
<polygon points="-105.077,135.113 -62.8,129.36 -33.9465,341.396 -76.2236,347.149" style="fill:#006363; stroke:#000000;stroke-width:0"/>
<circle fill="#006363" stroke="#006363" stroke-width="0" cx="-83.9385" cy="132.237" r="21.3333"/>
<circle fill="#006363" stroke="#006363" stroke-width="0" cx="-55.0851" cy="344.273" r="21.3333"/>
<polygon points="718.301,233.565 717.215,276.218 504.547,270.805 505.633,228.152" style="fill:#006363; stroke:#000000;stroke-width:0"/>
<circle fill="#006363" stroke="#006363" stroke-width="0" cx="717.758" cy="254.892" r="21.3333"/>
<circle fill="#006363" stroke="#006363" stroke-width="0" cx="505.09" cy="249.479" r="21.3333"/>
<polygon points="1256,469.333 256,1469.33 -744,469.333" style="fill:#000000; stroke:#000000;stroke-width:0"/>
<polygon points="-744,42.6667 256,-957.333 1256,42.6667" style="fill:#000000; stroke:#000000;stroke-width:0"/>
<circle fill="#a64b00" stroke="#a64b00" stroke-width="0" cx="-83.9385" cy="132.237" r="21.3333"/>
<circle fill="#a64b00" stroke="#a64b00" stroke-width="0" cx="-55.0851" cy="344.273" r="21.3333"/>
<circle fill="#a64b00" stroke="#a64b00" stroke-width="0" cx="717.758" cy="254.892" r="21.3333"/>
<circle fill="#a64b00" stroke="#a64b00" stroke-width="0" cx="505.09" cy="249.479" r="21.3333"/>
<circle fill="#a64b00" stroke="#a64b00" stroke-width="0" cx="364.216" cy="154.077" r="21.3333"/>
</svg>
