<?xml version="1.0" encoding="utf-8"?> <!-- Generator: Adobe Illustrator 13.0.0, SVG Export Plug-In . SVG Version: 6.00 Build 14948)  --> <svg version="1.2" baseProfile="tiny" id="Layer_1" xmlns="http://www.w3.org/2000/svg" xmlns:xlink="http://www.w3.org/1999/xlink" x="0px" y="0px" width="512px" height="512px" viewBox="0 0 512 512" xml:space="preserve">
<polygon points="0,0 512,0 512,512 0,512" style="fill:#ffffff; stroke:#000000;stroke-width:0"/>
<polygon points="-397.45,269.647 -419.445,233.086 -233.443,121.187 -211.448,157.747" style="fill:#006363; stroke:#000000;stroke-width:0"/>
<circle fill="#006363" stroke="#006363" stroke-width="0" cx="-408.447" cy="251.366" r="21.3333"/>
<circle fill="#006363" stroke="#006363" stroke-width="0" cx="-222.446" cy="139.467" r="21.3333"/>
<polygon points="919.471,215.701 960.026,228.955 894.79,428.56 854.234,415.306" style="fill:#006363; stroke:#000000;stroke-width:0"/>
<circle fill="#006363" stroke="#006363" stroke-width="0" cx="939.748" cy="222.328" r="21.3333"/>
<circle fill="#006363" stroke="#006363" stroke-width="0" cx="874.512" cy="421.933" r="21.3333"/>
<polygon points="1256,469.333 256,1469.33 -744,469.333" style="fill:#000000; stroke:#000000;stroke-width:0"/>
<polygon points="-744,42.6667 256,-957.333 1256,42.6667" style="fill:#000000; stroke:#000000;stroke-width:0"/>
<circle fill="#a64b00" stroke="#a64b00" stroke-width="0" cx="-408.447" cy="251.366" r="21.3333"/>
<circle fill="#a64b00" stroke="#a64b00" stroke-width="0" cx="-222.446" cy="139.467" r="21.3333"/>
<circle fill="#a64b00" stroke="#a64b00" stroke-width="0" cx="939.748" cy="222.328" r="21.3333"/>
<circle fill="#a64b00" stroke="#a64b00" stroke-width="0" cx="874.512" cy="421.933" r="21.3333"/>
<circle fill="#a64b00" stroke="#a64b00" stroke-width="0" cx="308.571" cy="215.532" r="21.3333"/>
</svg>
