<?xml version="1.0" encoding="utf-8"?> <!-- Generator: Adobe Illustrator 13.0.0, SVG Export Plug-In . SVG Version: 6.00 Build 14948)  --> <svg version="1.2" baseProfile="tiny" id="Layer_1" xmlns="http://www.w3.org/2000/svg" xmlns:xlink="http://www.w3.org/1999/xlink" x="0px" y="0px" width="512px" height="512px" viewBox="0 0 512 512" xml:space="preserve">
<polygon points="0,0 512,0 512,512 0,512" style="fill:#ffffff; stroke:#000000;stroke-width:0"/>
<polygon points="-322.248,434.67 -364.561,429.193 -336.71,214.023 -294.396,219.5" style="fill:#006363; stroke:#000000;stroke-width:0"/>
<circle fill="#006363" stroke="#006363" stroke-width="0" cx="-343.405" cy="431.931" r="21.3333"/>
<circle fill="#006363" stroke="#006363" stroke-width="0" cx="-315.553" cy="216.761" r="21.3333"/>
<polygon points="975.849,221.677 1007.75,250.005 866.453,409.153 834.547,380.825" style="fill:#006363; stroke:#000000;stroke-width:0"/>
<circle fill="#006363" stroke="#006363" stroke-width="0" cx="991.802" cy="235.841" r="21.3333"/>
<circle fill="#006363" stroke="#006363" stroke-width="0" cx="850.5" cy="394.989" r="21.3333"/>
<polygon points="1256,469.333 256,1469.33 -744,469.333" style="fill:#000000; stroke:#000000;stroke-width:0"/>
<polygon points="-744,42.6667 256,-957.333 1256,42.6667" style="fill:#000000; stroke:#000000;stroke-width:0"/>
<circle fill="#a64b00" stroke="#a64b00" stroke-width="0" cx="-343.405" cy="431.931" r="21.3333"/>
<circle fill="#a64b00" stroke="#a64b00" stroke-width="0" cx="-315.553" cy="216.761" r="21.3333"/>
<circle fill="#a64b00" stroke="#a64b00" stroke-width="0" cx="991.802" cy="235.841" r="21.3333"/>
<circle fill="#a64b00" stroke="#a64b00" stroke-width="0" cx="850.5" cy="394.989" r="21.3333"/>
<circle fill="#a64b00" stroke="#a64b00" stroke-width="0" cx="780.27" cy="296.068" r="21.3333"/>
</svg>
