<?xml version="1.0" encoding="utf-8"?> <!-- Generator: Adobe Illustrator 13.0.0, SVG Export Plug-In . SVG Version: 6.00 Build 14948)  --> <svg version="1.2" baseProfile="tiny" id="Layer_1" xmlns="http://www.w3.org/2000/svg" xmlns:xlink="http://www.w3.org/1999/xlink" x="0px" y="0px" width="512px" height="512px" viewBox="0 0 512 512" xml:space="preserve">
<polygon points="0,0 512,0 512,512 0,512" style="fill:#ffffff; stroke:#000000;stroke-width:0"/>
<polygon points="15.4303,151.931 58.0855,150.944 62.993,363.002 20.3378,363.989" style="fill:#006363; stroke:#000000;stroke-width:0"/>
<circle fill="#006363" stroke="#006363" stroke-width="0" cx="36.7579" cy="151.437" r="21.3333"/>
<circle fill="#006363" stroke="#006363" stroke-width="0" cx="41.6654" cy="363.496" r="21.3333"/>
<polygon points="451.376,131.354 494.018,129.904 501.293,343.779 458.651,345.23" style="fill:#006363; stroke:#000000;stroke-width:0"/>
<circle fill="#006363" stroke="#006363" stroke-width="0" cx="472.697" cy="130.629" r="21.3333"/>
<circle fill="#006363" stroke="#006363" stroke-width="0" cx="479.972" cy="344.505" r="21.3333"/>
<polygon points="1256,469.333 256,1469.33 -744,469.333" style="fill:#000000; stroke:#000000;stroke-width:0"/>
<polygon points="-744,42.6667 256,-957.333 1256,42.6667" style="fill:#000000; stroke:#000000;stroke-width:0"/>
<circle fill="#a64b00" stroke="#a64b00" stroke-width="0" cx="36.7579" cy="151.437" r="21.3333"/>
<circle fill="#a64b00" stroke="#a64b00" stroke-width="0" cx="41.6654" cy="363.496" r="21.3333"/>
<circle fill="#a64b00" stroke="#a64b00" stroke-width="0" cx="472.697" cy="130.629" r="21.3333"/>
<circle fill="#a64b00" stroke="#a64b00" stroke-width="0" cx="479.972" cy="344.505" r="21.3333"/>
<circle fill="#a64b00" stroke="#a64b00" stroke-width="0" cx="421.393" cy="256" r="21.3333"/>
</svg>
