<?xml version="1.0" encoding="utf-8"?> <!-- Generator: Adobe Illustrator 13.0.0, SVG Export Plug-In . SVG Version: 6.00 Build 14948)  --> <svg version="1.2" baseProfile="tiny" id="Layer_1" xmlns="http://www.w3.org/2000/svg" xmlns:xlink="http://www.w3.org/1999/xlink" x="0px" y="0px" width="512px" height="512px" viewBox="0 0 512 512" xml:space="preserve">
<polygon points="0,0 512,0 512,512 0,512" style="fill:#ffffff; stroke:#000000;stroke-width:0"/>
<polygon points="-80.9232,134.186 -73.3281,176.172 -293.675,216.032 -301.27,174.047" style="fill:#006363; stroke:#000000;stroke-width:0"/>
<circle fill="#006363" stroke="#006363" stroke-width="0" cx="-77.1256" cy="155.179" r="21.3333"/>
<circle fill="#006363" stroke="#006363" stroke-width="0" cx="-297.473" cy="195.04" r="21.3333"/>
<polygon points="745.28,300.111 704.409,287.865 763.714,89.9243 804.586,102.17" style="fill:#006363; stroke:#000000;stroke-width:0"/>
<circle fill="#006363" stroke="#006363" stroke-width="0" cx="724.845" cy="293.988" r="21.3333"/>
<circle fill="#006363" stroke="#006363" stroke-width="0" cx="784.15" cy="96.0471" r="21.3333"/>
<polygon points="1256,469.333 256,1469.33 -744,469.333" style="fill:#000000; stroke:#000000;stroke-width:0"/>
<polygon points="-744,42.6667 256,-957.333 1256,42.6667" style="fill:#000000; stroke:#000000;stroke-width:0"/>
<circle fill="#a64b00" stroke="#a64b00" stroke-width="0" cx="-77.1256" cy="155.179" r="21.3333"/>
<circle fill="#a64b00" stroke="#a64b00" stroke-width="0" cx="-297.473" cy="195.04" r="21.3333"/>
<circle fill="#a64b00" stroke="#a64b00" stroke-width="0" cx="724.845" cy="293.988" r="21.3333"/>
<circle fill="#a64b00" stroke="#a64b00" stroke-width="0" cx="784.15" cy="96.0471" r="21.3333"/>
<circle fill="#a64b00" stroke="#a64b00" stroke-width="0" cx="96.3686" cy="373.509" r="21.3333"/>
</svg>
