<?xml version="1.0" encoding="utf-8"?> <!-- Generator: Adobe Illustrator 13.0.0, SVG Export Plug-In . SVG Version: 6.00 Build 14948)  --> <svg version="1.2" baseProfile="tiny" id="Layer_1" xmlns="http://www.w3.org/2000/svg" xmlns:xlink="http://www.w3.org/1999/xlink" x="0px" y="0px" width="512px" height="512px" viewBox="0 0 512 512" xml:space="preserve">
<polygon points="0,0 512,0 512,512 0,512" style="fill:#ffffff; stroke:#000000;stroke-width:0"/>
<polygon points="-135.784,172.136 -95.0808,159.343 -29.9972,366.414 -70.7007,379.207" style="fill:#006363; stroke:#000000;stroke-width:0"/>
<circle fill="#006363" stroke="#006363" stroke-width="0" cx="-115.433" cy="165.74" r="21.3333"/>
<circle fill="#006363" stroke="#006363" stroke-width="0" cx="-50.349" cy="372.811" r="21.3333"/>
<polygon points="699.385,186.502 725.638,220.137 555.965,352.569 529.713,318.935" style="fill:#006363; stroke:#000000;stroke-width:0"/>
<circle fill="#006363" stroke="#006363" stroke-width="0" cx="712.511" cy="203.319" r="21.3333"/>
<circle fill="#006363" stroke="#006363" stroke-width="0" cx="542.839" cy="335.752" r="21.3333"/>
<polygon points="1256,469.333 256,1469.33 -744,469.333" style="fill:#000000; stroke:#000000;stroke-width:0"/>
<polygon points="-744,42.6667 256,-957.333 1256,42.6667" style="fill:#000000; stroke:#000000;stroke-width:0"/>
<circle fill="#a64b00" stroke="#a64b00" stroke-width="0" cx="-115.433" cy="165.74" r="21.3333"/>
<circle fill="#a64b00" stroke="#a64b00" stroke-width="0" cx="-50.349" cy="372.811" r="21.3333"/>
<circle fill="#a64b00" stroke="#a64b00" stroke-width="0" cx="712.511" cy="203.319" r="21.3333"/>
<circle fill="#a64b00" stroke="#a64b00" stroke-width="0" cx="542.839" cy="335.752" r="21.3333"/>
<circle fill="#a64b00" stroke="#a64b00" stroke-width="0" cx="333.792" cy="259.023" r="21.3333"/>
</svg>
