<?xml version="1.0" encoding="utf-8"?> <!-- Generator: Adobe Illustrator 13.0.0, SVG Export Plug-In . SVG Version: 6.00 Build 14948)  --> <svg version="1.2" baseProfile="tiny" id="Layer_1" xmlns="http://www.w3.org/2000/svg" xmlns:xlink="http://www.w3.org/1999/xlink" x="0px" y="0px" width="512px" height="512px" viewBox="0 0 512 512" xml:space="preserve">
<polygon points="0,0 512,0 512,512 0,512" style="fill:#ffffff; stroke:#000000;stroke-width:0"/>
<polygon points="-58.8538,338.41 -51.2215,380.388 -258.032,417.989 -265.664,376.011" style="fill:#006363; stroke:#000000;stroke-width:0"/>
<circle fill="#006363" stroke="#006363" stroke-width="0" cx="-55.0376" cy="359.399" r="21.3333"/>
<circle fill="#006363" stroke="#006363" stroke-width="0" cx="-261.848" cy="397" r="21.3333"/>
<polygon points="690.306,409.747 652.347,390.264 748.586,202.755 786.545,222.238" style="fill:#006363; stroke:#000000;stroke-width:0"/>
<circle fill="#006363" stroke="#006363" stroke-width="0" cx="671.326" cy="400.006" r="21.3333"/>
<circle fill="#006363" stroke="#006363" stroke-width="0" cx="767.566" cy="212.497" r="21.3333"/>
<polygon points="1256,469.333 256,1469.33 -744,469.333" style="fill:#000000; stroke:#000000;stroke-width:0"/>
<polygon points="-744,42.6667 256,-957.333 1256,42.6667" style="fill:#000000; stroke:#000000;stroke-width:0"/>
<circle fill="#a64b00" stroke="#a64b00" stroke-width="0" cx="-55.0376" cy="359.399" r="21.3333"/>
<circle fill="#a64b00" stroke="#a64b00" stroke-width="0" cx="-261.848" cy="397" r="21.3333"/>
<circle fill="#a64b00" stroke="#a64b00" stroke-width="0" cx="671.326" cy="400.006" r="21.3333"/>
<circle fill="#a64b00" stroke="#a64b00" stroke-width="0" cx="767.566" cy="212.497" r="21.3333"/>
<circle fill="#a64b00" stroke="#a64b00" stroke-width="0" cx="161.988" cy="259.023" r="21.3333"/>
</svg>
