<?xml version="1.0" encoding="utf-8"?> <!-- Generator: Adobe Illustrator 13.0.0, SVG Export Plug-In . SVG Version: 6.00 Build 14948)  --> <svg version="1.2" baseProfile="tiny" id="Layer_1" xmlns="http://www.w3.org/2000/svg" xmlns:xlink="http://www.w3.org/1999/xlink" x="0px" y="0px" width="512px" height="512px" viewBox="0 0 512 512" xml:space="preserve">
<polygon points="0,0 512,0 512,512 0,512" style="fill:#ffffff; stroke:#000000;stroke-width:0"/>
<polygon points="-185.419,351.671 -214.802,382.608 -365.467,239.508 -336.084,208.572" style="fill:#006363; stroke:#000000;stroke-width:0"/>
<circle fill="#006363" stroke="#006363" stroke-width="0" cx="-200.111" cy="367.14" r="21.3333"/>
<circle fill="#006363" stroke="#006363" stroke-width="0" cx="-350.776" cy="224.04" r="21.3333"/>
<polygon points="759.005,305.824 781.386,269.499 964.122,382.091 941.741,418.416" style="fill:#006363; stroke:#000000;stroke-width:0"/>
<circle fill="#006363" stroke="#006363" stroke-width="0" cx="770.195" cy="287.661" r="21.3333"/>
<circle fill="#006363" stroke="#006363" stroke-width="0" cx="952.932" cy="400.253" r="21.3333"/>
<polygon points="1256,469.333 256,1469.33 -744,469.333" style="fill:#000000; stroke:#000000;stroke-width:0"/>
<polygon points="-744,42.6667 256,-957.333 1256,42.6667" style="fill:#000000; stroke:#000000;stroke-width:0"/>
<circle fill="#a64b00" stroke="#a64b00" stroke-width="0" cx="-200.111" cy="367.14" r="21.3333"/>
<circle fill="#a64b00" stroke="#a64b00" stroke-width="0" cx="-350.776" cy="224.04" r="21.3333"/>
<circle fill="#a64b00" stroke="#a64b00" stroke-width="0" cx="770.195" cy="287.661" r="21.3333"/>
<circle fill="#a64b00" stroke="#a64b00" stroke-width="0" cx="952.932" cy="400.253" r="21.3333"/>
<circle fill="#a64b00" stroke="#a64b00" stroke-width="0" cx="-104.07" cy="297.185" r="21.3333"/>
</svg>
