<?xml version="1.0" encoding="utf-8"?> <!-- Generator: Adobe Illustrator 13.0.0, SVG Export Plug-In . SVG Version: 6.00 Build 14948)  --> <svg version="1.2" baseProfile="tiny" id="Layer_1" xmlns="http://www.w3.org/2000/svg" xmlns:xlink="http://www.w3.org/1999/xlink" x="0px" y="0px" width="512px" height="512px" viewBox="0 0 512 512" xml:space="preserve">
<polygon points="0,0 512,0 512,512 0,512" style="fill:#ffffff; stroke:#000000;stroke-width:0"/>
<polygon points="-220.989,349.304 -260.493,365.425 -338.817,173.493 -299.313,157.372" style="fill:#006363; stroke:#000000;stroke-width:0"/>
<circle fill="#006363" stroke="#006363" stroke-width="0" cx="-240.741" cy="357.365" r="21.3333"/>
<circle fill="#006363" stroke="#006363" stroke-width="0" cx="-319.065" cy="165.433" r="21.3333"/>
<polygon points="770.977,286.871 798.812,254.535 962.984,395.854 935.149,428.19" style="fill:#006363; stroke:#000000;stroke-width:0"/>
<circle fill="#006363" stroke="#006363" stroke-width="0" cx="784.895" cy="270.703" r="21.3333"/>
<circle fill="#006363" stroke="#006363" stroke-width="0" cx="949.066" cy="412.022" r="21.3333"/>
<polygon points="1256,469.333 256,1469.33 -744,469.333" style="fill:#000000; stroke:#000000;stroke-width:0"/>
<polygon points="-744,42.6667 256,-957.333 1256,42.6667" style="fill:#000000; stroke:#000000;stroke-width:0"/>
<circle fill="#a64b00" stroke="#a64b00" stroke-width="0" cx="-240.741" cy="357.365" r="21.3333"/>
<circle fill="#a64b00" stroke="#a64b00" stroke-width="0" cx="-319.065" cy="165.433" r="21.3333"/>
<circle fill="#a64b00" stroke="#a64b00" stroke-width="0" cx="784.895" cy="270.703" r="21.3333"/>
<circle fill="#a64b00" stroke="#a64b00" stroke-width="0" cx="949.066" cy="412.022" r="21.3333"/>
<circle fill="#a64b00" stroke="#a64b00" stroke-width="0" cx="-114.211" cy="134.996" r="21.3333"/>
</svg>
