<?xml version="1.0" encoding="utf-8"?> <!-- Generator: Adobe Illustrator 13.0.0, SVG Export Plug-In . SVG Version: 6.00 Build 14948)  --> <svg version="1.2" baseProfile="tiny" id="Layer_1" xmlns="http://www.w3.org/2000/svg" xmlns:xlink="http://www.w3.org/1999/xlink" x="0px" y="0px" width="512px" height="512px" viewBox="0 0 512 512" xml:space="preserve">
<polygon points="0,0 512,0 512,512 0,512" style="fill:#ffffff; stroke:#000000;stroke-width:0"/>
<polygon points="-145.319,144.356 -122.316,108.421 62.4352,226.688 39.4319,262.623" style="fill:#006363; stroke:#000000;stroke-width:0"/>
<circle fill="#006363" stroke="#006363" stroke-width="0" cx="-133.818" cy="126.388" r="21.3333"/>
<circle fill="#006363" stroke="#006363" stroke-width="0" cx="50.9335" cy="244.656" r="21.3333"/>
<polygon points="609.607,321.314 567.163,325.671 545.05,110.252 587.494,105.895" style="fill:#006363; stroke:#000000;stroke-width:0"/>
<circle fill="#006363" stroke="#006363" stroke-width="0" cx="588.385" cy="323.492" r="21.3333"/>
<circle fill="#006363" stroke="#006363" stroke-width="0" cx="566.272" cy="108.074" r="21.3333"/>
<polygon points="1256,469.333 256,1469.33 -744,469.333" style="fill:#000000; stroke:#000000;stroke-width:0"/>
<polygon points="-744,42.6667 256,-957.333 1256,42.6667" style="fill:#000000; stroke:#000000;stroke-width:0"/>
<circle fill="#a64b00" stroke="#a64b00" stroke-width="0" cx="-133.818" cy="126.388" r="21.3333"/>
<circle fill="#a64b00" stroke="#a64b00" stroke-width="0" cx="50.9335" cy="244.656" r="21.3333"/>
<circle fill="#a64b00" stroke="#a64b00" stroke-width="0" cx="588.385" cy="323.492" r="21.3333"/>
<circle fill="#a64b00" stroke="#a64b00" stroke-width="0" cx="566.272" cy="108.074" r="21.3333"/>
<circle fill="#a64b00" stroke="#a64b00" stroke-width="0" cx="428.046" cy="201.779" r="21.3333"/>
</svg>
