<?xml version="1.0" encoding="utf-8"?> <!-- Generator: Adobe Illustrator 13.0.0, SVG Export Plug-In . SVG Version: 6.00 Build 14948)  --> <svg version="1.2" baseProfile="tiny" id="Layer_1" xmlns="http://www.w3.org/2000/svg" xmlns:xlink="http://www.w3.org/1999/xlink" x="0px" y="0px" width="512px" height="512px" viewBox="0 0 512 512" xml:space="preserve">
<polygon points="0,0 512,0 512,512 0,512" style="fill:#ffffff; stroke:#000000;stroke-width:0"/>
<polygon points="-101.146,167.333 -71.2932,136.849 85.728,290.619 55.8754,321.103" style="fill:#006363; stroke:#000000;stroke-width:0"/>
<circle fill="#006363" stroke="#006363" stroke-width="0" cx="-86.2195" cy="152.091" r="21.3333"/>
<circle fill="#006363" stroke="#006363" stroke-width="0" cx="70.8017" cy="305.861" r="21.3333"/>
<polygon points="429.188,190.92 431.5,148.316 647.776,160.051 645.464,202.655" style="fill:#006363; stroke:#000000;stroke-width:0"/>
<circle fill="#006363" stroke="#006363" stroke-width="0" cx="430.344" cy="169.618" r="21.3333"/>
<circle fill="#006363" stroke="#006363" stroke-width="0" cx="646.62" cy="181.353" r="21.3333"/>
<polygon points="1256,469.333 256,1469.33 -744,469.333" style="fill:#000000; stroke:#000000;stroke-width:0"/>
<polygon points="-744,42.6667 256,-957.333 1256,42.6667" style="fill:#000000; stroke:#000000;stroke-width:0"/>
<circle fill="#a64b00" stroke="#a64b00" stroke-width="0" cx="-86.2195" cy="152.091" r="21.3333"/>
<circle fill="#a64b00" stroke="#a64b00" stroke-width="0" cx="70.8017" cy="305.861" r="21.3333"/>
<circle fill="#a64b00" stroke="#a64b00" stroke-width="0" cx="430.344" cy="169.618" r="21.3333"/>
<circle fill="#a64b00" stroke="#a64b00" stroke-width="0" cx="646.62" cy="181.353" r="21.3333"/>
<circle fill="#a64b00" stroke="#a64b00" stroke-width="0" cx="64.076" cy="165.173" r="21.3333"/>
</svg>
