<?xml version="1.0" encoding="utf-8"?> <!-- Generator: Adobe Illustrator 13.0.0, SVG Export Plug-In . SVG Version: 6.00 Build 14948)  --> <svg version="1.2" baseProfile="tiny" id="Layer_1" xmlns="http://www.w3.org/2000/svg" xmlns:xlink="http://www.w3.org/1999/xlink" x="0px" y="0px" width="512px" height="512px" viewBox="0 0 512 512" xml:space="preserve">
<polygon points="0,0 512,0 512,512 0,512" style="fill:#ffffff; stroke:#000000;stroke-width:0"/>
<polygon points="-99.7425,166.194 -71.1463,134.528 82.7195,273.481 54.1232,305.146" style="fill:#006363; stroke:#000000;stroke-width:0"/>
<circle fill="#006363" stroke="#006363" stroke-width="0" cx="-85.4444" cy="150.361" r="21.3333"/>
<circle fill="#006363" stroke="#006363" stroke-width="0" cx="68.4214" cy="289.313" r="21.3333"/>
<polygon points="434.358,197.596 434.464,154.929 644.734,155.455 644.628,198.122" style="fill:#006363; stroke:#000000;stroke-width:0"/>
<circle fill="#006363" stroke="#006363" stroke-width="0" cx="434.411" cy="176.262" r="21.3333"/>
<circle fill="#006363" stroke="#006363" stroke-width="0" cx="644.681" cy="176.788" r="21.3333"/>
<polygon points="1256,469.333 256,1469.33 -744,469.333" style="fill:#000000; stroke:#000000;stroke-width:0"/>
<polygon points="-744,42.6667 256,-957.333 1256,42.6667" style="fill:#000000; stroke:#000000;stroke-width:0"/>
<circle fill="#a64b00" stroke="#a64b00" stroke-width="0" cx="-85.4444" cy="150.361" r="21.3333"/>
<circle fill="#a64b00" stroke="#a64b00" stroke-width="0" cx="68.4214" cy="289.313" r="21.3333"/>
<circle fill="#a64b00" stroke="#a64b00" stroke-width="0" cx="434.411" cy="176.262" r="21.3333"/>
<circle fill="#a64b00" stroke="#a64b00" stroke-width="0" cx="644.681" cy="176.788" r="21.3333"/>
<circle fill="#a64b00" stroke="#a64b00" stroke-width="0" cx="54.4377" cy="196.215" r="21.3333"/>
</svg>
