<?xml version="1.0" encoding="utf-8"?> <!-- Generator: Adobe Illustrator 13.0.0, SVG Export Plug-In . SVG Version: 6.00 Build 14948)  --> <svg version="1.2" baseProfile="tiny" id="Layer_1" xmlns="http://www.w3.org/2000/svg" xmlns:xlink="http://www.w3.org/1999/xlink" x="0px" y="0px" width="512px" height="512px" viewBox="0 0 512 512" xml:space="preserve">
<polygon points="0,0 512,0 512,512 0,512" style="fill:#ffffff; stroke:#000000;stroke-width:0"/>
<polygon points="-209.072,243.586 -232.772,208.107 -51.1492,86.7846 -27.4495,122.264" style="fill:#006363; stroke:#000000;stroke-width:0"/>
<circle fill="#006363" stroke="#006363" stroke-width="0" cx="-220.922" cy="225.846" r="21.3333"/>
<circle fill="#006363" stroke="#006363" stroke-width="0" cx="-39.2994" cy="104.524" r="21.3333"/>
<polygon points="576.318,346.758 578.425,304.144 793.746,314.788 791.639,357.403" style="fill:#006363; stroke:#000000;stroke-width:0"/>
<circle fill="#006363" stroke="#006363" stroke-width="0" cx="577.371" cy="325.451" r="21.3333"/>
<circle fill="#006363" stroke="#006363" stroke-width="0" cx="792.692" cy="336.096" r="21.3333"/>
<polygon points="1256,469.333 256,1469.33 -744,469.333" style="fill:#000000; stroke:#000000;stroke-width:0"/>
<polygon points="-744,42.6667 256,-957.333 1256,42.6667" style="fill:#000000; stroke:#000000;stroke-width:0"/>
<circle fill="#a64b00" stroke="#a64b00" stroke-width="0" cx="-220.922" cy="225.846" r="21.3333"/>
<circle fill="#a64b00" stroke="#a64b00" stroke-width="0" cx="-39.2994" cy="104.524" r="21.3333"/>
<circle fill="#a64b00" stroke="#a64b00" stroke-width="0" cx="577.371" cy="325.451" r="21.3333"/>
<circle fill="#a64b00" stroke="#a64b00" stroke-width="0" cx="792.692" cy="336.096" r="21.3333"/>
<circle fill="#a64b00" stroke="#a64b00" stroke-width="0" cx="226.415" cy="106.374" r="21.3333"/>
</svg>
