<?xml version="1.0" encoding="utf-8"?> <!-- Generator: Adobe Illustrator 13.0.0, SVG Export Plug-In . SVG Version: 6.00 Build 14948)  --> <svg version="1.2" baseProfile="tiny" id="Layer_1" xmlns="http://www.w3.org/2000/svg" xmlns:xlink="http://www.w3.org/1999/xlink" x="0px" y="0px" width="512px" height="512px" viewBox="0 0 512 512" xml:space="preserve">
<polygon points="0,0 512,0 512,512 0,512" style="fill:#ffffff; stroke:#000000;stroke-width:0"/>
<polygon points="-92.2994,69.8554 -93.2469,112.512 -313.779,107.613 -312.832,64.9566" style="fill:#006363; stroke:#000000;stroke-width:0"/>
<circle fill="#006363" stroke="#006363" stroke-width="0" cx="-92.7731" cy="91.1835" r="21.3333"/>
<circle fill="#006363" stroke="#006363" stroke-width="0" cx="-313.305" cy="86.2846" r="21.3333"/>
<polygon points="749.431,353.184 710.708,335.269 797.801,147.021 836.525,164.937" style="fill:#006363; stroke:#000000;stroke-width:0"/>
<circle fill="#006363" stroke="#006363" stroke-width="0" cx="730.07" cy="344.227" r="21.3333"/>
<circle fill="#006363" stroke="#006363" stroke-width="0" cx="817.163" cy="155.979" r="21.3333"/>
<polygon points="1256,469.333 256,1469.33 -744,469.333" style="fill:#000000; stroke:#000000;stroke-width:0"/>
<polygon points="-744,42.6667 256,-957.333 1256,42.6667" style="fill:#000000; stroke:#000000;stroke-width:0"/>
<circle fill="#a64b00" stroke="#a64b00" stroke-width="0" cx="-92.7731" cy="91.1835" r="21.3333"/>
<circle fill="#a64b00" stroke="#a64b00" stroke-width="0" cx="-313.305" cy="86.2846" r="21.3333"/>
<circle fill="#a64b00" stroke="#a64b00" stroke-width="0" cx="730.07" cy="344.227" r="21.3333"/>
<circle fill="#a64b00" stroke="#a64b00" stroke-width="0" cx="817.163" cy="155.979" r="21.3333"/>
<circle fill="#a64b00" stroke="#a64b00" stroke-width="0" cx="60.5761" cy="316.266" r="21.3333"/>
</svg>
