<?xml version="1.0" encoding="utf-8"?> <!-- Generator: Adobe Illustrator 13.0.0, SVG Export Plug-In . SVG Version: 6.00 Build 14948)  --> <svg version="1.2" baseProfile="tiny" id="Layer_1" xmlns="http://www.w3.org/2000/svg" xmlns:xlink="http://www.w3.org/1999/xlink" x="0px" y="0px" width="512px" height="512px" viewBox="0 0 512 512" xml:space="preserve">
<polygon points="0,0 512,0 512,512 0,512" style="fill:#ffffff; stroke:#000000;stroke-width:0"/>
<polygon points="-86.1096,108.972 -76.4963,150.542 -292.686,200.538 -302.3,158.968" style="fill:#006363; stroke:#000000;stroke-width:0"/>
<circle fill="#006363" stroke="#006363" stroke-width="0" cx="-81.3029" cy="129.757" r="21.3333"/>
<circle fill="#006363" stroke="#006363" stroke-width="0" cx="-297.493" cy="179.753" r="21.3333"/>
<polygon points="745.779,307.476 705.146,294.461 768.314,97.2486 808.947,110.264" style="fill:#006363; stroke:#000000;stroke-width:0"/>
<circle fill="#006363" stroke="#006363" stroke-width="0" cx="725.462" cy="300.969" r="21.3333"/>
<circle fill="#006363" stroke="#006363" stroke-width="0" cx="788.631" cy="103.756" r="21.3333"/>
<polygon points="1256,469.333 256,1469.33 -744,469.333" style="fill:#000000; stroke:#000000;stroke-width:0"/>
<polygon points="-744,42.6667 256,-957.333 1256,42.6667" style="fill:#000000; stroke:#000000;stroke-width:0"/>
<circle fill="#a64b00" stroke="#a64b00" stroke-width="0" cx="-81.3029" cy="129.757" r="21.3333"/>
<circle fill="#a64b00" stroke="#a64b00" stroke-width="0" cx="-297.493" cy="179.753" r="21.3333"/>
<circle fill="#a64b00" stroke="#a64b00" stroke-width="0" cx="725.462" cy="300.969" r="21.3333"/>
<circle fill="#a64b00" stroke="#a64b00" stroke-width="0" cx="788.631" cy="103.756" r="21.3333"/>
<circle fill="#a64b00" stroke="#a64b00" stroke-width="0" cx="91.5962" cy="297.185" r="21.3333"/>
</svg>
