<?xml version="1.0" encoding="utf-8"?> <!-- Generator: Adobe Illustrator 13.0.0, SVG Export Plug-In . SVG Version: 6.00 Build 14948)  --> <svg version="1.2" baseProfile="tiny" id="Layer_1" xmlns="http://www.w3.org/2000/svg" xmlns:xlink="http://www.w3.org/1999/xlink" x="0px" y="0px" width="512px" height="512px" viewBox="0 0 512 512" xml:space="preserve">
<polygon points="0,0 512,0 512,512 0,512" style="fill:#ffffff; stroke:#000000;stroke-width:0"/>
<polygon points="-27.4346,187.249 14.4043,178.885 54.9588,381.761 13.1199,390.125" style="fill:#006363; stroke:#000000;stroke-width:0"/>
<circle fill="#006363" stroke="#006363" stroke-width="0" cx="-6.51514" cy="183.067" r="21.3333"/>
<circle fill="#006363" stroke="#006363" stroke-width="0" cx="34.0394" cy="385.943" r="21.3333"/>
<polygon points="447.845,116.429 486.992,99.4598 572.186,295.997 533.039,312.967" style="fill:#006363; stroke:#000000;stroke-width:0"/>
<circle fill="#006363" stroke="#006363" stroke-width="0" cx="467.418" cy="107.944" r="21.3333"/>
<circle fill="#006363" stroke="#006363" stroke-width="0" cx="552.612" cy="304.482" r="21.3333"/>
<polygon points="1256,469.333 256,1469.33 -744,469.333" style="fill:#000000; stroke:#000000;stroke-width:0"/>
<polygon points="-744,42.6667 256,-957.333 1256,42.6667" style="fill:#000000; stroke:#000000;stroke-width:0"/>
<circle fill="#a64b00" stroke="#a64b00" stroke-width="0" cx="-6.51514" cy="183.067" r="21.3333"/>
<circle fill="#a64b00" stroke="#a64b00" stroke-width="0" cx="34.0394" cy="385.943" r="21.3333"/>
<circle fill="#a64b00" stroke="#a64b00" stroke-width="0" cx="467.418" cy="107.944" r="21.3333"/>
<circle fill="#a64b00" stroke="#a64b00" stroke-width="0" cx="552.612" cy="304.482" r="21.3333"/>
<circle fill="#a64b00" stroke="#a64b00" stroke-width="0" cx="321.898" cy="126.371" r="21.3333"/>
</svg>
