<?xml version="1.0" encoding="utf-8"?> <!-- Generator: Adobe Illustrator 13.0.0, SVG Export Plug-In . SVG Version: 6.00 Build 14948)  --> <svg version="1.2" baseProfile="tiny" id="Layer_1" xmlns="http://www.w3.org/2000/svg" xmlns:xlink="http://www.w3.org/1999/xlink" x="0px" y="0px" width="512px" height="512px" viewBox="0 0 512 512" xml:space="preserve">
<polygon points="0,0 512,0 512,512 0,512" style="fill:#ffffff; stroke:#000000;stroke-width:0"/>
<polygon points="16.5082,165.944 59.1672,165.134 63.1715,376.19 20.5125,376.999" style="fill:#006363; stroke:#000000;stroke-width:0"/>
<circle fill="#006363" stroke="#006363" stroke-width="0" cx="37.8377" cy="165.539" r="21.3333"/>
<circle fill="#006363" stroke="#006363" stroke-width="0" cx="41.842" cy="376.594" r="21.3333"/>
<polygon points="451.148,119.785 493.795,118.502 500.248,332.959 457.601,334.243" style="fill:#006363; stroke:#000000;stroke-width:0"/>
<circle fill="#006363" stroke="#006363" stroke-width="0" cx="472.472" cy="119.143" r="21.3333"/>
<circle fill="#006363" stroke="#006363" stroke-width="0" cx="478.925" cy="333.601" r="21.3333"/>
<polygon points="1256,469.333 256,1469.33 -744,469.333" style="fill:#000000; stroke:#000000;stroke-width:0"/>
<polygon points="-744,42.6667 256,-957.333 1256,42.6667" style="fill:#000000; stroke:#000000;stroke-width:0"/>
<circle fill="#a64b00" stroke="#a64b00" stroke-width="0" cx="37.8377" cy="165.539" r="21.3333"/>
<circle fill="#a64b00" stroke="#a64b00" stroke-width="0" cx="41.842" cy="376.594" r="21.3333"/>
<circle fill="#a64b00" stroke="#a64b00" stroke-width="0" cx="472.472" cy="119.143" r="21.3333"/>
<circle fill="#a64b00" stroke="#a64b00" stroke-width="0" cx="478.925" cy="333.601" r="21.3333"/>
<circle fill="#a64b00" stroke="#a64b00" stroke-width="0" cx="359.053" cy="256" r="21.3333"/>
</svg>
