<?xml version="1.0" encoding="utf-8"?> <!-- Generator: Adobe Illustrator 13.0.0, SVG Export Plug-In . SVG Version: 6.00 Build 14948)  --> <svg version="1.2" baseProfile="tiny" id="Layer_1" xmlns="http://www.w3.org/2000/svg" xmlns:xlink="http://www.w3.org/1999/xlink" x="0px" y="0px" width="512px" height="512px" viewBox="0 0 512 512" xml:space="preserve">
<polygon points="0,0 512,0 512,512 0,512" style="fill:#ffffff; stroke:#000000;stroke-width:0"/>
<polygon points="-126.919,210.3 -87.7399,227.194 -174.226,427.758 -213.405,410.863" style="fill:#006363; stroke:#000000;stroke-width:0"/>
<circle fill="#006363" stroke="#006363" stroke-width="0" cx="-107.33" cy="218.747" r="21.3333"/>
<circle fill="#006363" stroke="#006363" stroke-width="0" cx="-193.816" cy="419.311" r="21.3333"/>
<polygon points="670.008,459.509 634.035,436.566 749.765,255.11 785.738,278.053" style="fill:#006363; stroke:#000000;stroke-width:0"/>
<circle fill="#006363" stroke="#006363" stroke-width="0" cx="652.022" cy="448.038" r="21.3333"/>
<circle fill="#006363" stroke="#006363" stroke-width="0" cx="767.751" cy="266.582" r="21.3333"/>
<polygon points="1256,469.333 256,1469.33 -744,469.333" style="fill:#000000; stroke:#000000;stroke-width:0"/>
<polygon points="-744,42.6667 256,-957.333 1256,42.6667" style="fill:#000000; stroke:#000000;stroke-width:0"/>
<circle fill="#a64b00" stroke="#a64b00" stroke-width="0" cx="-107.33" cy="218.747" r="21.3333"/>
<circle fill="#a64b00" stroke="#a64b00" stroke-width="0" cx="-193.816" cy="419.311" r="21.3333"/>
<circle fill="#a64b00" stroke="#a64b00" stroke-width="0" cx="652.022" cy="448.038" r="21.3333"/>
<circle fill="#a64b00" stroke="#a64b00" stroke-width="0" cx="767.751" cy="266.582" r="21.3333"/>
<circle fill="#a64b00" stroke="#a64b00" stroke-width="0" cx="179.884" cy="144.536" r="21.3333"/>
</svg>
