<?xml version="1.0" encoding="utf-8"?> <!-- Generator: Adobe Illustrator 13.0.0, SVG Export Plug-In . SVG Version: 6.00 Build 14948)  --> <svg version="1.2" baseProfile="tiny" id="Layer_1" xmlns="http://www.w3.org/2000/svg" xmlns:xlink="http://www.w3.org/1999/xlink" x="0px" y="0px" width="512px" height="512px" viewBox="0 0 512 512" xml:space="preserve">
<polygon points="0,0 512,0 512,512 0,512" style="fill:#ffffff; stroke:#000000;stroke-width:0"/>
<polygon points="-136.789,106.108 -131.001,63.8361 74.3672,91.9558 68.5791,134.228" style="fill:#006363; stroke:#000000;stroke-width:0"/>
<circle fill="#006363" stroke="#006363" stroke-width="0" cx="-133.895" cy="84.9722" r="21.3333"/>
<circle fill="#006363" stroke="#006363" stroke-width="0" cx="71.4731" cy="113.092" r="21.3333"/>
<polygon points="541.091,307.099 502.204,289.543 588.711,97.9301 627.599,115.486" style="fill:#006363; stroke:#000000;stroke-width:0"/>
<circle fill="#006363" stroke="#006363" stroke-width="0" cx="521.648" cy="298.321" r="21.3333"/>
<circle fill="#006363" stroke="#006363" stroke-width="0" cx="608.155" cy="106.708" r="21.3333"/>
<polygon points="1256,469.333 256,1469.33 -744,469.333" style="fill:#000000; stroke:#000000;stroke-width:0"/>
<polygon points="-744,42.6667 256,-957.333 1256,42.6667" style="fill:#000000; stroke:#000000;stroke-width:0"/>
<circle fill="#a64b00" stroke="#a64b00" stroke-width="0" cx="-133.895" cy="84.9722" r="21.3333"/>
<circle fill="#a64b00" stroke="#a64b00" stroke-width="0" cx="71.4731" cy="113.092" r="21.3333"/>
<circle fill="#a64b00" stroke="#a64b00" stroke-width="0" cx="521.648" cy="298.321" r="21.3333"/>
<circle fill="#a64b00" stroke="#a64b00" stroke-width="0" cx="608.155" cy="106.708" r="21.3333"/>
<circle fill="#a64b00" stroke="#a64b00" stroke-width="0" cx="451.311" cy="325.806" r="21.3333"/>
</svg>
