<?xml version="1.0" encoding="utf-8"?> <!-- Generator: Adobe Illustrator 13.0.0, SVG Export Plug-In . SVG Version: 6.00 Build 14948)  --> <svg version="1.2" baseProfile="tiny" id="Layer_1" xmlns="http://www.w3.org/2000/svg" xmlns:xlink="http://www.w3.org/1999/xlink" x="0px" y="0px" width="512px" height="512px" viewBox="0 0 512 512" xml:space="preserve">
<polygon points="0,0 512,0 512,512 0,512" style="fill:#ffffff; stroke:#000000;stroke-width:0"/>
<polygon points="-127.97,102.564 -118.58,60.9432 83.9111,106.628 74.5209,148.248" style="fill:#006363; stroke:#000000;stroke-width:0"/>
<circle fill="#006363" stroke="#006363" stroke-width="0" cx="-123.275" cy="81.7534" r="21.3333"/>
<circle fill="#006363" stroke="#006363" stroke-width="0" cx="79.216" cy="127.438" r="21.3333"/>
<polygon points="484.919,272.945 458.277,239.619 622.578,108.27 649.221,141.596" style="fill:#006363; stroke:#000000;stroke-width:0"/>
<circle fill="#006363" stroke="#006363" stroke-width="0" cx="471.598" cy="256.282" r="21.3333"/>
<circle fill="#006363" stroke="#006363" stroke-width="0" cx="635.9" cy="124.933" r="21.3333"/>
<polygon points="1256,469.333 256,1469.33 -744,469.333" style="fill:#000000; stroke:#000000;stroke-width:0"/>
<polygon points="-744,42.6667 256,-957.333 1256,42.6667" style="fill:#000000; stroke:#000000;stroke-width:0"/>
<circle fill="#a64b00" stroke="#a64b00" stroke-width="0" cx="-123.275" cy="81.7534" r="21.3333"/>
<circle fill="#a64b00" stroke="#a64b00" stroke-width="0" cx="79.216" cy="127.438" r="21.3333"/>
<circle fill="#a64b00" stroke="#a64b00" stroke-width="0" cx="471.598" cy="256.282" r="21.3333"/>
<circle fill="#a64b00" stroke="#a64b00" stroke-width="0" cx="635.9" cy="124.933" r="21.3333"/>
<circle fill="#a64b00" stroke="#a64b00" stroke-width="0" cx="472.19" cy="125.455" r="21.3333"/>
</svg>
