<?xml version="1.0" encoding="utf-8"?> <!-- Generator: Adobe Illustrator 13.0.0, SVG Export Plug-In . SVG Version: 6.00 Build 14948)  --> <svg version="1.2" baseProfile="tiny" id="Layer_1" xmlns="http://www.w3.org/2000/svg" xmlns:xlink="http://www.w3.org/1999/xlink" x="0px" y="0px" width="512px" height="512px" viewBox="0 0 512 512" xml:space="preserve">
<polygon points="0,0 512,0 512,512 0,512" style="fill:#ffffff; stroke:#000000;stroke-width:0"/>
<polygon points="-284.653,424.846 -325.614,436.791 -387.061,226.088 -346.101,214.143" style="fill:#006363; stroke:#000000;stroke-width:0"/>
<circle fill="#006363" stroke="#006363" stroke-width="0" cx="-305.134" cy="430.819" r="21.3333"/>
<circle fill="#006363" stroke="#006363" stroke-width="0" cx="-366.581" cy="220.115" r="21.3333"/>
<polygon points="1002.1,228.41 1028.36,262.037 854.453,397.862 828.19,364.236" style="fill:#006363; stroke:#000000;stroke-width:0"/>
<circle fill="#006363" stroke="#006363" stroke-width="0" cx="1015.23" cy="245.224" r="21.3333"/>
<circle fill="#006363" stroke="#006363" stroke-width="0" cx="841.322" cy="381.049" r="21.3333"/>
<polygon points="1256,469.333 256,1469.33 -744,469.333" style="fill:#000000; stroke:#000000;stroke-width:0"/>
<polygon points="-744,42.6667 256,-957.333 1256,42.6667" style="fill:#000000; stroke:#000000;stroke-width:0"/>
<circle fill="#a64b00" stroke="#a64b00" stroke-width="0" cx="-305.134" cy="430.819" r="21.3333"/>
<circle fill="#a64b00" stroke="#a64b00" stroke-width="0" cx="-366.581" cy="220.115" r="21.3333"/>
<circle fill="#a64b00" stroke="#a64b00" stroke-width="0" cx="1015.23" cy="245.224" r="21.3333"/>
<circle fill="#a64b00" stroke="#a64b00" stroke-width="0" cx="841.322" cy="381.049" r="21.3333"/>
<circle fill="#a64b00" stroke="#a64b00" stroke-width="0" cx="844.401" cy="177.788" r="21.3333"/>
</svg>
