<?xml version="1.0" encoding="utf-8"?> <!-- Generator: Adobe Illustrator 13.0.0, SVG Export Plug-In . SVG Version: 6.00 Build 14948)  --> <svg version="1.2" baseProfile="tiny" id="Layer_1" xmlns="http://www.w3.org/2000/svg" xmlns:xlink="http://www.w3.org/1999/xlink" x="0px" y="0px" width="512px" height="512px" viewBox="0 0 512 512" xml:space="preserve">
<polygon points="0,0 512,0 512,512 0,512" style="fill:#ffffff; stroke:#000000;stroke-width:0"/>
<polygon points="2.42208,81.3139 44.974,78.187 60.8202,293.825 18.2683,296.952" style="fill:#006363; stroke:#000000;stroke-width:0"/>
<circle fill="#006363" stroke="#006363" stroke-width="0" cx="23.698" cy="79.7505" r="21.3333"/>
<circle fill="#006363" stroke="#006363" stroke-width="0" cx="39.5443" cy="295.388" r="21.3333"/>
<polygon points="458.356,237.172 500.896,233.892 517.293,446.54 474.753,449.82" style="fill:#006363; stroke:#000000;stroke-width:0"/>
<circle fill="#006363" stroke="#006363" stroke-width="0" cx="479.626" cy="235.532" r="21.3333"/>
<circle fill="#006363" stroke="#006363" stroke-width="0" cx="496.023" cy="448.18" r="21.3333"/>
<polygon points="1256,469.333 256,1469.33 -744,469.333" style="fill:#000000; stroke:#000000;stroke-width:0"/>
<polygon points="-744,42.6667 256,-957.333 1256,42.6667" style="fill:#000000; stroke:#000000;stroke-width:0"/>
<circle fill="#a64b00" stroke="#a64b00" stroke-width="0" cx="23.698" cy="79.7505" r="21.3333"/>
<circle fill="#a64b00" stroke="#a64b00" stroke-width="0" cx="39.5443" cy="295.388" r="21.3333"/>
<circle fill="#a64b00" stroke="#a64b00" stroke-width="0" cx="479.626" cy="235.532" r="21.3333"/>
<circle fill="#a64b00" stroke="#a64b00" stroke-width="0" cx="496.023" cy="448.18" r="21.3333"/>
<circle fill="#a64b00" stroke="#a64b00" stroke-width="0" cx="238.895" cy="342.218" r="21.3333"/>
</svg>
