<?xml version="1.0" encoding="utf-8"?> <!-- Generator: Adobe Illustrator 13.0.0, SVG Export Plug-In . SVG Version: 6.00 Build 14948)  --> <svg version="1.2" baseProfile="tiny" id="Layer_1" xmlns="http://www.w3.org/2000/svg" xmlns:xlink="http://www.w3.org/1999/xlink" x="0px" y="0px" width="512px" height="512px" viewBox="0 0 512 512" xml:space="preserve">
<polygon points="0,0 512,0 512,512 0,512" style="fill:#ffffff; stroke:#000000;stroke-width:0"/>
<polygon points="-106.152,126.92 -109.696,169.439 -327.209,151.309 -323.665,108.79" style="fill:#006363; stroke:#000000;stroke-width:0"/>
<circle fill="#006363" stroke="#006363" stroke-width="0" cx="-107.924" cy="148.179" r="21.3333"/>
<circle fill="#006363" stroke="#006363" stroke-width="0" cx="-325.437" cy="130.05" r="21.3333"/>
<polygon points="753.392,397.343 717.168,374.799 826.98,198.344 863.205,220.888" style="fill:#006363; stroke:#000000;stroke-width:0"/>
<circle fill="#006363" stroke="#006363" stroke-width="0" cx="735.28" cy="386.071" r="21.3333"/>
<circle fill="#006363" stroke="#006363" stroke-width="0" cx="845.092" cy="209.616" r="21.3333"/>
<polygon points="1256,469.333 256,1469.33 -744,469.333" style="fill:#000000; stroke:#000000;stroke-width:0"/>
<polygon points="-744,42.6667 256,-957.333 1256,42.6667" style="fill:#000000; stroke:#000000;stroke-width:0"/>
<circle fill="#a64b00" stroke="#a64b00" stroke-width="0" cx="-107.924" cy="148.179" r="21.3333"/>
<circle fill="#a64b00" stroke="#a64b00" stroke-width="0" cx="-325.437" cy="130.05" r="21.3333"/>
<circle fill="#a64b00" stroke="#a64b00" stroke-width="0" cx="735.28" cy="386.071" r="21.3333"/>
<circle fill="#a64b00" stroke="#a64b00" stroke-width="0" cx="845.092" cy="209.616" r="21.3333"/>
<circle fill="#a64b00" stroke="#a64b00" stroke-width="0" cx="29.5559" cy="87.2932" r="21.3333"/>
</svg>
