<?xml version="1.0" encoding="utf-8"?> <!-- Generator: Adobe Illustrator 13.0.0, SVG Export Plug-In . SVG Version: 6.00 Build 14948)  --> <svg version="1.2" baseProfile="tiny" id="Layer_1" xmlns="http://www.w3.org/2000/svg" xmlns:xlink="http://www.w3.org/1999/xlink" x="0px" y="0px" width="512px" height="512px" viewBox="0 0 512 512" xml:space="preserve">
<polygon points="0,0 512,0 512,512 0,512" style="fill:#ffffff; stroke:#000000;stroke-width:0"/>
<polygon points="-230.717,184.492 -199.332,155.588 -52.0646,315.501 -83.4498,344.404" style="fill:#006363; stroke:#000000;stroke-width:0"/>
<circle fill="#006363" stroke="#006363" stroke-width="0" cx="-215.025" cy="170.04" r="21.3333"/>
<circle fill="#006363" stroke="#006363" stroke-width="0" cx="-67.7572" cy="329.953" r="21.3333"/>
<polygon points="616.947,418.157 595.345,381.362 780.521,272.648 802.122,309.442" style="fill:#006363; stroke:#000000;stroke-width:0"/>
<circle fill="#006363" stroke="#006363" stroke-width="0" cx="606.146" cy="399.76" r="21.3333"/>
<circle fill="#006363" stroke="#006363" stroke-width="0" cx="791.322" cy="291.045" r="21.3333"/>
<polygon points="1256,469.333 256,1469.33 -744,469.333" style="fill:#000000; stroke:#000000;stroke-width:0"/>
<polygon points="-744,42.6667 256,-957.333 1256,42.6667" style="fill:#000000; stroke:#000000;stroke-width:0"/>
<circle fill="#a64b00" stroke="#a64b00" stroke-width="0" cx="-215.025" cy="170.04" r="21.3333"/>
<circle fill="#a64b00" stroke="#a64b00" stroke-width="0" cx="-67.7572" cy="329.953" r="21.3333"/>
<circle fill="#a64b00" stroke="#a64b00" stroke-width="0" cx="606.146" cy="399.76" r="21.3333"/>
<circle fill="#a64b00" stroke="#a64b00" stroke-width="0" cx="791.322" cy="291.045" r="21.3333"/>
<circle fill="#a64b00" stroke="#a64b00" stroke-width="0" cx="200.763" cy="421.212" r="21.3333"/>
</svg>
