<?xml version="1.0" encoding="utf-8"?> <!-- Generator: Adobe Illustrator 13.0.0, SVG Export Plug-In . SVG Version: 6.00 Build 14948)  --> <svg version="1.2" baseProfile="tiny" id="Layer_1" xmlns="http://www.w3.org/2000/svg" xmlns:xlink="http://www.w3.org/1999/xlink" x="0px" y="0px" width="512px" height="512px" viewBox="0 0 512 512" xml:space="preserve">
<polygon points="0,0 512,0 512,512 0,512" style="fill:#ffffff; stroke:#000000;stroke-width:0"/>
<polygon points="-144.145,125.747 -129.15,85.8023 71.2295,161.025 56.2342,200.97" style="fill:#006363; stroke:#000000;stroke-width:0"/>
<circle fill="#006363" stroke="#006363" stroke-width="0" cx="-136.647" cy="105.775" r="21.3333"/>
<circle fill="#006363" stroke="#006363" stroke-width="0" cx="63.7319" cy="180.997" r="21.3333"/>
<polygon points="575.976,318.356 533.812,311.827 566.572,100.282 608.736,106.811" style="fill:#006363; stroke:#000000;stroke-width:0"/>
<circle fill="#006363" stroke="#006363" stroke-width="0" cx="554.894" cy="315.091" r="21.3333"/>
<circle fill="#006363" stroke="#006363" stroke-width="0" cx="587.654" cy="103.546" r="21.3333"/>
<polygon points="1256,469.333 256,1469.33 -744,469.333" style="fill:#000000; stroke:#000000;stroke-width:0"/>
<polygon points="-744,42.6667 256,-957.333 1256,42.6667" style="fill:#000000; stroke:#000000;stroke-width:0"/>
<circle fill="#a64b00" stroke="#a64b00" stroke-width="0" cx="-136.647" cy="105.775" r="21.3333"/>
<circle fill="#a64b00" stroke="#a64b00" stroke-width="0" cx="63.7319" cy="180.997" r="21.3333"/>
<circle fill="#a64b00" stroke="#a64b00" stroke-width="0" cx="554.894" cy="315.091" r="21.3333"/>
<circle fill="#a64b00" stroke="#a64b00" stroke-width="0" cx="587.654" cy="103.546" r="21.3333"/>
<circle fill="#a64b00" stroke="#a64b00" stroke-width="0" cx="439.38" cy="383.049" r="21.3333"/>
</svg>
