<?xml version="1.0" encoding="utf-8"?> <!-- Generator: Adobe Illustrator 13.0.0, SVG Export Plug-In . SVG Version: 6.00 Build 14948)  --> <svg version="1.2" baseProfile="tiny" id="Layer_1" xmlns="http://www.w3.org/2000/svg" xmlns:xlink="http://www.w3.org/1999/xlink" x="0px" y="0px" width="512px" height="512px" viewBox="0 0 512 512" xml:space="preserve">
<polygon points="0,0 512,0 512,512 0,512" style="fill:#ffffff; stroke:#000000;stroke-width:0"/>
<polygon points="-141.17,143.926 -119.365,107.252 59.8596,213.812 38.0545,250.486" style="fill:#006363; stroke:#000000;stroke-width:0"/>
<circle fill="#006363" stroke="#006363" stroke-width="0" cx="-130.267" cy="125.589" r="21.3333"/>
<circle fill="#006363" stroke="#006363" stroke-width="0" cx="48.957" cy="232.149" r="21.3333"/>
<polygon points="604.216,318.805 561.631,321.452 548.53,110.72 591.114,108.072" style="fill:#006363; stroke:#000000;stroke-width:0"/>
<circle fill="#006363" stroke="#006363" stroke-width="0" cx="582.924" cy="320.128" r="21.3333"/>
<circle fill="#006363" stroke="#006363" stroke-width="0" cx="569.822" cy="109.396" r="21.3333"/>
<polygon points="1256,469.333 256,1469.33 -744,469.333" style="fill:#000000; stroke:#000000;stroke-width:0"/>
<polygon points="-744,42.6667 256,-957.333 1256,42.6667" style="fill:#000000; stroke:#000000;stroke-width:0"/>
<circle fill="#a64b00" stroke="#a64b00" stroke-width="0" cx="-130.267" cy="125.589" r="21.3333"/>
<circle fill="#a64b00" stroke="#a64b00" stroke-width="0" cx="48.957" cy="232.149" r="21.3333"/>
<circle fill="#a64b00" stroke="#a64b00" stroke-width="0" cx="582.924" cy="320.128" r="21.3333"/>
<circle fill="#a64b00" stroke="#a64b00" stroke-width="0" cx="569.822" cy="109.396" r="21.3333"/>
<circle fill="#a64b00" stroke="#a64b00" stroke-width="0" cx="429.836" cy="230.401" r="21.3333"/>
</svg>
