<?xml version="1.0" encoding="utf-8"?> <!-- Generator: Adobe Illustrator 13.0.0, SVG Export Plug-In . SVG Version: 6.00 Build 14948)  --> <svg version="1.2" baseProfile="tiny" id="Layer_1" xmlns="http://www.w3.org/2000/svg" xmlns:xlink="http://www.w3.org/1999/xlink" x="0px" y="0px" width="512px" height="512px" viewBox="0 0 512 512" xml:space="preserve">
<polygon points="0,0 512,0 512,512 0,512" style="fill:#ffffff; stroke:#000000;stroke-width:0"/>
<polygon points="-205.847,352.858 -195.453,311.477 8.5855,362.727 -1.80867,404.108" style="fill:#006363; stroke:#000000;stroke-width:0"/>
<circle fill="#006363" stroke="#006363" stroke-width="0" cx="-200.65" cy="332.167" r="21.3333"/>
<circle fill="#006363" stroke="#006363" stroke-width="0" cx="3.38841" cy="383.418" r="21.3333"/>
<polygon points="636.178,180.18 678.639,184.365 657.41,399.717 614.949,395.531" style="fill:#006363; stroke:#000000;stroke-width:0"/>
<circle fill="#006363" stroke="#006363" stroke-width="0" cx="657.409" cy="182.272" r="21.3333"/>
<circle fill="#006363" stroke="#006363" stroke-width="0" cx="636.18" cy="397.624" r="21.3333"/>
<polygon points="1256,469.333 256,1469.33 -744,469.333" style="fill:#000000; stroke:#000000;stroke-width:0"/>
<polygon points="-744,42.6667 256,-957.333 1256,42.6667" style="fill:#000000; stroke:#000000;stroke-width:0"/>
<circle fill="#a64b00" stroke="#a64b00" stroke-width="0" cx="-200.65" cy="332.167" r="21.3333"/>
<circle fill="#a64b00" stroke="#a64b00" stroke-width="0" cx="3.38841" cy="383.418" r="21.3333"/>
<circle fill="#a64b00" stroke="#a64b00" stroke-width="0" cx="657.409" cy="182.272" r="21.3333"/>
<circle fill="#a64b00" stroke="#a64b00" stroke-width="0" cx="636.18" cy="397.624" r="21.3333"/>
<circle fill="#a64b00" stroke="#a64b00" stroke-width="0" cx="298" cy="430.752" r="21.3333"/>
</svg>
