<?xml version="1.0" encoding="utf-8"?> <!-- Generator: Adobe Illustrator 13.0.0, SVG Export Plug-In . SVG Version: 6.00 Build 14948)  --> <svg version="1.2" baseProfile="tiny" id="Layer_1" xmlns="http://www.w3.org/2000/svg" xmlns:xlink="http://www.w3.org/1999/xlink" x="0px" y="0px" width="512px" height="512px" viewBox="0 0 512 512" xml:space="preserve">
<polygon points="0,0 512,0 512,512 0,512" style="fill:#ffffff; stroke:#000000;stroke-width:0"/>
<polygon points="-108.309,115.147 -113.313,157.519 -319.806,133.134 -314.802,90.762" style="fill:#006363; stroke:#000000;stroke-width:0"/>
<circle fill="#006363" stroke="#006363" stroke-width="0" cx="-110.811" cy="136.333" r="21.3333"/>
<circle fill="#006363" stroke="#006363" stroke-width="0" cx="-317.304" cy="111.948" r="21.3333"/>
<polygon points="751.203,391.352 714.452,369.677 822.796,185.973 859.547,207.648" style="fill:#006363; stroke:#000000;stroke-width:0"/>
<circle fill="#006363" stroke="#006363" stroke-width="0" cx="732.827" cy="380.515" r="21.3333"/>
<circle fill="#006363" stroke="#006363" stroke-width="0" cx="841.172" cy="196.81" r="21.3333"/>
<polygon points="1256,469.333 256,1469.33 -744,469.333" style="fill:#000000; stroke:#000000;stroke-width:0"/>
<polygon points="-744,42.6667 256,-957.333 1256,42.6667" style="fill:#000000; stroke:#000000;stroke-width:0"/>
<circle fill="#a64b00" stroke="#a64b00" stroke-width="0" cx="-110.811" cy="136.333" r="21.3333"/>
<circle fill="#a64b00" stroke="#a64b00" stroke-width="0" cx="-317.304" cy="111.948" r="21.3333"/>
<circle fill="#a64b00" stroke="#a64b00" stroke-width="0" cx="732.827" cy="380.515" r="21.3333"/>
<circle fill="#a64b00" stroke="#a64b00" stroke-width="0" cx="841.172" cy="196.81" r="21.3333"/>
<circle fill="#a64b00" stroke="#a64b00" stroke-width="0" cx="35.5213" cy="182.698" r="21.3333"/>
</svg>
