<?xml version="1.0" encoding="utf-8"?> <!-- Generator: Adobe Illustrator 13.0.0, SVG Export Plug-In . SVG Version: 6.00 Build 14948)  --> <svg version="1.2" baseProfile="tiny" id="Layer_1" xmlns="http://www.w3.org/2000/svg" xmlns:xlink="http://www.w3.org/1999/xlink" x="0px" y="0px" width="512px" height="512px" viewBox="0 0 512 512" xml:space="preserve">
<polygon points="0,0 512,0 512,512 0,512" style="fill:#ffffff; stroke:#000000;stroke-width:0"/>
<polygon points="-110.292,112.622 -115.613,154.955 -316.773,129.67 -311.452,87.3364" style="fill:#006363; stroke:#000000;stroke-width:0"/>
<circle fill="#006363" stroke="#006363" stroke-width="0" cx="-112.953" cy="133.788" r="21.3333"/>
<circle fill="#006363" stroke="#006363" stroke-width="0" cx="-314.112" cy="108.503" r="21.3333"/>
<polygon points="749.335,392.592 712.485,371.086 823.39,181.06 860.24,202.567" style="fill:#006363; stroke:#000000;stroke-width:0"/>
<circle fill="#006363" stroke="#006363" stroke-width="0" cx="730.91" cy="381.839" r="21.3333"/>
<circle fill="#006363" stroke="#006363" stroke-width="0" cx="841.815" cy="191.814" r="21.3333"/>
<polygon points="1256,469.333 256,1469.33 -744,469.333" style="fill:#000000; stroke:#000000;stroke-width:0"/>
<polygon points="-744,42.6667 256,-957.333 1256,42.6667" style="fill:#000000; stroke:#000000;stroke-width:0"/>
<circle fill="#a64b00" stroke="#a64b00" stroke-width="0" cx="-112.953" cy="133.788" r="21.3333"/>
<circle fill="#a64b00" stroke="#a64b00" stroke-width="0" cx="-314.112" cy="108.503" r="21.3333"/>
<circle fill="#a64b00" stroke="#a64b00" stroke-width="0" cx="730.91" cy="381.839" r="21.3333"/>
<circle fill="#a64b00" stroke="#a64b00" stroke-width="0" cx="841.815" cy="191.814" r="21.3333"/>
<circle fill="#a64b00" stroke="#a64b00" stroke-width="0" cx="36.7144" cy="201.779" r="21.3333"/>
</svg>
