<?xml version="1.0" encoding="utf-8"?> <!-- Generator: Adobe Illustrator 13.0.0, SVG Export Plug-In . SVG Version: 6.00 Build 14948)  --> <svg version="1.2" baseProfile="tiny" id="Layer_1" xmlns="http://www.w3.org/2000/svg" xmlns:xlink="http://www.w3.org/1999/xlink" x="0px" y="0px" width="512px" height="512px" viewBox="0 0 512 512" xml:space="preserve">
<polygon points="0,0 512,0 512,512 0,512" style="fill:#ffffff; stroke:#000000;stroke-width:0"/>
<polygon points="-376.756,324.114 -407.584,294.617 -262.429,142.905 -231.601,172.402" style="fill:#006363; stroke:#000000;stroke-width:0"/>
<circle fill="#006363" stroke="#006363" stroke-width="0" cx="-392.17" cy="309.365" r="21.3333"/>
<circle fill="#006363" stroke="#006363" stroke-width="0" cx="-247.015" cy="157.654" r="21.3333"/>
<polygon points="937.688,212.808 976.372,230.808 884.858,427.485 846.174,409.485" style="fill:#006363; stroke:#000000;stroke-width:0"/>
<circle fill="#006363" stroke="#006363" stroke-width="0" cx="957.03" cy="221.808" r="21.3333"/>
<circle fill="#006363" stroke="#006363" stroke-width="0" cx="865.516" cy="418.485" r="21.3333"/>
<polygon points="1256,469.333 256,1469.33 -744,469.333" style="fill:#000000; stroke:#000000;stroke-width:0"/>
<polygon points="-744,42.6667 256,-957.333 1256,42.6667" style="fill:#000000; stroke:#000000;stroke-width:0"/>
<circle fill="#a64b00" stroke="#a64b00" stroke-width="0" cx="-392.17" cy="309.365" r="21.3333"/>
<circle fill="#a64b00" stroke="#a64b00" stroke-width="0" cx="-247.015" cy="157.654" r="21.3333"/>
<circle fill="#a64b00" stroke="#a64b00" stroke-width="0" cx="957.03" cy="221.808" r="21.3333"/>
<circle fill="#a64b00" stroke="#a64b00" stroke-width="0" cx="865.516" cy="418.485" r="21.3333"/>
<circle fill="#a64b00" stroke="#a64b00" stroke-width="0" cx="447.937" cy="239.327" r="21.3333"/>
</svg>
