<?xml version="1.0" encoding="utf-8"?> <!-- Generator: Adobe Illustrator 13.0.0, SVG Export Plug-In . SVG Version: 6.00 Build 14948)  --> <svg version="1.2" baseProfile="tiny" id="Layer_1" xmlns="http://www.w3.org/2000/svg" xmlns:xlink="http://www.w3.org/1999/xlink" x="0px" y="0px" width="512px" height="512px" viewBox="0 0 512 512" xml:space="preserve">
<polygon points="0,0 512,0 512,512 0,512" style="fill:#ffffff; stroke:#000000;stroke-width:0"/>
<polygon points="-197.125,424.862 -214.893,386.071 -15.8766,294.913 1.89132,333.704" style="fill:#006363; stroke:#000000;stroke-width:0"/>
<circle fill="#006363" stroke="#006363" stroke-width="0" cx="-206.009" cy="405.467" r="21.3333"/>
<circle fill="#006363" stroke="#006363" stroke-width="0" cx="-6.99264" cy="314.309" r="21.3333"/>
<polygon points="604.278,206.392 644.953,193.509 708.429,393.917 667.754,406.801" style="fill:#006363; stroke:#000000;stroke-width:0"/>
<circle fill="#006363" stroke="#006363" stroke-width="0" cx="624.615" cy="199.95" r="21.3333"/>
<circle fill="#006363" stroke="#006363" stroke-width="0" cx="688.092" cy="400.359" r="21.3333"/>
<polygon points="1256,469.333 256,1469.33 -744,469.333" style="fill:#000000; stroke:#000000;stroke-width:0"/>
<polygon points="-744,42.6667 256,-957.333 1256,42.6667" style="fill:#000000; stroke:#000000;stroke-width:0"/>
<circle fill="#a64b00" stroke="#a64b00" stroke-width="0" cx="-206.009" cy="405.467" r="21.3333"/>
<circle fill="#a64b00" stroke="#a64b00" stroke-width="0" cx="-6.99264" cy="314.309" r="21.3333"/>
<circle fill="#a64b00" stroke="#a64b00" stroke-width="0" cx="624.615" cy="199.95" r="21.3333"/>
<circle fill="#a64b00" stroke="#a64b00" stroke-width="0" cx="688.092" cy="400.359" r="21.3333"/>
<circle fill="#a64b00" stroke="#a64b00" stroke-width="0" cx="280.103" cy="182.698" r="21.3333"/>
</svg>
