<?xml version="1.0" encoding="utf-8"?> <!-- Generator: Adobe Illustrator 13.0.0, SVG Export Plug-In . SVG Version: 6.00 Build 14948)  --> <svg version="1.2" baseProfile="tiny" id="Layer_1" xmlns="http://www.w3.org/2000/svg" xmlns:xlink="http://www.w3.org/1999/xlink" x="0px" y="0px" width="512px" height="512px" viewBox="0 0 512 512" xml:space="preserve">
<polygon points="0,0 512,0 512,512 0,512" style="fill:#ffffff; stroke:#000000;stroke-width:0"/>
<polygon points="-21.6543,168.126 20.3706,160.753 56.001,363.852 13.9762,371.225" style="fill:#006363; stroke:#000000;stroke-width:0"/>
<circle fill="#006363" stroke="#006363" stroke-width="0" cx="-0.641818" cy="164.44" r="21.3333"/>
<circle fill="#006363" stroke="#006363" stroke-width="0" cx="34.9886" cy="367.538" r="21.3333"/>
<polygon points="449.596,140.339 489.799,126.049 561.389,327.462 521.186,341.752" style="fill:#006363; stroke:#000000;stroke-width:0"/>
<circle fill="#006363" stroke="#006363" stroke-width="0" cx="469.697" cy="133.194" r="21.3333"/>
<circle fill="#006363" stroke="#006363" stroke-width="0" cx="541.287" cy="334.607" r="21.3333"/>
<polygon points="1256,469.333 256,1469.33 -744,469.333" style="fill:#000000; stroke:#000000;stroke-width:0"/>
<polygon points="-744,42.6667 256,-957.333 1256,42.6667" style="fill:#000000; stroke:#000000;stroke-width:0"/>
<circle fill="#a64b00" stroke="#a64b00" stroke-width="0" cx="-0.641818" cy="164.44" r="21.3333"/>
<circle fill="#a64b00" stroke="#a64b00" stroke-width="0" cx="34.9886" cy="367.538" r="21.3333"/>
<circle fill="#a64b00" stroke="#a64b00" stroke-width="0" cx="469.697" cy="133.194" r="21.3333"/>
<circle fill="#a64b00" stroke="#a64b00" stroke-width="0" cx="541.287" cy="334.607" r="21.3333"/>
<circle fill="#a64b00" stroke="#a64b00" stroke-width="0" cx="362.861" cy="118.61" r="21.3333"/>
</svg>
