<?xml version="1.0" encoding="utf-8"?> <!-- Generator: Adobe Illustrator 13.0.0, SVG Export Plug-In . SVG Version: 6.00 Build 14948)  --> <svg version="1.2" baseProfile="tiny" id="Layer_1" xmlns="http://www.w3.org/2000/svg" xmlns:xlink="http://www.w3.org/1999/xlink" x="0px" y="0px" width="512px" height="512px" viewBox="0 0 512 512" xml:space="preserve">
<polygon points="0,0 512,0 512,512 0,512" style="fill:#ffffff; stroke:#000000;stroke-width:0"/>
<polygon points="-218.262,350.117 -257.327,367.273 -341.019,176.703 -301.954,159.547" style="fill:#006363; stroke:#000000;stroke-width:0"/>
<circle fill="#006363" stroke="#006363" stroke-width="0" cx="-237.795" cy="358.695" r="21.3333"/>
<circle fill="#006363" stroke="#006363" stroke-width="0" cx="-321.486" cy="168.125" r="21.3333"/>
<polygon points="768.773,286.69 796.32,254.108 964.551,396.34 937.004,428.923" style="fill:#006363; stroke:#000000;stroke-width:0"/>
<circle fill="#006363" stroke="#006363" stroke-width="0" cx="782.547" cy="270.399" r="21.3333"/>
<circle fill="#006363" stroke="#006363" stroke-width="0" cx="950.777" cy="412.631" r="21.3333"/>
<polygon points="1256,469.333 256,1469.33 -744,469.333" style="fill:#000000; stroke:#000000;stroke-width:0"/>
<polygon points="-744,42.6667 256,-957.333 1256,42.6667" style="fill:#000000; stroke:#000000;stroke-width:0"/>
<circle fill="#a64b00" stroke="#a64b00" stroke-width="0" cx="-237.795" cy="358.695" r="21.3333"/>
<circle fill="#a64b00" stroke="#a64b00" stroke-width="0" cx="-321.486" cy="168.125" r="21.3333"/>
<circle fill="#a64b00" stroke="#a64b00" stroke-width="0" cx="782.547" cy="270.399" r="21.3333"/>
<circle fill="#a64b00" stroke="#a64b00" stroke-width="0" cx="950.777" cy="412.631" r="21.3333"/>
<circle fill="#a64b00" stroke="#a64b00" stroke-width="0" cx="-113.614" cy="144.536" r="21.3333"/>
</svg>
