<?xml version="1.0" encoding="utf-8"?> <!-- Generator: Adobe Illustrator 13.0.0, SVG Export Plug-In . SVG Version: 6.00 Build 14948)  --> <svg version="1.2" baseProfile="tiny" id="Layer_1" xmlns="http://www.w3.org/2000/svg" xmlns:xlink="http://www.w3.org/1999/xlink" x="0px" y="0px" width="512px" height="512px" viewBox="0 0 512 512" xml:space="preserve">
<polygon points="0,0 512,0 512,512 0,512" style="fill:#ffffff; stroke:#000000;stroke-width:0"/>
<polygon points="-12.6725,132.572 29.6083,126.846 58.2565,338.413 15.9757,344.139" style="fill:#006363; stroke:#000000;stroke-width:0"/>
<circle fill="#006363" stroke="#006363" stroke-width="0" cx="8.46787" cy="129.709" r="21.3333"/>
<circle fill="#006363" stroke="#006363" stroke-width="0" cx="37.1161" cy="341.276" r="21.3333"/>
<polygon points="452.713,179.677 494.252,169.932 543.373,379.33 501.834,389.074" style="fill:#006363; stroke:#000000;stroke-width:0"/>
<circle fill="#006363" stroke="#006363" stroke-width="0" cx="473.483" cy="174.805" r="21.3333"/>
<circle fill="#006363" stroke="#006363" stroke-width="0" cx="522.603" cy="384.202" r="21.3333"/>
<polygon points="1256,469.333 256,1469.33 -744,469.333" style="fill:#000000; stroke:#000000;stroke-width:0"/>
<polygon points="-744,42.6667 256,-957.333 1256,42.6667" style="fill:#000000; stroke:#000000;stroke-width:0"/>
<circle fill="#a64b00" stroke="#a64b00" stroke-width="0" cx="8.46787" cy="129.709" r="21.3333"/>
<circle fill="#a64b00" stroke="#a64b00" stroke-width="0" cx="37.1161" cy="341.276" r="21.3333"/>
<circle fill="#a64b00" stroke="#a64b00" stroke-width="0" cx="473.483" cy="174.805" r="21.3333"/>
<circle fill="#a64b00" stroke="#a64b00" stroke-width="0" cx="522.603" cy="384.202" r="21.3333"/>
<circle fill="#a64b00" stroke="#a64b00" stroke-width="0" cx="430.328" cy="335.904" r="21.3333"/>
</svg>
