<?xml version="1.0" encoding="utf-8"?> <!-- Generator: Adobe Illustrator 13.0.0, SVG Export Plug-In . SVG Version: 6.00 Build 14948)  --> <svg version="1.2" baseProfile="tiny" id="Layer_1" xmlns="http://www.w3.org/2000/svg" xmlns:xlink="http://www.w3.org/1999/xlink" x="0px" y="0px" width="512px" height="512px" viewBox="0 0 512 512" xml:space="preserve">
<polygon points="0,0 512,0 512,512 0,512" style="fill:#ffffff; stroke:#000000;stroke-width:0"/>
<polygon points="-412.274,156.686 -415.249,114.123 -203.948,99.3579 -200.974,141.921" style="fill:#006363; stroke:#000000;stroke-width:0"/>
<circle fill="#006363" stroke="#006363" stroke-width="0" cx="-413.762" cy="135.404" r="21.3333"/>
<circle fill="#006363" stroke="#006363" stroke-width="0" cx="-202.461" cy="120.639" r="21.3333"/>
<polygon points="889.658,213.673 932.109,217.957 909.945,437.609 867.494,433.325" style="fill:#006363; stroke:#000000;stroke-width:0"/>
<circle fill="#006363" stroke="#006363" stroke-width="0" cx="910.884" cy="215.815" r="21.3333"/>
<circle fill="#006363" stroke="#006363" stroke-width="0" cx="888.719" cy="435.467" r="21.3333"/>
<polygon points="1256,469.333 256,1469.33 -744,469.333" style="fill:#000000; stroke:#000000;stroke-width:0"/>
<polygon points="-744,42.6667 256,-957.333 1256,42.6667" style="fill:#000000; stroke:#000000;stroke-width:0"/>
<circle fill="#a64b00" stroke="#a64b00" stroke-width="0" cx="-413.762" cy="135.404" r="21.3333"/>
<circle fill="#a64b00" stroke="#a64b00" stroke-width="0" cx="-202.461" cy="120.639" r="21.3333"/>
<circle fill="#a64b00" stroke="#a64b00" stroke-width="0" cx="910.884" cy="215.815" r="21.3333"/>
<circle fill="#a64b00" stroke="#a64b00" stroke-width="0" cx="888.719" cy="435.467" r="21.3333"/>
<circle fill="#a64b00" stroke="#a64b00" stroke-width="0" cx="62.0017" cy="173.434" r="21.3333"/>
</svg>
