<?xml version="1.0" encoding="utf-8"?> <!-- Generator: Adobe Illustrator 13.0.0, SVG Export Plug-In . SVG Version: 6.00 Build 14948)  --> <svg version="1.2" baseProfile="tiny" id="Layer_1" xmlns="http://www.w3.org/2000/svg" xmlns:xlink="http://www.w3.org/1999/xlink" x="0px" y="0px" width="512px" height="512px" viewBox="0 0 512 512" xml:space="preserve">
<polygon points="0,0 512,0 512,512 0,512" style="fill:#ffffff; stroke:#000000;stroke-width:0"/>
<polygon points="-66.5707,308.088 -51.0108,347.816 -247.167,424.643 -262.727,384.914" style="fill:#006363; stroke:#000000;stroke-width:0"/>
<circle fill="#006363" stroke="#006363" stroke-width="0" cx="-58.7908" cy="327.952" r="21.3333"/>
<circle fill="#006363" stroke="#006363" stroke-width="0" cx="-254.947" cy="404.778" r="21.3333"/>
<polygon points="685.221,421.714 647.632,401.525 749.848,211.212 787.436,231.4" style="fill:#006363; stroke:#000000;stroke-width:0"/>
<circle fill="#006363" stroke="#006363" stroke-width="0" cx="666.427" cy="411.62" r="21.3333"/>
<circle fill="#006363" stroke="#006363" stroke-width="0" cx="768.642" cy="221.306" r="21.3333"/>
<polygon points="1256,469.333 256,1469.33 -744,469.333" style="fill:#000000; stroke:#000000;stroke-width:0"/>
<polygon points="-744,42.6667 256,-957.333 1256,42.6667" style="fill:#000000; stroke:#000000;stroke-width:0"/>
<circle fill="#a64b00" stroke="#a64b00" stroke-width="0" cx="-58.7908" cy="327.952" r="21.3333"/>
<circle fill="#a64b00" stroke="#a64b00" stroke-width="0" cx="-254.947" cy="404.778" r="21.3333"/>
<circle fill="#a64b00" stroke="#a64b00" stroke-width="0" cx="666.427" cy="411.62" r="21.3333"/>
<circle fill="#a64b00" stroke="#a64b00" stroke-width="0" cx="768.642" cy="221.306" r="21.3333"/>
<circle fill="#a64b00" stroke="#a64b00" stroke-width="0" cx="165.567" cy="201.779" r="21.3333"/>
</svg>
