<?xml version="1.0" encoding="utf-8"?> <!-- Generator: Adobe Illustrator 13.0.0, SVG Export Plug-In . SVG Version: 6.00 Build 14948)  --> <svg version="1.2" baseProfile="tiny" id="Layer_1" xmlns="http://www.w3.org/2000/svg" xmlns:xlink="http://www.w3.org/1999/xlink" x="0px" y="0px" width="512px" height="512px" viewBox="0 0 512 512" xml:space="preserve">
<polygon points="0,0 512,0 512,512 0,512" style="fill:#ffffff; stroke:#000000;stroke-width:0"/>
<polygon points="-93.4176,54.0263 -86.2202,96.0815 -304.791,133.488 -311.988,91.4328" style="fill:#006363; stroke:#000000;stroke-width:0"/>
<circle fill="#006363" stroke="#006363" stroke-width="0" cx="-89.8189" cy="75.0539" r="21.3333"/>
<circle fill="#006363" stroke="#006363" stroke-width="0" cx="-308.39" cy="112.46" r="21.3333"/>
<polygon points="747.602,341.873 708.271,325.336 790.071,130.79 829.402,147.328" style="fill:#006363; stroke:#000000;stroke-width:0"/>
<circle fill="#006363" stroke="#006363" stroke-width="0" cx="727.937" cy="333.604" r="21.3333"/>
<circle fill="#006363" stroke="#006363" stroke-width="0" cx="809.737" cy="139.059" r="21.3333"/>
<polygon points="1256,469.333 256,1469.33 -744,469.333" style="fill:#000000; stroke:#000000;stroke-width:0"/>
<polygon points="-744,42.6667 256,-957.333 1256,42.6667" style="fill:#000000; stroke:#000000;stroke-width:0"/>
<circle fill="#a64b00" stroke="#a64b00" stroke-width="0" cx="-89.8189" cy="75.0539" r="21.3333"/>
<circle fill="#a64b00" stroke="#a64b00" stroke-width="0" cx="-308.39" cy="112.46" r="21.3333"/>
<circle fill="#a64b00" stroke="#a64b00" stroke-width="0" cx="727.937" cy="333.604" r="21.3333"/>
<circle fill="#a64b00" stroke="#a64b00" stroke-width="0" cx="809.737" cy="139.059" r="21.3333"/>
<circle fill="#a64b00" stroke="#a64b00" stroke-width="0" cx="69.5242" cy="173.158" r="21.3333"/>
</svg>
