<?xml version="1.0" encoding="utf-8"?> <!-- Generator: Adobe Illustrator 13.0.0, SVG Export Plug-In . SVG Version: 6.00 Build 14948)  --> <svg version="1.2" baseProfile="tiny" id="Layer_1" xmlns="http://www.w3.org/2000/svg" xmlns:xlink="http://www.w3.org/1999/xlink" x="0px" y="0px" width="512px" height="512px" viewBox="0 0 512 512" xml:space="preserve">
<polygon points="0,0 512,0 512,512 0,512" style="fill:#ffffff; stroke:#000000;stroke-width:0"/>
<polygon points="-150.432,241.333 -111.418,224.061 -23.7437,422.109 -62.7583,439.381" style="fill:#006363; stroke:#000000;stroke-width:0"/>
<circle fill="#006363" stroke="#006363" stroke-width="0" cx="-130.925" cy="232.697" r="21.3333"/>
<circle fill="#006363" stroke="#006363" stroke-width="0" cx="-43.251" cy="430.745" r="21.3333"/>
<polygon points="685.426,177.961 718.286,205.177 580.121,371.997 547.261,344.782" style="fill:#006363; stroke:#000000;stroke-width:0"/>
<circle fill="#006363" stroke="#006363" stroke-width="0" cx="701.856" cy="191.569" r="21.3333"/>
<circle fill="#006363" stroke="#006363" stroke-width="0" cx="563.691" cy="358.389" r="21.3333"/>
<polygon points="1256,469.333 256,1469.33 -744,469.333" style="fill:#000000; stroke:#000000;stroke-width:0"/>
<polygon points="-744,42.6667 256,-957.333 1256,42.6667" style="fill:#000000; stroke:#000000;stroke-width:0"/>
<circle fill="#a64b00" stroke="#a64b00" stroke-width="0" cx="-130.925" cy="232.697" r="21.3333"/>
<circle fill="#a64b00" stroke="#a64b00" stroke-width="0" cx="-43.251" cy="430.745" r="21.3333"/>
<circle fill="#a64b00" stroke="#a64b00" stroke-width="0" cx="701.856" cy="191.569" r="21.3333"/>
<circle fill="#a64b00" stroke="#a64b00" stroke-width="0" cx="563.691" cy="358.389" r="21.3333"/>
<circle fill="#a64b00" stroke="#a64b00" stroke-width="0" cx="324.248" cy="106.374" r="21.3333"/>
</svg>
