<?xml version="1.0" encoding="utf-8"?> <!-- Generator: Adobe Illustrator 13.0.0, SVG Export Plug-In . SVG Version: 6.00 Build 14948)  --> <svg version="1.2" baseProfile="tiny" id="Layer_1" xmlns="http://www.w3.org/2000/svg" xmlns:xlink="http://www.w3.org/1999/xlink" x="0px" y="0px" width="512px" height="512px" viewBox="0 0 512 512" xml:space="preserve">
<polygon points="0,0 512,0 512,512 0,512" style="fill:#ffffff; stroke:#000000;stroke-width:0"/>
<polygon points="-113.639,223.013 -73.8417,207.629 0.848284,400.848 -38.9485,416.232" style="fill:#006363; stroke:#000000;stroke-width:0"/>
<circle fill="#006363" stroke="#006363" stroke-width="0" cx="-93.7401" cy="215.321" r="21.3333"/>
<circle fill="#006363" stroke="#006363" stroke-width="0" cx="-19.0501" cy="408.54" r="21.3333"/>
<polygon points="689.674,286.535 662.206,319.183 501.309,183.815 528.777,151.166" style="fill:#006363; stroke:#000000;stroke-width:0"/>
<circle fill="#006363" stroke="#006363" stroke-width="0" cx="675.94" cy="302.859" r="21.3333"/>
<circle fill="#006363" stroke="#006363" stroke-width="0" cx="515.043" cy="167.49" r="21.3333"/>
<polygon points="1256,469.333 256,1469.33 -744,469.333" style="fill:#000000; stroke:#000000;stroke-width:0"/>
<polygon points="-744,42.6667 256,-957.333 1256,42.6667" style="fill:#000000; stroke:#000000;stroke-width:0"/>
<circle fill="#a64b00" stroke="#a64b00" stroke-width="0" cx="-93.7401" cy="215.321" r="21.3333"/>
<circle fill="#a64b00" stroke="#a64b00" stroke-width="0" cx="-19.0501" cy="408.54" r="21.3333"/>
<circle fill="#a64b00" stroke="#a64b00" stroke-width="0" cx="675.94" cy="302.859" r="21.3333"/>
<circle fill="#a64b00" stroke="#a64b00" stroke-width="0" cx="515.043" cy="167.49" r="21.3333"/>
<circle fill="#a64b00" stroke="#a64b00" stroke-width="0" cx="394.043" cy="440.293" r="21.3333"/>
</svg>
