<?xml version="1.0" encoding="utf-8"?> <!-- Generator: Adobe Illustrator 13.0.0, SVG Export Plug-In . SVG Version: 6.00 Build 14948)  --> <svg version="1.2" baseProfile="tiny" id="Layer_1" xmlns="http://www.w3.org/2000/svg" xmlns:xlink="http://www.w3.org/1999/xlink" x="0px" y="0px" width="512px" height="512px" viewBox="0 0 512 512" xml:space="preserve">
<polygon points="0,0 512,0 512,512 0,512" style="fill:#ffffff; stroke:#000000;stroke-width:0"/>
<polygon points="-139.257,115.499 -129.273,74.0171 72.1124,122.483 62.1291,163.966" style="fill:#006363; stroke:#000000;stroke-width:0"/>
<circle fill="#006363" stroke="#006363" stroke-width="0" cx="-134.265" cy="94.7582" r="21.3333"/>
<circle fill="#006363" stroke="#006363" stroke-width="0" cx="67.1208" cy="143.224" r="21.3333"/>
<polygon points="556.817,312.274 516.088,299.563 578.722,98.8787 619.451,111.59" style="fill:#006363; stroke:#000000;stroke-width:0"/>
<circle fill="#006363" stroke="#006363" stroke-width="0" cx="536.452" cy="305.919" r="21.3333"/>
<circle fill="#006363" stroke="#006363" stroke-width="0" cx="599.086" cy="105.235" r="21.3333"/>
<polygon points="1256,469.333 256,1469.33 -744,469.333" style="fill:#000000; stroke:#000000;stroke-width:0"/>
<polygon points="-744,42.6667 256,-957.333 1256,42.6667" style="fill:#000000; stroke:#000000;stroke-width:0"/>
<circle fill="#a64b00" stroke="#a64b00" stroke-width="0" cx="-134.265" cy="94.7582" r="21.3333"/>
<circle fill="#a64b00" stroke="#a64b00" stroke-width="0" cx="67.1208" cy="143.224" r="21.3333"/>
<circle fill="#a64b00" stroke="#a64b00" stroke-width="0" cx="536.452" cy="305.919" r="21.3333"/>
<circle fill="#a64b00" stroke="#a64b00" stroke-width="0" cx="599.086" cy="105.235" r="21.3333"/>
<circle fill="#a64b00" stroke="#a64b00" stroke-width="0" cx="445.942" cy="411.671" r="21.3333"/>
</svg>
