<?xml version="1.0" encoding="utf-8"?> <!-- Generator: Adobe Illustrator 13.0.0, SVG Export Plug-In . SVG Version: 6.00 Build 14948)  --> <svg version="1.2" baseProfile="tiny" id="Layer_1" xmlns="http://www.w3.org/2000/svg" xmlns:xlink="http://www.w3.org/1999/xlink" x="0px" y="0px" width="512px" height="512px" viewBox="0 0 512 512" xml:space="preserve">
<polygon points="0,0 512,0 512,512 0,512" style="fill:#ffffff; stroke:#000000;stroke-width:0"/>
<polygon points="-142.393,155.669 -115.576,122.483 54.2625,259.729 27.4454,292.915" style="fill:#006363; stroke:#000000;stroke-width:0"/>
<circle fill="#006363" stroke="#006363" stroke-width="0" cx="-128.985" cy="139.076" r="21.3333"/>
<circle fill="#006363" stroke="#006363" stroke-width="0" cx="40.8539" cy="276.322" r="21.3333"/>
<polygon points="626.553,319.041 585.077,329.048 534.477,119.329 575.953,109.322" style="fill:#006363; stroke:#000000;stroke-width:0"/>
<circle fill="#006363" stroke="#006363" stroke-width="0" cx="605.815" cy="324.044" r="21.3333"/>
<circle fill="#006363" stroke="#006363" stroke-width="0" cx="555.215" cy="114.325" r="21.3333"/>
<polygon points="1256,469.333 256,1469.33 -744,469.333" style="fill:#000000; stroke:#000000;stroke-width:0"/>
<polygon points="-744,42.6667 256,-957.333 1256,42.6667" style="fill:#000000; stroke:#000000;stroke-width:0"/>
<circle fill="#a64b00" stroke="#a64b00" stroke-width="0" cx="-128.985" cy="139.076" r="21.3333"/>
<circle fill="#a64b00" stroke="#a64b00" stroke-width="0" cx="40.8539" cy="276.322" r="21.3333"/>
<circle fill="#a64b00" stroke="#a64b00" stroke-width="0" cx="605.815" cy="324.044" r="21.3333"/>
<circle fill="#a64b00" stroke="#a64b00" stroke-width="0" cx="555.215" cy="114.325" r="21.3333"/>
<circle fill="#a64b00" stroke="#a64b00" stroke-width="0" cx="422.08" cy="106.374" r="21.3333"/>
</svg>
