<?xml version="1.0" encoding="utf-8"?> <!-- Generator: Adobe Illustrator 13.0.0, SVG Export Plug-In . SVG Version: 6.00 Build 14948)  --> <svg version="1.2" baseProfile="tiny" id="Layer_1" xmlns="http://www.w3.org/2000/svg" xmlns:xlink="http://www.w3.org/1999/xlink" x="0px" y="0px" width="512px" height="512px" viewBox="0 0 512 512" xml:space="preserve">
<polygon points="0,0 512,0 512,512 0,512" style="fill:#ffffff; stroke:#000000;stroke-width:0"/>
<polygon points="-73.9486,255.44 -76.0121,298.057 -280.713,288.145 -278.649,245.528" style="fill:#006363; stroke:#000000;stroke-width:0"/>
<circle fill="#006363" stroke="#006363" stroke-width="0" cx="-74.9804" cy="276.749" r="21.3333"/>
<circle fill="#006363" stroke="#006363" stroke-width="0" cx="-279.681" cy="266.837" r="21.3333"/>
<polygon points="736.368,293.481 695.029,282.921 748.41,73.9408 789.749,84.5003" style="fill:#006363; stroke:#000000;stroke-width:0"/>
<circle fill="#006363" stroke="#006363" stroke-width="0" cx="715.698" cy="288.201" r="21.3333"/>
<circle fill="#006363" stroke="#006363" stroke-width="0" cx="769.079" cy="79.2205" r="21.3333"/>
<polygon points="1256,469.333 256,1469.33 -744,469.333" style="fill:#000000; stroke:#000000;stroke-width:0"/>
<polygon points="-744,42.6667 256,-957.333 1256,42.6667" style="fill:#000000; stroke:#000000;stroke-width:0"/>
<circle fill="#a64b00" stroke="#a64b00" stroke-width="0" cx="-74.9804" cy="276.749" r="21.3333"/>
<circle fill="#a64b00" stroke="#a64b00" stroke-width="0" cx="-279.681" cy="266.837" r="21.3333"/>
<circle fill="#a64b00" stroke="#a64b00" stroke-width="0" cx="715.698" cy="288.201" r="21.3333"/>
<circle fill="#a64b00" stroke="#a64b00" stroke-width="0" cx="769.079" cy="79.2205" r="21.3333"/>
<circle fill="#a64b00" stroke="#a64b00" stroke-width="0" cx="119.037" cy="163.617" r="21.3333"/>
</svg>
