<?xml version="1.0" encoding="utf-8"?> <!-- Generator: Adobe Illustrator 13.0.0, SVG Export Plug-In . SVG Version: 6.00 Build 14948)  --> <svg version="1.2" baseProfile="tiny" id="Layer_1" xmlns="http://www.w3.org/2000/svg" xmlns:xlink="http://www.w3.org/1999/xlink" x="0px" y="0px" width="512px" height="512px" viewBox="0 0 512 512" xml:space="preserve">
<polygon points="0,0 512,0 512,512 0,512" style="fill:#ffffff; stroke:#000000;stroke-width:0"/>
<polygon points="-174.891,291.929 -142.58,264.065 -8.2047,419.884 -40.5159,447.748" style="fill:#006363; stroke:#000000;stroke-width:0"/>
<circle fill="#006363" stroke="#006363" stroke-width="0" cx="-158.735" cy="277.997" r="21.3333"/>
<circle fill="#006363" stroke="#006363" stroke-width="0" cx="-24.3603" cy="433.816" r="21.3333"/>
<polygon points="667.358,174.376 705.547,193.402 609.023,387.149 570.834,368.123" style="fill:#006363; stroke:#000000;stroke-width:0"/>
<circle fill="#006363" stroke="#006363" stroke-width="0" cx="686.452" cy="183.889" r="21.3333"/>
<circle fill="#006363" stroke="#006363" stroke-width="0" cx="589.929" cy="377.636" r="21.3333"/>
<polygon points="1256,469.333 256,1469.33 -744,469.333" style="fill:#000000; stroke:#000000;stroke-width:0"/>
<polygon points="-744,42.6667 256,-957.333 1256,42.6667" style="fill:#000000; stroke:#000000;stroke-width:0"/>
<circle fill="#a64b00" stroke="#a64b00" stroke-width="0" cx="-158.735" cy="277.997" r="21.3333"/>
<circle fill="#a64b00" stroke="#a64b00" stroke-width="0" cx="-24.3603" cy="433.816" r="21.3333"/>
<circle fill="#a64b00" stroke="#a64b00" stroke-width="0" cx="686.452" cy="183.889" r="21.3333"/>
<circle fill="#a64b00" stroke="#a64b00" stroke-width="0" cx="589.929" cy="377.636" r="21.3333"/>
<circle fill="#a64b00" stroke="#a64b00" stroke-width="0" cx="314.106" cy="173.158" r="21.3333"/>
</svg>
