<?xml version="1.0" encoding="utf-8"?> <!-- Generator: Adobe Illustrator 13.0.0, SVG Export Plug-In . SVG Version: 6.00 Build 14948)  --> <svg version="1.2" baseProfile="tiny" id="Layer_1" xmlns="http://www.w3.org/2000/svg" xmlns:xlink="http://www.w3.org/1999/xlink" x="0px" y="0px" width="512px" height="512px" viewBox="0 0 512 512" xml:space="preserve">
<polygon points="0,0 512,0 512,512 0,512" style="fill:#ffffff; stroke:#000000;stroke-width:0"/>
<polygon points="6.59617,67.9875 49.1938,65.5619 61.4621,281.011 18.8644,283.437" style="fill:#006363; stroke:#000000;stroke-width:0"/>
<circle fill="#006363" stroke="#006363" stroke-width="0" cx="27.895" cy="66.7747" r="21.3333"/>
<circle fill="#006363" stroke="#006363" stroke-width="0" cx="40.1632" cy="282.224" r="21.3333"/>
<polygon points="456.775,213.929 499.344,211.041 513.862,425.091 471.293,427.978" style="fill:#006363; stroke:#000000;stroke-width:0"/>
<circle fill="#006363" stroke="#006363" stroke-width="0" cx="478.059" cy="212.485" r="21.3333"/>
<circle fill="#006363" stroke="#006363" stroke-width="0" cx="492.577" cy="426.535" r="21.3333"/>
<polygon points="1256,469.333 256,1469.33 -744,469.333" style="fill:#000000; stroke:#000000;stroke-width:0"/>
<polygon points="-744,42.6667 256,-957.333 1256,42.6667" style="fill:#000000; stroke:#000000;stroke-width:0"/>
<circle fill="#a64b00" stroke="#a64b00" stroke-width="0" cx="27.895" cy="66.7747" r="21.3333"/>
<circle fill="#a64b00" stroke="#a64b00" stroke-width="0" cx="40.1632" cy="282.224" r="21.3333"/>
<circle fill="#a64b00" stroke="#a64b00" stroke-width="0" cx="478.059" cy="212.485" r="21.3333"/>
<circle fill="#a64b00" stroke="#a64b00" stroke-width="0" cx="492.577" cy="426.535" r="21.3333"/>
<circle fill="#a64b00" stroke="#a64b00" stroke-width="0" cx="130.523" cy="302.152" r="21.3333"/>
</svg>
