<?xml version="1.0" encoding="utf-8"?> <!-- Generator: Adobe Illustrator 13.0.0, SVG Export Plug-In . SVG Version: 6.00 Build 14948)  --> <svg version="1.2" baseProfile="tiny" id="Layer_1" xmlns="http://www.w3.org/2000/svg" xmlns:xlink="http://www.w3.org/1999/xlink" x="0px" y="0px" width="512px" height="512px" viewBox="0 0 512 512" xml:space="preserve">
<polygon points="0,0 512,0 512,512 0,512" style="fill:#ffffff; stroke:#000000;stroke-width:0"/>
<polygon points="-408.984,85.307 -400.068,43.5822 -197.033,86.9665 -205.949,128.691" style="fill:#006363; stroke:#000000;stroke-width:0"/>
<circle fill="#006363" stroke="#006363" stroke-width="0" cx="-404.526" cy="64.4446" r="21.3333"/>
<circle fill="#006363" stroke="#006363" stroke-width="0" cx="-201.491" cy="107.829" r="21.3333"/>
<polygon points="868.079,221.167 910.694,219.069 921.327,435 878.712,437.098" style="fill:#006363; stroke:#000000;stroke-width:0"/>
<circle fill="#006363" stroke="#006363" stroke-width="0" cx="889.387" cy="220.118" r="21.3333"/>
<circle fill="#006363" stroke="#006363" stroke-width="0" cx="900.019" cy="436.049" r="21.3333"/>
<polygon points="1256,469.333 256,1469.33 -744,469.333" style="fill:#000000; stroke:#000000;stroke-width:0"/>
<polygon points="-744,42.6667 256,-957.333 1256,42.6667" style="fill:#000000; stroke:#000000;stroke-width:0"/>
<circle fill="#a64b00" stroke="#a64b00" stroke-width="0" cx="-404.526" cy="64.4446" r="21.3333"/>
<circle fill="#a64b00" stroke="#a64b00" stroke-width="0" cx="-201.491" cy="107.829" r="21.3333"/>
<circle fill="#a64b00" stroke="#a64b00" stroke-width="0" cx="889.387" cy="220.118" r="21.3333"/>
<circle fill="#a64b00" stroke="#a64b00" stroke-width="0" cx="900.019" cy="436.049" r="21.3333"/>
<circle fill="#a64b00" stroke="#a64b00" stroke-width="0" cx="-109.525" cy="144.148" r="21.3333"/>
</svg>
