<?xml version="1.0" encoding="utf-8"?> <!-- Generator: Adobe Illustrator 13.0.0, SVG Export Plug-In . SVG Version: 6.00 Build 14948)  --> <svg version="1.2" baseProfile="tiny" id="Layer_1" xmlns="http://www.w3.org/2000/svg" xmlns:xlink="http://www.w3.org/1999/xlink" x="0px" y="0px" width="512px" height="512px" viewBox="0 0 512 512" xml:space="preserve">
<polygon points="0,0 512,0 512,512 0,512" style="fill:#ffffff; stroke:#000000;stroke-width:0"/>
<polygon points="-118.758,143.477 -120.117,186.122 -322.473,179.674 -321.114,137.029" style="fill:#006363; stroke:#000000;stroke-width:0"/>
<circle fill="#006363" stroke="#006363" stroke-width="0" cx="-119.438" cy="164.799" r="21.3333"/>
<circle fill="#006363" stroke="#006363" stroke-width="0" cx="-321.793" cy="158.352" r="21.3333"/>
<polygon points="751.809,413.977 716.408,390.16 838.123,209.252 873.523,233.07" style="fill:#006363; stroke:#000000;stroke-width:0"/>
<circle fill="#006363" stroke="#006363" stroke-width="0" cx="734.109" cy="402.068" r="21.3333"/>
<circle fill="#006363" stroke="#006363" stroke-width="0" cx="855.823" cy="221.161" r="21.3333"/>
<polygon points="1256,469.333 256,1469.33 -744,469.333" style="fill:#000000; stroke:#000000;stroke-width:0"/>
<polygon points="-744,42.6667 256,-957.333 1256,42.6667" style="fill:#000000; stroke:#000000;stroke-width:0"/>
<circle fill="#a64b00" stroke="#a64b00" stroke-width="0" cx="-119.438" cy="164.799" r="21.3333"/>
<circle fill="#a64b00" stroke="#a64b00" stroke-width="0" cx="-321.793" cy="158.352" r="21.3333"/>
<circle fill="#a64b00" stroke="#a64b00" stroke-width="0" cx="734.109" cy="402.068" r="21.3333"/>
<circle fill="#a64b00" stroke="#a64b00" stroke-width="0" cx="855.823" cy="221.161" r="21.3333"/>
<circle fill="#a64b00" stroke="#a64b00" stroke-width="0" cx="20.6078" cy="173.158" r="21.3333"/>
</svg>
