<?xml version="1.0" encoding="utf-8"?> <!-- Generator: Adobe Illustrator 13.0.0, SVG Export Plug-In . SVG Version: 6.00 Build 14948)  --> <svg version="1.2" baseProfile="tiny" id="Layer_1" xmlns="http://www.w3.org/2000/svg" xmlns:xlink="http://www.w3.org/1999/xlink" x="0px" y="0px" width="512px" height="512px" viewBox="0 0 512 512" xml:space="preserve">
<polygon points="0,0 512,0 512,512 0,512" style="fill:#ffffff; stroke:#000000;stroke-width:0"/>
<polygon points="-141.363,153.585 -115.619,119.56 54.8061,248.507 29.0622,282.532" style="fill:#006363; stroke:#000000;stroke-width:0"/>
<circle fill="#006363" stroke="#006363" stroke-width="0" cx="-128.491" cy="136.572" r="21.3333"/>
<circle fill="#006363" stroke="#006363" stroke-width="0" cx="41.9341" cy="265.52" r="21.3333"/>
<polygon points="621.431,318.87 579.591,327.228 537.687,117.459 579.527,109.101" style="fill:#006363; stroke:#000000;stroke-width:0"/>
<circle fill="#006363" stroke="#006363" stroke-width="0" cx="600.511" cy="323.049" r="21.3333"/>
<circle fill="#006363" stroke="#006363" stroke-width="0" cx="558.607" cy="113.28" r="21.3333"/>
<polygon points="1256,469.333 256,1469.33 -744,469.333" style="fill:#000000; stroke:#000000;stroke-width:0"/>
<polygon points="-744,42.6667 256,-957.333 1256,42.6667" style="fill:#000000; stroke:#000000;stroke-width:0"/>
<circle fill="#a64b00" stroke="#a64b00" stroke-width="0" cx="-128.491" cy="136.572" r="21.3333"/>
<circle fill="#a64b00" stroke="#a64b00" stroke-width="0" cx="41.9341" cy="265.52" r="21.3333"/>
<circle fill="#a64b00" stroke="#a64b00" stroke-width="0" cx="600.511" cy="323.049" r="21.3333"/>
<circle fill="#a64b00" stroke="#a64b00" stroke-width="0" cx="558.607" cy="113.28" r="21.3333"/>
<circle fill="#a64b00" stroke="#a64b00" stroke-width="0" cx="423.87" cy="134.996" r="21.3333"/>
</svg>
