<?xml version="1.0" encoding="utf-8"?> <!-- Generator: Adobe Illustrator 13.0.0, SVG Export Plug-In . SVG Version: 6.00 Build 14948)  --> <svg version="1.2" baseProfile="tiny" id="Layer_1" xmlns="http://www.w3.org/2000/svg" xmlns:xlink="http://www.w3.org/1999/xlink" x="0px" y="0px" width="512px" height="512px" viewBox="0 0 512 512" xml:space="preserve">
<polygon points="0,0 512,0 512,512 0,512" style="fill:#ffffff; stroke:#000000;stroke-width:0"/>
<polygon points="-99.4035,101.363 -106.332,143.463 -321.89,107.986 -314.961,65.8861" style="fill:#006363; stroke:#000000;stroke-width:0"/>
<circle fill="#006363" stroke="#006363" stroke-width="0" cx="-102.868" cy="122.413" r="21.3333"/>
<circle fill="#006363" stroke="#006363" stroke-width="0" cx="-318.426" cy="86.9362" r="21.3333"/>
<polygon points="750.126,380.599 712.732,360.053 815.588,172.856 852.982,193.402" style="fill:#006363; stroke:#000000;stroke-width:0"/>
<circle fill="#006363" stroke="#006363" stroke-width="0" cx="731.429" cy="370.326" r="21.3333"/>
<circle fill="#006363" stroke="#006363" stroke-width="0" cx="834.285" cy="183.129" r="21.3333"/>
<polygon points="1256,469.333 256,1469.33 -744,469.333" style="fill:#000000; stroke:#000000;stroke-width:0"/>
<polygon points="-744,42.6667 256,-957.333 1256,42.6667" style="fill:#000000; stroke:#000000;stroke-width:0"/>
<circle fill="#a64b00" stroke="#a64b00" stroke-width="0" cx="-102.868" cy="122.413" r="21.3333"/>
<circle fill="#a64b00" stroke="#a64b00" stroke-width="0" cx="-318.426" cy="86.9362" r="21.3333"/>
<circle fill="#a64b00" stroke="#a64b00" stroke-width="0" cx="731.429" cy="370.326" r="21.3333"/>
<circle fill="#a64b00" stroke="#a64b00" stroke-width="0" cx="834.285" cy="183.129" r="21.3333"/>
<circle fill="#a64b00" stroke="#a64b00" stroke-width="0" cx="43.2764" cy="306.725" r="21.3333"/>
</svg>
