<?xml version="1.0" encoding="utf-8"?> <!-- Generator: Adobe Illustrator 13.0.0, SVG Export Plug-In . SVG Version: 6.00 Build 14948)  --> <svg version="1.2" baseProfile="tiny" id="Layer_1" xmlns="http://www.w3.org/2000/svg" xmlns:xlink="http://www.w3.org/1999/xlink" x="0px" y="0px" width="512px" height="512px" viewBox="0 0 512 512" xml:space="preserve">
<polygon points="0,0 512,0 512,512 0,512" style="fill:#ffffff; stroke:#000000;stroke-width:0"/>
<polygon points="-170.825,302.925 -152.7,341.551 -342.286,430.51 -360.41,391.885" style="fill:#006363; stroke:#000000;stroke-width:0"/>
<circle fill="#006363" stroke="#006363" stroke-width="0" cx="-161.762" cy="322.238" r="21.3333"/>
<circle fill="#006363" stroke="#006363" stroke-width="0" cx="-351.348" cy="411.198" r="21.3333"/>
<polygon points="731.711,389.071 726.701,346.699 945.53,320.823 950.541,363.195" style="fill:#006363; stroke:#000000;stroke-width:0"/>
<circle fill="#006363" stroke="#006363" stroke-width="0" cx="729.206" cy="367.885" r="21.3333"/>
<circle fill="#006363" stroke="#006363" stroke-width="0" cx="948.036" cy="342.009" r="21.3333"/>
<polygon points="1256,469.333 256,1469.33 -744,469.333" style="fill:#000000; stroke:#000000;stroke-width:0"/>
<polygon points="-744,42.6667 256,-957.333 1256,42.6667" style="fill:#000000; stroke:#000000;stroke-width:0"/>
<circle fill="#a64b00" stroke="#a64b00" stroke-width="0" cx="-161.762" cy="322.238" r="21.3333"/>
<circle fill="#a64b00" stroke="#a64b00" stroke-width="0" cx="-351.348" cy="411.198" r="21.3333"/>
<circle fill="#a64b00" stroke="#a64b00" stroke-width="0" cx="729.206" cy="367.885" r="21.3333"/>
<circle fill="#a64b00" stroke="#a64b00" stroke-width="0" cx="948.036" cy="342.009" r="21.3333"/>
<circle fill="#a64b00" stroke="#a64b00" stroke-width="0" cx="-61.1185" cy="201.779" r="21.3333"/>
</svg>
