<?xml version="1.0" encoding="utf-8"?> <!-- Generator: Adobe Illustrator 13.0.0, SVG Export Plug-In . SVG Version: 6.00 Build 14948)  --> <svg version="1.2" baseProfile="tiny" id="Layer_1" xmlns="http://www.w3.org/2000/svg" xmlns:xlink="http://www.w3.org/1999/xlink" x="0px" y="0px" width="512px" height="512px" viewBox="0 0 512 512" xml:space="preserve">
<polygon points="0,0 512,0 512,512 0,512" style="fill:#ffffff; stroke:#000000;stroke-width:0"/>
<polygon points="-132.279,180.936 -99.1178,154.088 34.1794,318.735 1.01819,345.582" style="fill:#006363; stroke:#000000;stroke-width:0"/>
<circle fill="#006363" stroke="#006363" stroke-width="0" cx="-115.698" cy="167.512" r="21.3333"/>
<circle fill="#006363" stroke="#006363" stroke-width="0" cx="17.5988" cy="332.158" r="21.3333"/>
<polygon points="655.595,309.06 618.008,329.251 517.544,142.238 555.131,122.047" style="fill:#006363; stroke:#000000;stroke-width:0"/>
<circle fill="#006363" stroke="#006363" stroke-width="0" cx="636.801" cy="319.155" r="21.3333"/>
<circle fill="#006363" stroke="#006363" stroke-width="0" cx="536.337" cy="132.143" r="21.3333"/>
<polygon points="1256,469.333 256,1469.33 -744,469.333" style="fill:#000000; stroke:#000000;stroke-width:0"/>
<polygon points="-744,42.6667 256,-957.333 1256,42.6667" style="fill:#000000; stroke:#000000;stroke-width:0"/>
<circle fill="#a64b00" stroke="#a64b00" stroke-width="0" cx="-115.698" cy="167.512" r="21.3333"/>
<circle fill="#a64b00" stroke="#a64b00" stroke-width="0" cx="17.5988" cy="332.158" r="21.3333"/>
<circle fill="#a64b00" stroke="#a64b00" stroke-width="0" cx="636.801" cy="319.155" r="21.3333"/>
<circle fill="#a64b00" stroke="#a64b00" stroke-width="0" cx="536.337" cy="132.143" r="21.3333"/>
<circle fill="#a64b00" stroke="#a64b00" stroke-width="0" cx="410.746" cy="192.239" r="21.3333"/>
</svg>
