<?xml version="1.0" encoding="utf-8"?> <!-- Generator: Adobe Illustrator 13.0.0, SVG Export Plug-In . SVG Version: 6.00 Build 14948)  --> <svg version="1.2" baseProfile="tiny" id="Layer_1" xmlns="http://www.w3.org/2000/svg" xmlns:xlink="http://www.w3.org/1999/xlink" x="0px" y="0px" width="512px" height="512px" viewBox="0 0 512 512" xml:space="preserve">
<polygon points="0,0 512,0 512,512 0,512" style="fill:#ffffff; stroke:#000000;stroke-width:0"/>
<polygon points="-158.482,412.057 -193.438,387.594 -72.8832,215.327 -37.9263,239.791" style="fill:#006363; stroke:#000000;stroke-width:0"/>
<circle fill="#006363" stroke="#006363" stroke-width="0" cx="-175.96" cy="399.825" r="21.3333"/>
<circle fill="#006363" stroke="#006363" stroke-width="0" cx="-55.4047" cy="227.559" r="21.3333"/>
<polygon points="578.443,252.226 608.803,222.248 756.569,371.898 726.209,401.876" style="fill:#006363; stroke:#000000;stroke-width:0"/>
<circle fill="#006363" stroke="#006363" stroke-width="0" cx="593.623" cy="237.237" r="21.3333"/>
<circle fill="#006363" stroke="#006363" stroke-width="0" cx="741.389" cy="386.887" r="21.3333"/>
<polygon points="1256,469.333 256,1469.33 -744,469.333" style="fill:#000000; stroke:#000000;stroke-width:0"/>
<polygon points="-744,42.6667 256,-957.333 1256,42.6667" style="fill:#000000; stroke:#000000;stroke-width:0"/>
<circle fill="#a64b00" stroke="#a64b00" stroke-width="0" cx="-175.96" cy="399.825" r="21.3333"/>
<circle fill="#a64b00" stroke="#a64b00" stroke-width="0" cx="-55.4047" cy="227.559" r="21.3333"/>
<circle fill="#a64b00" stroke="#a64b00" stroke-width="0" cx="593.623" cy="237.237" r="21.3333"/>
<circle fill="#a64b00" stroke="#a64b00" stroke-width="0" cx="741.389" cy="386.887" r="21.3333"/>
<circle fill="#a64b00" stroke="#a64b00" stroke-width="0" cx="259.225" cy="268.563" r="21.3333"/>
</svg>
