<?xml version="1.0" encoding="utf-8"?> <!-- Generator: Adobe Illustrator 13.0.0, SVG Export Plug-In . SVG Version: 6.00 Build 14948)  --> <svg version="1.2" baseProfile="tiny" id="Layer_1" xmlns="http://www.w3.org/2000/svg" xmlns:xlink="http://www.w3.org/1999/xlink" x="0px" y="0px" width="512px" height="512px" viewBox="0 0 512 512" xml:space="preserve">
<polygon points="0,0 512,0 512,512 0,512" style="fill:#ffffff; stroke:#000000;stroke-width:0"/>
<polygon points="-93.6759,247.742 -62.9148,277.309 -213.241,433.707 -244.002,404.14" style="fill:#006363; stroke:#000000;stroke-width:0"/>
<circle fill="#006363" stroke="#006363" stroke-width="0" cx="-78.2953" cy="262.526" r="21.3333"/>
<circle fill="#006363" stroke="#006363" stroke-width="0" cx="-228.621" cy="418.923" r="21.3333"/>
<polygon points="678.213,440.106 641.475,418.409 748.57,237.071 785.308,258.768" style="fill:#006363; stroke:#000000;stroke-width:0"/>
<circle fill="#006363" stroke="#006363" stroke-width="0" cx="659.844" cy="429.257" r="21.3333"/>
<circle fill="#006363" stroke="#006363" stroke-width="0" cx="766.939" cy="247.919" r="21.3333"/>
<polygon points="1256,469.333 256,1469.33 -744,469.333" style="fill:#000000; stroke:#000000;stroke-width:0"/>
<polygon points="-744,42.6667 256,-957.333 1256,42.6667" style="fill:#000000; stroke:#000000;stroke-width:0"/>
<circle fill="#a64b00" stroke="#a64b00" stroke-width="0" cx="-78.2953" cy="262.526" r="21.3333"/>
<circle fill="#a64b00" stroke="#a64b00" stroke-width="0" cx="-228.621" cy="418.923" r="21.3333"/>
<circle fill="#a64b00" stroke="#a64b00" stroke-width="0" cx="659.844" cy="429.257" r="21.3333"/>
<circle fill="#a64b00" stroke="#a64b00" stroke-width="0" cx="766.939" cy="247.919" r="21.3333"/>
<circle fill="#a64b00" stroke="#a64b00" stroke-width="0" cx="173.322" cy="77.7526" r="21.3333"/>
</svg>
