<?xml version="1.0" encoding="utf-8"?> <!-- Generator: Adobe Illustrator 13.0.0, SVG Export Plug-In . SVG Version: 6.00 Build 14948)  --> <svg version="1.2" baseProfile="tiny" id="Layer_1" xmlns="http://www.w3.org/2000/svg" xmlns:xlink="http://www.w3.org/1999/xlink" x="0px" y="0px" width="512px" height="512px" viewBox="0 0 512 512" xml:space="preserve">
<polygon points="0,0 512,0 512,512 0,512" style="fill:#ffffff; stroke:#000000;stroke-width:0"/>
<polygon points="21.3333,194.133 64,194.133 64,407.467 21.3333,407.467" style="fill:#006363; stroke:#000000;stroke-width:0"/>
<circle fill="#006363" stroke="#006363" stroke-width="0" cx="42.6667" cy="194.133" r="21.3333"/>
<circle fill="#006363" stroke="#006363" stroke-width="0" cx="42.6667" cy="407.467" r="21.3333"/>
<polygon points="448.361,104.567 491.027,104.499 491.367,317.833 448.7,317.901" style="fill:#006363; stroke:#000000;stroke-width:0"/>
<circle fill="#006363" stroke="#006363" stroke-width="0" cx="469.694" cy="104.533" r="21.3333"/>
<circle fill="#006363" stroke="#006363" stroke-width="0" cx="470.033" cy="317.867" r="21.3333"/>
<polygon points="1256,469.333 256,1469.33 -744,469.333" style="fill:#000000; stroke:#000000;stroke-width:0"/>
<polygon points="-744,42.6667 256,-957.333 1256,42.6667" style="fill:#000000; stroke:#000000;stroke-width:0"/>
<circle fill="#a64b00" stroke="#a64b00" stroke-width="0" cx="42.6667" cy="194.133" r="21.3333"/>
<circle fill="#a64b00" stroke="#a64b00" stroke-width="0" cx="42.6667" cy="407.467" r="21.3333"/>
<circle fill="#a64b00" stroke="#a64b00" stroke-width="0" cx="469.694" cy="104.533" r="21.3333"/>
<circle fill="#a64b00" stroke="#a64b00" stroke-width="0" cx="470.033" cy="317.867" r="21.3333"/>
<circle fill="#a64b00" stroke="#a64b00" stroke-width="0" cx="373.918" cy="256" r="21.3333"/>
</svg>
