<?xml version="1.0" encoding="utf-8"?> <!-- Generator: Adobe Illustrator 13.0.0, SVG Export Plug-In . SVG Version: 6.00 Build 14948)  --> <svg version="1.2" baseProfile="tiny" id="Layer_1" xmlns="http://www.w3.org/2000/svg" xmlns:xlink="http://www.w3.org/1999/xlink" x="0px" y="0px" width="512px" height="512px" viewBox="0 0 512 512" xml:space="preserve">
<polygon points="0,0 512,0 512,512 0,512" style="fill:#ffffff; stroke:#000000;stroke-width:0"/>
<polygon points="-157.666,458.407 -191.931,432.984 -66.8785,264.442 -32.6135,289.865" style="fill:#006363; stroke:#000000;stroke-width:0"/>
<circle fill="#006363" stroke="#006363" stroke-width="0" cx="-174.798" cy="445.696" r="21.3333"/>
<circle fill="#006363" stroke="#006363" stroke-width="0" cx="-49.746" cy="277.153" r="21.3333"/>
<polygon points="584.374,230.613 619.507,206.402 742.353,384.666 707.221,408.877" style="fill:#006363; stroke:#000000;stroke-width:0"/>
<circle fill="#006363" stroke="#006363" stroke-width="0" cx="601.941" cy="218.507" r="21.3333"/>
<circle fill="#006363" stroke="#006363" stroke-width="0" cx="724.787" cy="396.771" r="21.3333"/>
<polygon points="1256,469.333 256,1469.33 -744,469.333" style="fill:#000000; stroke:#000000;stroke-width:0"/>
<polygon points="-744,42.6667 256,-957.333 1256,42.6667" style="fill:#000000; stroke:#000000;stroke-width:0"/>
<circle fill="#a64b00" stroke="#a64b00" stroke-width="0" cx="-174.798" cy="445.696" r="21.3333"/>
<circle fill="#a64b00" stroke="#a64b00" stroke-width="0" cx="-49.746" cy="277.153" r="21.3333"/>
<circle fill="#a64b00" stroke="#a64b00" stroke-width="0" cx="601.941" cy="218.507" r="21.3333"/>
<circle fill="#a64b00" stroke="#a64b00" stroke-width="0" cx="724.787" cy="396.771" r="21.3333"/>
<circle fill="#a64b00" stroke="#a64b00" stroke-width="0" cx="266.98" cy="144.536" r="21.3333"/>
</svg>
