<?xml version="1.0" encoding="utf-8"?> <!-- Generator: Adobe Illustrator 13.0.0, SVG Export Plug-In . SVG Version: 6.00 Build 14948)  --> <svg version="1.2" baseProfile="tiny" id="Layer_1" xmlns="http://www.w3.org/2000/svg" xmlns:xlink="http://www.w3.org/1999/xlink" x="0px" y="0px" width="512px" height="512px" viewBox="0 0 512 512" xml:space="preserve">
<polygon points="0,0 512,0 512,512 0,512" style="fill:#ffffff; stroke:#000000;stroke-width:0"/>
<polygon points="-236.323,225.954 -240.373,183.48 -31.7687,163.587 -27.7182,206.061" style="fill:#006363; stroke:#000000;stroke-width:0"/>
<circle fill="#006363" stroke="#006363" stroke-width="0" cx="-238.348" cy="204.717" r="21.3333"/>
<circle fill="#006363" stroke="#006363" stroke-width="0" cx="-29.7434" cy="184.824" r="21.3333"/>
<polygon points="588.906,373.012 582.408,330.843 790.717,298.741 797.216,340.91" style="fill:#006363; stroke:#000000;stroke-width:0"/>
<circle fill="#006363" stroke="#006363" stroke-width="0" cx="585.657" cy="351.928" r="21.3333"/>
<circle fill="#006363" stroke="#006363" stroke-width="0" cx="793.966" cy="319.826" r="21.3333"/>
<polygon points="1256,469.333 256,1469.33 -744,469.333" style="fill:#000000; stroke:#000000;stroke-width:0"/>
<polygon points="-744,42.6667 256,-957.333 1256,42.6667" style="fill:#000000; stroke:#000000;stroke-width:0"/>
<circle fill="#a64b00" stroke="#a64b00" stroke-width="0" cx="-238.348" cy="204.717" r="21.3333"/>
<circle fill="#a64b00" stroke="#a64b00" stroke-width="0" cx="-29.7434" cy="184.824" r="21.3333"/>
<circle fill="#a64b00" stroke="#a64b00" stroke-width="0" cx="585.657" cy="351.928" r="21.3333"/>
<circle fill="#a64b00" stroke="#a64b00" stroke-width="0" cx="793.966" cy="319.826" r="21.3333"/>
<circle fill="#a64b00" stroke="#a64b00" stroke-width="0" cx="217.467" cy="154.077" r="21.3333"/>
</svg>
