<?xml version="1.0" encoding="utf-8"?> <!-- Generator: Adobe Illustrator 13.0.0, SVG Export Plug-In . SVG Version: 6.00 Build 14948)  --> <svg version="1.2" baseProfile="tiny" id="Layer_1" xmlns="http://www.w3.org/2000/svg" xmlns:xlink="http://www.w3.org/1999/xlink" x="0px" y="0px" width="512px" height="512px" viewBox="0 0 512 512" xml:space="preserve">
<polygon points="0,0 512,0 512,512 0,512" style="fill:#ffffff; stroke:#000000;stroke-width:0"/>
<polygon points="-372.533,342.889 -405.685,316.031 -269.204,147.571 -236.052,174.43" style="fill:#006363; stroke:#000000;stroke-width:0"/>
<circle fill="#006363" stroke="#006363" stroke-width="0" cx="-389.109" cy="329.46" r="21.3333"/>
<circle fill="#006363" stroke="#006363" stroke-width="0" cx="-252.628" cy="161.001" r="21.3333"/>
<polygon points="941.122,217.143 979.081,236.626 883.973,421.928 846.014,402.446" style="fill:#006363; stroke:#000000;stroke-width:0"/>
<circle fill="#006363" stroke="#006363" stroke-width="0" cx="960.101" cy="226.885" r="21.3333"/>
<circle fill="#006363" stroke="#006363" stroke-width="0" cx="864.993" cy="412.187" r="21.3333"/>
<polygon points="1256,469.333 256,1469.33 -744,469.333" style="fill:#000000; stroke:#000000;stroke-width:0"/>
<polygon points="-744,42.6667 256,-957.333 1256,42.6667" style="fill:#000000; stroke:#000000;stroke-width:0"/>
<circle fill="#a64b00" stroke="#a64b00" stroke-width="0" cx="-389.109" cy="329.46" r="21.3333"/>
<circle fill="#a64b00" stroke="#a64b00" stroke-width="0" cx="-252.628" cy="161.001" r="21.3333"/>
<circle fill="#a64b00" stroke="#a64b00" stroke-width="0" cx="960.101" cy="226.885" r="21.3333"/>
<circle fill="#a64b00" stroke="#a64b00" stroke-width="0" cx="864.993" cy="412.187" r="21.3333"/>
<circle fill="#a64b00" stroke="#a64b00" stroke-width="0" cx="490.818" cy="246.648" r="21.3333"/>
</svg>
