<?xml version="1.0" encoding="utf-8"?> <!-- Generator: Adobe Illustrator 13.0.0, SVG Export Plug-In . SVG Version: 6.00 Build 14948)  --> <svg version="1.2" baseProfile="tiny" id="Layer_1" xmlns="http://www.w3.org/2000/svg" xmlns:xlink="http://www.w3.org/1999/xlink" x="0px" y="0px" width="512px" height="512px" viewBox="0 0 512 512" xml:space="preserve">
<polygon points="0,0 512,0 512,512 0,512" style="fill:#ffffff; stroke:#000000;stroke-width:0"/>
<polygon points="-85.6223,190.266 -52.0005,163.997 75.4218,327.09 41.8,353.358" style="fill:#006363; stroke:#000000;stroke-width:0"/>
<circle fill="#006363" stroke="#006363" stroke-width="0" cx="-68.8114" cy="177.131" r="21.3333"/>
<circle fill="#006363" stroke="#006363" stroke-width="0" cx="58.6109" cy="340.224" r="21.3333"/>
<polygon points="427.796,169.726 437.208,128.111 642.25,174.484 632.838,216.1" style="fill:#006363; stroke:#000000;stroke-width:0"/>
<circle fill="#006363" stroke="#006363" stroke-width="0" cx="432.502" cy="148.918" r="21.3333"/>
<circle fill="#006363" stroke="#006363" stroke-width="0" cx="637.544" cy="195.292" r="21.3333"/>
<polygon points="1256,469.333 256,1469.33 -744,469.333" style="fill:#000000; stroke:#000000;stroke-width:0"/>
<polygon points="-744,42.6667 256,-957.333 1256,42.6667" style="fill:#000000; stroke:#000000;stroke-width:0"/>
<circle fill="#a64b00" stroke="#a64b00" stroke-width="0" cx="-68.8114" cy="177.131" r="21.3333"/>
<circle fill="#a64b00" stroke="#a64b00" stroke-width="0" cx="58.6109" cy="340.224" r="21.3333"/>
<circle fill="#a64b00" stroke="#a64b00" stroke-width="0" cx="432.502" cy="148.918" r="21.3333"/>
<circle fill="#a64b00" stroke="#a64b00" stroke-width="0" cx="637.544" cy="195.292" r="21.3333"/>
<circle fill="#a64b00" stroke="#a64b00" stroke-width="0" cx="95.4002" cy="64.2866" r="21.3333"/>
</svg>
