<?xml version="1.0" encoding="utf-8"?> <!-- Generator: Adobe Illustrator 13.0.0, SVG Export Plug-In . SVG Version: 6.00 Build 14948)  --> <svg version="1.2" baseProfile="tiny" id="Layer_1" xmlns="http://www.w3.org/2000/svg" xmlns:xlink="http://www.w3.org/1999/xlink" x="0px" y="0px" width="512px" height="512px" viewBox="0 0 512 512" xml:space="preserve">
<polygon points="0,0 512,0 512,512 0,512" style="fill:#ffffff; stroke:#000000;stroke-width:0"/>
<polygon points="-243.199,203.613 -226.784,164.23 -32.7626,245.099 -49.1774,284.481" style="fill:#006363; stroke:#000000;stroke-width:0"/>
<circle fill="#006363" stroke="#006363" stroke-width="0" cx="-234.991" cy="183.922" r="21.3333"/>
<circle fill="#006363" stroke="#006363" stroke-width="0" cx="-40.97" cy="264.79" r="21.3333"/>
<polygon points="602.577,397.785 587.767,357.772 786.605,284.174 801.416,324.188" style="fill:#006363; stroke:#000000;stroke-width:0"/>
<circle fill="#006363" stroke="#006363" stroke-width="0" cx="595.172" cy="377.779" r="21.3333"/>
<circle fill="#006363" stroke="#006363" stroke-width="0" cx="794.011" cy="304.181" r="21.3333"/>
<polygon points="1256,469.333 256,1469.33 -744,469.333" style="fill:#000000; stroke:#000000;stroke-width:0"/>
<polygon points="-744,42.6667 256,-957.333 1256,42.6667" style="fill:#000000; stroke:#000000;stroke-width:0"/>
<circle fill="#a64b00" stroke="#a64b00" stroke-width="0" cx="-234.991" cy="183.922" r="21.3333"/>
<circle fill="#a64b00" stroke="#a64b00" stroke-width="0" cx="-40.97" cy="264.79" r="21.3333"/>
<circle fill="#a64b00" stroke="#a64b00" stroke-width="0" cx="595.172" cy="377.779" r="21.3333"/>
<circle fill="#a64b00" stroke="#a64b00" stroke-width="0" cx="794.011" cy="304.181" r="21.3333"/>
<circle fill="#a64b00" stroke="#a64b00" stroke-width="0" cx="208.518" cy="297.185" r="21.3333"/>
</svg>
