<?xml version="1.0" encoding="utf-8"?> <!-- Generator: Adobe Illustrator 13.0.0, SVG Export Plug-In . SVG Version: 6.00 Build 14948)  --> <svg version="1.2" baseProfile="tiny" id="Layer_1" xmlns="http://www.w3.org/2000/svg" xmlns:xlink="http://www.w3.org/1999/xlink" x="0px" y="0px" width="512px" height="512px" viewBox="0 0 512 512" xml:space="preserve">
<polygon points="0,0 512,0 512,512 0,512" style="fill:#ffffff; stroke:#000000;stroke-width:0"/>
<polygon points="-169.031,255.939 -204.391,232.062 -83.3201,52.7642 -47.96,76.6412" style="fill:#006363; stroke:#000000;stroke-width:0"/>
<circle fill="#006363" stroke="#006363" stroke-width="0" cx="-186.711" cy="244" r="21.3333"/>
<circle fill="#006363" stroke="#006363" stroke-width="0" cx="-65.6401" cy="64.7027" r="21.3333"/>
<polygon points="570.634,319.411 581.297,278.098 789.871,331.93 779.208,373.243" style="fill:#006363; stroke:#000000;stroke-width:0"/>
<circle fill="#006363" stroke="#006363" stroke-width="0" cx="575.965" cy="298.754" r="21.3333"/>
<circle fill="#006363" stroke="#006363" stroke-width="0" cx="784.539" cy="352.586" r="21.3333"/>
<polygon points="1256,469.333 256,1469.33 -744,469.333" style="fill:#000000; stroke:#000000;stroke-width:0"/>
<polygon points="-744,42.6667 256,-957.333 1256,42.6667" style="fill:#000000; stroke:#000000;stroke-width:0"/>
<circle fill="#a64b00" stroke="#a64b00" stroke-width="0" cx="-186.711" cy="244" r="21.3333"/>
<circle fill="#a64b00" stroke="#a64b00" stroke-width="0" cx="-65.6401" cy="64.7027" r="21.3333"/>
<circle fill="#a64b00" stroke="#a64b00" stroke-width="0" cx="575.965" cy="298.754" r="21.3333"/>
<circle fill="#a64b00" stroke="#a64b00" stroke-width="0" cx="784.539" cy="352.586" r="21.3333"/>
<circle fill="#a64b00" stroke="#a64b00" stroke-width="0" cx="235.363" cy="249.482" r="21.3333"/>
</svg>
