<?xml version="1.0" encoding="utf-8"?> <!-- Generator: Adobe Illustrator 13.0.0, SVG Export Plug-In . SVG Version: 6.00 Build 14948)  --> <svg version="1.2" baseProfile="tiny" id="Layer_1" xmlns="http://www.w3.org/2000/svg" xmlns:xlink="http://www.w3.org/1999/xlink" x="0px" y="0px" width="512px" height="512px" viewBox="0 0 512 512" xml:space="preserve">
<polygon points="0,0 512,0 512,512 0,512" style="fill:#ffffff; stroke:#000000;stroke-width:0"/>
<polygon points="-152.067,250.24 -113.289,232.442 -23.1589,428.813 -61.9362,446.611" style="fill:#006363; stroke:#000000;stroke-width:0"/>
<circle fill="#006363" stroke="#006363" stroke-width="0" cx="-132.678" cy="241.341" r="21.3333"/>
<circle fill="#006363" stroke="#006363" stroke-width="0" cx="-42.5476" cy="437.712" r="21.3333"/>
<polygon points="682.649,178.343 716.217,204.68 584.172,372.977 550.605,346.64" style="fill:#006363; stroke:#000000;stroke-width:0"/>
<circle fill="#006363" stroke="#006363" stroke-width="0" cx="699.433" cy="191.511" r="21.3333"/>
<circle fill="#006363" stroke="#006363" stroke-width="0" cx="567.388" cy="359.808" r="21.3333"/>
<polygon points="1256,469.333 256,1469.33 -744,469.333" style="fill:#000000; stroke:#000000;stroke-width:0"/>
<polygon points="-744,42.6667 256,-957.333 1256,42.6667" style="fill:#000000; stroke:#000000;stroke-width:0"/>
<circle fill="#a64b00" stroke="#a64b00" stroke-width="0" cx="-132.678" cy="241.341" r="21.3333"/>
<circle fill="#a64b00" stroke="#a64b00" stroke-width="0" cx="-42.5476" cy="437.712" r="21.3333"/>
<circle fill="#a64b00" stroke="#a64b00" stroke-width="0" cx="699.433" cy="191.511" r="21.3333"/>
<circle fill="#a64b00" stroke="#a64b00" stroke-width="0" cx="567.388" cy="359.808" r="21.3333"/>
<circle fill="#a64b00" stroke="#a64b00" stroke-width="0" cx="323.055" cy="87.2932" r="21.3333"/>
</svg>
