<?xml version="1.0" encoding="utf-8"?> <!-- Generator: Adobe Illustrator 13.0.0, SVG Export Plug-In . SVG Version: 6.00 Build 14948)  --> <svg version="1.2" baseProfile="tiny" id="Layer_1" xmlns="http://www.w3.org/2000/svg" xmlns:xlink="http://www.w3.org/1999/xlink" x="0px" y="0px" width="512px" height="512px" viewBox="0 0 512 512" xml:space="preserve">
<polygon points="0,0 512,0 512,512 0,512" style="fill:#ffffff; stroke:#000000;stroke-width:0"/>
<polygon points="-88.8542,263.083 -61.2267,295.597 -219.636,430.2 -247.264,397.686" style="fill:#006363; stroke:#000000;stroke-width:0"/>
<circle fill="#006363" stroke="#006363" stroke-width="0" cx="-75.0404" cy="279.34" r="21.3333"/>
<circle fill="#006363" stroke="#006363" stroke-width="0" cx="-233.45" cy="413.943" r="21.3333"/>
<polygon points="679.404,436.599 642.461,415.253 749.291,230.366 786.234,251.712" style="fill:#006363; stroke:#000000;stroke-width:0"/>
<circle fill="#006363" stroke="#006363" stroke-width="0" cx="660.933" cy="425.926" r="21.3333"/>
<circle fill="#006363" stroke="#006363" stroke-width="0" cx="767.763" cy="241.039" r="21.3333"/>
<polygon points="1256,469.333 256,1469.33 -744,469.333" style="fill:#000000; stroke:#000000;stroke-width:0"/>
<polygon points="-744,42.6667 256,-957.333 1256,42.6667" style="fill:#000000; stroke:#000000;stroke-width:0"/>
<circle fill="#a64b00" stroke="#a64b00" stroke-width="0" cx="-75.0404" cy="279.34" r="21.3333"/>
<circle fill="#a64b00" stroke="#a64b00" stroke-width="0" cx="-233.45" cy="413.943" r="21.3333"/>
<circle fill="#a64b00" stroke="#a64b00" stroke-width="0" cx="660.933" cy="425.926" r="21.3333"/>
<circle fill="#a64b00" stroke="#a64b00" stroke-width="0" cx="767.763" cy="241.039" r="21.3333"/>
<circle fill="#a64b00" stroke="#a64b00" stroke-width="0" cx="171.533" cy="106.374" r="21.3333"/>
</svg>
