<?xml version="1.0" encoding="utf-8"?> <!-- Generator: Adobe Illustrator 13.0.0, SVG Export Plug-In . SVG Version: 6.00 Build 14948)  --> <svg version="1.2" baseProfile="tiny" id="Layer_1" xmlns="http://www.w3.org/2000/svg" xmlns:xlink="http://www.w3.org/1999/xlink" x="0px" y="0px" width="512px" height="512px" viewBox="0 0 512 512" xml:space="preserve">
<polygon points="0,0 512,0 512,512 0,512" style="fill:#ffffff; stroke:#000000;stroke-width:0"/>
<polygon points="-279.257,330.875 -321.525,325.056 -291.567,107.45 -249.299,113.27" style="fill:#006363; stroke:#000000;stroke-width:0"/>
<circle fill="#006363" stroke="#006363" stroke-width="0" cx="-300.391" cy="327.966" r="21.3333"/>
<circle fill="#006363" stroke="#006363" stroke-width="0" cx="-270.433" cy="110.36" r="21.3333"/>
<polygon points="793.106,269.66 826.732,243.397 954.238,406.654 920.612,432.917" style="fill:#006363; stroke:#000000;stroke-width:0"/>
<circle fill="#006363" stroke="#006363" stroke-width="0" cx="809.919" cy="256.529" r="21.3333"/>
<circle fill="#006363" stroke="#006363" stroke-width="0" cx="937.425" cy="419.786" r="21.3333"/>
<polygon points="1256,469.333 256,1469.33 -744,469.333" style="fill:#000000; stroke:#000000;stroke-width:0"/>
<polygon points="-744,42.6667 256,-957.333 1256,42.6667" style="fill:#000000; stroke:#000000;stroke-width:0"/>
<circle fill="#a64b00" stroke="#a64b00" stroke-width="0" cx="-300.391" cy="327.966" r="21.3333"/>
<circle fill="#a64b00" stroke="#a64b00" stroke-width="0" cx="-270.433" cy="110.36" r="21.3333"/>
<circle fill="#a64b00" stroke="#a64b00" stroke-width="0" cx="809.919" cy="256.529" r="21.3333"/>
<circle fill="#a64b00" stroke="#a64b00" stroke-width="0" cx="937.425" cy="419.786" r="21.3333"/>
<circle fill="#a64b00" stroke="#a64b00" stroke-width="0" cx="-126.738" cy="182.698" r="21.3333"/>
</svg>
