<?xml version="1.0" encoding="utf-8"?> <!-- Generator: Adobe Illustrator 13.0.0, SVG Export Plug-In . SVG Version: 6.00 Build 14948)  --> <svg version="1.2" baseProfile="tiny" id="Layer_1" xmlns="http://www.w3.org/2000/svg" xmlns:xlink="http://www.w3.org/1999/xlink" x="0px" y="0px" width="512px" height="512px" viewBox="0 0 512 512" xml:space="preserve">
<polygon points="0,0 512,0 512,512 0,512" style="fill:#ffffff; stroke:#000000;stroke-width:0"/>
<polygon points="8.85953,69.5293 51.4747,67.4331 61.8161,277.671 19.2009,279.767" style="fill:#006363; stroke:#000000;stroke-width:0"/>
<circle fill="#006363" stroke="#006363" stroke-width="0" cx="30.1671" cy="68.4812" r="21.3333"/>
<circle fill="#006363" stroke="#006363" stroke-width="0" cx="40.5085" cy="278.719" r="21.3333"/>
<polygon points="455.875,200.57 498.459,197.913 511.838,412.38 469.254,415.036" style="fill:#006363; stroke:#000000;stroke-width:0"/>
<circle fill="#006363" stroke="#006363" stroke-width="0" cx="477.167" cy="199.242" r="21.3333"/>
<circle fill="#006363" stroke="#006363" stroke-width="0" cx="490.546" cy="413.708" r="21.3333"/>
<polygon points="1256,469.333 256,1469.33 -744,469.333" style="fill:#000000; stroke:#000000;stroke-width:0"/>
<polygon points="-744,42.6667 256,-957.333 1256,42.6667" style="fill:#000000; stroke:#000000;stroke-width:0"/>
<circle fill="#a64b00" stroke="#a64b00" stroke-width="0" cx="30.1671" cy="68.4812" r="21.3333"/>
<circle fill="#a64b00" stroke="#a64b00" stroke-width="0" cx="40.5085" cy="278.719" r="21.3333"/>
<circle fill="#a64b00" stroke="#a64b00" stroke-width="0" cx="477.167" cy="199.242" r="21.3333"/>
<circle fill="#a64b00" stroke="#a64b00" stroke-width="0" cx="490.546" cy="413.708" r="21.3333"/>
<circle fill="#a64b00" stroke="#a64b00" stroke-width="0" cx="86.4995" cy="281.393" r="21.3333"/>
</svg>
