<?xml version="1.0" encoding="utf-8"?> <!-- Generator: Adobe Illustrator 13.0.0, SVG Export Plug-In . SVG Version: 6.00 Build 14948)  --> <svg version="1.2" baseProfile="tiny" id="Layer_1" xmlns="http://www.w3.org/2000/svg" xmlns:xlink="http://www.w3.org/1999/xlink" x="0px" y="0px" width="512px" height="512px" viewBox="0 0 512 512" xml:space="preserve">
<polygon points="0,0 512,0 512,512 0,512" style="fill:#ffffff; stroke:#000000;stroke-width:0"/>
<polygon points="-106.78,90.0009 -64.4178,84.9158 -39.0638,296.133 -81.4264,301.218" style="fill:#006363; stroke:#000000;stroke-width:0"/>
<circle fill="#006363" stroke="#006363" stroke-width="0" cx="-85.5991" cy="87.4584" r="21.3333"/>
<circle fill="#006363" stroke="#006363" stroke-width="0" cx="-60.2451" cy="298.676" r="21.3333"/>
<polygon points="718.144,219.421 724.563,261.602 512.989,293.795 506.57,251.614" style="fill:#006363; stroke:#000000;stroke-width:0"/>
<circle fill="#006363" stroke="#006363" stroke-width="0" cx="721.353" cy="240.512" r="21.3333"/>
<circle fill="#006363" stroke="#006363" stroke-width="0" cx="509.779" cy="272.704" r="21.3333"/>
<polygon points="1256,469.333 256,1469.33 -744,469.333" style="fill:#000000; stroke:#000000;stroke-width:0"/>
<polygon points="-744,42.6667 256,-957.333 1256,42.6667" style="fill:#000000; stroke:#000000;stroke-width:0"/>
<circle fill="#a64b00" stroke="#a64b00" stroke-width="0" cx="-85.5991" cy="87.4584" r="21.3333"/>
<circle fill="#a64b00" stroke="#a64b00" stroke-width="0" cx="-60.2451" cy="298.676" r="21.3333"/>
<circle fill="#a64b00" stroke="#a64b00" stroke-width="0" cx="721.353" cy="240.512" r="21.3333"/>
<circle fill="#a64b00" stroke="#a64b00" stroke-width="0" cx="509.779" cy="272.704" r="21.3333"/>
<circle fill="#a64b00" stroke="#a64b00" stroke-width="0" cx="356.461" cy="278.104" r="21.3333"/>
</svg>
