<?xml version="1.0" encoding="utf-8"?> <!-- Generator: Adobe Illustrator 13.0.0, SVG Export Plug-In . SVG Version: 6.00 Build 14948)  --> <svg version="1.2" baseProfile="tiny" id="Layer_1" xmlns="http://www.w3.org/2000/svg" xmlns:xlink="http://www.w3.org/1999/xlink" x="0px" y="0px" width="512px" height="512px" viewBox="0 0 512 512" xml:space="preserve">
<polygon points="0,0 512,0 512,512 0,512" style="fill:#ffffff; stroke:#000000;stroke-width:0"/>
<polygon points="-189.341,426.356 -208.856,388.414 -24.7098,293.699 -5.19445,331.641" style="fill:#006363; stroke:#000000;stroke-width:0"/>
<circle fill="#006363" stroke="#006363" stroke-width="0" cx="-199.099" cy="407.385" r="21.3333"/>
<circle fill="#006363" stroke="#006363" stroke-width="0" cx="-14.9521" cy="312.67" r="21.3333"/>
<polygon points="601.864,207.115 642.17,193.119 712.118,394.555 671.812,408.551" style="fill:#006363; stroke:#000000;stroke-width:0"/>
<circle fill="#006363" stroke="#006363" stroke-width="0" cx="622.017" cy="200.117" r="21.3333"/>
<circle fill="#006363" stroke="#006363" stroke-width="0" cx="691.965" cy="401.553" r="21.3333"/>
<polygon points="1256,469.333 256,1469.33 -744,469.333" style="fill:#000000; stroke:#000000;stroke-width:0"/>
<polygon points="-744,42.6667 256,-957.333 1256,42.6667" style="fill:#000000; stroke:#000000;stroke-width:0"/>
<circle fill="#a64b00" stroke="#a64b00" stroke-width="0" cx="-199.099" cy="407.385" r="21.3333"/>
<circle fill="#a64b00" stroke="#a64b00" stroke-width="0" cx="-14.9521" cy="312.67" r="21.3333"/>
<circle fill="#a64b00" stroke="#a64b00" stroke-width="0" cx="622.017" cy="200.117" r="21.3333"/>
<circle fill="#a64b00" stroke="#a64b00" stroke-width="0" cx="691.965" cy="401.553" r="21.3333"/>
<circle fill="#a64b00" stroke="#a64b00" stroke-width="0" cx="278.91" cy="163.617" r="21.3333"/>
</svg>
