<?xml version="1.0" encoding="utf-8"?> <!-- Generator: Adobe Illustrator 13.0.0, SVG Export Plug-In . SVG Version: 6.00 Build 14948)  --> <svg version="1.2" baseProfile="tiny" id="Layer_1" xmlns="http://www.w3.org/2000/svg" xmlns:xlink="http://www.w3.org/1999/xlink" x="0px" y="0px" width="512px" height="512px" viewBox="0 0 512 512" xml:space="preserve">
<polygon points="0,0 512,0 512,512 0,512" style="fill:#ffffff; stroke:#000000;stroke-width:0"/>
<polygon points="-168.154,263.228 -203.495,239.322 -83.148,61.4096 -47.8074,85.3154" style="fill:#006363; stroke:#000000;stroke-width:0"/>
<circle fill="#006363" stroke="#006363" stroke-width="0" cx="-185.824" cy="251.275" r="21.3333"/>
<circle fill="#006363" stroke="#006363" stroke-width="0" cx="-65.4777" cy="73.3625" r="21.3333"/>
<polygon points="569.849,315.75 581.594,274.732 789.381,334.23 777.636,375.248" style="fill:#006363; stroke:#000000;stroke-width:0"/>
<circle fill="#006363" stroke="#006363" stroke-width="0" cx="575.722" cy="295.241" r="21.3333"/>
<circle fill="#006363" stroke="#006363" stroke-width="0" cx="783.508" cy="354.739" r="21.3333"/>
<polygon points="1256,469.333 256,1469.33 -744,469.333" style="fill:#000000; stroke:#000000;stroke-width:0"/>
<polygon points="-744,42.6667 256,-957.333 1256,42.6667" style="fill:#000000; stroke:#000000;stroke-width:0"/>
<circle fill="#a64b00" stroke="#a64b00" stroke-width="0" cx="-185.824" cy="251.275" r="21.3333"/>
<circle fill="#a64b00" stroke="#a64b00" stroke-width="0" cx="-65.4777" cy="73.3625" r="21.3333"/>
<circle fill="#a64b00" stroke="#a64b00" stroke-width="0" cx="575.722" cy="295.241" r="21.3333"/>
<circle fill="#a64b00" stroke="#a64b00" stroke-width="0" cx="783.508" cy="354.739" r="21.3333"/>
<circle fill="#a64b00" stroke="#a64b00" stroke-width="0" cx="236.556" cy="268.563" r="21.3333"/>
</svg>
