<?xml version="1.0" encoding="utf-8"?> <!-- Generator: Adobe Illustrator 13.0.0, SVG Export Plug-In . SVG Version: 6.00 Build 14948)  --> <svg version="1.2" baseProfile="tiny" id="Layer_1" xmlns="http://www.w3.org/2000/svg" xmlns:xlink="http://www.w3.org/1999/xlink" x="0px" y="0px" width="512px" height="512px" viewBox="0 0 512 512" xml:space="preserve">
<polygon points="0,0 512,0 512,512 0,512" style="fill:#ffffff; stroke:#000000;stroke-width:0"/>
<polygon points="0.216991,86.9659 42.7406,83.4751 60.6174,301.243 18.0937,304.734" style="fill:#006363; stroke:#000000;stroke-width:0"/>
<circle fill="#006363" stroke="#006363" stroke-width="0" cx="21.4788" cy="85.2205" r="21.3333"/>
<circle fill="#006363" stroke="#006363" stroke-width="0" cx="39.3556" cy="302.988" r="21.3333"/>
<polygon points="458.209,237.312 500.7,233.439 519.945,444.589 477.455,448.462" style="fill:#006363; stroke:#000000;stroke-width:0"/>
<circle fill="#006363" stroke="#006363" stroke-width="0" cx="479.455" cy="235.375" r="21.3333"/>
<circle fill="#006363" stroke="#006363" stroke-width="0" cx="498.7" cy="446.526" r="21.3333"/>
<polygon points="1256,469.333 256,1469.33 -744,469.333" style="fill:#000000; stroke:#000000;stroke-width:0"/>
<polygon points="-744,42.6667 256,-957.333 1256,42.6667" style="fill:#000000; stroke:#000000;stroke-width:0"/>
<circle fill="#a64b00" stroke="#a64b00" stroke-width="0" cx="21.4788" cy="85.2205" r="21.3333"/>
<circle fill="#a64b00" stroke="#a64b00" stroke-width="0" cx="39.3556" cy="302.988" r="21.3333"/>
<circle fill="#a64b00" stroke="#a64b00" stroke-width="0" cx="479.455" cy="235.375" r="21.3333"/>
<circle fill="#a64b00" stroke="#a64b00" stroke-width="0" cx="498.7" cy="446.526" r="21.3333"/>
<circle fill="#a64b00" stroke="#a64b00" stroke-width="0" cx="293.081" cy="362.252" r="21.3333"/>
</svg>
