<?xml version="1.0" encoding="utf-8"?> <!-- Generator: Adobe Illustrator 13.0.0, SVG Export Plug-In . SVG Version: 6.00 Build 14948)  --> <svg version="1.2" baseProfile="tiny" id="Layer_1" xmlns="http://www.w3.org/2000/svg" xmlns:xlink="http://www.w3.org/1999/xlink" x="0px" y="0px" width="512px" height="512px" viewBox="0 0 512 512" xml:space="preserve">
<polygon points="0,0 512,0 512,512 0,512" style="fill:#ffffff; stroke:#000000;stroke-width:0"/>
<polygon points="-169.14,294.246 -152.08,333.354 -339.773,415.232 -356.833,376.124" style="fill:#006363; stroke:#000000;stroke-width:0"/>
<circle fill="#006363" stroke="#006363" stroke-width="0" cx="-160.61" cy="313.8" r="21.3333"/>
<circle fill="#006363" stroke="#006363" stroke-width="0" cx="-348.303" cy="395.678" r="21.3333"/>
<polygon points="731.777,398.252 723.606,356.375 940.367,314.084 948.537,355.961" style="fill:#006363; stroke:#000000;stroke-width:0"/>
<circle fill="#006363" stroke="#006363" stroke-width="0" cx="727.691" cy="377.313" r="21.3333"/>
<circle fill="#006363" stroke="#006363" stroke-width="0" cx="944.452" cy="335.023" r="21.3333"/>
<polygon points="1256,469.333 256,1469.33 -744,469.333" style="fill:#000000; stroke:#000000;stroke-width:0"/>
<polygon points="-744,42.6667 256,-957.333 1256,42.6667" style="fill:#000000; stroke:#000000;stroke-width:0"/>
<circle fill="#a64b00" stroke="#a64b00" stroke-width="0" cx="-160.61" cy="313.8" r="21.3333"/>
<circle fill="#a64b00" stroke="#a64b00" stroke-width="0" cx="-348.303" cy="395.678" r="21.3333"/>
<circle fill="#a64b00" stroke="#a64b00" stroke-width="0" cx="727.691" cy="377.313" r="21.3333"/>
<circle fill="#a64b00" stroke="#a64b00" stroke-width="0" cx="944.452" cy="335.023" r="21.3333"/>
<circle fill="#a64b00" stroke="#a64b00" stroke-width="0" cx="-56.3461" cy="278.104" r="21.3333"/>
</svg>
