<?xml version="1.0" encoding="utf-8"?> <!-- Generator: Adobe Illustrator 13.0.0, SVG Export Plug-In . SVG Version: 6.00 Build 14948)  --> <svg version="1.2" baseProfile="tiny" id="Layer_1" xmlns="http://www.w3.org/2000/svg" xmlns:xlink="http://www.w3.org/1999/xlink" x="0px" y="0px" width="512px" height="512px" viewBox="0 0 512 512" xml:space="preserve">
<polygon points="0,0 512,0 512,512 0,512" style="fill:#ffffff; stroke:#000000;stroke-width:0"/>
<polygon points="-5.63782,107.033 36.7912,102.536 59.6496,318.207 17.2206,322.704" style="fill:#006363; stroke:#000000;stroke-width:0"/>
<circle fill="#006363" stroke="#006363" stroke-width="0" cx="15.5767" cy="104.784" r="21.3333"/>
<circle fill="#006363" stroke="#006363" stroke-width="0" cx="38.4351" cy="320.456" r="21.3333"/>
<polygon points="455.838,212.094 498.034,205.771 529.417,415.183 487.222,421.507" style="fill:#006363; stroke:#000000;stroke-width:0"/>
<circle fill="#006363" stroke="#006363" stroke-width="0" cx="476.936" cy="208.933" r="21.3333"/>
<circle fill="#006363" stroke="#006363" stroke-width="0" cx="508.319" cy="418.345" r="21.3333"/>
<polygon points="1256,469.333 256,1469.33 -744,469.333" style="fill:#000000; stroke:#000000;stroke-width:0"/>
<polygon points="-744,42.6667 256,-957.333 1256,42.6667" style="fill:#000000; stroke:#000000;stroke-width:0"/>
<circle fill="#a64b00" stroke="#a64b00" stroke-width="0" cx="15.5767" cy="104.784" r="21.3333"/>
<circle fill="#a64b00" stroke="#a64b00" stroke-width="0" cx="38.4351" cy="320.456" r="21.3333"/>
<circle fill="#a64b00" stroke="#a64b00" stroke-width="0" cx="476.936" cy="208.933" r="21.3333"/>
<circle fill="#a64b00" stroke="#a64b00" stroke-width="0" cx="508.319" cy="418.345" r="21.3333"/>
<circle fill="#a64b00" stroke="#a64b00" stroke-width="0" cx="446.608" cy="419.013" r="21.3333"/>
</svg>
