<?xml version="1.0" encoding="utf-8"?> <!-- Generator: Adobe Illustrator 13.0.0, SVG Export Plug-In . SVG Version: 6.00 Build 14948)  --> <svg version="1.2" baseProfile="tiny" id="Layer_1" xmlns="http://www.w3.org/2000/svg" xmlns:xlink="http://www.w3.org/1999/xlink" x="0px" y="0px" width="512px" height="512px" viewBox="0 0 512 512" xml:space="preserve">
<polygon points="0,0 512,0 512,512 0,512" style="fill:#ffffff; stroke:#000000;stroke-width:0"/>
<polygon points="-57.7962,352.281 -67.4953,393.831 -281.125,343.962 -271.426,302.413" style="fill:#006363; stroke:#000000;stroke-width:0"/>
<circle fill="#006363" stroke="#006363" stroke-width="0" cx="-62.6458" cy="373.056" r="21.3333"/>
<circle fill="#006363" stroke="#006363" stroke-width="0" cx="-276.275" cy="323.188" r="21.3333"/>
<polygon points="717.469,341.028 677.296,326.655 748.19,128.511 788.362,142.884" style="fill:#006363; stroke:#000000;stroke-width:0"/>
<circle fill="#006363" stroke="#006363" stroke-width="0" cx="697.383" cy="333.841" r="21.3333"/>
<circle fill="#006363" stroke="#006363" stroke-width="0" cx="768.276" cy="135.697" r="21.3333"/>
<polygon points="1256,469.333 256,1469.33 -744,469.333" style="fill:#000000; stroke:#000000;stroke-width:0"/>
<polygon points="-744,42.6667 256,-957.333 1256,42.6667" style="fill:#000000; stroke:#000000;stroke-width:0"/>
<circle fill="#a64b00" stroke="#a64b00" stroke-width="0" cx="-62.6458" cy="373.056" r="21.3333"/>
<circle fill="#a64b00" stroke="#a64b00" stroke-width="0" cx="-276.275" cy="323.188" r="21.3333"/>
<circle fill="#a64b00" stroke="#a64b00" stroke-width="0" cx="697.383" cy="333.841" r="21.3333"/>
<circle fill="#a64b00" stroke="#a64b00" stroke-width="0" cx="768.276" cy="135.697" r="21.3333"/>
<circle fill="#a64b00" stroke="#a64b00" stroke-width="0" cx="136.933" cy="239.942" r="21.3333"/>
</svg>
