<?xml version="1.0" encoding="utf-8"?> <!-- Generator: Adobe Illustrator 13.0.0, SVG Export Plug-In . SVG Version: 6.00 Build 14948)  --> <svg version="1.2" baseProfile="tiny" id="Layer_1" xmlns="http://www.w3.org/2000/svg" xmlns:xlink="http://www.w3.org/1999/xlink" x="0px" y="0px" width="512px" height="512px" viewBox="0 0 512 512" xml:space="preserve">
<polygon points="0,0 512,0 512,512 0,512" style="fill:#ffffff; stroke:#000000;stroke-width:0"/>
<polygon points="-109.679,150.727 -84.7335,116.112 87.1309,239.966 62.1858,274.581" style="fill:#006363; stroke:#000000;stroke-width:0"/>
<circle fill="#006363" stroke="#006363" stroke-width="0" cx="-97.2061" cy="133.42" r="21.3333"/>
<circle fill="#006363" stroke="#006363" stroke-width="0" cx="74.6584" cy="257.274" r="21.3333"/>
<polygon points="439.959,215.43 433.984,173.184 644.986,143.341 650.961,185.587" style="fill:#006363; stroke:#000000;stroke-width:0"/>
<circle fill="#006363" stroke="#006363" stroke-width="0" cx="436.971" cy="194.307" r="21.3333"/>
<circle fill="#006363" stroke="#006363" stroke-width="0" cx="647.974" cy="164.464" r="21.3333"/>
<polygon points="1256,469.333 256,1469.33 -744,469.333" style="fill:#000000; stroke:#000000;stroke-width:0"/>
<polygon points="-744,42.6667 256,-957.333 1256,42.6667" style="fill:#000000; stroke:#000000;stroke-width:0"/>
<circle fill="#a64b00" stroke="#a64b00" stroke-width="0" cx="-97.2061" cy="133.42" r="21.3333"/>
<circle fill="#a64b00" stroke="#a64b00" stroke-width="0" cx="74.6584" cy="257.274" r="21.3333"/>
<circle fill="#a64b00" stroke="#a64b00" stroke-width="0" cx="436.971" cy="194.307" r="21.3333"/>
<circle fill="#a64b00" stroke="#a64b00" stroke-width="0" cx="647.974" cy="164.464" r="21.3333"/>
<circle fill="#a64b00" stroke="#a64b00" stroke-width="0" cx="138.938" cy="153.245" r="21.3333"/>
</svg>
