<?xml version="1.0" encoding="utf-8"?> <!-- Generator: Adobe Illustrator 13.0.0, SVG Export Plug-In . SVG Version: 6.00 Build 14948)  --> <svg version="1.2" baseProfile="tiny" id="Layer_1" xmlns="http://www.w3.org/2000/svg" xmlns:xlink="http://www.w3.org/1999/xlink" x="0px" y="0px" width="512px" height="512px" viewBox="0 0 512 512" xml:space="preserve">
<polygon points="0,0 512,0 512,512 0,512" style="fill:#ffffff; stroke:#000000;stroke-width:0"/>
<polygon points="-157.54,462.068 -192.374,437.43 -67.5285,260.921 -32.6945,285.559" style="fill:#006363; stroke:#000000;stroke-width:0"/>
<circle fill="#006363" stroke="#006363" stroke-width="0" cx="-174.957" cy="449.749" r="21.3333"/>
<circle fill="#006363" stroke="#006363" stroke-width="0" cx="-50.1115" cy="273.24" r="21.3333"/>
<polygon points="584.07,232.546 618.88,207.874 743.295,383.413 708.484,408.085" style="fill:#006363; stroke:#000000;stroke-width:0"/>
<circle fill="#006363" stroke="#006363" stroke-width="0" cx="601.475" cy="220.21" r="21.3333"/>
<circle fill="#006363" stroke="#006363" stroke-width="0" cx="725.89" cy="395.749" r="21.3333"/>
<polygon points="1256,469.333 256,1469.33 -744,469.333" style="fill:#000000; stroke:#000000;stroke-width:0"/>
<polygon points="-744,42.6667 256,-957.333 1256,42.6667" style="fill:#000000; stroke:#000000;stroke-width:0"/>
<circle fill="#a64b00" stroke="#a64b00" stroke-width="0" cx="-174.957" cy="449.749" r="21.3333"/>
<circle fill="#a64b00" stroke="#a64b00" stroke-width="0" cx="-50.1115" cy="273.24" r="21.3333"/>
<circle fill="#a64b00" stroke="#a64b00" stroke-width="0" cx="601.475" cy="220.21" r="21.3333"/>
<circle fill="#a64b00" stroke="#a64b00" stroke-width="0" cx="725.89" cy="395.749" r="21.3333"/>
<circle fill="#a64b00" stroke="#a64b00" stroke-width="0" cx="266.383" cy="154.077" r="21.3333"/>
</svg>
