<?xml version="1.0" encoding="utf-8"?> <!-- Generator: Adobe Illustrator 13.0.0, SVG Export Plug-In . SVG Version: 6.00 Build 14948)  --> <svg version="1.2" baseProfile="tiny" id="Layer_1" xmlns="http://www.w3.org/2000/svg" xmlns:xlink="http://www.w3.org/1999/xlink" x="0px" y="0px" width="512px" height="512px" viewBox="0 0 512 512" xml:space="preserve">
<polygon points="0,0 512,0 512,512 0,512" style="fill:#ffffff; stroke:#000000;stroke-width:0"/>
<polygon points="-119.35,133.95 -98.9704,96.4652 89.9817,199.194 69.602,236.679" style="fill:#006363; stroke:#000000;stroke-width:0"/>
<circle fill="#006363" stroke="#006363" stroke-width="0" cx="-109.16" cy="115.208" r="21.3333"/>
<circle fill="#006363" stroke="#006363" stroke-width="0" cx="79.7919" cy="217.937" r="21.3333"/>
<polygon points="450.524,235.478 437.598,194.816 641.338,130.053 654.264,170.715" style="fill:#006363; stroke:#000000;stroke-width:0"/>
<circle fill="#006363" stroke="#006363" stroke-width="0" cx="444.061" cy="215.147" r="21.3333"/>
<circle fill="#006363" stroke="#006363" stroke-width="0" cx="647.801" cy="150.384" r="21.3333"/>
<polygon points="1256,469.333 256,1469.33 -744,469.333" style="fill:#000000; stroke:#000000;stroke-width:0"/>
<polygon points="-744,42.6667 256,-957.333 1256,42.6667" style="fill:#000000; stroke:#000000;stroke-width:0"/>
<circle fill="#a64b00" stroke="#a64b00" stroke-width="0" cx="-109.16" cy="115.208" r="21.3333"/>
<circle fill="#a64b00" stroke="#a64b00" stroke-width="0" cx="79.7919" cy="217.937" r="21.3333"/>
<circle fill="#a64b00" stroke="#a64b00" stroke-width="0" cx="444.061" cy="215.147" r="21.3333"/>
<circle fill="#a64b00" stroke="#a64b00" stroke-width="0" cx="647.801" cy="150.384" r="21.3333"/>
<circle fill="#a64b00" stroke="#a64b00" stroke-width="0" cx="267.954" cy="68.7582" r="21.3333"/>
</svg>
