<?xml version="1.0" encoding="utf-8"?> <!-- Generator: Adobe Illustrator 13.0.0, SVG Export Plug-In . SVG Version: 6.00 Build 14948)  --> <svg version="1.2" baseProfile="tiny" id="Layer_1" xmlns="http://www.w3.org/2000/svg" xmlns:xlink="http://www.w3.org/1999/xlink" x="0px" y="0px" width="512px" height="512px" viewBox="0 0 512 512" xml:space="preserve">
<polygon points="0,0 512,0 512,512 0,512" style="fill:#ffffff; stroke:#000000;stroke-width:0"/>
<polygon points="-143.579,224.346 -134.724,266.084 -334.379,308.44 -343.233,266.702" style="fill:#006363; stroke:#000000;stroke-width:0"/>
<circle fill="#006363" stroke="#006363" stroke-width="0" cx="-139.152" cy="245.215" r="21.3333"/>
<circle fill="#006363" stroke="#006363" stroke-width="0" cx="-338.806" cy="287.571" r="21.3333"/>
<polygon points="752.826,453.393 723.951,421.982 881.717,276.954 910.592,308.365" style="fill:#006363; stroke:#000000;stroke-width:0"/>
<circle fill="#006363" stroke="#006363" stroke-width="0" cx="738.388" cy="437.687" r="21.3333"/>
<circle fill="#006363" stroke="#006363" stroke-width="0" cx="896.154" cy="292.66" r="21.3333"/>
<polygon points="1256,469.333 256,1469.33 -744,469.333" style="fill:#000000; stroke:#000000;stroke-width:0"/>
<polygon points="-744,42.6667 256,-957.333 1256,42.6667" style="fill:#000000; stroke:#000000;stroke-width:0"/>
<circle fill="#a64b00" stroke="#a64b00" stroke-width="0" cx="-139.152" cy="245.215" r="21.3333"/>
<circle fill="#a64b00" stroke="#a64b00" stroke-width="0" cx="-338.806" cy="287.571" r="21.3333"/>
<circle fill="#a64b00" stroke="#a64b00" stroke-width="0" cx="738.388" cy="437.687" r="21.3333"/>
<circle fill="#a64b00" stroke="#a64b00" stroke-width="0" cx="896.154" cy="292.66" r="21.3333"/>
<circle fill="#a64b00" stroke="#a64b00" stroke-width="0" cx="-21.1502" cy="58.6716" r="21.3333"/>
</svg>
