<?xml version="1.0" encoding="utf-8"?> <!-- Generator: Adobe Illustrator 13.0.0, SVG Export Plug-In . SVG Version: 6.00 Build 14948)  --> <svg version="1.2" baseProfile="tiny" id="Layer_1" xmlns="http://www.w3.org/2000/svg" xmlns:xlink="http://www.w3.org/1999/xlink" x="0px" y="0px" width="512px" height="512px" viewBox="0 0 512 512" xml:space="preserve">
<polygon points="0,0 512,0 512,512 0,512" style="fill:#ffffff; stroke:#000000;stroke-width:0"/>
<polygon points="-163.217,329.317 -153.125,370.773 -366.683,422.762 -376.775,381.306" style="fill:#006363; stroke:#000000;stroke-width:0"/>
<circle fill="#006363" stroke="#006363" stroke-width="0" cx="-158.171" cy="350.045" r="21.3333"/>
<circle fill="#006363" stroke="#006363" stroke-width="0" cx="-371.729" cy="402.034" r="21.3333"/>
<polygon points="742.721,352.35 750.395,310.379 954.914,347.775 947.24,389.746" style="fill:#006363; stroke:#000000;stroke-width:0"/>
<circle fill="#006363" stroke="#006363" stroke-width="0" cx="746.558" cy="331.365" r="21.3333"/>
<circle fill="#006363" stroke="#006363" stroke-width="0" cx="951.077" cy="368.76" r="21.3333"/>
<polygon points="1256,469.333 256,1469.33 -744,469.333" style="fill:#000000; stroke:#000000;stroke-width:0"/>
<polygon points="-744,42.6667 256,-957.333 1256,42.6667" style="fill:#000000; stroke:#000000;stroke-width:0"/>
<circle fill="#a64b00" stroke="#a64b00" stroke-width="0" cx="-158.171" cy="350.045" r="21.3333"/>
<circle fill="#a64b00" stroke="#a64b00" stroke-width="0" cx="-371.729" cy="402.034" r="21.3333"/>
<circle fill="#a64b00" stroke="#a64b00" stroke-width="0" cx="746.558" cy="331.365" r="21.3333"/>
<circle fill="#a64b00" stroke="#a64b00" stroke-width="0" cx="951.077" cy="368.76" r="21.3333"/>
<circle fill="#a64b00" stroke="#a64b00" stroke-width="0" cx="-80.2078" cy="220.861" r="21.3333"/>
</svg>
