<?xml version="1.0" encoding="utf-8"?> <!-- Generator: Adobe Illustrator 13.0.0, SVG Export Plug-In . SVG Version: 6.00 Build 14948)  --> <svg version="1.2" baseProfile="tiny" id="Layer_1" xmlns="http://www.w3.org/2000/svg" xmlns:xlink="http://www.w3.org/1999/xlink" x="0px" y="0px" width="512px" height="512px" viewBox="0 0 512 512" xml:space="preserve">
<polygon points="0,0 512,0 512,512 0,512" style="fill:#ffffff; stroke:#000000;stroke-width:0"/>
<polygon points="-125.372,112.986 -112.33,72.3619 86.0351,136.047 72.9926,176.672" style="fill:#006363; stroke:#000000;stroke-width:0"/>
<circle fill="#006363" stroke="#006363" stroke-width="0" cx="-118.851" cy="92.6741" r="21.3333"/>
<circle fill="#006363" stroke="#006363" stroke-width="0" cx="79.5139" cy="156.359" r="21.3333"/>
<polygon points="472.645,261.252 450.199,224.967 629.327,114.16 651.773,150.445" style="fill:#006363; stroke:#000000;stroke-width:0"/>
<circle fill="#006363" stroke="#006363" stroke-width="0" cx="461.422" cy="243.109" r="21.3333"/>
<circle fill="#006363" stroke="#006363" stroke-width="0" cx="640.55" cy="132.302" r="21.3333"/>
<polygon points="1256,469.333 256,1469.33 -744,469.333" style="fill:#000000; stroke:#000000;stroke-width:0"/>
<polygon points="-744,42.6667 256,-957.333 1256,42.6667" style="fill:#000000; stroke:#000000;stroke-width:0"/>
<circle fill="#a64b00" stroke="#a64b00" stroke-width="0" cx="-118.851" cy="92.6741" r="21.3333"/>
<circle fill="#a64b00" stroke="#a64b00" stroke-width="0" cx="79.5139" cy="156.359" r="21.3333"/>
<circle fill="#a64b00" stroke="#a64b00" stroke-width="0" cx="461.422" cy="243.109" r="21.3333"/>
<circle fill="#a64b00" stroke="#a64b00" stroke-width="0" cx="640.55" cy="132.302" r="21.3333"/>
<circle fill="#a64b00" stroke="#a64b00" stroke-width="0" cx="456.517" cy="179.241" r="21.3333"/>
</svg>
