<?xml version="1.0" encoding="utf-8"?> <!-- Generator: Adobe Illustrator 13.0.0, SVG Export Plug-In . SVG Version: 6.00 Build 14948)  --> <svg version="1.2" baseProfile="tiny" id="Layer_1" xmlns="http://www.w3.org/2000/svg" xmlns:xlink="http://www.w3.org/1999/xlink" x="0px" y="0px" width="512px" height="512px" viewBox="0 0 512 512" xml:space="preserve">
<polygon points="0,0 512,0 512,512 0,512" style="fill:#ffffff; stroke:#000000;stroke-width:0"/>
<polygon points="-249.609,343.937 -292.011,348.682 -315.968,134.614 -273.566,129.868" style="fill:#006363; stroke:#000000;stroke-width:0"/>
<circle fill="#006363" stroke="#006363" stroke-width="0" cx="-270.81" cy="346.31" r="21.3333"/>
<circle fill="#006363" stroke="#006363" stroke-width="0" cx="-294.767" cy="132.241" r="21.3333"/>
<polygon points="784.139,279.363 815.152,250.06 956.832,400.004 925.82,429.307" style="fill:#006363; stroke:#000000;stroke-width:0"/>
<circle fill="#006363" stroke="#006363" stroke-width="0" cx="799.645" cy="264.711" r="21.3333"/>
<circle fill="#006363" stroke="#006363" stroke-width="0" cx="941.326" cy="414.656" r="21.3333"/>
<polygon points="1256,469.333 256,1469.33 -744,469.333" style="fill:#000000; stroke:#000000;stroke-width:0"/>
<polygon points="-744,42.6667 256,-957.333 1256,42.6667" style="fill:#000000; stroke:#000000;stroke-width:0"/>
<circle fill="#a64b00" stroke="#a64b00" stroke-width="0" cx="-270.81" cy="346.31" r="21.3333"/>
<circle fill="#a64b00" stroke="#a64b00" stroke-width="0" cx="-294.767" cy="132.241" r="21.3333"/>
<circle fill="#a64b00" stroke="#a64b00" stroke-width="0" cx="799.645" cy="264.711" r="21.3333"/>
<circle fill="#a64b00" stroke="#a64b00" stroke-width="0" cx="941.326" cy="414.656" r="21.3333"/>
<circle fill="#a64b00" stroke="#a64b00" stroke-width="0" cx="-120.773" cy="87.2932" r="21.3333"/>
</svg>
