<?xml version="1.0" encoding="utf-8"?> <!-- Generator: Adobe Illustrator 13.0.0, SVG Export Plug-In . SVG Version: 6.00 Build 14948)  --> <svg version="1.2" baseProfile="tiny" id="Layer_1" xmlns="http://www.w3.org/2000/svg" xmlns:xlink="http://www.w3.org/1999/xlink" x="0px" y="0px" width="512px" height="512px" viewBox="0 0 512 512" xml:space="preserve">
<polygon points="0,0 512,0 512,512 0,512" style="fill:#ffffff; stroke:#000000;stroke-width:0"/>
<polygon points="-142.652,144.008 -120.43,107.585 60.8173,218.166 38.5954,254.588" style="fill:#006363; stroke:#000000;stroke-width:0"/>
<circle fill="#006363" stroke="#006363" stroke-width="0" cx="-131.541" cy="125.796" r="21.3333"/>
<circle fill="#006363" stroke="#006363" stroke-width="0" cx="49.7064" cy="236.377" r="21.3333"/>
<polygon points="606.029,319.781 563.485,323.01 547.353,110.424 589.897,107.195" style="fill:#006363; stroke:#000000;stroke-width:0"/>
<circle fill="#006363" stroke="#006363" stroke-width="0" cx="584.757" cy="321.395" r="21.3333"/>
<circle fill="#006363" stroke="#006363" stroke-width="0" cx="568.625" cy="108.81" r="21.3333"/>
<polygon points="1256,469.333 256,1469.33 -744,469.333" style="fill:#000000; stroke:#000000;stroke-width:0"/>
<polygon points="-744,42.6667 256,-957.333 1256,42.6667" style="fill:#000000; stroke:#000000;stroke-width:0"/>
<circle fill="#a64b00" stroke="#a64b00" stroke-width="0" cx="-131.541" cy="125.796" r="21.3333"/>
<circle fill="#a64b00" stroke="#a64b00" stroke-width="0" cx="49.7064" cy="236.377" r="21.3333"/>
<circle fill="#a64b00" stroke="#a64b00" stroke-width="0" cx="584.757" cy="321.395" r="21.3333"/>
<circle fill="#a64b00" stroke="#a64b00" stroke-width="0" cx="568.625" cy="108.81" r="21.3333"/>
<circle fill="#a64b00" stroke="#a64b00" stroke-width="0" cx="429.239" cy="220.861" r="21.3333"/>
</svg>
