<?xml version="1.0" encoding="utf-8"?> <!-- Generator: Adobe Illustrator 13.0.0, SVG Export Plug-In . SVG Version: 6.00 Build 14948)  --> <svg version="1.2" baseProfile="tiny" id="Layer_1" xmlns="http://www.w3.org/2000/svg" xmlns:xlink="http://www.w3.org/1999/xlink" x="0px" y="0px" width="512px" height="512px" viewBox="0 0 512 512" xml:space="preserve">
<polygon points="0,0 512,0 512,512 0,512" style="fill:#ffffff; stroke:#000000;stroke-width:0"/>
<polygon points="-73.3316,223.753 -72.8266,266.417 -286.576,268.947 -287.081,226.283" style="fill:#006363; stroke:#000000;stroke-width:0"/>
<circle fill="#006363" stroke="#006363" stroke-width="0" cx="-73.0791" cy="245.085" r="21.3333"/>
<circle fill="#006363" stroke="#006363" stroke-width="0" cx="-286.829" cy="247.615" r="21.3333"/>
<polygon points="742.853,277.08 701.257,267.583 748.297,61.5425 789.893,71.0391" style="fill:#006363; stroke:#000000;stroke-width:0"/>
<circle fill="#006363" stroke="#006363" stroke-width="0" cx="722.055" cy="272.332" r="21.3333"/>
<circle fill="#006363" stroke="#006363" stroke-width="0" cx="769.095" cy="66.2908" r="21.3333"/>
<polygon points="1256,469.333 256,1469.33 -744,469.333" style="fill:#000000; stroke:#000000;stroke-width:0"/>
<polygon points="-744,42.6667 256,-957.333 1256,42.6667" style="fill:#000000; stroke:#000000;stroke-width:0"/>
<circle fill="#a64b00" stroke="#a64b00" stroke-width="0" cx="-73.0791" cy="245.085" r="21.3333"/>
<circle fill="#a64b00" stroke="#a64b00" stroke-width="0" cx="-286.829" cy="247.615" r="21.3333"/>
<circle fill="#a64b00" stroke="#a64b00" stroke-width="0" cx="722.055" cy="272.332" r="21.3333"/>
<circle fill="#a64b00" stroke="#a64b00" stroke-width="0" cx="769.095" cy="66.2908" r="21.3333"/>
<circle fill="#a64b00" stroke="#a64b00" stroke-width="0" cx="113.072" cy="259.023" r="21.3333"/>
</svg>
