<?xml version="1.0" encoding="utf-8"?> <!-- Generator: Adobe Illustrator 13.0.0, SVG Export Plug-In . SVG Version: 6.00 Build 14948)  --> <svg version="1.2" baseProfile="tiny" id="Layer_1" xmlns="http://www.w3.org/2000/svg" xmlns:xlink="http://www.w3.org/1999/xlink" x="0px" y="0px" width="512px" height="512px" viewBox="0 0 512 512" xml:space="preserve">
<polygon points="0,0 512,0 512,512 0,512" style="fill:#ffffff; stroke:#000000;stroke-width:0"/>
<polygon points="-21.6269,162.031 20.4191,154.78 56.7763,365.59 14.7303,372.842" style="fill:#006363; stroke:#000000;stroke-width:0"/>
<circle fill="#006363" stroke="#006363" stroke-width="0" cx="-0.603879" cy="158.406" r="21.3333"/>
<circle fill="#006363" stroke="#006363" stroke-width="0" cx="35.7533" cy="369.216" r="21.3333"/>
<polygon points="449.585,142.539 489.898,128.565 560.336,331.777 520.022,345.75" style="fill:#006363; stroke:#000000;stroke-width:0"/>
<circle fill="#006363" stroke="#006363" stroke-width="0" cx="469.741" cy="135.552" r="21.3333"/>
<circle fill="#006363" stroke="#006363" stroke-width="0" cx="540.179" cy="338.764" r="21.3333"/>
<polygon points="1256,469.333 256,1469.33 -744,469.333" style="fill:#000000; stroke:#000000;stroke-width:0"/>
<polygon points="-744,42.6667 256,-957.333 1256,42.6667" style="fill:#000000; stroke:#000000;stroke-width:0"/>
<circle fill="#a64b00" stroke="#a64b00" stroke-width="0" cx="-0.603879" cy="158.406" r="21.3333"/>
<circle fill="#a64b00" stroke="#a64b00" stroke-width="0" cx="35.7533" cy="369.216" r="21.3333"/>
<circle fill="#a64b00" stroke="#a64b00" stroke-width="0" cx="469.741" cy="135.552" r="21.3333"/>
<circle fill="#a64b00" stroke="#a64b00" stroke-width="0" cx="540.179" cy="338.764" r="21.3333"/>
<circle fill="#a64b00" stroke="#a64b00" stroke-width="0" cx="367.68" cy="134.131" r="21.3333"/>
</svg>
