<?xml version="1.0" encoding="utf-8"?> <!-- Generator: Adobe Illustrator 13.0.0, SVG Export Plug-In . SVG Version: 6.00 Build 14948)  --> <svg version="1.2" baseProfile="tiny" id="Layer_1" xmlns="http://www.w3.org/2000/svg" xmlns:xlink="http://www.w3.org/1999/xlink" x="0px" y="0px" width="512px" height="512px" viewBox="0 0 512 512" xml:space="preserve">
<polygon points="0,0 512,0 512,512 0,512" style="fill:#ffffff; stroke:#000000;stroke-width:0"/>
<polygon points="-132.352,161.56 -91.3946,149.604 -31.8555,353.574 -72.8129,365.529" style="fill:#006363; stroke:#000000;stroke-width:0"/>
<circle fill="#006363" stroke="#006363" stroke-width="0" cx="-111.873" cy="155.582" r="21.3333"/>
<circle fill="#006363" stroke="#006363" stroke-width="0" cx="-52.3342" cy="359.551" r="21.3333"/>
<polygon points="701.377,188.582 726.279,223.228 552.061,348.448 527.159,313.803" style="fill:#006363; stroke:#000000;stroke-width:0"/>
<circle fill="#006363" stroke="#006363" stroke-width="0" cx="713.828" cy="205.905" r="21.3333"/>
<circle fill="#006363" stroke="#006363" stroke-width="0" cx="539.61" cy="331.126" r="21.3333"/>
<polygon points="1256,469.333 256,1469.33 -744,469.333" style="fill:#000000; stroke:#000000;stroke-width:0"/>
<polygon points="-744,42.6667 256,-957.333 1256,42.6667" style="fill:#000000; stroke:#000000;stroke-width:0"/>
<circle fill="#a64b00" stroke="#a64b00" stroke-width="0" cx="-111.873" cy="155.582" r="21.3333"/>
<circle fill="#a64b00" stroke="#a64b00" stroke-width="0" cx="-52.3342" cy="359.551" r="21.3333"/>
<circle fill="#a64b00" stroke="#a64b00" stroke-width="0" cx="713.828" cy="205.905" r="21.3333"/>
<circle fill="#a64b00" stroke="#a64b00" stroke-width="0" cx="539.61" cy="331.126" r="21.3333"/>
<circle fill="#a64b00" stroke="#a64b00" stroke-width="0" cx="335.582" cy="287.644" r="21.3333"/>
</svg>
