<?xml version="1.0" encoding="utf-8"?> <!-- Generator: Adobe Illustrator 13.0.0, SVG Export Plug-In . SVG Version: 6.00 Build 14948)  --> <svg version="1.2" baseProfile="tiny" id="Layer_1" xmlns="http://www.w3.org/2000/svg" xmlns:xlink="http://www.w3.org/1999/xlink" x="0px" y="0px" width="512px" height="512px" viewBox="0 0 512 512" xml:space="preserve">
<polygon points="0,0 512,0 512,512 0,512" style="fill:#ffffff; stroke:#000000;stroke-width:0"/>
<polygon points="-107.173,139.403 -109.134,182.025 -331.96,171.768 -329.998,129.147" style="fill:#006363; stroke:#000000;stroke-width:0"/>
<circle fill="#006363" stroke="#006363" stroke-width="0" cx="-108.153" cy="160.714" r="21.3333"/>
<circle fill="#006363" stroke="#006363" stroke-width="0" cx="-330.979" cy="150.457" r="21.3333"/>
<polygon points="753.695,407.33 718.078,383.839 833.687,208.554 869.305,232.046" style="fill:#006363; stroke:#000000;stroke-width:0"/>
<circle fill="#006363" stroke="#006363" stroke-width="0" cx="735.887" cy="395.584" r="21.3333"/>
<circle fill="#006363" stroke="#006363" stroke-width="0" cx="851.496" cy="220.3" r="21.3333"/>
<polygon points="1256,469.333 256,1469.33 -744,469.333" style="fill:#000000; stroke:#000000;stroke-width:0"/>
<polygon points="-744,42.6667 256,-957.333 1256,42.6667" style="fill:#000000; stroke:#000000;stroke-width:0"/>
<circle fill="#a64b00" stroke="#a64b00" stroke-width="0" cx="-108.153" cy="160.714" r="21.3333"/>
<circle fill="#a64b00" stroke="#a64b00" stroke-width="0" cx="-330.979" cy="150.457" r="21.3333"/>
<circle fill="#a64b00" stroke="#a64b00" stroke-width="0" cx="735.887" cy="395.584" r="21.3333"/>
<circle fill="#a64b00" stroke="#a64b00" stroke-width="0" cx="851.496" cy="220.3" r="21.3333"/>
<circle fill="#a64b00" stroke="#a64b00" stroke-width="0" cx="22.9939" cy="134.996" r="21.3333"/>
</svg>
