<?xml version="1.0" encoding="utf-8"?> <!-- Generator: Adobe Illustrator 13.0.0, SVG Export Plug-In . SVG Version: 6.00 Build 14948)  --> <svg version="1.2" baseProfile="tiny" id="Layer_1" xmlns="http://www.w3.org/2000/svg" xmlns:xlink="http://www.w3.org/1999/xlink" x="0px" y="0px" width="512px" height="512px" viewBox="0 0 512 512" xml:space="preserve">
<polygon points="0,0 512,0 512,512 0,512" style="fill:#ffffff; stroke:#000000;stroke-width:0"/>
<polygon points="-335.49,412.519 -376.58,401.028 -319.003,195.15 -277.913,206.641" style="fill:#006363; stroke:#000000;stroke-width:0"/>
<circle fill="#006363" stroke="#006363" stroke-width="0" cx="-356.035" cy="406.774" r="21.3333"/>
<circle fill="#006363" stroke="#006363" stroke-width="0" cx="-298.458" cy="200.896" r="21.3333"/>
<polygon points="969.615,216.424 1003.31,242.593 868.226,416.543 834.528,390.373" style="fill:#006363; stroke:#000000;stroke-width:0"/>
<circle fill="#006363" stroke="#006363" stroke-width="0" cx="986.464" cy="229.509" r="21.3333"/>
<circle fill="#006363" stroke="#006363" stroke-width="0" cx="851.377" cy="403.458" r="21.3333"/>
<polygon points="1256,469.333 256,1469.33 -744,469.333" style="fill:#000000; stroke:#000000;stroke-width:0"/>
<polygon points="-744,42.6667 256,-957.333 1256,42.6667" style="fill:#000000; stroke:#000000;stroke-width:0"/>
<circle fill="#a64b00" stroke="#a64b00" stroke-width="0" cx="-356.035" cy="406.774" r="21.3333"/>
<circle fill="#a64b00" stroke="#a64b00" stroke-width="0" cx="-298.458" cy="200.896" r="21.3333"/>
<circle fill="#a64b00" stroke="#a64b00" stroke-width="0" cx="986.464" cy="229.509" r="21.3333"/>
<circle fill="#a64b00" stroke="#a64b00" stroke-width="0" cx="851.377" cy="403.458" r="21.3333"/>
<circle fill="#a64b00" stroke="#a64b00" stroke-width="0" cx="705.227" cy="283.256" r="21.3333"/>
</svg>
