<?xml version="1.0" encoding="utf-8"?> <!-- Generator: Adobe Illustrator 13.0.0, SVG Export Plug-In . SVG Version: 6.00 Build 14948)  --> <svg version="1.2" baseProfile="tiny" id="Layer_1" xmlns="http://www.w3.org/2000/svg" xmlns:xlink="http://www.w3.org/1999/xlink" x="0px" y="0px" width="512px" height="512px" viewBox="0 0 512 512" xml:space="preserve">
<polygon points="0,0 512,0 512,512 0,512" style="fill:#ffffff; stroke:#000000;stroke-width:0"/>
<polygon points="-52.7377,381.537 -56.2738,424.056 -268.345,406.42 -264.809,363.9" style="fill:#006363; stroke:#000000;stroke-width:0"/>
<circle fill="#006363" stroke="#006363" stroke-width="0" cx="-54.5057" cy="402.796" r="21.3333"/>
<circle fill="#006363" stroke="#006363" stroke-width="0" cx="-266.577" cy="385.16" r="21.3333"/>
<polygon points="695.562,396.56 657.13,378.026 748.429,188.711 786.86,207.245" style="fill:#006363; stroke:#000000;stroke-width:0"/>
<circle fill="#006363" stroke="#006363" stroke-width="0" cx="676.346" cy="387.293" r="21.3333"/>
<circle fill="#006363" stroke="#006363" stroke-width="0" cx="767.644" cy="197.978" r="21.3333"/>
<polygon points="1256,469.333 256,1469.33 -744,469.333" style="fill:#000000; stroke:#000000;stroke-width:0"/>
<polygon points="-744,42.6667 256,-957.333 1256,42.6667" style="fill:#000000; stroke:#000000;stroke-width:0"/>
<circle fill="#a64b00" stroke="#a64b00" stroke-width="0" cx="-54.5057" cy="402.796" r="21.3333"/>
<circle fill="#a64b00" stroke="#a64b00" stroke-width="0" cx="-266.577" cy="385.16" r="21.3333"/>
<circle fill="#a64b00" stroke="#a64b00" stroke-width="0" cx="676.346" cy="387.293" r="21.3333"/>
<circle fill="#a64b00" stroke="#a64b00" stroke-width="0" cx="767.644" cy="197.978" r="21.3333"/>
<circle fill="#a64b00" stroke="#a64b00" stroke-width="0" cx="157.216" cy="335.347" r="21.3333"/>
</svg>
