<?xml version="1.0" encoding="utf-8"?> <!-- Generator: Adobe Illustrator 13.0.0, SVG Export Plug-In . SVG Version: 6.00 Build 14948)  --> <svg version="1.2" baseProfile="tiny" id="Layer_1" xmlns="http://www.w3.org/2000/svg" xmlns:xlink="http://www.w3.org/1999/xlink" x="0px" y="0px" width="512px" height="512px" viewBox="0 0 512 512" xml:space="preserve">
<polygon points="0,0 512,0 512,512 0,512" style="fill:#ffffff; stroke:#000000;stroke-width:0"/>
<polygon points="14.1289,134.422 56.7788,133.225 62.8286,348.778 20.1787,349.975" style="fill:#006363; stroke:#000000;stroke-width:0"/>
<circle fill="#006363" stroke="#006363" stroke-width="0" cx="35.4539" cy="133.824" r="21.3333"/>
<circle fill="#006363" stroke="#006363" stroke-width="0" cx="41.5036" cy="349.376" r="21.3333"/>
<polygon points="452.123,145.487 494.756,143.817 503.06,355.732 460.426,357.402" style="fill:#006363; stroke:#000000;stroke-width:0"/>
<circle fill="#006363" stroke="#006363" stroke-width="0" cx="473.44" cy="144.652" r="21.3333"/>
<circle fill="#006363" stroke="#006363" stroke-width="0" cx="481.743" cy="356.567" r="21.3333"/>
<polygon points="1256,469.333 256,1469.33 -744,469.333" style="fill:#000000; stroke:#000000;stroke-width:0"/>
<polygon points="-744,42.6667 256,-957.333 1256,42.6667" style="fill:#000000; stroke:#000000;stroke-width:0"/>
<circle fill="#a64b00" stroke="#a64b00" stroke-width="0" cx="35.4539" cy="133.824" r="21.3333"/>
<circle fill="#a64b00" stroke="#a64b00" stroke-width="0" cx="41.5036" cy="349.376" r="21.3333"/>
<circle fill="#a64b00" stroke="#a64b00" stroke-width="0" cx="473.44" cy="144.652" r="21.3333"/>
<circle fill="#a64b00" stroke="#a64b00" stroke-width="0" cx="481.743" cy="356.567" r="21.3333"/>
<circle fill="#a64b00" stroke="#a64b00" stroke-width="0" cx="391.362" cy="259.628" r="21.3333"/>
</svg>
