<?xml version="1.0" encoding="utf-8"?> <!-- Generator: Adobe Illustrator 13.0.0, SVG Export Plug-In . SVG Version: 6.00 Build 14948)  --> <svg version="1.2" baseProfile="tiny" id="Layer_1" xmlns="http://www.w3.org/2000/svg" xmlns:xlink="http://www.w3.org/1999/xlink" x="0px" y="0px" width="512px" height="512px" viewBox="0 0 512 512" xml:space="preserve">
<polygon points="0,0 512,0 512,512 0,512" style="fill:#ffffff; stroke:#000000;stroke-width:0"/>
<polygon points="-166.193,273.204 -201.503,249.254 -83.5354,75.334 -48.2251,99.2846" style="fill:#006363; stroke:#000000;stroke-width:0"/>
<circle fill="#006363" stroke="#006363" stroke-width="0" cx="-183.848" cy="261.229" r="21.3333"/>
<circle fill="#006363" stroke="#006363" stroke-width="0" cx="-65.8802" cy="87.3093" r="21.3333"/>
<polygon points="572.037,311.175 585.434,270.667 785.281,336.763 771.884,377.272" style="fill:#006363; stroke:#000000;stroke-width:0"/>
<circle fill="#006363" stroke="#006363" stroke-width="0" cx="578.735" cy="290.921" r="21.3333"/>
<circle fill="#006363" stroke="#006363" stroke-width="0" cx="778.582" cy="357.018" r="21.3333"/>
<polygon points="1256,469.333 256,1469.33 -744,469.333" style="fill:#000000; stroke:#000000;stroke-width:0"/>
<polygon points="-744,42.6667 256,-957.333 1256,42.6667" style="fill:#000000; stroke:#000000;stroke-width:0"/>
<circle fill="#a64b00" stroke="#a64b00" stroke-width="0" cx="-183.848" cy="261.229" r="21.3333"/>
<circle fill="#a64b00" stroke="#a64b00" stroke-width="0" cx="-65.8802" cy="87.3093" r="21.3333"/>
<circle fill="#a64b00" stroke="#a64b00" stroke-width="0" cx="578.735" cy="290.921" r="21.3333"/>
<circle fill="#a64b00" stroke="#a64b00" stroke-width="0" cx="778.582" cy="357.018" r="21.3333"/>
<circle fill="#a64b00" stroke="#a64b00" stroke-width="0" cx="238.346" cy="297.185" r="21.3333"/>
</svg>
