<?xml version="1.0" encoding="utf-8"?> <!-- Generator: Adobe Illustrator 13.0.0, SVG Export Plug-In . SVG Version: 6.00 Build 14948)  --> <svg version="1.2" baseProfile="tiny" id="Layer_1" xmlns="http://www.w3.org/2000/svg" xmlns:xlink="http://www.w3.org/1999/xlink" x="0px" y="0px" width="512px" height="512px" viewBox="0 0 512 512" xml:space="preserve">
<polygon points="0,0 512,0 512,512 0,512" style="fill:#ffffff; stroke:#000000;stroke-width:0"/>
<polygon points="-203.071,389.359 -206.918,346.866 -2.06012,328.321 1.78659,370.814" style="fill:#006363; stroke:#000000;stroke-width:0"/>
<circle fill="#006363" stroke="#006363" stroke-width="0" cx="-204.995" cy="368.113" r="21.3333"/>
<circle fill="#006363" stroke="#006363" stroke-width="0" cx="-0.136767" cy="349.568" r="21.3333"/>
<polygon points="619.155,190.82 661.588,186.355 683.992,399.283 641.56,403.748" style="fill:#006363; stroke:#000000;stroke-width:0"/>
<circle fill="#006363" stroke="#006363" stroke-width="0" cx="640.371" cy="188.587" r="21.3333"/>
<circle fill="#006363" stroke="#006363" stroke-width="0" cx="662.776" cy="401.516" r="21.3333"/>
<polygon points="1256,469.333 256,1469.33 -744,469.333" style="fill:#000000; stroke:#000000;stroke-width:0"/>
<polygon points="-744,42.6667 256,-957.333 1256,42.6667" style="fill:#000000; stroke:#000000;stroke-width:0"/>
<circle fill="#a64b00" stroke="#a64b00" stroke-width="0" cx="-204.995" cy="368.113" r="21.3333"/>
<circle fill="#a64b00" stroke="#a64b00" stroke-width="0" cx="-0.136767" cy="349.568" r="21.3333"/>
<circle fill="#a64b00" stroke="#a64b00" stroke-width="0" cx="640.371" cy="188.587" r="21.3333"/>
<circle fill="#a64b00" stroke="#a64b00" stroke-width="0" cx="662.776" cy="401.516" r="21.3333"/>
<circle fill="#a64b00" stroke="#a64b00" stroke-width="0" cx="289.052" cy="325.806" r="21.3333"/>
</svg>
