<?xml version="1.0" encoding="utf-8"?> <!-- Generator: Adobe Illustrator 13.0.0, SVG Export Plug-In . SVG Version: 6.00 Build 14948)  --> <svg version="1.2" baseProfile="tiny" id="Layer_1" xmlns="http://www.w3.org/2000/svg" xmlns:xlink="http://www.w3.org/1999/xlink" x="0px" y="0px" width="512px" height="512px" viewBox="0 0 512 512" xml:space="preserve">
<polygon points="0,0 512,0 512,512 0,512" style="fill:#ffffff; stroke:#000000;stroke-width:0"/>
<polygon points="-140.239,116.289 -129.772,74.9261 72.5697,126.129 62.1028,167.492" style="fill:#006363; stroke:#000000;stroke-width:0"/>
<circle fill="#006363" stroke="#006363" stroke-width="0" cx="-135.005" cy="95.6076" r="21.3333"/>
<circle fill="#006363" stroke="#006363" stroke-width="0" cx="67.3363" cy="146.81" r="21.3333"/>
<polygon points="558.467,313.245 517.566,301.098 577.709,98.5887 618.61,110.736" style="fill:#006363; stroke:#000000;stroke-width:0"/>
<circle fill="#006363" stroke="#006363" stroke-width="0" cx="538.016" cy="307.171" r="21.3333"/>
<circle fill="#006363" stroke="#006363" stroke-width="0" cx="598.159" cy="104.662" r="21.3333"/>
<polygon points="1256,469.333 256,1469.33 -744,469.333" style="fill:#000000; stroke:#000000;stroke-width:0"/>
<polygon points="-744,42.6667 256,-957.333 1256,42.6667" style="fill:#000000; stroke:#000000;stroke-width:0"/>
<circle fill="#a64b00" stroke="#a64b00" stroke-width="0" cx="-135.005" cy="95.6076" r="21.3333"/>
<circle fill="#a64b00" stroke="#a64b00" stroke-width="0" cx="67.3363" cy="146.81" r="21.3333"/>
<circle fill="#a64b00" stroke="#a64b00" stroke-width="0" cx="538.016" cy="307.171" r="21.3333"/>
<circle fill="#a64b00" stroke="#a64b00" stroke-width="0" cx="598.159" cy="104.662" r="21.3333"/>
<circle fill="#a64b00" stroke="#a64b00" stroke-width="0" cx="445.346" cy="421.212" r="21.3333"/>
</svg>
