<?xml version="1.0" encoding="utf-8"?> <!-- Generator: Adobe Illustrator 13.0.0, SVG Export Plug-In . SVG Version: 6.00 Build 14948)  --> <svg version="1.2" baseProfile="tiny" id="Layer_1" xmlns="http://www.w3.org/2000/svg" xmlns:xlink="http://www.w3.org/1999/xlink" x="0px" y="0px" width="512px" height="512px" viewBox="0 0 512 512" xml:space="preserve">
<polygon points="0,0 512,0 512,512 0,512" style="fill:#ffffff; stroke:#000000;stroke-width:0"/>
<polygon points="-145.024,145.563 -121.644,109.872 61.6147,229.916 38.2353,265.607" style="fill:#006363; stroke:#000000;stroke-width:0"/>
<circle fill="#006363" stroke="#006363" stroke-width="0" cx="-133.334" cy="127.718" r="21.3333"/>
<circle fill="#006363" stroke="#006363" stroke-width="0" cx="49.925" cy="247.762" r="21.3333"/>
<polygon points="611.285,321.031 568.903,325.945 544.009,111.215 586.392,106.302" style="fill:#006363; stroke:#000000;stroke-width:0"/>
<circle fill="#006363" stroke="#006363" stroke-width="0" cx="590.094" cy="323.488" r="21.3333"/>
<circle fill="#006363" stroke="#006363" stroke-width="0" cx="565.2" cy="108.758" r="21.3333"/>
<polygon points="1256,469.333 256,1469.33 -744,469.333" style="fill:#000000; stroke:#000000;stroke-width:0"/>
<polygon points="-744,42.6667 256,-957.333 1256,42.6667" style="fill:#000000; stroke:#000000;stroke-width:0"/>
<circle fill="#a64b00" stroke="#a64b00" stroke-width="0" cx="-133.334" cy="127.718" r="21.3333"/>
<circle fill="#a64b00" stroke="#a64b00" stroke-width="0" cx="49.925" cy="247.762" r="21.3333"/>
<circle fill="#a64b00" stroke="#a64b00" stroke-width="0" cx="590.094" cy="323.488" r="21.3333"/>
<circle fill="#a64b00" stroke="#a64b00" stroke-width="0" cx="565.2" cy="108.758" r="21.3333"/>
<circle fill="#a64b00" stroke="#a64b00" stroke-width="0" cx="427.449" cy="192.239" r="21.3333"/>
</svg>
