<?xml version="1.0" encoding="utf-8"?> <!-- Generator: Adobe Illustrator 13.0.0, SVG Export Plug-In . SVG Version: 6.00 Build 14948)  --> <svg version="1.2" baseProfile="tiny" id="Layer_1" xmlns="http://www.w3.org/2000/svg" xmlns:xlink="http://www.w3.org/1999/xlink" x="0px" y="0px" width="512px" height="512px" viewBox="0 0 512 512" xml:space="preserve">
<polygon points="0,0 512,0 512,512 0,512" style="fill:#ffffff; stroke:#000000;stroke-width:0"/>
<polygon points="-304.881,440.145 -347.471,442.697 -359.817,236.655 -317.227,234.103" style="fill:#006363; stroke:#000000;stroke-width:0"/>
<circle fill="#006363" stroke="#006363" stroke-width="0" cx="-326.176" cy="441.421" r="21.3333"/>
<circle fill="#006363" stroke="#006363" stroke-width="0" cx="-338.522" cy="235.379" r="21.3333"/>
<polygon points="987.018,224.683 1016.45,255.574 861.145,403.528 831.715,372.636" style="fill:#006363; stroke:#000000;stroke-width:0"/>
<circle fill="#006363" stroke="#006363" stroke-width="0" cx="1001.73" cy="240.128" r="21.3333"/>
<circle fill="#006363" stroke="#006363" stroke-width="0" cx="846.43" cy="388.082" r="21.3333"/>
<polygon points="1256,469.333 256,1469.33 -744,469.333" style="fill:#000000; stroke:#000000;stroke-width:0"/>
<polygon points="-744,42.6667 256,-957.333 1256,42.6667" style="fill:#000000; stroke:#000000;stroke-width:0"/>
<circle fill="#a64b00" stroke="#a64b00" stroke-width="0" cx="-326.176" cy="441.421" r="21.3333"/>
<circle fill="#a64b00" stroke="#a64b00" stroke-width="0" cx="-338.522" cy="235.379" r="21.3333"/>
<circle fill="#a64b00" stroke="#a64b00" stroke-width="0" cx="1001.73" cy="240.128" r="21.3333"/>
<circle fill="#a64b00" stroke="#a64b00" stroke-width="0" cx="846.43" cy="388.082" r="21.3333"/>
<circle fill="#a64b00" stroke="#a64b00" stroke-width="0" cx="864.23" cy="299.634" r="21.3333"/>
</svg>
