<?xml version="1.0" encoding="utf-8"?> <!-- Generator: Adobe Illustrator 13.0.0, SVG Export Plug-In . SVG Version: 6.00 Build 14948)  --> <svg version="1.2" baseProfile="tiny" id="Layer_1" xmlns="http://www.w3.org/2000/svg" xmlns:xlink="http://www.w3.org/1999/xlink" x="0px" y="0px" width="512px" height="512px" viewBox="0 0 512 512" xml:space="preserve">
<polygon points="0,0 512,0 512,512 0,512" style="fill:#ffffff; stroke:#000000;stroke-width:0"/>
<polygon points="-106.373,155.19 -80.3705,121.362 85.3992,248.784 59.3968,282.612" style="fill:#006363; stroke:#000000;stroke-width:0"/>
<circle fill="#006363" stroke="#006363" stroke-width="0" cx="-93.3717" cy="138.276" r="21.3333"/>
<circle fill="#006363" stroke="#006363" stroke-width="0" cx="72.398" cy="265.698" r="21.3333"/>
<polygon points="438.884,210.447 434.589,167.997 644.465,146.764 648.76,189.214" style="fill:#006363; stroke:#000000;stroke-width:0"/>
<circle fill="#006363" stroke="#006363" stroke-width="0" cx="436.736" cy="189.222" r="21.3333"/>
<circle fill="#006363" stroke="#006363" stroke-width="0" cx="646.613" cy="167.989" r="21.3333"/>
<polygon points="1256,469.333 256,1469.33 -744,469.333" style="fill:#000000; stroke:#000000;stroke-width:0"/>
<polygon points="-744,42.6667 256,-957.333 1256,42.6667" style="fill:#000000; stroke:#000000;stroke-width:0"/>
<circle fill="#a64b00" stroke="#a64b00" stroke-width="0" cx="-93.3717" cy="138.276" r="21.3333"/>
<circle fill="#a64b00" stroke="#a64b00" stroke-width="0" cx="72.398" cy="265.698" r="21.3333"/>
<circle fill="#a64b00" stroke="#a64b00" stroke-width="0" cx="436.736" cy="189.222" r="21.3333"/>
<circle fill="#a64b00" stroke="#a64b00" stroke-width="0" cx="646.613" cy="167.989" r="21.3333"/>
<circle fill="#a64b00" stroke="#a64b00" stroke-width="0" cx="109.165" cy="172.742" r="21.3333"/>
</svg>
