<?xml version="1.0" encoding="utf-8"?> <!-- Generator: Adobe Illustrator 13.0.0, SVG Export Plug-In . SVG Version: 6.00 Build 14948)  --> <svg version="1.2" baseProfile="tiny" id="Layer_1" xmlns="http://www.w3.org/2000/svg" xmlns:xlink="http://www.w3.org/1999/xlink" x="0px" y="0px" width="512px" height="512px" viewBox="0 0 512 512" xml:space="preserve">
<polygon points="0,0 512,0 512,512 0,512" style="fill:#ffffff; stroke:#000000;stroke-width:0"/>
<polygon points="-21.5472,165.615 20.4884,158.305 56.2953,364.184 14.2597,371.495" style="fill:#006363; stroke:#000000;stroke-width:0"/>
<circle fill="#006363" stroke="#006363" stroke-width="0" cx="-0.529401" cy="161.96" r="21.3333"/>
<circle fill="#006363" stroke="#006363" stroke-width="0" cx="35.2775" cy="367.84" r="21.3333"/>
<polygon points="449.53,141.269 489.789,127.138 560.922,329.789 520.663,343.921" style="fill:#006363; stroke:#000000;stroke-width:0"/>
<circle fill="#006363" stroke="#006363" stroke-width="0" cx="469.66" cy="134.203" r="21.3333"/>
<circle fill="#006363" stroke="#006363" stroke-width="0" cx="540.793" cy="336.855" r="21.3333"/>
<polygon points="1256,469.333 256,1469.33 -744,469.333" style="fill:#000000; stroke:#000000;stroke-width:0"/>
<polygon points="-744,42.6667 256,-957.333 1256,42.6667" style="fill:#000000; stroke:#000000;stroke-width:0"/>
<circle fill="#a64b00" stroke="#a64b00" stroke-width="0" cx="-0.529401" cy="161.96" r="21.3333"/>
<circle fill="#a64b00" stroke="#a64b00" stroke-width="0" cx="35.2775" cy="367.84" r="21.3333"/>
<circle fill="#a64b00" stroke="#a64b00" stroke-width="0" cx="469.66" cy="134.203" r="21.3333"/>
<circle fill="#a64b00" stroke="#a64b00" stroke-width="0" cx="540.793" cy="336.855" r="21.3333"/>
<circle fill="#a64b00" stroke="#a64b00" stroke-width="0" cx="365.27" cy="126.371" r="21.3333"/>
</svg>
