<?xml version="1.0" encoding="utf-8"?> <!-- Generator: Adobe Illustrator 13.0.0, SVG Export Plug-In . SVG Version: 6.00 Build 14948)  --> <svg version="1.2" baseProfile="tiny" id="Layer_1" xmlns="http://www.w3.org/2000/svg" xmlns:xlink="http://www.w3.org/1999/xlink" x="0px" y="0px" width="512px" height="512px" viewBox="0 0 512 512" xml:space="preserve">
<polygon points="0,0 512,0 512,512 0,512" style="fill:#ffffff; stroke:#000000;stroke-width:0"/>
<polygon points="-203.324,406.351 -213.785,364.987 -5.47967,312.307 4.98128,353.671" style="fill:#006363; stroke:#000000;stroke-width:0"/>
<circle fill="#006363" stroke="#006363" stroke-width="0" cx="-208.555" cy="385.669" r="21.3333"/>
<circle fill="#006363" stroke="#006363" stroke-width="0" cx="-0.249198" cy="332.989" r="21.3333"/>
<polygon points="612.059,198.374 653.883,189.937 695.55,396.492 653.726,404.929" style="fill:#006363; stroke:#000000;stroke-width:0"/>
<circle fill="#006363" stroke="#006363" stroke-width="0" cx="632.971" cy="194.156" r="21.3333"/>
<circle fill="#006363" stroke="#006363" stroke-width="0" cx="674.638" cy="400.71" r="21.3333"/>
<polygon points="1256,469.333 256,1469.33 -744,469.333" style="fill:#000000; stroke:#000000;stroke-width:0"/>
<polygon points="-744,42.6667 256,-957.333 1256,42.6667" style="fill:#000000; stroke:#000000;stroke-width:0"/>
<circle fill="#a64b00" stroke="#a64b00" stroke-width="0" cx="-208.555" cy="385.669" r="21.3333"/>
<circle fill="#a64b00" stroke="#a64b00" stroke-width="0" cx="-0.249198" cy="332.989" r="21.3333"/>
<circle fill="#a64b00" stroke="#a64b00" stroke-width="0" cx="632.971" cy="194.156" r="21.3333"/>
<circle fill="#a64b00" stroke="#a64b00" stroke-width="0" cx="674.638" cy="400.71" r="21.3333"/>
<circle fill="#a64b00" stroke="#a64b00" stroke-width="0" cx="284.876" cy="259.023" r="21.3333"/>
</svg>
