<?xml version="1.0" encoding="utf-8"?> <!-- Generator: Adobe Illustrator 13.0.0, SVG Export Plug-In . SVG Version: 6.00 Build 14948)  --> <svg version="1.2" baseProfile="tiny" id="Layer_1" xmlns="http://www.w3.org/2000/svg" xmlns:xlink="http://www.w3.org/1999/xlink" x="0px" y="0px" width="512px" height="512px" viewBox="0 0 512 512" xml:space="preserve">
<polygon points="0,0 512,0 512,512 0,512" style="fill:#ffffff; stroke:#000000;stroke-width:0"/>
<polygon points="-84.4929,192.832 -49.5879,168.294 76.299,347.371 41.394,371.909" style="fill:#006363; stroke:#000000;stroke-width:0"/>
<circle fill="#006363" stroke="#006363" stroke-width="0" cx="-67.0404" cy="180.563" r="21.3333"/>
<circle fill="#006363" stroke="#006363" stroke-width="0" cx="58.8465" cy="359.64" r="21.3333"/>
<polygon points="423.902,160.644 435.98,119.723 643.484,180.966 631.406,221.888" style="fill:#006363; stroke:#000000;stroke-width:0"/>
<circle fill="#006363" stroke="#006363" stroke-width="0" cx="429.941" cy="140.183" r="21.3333"/>
<circle fill="#006363" stroke="#006363" stroke-width="0" cx="637.445" cy="201.427" r="21.3333"/>
<polygon points="1256,469.333 256,1469.33 -744,469.333" style="fill:#000000; stroke:#000000;stroke-width:0"/>
<polygon points="-744,42.6667 256,-957.333 1256,42.6667" style="fill:#000000; stroke:#000000;stroke-width:0"/>
<circle fill="#a64b00" stroke="#a64b00" stroke-width="0" cx="-67.0404" cy="180.563" r="21.3333"/>
<circle fill="#a64b00" stroke="#a64b00" stroke-width="0" cx="58.8465" cy="359.64" r="21.3333"/>
<circle fill="#a64b00" stroke="#a64b00" stroke-width="0" cx="429.941" cy="140.183" r="21.3333"/>
<circle fill="#a64b00" stroke="#a64b00" stroke-width="0" cx="637.445" cy="201.427" r="21.3333"/>
<circle fill="#a64b00" stroke="#a64b00" stroke-width="0" cx="107.448" cy="87.5681" r="21.3333"/>
</svg>
