<?xml version="1.0" encoding="utf-8"?> <!-- Generator: Adobe Illustrator 13.0.0, SVG Export Plug-In . SVG Version: 6.00 Build 14948)  --> <svg version="1.2" baseProfile="tiny" id="Layer_1" xmlns="http://www.w3.org/2000/svg" xmlns:xlink="http://www.w3.org/1999/xlink" x="0px" y="0px" width="512px" height="512px" viewBox="0 0 512 512" xml:space="preserve">
<polygon points="0,0 512,0 512,512 0,512" style="fill:#ffffff; stroke:#000000;stroke-width:0"/>
<polygon points="-65.1271,344.331 -74.3232,385.995 -274.843,341.736 -265.647,300.072" style="fill:#006363; stroke:#000000;stroke-width:0"/>
<circle fill="#006363" stroke="#006363" stroke-width="0" cx="-69.7252" cy="365.163" r="21.3333"/>
<circle fill="#006363" stroke="#006363" stroke-width="0" cx="-270.245" cy="320.904" r="21.3333"/>
<polygon points="718.584,338.292 678.32,324.176 748.349,124.438 788.613,138.555" style="fill:#006363; stroke:#000000;stroke-width:0"/>
<circle fill="#006363" stroke="#006363" stroke-width="0" cx="698.452" cy="331.234" r="21.3333"/>
<circle fill="#006363" stroke="#006363" stroke-width="0" cx="768.481" cy="131.497" r="21.3333"/>
<polygon points="1256,469.333 256,1469.33 -744,469.333" style="fill:#000000; stroke:#000000;stroke-width:0"/>
<polygon points="-744,42.6667 256,-957.333 1256,42.6667" style="fill:#000000; stroke:#000000;stroke-width:0"/>
<circle fill="#a64b00" stroke="#a64b00" stroke-width="0" cx="-69.7252" cy="365.163" r="21.3333"/>
<circle fill="#a64b00" stroke="#a64b00" stroke-width="0" cx="-270.245" cy="320.904" r="21.3333"/>
<circle fill="#a64b00" stroke="#a64b00" stroke-width="0" cx="698.452" cy="331.234" r="21.3333"/>
<circle fill="#a64b00" stroke="#a64b00" stroke-width="0" cx="768.481" cy="131.497" r="21.3333"/>
<circle fill="#a64b00" stroke="#a64b00" stroke-width="0" cx="135.74" cy="220.861" r="21.3333"/>
</svg>
