<?xml version="1.0" encoding="utf-8"?> <!-- Generator: Adobe Illustrator 13.0.0, SVG Export Plug-In . SVG Version: 6.00 Build 14948)  --> <svg version="1.2" baseProfile="tiny" id="Layer_1" xmlns="http://www.w3.org/2000/svg" xmlns:xlink="http://www.w3.org/1999/xlink" x="0px" y="0px" width="512px" height="512px" viewBox="0 0 512 512" xml:space="preserve">
<polygon points="0,0 512,0 512,512 0,512" style="fill:#ffffff; stroke:#000000;stroke-width:0"/>
<polygon points="-65.6719,278.104 -69.5108,320.598 -285.317,301.102 -281.478,258.608" style="fill:#006363; stroke:#000000;stroke-width:0"/>
<circle fill="#006363" stroke="#006363" stroke-width="0" cx="-67.5914" cy="299.351" r="21.3333"/>
<circle fill="#006363" stroke="#006363" stroke-width="0" cx="-283.397" cy="279.855" r="21.3333"/>
<polygon points="731.67,305.459 690.572,293.996 748.646,85.7894 789.744,97.2528" style="fill:#006363; stroke:#000000;stroke-width:0"/>
<circle fill="#006363" stroke="#006363" stroke-width="0" cx="711.121" cy="299.728" r="21.3333"/>
<circle fill="#006363" stroke="#006363" stroke-width="0" cx="769.195" cy="91.5211" r="21.3333"/>
<polygon points="1256,469.333 256,1469.33 -744,469.333" style="fill:#000000; stroke:#000000;stroke-width:0"/>
<polygon points="-744,42.6667 256,-957.333 1256,42.6667" style="fill:#000000; stroke:#000000;stroke-width:0"/>
<circle fill="#a64b00" stroke="#a64b00" stroke-width="0" cx="-67.5914" cy="299.351" r="21.3333"/>
<circle fill="#a64b00" stroke="#a64b00" stroke-width="0" cx="-283.397" cy="279.855" r="21.3333"/>
<circle fill="#a64b00" stroke="#a64b00" stroke-width="0" cx="711.121" cy="299.728" r="21.3333"/>
<circle fill="#a64b00" stroke="#a64b00" stroke-width="0" cx="769.195" cy="91.5211" r="21.3333"/>
<circle fill="#a64b00" stroke="#a64b00" stroke-width="0" cx="123.213" cy="96.8337" r="21.3333"/>
</svg>
