<?xml version="1.0" encoding="utf-8"?> <!-- Generator: Adobe Illustrator 13.0.0, SVG Export Plug-In . SVG Version: 6.00 Build 14948)  --> <svg version="1.2" baseProfile="tiny" id="Layer_1" xmlns="http://www.w3.org/2000/svg" xmlns:xlink="http://www.w3.org/1999/xlink" x="0px" y="0px" width="512px" height="512px" viewBox="0 0 512 512" xml:space="preserve">
<polygon points="0,0 512,0 512,512 0,512" style="fill:#ffffff; stroke:#000000;stroke-width:0"/>
<polygon points="13.6687,130.352 56.3159,129.065 62.6606,339.248 20.0134,340.535" style="fill:#006363; stroke:#000000;stroke-width:0"/>
<circle fill="#006363" stroke="#006363" stroke-width="0" cx="34.9923" cy="129.709" r="21.3333"/>
<circle fill="#006363" stroke="#006363" stroke-width="0" cx="41.337" cy="339.891" r="21.3333"/>
<polygon points="452.446,149.673 495.076,147.904 503.989,362.719 461.359,364.488" style="fill:#006363; stroke:#000000;stroke-width:0"/>
<circle fill="#006363" stroke="#006363" stroke-width="0" cx="473.761" cy="148.788" r="21.3333"/>
<circle fill="#006363" stroke="#006363" stroke-width="0" cx="482.674" cy="363.604" r="21.3333"/>
<polygon points="1256,469.333 256,1469.33 -744,469.333" style="fill:#000000; stroke:#000000;stroke-width:0"/>
<polygon points="-744,42.6667 256,-957.333 1256,42.6667" style="fill:#000000; stroke:#000000;stroke-width:0"/>
<circle fill="#a64b00" stroke="#a64b00" stroke-width="0" cx="34.9923" cy="129.709" r="21.3333"/>
<circle fill="#a64b00" stroke="#a64b00" stroke-width="0" cx="41.337" cy="339.891" r="21.3333"/>
<circle fill="#a64b00" stroke="#a64b00" stroke-width="0" cx="473.761" cy="148.788" r="21.3333"/>
<circle fill="#a64b00" stroke="#a64b00" stroke-width="0" cx="482.674" cy="363.604" r="21.3333"/>
<circle fill="#a64b00" stroke="#a64b00" stroke-width="0" cx="360.876" cy="261.804" r="21.3333"/>
</svg>
