<?xml version="1.0" encoding="utf-8"?> <!-- Generator: Adobe Illustrator 13.0.0, SVG Export Plug-In . SVG Version: 6.00 Build 14948)  --> <svg version="1.2" baseProfile="tiny" id="Layer_1" xmlns="http://www.w3.org/2000/svg" xmlns:xlink="http://www.w3.org/1999/xlink" x="0px" y="0px" width="512px" height="512px" viewBox="0 0 512 512" xml:space="preserve">
<polygon points="0,0 512,0 512,512 0,512" style="fill:#ffffff; stroke:#000000;stroke-width:0"/>
<polygon points="-142.065,125.47 -127.52,85.3592 69.6739,156.866 55.1287,196.977" style="fill:#006363; stroke:#000000;stroke-width:0"/>
<circle fill="#006363" stroke="#006363" stroke-width="0" cx="-134.792" cy="105.415" r="21.3333"/>
<circle fill="#006363" stroke="#006363" stroke-width="0" cx="62.4013" cy="176.922" r="21.3333"/>
<polygon points="574.366,316.968 532.294,309.867 567.545,100.99 609.617,108.09" style="fill:#006363; stroke:#000000;stroke-width:0"/>
<circle fill="#006363" stroke="#006363" stroke-width="0" cx="553.33" cy="313.418" r="21.3333"/>
<circle fill="#006363" stroke="#006363" stroke-width="0" cx="588.581" cy="104.54" r="21.3333"/>
<polygon points="1256,469.333 256,1469.33 -744,469.333" style="fill:#000000; stroke:#000000;stroke-width:0"/>
<polygon points="-744,42.6667 256,-957.333 1256,42.6667" style="fill:#000000; stroke:#000000;stroke-width:0"/>
<circle fill="#a64b00" stroke="#a64b00" stroke-width="0" cx="-134.792" cy="105.415" r="21.3333"/>
<circle fill="#a64b00" stroke="#a64b00" stroke-width="0" cx="62.4013" cy="176.922" r="21.3333"/>
<circle fill="#a64b00" stroke="#a64b00" stroke-width="0" cx="553.33" cy="313.418" r="21.3333"/>
<circle fill="#a64b00" stroke="#a64b00" stroke-width="0" cx="588.581" cy="104.54" r="21.3333"/>
<circle fill="#a64b00" stroke="#a64b00" stroke-width="0" cx="439.977" cy="392.59" r="21.3333"/>
</svg>
