<?xml version="1.0" encoding="utf-8"?> <!-- Generator: Adobe Illustrator 13.0.0, SVG Export Plug-In . SVG Version: 6.00 Build 14948)  --> <svg version="1.2" baseProfile="tiny" id="Layer_1" xmlns="http://www.w3.org/2000/svg" xmlns:xlink="http://www.w3.org/1999/xlink" x="0px" y="0px" width="512px" height="512px" viewBox="0 0 512 512" xml:space="preserve">
<polygon points="0,0 512,0 512,512 0,512" style="fill:#ffffff; stroke:#000000;stroke-width:0"/>
<polygon points="-137.243,225.102 -128.096,266.777 -341.764,313.673 -350.911,271.998" style="fill:#006363; stroke:#000000;stroke-width:0"/>
<circle fill="#006363" stroke="#006363" stroke-width="0" cx="-132.669" cy="245.94" r="21.3333"/>
<circle fill="#006363" stroke="#006363" stroke-width="0" cx="-346.338" cy="292.835" r="21.3333"/>
<polygon points="754.854,449.105 726.59,417.143 880.963,280.632 909.227,312.594" style="fill:#006363; stroke:#000000;stroke-width:0"/>
<circle fill="#006363" stroke="#006363" stroke-width="0" cx="740.722" cy="433.124" r="21.3333"/>
<circle fill="#006363" stroke="#006363" stroke-width="0" cx="895.095" cy="296.613" r="21.3333"/>
<polygon points="1256,469.333 256,1469.33 -744,469.333" style="fill:#000000; stroke:#000000;stroke-width:0"/>
<polygon points="-744,42.6667 256,-957.333 1256,42.6667" style="fill:#000000; stroke:#000000;stroke-width:0"/>
<circle fill="#a64b00" stroke="#a64b00" stroke-width="0" cx="-132.669" cy="245.94" r="21.3333"/>
<circle fill="#a64b00" stroke="#a64b00" stroke-width="0" cx="-346.338" cy="292.835" r="21.3333"/>
<circle fill="#a64b00" stroke="#a64b00" stroke-width="0" cx="740.722" cy="433.124" r="21.3333"/>
<circle fill="#a64b00" stroke="#a64b00" stroke-width="0" cx="895.095" cy="296.613" r="21.3333"/>
<circle fill="#a64b00" stroke="#a64b00" stroke-width="0" cx="-22.3433" cy="77.7526" r="21.3333"/>
</svg>
