<?xml version="1.0" encoding="utf-8"?> <!-- Generator: Adobe Illustrator 13.0.0, SVG Export Plug-In . SVG Version: 6.00 Build 14948)  --> <svg version="1.2" baseProfile="tiny" id="Layer_1" xmlns="http://www.w3.org/2000/svg" xmlns:xlink="http://www.w3.org/1999/xlink" x="0px" y="0px" width="512px" height="512px" viewBox="0 0 512 512" xml:space="preserve">
<polygon points="0,0 512,0 512,512 0,512" style="fill:#ffffff; stroke:#000000;stroke-width:0"/>
<polygon points="-113.947,83.0888 -71.7652,76.677 -40.2915,283.735 -82.4737,290.147" style="fill:#006363; stroke:#000000;stroke-width:0"/>
<circle fill="#006363" stroke="#006363" stroke-width="0" cx="-92.8563" cy="79.8829" r="21.3333"/>
<circle fill="#006363" stroke="#006363" stroke-width="0" cx="-61.3826" cy="286.941" r="21.3333"/>
<polygon points="711.546,204.291 726.845,244.12 529.783,319.812 514.485,279.982" style="fill:#006363; stroke:#000000;stroke-width:0"/>
<circle fill="#006363" stroke="#006363" stroke-width="0" cx="719.196" cy="224.205" r="21.3333"/>
<circle fill="#006363" stroke="#006363" stroke-width="0" cx="522.134" cy="299.897" r="21.3333"/>
<polygon points="1256,469.333 256,1469.33 -744,469.333" style="fill:#000000; stroke:#000000;stroke-width:0"/>
<polygon points="-744,42.6667 256,-957.333 1256,42.6667" style="fill:#000000; stroke:#000000;stroke-width:0"/>
<circle fill="#a64b00" stroke="#a64b00" stroke-width="0" cx="-92.8563" cy="79.8829" r="21.3333"/>
<circle fill="#a64b00" stroke="#a64b00" stroke-width="0" cx="-61.3826" cy="286.941" r="21.3333"/>
<circle fill="#a64b00" stroke="#a64b00" stroke-width="0" cx="719.196" cy="224.205" r="21.3333"/>
<circle fill="#a64b00" stroke="#a64b00" stroke-width="0" cx="522.134" cy="299.897" r="21.3333"/>
<circle fill="#a64b00" stroke="#a64b00" stroke-width="0" cx="346.916" cy="430.752" r="21.3333"/>
</svg>
