<?xml version="1.0" encoding="utf-8"?> <!-- Generator: Adobe Illustrator 13.0.0, SVG Export Plug-In . SVG Version: 6.00 Build 14948)  --> <svg version="1.2" baseProfile="tiny" id="Layer_1" xmlns="http://www.w3.org/2000/svg" xmlns:xlink="http://www.w3.org/1999/xlink" x="0px" y="0px" width="512px" height="512px" viewBox="0 0 512 512" xml:space="preserve">
<polygon points="0,0 512,0 512,512 0,512" style="fill:#ffffff; stroke:#000000;stroke-width:0"/>
<polygon points="-311.444,304.153 -350.596,287.195 -265.151,89.9253 -225.999,106.883" style="fill:#006363; stroke:#000000;stroke-width:0"/>
<circle fill="#006363" stroke="#006363" stroke-width="0" cx="-331.02" cy="295.674" r="21.3333"/>
<circle fill="#006363" stroke="#006363" stroke-width="0" cx="-245.575" cy="98.4044" r="21.3333"/>
<polygon points="801.12,255.404 837.261,232.726 953.234,417.552 917.093,440.23" style="fill:#006363; stroke:#000000;stroke-width:0"/>
<circle fill="#006363" stroke="#006363" stroke-width="0" cx="819.191" cy="244.065" r="21.3333"/>
<circle fill="#006363" stroke="#006363" stroke-width="0" cx="935.164" cy="428.891" r="21.3333"/>
<polygon points="1256,469.333 256,1469.33 -744,469.333" style="fill:#000000; stroke:#000000;stroke-width:0"/>
<polygon points="-744,42.6667 256,-957.333 1256,42.6667" style="fill:#000000; stroke:#000000;stroke-width:0"/>
<circle fill="#a64b00" stroke="#a64b00" stroke-width="0" cx="-331.02" cy="295.674" r="21.3333"/>
<circle fill="#a64b00" stroke="#a64b00" stroke-width="0" cx="-245.575" cy="98.4044" r="21.3333"/>
<circle fill="#a64b00" stroke="#a64b00" stroke-width="0" cx="819.191" cy="244.065" r="21.3333"/>
<circle fill="#a64b00" stroke="#a64b00" stroke-width="0" cx="935.164" cy="428.891" r="21.3333"/>
<circle fill="#a64b00" stroke="#a64b00" stroke-width="0" cx="-133.3" cy="287.644" r="21.3333"/>
</svg>
