<?xml version="1.0" encoding="utf-8"?> <!-- Generator: Adobe Illustrator 13.0.0, SVG Export Plug-In . SVG Version: 6.00 Build 14948)  --> <svg version="1.2" baseProfile="tiny" id="Layer_1" xmlns="http://www.w3.org/2000/svg" xmlns:xlink="http://www.w3.org/1999/xlink" x="0px" y="0px" width="512px" height="512px" viewBox="0 0 512 512" xml:space="preserve">
<polygon points="0,0 512,0 512,512 0,512" style="fill:#ffffff; stroke:#000000;stroke-width:0"/>
<polygon points="-114.653,132.123 -117.496,174.695 -321.332,161.08 -318.488,118.508" style="fill:#006363; stroke:#000000;stroke-width:0"/>
<circle fill="#006363" stroke="#006363" stroke-width="0" cx="-116.074" cy="153.409" r="21.3333"/>
<circle fill="#006363" stroke="#006363" stroke-width="0" cx="-319.91" cy="139.794" r="21.3333"/>
<polygon points="750.515,406.614 714.563,383.637 833.044,198.253 868.996,221.23" style="fill:#006363; stroke:#000000;stroke-width:0"/>
<circle fill="#006363" stroke="#006363" stroke-width="0" cx="732.539" cy="395.126" r="21.3333"/>
<circle fill="#006363" stroke="#006363" stroke-width="0" cx="851.02" cy="209.742" r="21.3333"/>
<polygon points="1256,469.333 256,1469.33 -744,469.333" style="fill:#000000; stroke:#000000;stroke-width:0"/>
<polygon points="-744,42.6667 256,-957.333 1256,42.6667" style="fill:#000000; stroke:#000000;stroke-width:0"/>
<circle fill="#a64b00" stroke="#a64b00" stroke-width="0" cx="-116.074" cy="153.409" r="21.3333"/>
<circle fill="#a64b00" stroke="#a64b00" stroke-width="0" cx="-319.91" cy="139.794" r="21.3333"/>
<circle fill="#a64b00" stroke="#a64b00" stroke-width="0" cx="732.539" cy="395.126" r="21.3333"/>
<circle fill="#a64b00" stroke="#a64b00" stroke-width="0" cx="851.02" cy="209.742" r="21.3333"/>
<circle fill="#a64b00" stroke="#a64b00" stroke-width="0" cx="26.5732" cy="77.7526" r="21.3333"/>
</svg>
