<?xml version="1.0" encoding="utf-8"?> <!-- Generator: Adobe Illustrator 13.0.0, SVG Export Plug-In . SVG Version: 6.00 Build 14948)  --> <svg version="1.2" baseProfile="tiny" id="Layer_1" xmlns="http://www.w3.org/2000/svg" xmlns:xlink="http://www.w3.org/1999/xlink" x="0px" y="0px" width="512px" height="512px" viewBox="0 0 512 512" xml:space="preserve">
<polygon points="0,0 512,0 512,512 0,512" style="fill:#ffffff; stroke:#000000;stroke-width:0"/>
<polygon points="-58.1364,231.293 -18.3113,215.983 59.5744,418.577 19.7493,433.888" style="fill:#006363; stroke:#000000;stroke-width:0"/>
<circle fill="#006363" stroke="#006363" stroke-width="0" cx="-38.2238" cy="223.638" r="21.3333"/>
<circle fill="#006363" stroke="#006363" stroke-width="0" cx="39.6618" cy="426.233" r="21.3333"/>
<polygon points="426.528,121.684 450.561,86.4293 628.088,207.446 604.055,242.701" style="fill:#006363; stroke:#000000;stroke-width:0"/>
<circle fill="#006363" stroke="#006363" stroke-width="0" cx="438.545" cy="104.057" r="21.3333"/>
<circle fill="#006363" stroke="#006363" stroke-width="0" cx="616.071" cy="225.073" r="21.3333"/>
<polygon points="1256,469.333 256,1469.33 -744,469.333" style="fill:#000000; stroke:#000000;stroke-width:0"/>
<polygon points="-744,42.6667 256,-957.333 1256,42.6667" style="fill:#000000; stroke:#000000;stroke-width:0"/>
<circle fill="#a64b00" stroke="#a64b00" stroke-width="0" cx="-38.2238" cy="223.638" r="21.3333"/>
<circle fill="#a64b00" stroke="#a64b00" stroke-width="0" cx="39.6618" cy="426.233" r="21.3333"/>
<circle fill="#a64b00" stroke="#a64b00" stroke-width="0" cx="438.545" cy="104.057" r="21.3333"/>
<circle fill="#a64b00" stroke="#a64b00" stroke-width="0" cx="616.071" cy="225.073" r="21.3333"/>
<circle fill="#a64b00" stroke="#a64b00" stroke-width="0" cx="165.277" cy="273.82" r="21.3333"/>
</svg>
