<?xml version="1.0" encoding="utf-8"?> <!-- Generator: Adobe Illustrator 13.0.0, SVG Export Plug-In . SVG Version: 6.00 Build 14948)  --> <svg version="1.2" baseProfile="tiny" id="Layer_1" xmlns="http://www.w3.org/2000/svg" xmlns:xlink="http://www.w3.org/1999/xlink" x="0px" y="0px" width="512px" height="512px" viewBox="0 0 512 512" xml:space="preserve">
<polygon points="0,0 512,0 512,512 0,512" style="fill:#ffffff; stroke:#000000;stroke-width:0"/>
<polygon points="-340.211,268.66 -373.255,241.669 -242.155,81.1708 -209.111,108.162" style="fill:#006363; stroke:#000000;stroke-width:0"/>
<circle fill="#006363" stroke="#006363" stroke-width="0" cx="-356.733" cy="255.165" r="21.3333"/>
<circle fill="#006363" stroke="#006363" stroke-width="0" cx="-225.633" cy="94.6666" r="21.3333"/>
<polygon points="813.111,246.251 851.359,227.343 948.254,423.347 910.006,442.255" style="fill:#006363; stroke:#000000;stroke-width:0"/>
<circle fill="#006363" stroke="#006363" stroke-width="0" cx="832.235" cy="236.797" r="21.3333"/>
<circle fill="#006363" stroke="#006363" stroke-width="0" cx="929.13" cy="432.801" r="21.3333"/>
<polygon points="1256,469.333 256,1469.33 -744,469.333" style="fill:#000000; stroke:#000000;stroke-width:0"/>
<polygon points="-744,42.6667 256,-957.333 1256,42.6667" style="fill:#000000; stroke:#000000;stroke-width:0"/>
<circle fill="#a64b00" stroke="#a64b00" stroke-width="0" cx="-356.733" cy="255.165" r="21.3333"/>
<circle fill="#a64b00" stroke="#a64b00" stroke-width="0" cx="-225.633" cy="94.6666" r="21.3333"/>
<circle fill="#a64b00" stroke="#a64b00" stroke-width="0" cx="832.235" cy="236.797" r="21.3333"/>
<circle fill="#a64b00" stroke="#a64b00" stroke-width="0" cx="929.13" cy="432.801" r="21.3333"/>
<circle fill="#a64b00" stroke="#a64b00" stroke-width="0" cx="-139.862" cy="392.59" r="21.3333"/>
</svg>
