<?xml version="1.0" encoding="utf-8"?> <!-- Generator: Adobe Illustrator 13.0.0, SVG Export Plug-In . SVG Version: 6.00 Build 14948)  --> <svg version="1.2" baseProfile="tiny" id="Layer_1" xmlns="http://www.w3.org/2000/svg" xmlns:xlink="http://www.w3.org/1999/xlink" x="0px" y="0px" width="512px" height="512px" viewBox="0 0 512 512" xml:space="preserve">
<polygon points="0,0 512,0 512,512 0,512" style="fill:#ffffff; stroke:#000000;stroke-width:0"/>
<polygon points="-88.6994,112.805 -79.3225,154.429 -289.572,201.793 -298.949,160.17" style="fill:#006363; stroke:#000000;stroke-width:0"/>
<circle fill="#006363" stroke="#006363" stroke-width="0" cx="-84.0109" cy="133.617" r="21.3333"/>
<circle fill="#006363" stroke="#006363" stroke-width="0" cx="-294.26" cy="180.981" r="21.3333"/>
<polygon points="745.231,308.129 704.565,295.215 768.225,94.7596 808.891,107.674" style="fill:#006363; stroke:#000000;stroke-width:0"/>
<circle fill="#006363" stroke="#006363" stroke-width="0" cx="724.898" cy="301.672" r="21.3333"/>
<circle fill="#006363" stroke="#006363" stroke-width="0" cx="788.558" cy="101.217" r="21.3333"/>
<polygon points="1256,469.333 256,1469.33 -744,469.333" style="fill:#000000; stroke:#000000;stroke-width:0"/>
<polygon points="-744,42.6667 256,-957.333 1256,42.6667" style="fill:#000000; stroke:#000000;stroke-width:0"/>
<circle fill="#a64b00" stroke="#a64b00" stroke-width="0" cx="-84.0109" cy="133.617" r="21.3333"/>
<circle fill="#a64b00" stroke="#a64b00" stroke-width="0" cx="-294.26" cy="180.981" r="21.3333"/>
<circle fill="#a64b00" stroke="#a64b00" stroke-width="0" cx="724.898" cy="301.672" r="21.3333"/>
<circle fill="#a64b00" stroke="#a64b00" stroke-width="0" cx="788.558" cy="101.217" r="21.3333"/>
<circle fill="#a64b00" stroke="#a64b00" stroke-width="0" cx="92.1928" cy="306.725" r="21.3333"/>
</svg>
