<?xml version="1.0" encoding="utf-8"?> <!-- Generator: Adobe Illustrator 13.0.0, SVG Export Plug-In . SVG Version: 6.00 Build 14948)  --> <svg version="1.2" baseProfile="tiny" id="Layer_1" xmlns="http://www.w3.org/2000/svg" xmlns:xlink="http://www.w3.org/1999/xlink" x="0px" y="0px" width="512px" height="512px" viewBox="0 0 512 512" xml:space="preserve">
<polygon points="0,0 512,0 512,512 0,512" style="fill:#ffffff; stroke:#000000;stroke-width:0"/>
<polygon points="-27.7162,188.713 14.1103,180.287 54.8391,382.475 13.0126,390.901" style="fill:#006363; stroke:#000000;stroke-width:0"/>
<circle fill="#006363" stroke="#006363" stroke-width="0" cx="-6.80292" cy="184.5" r="21.3333"/>
<circle fill="#006363" stroke="#006363" stroke-width="0" cx="33.9258" cy="386.688" r="21.3333"/>
<polygon points="448,115.605 487.079,98.4809 572.562,293.564 533.483,310.688" style="fill:#006363; stroke:#000000;stroke-width:0"/>
<circle fill="#006363" stroke="#006363" stroke-width="0" cx="467.54" cy="107.043" r="21.3333"/>
<circle fill="#006363" stroke="#006363" stroke-width="0" cx="553.023" cy="302.126" r="21.3333"/>
<polygon points="1256,469.333 256,1469.33 -744,469.333" style="fill:#000000; stroke:#000000;stroke-width:0"/>
<polygon points="-744,42.6667 256,-957.333 1256,42.6667" style="fill:#000000; stroke:#000000;stroke-width:0"/>
<circle fill="#a64b00" stroke="#a64b00" stroke-width="0" cx="-6.80292" cy="184.5" r="21.3333"/>
<circle fill="#a64b00" stroke="#a64b00" stroke-width="0" cx="33.9258" cy="386.688" r="21.3333"/>
<circle fill="#a64b00" stroke="#a64b00" stroke-width="0" cx="467.54" cy="107.043" r="21.3333"/>
<circle fill="#a64b00" stroke="#a64b00" stroke-width="0" cx="553.023" cy="302.126" r="21.3333"/>
<circle fill="#a64b00" stroke="#a64b00" stroke-width="0" cx="319.489" cy="134.131" r="21.3333"/>
</svg>
