<?xml version="1.0" encoding="utf-8"?> <!-- Generator: Adobe Illustrator 13.0.0, SVG Export Plug-In . SVG Version: 6.00 Build 14948)  --> <svg version="1.2" baseProfile="tiny" id="Layer_1" xmlns="http://www.w3.org/2000/svg" xmlns:xlink="http://www.w3.org/1999/xlink" x="0px" y="0px" width="512px" height="512px" viewBox="0 0 512 512" xml:space="preserve">
<polygon points="0,0 512,0 512,512 0,512" style="fill:#ffffff; stroke:#000000;stroke-width:0"/>
<polygon points="-154.71,254.983 -142.165,295.763 -336.889,355.667 -349.435,314.887" style="fill:#006363; stroke:#000000;stroke-width:0"/>
<circle fill="#006363" stroke="#006363" stroke-width="0" cx="-148.437" cy="275.373" r="21.3333"/>
<circle fill="#006363" stroke="#006363" stroke-width="0" cx="-343.162" cy="335.277" r="21.3333"/>
<polygon points="741.648,431.477 721.155,394.054 909.464,290.933 929.958,328.355" style="fill:#006363; stroke:#000000;stroke-width:0"/>
<circle fill="#006363" stroke="#006363" stroke-width="0" cx="731.401" cy="412.766" r="21.3333"/>
<circle fill="#006363" stroke="#006363" stroke-width="0" cx="919.711" cy="309.644" r="21.3333"/>
<polygon points="1256,469.333 256,1469.33 -744,469.333" style="fill:#000000; stroke:#000000;stroke-width:0"/>
<polygon points="-744,42.6667 256,-957.333 1256,42.6667" style="fill:#000000; stroke:#000000;stroke-width:0"/>
<circle fill="#a64b00" stroke="#a64b00" stroke-width="0" cx="-148.437" cy="275.373" r="21.3333"/>
<circle fill="#a64b00" stroke="#a64b00" stroke-width="0" cx="-343.162" cy="335.277" r="21.3333"/>
<circle fill="#a64b00" stroke="#a64b00" stroke-width="0" cx="731.401" cy="412.766" r="21.3333"/>
<circle fill="#a64b00" stroke="#a64b00" stroke-width="0" cx="919.711" cy="309.644" r="21.3333"/>
<circle fill="#a64b00" stroke="#a64b00" stroke-width="0" cx="-36.6603" cy="306.725" r="21.3333"/>
</svg>
