<?xml version="1.0" encoding="utf-8"?> <!-- Generator: Adobe Illustrator 13.0.0, SVG Export Plug-In . SVG Version: 6.00 Build 14948)  --> <svg version="1.2" baseProfile="tiny" id="Layer_1" xmlns="http://www.w3.org/2000/svg" xmlns:xlink="http://www.w3.org/1999/xlink" x="0px" y="0px" width="512px" height="512px" viewBox="0 0 512 512" xml:space="preserve">
<polygon points="0,0 512,0 512,512 0,512" style="fill:#ffffff; stroke:#000000;stroke-width:0"/>
<polygon points="-164.859,318.433 -200.058,294.32 -79.0981,117.743 -43.8984,141.856" style="fill:#006363; stroke:#000000;stroke-width:0"/>
<circle fill="#006363" stroke="#006363" stroke-width="0" cx="-182.459" cy="306.376" r="21.3333"/>
<circle fill="#006363" stroke="#006363" stroke-width="0" cx="-61.4982" cy="129.799" r="21.3333"/>
<polygon points="570.766,291.301 590.034,253.233 779.542,349.153 760.274,387.221" style="fill:#006363; stroke:#000000;stroke-width:0"/>
<circle fill="#006363" stroke="#006363" stroke-width="0" cx="580.4" cy="272.267" r="21.3333"/>
<circle fill="#006363" stroke="#006363" stroke-width="0" cx="769.908" cy="368.187" r="21.3333"/>
<polygon points="1256,469.333 256,1469.33 -744,469.333" style="fill:#000000; stroke:#000000;stroke-width:0"/>
<polygon points="-744,42.6667 256,-957.333 1256,42.6667" style="fill:#000000; stroke:#000000;stroke-width:0"/>
<circle fill="#a64b00" stroke="#a64b00" stroke-width="0" cx="-182.459" cy="306.376" r="21.3333"/>
<circle fill="#a64b00" stroke="#a64b00" stroke-width="0" cx="-61.4982" cy="129.799" r="21.3333"/>
<circle fill="#a64b00" stroke="#a64b00" stroke-width="0" cx="580.4" cy="272.267" r="21.3333"/>
<circle fill="#a64b00" stroke="#a64b00" stroke-width="0" cx="769.908" cy="368.187" r="21.3333"/>
<circle fill="#a64b00" stroke="#a64b00" stroke-width="0" cx="244.908" cy="402.13" r="21.3333"/>
</svg>
