<?xml version="1.0" encoding="utf-8"?> <!-- Generator: Adobe Illustrator 13.0.0, SVG Export Plug-In . SVG Version: 6.00 Build 14948)  --> <svg version="1.2" baseProfile="tiny" id="Layer_1" xmlns="http://www.w3.org/2000/svg" xmlns:xlink="http://www.w3.org/1999/xlink" x="0px" y="0px" width="512px" height="512px" viewBox="0 0 512 512" xml:space="preserve">
<polygon points="0,0 512,0 512,512 0,512" style="fill:#ffffff; stroke:#000000;stroke-width:0"/>
<polygon points="-65.1244,319.342 -72.3222,361.397 -279.044,326.016 -271.846,283.961" style="fill:#006363; stroke:#000000;stroke-width:0"/>
<circle fill="#006363" stroke="#006363" stroke-width="0" cx="-68.7233" cy="340.369" r="21.3333"/>
<circle fill="#006363" stroke="#006363" stroke-width="0" cx="-275.445" cy="304.989" r="21.3333"/>
<polygon points="723.963,324.494 683.361,311.382 748.068,111.006 788.67,124.118" style="fill:#006363; stroke:#000000;stroke-width:0"/>
<circle fill="#006363" stroke="#006363" stroke-width="0" cx="703.662" cy="317.938" r="21.3333"/>
<circle fill="#006363" stroke="#006363" stroke-width="0" cx="768.369" cy="117.562" r="21.3333"/>
<polygon points="1256,469.333 256,1469.33 -744,469.333" style="fill:#000000; stroke:#000000;stroke-width:0"/>
<polygon points="-744,42.6667 256,-957.333 1256,42.6667" style="fill:#000000; stroke:#000000;stroke-width:0"/>
<circle fill="#a64b00" stroke="#a64b00" stroke-width="0" cx="-68.7233" cy="340.369" r="21.3333"/>
<circle fill="#a64b00" stroke="#a64b00" stroke-width="0" cx="-275.445" cy="304.989" r="21.3333"/>
<circle fill="#a64b00" stroke="#a64b00" stroke-width="0" cx="703.662" cy="317.938" r="21.3333"/>
<circle fill="#a64b00" stroke="#a64b00" stroke-width="0" cx="768.369" cy="117.562" r="21.3333"/>
<circle fill="#a64b00" stroke="#a64b00" stroke-width="0" cx="130.968" cy="144.536" r="21.3333"/>
</svg>
