<?xml version="1.0" encoding="utf-8"?> <!-- Generator: Adobe Illustrator 13.0.0, SVG Export Plug-In . SVG Version: 6.00 Build 14948)  --> <svg version="1.2" baseProfile="tiny" id="Layer_1" xmlns="http://www.w3.org/2000/svg" xmlns:xlink="http://www.w3.org/1999/xlink" x="0px" y="0px" width="512px" height="512px" viewBox="0 0 512 512" xml:space="preserve">
<polygon points="0,0 512,0 512,512 0,512" style="fill:#ffffff; stroke:#000000;stroke-width:0"/>
<polygon points="18.1183,186.412 60.7815,185.872 63.4459,396.521 20.7827,397.061" style="fill:#006363; stroke:#000000;stroke-width:0"/>
<circle fill="#006363" stroke="#006363" stroke-width="0" cx="39.4499" cy="186.142" r="21.3333"/>
<circle fill="#006363" stroke="#006363" stroke-width="0" cx="42.1143" cy="396.791" r="21.3333"/>
<polygon points="450.814,102.734 493.468,101.7 498.673,316.425 456.019,317.459" style="fill:#006363; stroke:#000000;stroke-width:0"/>
<circle fill="#006363" stroke="#006363" stroke-width="0" cx="472.141" cy="102.217" r="21.3333"/>
<circle fill="#006363" stroke="#006363" stroke-width="0" cx="477.346" cy="316.942" r="21.3333"/>
<polygon points="1256,469.333 256,1469.33 -744,469.333" style="fill:#000000; stroke:#000000;stroke-width:0"/>
<polygon points="-744,42.6667 256,-957.333 1256,42.6667" style="fill:#000000; stroke:#000000;stroke-width:0"/>
<circle fill="#a64b00" stroke="#a64b00" stroke-width="0" cx="39.4499" cy="186.142" r="21.3333"/>
<circle fill="#a64b00" stroke="#a64b00" stroke-width="0" cx="42.1143" cy="396.791" r="21.3333"/>
<circle fill="#a64b00" stroke="#a64b00" stroke-width="0" cx="472.141" cy="102.217" r="21.3333"/>
<circle fill="#a64b00" stroke="#a64b00" stroke-width="0" cx="477.346" cy="316.942" r="21.3333"/>
<circle fill="#a64b00" stroke="#a64b00" stroke-width="0" cx="265.544" cy="256" r="21.3333"/>
</svg>
