<?xml version="1.0" encoding="utf-8"?> <!-- Generator: Adobe Illustrator 13.0.0, SVG Export Plug-In . SVG Version: 6.00 Build 14948)  --> <svg version="1.2" baseProfile="tiny" id="Layer_1" xmlns="http://www.w3.org/2000/svg" xmlns:xlink="http://www.w3.org/1999/xlink" x="0px" y="0px" width="512px" height="512px" viewBox="0 0 512 512" xml:space="preserve">
<polygon points="0,0 512,0 512,512 0,512" style="fill:#ffffff; stroke:#000000;stroke-width:0"/>
<polygon points="9.04336,71.8602 51.66,69.7948 61.8416,279.873 19.225,281.939" style="fill:#006363; stroke:#000000;stroke-width:0"/>
<circle fill="#006363" stroke="#006363" stroke-width="0" cx="30.3517" cy="70.8275" r="21.3333"/>
<circle fill="#006363" stroke="#006363" stroke-width="0" cx="40.5333" cy="280.906" r="21.3333"/>
<polygon points="455.744,198.64 498.33,196.016 511.551,410.584 468.965,413.208" style="fill:#006363; stroke:#000000;stroke-width:0"/>
<circle fill="#006363" stroke="#006363" stroke-width="0" cx="477.037" cy="197.328" r="21.3333"/>
<circle fill="#006363" stroke="#006363" stroke-width="0" cx="490.258" cy="411.896" r="21.3333"/>
<polygon points="1256,469.333 256,1469.33 -744,469.333" style="fill:#000000; stroke:#000000;stroke-width:0"/>
<polygon points="-744,42.6667 256,-957.333 1256,42.6667" style="fill:#000000; stroke:#000000;stroke-width:0"/>
<circle fill="#a64b00" stroke="#a64b00" stroke-width="0" cx="30.3517" cy="70.8275" r="21.3333"/>
<circle fill="#a64b00" stroke="#a64b00" stroke-width="0" cx="40.5333" cy="280.906" r="21.3333"/>
<circle fill="#a64b00" stroke="#a64b00" stroke-width="0" cx="477.037" cy="197.328" r="21.3333"/>
<circle fill="#a64b00" stroke="#a64b00" stroke-width="0" cx="490.258" cy="411.896" r="21.3333"/>
<circle fill="#a64b00" stroke="#a64b00" stroke-width="0" cx="96.6615" cy="280.667" r="21.3333"/>
</svg>
