<?xml version="1.0" encoding="utf-8"?> <!-- Generator: Adobe Illustrator 13.0.0, SVG Export Plug-In . SVG Version: 6.00 Build 14948)  --> <svg version="1.2" baseProfile="tiny" id="Layer_1" xmlns="http://www.w3.org/2000/svg" xmlns:xlink="http://www.w3.org/1999/xlink" x="0px" y="0px" width="512px" height="512px" viewBox="0 0 512 512" xml:space="preserve">
<polygon points="0,0 512,0 512,512 0,512" style="fill:#ffffff; stroke:#000000;stroke-width:0"/>
<polygon points="-50.9306,244.335 -10.3911,231.031 54.3752,428.383 13.8357,441.687" style="fill:#006363; stroke:#000000;stroke-width:0"/>
<circle fill="#006363" stroke="#006363" stroke-width="0" cx="-30.6608" cy="237.683" r="21.3333"/>
<circle fill="#006363" stroke="#006363" stroke-width="0" cx="34.1055" cy="435.035" r="21.3333"/>
<polygon points="429.735,115.269 455.972,81.6228 622.22,211.261 595.983,244.907" style="fill:#006363; stroke:#000000;stroke-width:0"/>
<circle fill="#006363" stroke="#006363" stroke-width="0" cx="442.854" cy="98.4459" r="21.3333"/>
<circle fill="#006363" stroke="#006363" stroke-width="0" cx="609.102" cy="228.084" r="21.3333"/>
<polygon points="1256,469.333 256,1469.33 -744,469.333" style="fill:#000000; stroke:#000000;stroke-width:0"/>
<polygon points="-744,42.6667 256,-957.333 1256,42.6667" style="fill:#000000; stroke:#000000;stroke-width:0"/>
<circle fill="#a64b00" stroke="#a64b00" stroke-width="0" cx="-30.6608" cy="237.683" r="21.3333"/>
<circle fill="#a64b00" stroke="#a64b00" stroke-width="0" cx="34.1055" cy="435.035" r="21.3333"/>
<circle fill="#a64b00" stroke="#a64b00" stroke-width="0" cx="442.854" cy="98.4459" r="21.3333"/>
<circle fill="#a64b00" stroke="#a64b00" stroke-width="0" cx="609.102" cy="228.084" r="21.3333"/>
<circle fill="#a64b00" stroke="#a64b00" stroke-width="0" cx="177.325" cy="312.622" r="21.3333"/>
</svg>
