<?xml version="1.0" encoding="utf-8"?> <!-- Generator: Adobe Illustrator 13.0.0, SVG Export Plug-In . SVG Version: 6.00 Build 14948)  --> <svg version="1.2" baseProfile="tiny" id="Layer_1" xmlns="http://www.w3.org/2000/svg" xmlns:xlink="http://www.w3.org/1999/xlink" x="0px" y="0px" width="512px" height="512px" viewBox="0 0 512 512" xml:space="preserve">
<polygon points="0,0 512,0 512,512 0,512" style="fill:#ffffff; stroke:#000000;stroke-width:0"/>
<polygon points="11.6576,104.291 54.2936,102.673 62.3683,315.442 19.7324,317.06" style="fill:#006363; stroke:#000000;stroke-width:0"/>
<circle fill="#006363" stroke="#006363" stroke-width="0" cx="32.9756" cy="103.482" r="21.3333"/>
<circle fill="#006363" stroke="#006363" stroke-width="0" cx="41.0504" cy="316.251" r="21.3333"/>
<polygon points="453.878,171.1 496.491,168.97 507.152,382.26 464.539,384.39" style="fill:#006363; stroke:#000000;stroke-width:0"/>
<circle fill="#006363" stroke="#006363" stroke-width="0" cx="475.185" cy="170.035" r="21.3333"/>
<circle fill="#006363" stroke="#006363" stroke-width="0" cx="485.845" cy="383.325" r="21.3333"/>
<polygon points="1256,469.333 256,1469.33 -744,469.333" style="fill:#000000; stroke:#000000;stroke-width:0"/>
<polygon points="-744,42.6667 256,-957.333 1256,42.6667" style="fill:#000000; stroke:#000000;stroke-width:0"/>
<circle fill="#a64b00" stroke="#a64b00" stroke-width="0" cx="32.9756" cy="103.482" r="21.3333"/>
<circle fill="#a64b00" stroke="#a64b00" stroke-width="0" cx="41.0504" cy="316.251" r="21.3333"/>
<circle fill="#a64b00" stroke="#a64b00" stroke-width="0" cx="475.185" cy="170.035" r="21.3333"/>
<circle fill="#a64b00" stroke="#a64b00" stroke-width="0" cx="485.845" cy="383.325" r="21.3333"/>
<circle fill="#a64b00" stroke="#a64b00" stroke-width="0" cx="249.093" cy="269.785" r="21.3333"/>
</svg>
