<?xml version="1.0" encoding="utf-8"?> <!-- Generator: Adobe Illustrator 13.0.0, SVG Export Plug-In . SVG Version: 6.00 Build 14948)  --> <svg version="1.2" baseProfile="tiny" id="Layer_1" xmlns="http://www.w3.org/2000/svg" xmlns:xlink="http://www.w3.org/1999/xlink" x="0px" y="0px" width="512px" height="512px" viewBox="0 0 512 512" xml:space="preserve">
<polygon points="0,0 512,0 512,512 0,512" style="fill:#ffffff; stroke:#000000;stroke-width:0"/>
<polygon points="-0.21188,87.044 42.3071,83.4974 60.6449,303.343 18.1259,306.89" style="fill:#006363; stroke:#000000;stroke-width:0"/>
<circle fill="#006363" stroke="#006363" stroke-width="0" cx="21.0476" cy="85.2707" r="21.3333"/>
<circle fill="#006363" stroke="#006363" stroke-width="0" cx="39.3854" cy="305.116" r="21.3333"/>
<polygon points="458.011,235.26 500.488,231.241 520.562,443.428 478.085,447.446" style="fill:#006363; stroke:#000000;stroke-width:0"/>
<circle fill="#006363" stroke="#006363" stroke-width="0" cx="479.249" cy="233.251" r="21.3333"/>
<circle fill="#006363" stroke="#006363" stroke-width="0" cx="499.323" cy="445.437" r="21.3333"/>
<polygon points="1256,469.333 256,1469.33 -744,469.333" style="fill:#000000; stroke:#000000;stroke-width:0"/>
<polygon points="-744,42.6667 256,-957.333 1256,42.6667" style="fill:#000000; stroke:#000000;stroke-width:0"/>
<circle fill="#a64b00" stroke="#a64b00" stroke-width="0" cx="21.0476" cy="85.2707" r="21.3333"/>
<circle fill="#a64b00" stroke="#a64b00" stroke-width="0" cx="39.3854" cy="305.116" r="21.3333"/>
<circle fill="#a64b00" stroke="#a64b00" stroke-width="0" cx="479.249" cy="233.251" r="21.3333"/>
<circle fill="#a64b00" stroke="#a64b00" stroke-width="0" cx="499.323" cy="445.437" r="21.3333"/>
<circle fill="#a64b00" stroke="#a64b00" stroke-width="0" cx="302.112" cy="365.591" r="21.3333"/>
</svg>
