<?xml version="1.0" encoding="utf-8"?> <!-- Generator: Adobe Illustrator 13.0.0, SVG Export Plug-In . SVG Version: 6.00 Build 14948)  --> <svg version="1.2" baseProfile="tiny" id="Layer_1" xmlns="http://www.w3.org/2000/svg" xmlns:xlink="http://www.w3.org/1999/xlink" x="0px" y="0px" width="512px" height="512px" viewBox="0 0 512 512" xml:space="preserve">
<polygon points="0,0 512,0 512,512 0,512" style="fill:#ffffff; stroke:#000000;stroke-width:0"/>
<polygon points="-103.576,171.204 -61.3721,164.936 -30.201,374.826 -72.4047,381.093" style="fill:#006363; stroke:#000000;stroke-width:0"/>
<circle fill="#006363" stroke="#006363" stroke-width="0" cx="-82.474" cy="168.07" r="21.3333"/>
<circle fill="#006363" stroke="#006363" stroke-width="0" cx="-51.3028" cy="377.959" r="21.3333"/>
<polygon points="718.039,244.92 711.231,287.04 498.436,252.646 505.244,210.526" style="fill:#006363; stroke:#000000;stroke-width:0"/>
<circle fill="#006363" stroke="#006363" stroke-width="0" cx="714.635" cy="265.98" r="21.3333"/>
<circle fill="#006363" stroke="#006363" stroke-width="0" cx="501.84" cy="231.586" r="21.3333"/>
<polygon points="1256,469.333 256,1469.33 -744,469.333" style="fill:#000000; stroke:#000000;stroke-width:0"/>
<polygon points="-744,42.6667 256,-957.333 1256,42.6667" style="fill:#000000; stroke:#000000;stroke-width:0"/>
<circle fill="#a64b00" stroke="#a64b00" stroke-width="0" cx="-82.474" cy="168.07" r="21.3333"/>
<circle fill="#a64b00" stroke="#a64b00" stroke-width="0" cx="-51.3028" cy="377.959" r="21.3333"/>
<circle fill="#a64b00" stroke="#a64b00" stroke-width="0" cx="714.635" cy="265.98" r="21.3333"/>
<circle fill="#a64b00" stroke="#a64b00" stroke-width="0" cx="501.84" cy="231.586" r="21.3333"/>
<circle fill="#a64b00" stroke="#a64b00" stroke-width="0" cx="370.181" cy="58.6716" r="21.3333"/>
</svg>
