<?xml version="1.0" encoding="utf-8"?> <!-- Generator: Adobe Illustrator 13.0.0, SVG Export Plug-In . SVG Version: 6.00 Build 14948)  --> <svg version="1.2" baseProfile="tiny" id="Layer_1" xmlns="http://www.w3.org/2000/svg" xmlns:xlink="http://www.w3.org/1999/xlink" x="0px" y="0px" width="512px" height="512px" viewBox="0 0 512 512" xml:space="preserve">
<polygon points="0,0 512,0 512,512 0,512" style="fill:#ffffff; stroke:#000000;stroke-width:0"/>
<polygon points="-68.2436,315.651 -75.174,357.751 -276.449,324.618 -269.519,282.518" style="fill:#006363; stroke:#000000;stroke-width:0"/>
<circle fill="#006363" stroke="#006363" stroke-width="0" cx="-71.7088" cy="336.701" r="21.3333"/>
<circle fill="#006363" stroke="#006363" stroke-width="0" cx="-272.984" cy="303.568" r="21.3333"/>
<polygon points="724.357,323.652 683.714,310.669 748.312,108.443 788.955,121.426" style="fill:#006363; stroke:#000000;stroke-width:0"/>
<circle fill="#006363" stroke="#006363" stroke-width="0" cx="704.035" cy="317.161" r="21.3333"/>
<circle fill="#006363" stroke="#006363" stroke-width="0" cx="768.633" cy="114.935" r="21.3333"/>
<polygon points="1256,469.333 256,1469.33 -744,469.333" style="fill:#000000; stroke:#000000;stroke-width:0"/>
<polygon points="-744,42.6667 256,-957.333 1256,42.6667" style="fill:#000000; stroke:#000000;stroke-width:0"/>
<circle fill="#a64b00" stroke="#a64b00" stroke-width="0" cx="-71.7088" cy="336.701" r="21.3333"/>
<circle fill="#a64b00" stroke="#a64b00" stroke-width="0" cx="-272.984" cy="303.568" r="21.3333"/>
<circle fill="#a64b00" stroke="#a64b00" stroke-width="0" cx="704.035" cy="317.161" r="21.3333"/>
<circle fill="#a64b00" stroke="#a64b00" stroke-width="0" cx="768.633" cy="114.935" r="21.3333"/>
<circle fill="#a64b00" stroke="#a64b00" stroke-width="0" cx="130.371" cy="134.996" r="21.3333"/>
</svg>
