<?xml version="1.0" encoding="utf-8"?> <!-- Generator: Adobe Illustrator 13.0.0, SVG Export Plug-In . SVG Version: 6.00 Build 14948)  --> <svg version="1.2" baseProfile="tiny" id="Layer_1" xmlns="http://www.w3.org/2000/svg" xmlns:xlink="http://www.w3.org/1999/xlink" x="0px" y="0px" width="512px" height="512px" viewBox="0 0 512 512" xml:space="preserve">
<polygon points="0,0 512,0 512,512 0,512" style="fill:#ffffff; stroke:#000000;stroke-width:0"/>
<polygon points="-118.486,95.8852 -76.4997,88.2976 -37.8513,302.162 -79.8379,309.75" style="fill:#006363; stroke:#000000;stroke-width:0"/>
<circle fill="#006363" stroke="#006363" stroke-width="0" cx="-97.493" cy="92.0914" r="21.3333"/>
<circle fill="#006363" stroke="#006363" stroke-width="0" cx="-58.8446" cy="305.956" r="21.3333"/>
<polygon points="711.94,199.849 729.34,238.806 531.939,326.975 514.539,288.018" style="fill:#006363; stroke:#000000;stroke-width:0"/>
<circle fill="#006363" stroke="#006363" stroke-width="0" cx="720.64" cy="219.328" r="21.3333"/>
<circle fill="#006363" stroke="#006363" stroke-width="0" cx="523.239" cy="307.497" r="21.3333"/>
<polygon points="1256,469.333 256,1469.33 -744,469.333" style="fill:#000000; stroke:#000000;stroke-width:0"/>
<polygon points="-744,42.6667 256,-957.333 1256,42.6667" style="fill:#000000; stroke:#000000;stroke-width:0"/>
<circle fill="#a64b00" stroke="#a64b00" stroke-width="0" cx="-97.493" cy="92.0914" r="21.3333"/>
<circle fill="#a64b00" stroke="#a64b00" stroke-width="0" cx="-58.8446" cy="305.956" r="21.3333"/>
<circle fill="#a64b00" stroke="#a64b00" stroke-width="0" cx="720.64" cy="219.328" r="21.3333"/>
<circle fill="#a64b00" stroke="#a64b00" stroke-width="0" cx="523.239" cy="307.497" r="21.3333"/>
<circle fill="#a64b00" stroke="#a64b00" stroke-width="0" cx="344.53" cy="430.752" r="21.3333"/>
</svg>
