<?xml version="1.0" encoding="utf-8"?> <!-- Generator: Adobe Illustrator 13.0.0, SVG Export Plug-In . SVG Version: 6.00 Build 14948)  --> <svg version="1.2" baseProfile="tiny" id="Layer_1" xmlns="http://www.w3.org/2000/svg" xmlns:xlink="http://www.w3.org/1999/xlink" x="0px" y="0px" width="512px" height="512px" viewBox="0 0 512 512" xml:space="preserve">
<polygon points="0,0 512,0 512,512 0,512" style="fill:#ffffff; stroke:#000000;stroke-width:0"/>
<polygon points="-57.6263,349.398 -52.9061,391.803 -260.308,414.89 -265.029,372.485" style="fill:#006363; stroke:#000000;stroke-width:0"/>
<circle fill="#006363" stroke="#006363" stroke-width="0" cx="-55.2662" cy="370.601" r="21.3333"/>
<circle fill="#006363" stroke="#006363" stroke-width="0" cx="-262.668" cy="393.687" r="21.3333"/>
<polygon points="690.664,408.358 652.584,389.114 749.503,197.336 787.583,216.581" style="fill:#006363; stroke:#000000;stroke-width:0"/>
<circle fill="#006363" stroke="#006363" stroke-width="0" cx="671.624" cy="398.736" r="21.3333"/>
<circle fill="#006363" stroke="#006363" stroke-width="0" cx="768.543" cy="206.959" r="21.3333"/>
<polygon points="1256,469.333 256,1469.33 -744,469.333" style="fill:#000000; stroke:#000000;stroke-width:0"/>
<polygon points="-744,42.6667 256,-957.333 1256,42.6667" style="fill:#000000; stroke:#000000;stroke-width:0"/>
<circle fill="#a64b00" stroke="#a64b00" stroke-width="0" cx="-55.2662" cy="370.601" r="21.3333"/>
<circle fill="#a64b00" stroke="#a64b00" stroke-width="0" cx="-262.668" cy="393.687" r="21.3333"/>
<circle fill="#a64b00" stroke="#a64b00" stroke-width="0" cx="671.624" cy="398.736" r="21.3333"/>
<circle fill="#a64b00" stroke="#a64b00" stroke-width="0" cx="768.543" cy="206.959" r="21.3333"/>
<circle fill="#a64b00" stroke="#a64b00" stroke-width="0" cx="160.795" cy="278.104" r="21.3333"/>
</svg>
