<?xml version="1.0" encoding="utf-8"?> <!-- Generator: Adobe Illustrator 13.0.0, SVG Export Plug-In . SVG Version: 6.00 Build 14948)  --> <svg version="1.2" baseProfile="tiny" id="Layer_1" xmlns="http://www.w3.org/2000/svg" xmlns:xlink="http://www.w3.org/1999/xlink" x="0px" y="0px" width="512px" height="512px" viewBox="0 0 512 512" xml:space="preserve">
<polygon points="0,0 512,0 512,512 0,512" style="fill:#ffffff; stroke:#000000;stroke-width:0"/>
<polygon points="-101.886,66.7018 -101.164,109.362 -302.618,112.776 -303.341,70.115" style="fill:#006363; stroke:#000000;stroke-width:0"/>
<circle fill="#006363" stroke="#006363" stroke-width="0" cx="-101.525" cy="88.0321" r="21.3333"/>
<circle fill="#006363" stroke="#006363" stroke-width="0" cx="-302.979" cy="91.4453" r="21.3333"/>
<polygon points="746.744,356.029 707.894,338.389 798.577,138.668 837.427,156.308" style="fill:#006363; stroke:#000000;stroke-width:0"/>
<circle fill="#006363" stroke="#006363" stroke-width="0" cx="727.319" cy="347.209" r="21.3333"/>
<circle fill="#006363" stroke="#006363" stroke-width="0" cx="818.002" cy="147.488" r="21.3333"/>
<polygon points="1256,469.333 256,1469.33 -744,469.333" style="fill:#000000; stroke:#000000;stroke-width:0"/>
<polygon points="-744,42.6667 256,-957.333 1256,42.6667" style="fill:#000000; stroke:#000000;stroke-width:0"/>
<circle fill="#a64b00" stroke="#a64b00" stroke-width="0" cx="-101.525" cy="88.0321" r="21.3333"/>
<circle fill="#a64b00" stroke="#a64b00" stroke-width="0" cx="-302.979" cy="91.4453" r="21.3333"/>
<circle fill="#a64b00" stroke="#a64b00" stroke-width="0" cx="727.319" cy="347.209" r="21.3333"/>
<circle fill="#a64b00" stroke="#a64b00" stroke-width="0" cx="818.002" cy="147.488" r="21.3333"/>
<circle fill="#a64b00" stroke="#a64b00" stroke-width="0" cx="62.3657" cy="287.644" r="21.3333"/>
</svg>
