<?xml version="1.0" encoding="utf-8"?> <!-- Generator: Adobe Illustrator 13.0.0, SVG Export Plug-In . SVG Version: 6.00 Build 14948)  --> <svg version="1.2" baseProfile="tiny" id="Layer_1" xmlns="http://www.w3.org/2000/svg" xmlns:xlink="http://www.w3.org/1999/xlink" x="0px" y="0px" width="512px" height="512px" viewBox="0 0 512 512" xml:space="preserve">
<polygon points="0,0 512,0 512,512 0,512" style="fill:#ffffff; stroke:#000000;stroke-width:0"/>
<polygon points="-144.342,143.961 -121.722,107.784 61.9826,222.648 39.3623,258.825" style="fill:#006363; stroke:#000000;stroke-width:0"/>
<circle fill="#006363" stroke="#006363" stroke-width="0" cx="-133.032" cy="125.872" r="21.3333"/>
<circle fill="#006363" stroke="#006363" stroke-width="0" cx="50.6725" cy="240.737" r="21.3333"/>
<polygon points="607.842,320.798 565.345,324.595 546.178,110.088 588.675,106.29" style="fill:#006363; stroke:#000000;stroke-width:0"/>
<circle fill="#006363" stroke="#006363" stroke-width="0" cx="586.594" cy="322.696" r="21.3333"/>
<circle fill="#006363" stroke="#006363" stroke-width="0" cx="567.426" cy="108.189" r="21.3333"/>
<polygon points="1256,469.333 256,1469.33 -744,469.333" style="fill:#000000; stroke:#000000;stroke-width:0"/>
<polygon points="-744,42.6667 256,-957.333 1256,42.6667" style="fill:#000000; stroke:#000000;stroke-width:0"/>
<circle fill="#a64b00" stroke="#a64b00" stroke-width="0" cx="-133.032" cy="125.872" r="21.3333"/>
<circle fill="#a64b00" stroke="#a64b00" stroke-width="0" cx="50.6725" cy="240.737" r="21.3333"/>
<circle fill="#a64b00" stroke="#a64b00" stroke-width="0" cx="586.594" cy="322.696" r="21.3333"/>
<circle fill="#a64b00" stroke="#a64b00" stroke-width="0" cx="567.426" cy="108.189" r="21.3333"/>
<circle fill="#a64b00" stroke="#a64b00" stroke-width="0" cx="428.642" cy="211.32" r="21.3333"/>
</svg>
