<?xml version="1.0" encoding="utf-8"?> <!-- Generator: Adobe Illustrator 13.0.0, SVG Export Plug-In . SVG Version: 6.00 Build 14948)  --> <svg version="1.2" baseProfile="tiny" id="Layer_1" xmlns="http://www.w3.org/2000/svg" xmlns:xlink="http://www.w3.org/1999/xlink" x="0px" y="0px" width="512px" height="512px" viewBox="0 0 512 512" xml:space="preserve">
<polygon points="0,0 512,0 512,512 0,512" style="fill:#ffffff; stroke:#000000;stroke-width:0"/>
<polygon points="-173.104,327.824 -156.845,367.272 -353.647,448.39 -369.907,408.942" style="fill:#006363; stroke:#000000;stroke-width:0"/>
<circle fill="#006363" stroke="#006363" stroke-width="0" cx="-164.975" cy="347.548" r="21.3333"/>
<circle fill="#006363" stroke="#006363" stroke-width="0" cx="-361.777" cy="428.666" r="21.3333"/>
<polygon points="735.011,358.456 740.317,316.12 958.8,343.501 953.495,385.837" style="fill:#006363; stroke:#000000;stroke-width:0"/>
<circle fill="#006363" stroke="#006363" stroke-width="0" cx="737.664" cy="337.288" r="21.3333"/>
<circle fill="#006363" stroke="#006363" stroke-width="0" cx="956.148" cy="364.669" r="21.3333"/>
<polygon points="1256,469.333 256,1469.33 -744,469.333" style="fill:#000000; stroke:#000000;stroke-width:0"/>
<polygon points="-744,42.6667 256,-957.333 1256,42.6667" style="fill:#000000; stroke:#000000;stroke-width:0"/>
<circle fill="#a64b00" stroke="#a64b00" stroke-width="0" cx="-164.975" cy="347.548" r="21.3333"/>
<circle fill="#a64b00" stroke="#a64b00" stroke-width="0" cx="-361.777" cy="428.666" r="21.3333"/>
<circle fill="#a64b00" stroke="#a64b00" stroke-width="0" cx="737.664" cy="337.288" r="21.3333"/>
<circle fill="#a64b00" stroke="#a64b00" stroke-width="0" cx="956.148" cy="364.669" r="21.3333"/>
<circle fill="#a64b00" stroke="#a64b00" stroke-width="0" cx="-76.6286" cy="163.617" r="21.3333"/>
</svg>
