<?xml version="1.0" encoding="utf-8"?> <!-- Generator: Adobe Illustrator 13.0.0, SVG Export Plug-In . SVG Version: 6.00 Build 14948)  --> <svg version="1.2" baseProfile="tiny" id="Layer_1" xmlns="http://www.w3.org/2000/svg" xmlns:xlink="http://www.w3.org/1999/xlink" x="0px" y="0px" width="512px" height="512px" viewBox="0 0 512 512" xml:space="preserve">
<polygon points="0,0 512,0 512,512 0,512" style="fill:#ffffff; stroke:#000000;stroke-width:0"/>
<polygon points="-134.049,193.097 -129.116,235.478 -329.742,258.829 -334.675,216.449" style="fill:#006363; stroke:#000000;stroke-width:0"/>
<circle fill="#006363" stroke="#006363" stroke-width="0" cx="-131.583" cy="214.287" r="21.3333"/>
<circle fill="#006363" stroke="#006363" stroke-width="0" cx="-332.209" cy="237.639" r="21.3333"/>
<polygon points="754.878,449.038 722.088,421.738 862.458,253.146 895.247,280.447" style="fill:#006363; stroke:#000000;stroke-width:0"/>
<circle fill="#006363" stroke="#006363" stroke-width="0" cx="738.483" cy="435.388" r="21.3333"/>
<circle fill="#006363" stroke="#006363" stroke-width="0" cx="878.852" cy="266.797" r="21.3333"/>
<polygon points="1256,469.333 256,1469.33 -744,469.333" style="fill:#000000; stroke:#000000;stroke-width:0"/>
<polygon points="-744,42.6667 256,-957.333 1256,42.6667" style="fill:#000000; stroke:#000000;stroke-width:0"/>
<circle fill="#a64b00" stroke="#a64b00" stroke-width="0" cx="-131.583" cy="214.287" r="21.3333"/>
<circle fill="#a64b00" stroke="#a64b00" stroke-width="0" cx="-332.209" cy="237.639" r="21.3333"/>
<circle fill="#a64b00" stroke="#a64b00" stroke-width="0" cx="738.483" cy="435.388" r="21.3333"/>
<circle fill="#a64b00" stroke="#a64b00" stroke-width="0" cx="878.852" cy="266.797" r="21.3333"/>
<circle fill="#a64b00" stroke="#a64b00" stroke-width="0" cx="-5.04354" cy="316.266" r="21.3333"/>
</svg>
