<?xml version="1.0" encoding="utf-8"?> <!-- Generator: Adobe Illustrator 13.0.0, SVG Export Plug-In . SVG Version: 6.00 Build 14948)  --> <svg version="1.2" baseProfile="tiny" id="Layer_1" xmlns="http://www.w3.org/2000/svg" xmlns:xlink="http://www.w3.org/1999/xlink" x="0px" y="0px" width="512px" height="512px" viewBox="0 0 512 512" xml:space="preserve">
<polygon points="0,0 512,0 512,512 0,512" style="fill:#ffffff; stroke:#000000;stroke-width:0"/>
<polygon points="-276.167,331.275 -318.561,326.467 -294.132,111.073 -251.738,115.882" style="fill:#006363; stroke:#000000;stroke-width:0"/>
<circle fill="#006363" stroke="#006363" stroke-width="0" cx="-297.364" cy="328.871" r="21.3333"/>
<circle fill="#006363" stroke="#006363" stroke-width="0" cx="-272.935" cy="113.477" r="21.3333"/>
<polygon points="792.5,271.104 825.864,244.509 954.207,405.515 920.843,432.111" style="fill:#006363; stroke:#000000;stroke-width:0"/>
<circle fill="#006363" stroke="#006363" stroke-width="0" cx="809.182" cy="257.807" r="21.3333"/>
<circle fill="#006363" stroke="#006363" stroke-width="0" cx="937.525" cy="418.813" r="21.3333"/>
<polygon points="1256,469.333 256,1469.33 -744,469.333" style="fill:#000000; stroke:#000000;stroke-width:0"/>
<polygon points="-744,42.6667 256,-957.333 1256,42.6667" style="fill:#000000; stroke:#000000;stroke-width:0"/>
<circle fill="#a64b00" stroke="#a64b00" stroke-width="0" cx="-297.364" cy="328.871" r="21.3333"/>
<circle fill="#a64b00" stroke="#a64b00" stroke-width="0" cx="-272.935" cy="113.477" r="21.3333"/>
<circle fill="#a64b00" stroke="#a64b00" stroke-width="0" cx="809.182" cy="257.807" r="21.3333"/>
<circle fill="#a64b00" stroke="#a64b00" stroke-width="0" cx="937.525" cy="418.813" r="21.3333"/>
<circle fill="#a64b00" stroke="#a64b00" stroke-width="0" cx="-126.142" cy="173.158" r="21.3333"/>
</svg>
