<?xml version="1.0" encoding="utf-8"?> <!-- Generator: Adobe Illustrator 13.0.0, SVG Export Plug-In . SVG Version: 6.00 Build 14948)  --> <svg version="1.2" baseProfile="tiny" id="Layer_1" xmlns="http://www.w3.org/2000/svg" xmlns:xlink="http://www.w3.org/1999/xlink" x="0px" y="0px" width="512px" height="512px" viewBox="0 0 512 512" xml:space="preserve">
<polygon points="0,0 512,0 512,512 0,512" style="fill:#ffffff; stroke:#000000;stroke-width:0"/>
<polygon points="-126.99,193.478 -91.3155,170.075 24.1689,346.111 -11.5061,369.514" style="fill:#006363; stroke:#000000;stroke-width:0"/>
<circle fill="#006363" stroke="#006363" stroke-width="0" cx="-109.153" cy="181.776" r="21.3333"/>
<circle fill="#006363" stroke="#006363" stroke-width="0" cx="6.3314" cy="357.812" r="21.3333"/>
<polygon points="667.878,302.88 633.015,327.478 510.997,154.541 545.859,129.943" style="fill:#006363; stroke:#000000;stroke-width:0"/>
<circle fill="#006363" stroke="#006363" stroke-width="0" cx="650.446" cy="315.179" r="21.3333"/>
<circle fill="#006363" stroke="#006363" stroke-width="0" cx="528.428" cy="142.242" r="21.3333"/>
<polygon points="1256,469.333 256,1469.33 -744,469.333" style="fill:#000000; stroke:#000000;stroke-width:0"/>
<polygon points="-744,42.6667 256,-957.333 1256,42.6667" style="fill:#000000; stroke:#000000;stroke-width:0"/>
<circle fill="#a64b00" stroke="#a64b00" stroke-width="0" cx="-109.153" cy="181.776" r="21.3333"/>
<circle fill="#a64b00" stroke="#a64b00" stroke-width="0" cx="6.3314" cy="357.812" r="21.3333"/>
<circle fill="#a64b00" stroke="#a64b00" stroke-width="0" cx="650.446" cy="315.179" r="21.3333"/>
<circle fill="#a64b00" stroke="#a64b00" stroke-width="0" cx="528.428" cy="142.242" r="21.3333"/>
<circle fill="#a64b00" stroke="#a64b00" stroke-width="0" cx="405.377" cy="278.104" r="21.3333"/>
</svg>
