<?xml version="1.0" encoding="utf-8"?> <!-- Generator: Adobe Illustrator 13.0.0, SVG Export Plug-In . SVG Version: 6.00 Build 14948)  --> <svg version="1.2" baseProfile="tiny" id="Layer_1" xmlns="http://www.w3.org/2000/svg" xmlns:xlink="http://www.w3.org/1999/xlink" x="0px" y="0px" width="512px" height="512px" viewBox="0 0 512 512" xml:space="preserve">
<polygon points="0,0 512,0 512,512 0,512" style="fill:#ffffff; stroke:#000000;stroke-width:0"/>
<polygon points="-409.725,94.6453 -402.962,52.518 -195.017,85.9005 -201.78,128.028" style="fill:#006363; stroke:#000000;stroke-width:0"/>
<circle fill="#006363" stroke="#006363" stroke-width="0" cx="-406.343" cy="73.5816" r="21.3333"/>
<circle fill="#006363" stroke="#006363" stroke-width="0" cx="-198.398" cy="106.964" r="21.3333"/>
<polygon points="865.413,219.736 907.984,216.887 922.719,437.041 880.147,439.89" style="fill:#006363; stroke:#000000;stroke-width:0"/>
<circle fill="#006363" stroke="#006363" stroke-width="0" cx="886.699" cy="218.311" r="21.3333"/>
<circle fill="#006363" stroke="#006363" stroke-width="0" cx="901.433" cy="438.466" r="21.3333"/>
<polygon points="1256,469.333 256,1469.33 -744,469.333" style="fill:#000000; stroke:#000000;stroke-width:0"/>
<polygon points="-744,42.6667 256,-957.333 1256,42.6667" style="fill:#000000; stroke:#000000;stroke-width:0"/>
<circle fill="#a64b00" stroke="#a64b00" stroke-width="0" cx="-406.343" cy="73.5816" r="21.3333"/>
<circle fill="#a64b00" stroke="#a64b00" stroke-width="0" cx="-198.398" cy="106.964" r="21.3333"/>
<circle fill="#a64b00" stroke="#a64b00" stroke-width="0" cx="886.699" cy="218.311" r="21.3333"/>
<circle fill="#a64b00" stroke="#a64b00" stroke-width="0" cx="901.433" cy="438.466" r="21.3333"/>
<circle fill="#a64b00" stroke="#a64b00" stroke-width="0" cx="-130.966" cy="140.487" r="21.3333"/>
</svg>
