<?xml version="1.0" encoding="utf-8"?> <!-- Generator: Adobe Illustrator 13.0.0, SVG Export Plug-In . SVG Version: 6.00 Build 14948)  --> <svg version="1.2" baseProfile="tiny" id="Layer_1" xmlns="http://www.w3.org/2000/svg" xmlns:xlink="http://www.w3.org/1999/xlink" x="0px" y="0px" width="512px" height="512px" viewBox="0 0 512 512" xml:space="preserve">
<polygon points="0,0 512,0 512,512 0,512" style="fill:#ffffff; stroke:#000000;stroke-width:0"/>
<polygon points="-310.563,448.618 -353.229,448.417 -352.222,235.236 -309.556,235.438" style="fill:#006363; stroke:#000000;stroke-width:0"/>
<circle fill="#006363" stroke="#006363" stroke-width="0" cx="-331.896" cy="448.518" r="21.3333"/>
<circle fill="#006363" stroke="#006363" stroke-width="0" cx="-330.889" cy="235.337" r="21.3333"/>
<polygon points="980.605,226.107 1010.91,256.135 865.521,402.891 835.211,372.862" style="fill:#006363; stroke:#000000;stroke-width:0"/>
<circle fill="#006363" stroke="#006363" stroke-width="0" cx="995.76" cy="241.121" r="21.3333"/>
<circle fill="#006363" stroke="#006363" stroke-width="0" cx="850.366" cy="387.877" r="21.3333"/>
<polygon points="1256,469.333 256,1469.33 -744,469.333" style="fill:#000000; stroke:#000000;stroke-width:0"/>
<polygon points="-744,42.6667 256,-957.333 1256,42.6667" style="fill:#000000; stroke:#000000;stroke-width:0"/>
<circle fill="#a64b00" stroke="#a64b00" stroke-width="0" cx="-331.896" cy="448.518" r="21.3333"/>
<circle fill="#a64b00" stroke="#a64b00" stroke-width="0" cx="-330.889" cy="235.337" r="21.3333"/>
<circle fill="#a64b00" stroke="#a64b00" stroke-width="0" cx="995.76" cy="241.121" r="21.3333"/>
<circle fill="#a64b00" stroke="#a64b00" stroke-width="0" cx="850.366" cy="387.877" r="21.3333"/>
<circle fill="#a64b00" stroke="#a64b00" stroke-width="0" cx="844.592" cy="307.051" r="21.3333"/>
</svg>
