<?xml version="1.0" encoding="utf-8"?> <!-- Generator: Adobe Illustrator 13.0.0, SVG Export Plug-In . SVG Version: 6.00 Build 14948)  --> <svg version="1.2" baseProfile="tiny" id="Layer_1" xmlns="http://www.w3.org/2000/svg" xmlns:xlink="http://www.w3.org/1999/xlink" x="0px" y="0px" width="512px" height="512px" viewBox="0 0 512 512" xml:space="preserve">
<polygon points="0,0 512,0 512,512 0,512" style="fill:#ffffff; stroke:#000000;stroke-width:0"/>
<polygon points="-151.745,265.299 -137.662,305.574 -345.626,378.294 -359.709,338.018" style="fill:#006363; stroke:#000000;stroke-width:0"/>
<circle fill="#006363" stroke="#006363" stroke-width="0" cx="-144.703" cy="285.436" r="21.3333"/>
<circle fill="#006363" stroke="#006363" stroke-width="0" cx="-352.667" cy="358.156" r="21.3333"/>
<polygon points="742.425,419.06 725.9,379.724 915.698,299.992 932.223,339.328" style="fill:#006363; stroke:#000000;stroke-width:0"/>
<circle fill="#006363" stroke="#006363" stroke-width="0" cx="734.162" cy="399.392" r="21.3333"/>
<circle fill="#006363" stroke="#006363" stroke-width="0" cx="923.96" cy="319.66" r="21.3333"/>
<polygon points="1256,469.333 256,1469.33 -744,469.333" style="fill:#000000; stroke:#000000;stroke-width:0"/>
<polygon points="-744,42.6667 256,-957.333 1256,42.6667" style="fill:#000000; stroke:#000000;stroke-width:0"/>
<circle fill="#a64b00" stroke="#a64b00" stroke-width="0" cx="-144.703" cy="285.436" r="21.3333"/>
<circle fill="#a64b00" stroke="#a64b00" stroke-width="0" cx="-352.667" cy="358.156" r="21.3333"/>
<circle fill="#a64b00" stroke="#a64b00" stroke-width="0" cx="734.162" cy="399.392" r="21.3333"/>
<circle fill="#a64b00" stroke="#a64b00" stroke-width="0" cx="923.96" cy="319.66" r="21.3333"/>
<circle fill="#a64b00" stroke="#a64b00" stroke-width="0" cx="-43.2222" cy="411.671" r="21.3333"/>
</svg>
