<?xml version="1.0" encoding="utf-8"?> <!-- Generator: Adobe Illustrator 13.0.0, SVG Export Plug-In . SVG Version: 6.00 Build 14948)  --> <svg version="1.2" baseProfile="tiny" id="Layer_1" xmlns="http://www.w3.org/2000/svg" xmlns:xlink="http://www.w3.org/1999/xlink" x="0px" y="0px" width="512px" height="512px" viewBox="0 0 512 512" xml:space="preserve">
<polygon points="0,0 512,0 512,512 0,512" style="fill:#ffffff; stroke:#000000;stroke-width:0"/>
<polygon points="-85.6007,105.621 -75.7602,147.137 -293.72,198.8 -303.56,157.284" style="fill:#006363; stroke:#000000;stroke-width:0"/>
<circle fill="#006363" stroke="#006363" stroke-width="0" cx="-80.6805" cy="126.379" r="21.3333"/>
<circle fill="#006363" stroke="#006363" stroke-width="0" cx="-298.64" cy="178.042" r="21.3333"/>
<polygon points="745.85,308.312 705.25,295.195 768.88,98.2484 809.48,111.366" style="fill:#006363; stroke:#000000;stroke-width:0"/>
<circle fill="#006363" stroke="#006363" stroke-width="0" cx="725.55" cy="301.754" r="21.3333"/>
<circle fill="#006363" stroke="#006363" stroke-width="0" cx="789.18" cy="104.807" r="21.3333"/>
<polygon points="1256,469.333 256,1469.33 -744,469.333" style="fill:#000000; stroke:#000000;stroke-width:0"/>
<polygon points="-744,42.6667 256,-957.333 1256,42.6667" style="fill:#000000; stroke:#000000;stroke-width:0"/>
<circle fill="#a64b00" stroke="#a64b00" stroke-width="0" cx="-80.6805" cy="126.379" r="21.3333"/>
<circle fill="#a64b00" stroke="#a64b00" stroke-width="0" cx="-298.64" cy="178.042" r="21.3333"/>
<circle fill="#a64b00" stroke="#a64b00" stroke-width="0" cx="725.55" cy="301.754" r="21.3333"/>
<circle fill="#a64b00" stroke="#a64b00" stroke-width="0" cx="789.18" cy="104.807" r="21.3333"/>
<circle fill="#a64b00" stroke="#a64b00" stroke-width="0" cx="90.9997" cy="287.644" r="21.3333"/>
</svg>
