<?xml version="1.0" encoding="utf-8"?> <!-- Generator: Adobe Illustrator 13.0.0, SVG Export Plug-In . SVG Version: 6.00 Build 14948)  --> <svg version="1.2" baseProfile="tiny" id="Layer_1" xmlns="http://www.w3.org/2000/svg" xmlns:xlink="http://www.w3.org/1999/xlink" x="0px" y="0px" width="512px" height="512px" viewBox="0 0 512 512" xml:space="preserve">
<polygon points="0,0 512,0 512,512 0,512" style="fill:#ffffff; stroke:#000000;stroke-width:0"/>
<polygon points="-162.974,337.13 -198.124,312.945 -78.359,138.881 -43.209,163.066" style="fill:#006363; stroke:#000000;stroke-width:0"/>
<circle fill="#006363" stroke="#006363" stroke-width="0" cx="-180.549" cy="325.037" r="21.3333"/>
<circle fill="#006363" stroke="#006363" stroke-width="0" cx="-60.784" cy="150.973" r="21.3333"/>
<polygon points="571.096,282.601 592.849,245.896 776.025,354.451 754.272,391.156" style="fill:#006363; stroke:#000000;stroke-width:0"/>
<circle fill="#006363" stroke="#006363" stroke-width="0" cx="581.973" cy="264.249" r="21.3333"/>
<circle fill="#006363" stroke="#006363" stroke-width="0" cx="765.148" cy="372.803" r="21.3333"/>
<polygon points="1256,469.333 256,1469.33 -744,469.333" style="fill:#000000; stroke:#000000;stroke-width:0"/>
<polygon points="-744,42.6667 256,-957.333 1256,42.6667" style="fill:#000000; stroke:#000000;stroke-width:0"/>
<circle fill="#a64b00" stroke="#a64b00" stroke-width="0" cx="-180.549" cy="325.037" r="21.3333"/>
<circle fill="#a64b00" stroke="#a64b00" stroke-width="0" cx="-60.784" cy="150.973" r="21.3333"/>
<circle fill="#a64b00" stroke="#a64b00" stroke-width="0" cx="581.973" cy="264.249" r="21.3333"/>
<circle fill="#a64b00" stroke="#a64b00" stroke-width="0" cx="765.148" cy="372.803" r="21.3333"/>
<circle fill="#a64b00" stroke="#a64b00" stroke-width="0" cx="247.89" cy="449.833" r="21.3333"/>
</svg>
