<?xml version="1.0" encoding="utf-8"?> <!-- Generator: Adobe Illustrator 13.0.0, SVG Export Plug-In . SVG Version: 6.00 Build 14948)  --> <svg version="1.2" baseProfile="tiny" id="Layer_1" xmlns="http://www.w3.org/2000/svg" xmlns:xlink="http://www.w3.org/1999/xlink" x="0px" y="0px" width="512px" height="512px" viewBox="0 0 512 512" xml:space="preserve">
<polygon points="0,0 512,0 512,512 0,512" style="fill:#ffffff; stroke:#000000;stroke-width:0"/>
<polygon points="-263.812,334.011 -306.476,333.586 -304.388,124.427 -261.724,124.853" style="fill:#006363; stroke:#000000;stroke-width:0"/>
<circle fill="#006363" stroke="#006363" stroke-width="0" cx="-285.144" cy="333.799" r="21.3333"/>
<circle fill="#006363" stroke="#006363" stroke-width="0" cx="-283.056" cy="124.64" r="21.3333"/>
<polygon points="783.906,269.111 816.256,241.291 960.251,408.729 927.902,436.55" style="fill:#006363; stroke:#000000;stroke-width:0"/>
<circle fill="#006363" stroke="#006363" stroke-width="0" cx="800.081" cy="255.201" r="21.3333"/>
<circle fill="#006363" stroke="#006363" stroke-width="0" cx="944.077" cy="422.639" r="21.3333"/>
<polygon points="1256,469.333 256,1469.33 -744,469.333" style="fill:#000000; stroke:#000000;stroke-width:0"/>
<polygon points="-744,42.6667 256,-957.333 1256,42.6667" style="fill:#000000; stroke:#000000;stroke-width:0"/>
<circle fill="#a64b00" stroke="#a64b00" stroke-width="0" cx="-285.144" cy="333.799" r="21.3333"/>
<circle fill="#a64b00" stroke="#a64b00" stroke-width="0" cx="-283.056" cy="124.64" r="21.3333"/>
<circle fill="#a64b00" stroke="#a64b00" stroke-width="0" cx="800.081" cy="255.201" r="21.3333"/>
<circle fill="#a64b00" stroke="#a64b00" stroke-width="0" cx="944.077" cy="422.639" r="21.3333"/>
<circle fill="#a64b00" stroke="#a64b00" stroke-width="0" cx="-123.755" cy="134.996" r="21.3333"/>
</svg>
