<?xml version="1.0" encoding="utf-8"?> <!-- Generator: Adobe Illustrator 13.0.0, SVG Export Plug-In . SVG Version: 6.00 Build 14948)  --> <svg version="1.2" baseProfile="tiny" id="Layer_1" xmlns="http://www.w3.org/2000/svg" xmlns:xlink="http://www.w3.org/1999/xlink" x="0px" y="0px" width="512px" height="512px" viewBox="0 0 512 512" xml:space="preserve">
<polygon points="0,0 512,0 512,512 0,512" style="fill:#ffffff; stroke:#000000;stroke-width:0"/>
<polygon points="-24.6095,166.877 17.363,159.212 56.9497,375.993 14.9771,383.658" style="fill:#006363; stroke:#000000;stroke-width:0"/>
<circle fill="#006363" stroke="#006363" stroke-width="0" cx="-3.62326" cy="163.044" r="21.3333"/>
<circle fill="#006363" stroke="#006363" stroke-width="0" cx="35.9634" cy="379.825" r="21.3333"/>
<polygon points="449.068,133.342 488.976,118.25 564.577,318.172 524.669,333.264" style="fill:#006363; stroke:#000000;stroke-width:0"/>
<circle fill="#006363" stroke="#006363" stroke-width="0" cx="469.022" cy="125.796" r="21.3333"/>
<circle fill="#006363" stroke="#006363" stroke-width="0" cx="544.623" cy="325.718" r="21.3333"/>
<polygon points="1256,469.333 256,1469.33 -744,469.333" style="fill:#000000; stroke:#000000;stroke-width:0"/>
<polygon points="-744,42.6667 256,-957.333 1256,42.6667" style="fill:#000000; stroke:#000000;stroke-width:0"/>
<circle fill="#a64b00" stroke="#a64b00" stroke-width="0" cx="-3.62326" cy="163.044" r="21.3333"/>
<circle fill="#a64b00" stroke="#a64b00" stroke-width="0" cx="35.9634" cy="379.825" r="21.3333"/>
<circle fill="#a64b00" stroke="#a64b00" stroke-width="0" cx="469.022" cy="125.796" r="21.3333"/>
<circle fill="#a64b00" stroke="#a64b00" stroke-width="0" cx="544.623" cy="325.718" r="21.3333"/>
<circle fill="#a64b00" stroke="#a64b00" stroke-width="0" cx="350.813" cy="79.8076" r="21.3333"/>
</svg>
