<?xml version="1.0" encoding="utf-8"?> <!-- Generator: Adobe Illustrator 13.0.0, SVG Export Plug-In . SVG Version: 6.00 Build 14948)  --> <svg version="1.2" baseProfile="tiny" id="Layer_1" xmlns="http://www.w3.org/2000/svg" xmlns:xlink="http://www.w3.org/1999/xlink" x="0px" y="0px" width="512px" height="512px" viewBox="0 0 512 512" xml:space="preserve">
<polygon points="0,0 512,0 512,512 0,512" style="fill:#ffffff; stroke:#000000;stroke-width:0"/>
<polygon points="-135.604,173.99 -103.623,145.748 39.6036,307.939 7.62182,336.181" style="fill:#006363; stroke:#000000;stroke-width:0"/>
<circle fill="#006363" stroke="#006363" stroke-width="0" cx="-119.614" cy="159.869" r="21.3333"/>
<circle fill="#006363" stroke="#006363" stroke-width="0" cx="23.6127" cy="322.06" r="21.3333"/>
<polygon points="650.429,312.573 611.825,330.744 520.16,136.003 558.764,117.832" style="fill:#006363; stroke:#000000;stroke-width:0"/>
<circle fill="#006363" stroke="#006363" stroke-width="0" cx="631.127" cy="321.659" r="21.3333"/>
<circle fill="#006363" stroke="#006363" stroke-width="0" cx="539.462" cy="126.917" r="21.3333"/>
<polygon points="1256,469.333 256,1469.33 -744,469.333" style="fill:#000000; stroke:#000000;stroke-width:0"/>
<polygon points="-744,42.6667 256,-957.333 1256,42.6667" style="fill:#000000; stroke:#000000;stroke-width:0"/>
<circle fill="#a64b00" stroke="#a64b00" stroke-width="0" cx="-119.614" cy="159.869" r="21.3333"/>
<circle fill="#a64b00" stroke="#a64b00" stroke-width="0" cx="23.6127" cy="322.06" r="21.3333"/>
<circle fill="#a64b00" stroke="#a64b00" stroke-width="0" cx="631.127" cy="321.659" r="21.3333"/>
<circle fill="#a64b00" stroke="#a64b00" stroke-width="0" cx="539.462" cy="126.917" r="21.3333"/>
<circle fill="#a64b00" stroke="#a64b00" stroke-width="0" cx="413.132" cy="154.077" r="21.3333"/>
</svg>
