<?xml version="1.0" encoding="utf-8"?> <!-- Generator: Adobe Illustrator 13.0.0, SVG Export Plug-In . SVG Version: 6.00 Build 14948)  --> <svg version="1.2" baseProfile="tiny" id="Layer_1" xmlns="http://www.w3.org/2000/svg" xmlns:xlink="http://www.w3.org/1999/xlink" x="0px" y="0px" width="512px" height="512px" viewBox="0 0 512 512" xml:space="preserve">
<polygon points="0,0 512,0 512,512 0,512" style="fill:#ffffff; stroke:#000000;stroke-width:0"/>
<polygon points="-146.222,128.188 -129.96,88.7422 71.732,171.89 55.4703,211.336" style="fill:#006363; stroke:#000000;stroke-width:0"/>
<circle fill="#006363" stroke="#006363" stroke-width="0" cx="-138.091" cy="108.465" r="21.3333"/>
<circle fill="#006363" stroke="#006363" stroke-width="0" cx="63.6011" cy="191.613" r="21.3333"/>
<polygon points="581.153,319.881 538.764,315.024 563.307,100.798 605.696,105.655" style="fill:#006363; stroke:#000000;stroke-width:0"/>
<circle fill="#006363" stroke="#006363" stroke-width="0" cx="559.959" cy="317.453" r="21.3333"/>
<circle fill="#006363" stroke="#006363" stroke-width="0" cx="584.502" cy="103.226" r="21.3333"/>
<polygon points="1256,469.333 256,1469.33 -744,469.333" style="fill:#000000; stroke:#000000;stroke-width:0"/>
<polygon points="-744,42.6667 256,-957.333 1256,42.6667" style="fill:#000000; stroke:#000000;stroke-width:0"/>
<circle fill="#a64b00" stroke="#a64b00" stroke-width="0" cx="-138.091" cy="108.465" r="21.3333"/>
<circle fill="#a64b00" stroke="#a64b00" stroke-width="0" cx="63.6011" cy="191.613" r="21.3333"/>
<circle fill="#a64b00" stroke="#a64b00" stroke-width="0" cx="559.959" cy="317.453" r="21.3333"/>
<circle fill="#a64b00" stroke="#a64b00" stroke-width="0" cx="584.502" cy="103.226" r="21.3333"/>
<circle fill="#a64b00" stroke="#a64b00" stroke-width="0" cx="437.591" cy="354.428" r="21.3333"/>
</svg>
