<?xml version="1.0" encoding="utf-8"?> <!-- Generator: Adobe Illustrator 13.0.0, SVG Export Plug-In . SVG Version: 6.00 Build 14948)  --> <svg version="1.2" baseProfile="tiny" id="Layer_1" xmlns="http://www.w3.org/2000/svg" xmlns:xlink="http://www.w3.org/1999/xlink" x="0px" y="0px" width="512px" height="512px" viewBox="0 0 512 512" xml:space="preserve">
<polygon points="0,0 512,0 512,512 0,512" style="fill:#ffffff; stroke:#000000;stroke-width:0"/>
<polygon points="-411.334,192.225 -420.362,150.525 -209.354,104.841 -200.326,146.542" style="fill:#006363; stroke:#000000;stroke-width:0"/>
<circle fill="#006363" stroke="#006363" stroke-width="0" cx="-415.848" cy="171.375" r="21.3333"/>
<circle fill="#006363" stroke="#006363" stroke-width="0" cx="-204.84" cy="125.691" r="21.3333"/>
<polygon points="899.016,213.935 941.091,221.015 905.048,435.211 862.973,428.131" style="fill:#006363; stroke:#000000;stroke-width:0"/>
<circle fill="#006363" stroke="#006363" stroke-width="0" cx="920.053" cy="217.475" r="21.3333"/>
<circle fill="#006363" stroke="#006363" stroke-width="0" cx="884.011" cy="431.671" r="21.3333"/>
<polygon points="1256,469.333 256,1469.33 -744,469.333" style="fill:#000000; stroke:#000000;stroke-width:0"/>
<polygon points="-744,42.6667 256,-957.333 1256,42.6667" style="fill:#000000; stroke:#000000;stroke-width:0"/>
<circle fill="#a64b00" stroke="#a64b00" stroke-width="0" cx="-415.848" cy="171.375" r="21.3333"/>
<circle fill="#a64b00" stroke="#a64b00" stroke-width="0" cx="-204.84" cy="125.691" r="21.3333"/>
<circle fill="#a64b00" stroke="#a64b00" stroke-width="0" cx="920.053" cy="217.475" r="21.3333"/>
<circle fill="#a64b00" stroke="#a64b00" stroke-width="0" cx="884.011" cy="431.671" r="21.3333"/>
<circle fill="#a64b00" stroke="#a64b00" stroke-width="0" cx="137.045" cy="186.246" r="21.3333"/>
</svg>
