<?xml version="1.0" encoding="utf-8"?> <!-- Generator: Adobe Illustrator 13.0.0, SVG Export Plug-In . SVG Version: 6.00 Build 14948)  --> <svg version="1.2" baseProfile="tiny" id="Layer_1" xmlns="http://www.w3.org/2000/svg" xmlns:xlink="http://www.w3.org/1999/xlink" x="0px" y="0px" width="512px" height="512px" viewBox="0 0 512 512" xml:space="preserve">
<polygon points="0,0 512,0 512,512 0,512" style="fill:#ffffff; stroke:#000000;stroke-width:0"/>
<polygon points="-165.985,298.645 -201.235,274.607 -80.5953,97.695 -45.3446,121.733" style="fill:#006363; stroke:#000000;stroke-width:0"/>
<circle fill="#006363" stroke="#006363" stroke-width="0" cx="-183.61" cy="286.626" r="21.3333"/>
<circle fill="#006363" stroke="#006363" stroke-width="0" cx="-62.9699" cy="109.714" r="21.3333"/>
<polygon points="569.11,299.556 585.734,260.261 784.384,344.3 767.761,383.595" style="fill:#006363; stroke:#000000;stroke-width:0"/>
<circle fill="#006363" stroke="#006363" stroke-width="0" cx="577.422" cy="279.909" r="21.3333"/>
<circle fill="#006363" stroke="#006363" stroke-width="0" cx="776.072" cy="363.947" r="21.3333"/>
<polygon points="1256,469.333 256,1469.33 -744,469.333" style="fill:#000000; stroke:#000000;stroke-width:0"/>
<polygon points="-744,42.6667 256,-957.333 1256,42.6667" style="fill:#000000; stroke:#000000;stroke-width:0"/>
<circle fill="#a64b00" stroke="#a64b00" stroke-width="0" cx="-183.61" cy="286.626" r="21.3333"/>
<circle fill="#a64b00" stroke="#a64b00" stroke-width="0" cx="-62.9699" cy="109.714" r="21.3333"/>
<circle fill="#a64b00" stroke="#a64b00" stroke-width="0" cx="577.422" cy="279.909" r="21.3333"/>
<circle fill="#a64b00" stroke="#a64b00" stroke-width="0" cx="776.072" cy="363.947" r="21.3333"/>
<circle fill="#a64b00" stroke="#a64b00" stroke-width="0" cx="241.925" cy="354.428" r="21.3333"/>
</svg>
