<?xml version="1.0" encoding="utf-8"?> <!-- Generator: Adobe Illustrator 13.0.0, SVG Export Plug-In . SVG Version: 6.00 Build 14948)  --> <svg version="1.2" baseProfile="tiny" id="Layer_1" xmlns="http://www.w3.org/2000/svg" xmlns:xlink="http://www.w3.org/1999/xlink" x="0px" y="0px" width="512px" height="512px" viewBox="0 0 512 512" xml:space="preserve">
<polygon points="0,0 512,0 512,512 0,512" style="fill:#ffffff; stroke:#000000;stroke-width:0"/>
<polygon points="-131.242,185.614 -96.3441,161.066 29.9941,340.669 -4.90352,365.217" style="fill:#006363; stroke:#000000;stroke-width:0"/>
<circle fill="#006363" stroke="#006363" stroke-width="0" cx="-113.793" cy="173.34" r="21.3333"/>
<circle fill="#006363" stroke="#006363" stroke-width="0" cx="12.5453" cy="352.943" r="21.3333"/>
<polygon points="665.239,307.02 629.42,330.203 511.724,148.36 547.543,125.177" style="fill:#006363; stroke:#000000;stroke-width:0"/>
<circle fill="#006363" stroke="#006363" stroke-width="0" cx="647.329" cy="318.612" r="21.3333"/>
<circle fill="#006363" stroke="#006363" stroke-width="0" cx="529.633" cy="136.769" r="21.3333"/>
<polygon points="1256,469.333 256,1469.33 -744,469.333" style="fill:#000000; stroke:#000000;stroke-width:0"/>
<polygon points="-744,42.6667 256,-957.333 1256,42.6667" style="fill:#000000; stroke:#000000;stroke-width:0"/>
<circle fill="#a64b00" stroke="#a64b00" stroke-width="0" cx="-113.793" cy="173.34" r="21.3333"/>
<circle fill="#a64b00" stroke="#a64b00" stroke-width="0" cx="12.5453" cy="352.943" r="21.3333"/>
<circle fill="#a64b00" stroke="#a64b00" stroke-width="0" cx="647.329" cy="318.612" r="21.3333"/>
<circle fill="#a64b00" stroke="#a64b00" stroke-width="0" cx="529.633" cy="136.769" r="21.3333"/>
<circle fill="#a64b00" stroke="#a64b00" stroke-width="0" cx="407.167" cy="249.482" r="21.3333"/>
</svg>
