<?xml version="1.0" encoding="utf-8"?> <!-- Generator: Adobe Illustrator 13.0.0, SVG Export Plug-In . SVG Version: 6.00 Build 14948)  --> <svg version="1.2" baseProfile="tiny" id="Layer_1" xmlns="http://www.w3.org/2000/svg" xmlns:xlink="http://www.w3.org/1999/xlink" x="0px" y="0px" width="512px" height="512px" viewBox="0 0 512 512" xml:space="preserve">
<polygon points="0,0 512,0 512,512 0,512" style="fill:#ffffff; stroke:#000000;stroke-width:0"/>
<polygon points="-62.7668,272.08 -66.134,314.613 -289.271,296.949 -285.904,254.415" style="fill:#006363; stroke:#000000;stroke-width:0"/>
<circle fill="#006363" stroke="#006363" stroke-width="0" cx="-64.4504" cy="293.347" r="21.3333"/>
<circle fill="#006363" stroke="#006363" stroke-width="0" cx="-287.587" cy="275.682" r="21.3333"/>
<polygon points="733.502,300.206 692.334,288.997 748.089,84.2345 789.257,95.4442" style="fill:#006363; stroke:#000000;stroke-width:0"/>
<circle fill="#006363" stroke="#006363" stroke-width="0" cx="712.918" cy="294.602" r="21.3333"/>
<circle fill="#006363" stroke="#006363" stroke-width="0" cx="768.673" cy="89.8394" r="21.3333"/>
<polygon points="1256,469.333 256,1469.33 -744,469.333" style="fill:#000000; stroke:#000000;stroke-width:0"/>
<polygon points="-744,42.6667 256,-957.333 1256,42.6667" style="fill:#000000; stroke:#000000;stroke-width:0"/>
<circle fill="#a64b00" stroke="#a64b00" stroke-width="0" cx="-64.4504" cy="293.347" r="21.3333"/>
<circle fill="#a64b00" stroke="#a64b00" stroke-width="0" cx="-287.587" cy="275.682" r="21.3333"/>
<circle fill="#a64b00" stroke="#a64b00" stroke-width="0" cx="712.918" cy="294.602" r="21.3333"/>
<circle fill="#a64b00" stroke="#a64b00" stroke-width="0" cx="768.673" cy="89.8394" r="21.3333"/>
<circle fill="#a64b00" stroke="#a64b00" stroke-width="0" cx="122.02" cy="115.915" r="21.3333"/>
</svg>
