<?xml version="1.0" encoding="utf-8"?> <!-- Generator: Adobe Illustrator 13.0.0, SVG Export Plug-In . SVG Version: 6.00 Build 14948)  --> <svg version="1.2" baseProfile="tiny" id="Layer_1" xmlns="http://www.w3.org/2000/svg" xmlns:xlink="http://www.w3.org/1999/xlink" x="0px" y="0px" width="512px" height="512px" viewBox="0 0 512 512" xml:space="preserve">
<polygon points="0,0 512,0 512,512 0,512" style="fill:#ffffff; stroke:#000000;stroke-width:0"/>
<polygon points="-18.382,146.214 23.7691,139.602 57.946,357.445 15.7949,364.058" style="fill:#006363; stroke:#000000;stroke-width:0"/>
<circle fill="#006363" stroke="#006363" stroke-width="0" cx="2.69357" cy="142.908" r="21.3333"/>
<circle fill="#006363" stroke="#006363" stroke-width="0" cx="36.8705" cy="360.752" r="21.3333"/>
<polygon points="451.136,159.137 492.02,146.934 552.932,351.01 512.047,363.213" style="fill:#006363; stroke:#000000;stroke-width:0"/>
<circle fill="#006363" stroke="#006363" stroke-width="0" cx="471.578" cy="153.035" r="21.3333"/>
<circle fill="#006363" stroke="#006363" stroke-width="0" cx="532.489" cy="357.111" r="21.3333"/>
<polygon points="1256,469.333 256,1469.33 -744,469.333" style="fill:#000000; stroke:#000000;stroke-width:0"/>
<polygon points="-744,42.6667 256,-957.333 1256,42.6667" style="fill:#000000; stroke:#000000;stroke-width:0"/>
<circle fill="#a64b00" stroke="#a64b00" stroke-width="0" cx="2.69357" cy="142.908" r="21.3333"/>
<circle fill="#a64b00" stroke="#a64b00" stroke-width="0" cx="36.8705" cy="360.752" r="21.3333"/>
<circle fill="#a64b00" stroke="#a64b00" stroke-width="0" cx="471.578" cy="153.035" r="21.3333"/>
<circle fill="#a64b00" stroke="#a64b00" stroke-width="0" cx="532.489" cy="357.111" r="21.3333"/>
<circle fill="#a64b00" stroke="#a64b00" stroke-width="0" cx="394.185" cy="219.496" r="21.3333"/>
</svg>
