<?xml version="1.0" encoding="utf-8"?> <!-- Generator: Adobe Illustrator 13.0.0, SVG Export Plug-In . SVG Version: 6.00 Build 14948)  --> <svg version="1.2" baseProfile="tiny" id="Layer_1" xmlns="http://www.w3.org/2000/svg" xmlns:xlink="http://www.w3.org/1999/xlink" x="0px" y="0px" width="512px" height="512px" viewBox="0 0 512 512" xml:space="preserve">
<polygon points="0,0 512,0 512,512 0,512" style="fill:#ffffff; stroke:#000000;stroke-width:0"/>
<polygon points="-16.42,148.856 25.7579,142.416 57.188,348.269 15.0101,354.708" style="fill:#006363; stroke:#000000;stroke-width:0"/>
<circle fill="#006363" stroke="#006363" stroke-width="0" cx="4.66898" cy="145.636" r="21.3333"/>
<circle fill="#006363" stroke="#006363" stroke-width="0" cx="36.099" cy="351.489" r="21.3333"/>
<polygon points="451.613,163.817 492.641,152.108 550.858,356.101 509.83,367.81" style="fill:#006363; stroke:#000000;stroke-width:0"/>
<circle fill="#006363" stroke="#006363" stroke-width="0" cx="472.127" cy="157.963" r="21.3333"/>
<circle fill="#006363" stroke="#006363" stroke-width="0" cx="530.344" cy="361.956" r="21.3333"/>
<polygon points="1256,469.333 256,1469.33 -744,469.333" style="fill:#000000; stroke:#000000;stroke-width:0"/>
<polygon points="-744,42.6667 256,-957.333 1256,42.6667" style="fill:#000000; stroke:#000000;stroke-width:0"/>
<circle fill="#a64b00" stroke="#a64b00" stroke-width="0" cx="4.66898" cy="145.636" r="21.3333"/>
<circle fill="#a64b00" stroke="#a64b00" stroke-width="0" cx="36.099" cy="351.489" r="21.3333"/>
<circle fill="#a64b00" stroke="#a64b00" stroke-width="0" cx="472.127" cy="157.963" r="21.3333"/>
<circle fill="#a64b00" stroke="#a64b00" stroke-width="0" cx="530.344" cy="361.956" r="21.3333"/>
<circle fill="#a64b00" stroke="#a64b00" stroke-width="0" cx="401.414" cy="242.778" r="21.3333"/>
</svg>
