<?xml version="1.0" encoding="utf-8"?> <!-- Generator: Adobe Illustrator 13.0.0, SVG Export Plug-In . SVG Version: 6.00 Build 14948)  --> <svg version="1.2" baseProfile="tiny" id="Layer_1" xmlns="http://www.w3.org/2000/svg" xmlns:xlink="http://www.w3.org/1999/xlink" x="0px" y="0px" width="512px" height="512px" viewBox="0 0 512 512" xml:space="preserve">
<polygon points="0,0 512,0 512,512 0,512" style="fill:#ffffff; stroke:#000000;stroke-width:0"/>
<polygon points="-164.188,342.527 -176.116,383.493 -376.73,325.08 -364.802,284.114" style="fill:#006363; stroke:#000000;stroke-width:0"/>
<circle fill="#006363" stroke="#006363" stroke-width="0" cx="-170.152" cy="363.01" r="21.3333"/>
<circle fill="#006363" stroke="#006363" stroke-width="0" cx="-370.766" cy="304.597" r="21.3333"/>
<polygon points="745.032,326.205 760.69,286.516 965.987,367.509 950.328,407.199" style="fill:#006363; stroke:#000000;stroke-width:0"/>
<circle fill="#006363" stroke="#006363" stroke-width="0" cx="752.861" cy="306.361" r="21.3333"/>
<circle fill="#006363" stroke="#006363" stroke-width="0" cx="958.158" cy="387.354" r="21.3333"/>
<polygon points="1256,469.333 256,1469.33 -744,469.333" style="fill:#000000; stroke:#000000;stroke-width:0"/>
<polygon points="-744,42.6667 256,-957.333 1256,42.6667" style="fill:#000000; stroke:#000000;stroke-width:0"/>
<circle fill="#a64b00" stroke="#a64b00" stroke-width="0" cx="-170.152" cy="363.01" r="21.3333"/>
<circle fill="#a64b00" stroke="#a64b00" stroke-width="0" cx="-370.766" cy="304.597" r="21.3333"/>
<circle fill="#a64b00" stroke="#a64b00" stroke-width="0" cx="752.861" cy="306.361" r="21.3333"/>
<circle fill="#a64b00" stroke="#a64b00" stroke-width="0" cx="958.158" cy="387.354" r="21.3333"/>
<circle fill="#a64b00" stroke="#a64b00" stroke-width="0" cx="-92.7352" cy="421.212" r="21.3333"/>
</svg>
