<?xml version="1.0" encoding="utf-8"?> <!-- Generator: Adobe Illustrator 13.0.0, SVG Export Plug-In . SVG Version: 6.00 Build 14948)  --> <svg version="1.2" baseProfile="tiny" id="Layer_1" xmlns="http://www.w3.org/2000/svg" xmlns:xlink="http://www.w3.org/1999/xlink" x="0px" y="0px" width="512px" height="512px" viewBox="0 0 512 512" xml:space="preserve">
<polygon points="0,0 512,0 512,512 0,512" style="fill:#ffffff; stroke:#000000;stroke-width:0"/>
<polygon points="11.2344,98.0721 53.8681,96.395 62.3727,312.595 19.739,314.272" style="fill:#006363; stroke:#000000;stroke-width:0"/>
<circle fill="#006363" stroke="#006363" stroke-width="0" cx="32.5513" cy="97.2336" r="21.3333"/>
<circle fill="#006363" stroke="#006363" stroke-width="0" cx="41.0559" cy="313.433" r="21.3333"/>
<polygon points="454.18,175.803 496.79,173.607 507.686,385.005 465.075,387.201" style="fill:#006363; stroke:#000000;stroke-width:0"/>
<circle fill="#006363" stroke="#006363" stroke-width="0" cx="475.485" cy="174.705" r="21.3333"/>
<circle fill="#006363" stroke="#006363" stroke-width="0" cx="486.381" cy="386.103" r="21.3333"/>
<polygon points="1256,469.333 256,1469.33 -744,469.333" style="fill:#000000; stroke:#000000;stroke-width:0"/>
<polygon points="-744,42.6667 256,-957.333 1256,42.6667" style="fill:#000000; stroke:#000000;stroke-width:0"/>
<circle fill="#a64b00" stroke="#a64b00" stroke-width="0" cx="32.5513" cy="97.2336" r="21.3333"/>
<circle fill="#a64b00" stroke="#a64b00" stroke-width="0" cx="41.0559" cy="313.433" r="21.3333"/>
<circle fill="#a64b00" stroke="#a64b00" stroke-width="0" cx="475.485" cy="174.705" r="21.3333"/>
<circle fill="#a64b00" stroke="#a64b00" stroke-width="0" cx="486.381" cy="386.103" r="21.3333"/>
<circle fill="#a64b00" stroke="#a64b00" stroke-width="0" cx="228.769" cy="271.236" r="21.3333"/>
</svg>
