<?xml version="1.0" encoding="utf-8"?> <!-- Generator: Adobe Illustrator 13.0.0, SVG Export Plug-In . SVG Version: 6.00 Build 14948)  --> <svg version="1.2" baseProfile="tiny" id="Layer_1" xmlns="http://www.w3.org/2000/svg" xmlns:xlink="http://www.w3.org/1999/xlink" x="0px" y="0px" width="512px" height="512px" viewBox="0 0 512 512" xml:space="preserve">
<polygon points="0,0 512,0 512,512 0,512" style="fill:#ffffff; stroke:#000000;stroke-width:0"/>
<polygon points="-10.184,129.223 32.1423,123.843 58.1759,328.693 15.8496,334.072" style="fill:#006363; stroke:#000000;stroke-width:0"/>
<circle fill="#006363" stroke="#006363" stroke-width="0" cx="10.9791" cy="126.533" r="21.3333"/>
<circle fill="#006363" stroke="#006363" stroke-width="0" cx="37.0128" cy="331.382" r="21.3333"/>
<polygon points="453.751,189.512 495.511,180.764 539.142,389.039 497.382,397.787" style="fill:#006363; stroke:#000000;stroke-width:0"/>
<circle fill="#006363" stroke="#006363" stroke-width="0" cx="474.631" cy="185.138" r="21.3333"/>
<circle fill="#006363" stroke="#006363" stroke-width="0" cx="518.262" cy="393.413" r="21.3333"/>
<polygon points="1256,469.333 256,1469.33 -744,469.333" style="fill:#000000; stroke:#000000;stroke-width:0"/>
<polygon points="-744,42.6667 256,-957.333 1256,42.6667" style="fill:#000000; stroke:#000000;stroke-width:0"/>
<circle fill="#a64b00" stroke="#a64b00" stroke-width="0" cx="10.9791" cy="126.533" r="21.3333"/>
<circle fill="#a64b00" stroke="#a64b00" stroke-width="0" cx="37.0128" cy="331.382" r="21.3333"/>
<circle fill="#a64b00" stroke="#a64b00" stroke-width="0" cx="474.631" cy="185.138" r="21.3333"/>
<circle fill="#a64b00" stroke="#a64b00" stroke-width="0" cx="518.262" cy="393.413" r="21.3333"/>
<circle fill="#a64b00" stroke="#a64b00" stroke-width="0" cx="444.786" cy="382.467" r="21.3333"/>
</svg>
