<?xml version="1.0" encoding="utf-8"?> <!-- Generator: Adobe Illustrator 13.0.0, SVG Export Plug-In . SVG Version: 6.00 Build 14948)  --> <svg version="1.2" baseProfile="tiny" id="Layer_1" xmlns="http://www.w3.org/2000/svg" xmlns:xlink="http://www.w3.org/1999/xlink" x="0px" y="0px" width="512px" height="512px" viewBox="0 0 512 512" xml:space="preserve">
<polygon points="0,0 512,0 512,512 0,512" style="fill:#ffffff; stroke:#000000;stroke-width:0"/>
<polygon points="-384.249,198.224 -401.249,159.09 -208.086,75.1801 -191.086,114.314" style="fill:#006363; stroke:#000000;stroke-width:0"/>
<circle fill="#006363" stroke="#006363" stroke-width="0" cx="-392.749" cy="178.657" r="21.3333"/>
<circle fill="#006363" stroke="#006363" stroke-width="0" cx="-199.586" cy="94.747" r="21.3333"/>
<polygon points="836.937,236.759 877.916,224.876 936.537,427.04 895.558,438.922" style="fill:#006363; stroke:#000000;stroke-width:0"/>
<circle fill="#006363" stroke="#006363" stroke-width="0" cx="857.426" cy="230.817" r="21.3333"/>
<circle fill="#006363" stroke="#006363" stroke-width="0" cx="916.047" cy="432.981" r="21.3333"/>
<polygon points="1256,469.333 256,1469.33 -744,469.333" style="fill:#000000; stroke:#000000;stroke-width:0"/>
<polygon points="-744,42.6667 256,-957.333 1256,42.6667" style="fill:#000000; stroke:#000000;stroke-width:0"/>
<circle fill="#a64b00" stroke="#a64b00" stroke-width="0" cx="-392.749" cy="178.657" r="21.3333"/>
<circle fill="#a64b00" stroke="#a64b00" stroke-width="0" cx="-199.586" cy="94.747" r="21.3333"/>
<circle fill="#a64b00" stroke="#a64b00" stroke-width="0" cx="857.426" cy="230.817" r="21.3333"/>
<circle fill="#a64b00" stroke="#a64b00" stroke-width="0" cx="916.047" cy="432.981" r="21.3333"/>
<circle fill="#a64b00" stroke="#a64b00" stroke-width="0" cx="-151.196" cy="325.806" r="21.3333"/>
</svg>
