<?xml version="1.0" encoding="utf-8"?> <!-- Generator: Adobe Illustrator 13.0.0, SVG Export Plug-In . SVG Version: 6.00 Build 14948)  --> <svg version="1.2" baseProfile="tiny" id="Layer_1" xmlns="http://www.w3.org/2000/svg" xmlns:xlink="http://www.w3.org/1999/xlink" x="0px" y="0px" width="512px" height="512px" viewBox="0 0 512 512" xml:space="preserve">
<polygon points="0,0 512,0 512,512 0,512" style="fill:#ffffff; stroke:#000000;stroke-width:0"/>
<polygon points="-244.414,342.344 -286.519,349.244 -320.113,144.252 -278.008,137.351" style="fill:#006363; stroke:#000000;stroke-width:0"/>
<circle fill="#006363" stroke="#006363" stroke-width="0" cx="-265.467" cy="345.794" r="21.3333"/>
<circle fill="#006363" stroke="#006363" stroke-width="0" cx="-299.061" cy="140.801" r="21.3333"/>
<polygon points="779.299,278.216 809.743,248.324 960.398,401.761 929.953,431.654" style="fill:#006363; stroke:#000000;stroke-width:0"/>
<circle fill="#006363" stroke="#006363" stroke-width="0" cx="794.521" cy="263.27" r="21.3333"/>
<circle fill="#006363" stroke="#006363" stroke-width="0" cx="945.176" cy="416.708" r="21.3333"/>
<polygon points="1256,469.333 256,1469.33 -744,469.333" style="fill:#000000; stroke:#000000;stroke-width:0"/>
<polygon points="-744,42.6667 256,-957.333 1256,42.6667" style="fill:#000000; stroke:#000000;stroke-width:0"/>
<circle fill="#a64b00" stroke="#a64b00" stroke-width="0" cx="-265.467" cy="345.794" r="21.3333"/>
<circle fill="#a64b00" stroke="#a64b00" stroke-width="0" cx="-299.061" cy="140.801" r="21.3333"/>
<circle fill="#a64b00" stroke="#a64b00" stroke-width="0" cx="794.521" cy="263.27" r="21.3333"/>
<circle fill="#a64b00" stroke="#a64b00" stroke-width="0" cx="945.176" cy="416.708" r="21.3333"/>
<circle fill="#a64b00" stroke="#a64b00" stroke-width="0" cx="-119.58" cy="68.2121" r="21.3333"/>
</svg>
