<?xml version="1.0" encoding="utf-8"?> <!-- Generator: Adobe Illustrator 13.0.0, SVG Export Plug-In . SVG Version: 6.00 Build 14948)  --> <svg version="1.2" baseProfile="tiny" id="Layer_1" xmlns="http://www.w3.org/2000/svg" xmlns:xlink="http://www.w3.org/1999/xlink" x="0px" y="0px" width="512px" height="512px" viewBox="0 0 512 512" xml:space="preserve">
<polygon points="0,0 512,0 512,512 0,512" style="fill:#ffffff; stroke:#000000;stroke-width:0"/>
<polygon points="-165.546,343.038 -178.545,383.676 -375.897,320.546 -362.897,279.908" style="fill:#006363; stroke:#000000;stroke-width:0"/>
<circle fill="#006363" stroke="#006363" stroke-width="0" cx="-172.045" cy="363.357" r="21.3333"/>
<circle fill="#006363" stroke="#006363" stroke-width="0" cx="-369.397" cy="300.227" r="21.3333"/>
<polygon points="746.918,325.639 762.926,286.089 964.738,367.771 948.73,407.321" style="fill:#006363; stroke:#000000;stroke-width:0"/>
<circle fill="#006363" stroke="#006363" stroke-width="0" cx="754.922" cy="305.864" r="21.3333"/>
<circle fill="#006363" stroke="#006363" stroke-width="0" cx="956.734" cy="387.546" r="21.3333"/>
<polygon points="1256,469.333 256,1469.33 -744,469.333" style="fill:#000000; stroke:#000000;stroke-width:0"/>
<polygon points="-744,42.6667 256,-957.333 1256,42.6667" style="fill:#000000; stroke:#000000;stroke-width:0"/>
<circle fill="#a64b00" stroke="#a64b00" stroke-width="0" cx="-172.045" cy="363.357" r="21.3333"/>
<circle fill="#a64b00" stroke="#a64b00" stroke-width="0" cx="-369.397" cy="300.227" r="21.3333"/>
<circle fill="#a64b00" stroke="#a64b00" stroke-width="0" cx="754.922" cy="305.864" r="21.3333"/>
<circle fill="#a64b00" stroke="#a64b00" stroke-width="0" cx="956.734" cy="387.546" r="21.3333"/>
<circle fill="#a64b00" stroke="#a64b00" stroke-width="0" cx="-93.3317" cy="430.752" r="21.3333"/>
</svg>
