<?xml version="1.0" encoding="utf-8"?> <!-- Generator: Adobe Illustrator 13.0.0, SVG Export Plug-In . SVG Version: 6.00 Build 14948)  --> <svg version="1.2" baseProfile="tiny" id="Layer_1" xmlns="http://www.w3.org/2000/svg" xmlns:xlink="http://www.w3.org/1999/xlink" x="0px" y="0px" width="512px" height="512px" viewBox="0 0 512 512" xml:space="preserve">
<polygon points="0,0 512,0 512,512 0,512" style="fill:#ffffff; stroke:#000000;stroke-width:0"/>
<polygon points="-126.993,117.639 -112.016,77.688 90.2797,153.529 75.3019,193.48" style="fill:#006363; stroke:#000000;stroke-width:0"/>
<circle fill="#006363" stroke="#006363" stroke-width="0" cx="-119.504" cy="97.6637" r="21.3333"/>
<circle fill="#006363" stroke="#006363" stroke-width="0" cx="82.7908" cy="173.504" r="21.3333"/>
<polygon points="464.773,255.852 444.696,218.204 634.538,116.96 654.616,154.608" style="fill:#006363; stroke:#000000;stroke-width:0"/>
<circle fill="#006363" stroke="#006363" stroke-width="0" cx="454.734" cy="237.028" r="21.3333"/>
<circle fill="#006363" stroke="#006363" stroke-width="0" cx="644.577" cy="135.784" r="21.3333"/>
<polygon points="1256,469.333 256,1469.33 -744,469.333" style="fill:#000000; stroke:#000000;stroke-width:0"/>
<polygon points="-744,42.6667 256,-957.333 1256,42.6667" style="fill:#000000; stroke:#000000;stroke-width:0"/>
<circle fill="#a64b00" stroke="#a64b00" stroke-width="0" cx="-119.504" cy="97.6637" r="21.3333"/>
<circle fill="#a64b00" stroke="#a64b00" stroke-width="0" cx="82.7908" cy="173.504" r="21.3333"/>
<circle fill="#a64b00" stroke="#a64b00" stroke-width="0" cx="454.734" cy="237.028" r="21.3333"/>
<circle fill="#a64b00" stroke="#a64b00" stroke-width="0" cx="644.577" cy="135.784" r="21.3333"/>
<circle fill="#a64b00" stroke="#a64b00" stroke-width="0" cx="406.895" cy="146.746" r="21.3333"/>
</svg>
