<?xml version="1.0" encoding="utf-8"?> <!-- Generator: Adobe Illustrator 13.0.0, SVG Export Plug-In . SVG Version: 6.00 Build 14948)  --> <svg version="1.2" baseProfile="tiny" id="Layer_1" xmlns="http://www.w3.org/2000/svg" xmlns:xlink="http://www.w3.org/1999/xlink" x="0px" y="0px" width="512px" height="512px" viewBox="0 0 512 512" xml:space="preserve">
<polygon points="0,0 512,0 512,512 0,512" style="fill:#ffffff; stroke:#000000;stroke-width:0"/>
<polygon points="-144.935,221.972 -105.332,206.096 -26.6179,402.441 -66.2207,418.317" style="fill:#006363; stroke:#000000;stroke-width:0"/>
<circle fill="#006363" stroke="#006363" stroke-width="0" cx="-125.134" cy="214.034" r="21.3333"/>
<circle fill="#006363" stroke="#006363" stroke-width="0" cx="-46.4193" cy="410.379" r="21.3333"/>
<polygon points="688.217,182.219 719.159,211.596 574.144,364.337 543.201,334.96" style="fill:#006363; stroke:#000000;stroke-width:0"/>
<circle fill="#006363" stroke="#006363" stroke-width="0" cx="703.688" cy="196.908" r="21.3333"/>
<circle fill="#006363" stroke="#006363" stroke-width="0" cx="558.673" cy="349.649" r="21.3333"/>
<polygon points="1256,469.333 256,1469.33 -744,469.333" style="fill:#000000; stroke:#000000;stroke-width:0"/>
<polygon points="-744,42.6667 256,-957.333 1256,42.6667" style="fill:#000000; stroke:#000000;stroke-width:0"/>
<circle fill="#a64b00" stroke="#a64b00" stroke-width="0" cx="-125.134" cy="214.034" r="21.3333"/>
<circle fill="#a64b00" stroke="#a64b00" stroke-width="0" cx="-46.4193" cy="410.379" r="21.3333"/>
<circle fill="#a64b00" stroke="#a64b00" stroke-width="0" cx="703.688" cy="196.908" r="21.3333"/>
<circle fill="#a64b00" stroke="#a64b00" stroke-width="0" cx="558.673" cy="349.649" r="21.3333"/>
<circle fill="#a64b00" stroke="#a64b00" stroke-width="0" cx="327.23" cy="154.077" r="21.3333"/>
</svg>
