<?xml version="1.0" encoding="utf-8"?> <!-- Generator: Adobe Illustrator 13.0.0, SVG Export Plug-In . SVG Version: 6.00 Build 14948)  --> <svg version="1.2" baseProfile="tiny" id="Layer_1" xmlns="http://www.w3.org/2000/svg" xmlns:xlink="http://www.w3.org/1999/xlink" x="0px" y="0px" width="512px" height="512px" viewBox="0 0 512 512" xml:space="preserve">
<polygon points="0,0 512,0 512,512 0,512" style="fill:#ffffff; stroke:#000000;stroke-width:0"/>
<polygon points="-49.8943,370.774 -50.6991,413.433 -270.139,409.293 -269.334,366.634" style="fill:#006363; stroke:#000000;stroke-width:0"/>
<circle fill="#006363" stroke="#006363" stroke-width="0" cx="-50.2967" cy="392.103" r="21.3333"/>
<circle fill="#006363" stroke="#006363" stroke-width="0" cx="-269.737" cy="387.964" r="21.3333"/>
<polygon points="693.745,400.852 655.433,382.075 748.971,191.227 787.283,210.004" style="fill:#006363; stroke:#000000;stroke-width:0"/>
<circle fill="#006363" stroke="#006363" stroke-width="0" cx="674.589" cy="391.464" r="21.3333"/>
<circle fill="#006363" stroke="#006363" stroke-width="0" cx="768.127" cy="200.615" r="21.3333"/>
<polygon points="1256,469.333 256,1469.33 -744,469.333" style="fill:#000000; stroke:#000000;stroke-width:0"/>
<polygon points="-744,42.6667 256,-957.333 1256,42.6667" style="fill:#000000; stroke:#000000;stroke-width:0"/>
<circle fill="#a64b00" stroke="#a64b00" stroke-width="0" cx="-50.2967" cy="392.103" r="21.3333"/>
<circle fill="#a64b00" stroke="#a64b00" stroke-width="0" cx="-269.737" cy="387.964" r="21.3333"/>
<circle fill="#a64b00" stroke="#a64b00" stroke-width="0" cx="674.589" cy="391.464" r="21.3333"/>
<circle fill="#a64b00" stroke="#a64b00" stroke-width="0" cx="768.127" cy="200.615" r="21.3333"/>
<circle fill="#a64b00" stroke="#a64b00" stroke-width="0" cx="158.409" cy="316.266" r="21.3333"/>
</svg>
