<?xml version="1.0" encoding="utf-8"?> <!-- Generator: Adobe Illustrator 13.0.0, SVG Export Plug-In . SVG Version: 6.00 Build 14948)  --> <svg version="1.2" baseProfile="tiny" id="Layer_1" xmlns="http://www.w3.org/2000/svg" xmlns:xlink="http://www.w3.org/1999/xlink" x="0px" y="0px" width="512px" height="512px" viewBox="0 0 512 512" xml:space="preserve">
<polygon points="0,0 512,0 512,512 0,512" style="fill:#ffffff; stroke:#000000;stroke-width:0"/>
<polygon points="-61.3247,297.772 -66.7412,340.093 -286.516,311.965 -281.099,269.644" style="fill:#006363; stroke:#000000;stroke-width:0"/>
<circle fill="#006363" stroke="#006363" stroke-width="0" cx="-64.033" cy="318.933" r="21.3333"/>
<circle fill="#006363" stroke="#006363" stroke-width="0" cx="-283.808" cy="290.805" r="21.3333"/>
<polygon points="728.456,312.988 687.579,300.758 748.037,98.6847 788.913,110.914" style="fill:#006363; stroke:#000000;stroke-width:0"/>
<circle fill="#006363" stroke="#006363" stroke-width="0" cx="708.017" cy="306.873" r="21.3333"/>
<circle fill="#006363" stroke="#006363" stroke-width="0" cx="768.475" cy="104.8" r="21.3333"/>
<polygon points="1256,469.333 256,1469.33 -744,469.333" style="fill:#000000; stroke:#000000;stroke-width:0"/>
<polygon points="-744,42.6667 256,-957.333 1256,42.6667" style="fill:#000000; stroke:#000000;stroke-width:0"/>
<circle fill="#a64b00" stroke="#a64b00" stroke-width="0" cx="-64.033" cy="318.933" r="21.3333"/>
<circle fill="#a64b00" stroke="#a64b00" stroke-width="0" cx="-283.808" cy="290.805" r="21.3333"/>
<circle fill="#a64b00" stroke="#a64b00" stroke-width="0" cx="708.017" cy="306.873" r="21.3333"/>
<circle fill="#a64b00" stroke="#a64b00" stroke-width="0" cx="768.475" cy="104.8" r="21.3333"/>
<circle fill="#a64b00" stroke="#a64b00" stroke-width="0" cx="126.792" cy="77.7526" r="21.3333"/>
</svg>
