<?xml version="1.0" encoding="utf-8"?> <!-- Generator: Adobe Illustrator 13.0.0, SVG Export Plug-In . SVG Version: 6.00 Build 14948)  --> <svg version="1.2" baseProfile="tiny" id="Layer_1" xmlns="http://www.w3.org/2000/svg" xmlns:xlink="http://www.w3.org/1999/xlink" x="0px" y="0px" width="512px" height="512px" viewBox="0 0 512 512" xml:space="preserve">
<polygon points="0,0 512,0 512,512 0,512" style="fill:#ffffff; stroke:#000000;stroke-width:0"/>
<polygon points="-147.854,233.977 -137.864,275.458 -334.301,322.766 -344.291,281.286" style="fill:#006363; stroke:#000000;stroke-width:0"/>
<circle fill="#006363" stroke="#006363" stroke-width="0" cx="-142.859" cy="254.718" r="21.3333"/>
<circle fill="#006363" stroke="#006363" stroke-width="0" cx="-339.296" cy="302.026" r="21.3333"/>
<polygon points="747.608,448.189 721.159,414.71 892.033,279.716 918.482,313.195" style="fill:#006363; stroke:#000000;stroke-width:0"/>
<circle fill="#006363" stroke="#006363" stroke-width="0" cx="734.383" cy="431.449" r="21.3333"/>
<circle fill="#006363" stroke="#006363" stroke-width="0" cx="905.258" cy="296.456" r="21.3333"/>
<polygon points="1256,469.333 256,1469.33 -744,469.333" style="fill:#000000; stroke:#000000;stroke-width:0"/>
<polygon points="-744,42.6667 256,-957.333 1256,42.6667" style="fill:#000000; stroke:#000000;stroke-width:0"/>
<circle fill="#a64b00" stroke="#a64b00" stroke-width="0" cx="-142.859" cy="254.718" r="21.3333"/>
<circle fill="#a64b00" stroke="#a64b00" stroke-width="0" cx="-339.296" cy="302.026" r="21.3333"/>
<circle fill="#a64b00" stroke="#a64b00" stroke-width="0" cx="734.383" cy="431.449" r="21.3333"/>
<circle fill="#a64b00" stroke="#a64b00" stroke-width="0" cx="905.258" cy="296.456" r="21.3333"/>
<circle fill="#a64b00" stroke="#a64b00" stroke-width="0" cx="-25.9225" cy="134.996" r="21.3333"/>
</svg>
