<?xml version="1.0" encoding="utf-8"?> <!-- Generator: Adobe Illustrator 13.0.0, SVG Export Plug-In . SVG Version: 6.00 Build 14948)  --> <svg version="1.2" baseProfile="tiny" id="Layer_1" xmlns="http://www.w3.org/2000/svg" xmlns:xlink="http://www.w3.org/1999/xlink" x="0px" y="0px" width="512px" height="512px" viewBox="0 0 512 512" xml:space="preserve">
<polygon points="0,0 512,0 512,512 0,512" style="fill:#ffffff; stroke:#000000;stroke-width:0"/>
<polygon points="12.6761,116.058 55.3185,114.621 62.6062,330.875 19.9638,332.312" style="fill:#006363; stroke:#000000;stroke-width:0"/>
<circle fill="#006363" stroke="#006363" stroke-width="0" cx="33.9973" cy="115.34" r="21.3333"/>
<circle fill="#006363" stroke="#006363" stroke-width="0" cx="41.285" cy="331.593" r="21.3333"/>
<polygon points="453.155,160.745 495.777,158.812 505.369,370.268 462.746,372.202" style="fill:#006363; stroke:#000000;stroke-width:0"/>
<circle fill="#006363" stroke="#006363" stroke-width="0" cx="474.466" cy="159.778" r="21.3333"/>
<circle fill="#006363" stroke="#006363" stroke-width="0" cx="484.058" cy="371.235" r="21.3333"/>
<polygon points="1256,469.333 256,1469.33 -744,469.333" style="fill:#000000; stroke:#000000;stroke-width:0"/>
<polygon points="-744,42.6667 256,-957.333 1256,42.6667" style="fill:#000000; stroke:#000000;stroke-width:0"/>
<circle fill="#a64b00" stroke="#a64b00" stroke-width="0" cx="33.9973" cy="115.34" r="21.3333"/>
<circle fill="#a64b00" stroke="#a64b00" stroke-width="0" cx="41.285" cy="331.593" r="21.3333"/>
<circle fill="#a64b00" stroke="#a64b00" stroke-width="0" cx="474.466" cy="159.778" r="21.3333"/>
<circle fill="#a64b00" stroke="#a64b00" stroke-width="0" cx="484.058" cy="371.235" r="21.3333"/>
<circle fill="#a64b00" stroke="#a64b00" stroke-width="0" cx="310.065" cy="265.432" r="21.3333"/>
</svg>
