<?xml version="1.0" encoding="utf-8"?> <!-- Generator: Adobe Illustrator 13.0.0, SVG Export Plug-In . SVG Version: 6.00 Build 14948)  --> <svg version="1.2" baseProfile="tiny" id="Layer_1" xmlns="http://www.w3.org/2000/svg" xmlns:xlink="http://www.w3.org/1999/xlink" x="0px" y="0px" width="512px" height="512px" viewBox="0 0 512 512" xml:space="preserve">
<polygon points="0,0 512,0 512,512 0,512" style="fill:#ffffff; stroke:#000000;stroke-width:0"/>
<polygon points="-335.163,282.468 -370.164,258.068 -245.629,79.4301 -210.628,103.83" style="fill:#006363; stroke:#000000;stroke-width:0"/>
<circle fill="#006363" stroke="#006363" stroke-width="0" cx="-352.664" cy="270.268" r="21.3333"/>
<circle fill="#006363" stroke="#006363" stroke-width="0" cx="-228.129" cy="91.6303" r="21.3333"/>
<polygon points="810.721,250.214 848.455,230.3 948.732,420.3 910.998,440.215" style="fill:#006363; stroke:#000000;stroke-width:0"/>
<circle fill="#006363" stroke="#006363" stroke-width="0" cx="829.588" cy="240.257" r="21.3333"/>
<circle fill="#006363" stroke="#006363" stroke-width="0" cx="929.865" cy="430.257" r="21.3333"/>
<polygon points="1256,469.333 256,1469.33 -744,469.333" style="fill:#000000; stroke:#000000;stroke-width:0"/>
<polygon points="-744,42.6667 256,-957.333 1256,42.6667" style="fill:#000000; stroke:#000000;stroke-width:0"/>
<circle fill="#a64b00" stroke="#a64b00" stroke-width="0" cx="-352.664" cy="270.268" r="21.3333"/>
<circle fill="#a64b00" stroke="#a64b00" stroke-width="0" cx="-228.129" cy="91.6303" r="21.3333"/>
<circle fill="#a64b00" stroke="#a64b00" stroke-width="0" cx="829.588" cy="240.257" r="21.3333"/>
<circle fill="#a64b00" stroke="#a64b00" stroke-width="0" cx="929.865" cy="430.257" r="21.3333"/>
<circle fill="#a64b00" stroke="#a64b00" stroke-width="0" cx="-138.072" cy="363.968" r="21.3333"/>
</svg>
