<?xml version="1.0" encoding="utf-8"?> <!-- Generator: Adobe Illustrator 13.0.0, SVG Export Plug-In . SVG Version: 6.00 Build 14948)  --> <svg version="1.2" baseProfile="tiny" id="Layer_1" xmlns="http://www.w3.org/2000/svg" xmlns:xlink="http://www.w3.org/1999/xlink" x="0px" y="0px" width="512px" height="512px" viewBox="0 0 512 512" xml:space="preserve">
<polygon points="0,0 512,0 512,512 0,512" style="fill:#ffffff; stroke:#000000;stroke-width:0"/>
<polygon points="-123.513,212.476 -84.8817,230.589 -178.157,429.526 -216.788,411.413" style="fill:#006363; stroke:#000000;stroke-width:0"/>
<circle fill="#006363" stroke="#006363" stroke-width="0" cx="-104.197" cy="221.533" r="21.3333"/>
<circle fill="#006363" stroke="#006363" stroke-width="0" cx="-197.473" cy="420.47" r="21.3333"/>
<polygon points="671.223,457.014 635.179,434.182 749.187,254.202 785.231,277.034" style="fill:#006363; stroke:#000000;stroke-width:0"/>
<circle fill="#006363" stroke="#006363" stroke-width="0" cx="653.201" cy="445.598" r="21.3333"/>
<circle fill="#006363" stroke="#006363" stroke-width="0" cx="767.209" cy="265.618" r="21.3333"/>
<polygon points="1256,469.333 256,1469.33 -744,469.333" style="fill:#000000; stroke:#000000;stroke-width:0"/>
<polygon points="-744,42.6667 256,-957.333 1256,42.6667" style="fill:#000000; stroke:#000000;stroke-width:0"/>
<circle fill="#a64b00" stroke="#a64b00" stroke-width="0" cx="-104.197" cy="221.533" r="21.3333"/>
<circle fill="#a64b00" stroke="#a64b00" stroke-width="0" cx="-197.473" cy="420.47" r="21.3333"/>
<circle fill="#a64b00" stroke="#a64b00" stroke-width="0" cx="653.201" cy="445.598" r="21.3333"/>
<circle fill="#a64b00" stroke="#a64b00" stroke-width="0" cx="767.209" cy="265.618" r="21.3333"/>
<circle fill="#a64b00" stroke="#a64b00" stroke-width="0" cx="179.288" cy="134.996" r="21.3333"/>
</svg>
