<?xml version="1.0" encoding="utf-8"?> <!-- Generator: Adobe Illustrator 13.0.0, SVG Export Plug-In . SVG Version: 6.00 Build 14948)  --> <svg version="1.2" baseProfile="tiny" id="Layer_1" xmlns="http://www.w3.org/2000/svg" xmlns:xlink="http://www.w3.org/1999/xlink" x="0px" y="0px" width="512px" height="512px" viewBox="0 0 512 512" xml:space="preserve">
<polygon points="0,0 512,0 512,512 0,512" style="fill:#ffffff; stroke:#000000;stroke-width:0"/>
<polygon points="-199.431,330.984 -180.86,292.571 6.89166,383.343 -11.6797,421.756" style="fill:#006363; stroke:#000000;stroke-width:0"/>
<circle fill="#006363" stroke="#006363" stroke-width="0" cx="-190.145" cy="311.778" r="21.3333"/>
<circle fill="#006363" stroke="#006363" stroke-width="0" cx="-2.39403" cy="402.55" r="21.3333"/>
<polygon points="646.692,176.552 688.334,185.845 641.16,397.221 599.518,387.928" style="fill:#006363; stroke:#000000;stroke-width:0"/>
<circle fill="#006363" stroke="#006363" stroke-width="0" cx="667.513" cy="181.198" r="21.3333"/>
<circle fill="#006363" stroke="#006363" stroke-width="0" cx="620.339" cy="392.575" r="21.3333"/>
<polygon points="1256,469.333 256,1469.33 -744,469.333" style="fill:#000000; stroke:#000000;stroke-width:0"/>
<polygon points="-744,42.6667 256,-957.333 1256,42.6667" style="fill:#000000; stroke:#000000;stroke-width:0"/>
<circle fill="#a64b00" stroke="#a64b00" stroke-width="0" cx="-190.145" cy="311.778" r="21.3333"/>
<circle fill="#a64b00" stroke="#a64b00" stroke-width="0" cx="-2.39403" cy="402.55" r="21.3333"/>
<circle fill="#a64b00" stroke="#a64b00" stroke-width="0" cx="667.513" cy="181.198" r="21.3333"/>
<circle fill="#a64b00" stroke="#a64b00" stroke-width="0" cx="620.339" cy="392.575" r="21.3333"/>
<circle fill="#a64b00" stroke="#a64b00" stroke-width="0" cx="303.369" cy="344.887" r="21.3333"/>
</svg>
