<?xml version="1.0" encoding="utf-8"?> <!-- Generator: Adobe Illustrator 13.0.0, SVG Export Plug-In . SVG Version: 6.00 Build 14948)  --> <svg version="1.2" baseProfile="tiny" id="Layer_1" xmlns="http://www.w3.org/2000/svg" xmlns:xlink="http://www.w3.org/1999/xlink" x="0px" y="0px" width="512px" height="512px" viewBox="0 0 512 512" xml:space="preserve">
<polygon points="0,0 512,0 512,512 0,512" style="fill:#ffffff; stroke:#000000;stroke-width:0"/>
<polygon points="-388.112,194.826 -404.124,155.278 -204.748,74.555 -188.736,114.103" style="fill:#006363; stroke:#000000;stroke-width:0"/>
<circle fill="#006363" stroke="#006363" stroke-width="0" cx="-396.118" cy="175.052" r="21.3333"/>
<circle fill="#006363" stroke="#006363" stroke-width="0" cx="-196.742" cy="94.3291" r="21.3333"/>
<polygon points="838.707,237.995 879.799,226.512 935.404,425.498 894.311,436.981" style="fill:#006363; stroke:#000000;stroke-width:0"/>
<circle fill="#006363" stroke="#006363" stroke-width="0" cx="859.253" cy="232.253" r="21.3333"/>
<circle fill="#006363" stroke="#006363" stroke-width="0" cx="914.858" cy="431.24" r="21.3333"/>
<polygon points="1256,469.333 256,1469.33 -744,469.333" style="fill:#000000; stroke:#000000;stroke-width:0"/>
<polygon points="-744,42.6667 256,-957.333 1256,42.6667" style="fill:#000000; stroke:#000000;stroke-width:0"/>
<circle fill="#a64b00" stroke="#a64b00" stroke-width="0" cx="-396.118" cy="175.052" r="21.3333"/>
<circle fill="#a64b00" stroke="#a64b00" stroke-width="0" cx="-196.742" cy="94.3291" r="21.3333"/>
<circle fill="#a64b00" stroke="#a64b00" stroke-width="0" cx="859.253" cy="232.253" r="21.3333"/>
<circle fill="#a64b00" stroke="#a64b00" stroke-width="0" cx="914.858" cy="431.24" r="21.3333"/>
<circle fill="#a64b00" stroke="#a64b00" stroke-width="0" cx="-151.793" cy="316.266" r="21.3333"/>
</svg>
