<?xml version="1.0" encoding="utf-8"?> <!-- Generator: Adobe Illustrator 13.0.0, SVG Export Plug-In . SVG Version: 6.00 Build 14948)  --> <svg version="1.2" baseProfile="tiny" id="Layer_1" xmlns="http://www.w3.org/2000/svg" xmlns:xlink="http://www.w3.org/1999/xlink" x="0px" y="0px" width="512px" height="512px" viewBox="0 0 512 512" xml:space="preserve">
<polygon points="0,0 512,0 512,512 0,512" style="fill:#ffffff; stroke:#000000;stroke-width:0"/>
<polygon points="-198.873,318.935 -176.738,282.46 8.43256,394.833 -13.7031,431.309" style="fill:#006363; stroke:#000000;stroke-width:0"/>
<circle fill="#006363" stroke="#006363" stroke-width="0" cx="-187.806" cy="300.698" r="21.3333"/>
<circle fill="#006363" stroke="#006363" stroke-width="0" cx="-2.63526" cy="413.071" r="21.3333"/>
<polygon points="650.508,178.445 691.592,189.96 634.795,392.606 593.711,381.091" style="fill:#006363; stroke:#000000;stroke-width:0"/>
<circle fill="#006363" stroke="#006363" stroke-width="0" cx="671.05" cy="184.203" r="21.3333"/>
<circle fill="#006363" stroke="#006363" stroke-width="0" cx="614.253" cy="386.849" r="21.3333"/>
<polygon points="1256,469.333 256,1469.33 -744,469.333" style="fill:#000000; stroke:#000000;stroke-width:0"/>
<polygon points="-744,42.6667 256,-957.333 1256,42.6667" style="fill:#000000; stroke:#000000;stroke-width:0"/>
<circle fill="#a64b00" stroke="#a64b00" stroke-width="0" cx="-187.806" cy="300.698" r="21.3333"/>
<circle fill="#a64b00" stroke="#a64b00" stroke-width="0" cx="-2.63526" cy="413.071" r="21.3333"/>
<circle fill="#a64b00" stroke="#a64b00" stroke-width="0" cx="671.05" cy="184.203" r="21.3333"/>
<circle fill="#a64b00" stroke="#a64b00" stroke-width="0" cx="614.253" cy="386.849" r="21.3333"/>
<circle fill="#a64b00" stroke="#a64b00" stroke-width="0" cx="305.755" cy="306.725" r="21.3333"/>
</svg>
