<?xml version="1.0" encoding="utf-8"?> <!-- Generator: Adobe Illustrator 13.0.0, SVG Export Plug-In . SVG Version: 6.00 Build 14948)  --> <svg version="1.2" baseProfile="tiny" id="Layer_1" xmlns="http://www.w3.org/2000/svg" xmlns:xlink="http://www.w3.org/1999/xlink" x="0px" y="0px" width="512px" height="512px" viewBox="0 0 512 512" xml:space="preserve">
<polygon points="0,0 512,0 512,512 0,512" style="fill:#ffffff; stroke:#000000;stroke-width:0"/>
<polygon points="-69.2593,216.205 -31.6165,196.118 65.8813,378.832 28.2386,398.919" style="fill:#006363; stroke:#000000;stroke-width:0"/>
<circle fill="#006363" stroke="#006363" stroke-width="0" cx="-50.4379" cy="206.161" r="21.3333"/>
<circle fill="#006363" stroke="#006363" stroke-width="0" cx="47.0599" cy="388.875" r="21.3333"/>
<polygon points="426.291,141.931 444.555,103.371 634.71,193.439 616.446,231.999" style="fill:#006363; stroke:#000000;stroke-width:0"/>
<circle fill="#006363" stroke="#006363" stroke-width="0" cx="435.423" cy="122.651" r="21.3333"/>
<circle fill="#006363" stroke="#006363" stroke-width="0" cx="625.578" cy="212.719" r="21.3333"/>
<polygon points="1256,469.333 256,1469.33 -744,469.333" style="fill:#000000; stroke:#000000;stroke-width:0"/>
<polygon points="-744,42.6667 256,-957.333 1256,42.6667" style="fill:#000000; stroke:#000000;stroke-width:0"/>
<circle fill="#a64b00" stroke="#a64b00" stroke-width="0" cx="-50.4379" cy="206.161" r="21.3333"/>
<circle fill="#a64b00" stroke="#a64b00" stroke-width="0" cx="47.0599" cy="388.875" r="21.3333"/>
<circle fill="#a64b00" stroke="#a64b00" stroke-width="0" cx="435.423" cy="122.651" r="21.3333"/>
<circle fill="#a64b00" stroke="#a64b00" stroke-width="0" cx="625.578" cy="212.719" r="21.3333"/>
<circle fill="#a64b00" stroke="#a64b00" stroke-width="0" cx="136.363" cy="180.694" r="21.3333"/>
</svg>
