<?xml version="1.0" encoding="utf-8"?> <!-- Generator: Adobe Illustrator 13.0.0, SVG Export Plug-In . SVG Version: 6.00 Build 14948)  --> <svg version="1.2" baseProfile="tiny" id="Layer_1" xmlns="http://www.w3.org/2000/svg" xmlns:xlink="http://www.w3.org/1999/xlink" x="0px" y="0px" width="512px" height="512px" viewBox="0 0 512 512" xml:space="preserve">
<polygon points="0,0 512,0 512,512 0,512" style="fill:#ffffff; stroke:#000000;stroke-width:0"/>
<polygon points="-135.081,225.703 -125.801,267.348 -344.451,316.067 -353.73,274.422" style="fill:#006363; stroke:#000000;stroke-width:0"/>
<circle fill="#006363" stroke="#006363" stroke-width="0" cx="-130.441" cy="246.526" r="21.3333"/>
<circle fill="#006363" stroke="#006363" stroke-width="0" cx="-349.091" cy="295.244" r="21.3333"/>
<polygon points="754.111,448.518 726.166,416.276 882.343,280.913 910.288,313.155" style="fill:#006363; stroke:#000000;stroke-width:0"/>
<circle fill="#006363" stroke="#006363" stroke-width="0" cx="740.139" cy="432.397" r="21.3333"/>
<circle fill="#006363" stroke="#006363" stroke-width="0" cx="896.316" cy="297.034" r="21.3333"/>
<polygon points="1256,469.333 256,1469.33 -744,469.333" style="fill:#000000; stroke:#000000;stroke-width:0"/>
<polygon points="-744,42.6667 256,-957.333 1256,42.6667" style="fill:#000000; stroke:#000000;stroke-width:0"/>
<circle fill="#a64b00" stroke="#a64b00" stroke-width="0" cx="-130.441" cy="246.526" r="21.3333"/>
<circle fill="#a64b00" stroke="#a64b00" stroke-width="0" cx="-349.091" cy="295.244" r="21.3333"/>
<circle fill="#a64b00" stroke="#a64b00" stroke-width="0" cx="740.139" cy="432.397" r="21.3333"/>
<circle fill="#a64b00" stroke="#a64b00" stroke-width="0" cx="896.316" cy="297.034" r="21.3333"/>
<circle fill="#a64b00" stroke="#a64b00" stroke-width="0" cx="-22.9398" cy="87.2932" r="21.3333"/>
</svg>
