<?xml version="1.0" encoding="utf-8"?> <!-- Generator: Adobe Illustrator 13.0.0, SVG Export Plug-In . SVG Version: 6.00 Build 14948)  --> <svg version="1.2" baseProfile="tiny" id="Layer_1" xmlns="http://www.w3.org/2000/svg" xmlns:xlink="http://www.w3.org/1999/xlink" x="0px" y="0px" width="512px" height="512px" viewBox="0 0 512 512" xml:space="preserve">
<polygon points="0,0 512,0 512,512 0,512" style="fill:#ffffff; stroke:#000000;stroke-width:0"/>
<polygon points="-103.257,178.555 -61.0684,172.183 -29.471,381.378 -71.6591,387.75" style="fill:#006363; stroke:#000000;stroke-width:0"/>
<circle fill="#006363" stroke="#006363" stroke-width="0" cx="-82.1625" cy="175.369" r="21.3333"/>
<circle fill="#006363" stroke="#006363" stroke-width="0" cx="-50.565" cy="384.564" r="21.3333"/>
<polygon points="717.698,247.171 709.786,289.097 497.502,249.035 505.415,207.108" style="fill:#006363; stroke:#000000;stroke-width:0"/>
<circle fill="#006363" stroke="#006363" stroke-width="0" cx="713.742" cy="268.134" r="21.3333"/>
<circle fill="#006363" stroke="#006363" stroke-width="0" cx="501.459" cy="228.071" r="21.3333"/>
<polygon points="1256,469.333 256,1469.33 -744,469.333" style="fill:#000000; stroke:#000000;stroke-width:0"/>
<polygon points="-744,42.6667 256,-957.333 1256,42.6667" style="fill:#000000; stroke:#000000;stroke-width:0"/>
<circle fill="#a64b00" stroke="#a64b00" stroke-width="0" cx="-82.1625" cy="175.369" r="21.3333"/>
<circle fill="#a64b00" stroke="#a64b00" stroke-width="0" cx="-50.565" cy="384.564" r="21.3333"/>
<circle fill="#a64b00" stroke="#a64b00" stroke-width="0" cx="713.742" cy="268.134" r="21.3333"/>
<circle fill="#a64b00" stroke="#a64b00" stroke-width="0" cx="501.459" cy="228.071" r="21.3333"/>
<circle fill="#a64b00" stroke="#a64b00" stroke-width="0" cx="371.374" cy="77.7526" r="21.3333"/>
</svg>
