<?xml version="1.0" encoding="utf-8"?> <!-- Generator: Adobe Illustrator 13.0.0, SVG Export Plug-In . SVG Version: 6.00 Build 14948)  --> <svg version="1.2" baseProfile="tiny" id="Layer_1" xmlns="http://www.w3.org/2000/svg" xmlns:xlink="http://www.w3.org/1999/xlink" x="0px" y="0px" width="512px" height="512px" viewBox="0 0 512 512" xml:space="preserve">
<polygon points="0,0 512,0 512,512 0,512" style="fill:#ffffff; stroke:#000000;stroke-width:0"/>
<polygon points="-85.6165,266.84 -59.1267,300.288 -223.399,430.388 -249.889,396.94" style="fill:#006363; stroke:#000000;stroke-width:0"/>
<circle fill="#006363" stroke="#006363" stroke-width="0" cx="-72.3716" cy="283.564" r="21.3333"/>
<circle fill="#006363" stroke="#006363" stroke-width="0" cx="-236.644" cy="413.664" r="21.3333"/>
<polygon points="679.529,435.895 642.521,414.662 749.803,227.666 786.812,248.899" style="fill:#006363; stroke:#000000;stroke-width:0"/>
<circle fill="#006363" stroke="#006363" stroke-width="0" cx="661.025" cy="425.278" r="21.3333"/>
<circle fill="#006363" stroke="#006363" stroke-width="0" cx="768.307" cy="238.282" r="21.3333"/>
<polygon points="1256,469.333 256,1469.33 -744,469.333" style="fill:#000000; stroke:#000000;stroke-width:0"/>
<polygon points="-744,42.6667 256,-957.333 1256,42.6667" style="fill:#000000; stroke:#000000;stroke-width:0"/>
<circle fill="#a64b00" stroke="#a64b00" stroke-width="0" cx="-72.3716" cy="283.564" r="21.3333"/>
<circle fill="#a64b00" stroke="#a64b00" stroke-width="0" cx="-236.644" cy="413.664" r="21.3333"/>
<circle fill="#a64b00" stroke="#a64b00" stroke-width="0" cx="661.025" cy="425.278" r="21.3333"/>
<circle fill="#a64b00" stroke="#a64b00" stroke-width="0" cx="768.307" cy="238.282" r="21.3333"/>
<circle fill="#a64b00" stroke="#a64b00" stroke-width="0" cx="170.936" cy="115.915" r="21.3333"/>
</svg>
