<?xml version="1.0" encoding="utf-8"?> <!-- Generator: Adobe Illustrator 13.0.0, SVG Export Plug-In . SVG Version: 6.00 Build 14948)  --> <svg version="1.2" baseProfile="tiny" id="Layer_1" xmlns="http://www.w3.org/2000/svg" xmlns:xlink="http://www.w3.org/1999/xlink" x="0px" y="0px" width="512px" height="512px" viewBox="0 0 512 512" xml:space="preserve">
<polygon points="0,0 512,0 512,512 0,512" style="fill:#ffffff; stroke:#000000;stroke-width:0"/>
<polygon points="-129.109,205.507 -122.417,247.645 -340.979,282.357 -347.671,240.218" style="fill:#006363; stroke:#000000;stroke-width:0"/>
<circle fill="#006363" stroke="#006363" stroke-width="0" cx="-125.763" cy="226.576" r="21.3333"/>
<circle fill="#006363" stroke="#006363" stroke-width="0" cx="-344.325" cy="261.288" r="21.3333"/>
<polygon points="760.069,453.793 728.071,425.57 864.914,270.425 896.912,298.649" style="fill:#006363; stroke:#000000;stroke-width:0"/>
<circle fill="#006363" stroke="#006363" stroke-width="0" cx="744.07" cy="439.682" r="21.3333"/>
<circle fill="#006363" stroke="#006363" stroke-width="0" cx="880.913" cy="284.537" r="21.3333"/>
<polygon points="1256,469.333 256,1469.33 -744,469.333" style="fill:#000000; stroke:#000000;stroke-width:0"/>
<polygon points="-744,42.6667 256,-957.333 1256,42.6667" style="fill:#000000; stroke:#000000;stroke-width:0"/>
<circle fill="#a64b00" stroke="#a64b00" stroke-width="0" cx="-125.763" cy="226.576" r="21.3333"/>
<circle fill="#a64b00" stroke="#a64b00" stroke-width="0" cx="-344.325" cy="261.288" r="21.3333"/>
<circle fill="#a64b00" stroke="#a64b00" stroke-width="0" cx="744.07" cy="439.682" r="21.3333"/>
<circle fill="#a64b00" stroke="#a64b00" stroke-width="0" cx="880.913" cy="284.537" r="21.3333"/>
<circle fill="#a64b00" stroke="#a64b00" stroke-width="0" cx="-12.202" cy="201.779" r="21.3333"/>
</svg>
