<?xml version="1.0" encoding="utf-8"?> <!-- Generator: Adobe Illustrator 13.0.0, SVG Export Plug-In . SVG Version: 6.00 Build 14948)  --> <svg version="1.2" baseProfile="tiny" id="Layer_1" xmlns="http://www.w3.org/2000/svg" xmlns:xlink="http://www.w3.org/1999/xlink" x="0px" y="0px" width="512px" height="512px" viewBox="0 0 512 512" xml:space="preserve">
<polygon points="0,0 512,0 512,512 0,512" style="fill:#ffffff; stroke:#000000;stroke-width:0"/>
<polygon points="-61.1193,228.621 -21.9717,211.653 60.952,402.972 21.8043,419.94" style="fill:#006363; stroke:#000000;stroke-width:0"/>
<circle fill="#006363" stroke="#006363" stroke-width="0" cx="-41.5455" cy="220.137" r="21.3333"/>
<circle fill="#006363" stroke="#006363" stroke-width="0" cx="41.3782" cy="411.456" r="21.3333"/>
<polygon points="426.994,129.005 449.138,92.5354 629.751,202.205 607.606,238.674" style="fill:#006363; stroke:#000000;stroke-width:0"/>
<circle fill="#006363" stroke="#006363" stroke-width="0" cx="438.066" cy="110.77" r="21.3333"/>
<circle fill="#006363" stroke="#006363" stroke-width="0" cx="618.678" cy="220.44" r="21.3333"/>
<polygon points="1256,469.333 256,1469.33 -744,469.333" style="fill:#000000; stroke:#000000;stroke-width:0"/>
<polygon points="-744,42.6667 256,-957.333 1256,42.6667" style="fill:#000000; stroke:#000000;stroke-width:0"/>
<circle fill="#a64b00" stroke="#a64b00" stroke-width="0" cx="-41.5455" cy="220.137" r="21.3333"/>
<circle fill="#a64b00" stroke="#a64b00" stroke-width="0" cx="41.3782" cy="411.456" r="21.3333"/>
<circle fill="#a64b00" stroke="#a64b00" stroke-width="0" cx="438.066" cy="110.77" r="21.3333"/>
<circle fill="#a64b00" stroke="#a64b00" stroke-width="0" cx="618.678" cy="220.44" r="21.3333"/>
<circle fill="#a64b00" stroke="#a64b00" stroke-width="0" cx="155.639" cy="242.778" r="21.3333"/>
</svg>
