<?xml version="1.0" encoding="utf-8"?> <!-- Generator: Adobe Illustrator 13.0.0, SVG Export Plug-In . SVG Version: 6.00 Build 14948)  --> <svg version="1.2" baseProfile="tiny" id="Layer_1" xmlns="http://www.w3.org/2000/svg" xmlns:xlink="http://www.w3.org/1999/xlink" x="0px" y="0px" width="512px" height="512px" viewBox="0 0 512 512" xml:space="preserve">
<polygon points="0,0 512,0 512,512 0,512" style="fill:#ffffff; stroke:#000000;stroke-width:0"/>
<polygon points="-56.8433,418.364 -71.6237,458.389 -271.06,384.74 -256.28,344.716" style="fill:#006363; stroke:#000000;stroke-width:0"/>
<circle fill="#006363" stroke="#006363" stroke-width="0" cx="-64.2335" cy="438.376" r="21.3333"/>
<circle fill="#006363" stroke="#006363" stroke-width="0" cx="-263.67" cy="364.728" r="21.3333"/>
<polygon points="702.669,378.32 663.52,361.355 749.606,162.7 788.755,179.665" style="fill:#006363; stroke:#000000;stroke-width:0"/>
<circle fill="#006363" stroke="#006363" stroke-width="0" cx="683.095" cy="369.838" r="21.3333"/>
<circle fill="#006363" stroke="#006363" stroke-width="0" cx="769.181" cy="171.183" r="21.3333"/>
<polygon points="1256,469.333 256,1469.33 -744,469.333" style="fill:#000000; stroke:#000000;stroke-width:0"/>
<polygon points="-744,42.6667 256,-957.333 1256,42.6667" style="fill:#000000; stroke:#000000;stroke-width:0"/>
<circle fill="#a64b00" stroke="#a64b00" stroke-width="0" cx="-64.2335" cy="438.376" r="21.3333"/>
<circle fill="#a64b00" stroke="#a64b00" stroke-width="0" cx="-263.67" cy="364.728" r="21.3333"/>
<circle fill="#a64b00" stroke="#a64b00" stroke-width="0" cx="683.095" cy="369.838" r="21.3333"/>
<circle fill="#a64b00" stroke="#a64b00" stroke-width="0" cx="769.181" cy="171.183" r="21.3333"/>
<circle fill="#a64b00" stroke="#a64b00" stroke-width="0" cx="149.461" cy="440.293" r="21.3333"/>
</svg>
