<?xml version="1.0" encoding="utf-8"?> <!-- Generator: Adobe Illustrator 13.0.0, SVG Export Plug-In . SVG Version: 6.00 Build 14948)  --> <svg version="1.2" baseProfile="tiny" id="Layer_1" xmlns="http://www.w3.org/2000/svg" xmlns:xlink="http://www.w3.org/1999/xlink" x="0px" y="0px" width="512px" height="512px" viewBox="0 0 512 512" xml:space="preserve">
<polygon points="0,0 512,0 512,512 0,512" style="fill:#ffffff; stroke:#000000;stroke-width:0"/>
<polygon points="-389.625,285.785 -414.521,251.134 -243.819,128.49 -218.924,163.141" style="fill:#006363; stroke:#000000;stroke-width:0"/>
<circle fill="#006363" stroke="#006363" stroke-width="0" cx="-402.073" cy="268.459" r="21.3333"/>
<circle fill="#006363" stroke="#006363" stroke-width="0" cx="-231.371" cy="145.816" r="21.3333"/>
<polygon points="925.983,211.7 966.038,226.4 890.826,431.34 850.772,416.64" style="fill:#006363; stroke:#000000;stroke-width:0"/>
<circle fill="#006363" stroke="#006363" stroke-width="0" cx="946.011" cy="219.05" r="21.3333"/>
<circle fill="#006363" stroke="#006363" stroke-width="0" cx="870.799" cy="423.99" r="21.3333"/>
<polygon points="1256,469.333 256,1469.33 -744,469.333" style="fill:#000000; stroke:#000000;stroke-width:0"/>
<polygon points="-744,42.6667 256,-957.333 1256,42.6667" style="fill:#000000; stroke:#000000;stroke-width:0"/>
<circle fill="#a64b00" stroke="#a64b00" stroke-width="0" cx="-402.073" cy="268.459" r="21.3333"/>
<circle fill="#a64b00" stroke="#a64b00" stroke-width="0" cx="-231.371" cy="145.816" r="21.3333"/>
<circle fill="#a64b00" stroke="#a64b00" stroke-width="0" cx="946.011" cy="219.05" r="21.3333"/>
<circle fill="#a64b00" stroke="#a64b00" stroke-width="0" cx="870.799" cy="423.99" r="21.3333"/>
<circle fill="#a64b00" stroke="#a64b00" stroke-width="0" cx="351.453" cy="222.854" r="21.3333"/>
</svg>
