<?xml version="1.0" encoding="utf-8"?> <!-- Generator: Adobe Illustrator 13.0.0, SVG Export Plug-In . SVG Version: 6.00 Build 14948)  --> <svg version="1.2" baseProfile="tiny" id="Layer_1" xmlns="http://www.w3.org/2000/svg" xmlns:xlink="http://www.w3.org/1999/xlink" x="0px" y="0px" width="512px" height="512px" viewBox="0 0 512 512" xml:space="preserve">
<polygon points="0,0 512,0 512,512 0,512" style="fill:#ffffff; stroke:#000000;stroke-width:0"/>
<polygon points="-187.178,294.125 -157.463,263.507 1.98379,418.247 -27.7308,448.865" style="fill:#006363; stroke:#000000;stroke-width:0"/>
<circle fill="#006363" stroke="#006363" stroke-width="0" cx="-172.321" cy="278.816" r="21.3333"/>
<circle fill="#006363" stroke="#006363" stroke-width="0" cx="-12.8735" cy="433.556" r="21.3333"/>
<polygon points="661.754,176.974 700.907,193.929 617.177,387.273 578.024,370.318" style="fill:#006363; stroke:#000000;stroke-width:0"/>
<circle fill="#006363" stroke="#006363" stroke-width="0" cx="681.33" cy="185.452" r="21.3333"/>
<circle fill="#006363" stroke="#006363" stroke-width="0" cx="597.6" cy="378.795" r="21.3333"/>
<polygon points="1256,469.333 256,1469.33 -744,469.333" style="fill:#000000; stroke:#000000;stroke-width:0"/>
<polygon points="-744,42.6667 256,-957.333 1256,42.6667" style="fill:#000000; stroke:#000000;stroke-width:0"/>
<circle fill="#a64b00" stroke="#a64b00" stroke-width="0" cx="-172.321" cy="278.816" r="21.3333"/>
<circle fill="#a64b00" stroke="#a64b00" stroke-width="0" cx="-12.8735" cy="433.556" r="21.3333"/>
<circle fill="#a64b00" stroke="#a64b00" stroke-width="0" cx="681.33" cy="185.452" r="21.3333"/>
<circle fill="#a64b00" stroke="#a64b00" stroke-width="0" cx="597.6" cy="378.795" r="21.3333"/>
<circle fill="#a64b00" stroke="#a64b00" stroke-width="0" cx="311.72" cy="211.32" r="21.3333"/>
</svg>
