<?xml version="1.0" encoding="utf-8"?> <!-- Generator: Adobe Illustrator 13.0.0, SVG Export Plug-In . SVG Version: 6.00 Build 14948)  --> <svg version="1.2" baseProfile="tiny" id="Layer_1" xmlns="http://www.w3.org/2000/svg" xmlns:xlink="http://www.w3.org/1999/xlink" x="0px" y="0px" width="512px" height="512px" viewBox="0 0 512 512" xml:space="preserve">
<polygon points="0,0 512,0 512,512 0,512" style="fill:#ffffff; stroke:#000000;stroke-width:0"/>
<polygon points="-75.0659,185.492 -71.5552,228.014 -291.138,246.144 -294.649,203.622" style="fill:#006363; stroke:#000000;stroke-width:0"/>
<circle fill="#006363" stroke="#006363" stroke-width="0" cx="-73.3106" cy="206.753" r="21.3333"/>
<circle fill="#006363" stroke="#006363" stroke-width="0" cx="-292.893" cy="224.883" r="21.3333"/>
<polygon points="743.69,287.513 702.385,276.82 755.108,73.1441 796.413,83.8363" style="fill:#006363; stroke:#000000;stroke-width:0"/>
<circle fill="#006363" stroke="#006363" stroke-width="0" cx="723.037" cy="282.166" r="21.3333"/>
<circle fill="#006363" stroke="#006363" stroke-width="0" cx="775.761" cy="78.4902" r="21.3333"/>
<polygon points="1256,469.333 256,1469.33 -744,469.333" style="fill:#000000; stroke:#000000;stroke-width:0"/>
<polygon points="-744,42.6667 256,-957.333 1256,42.6667" style="fill:#000000; stroke:#000000;stroke-width:0"/>
<circle fill="#a64b00" stroke="#a64b00" stroke-width="0" cx="-73.3106" cy="206.753" r="21.3333"/>
<circle fill="#a64b00" stroke="#a64b00" stroke-width="0" cx="-292.893" cy="224.883" r="21.3333"/>
<circle fill="#a64b00" stroke="#a64b00" stroke-width="0" cx="723.037" cy="282.166" r="21.3333"/>
<circle fill="#a64b00" stroke="#a64b00" stroke-width="0" cx="775.761" cy="78.4902" r="21.3333"/>
<circle fill="#a64b00" stroke="#a64b00" stroke-width="0" cx="105.913" cy="373.509" r="21.3333"/>
</svg>
