<?xml version="1.0" encoding="utf-8"?> <!-- Generator: Adobe Illustrator 13.0.0, SVG Export Plug-In . SVG Version: 6.00 Build 14948)  --> <svg version="1.2" baseProfile="tiny" id="Layer_1" xmlns="http://www.w3.org/2000/svg" xmlns:xlink="http://www.w3.org/1999/xlink" x="0px" y="0px" width="512px" height="512px" viewBox="0 0 512 512" xml:space="preserve">
<polygon points="0,0 512,0 512,512 0,512" style="fill:#ffffff; stroke:#000000;stroke-width:0"/>
<polygon points="-106.373,237.932 -65.1092,227.08 -11.6643,430.283 -52.9277,441.136" style="fill:#006363; stroke:#000000;stroke-width:0"/>
<circle fill="#006363" stroke="#006363" stroke-width="0" cx="-85.7409" cy="232.506" r="21.3333"/>
<circle fill="#006363" stroke="#006363" stroke-width="0" cx="-32.296" cy="435.709" r="21.3333"/>
<polygon points="699.684,277.24 676.871,313.296 497.672,199.913 520.486,163.858" style="fill:#006363; stroke:#000000;stroke-width:0"/>
<circle fill="#006363" stroke="#006363" stroke-width="0" cx="688.277" cy="295.268" r="21.3333"/>
<circle fill="#006363" stroke="#006363" stroke-width="0" cx="509.079" cy="181.886" r="21.3333"/>
<polygon points="1256,469.333 256,1469.33 -744,469.333" style="fill:#000000; stroke:#000000;stroke-width:0"/>
<polygon points="-744,42.6667 256,-957.333 1256,42.6667" style="fill:#000000; stroke:#000000;stroke-width:0"/>
<circle fill="#a64b00" stroke="#a64b00" stroke-width="0" cx="-85.7409" cy="232.506" r="21.3333"/>
<circle fill="#a64b00" stroke="#a64b00" stroke-width="0" cx="-32.296" cy="435.709" r="21.3333"/>
<circle fill="#a64b00" stroke="#a64b00" stroke-width="0" cx="688.277" cy="295.268" r="21.3333"/>
<circle fill="#a64b00" stroke="#a64b00" stroke-width="0" cx="509.079" cy="181.886" r="21.3333"/>
<circle fill="#a64b00" stroke="#a64b00" stroke-width="0" cx="388.078" cy="344.887" r="21.3333"/>
</svg>
