<?xml version="1.0" encoding="utf-8"?> <!-- Generator: Adobe Illustrator 13.0.0, SVG Export Plug-In . SVG Version: 6.00 Build 14948)  --> <svg version="1.2" baseProfile="tiny" id="Layer_1" xmlns="http://www.w3.org/2000/svg" xmlns:xlink="http://www.w3.org/1999/xlink" x="0px" y="0px" width="512px" height="512px" viewBox="0 0 512 512" xml:space="preserve">
<polygon points="0,0 512,0 512,512 0,512" style="fill:#ffffff; stroke:#000000;stroke-width:0"/>
<polygon points="-152.091,255.193 -139.397,295.928 -340.033,358.451 -352.727,317.717" style="fill:#006363; stroke:#000000;stroke-width:0"/>
<circle fill="#006363" stroke="#006363" stroke-width="0" cx="-145.744" cy="275.561" r="21.3333"/>
<circle fill="#006363" stroke="#006363" stroke-width="0" cx="-346.38" cy="338.084" r="21.3333"/>
<polygon points="743.616,429.296 723.476,391.682 908.134,292.809 928.274,330.423" style="fill:#006363; stroke:#000000;stroke-width:0"/>
<circle fill="#006363" stroke="#006363" stroke-width="0" cx="733.546" cy="410.489" r="21.3333"/>
<circle fill="#006363" stroke="#006363" stroke-width="0" cx="918.204" cy="311.616" r="21.3333"/>
<polygon points="1256,469.333 256,1469.33 -744,469.333" style="fill:#000000; stroke:#000000;stroke-width:0"/>
<polygon points="-744,42.6667 256,-957.333 1256,42.6667" style="fill:#000000; stroke:#000000;stroke-width:0"/>
<circle fill="#a64b00" stroke="#a64b00" stroke-width="0" cx="-145.744" cy="275.561" r="21.3333"/>
<circle fill="#a64b00" stroke="#a64b00" stroke-width="0" cx="-346.38" cy="338.084" r="21.3333"/>
<circle fill="#a64b00" stroke="#a64b00" stroke-width="0" cx="733.546" cy="410.489" r="21.3333"/>
<circle fill="#a64b00" stroke="#a64b00" stroke-width="0" cx="918.204" cy="311.616" r="21.3333"/>
<circle fill="#a64b00" stroke="#a64b00" stroke-width="0" cx="-37.2568" cy="316.266" r="21.3333"/>
</svg>
