<?xml version="1.0" encoding="utf-8"?> <!-- Generator: Adobe Illustrator 13.0.0, SVG Export Plug-In . SVG Version: 6.00 Build 14948)  --> <svg version="1.2" baseProfile="tiny" id="Layer_1" xmlns="http://www.w3.org/2000/svg" xmlns:xlink="http://www.w3.org/1999/xlink" x="0px" y="0px" width="512px" height="512px" viewBox="0 0 512 512" xml:space="preserve">
<polygon points="0,0 512,0 512,512 0,512" style="fill:#ffffff; stroke:#000000;stroke-width:0"/>
<polygon points="-166.916,306.723 -147.98,344.958 -349.343,444.682 -368.278,406.447" style="fill:#006363; stroke:#000000;stroke-width:0"/>
<circle fill="#006363" stroke="#006363" stroke-width="0" cx="-157.448" cy="325.84" r="21.3333"/>
<circle fill="#006363" stroke="#006363" stroke-width="0" cx="-358.81" cy="425.564" r="21.3333"/>
<polygon points="737.941,381.717 735.321,339.131 943.124,326.345 945.745,368.931" style="fill:#006363; stroke:#000000;stroke-width:0"/>
<circle fill="#006363" stroke="#006363" stroke-width="0" cx="736.631" cy="360.424" r="21.3333"/>
<circle fill="#006363" stroke="#006363" stroke-width="0" cx="944.435" cy="347.638" r="21.3333"/>
<polygon points="1256,469.333 256,1469.33 -744,469.333" style="fill:#000000; stroke:#000000;stroke-width:0"/>
<polygon points="-744,42.6667 256,-957.333 1256,42.6667" style="fill:#000000; stroke:#000000;stroke-width:0"/>
<circle fill="#a64b00" stroke="#a64b00" stroke-width="0" cx="-157.448" cy="325.84" r="21.3333"/>
<circle fill="#a64b00" stroke="#a64b00" stroke-width="0" cx="-358.81" cy="425.564" r="21.3333"/>
<circle fill="#a64b00" stroke="#a64b00" stroke-width="0" cx="736.631" cy="360.424" r="21.3333"/>
<circle fill="#a64b00" stroke="#a64b00" stroke-width="0" cx="944.435" cy="347.638" r="21.3333"/>
<circle fill="#a64b00" stroke="#a64b00" stroke-width="0" cx="-64.6977" cy="144.536" r="21.3333"/>
</svg>
