<?xml version="1.0" encoding="utf-8"?> <!-- Generator: Adobe Illustrator 13.0.0, SVG Export Plug-In . SVG Version: 6.00 Build 14948)  --> <svg version="1.2" baseProfile="tiny" id="Layer_1" xmlns="http://www.w3.org/2000/svg" xmlns:xlink="http://www.w3.org/1999/xlink" x="0px" y="0px" width="512px" height="512px" viewBox="0 0 512 512" xml:space="preserve">
<polygon points="0,0 512,0 512,512 0,512" style="fill:#ffffff; stroke:#000000;stroke-width:0"/>
<polygon points="-132.869,93.8335 -126.349,51.6679 85.1376,84.37 78.6176,126.536" style="fill:#006363; stroke:#000000;stroke-width:0"/>
<circle fill="#006363" stroke="#006363" stroke-width="0" cx="-129.609" cy="72.7507" r="21.3333"/>
<circle fill="#006363" stroke="#006363" stroke-width="0" cx="81.8776" cy="105.453" r="21.3333"/>
<polygon points="494.15,282.43 464.496,251.754 617.808,103.547 647.463,134.224" style="fill:#006363; stroke:#000000;stroke-width:0"/>
<circle fill="#006363" stroke="#006363" stroke-width="0" cx="479.323" cy="267.092" r="21.3333"/>
<circle fill="#006363" stroke="#006363" stroke-width="0" cx="632.635" cy="118.886" r="21.3333"/>
<polygon points="1256,469.333 256,1469.33 -744,469.333" style="fill:#000000; stroke:#000000;stroke-width:0"/>
<polygon points="-744,42.6667 256,-957.333 1256,42.6667" style="fill:#000000; stroke:#000000;stroke-width:0"/>
<circle fill="#a64b00" stroke="#a64b00" stroke-width="0" cx="-129.609" cy="72.7507" r="21.3333"/>
<circle fill="#a64b00" stroke="#a64b00" stroke-width="0" cx="81.8776" cy="105.453" r="21.3333"/>
<circle fill="#a64b00" stroke="#a64b00" stroke-width="0" cx="479.323" cy="267.092" r="21.3333"/>
<circle fill="#a64b00" stroke="#a64b00" stroke-width="0" cx="632.635" cy="118.886" r="21.3333"/>
<circle fill="#a64b00" stroke="#a64b00" stroke-width="0" cx="468.014" cy="58.6716" r="21.3333"/>
</svg>
