<?xml version="1.0" encoding="utf-8"?> <!-- Generator: Adobe Illustrator 13.0.0, SVG Export Plug-In . SVG Version: 6.00 Build 14948)  --> <svg version="1.2" baseProfile="tiny" id="Layer_1" xmlns="http://www.w3.org/2000/svg" xmlns:xlink="http://www.w3.org/1999/xlink" x="0px" y="0px" width="512px" height="512px" viewBox="0 0 512 512" xml:space="preserve">
<polygon points="0,0 512,0 512,512 0,512" style="fill:#ffffff; stroke:#000000;stroke-width:0"/>
<polygon points="-157.856,275.543 -142.666,315.414 -343.711,392.008 -358.901,352.137" style="fill:#006363; stroke:#000000;stroke-width:0"/>
<circle fill="#006363" stroke="#006363" stroke-width="0" cx="-150.261" cy="295.478" r="21.3333"/>
<circle fill="#006363" stroke="#006363" stroke-width="0" cx="-351.306" cy="372.072" r="21.3333"/>
<polygon points="740.231,411.449 726.666,370.996 922.99,305.161 936.555,345.614" style="fill:#006363; stroke:#000000;stroke-width:0"/>
<circle fill="#006363" stroke="#006363" stroke-width="0" cx="733.448" cy="391.223" r="21.3333"/>
<circle fill="#006363" stroke="#006363" stroke-width="0" cx="929.772" cy="325.387" r="21.3333"/>
<polygon points="1256,469.333 256,1469.33 -744,469.333" style="fill:#000000; stroke:#000000;stroke-width:0"/>
<polygon points="-744,42.6667 256,-957.333 1256,42.6667" style="fill:#000000; stroke:#000000;stroke-width:0"/>
<circle fill="#a64b00" stroke="#a64b00" stroke-width="0" cx="-150.261" cy="295.478" r="21.3333"/>
<circle fill="#a64b00" stroke="#a64b00" stroke-width="0" cx="-351.306" cy="372.072" r="21.3333"/>
<circle fill="#a64b00" stroke="#a64b00" stroke-width="0" cx="733.448" cy="391.223" r="21.3333"/>
<circle fill="#a64b00" stroke="#a64b00" stroke-width="0" cx="929.772" cy="325.387" r="21.3333"/>
<circle fill="#a64b00" stroke="#a64b00" stroke-width="0" cx="-47.9946" cy="411.671" r="21.3333"/>
</svg>
