<?xml version="1.0" encoding="utf-8"?> <!-- Generator: Adobe Illustrator 13.0.0, SVG Export Plug-In . SVG Version: 6.00 Build 14948)  --> <svg version="1.2" baseProfile="tiny" id="Layer_1" xmlns="http://www.w3.org/2000/svg" xmlns:xlink="http://www.w3.org/1999/xlink" x="0px" y="0px" width="512px" height="512px" viewBox="0 0 512 512" xml:space="preserve">
<polygon points="0,0 512,0 512,512 0,512" style="fill:#ffffff; stroke:#000000;stroke-width:0"/>
<polygon points="-174.068,305.411 -155.802,343.97 -339.567,431.02 -357.833,392.461" style="fill:#006363; stroke:#000000;stroke-width:0"/>
<circle fill="#006363" stroke="#006363" stroke-width="0" cx="-164.935" cy="324.69" r="21.3333"/>
<circle fill="#006363" stroke="#006363" stroke-width="0" cx="-348.7" cy="411.741" r="21.3333"/>
<polygon points="731.68,387.991 727.039,345.577 946.199,321.598 950.839,364.011" style="fill:#006363; stroke:#000000;stroke-width:0"/>
<circle fill="#006363" stroke="#006363" stroke-width="0" cx="729.36" cy="366.784" r="21.3333"/>
<circle fill="#006363" stroke="#006363" stroke-width="0" cx="948.519" cy="342.805" r="21.3333"/>
<polygon points="1256,469.333 256,1469.33 -744,469.333" style="fill:#000000; stroke:#000000;stroke-width:0"/>
<polygon points="-744,42.6667 256,-957.333 1256,42.6667" style="fill:#000000; stroke:#000000;stroke-width:0"/>
<circle fill="#a64b00" stroke="#a64b00" stroke-width="0" cx="-164.935" cy="324.69" r="21.3333"/>
<circle fill="#a64b00" stroke="#a64b00" stroke-width="0" cx="-348.7" cy="411.741" r="21.3333"/>
<circle fill="#a64b00" stroke="#a64b00" stroke-width="0" cx="729.36" cy="366.784" r="21.3333"/>
<circle fill="#a64b00" stroke="#a64b00" stroke-width="0" cx="948.519" cy="342.805" r="21.3333"/>
<circle fill="#a64b00" stroke="#a64b00" stroke-width="0" cx="-61.715" cy="192.239" r="21.3333"/>
</svg>
