<?xml version="1.0" encoding="utf-8"?> <!-- Generator: Adobe Illustrator 13.0.0, SVG Export Plug-In . SVG Version: 6.00 Build 14948)  --> <svg version="1.2" baseProfile="tiny" id="Layer_1" xmlns="http://www.w3.org/2000/svg" xmlns:xlink="http://www.w3.org/1999/xlink" x="0px" y="0px" width="512px" height="512px" viewBox="0 0 512 512" xml:space="preserve">
<polygon points="0,0 512,0 512,512 0,512" style="fill:#ffffff; stroke:#000000;stroke-width:0"/>
<polygon points="-10.7456,128.686 31.5728,123.245 58.3361,331.407 16.0178,336.848" style="fill:#006363; stroke:#000000;stroke-width:0"/>
<circle fill="#006363" stroke="#006363" stroke-width="0" cx="10.4136" cy="125.966" r="21.3333"/>
<circle fill="#006363" stroke="#006363" stroke-width="0" cx="37.177" cy="334.127" r="21.3333"/>
<polygon points="453.718,188.525 495.443,179.609 539.708,386.768 497.983,395.684" style="fill:#006363; stroke:#000000;stroke-width:0"/>
<circle fill="#006363" stroke="#006363" stroke-width="0" cx="474.58" cy="184.067" r="21.3333"/>
<circle fill="#006363" stroke="#006363" stroke-width="0" cx="518.845" cy="391.226" r="21.3333"/>
<polygon points="1256,469.333 256,1469.33 -744,469.333" style="fill:#000000; stroke:#000000;stroke-width:0"/>
<polygon points="-744,42.6667 256,-957.333 1256,42.6667" style="fill:#000000; stroke:#000000;stroke-width:0"/>
<circle fill="#a64b00" stroke="#a64b00" stroke-width="0" cx="10.4136" cy="125.966" r="21.3333"/>
<circle fill="#a64b00" stroke="#a64b00" stroke-width="0" cx="37.177" cy="334.127" r="21.3333"/>
<circle fill="#a64b00" stroke="#a64b00" stroke-width="0" cx="474.58" cy="184.067" r="21.3333"/>
<circle fill="#a64b00" stroke="#a64b00" stroke-width="0" cx="518.845" cy="391.226" r="21.3333"/>
<circle fill="#a64b00" stroke="#a64b00" stroke-width="0" cx="442.376" cy="374.706" r="21.3333"/>
</svg>
