<?xml version="1.0" encoding="utf-8"?> <!-- Generator: Adobe Illustrator 13.0.0, SVG Export Plug-In . SVG Version: 6.00 Build 14948)  --> <svg version="1.2" baseProfile="tiny" id="Layer_1" xmlns="http://www.w3.org/2000/svg" xmlns:xlink="http://www.w3.org/1999/xlink" x="0px" y="0px" width="512px" height="512px" viewBox="0 0 512 512" xml:space="preserve">
<polygon points="0,0 512,0 512,512 0,512" style="fill:#ffffff; stroke:#000000;stroke-width:0"/>
<polygon points="-292.882,314.736 -334.101,303.716 -280.565,103.477 -239.346,114.497" style="fill:#006363; stroke:#000000;stroke-width:0"/>
<circle fill="#006363" stroke="#006363" stroke-width="0" cx="-313.492" cy="309.226" r="21.3333"/>
<circle fill="#006363" stroke="#006363" stroke-width="0" cx="-259.955" cy="108.987" r="21.3333"/>
<polygon points="795.041,261.309 829.823,236.597 955.49,413.479 920.708,438.191" style="fill:#006363; stroke:#000000;stroke-width:0"/>
<circle fill="#006363" stroke="#006363" stroke-width="0" cx="812.432" cy="248.953" r="21.3333"/>
<circle fill="#006363" stroke="#006363" stroke-width="0" cx="938.099" cy="425.835" r="21.3333"/>
<polygon points="1256,469.333 256,1469.33 -744,469.333" style="fill:#000000; stroke:#000000;stroke-width:0"/>
<polygon points="-744,42.6667 256,-957.333 1256,42.6667" style="fill:#000000; stroke:#000000;stroke-width:0"/>
<circle fill="#a64b00" stroke="#a64b00" stroke-width="0" cx="-313.492" cy="309.226" r="21.3333"/>
<circle fill="#a64b00" stroke="#a64b00" stroke-width="0" cx="-259.955" cy="108.987" r="21.3333"/>
<circle fill="#a64b00" stroke="#a64b00" stroke-width="0" cx="812.432" cy="248.953" r="21.3333"/>
<circle fill="#a64b00" stroke="#a64b00" stroke-width="0" cx="938.099" cy="425.835" r="21.3333"/>
<circle fill="#a64b00" stroke="#a64b00" stroke-width="0" cx="-129.721" cy="230.401" r="21.3333"/>
</svg>
