<?xml version="1.0" encoding="utf-8"?> <!-- Generator: Adobe Illustrator 13.0.0, SVG Export Plug-In . SVG Version: 6.00 Build 14948)  --> <svg version="1.2" baseProfile="tiny" id="Layer_1" xmlns="http://www.w3.org/2000/svg" xmlns:xlink="http://www.w3.org/1999/xlink" x="0px" y="0px" width="512px" height="512px" viewBox="0 0 512 512" xml:space="preserve">
<polygon points="0,0 512,0 512,512 0,512" style="fill:#ffffff; stroke:#000000;stroke-width:0"/>
<polygon points="-248.474,206.576 -235.947,165.79 -25.9129,230.302 -38.4404,271.088" style="fill:#006363; stroke:#000000;stroke-width:0"/>
<circle fill="#006363" stroke="#006363" stroke-width="0" cx="-242.211" cy="186.183" r="21.3333"/>
<circle fill="#006363" stroke="#006363" stroke-width="0" cx="-32.1767" cy="250.695" r="21.3333"/>
<polygon points="597.264,393.752 584.062,353.179 790.007,286.166 803.209,326.739" style="fill:#006363; stroke:#000000;stroke-width:0"/>
<circle fill="#006363" stroke="#006363" stroke-width="0" cx="590.663" cy="373.466" r="21.3333"/>
<circle fill="#006363" stroke="#006363" stroke-width="0" cx="796.608" cy="306.453" r="21.3333"/>
<polygon points="1256,469.333 256,1469.33 -744,469.333" style="fill:#000000; stroke:#000000;stroke-width:0"/>
<polygon points="-744,42.6667 256,-957.333 1256,42.6667" style="fill:#000000; stroke:#000000;stroke-width:0"/>
<circle fill="#a64b00" stroke="#a64b00" stroke-width="0" cx="-242.211" cy="186.183" r="21.3333"/>
<circle fill="#a64b00" stroke="#a64b00" stroke-width="0" cx="-32.1767" cy="250.695" r="21.3333"/>
<circle fill="#a64b00" stroke="#a64b00" stroke-width="0" cx="590.663" cy="373.466" r="21.3333"/>
<circle fill="#a64b00" stroke="#a64b00" stroke-width="0" cx="796.608" cy="306.453" r="21.3333"/>
<circle fill="#a64b00" stroke="#a64b00" stroke-width="0" cx="210.308" cy="268.563" r="21.3333"/>
</svg>
