<?xml version="1.0" encoding="utf-8"?> <!-- Generator: Adobe Illustrator 13.0.0, SVG Export Plug-In . SVG Version: 6.00 Build 14948)  --> <svg version="1.2" baseProfile="tiny" id="Layer_1" xmlns="http://www.w3.org/2000/svg" xmlns:xlink="http://www.w3.org/1999/xlink" x="0px" y="0px" width="512px" height="512px" viewBox="0 0 512 512" xml:space="preserve">
<polygon points="0,0 512,0 512,512 0,512" style="fill:#ffffff; stroke:#000000;stroke-width:0"/>
<polygon points="-72.0853,287.285 -51.2837,324.537 -239.553,429.667 -260.355,392.414" style="fill:#006363; stroke:#000000;stroke-width:0"/>
<circle fill="#006363" stroke="#006363" stroke-width="0" cx="-61.6845" cy="305.911" r="21.3333"/>
<circle fill="#006363" stroke="#006363" stroke-width="0" cx="-249.954" cy="411.041" r="21.3333"/>
<polygon points="684.011,425.607 646.679,404.949 748.508,220.934 785.84,241.593" style="fill:#006363; stroke:#000000;stroke-width:0"/>
<circle fill="#006363" stroke="#006363" stroke-width="0" cx="665.345" cy="415.278" r="21.3333"/>
<circle fill="#006363" stroke="#006363" stroke-width="0" cx="767.174" cy="231.264" r="21.3333"/>
<polygon points="1256,469.333 256,1469.33 -744,469.333" style="fill:#000000; stroke:#000000;stroke-width:0"/>
<polygon points="-744,42.6667 256,-957.333 1256,42.6667" style="fill:#000000; stroke:#000000;stroke-width:0"/>
<circle fill="#a64b00" stroke="#a64b00" stroke-width="0" cx="-61.6845" cy="305.911" r="21.3333"/>
<circle fill="#a64b00" stroke="#a64b00" stroke-width="0" cx="-249.954" cy="411.041" r="21.3333"/>
<circle fill="#a64b00" stroke="#a64b00" stroke-width="0" cx="665.345" cy="415.278" r="21.3333"/>
<circle fill="#a64b00" stroke="#a64b00" stroke-width="0" cx="767.174" cy="231.264" r="21.3333"/>
<circle fill="#a64b00" stroke="#a64b00" stroke-width="0" cx="167.954" cy="163.617" r="21.3333"/>
</svg>
