<?xml version="1.0" encoding="utf-8"?> <!-- Generator: Adobe Illustrator 13.0.0, SVG Export Plug-In . SVG Version: 6.00 Build 14948)  --> <svg version="1.2" baseProfile="tiny" id="Layer_1" xmlns="http://www.w3.org/2000/svg" xmlns:xlink="http://www.w3.org/1999/xlink" x="0px" y="0px" width="512px" height="512px" viewBox="0 0 512 512" xml:space="preserve">
<polygon points="0,0 512,0 512,512 0,512" style="fill:#ffffff; stroke:#000000;stroke-width:0"/>
<polygon points="-186.004,305.811 -158.406,273.272 -0.763926,406.98 -28.3623,439.518" style="fill:#006363; stroke:#000000;stroke-width:0"/>
<circle fill="#006363" stroke="#006363" stroke-width="0" cx="-172.205" cy="289.542" r="21.3333"/>
<circle fill="#006363" stroke="#006363" stroke-width="0" cx="-14.5631" cy="423.249" r="21.3333"/>
<polygon points="658.861,175.834 698.681,191.158 621.981,390.455 582.161,375.13" style="fill:#006363; stroke:#000000;stroke-width:0"/>
<circle fill="#006363" stroke="#006363" stroke-width="0" cx="678.771" cy="183.496" r="21.3333"/>
<circle fill="#006363" stroke="#006363" stroke-width="0" cx="602.071" cy="382.792" r="21.3333"/>
<polygon points="1256,469.333 256,1469.33 -744,469.333" style="fill:#000000; stroke:#000000;stroke-width:0"/>
<polygon points="-744,42.6667 256,-957.333 1256,42.6667" style="fill:#000000; stroke:#000000;stroke-width:0"/>
<circle fill="#a64b00" stroke="#a64b00" stroke-width="0" cx="-172.205" cy="289.542" r="21.3333"/>
<circle fill="#a64b00" stroke="#a64b00" stroke-width="0" cx="-14.5631" cy="423.249" r="21.3333"/>
<circle fill="#a64b00" stroke="#a64b00" stroke-width="0" cx="678.771" cy="183.496" r="21.3333"/>
<circle fill="#a64b00" stroke="#a64b00" stroke-width="0" cx="602.071" cy="382.792" r="21.3333"/>
<circle fill="#a64b00" stroke="#a64b00" stroke-width="0" cx="309.931" cy="239.942" r="21.3333"/>
</svg>
