<?xml version="1.0" encoding="utf-8"?> <!-- Generator: Adobe Illustrator 13.0.0, SVG Export Plug-In . SVG Version: 6.00 Build 14948)  --> <svg version="1.2" baseProfile="tiny" id="Layer_1" xmlns="http://www.w3.org/2000/svg" xmlns:xlink="http://www.w3.org/1999/xlink" x="0px" y="0px" width="512px" height="512px" viewBox="0 0 512 512" xml:space="preserve">
<polygon points="0,0 512,0 512,512 0,512" style="fill:#ffffff; stroke:#000000;stroke-width:0"/>
<polygon points="-146.54,136 -126.83,98.1585 67.8528,199.561 48.1427,237.403" style="fill:#006363; stroke:#000000;stroke-width:0"/>
<circle fill="#006363" stroke="#006363" stroke-width="0" cx="-136.685" cy="117.079" r="21.3333"/>
<circle fill="#006363" stroke="#006363" stroke-width="0" cx="57.9978" cy="218.482" r="21.3333"/>
<polygon points="595.473,321.415 552.807,321.163 554.086,104.707 596.752,104.959" style="fill:#006363; stroke:#000000;stroke-width:0"/>
<circle fill="#006363" stroke="#006363" stroke-width="0" cx="574.14" cy="321.289" r="21.3333"/>
<circle fill="#006363" stroke="#006363" stroke-width="0" cx="575.419" cy="104.833" r="21.3333"/>
<polygon points="1256,469.333 256,1469.33 -744,469.333" style="fill:#000000; stroke:#000000;stroke-width:0"/>
<polygon points="-744,42.6667 256,-957.333 1256,42.6667" style="fill:#000000; stroke:#000000;stroke-width:0"/>
<circle fill="#a64b00" stroke="#a64b00" stroke-width="0" cx="-136.685" cy="117.079" r="21.3333"/>
<circle fill="#a64b00" stroke="#a64b00" stroke-width="0" cx="57.9978" cy="218.482" r="21.3333"/>
<circle fill="#a64b00" stroke="#a64b00" stroke-width="0" cx="574.14" cy="321.289" r="21.3333"/>
<circle fill="#a64b00" stroke="#a64b00" stroke-width="0" cx="575.419" cy="104.833" r="21.3333"/>
<circle fill="#a64b00" stroke="#a64b00" stroke-width="0" cx="432.818" cy="278.104" r="21.3333"/>
</svg>
