<?xml version="1.0" encoding="utf-8"?> <!-- Generator: Adobe Illustrator 13.0.0, SVG Export Plug-In . SVG Version: 6.00 Build 14948)  --> <svg version="1.2" baseProfile="tiny" id="Layer_1" xmlns="http://www.w3.org/2000/svg" xmlns:xlink="http://www.w3.org/1999/xlink" x="0px" y="0px" width="512px" height="512px" viewBox="0 0 512 512" xml:space="preserve">
<polygon points="0,0 512,0 512,512 0,512" style="fill:#ffffff; stroke:#000000;stroke-width:0"/>
<polygon points="-187.272,433.644 -209.475,397.21 -28.353,286.83 -6.1493,323.264" style="fill:#006363; stroke:#000000;stroke-width:0"/>
<circle fill="#006363" stroke="#006363" stroke-width="0" cx="-198.374" cy="415.427" r="21.3333"/>
<circle fill="#006363" stroke="#006363" stroke-width="0" cx="-17.2512" cy="305.047" r="21.3333"/>
<polygon points="598.615,209.04 638.334,193.456 717.279,394.672 677.56,410.255" style="fill:#006363; stroke:#000000;stroke-width:0"/>
<circle fill="#006363" stroke="#006363" stroke-width="0" cx="618.474" cy="201.248" r="21.3333"/>
<circle fill="#006363" stroke="#006363" stroke-width="0" cx="697.419" cy="402.463" r="21.3333"/>
<polygon points="1256,469.333 256,1469.33 -744,469.333" style="fill:#000000; stroke:#000000;stroke-width:0"/>
<polygon points="-744,42.6667 256,-957.333 1256,42.6667" style="fill:#000000; stroke:#000000;stroke-width:0"/>
<circle fill="#a64b00" stroke="#a64b00" stroke-width="0" cx="-198.374" cy="415.427" r="21.3333"/>
<circle fill="#a64b00" stroke="#a64b00" stroke-width="0" cx="-17.2512" cy="305.047" r="21.3333"/>
<circle fill="#a64b00" stroke="#a64b00" stroke-width="0" cx="618.474" cy="201.248" r="21.3333"/>
<circle fill="#a64b00" stroke="#a64b00" stroke-width="0" cx="697.419" cy="402.463" r="21.3333"/>
<circle fill="#a64b00" stroke="#a64b00" stroke-width="0" cx="277.121" cy="134.996" r="21.3333"/>
</svg>
