<?xml version="1.0" encoding="utf-8"?> <!-- Generator: Adobe Illustrator 13.0.0, SVG Export Plug-In . SVG Version: 6.00 Build 14948)  --> <svg version="1.2" baseProfile="tiny" id="Layer_1" xmlns="http://www.w3.org/2000/svg" xmlns:xlink="http://www.w3.org/1999/xlink" x="0px" y="0px" width="512px" height="512px" viewBox="0 0 512 512" xml:space="preserve">
<polygon points="0,0 512,0 512,512 0,512" style="fill:#ffffff; stroke:#000000;stroke-width:0"/>
<polygon points="-24.2286,165.976 17.754,158.366 56.9701,374.716 14.9875,382.325" style="fill:#006363; stroke:#000000;stroke-width:0"/>
<circle fill="#006363" stroke="#006363" stroke-width="0" cx="-3.23731" cy="162.171" r="21.3333"/>
<circle fill="#006363" stroke="#006363" stroke-width="0" cx="35.9788" cy="378.521" r="21.3333"/>
<polygon points="449.384,135.314 489.352,120.382 563.729,319.457 523.761,334.39" style="fill:#006363; stroke:#000000;stroke-width:0"/>
<circle fill="#006363" stroke="#006363" stroke-width="0" cx="469.368" cy="127.848" r="21.3333"/>
<circle fill="#006363" stroke="#006363" stroke-width="0" cx="543.745" cy="326.924" r="21.3333"/>
<polygon points="1256,469.333 256,1469.33 -744,469.333" style="fill:#000000; stroke:#000000;stroke-width:0"/>
<polygon points="-744,42.6667 256,-957.333 1256,42.6667" style="fill:#000000; stroke:#000000;stroke-width:0"/>
<circle fill="#a64b00" stroke="#a64b00" stroke-width="0" cx="-3.23731" cy="162.171" r="21.3333"/>
<circle fill="#a64b00" stroke="#a64b00" stroke-width="0" cx="35.9788" cy="378.521" r="21.3333"/>
<circle fill="#a64b00" stroke="#a64b00" stroke-width="0" cx="469.368" cy="127.848" r="21.3333"/>
<circle fill="#a64b00" stroke="#a64b00" stroke-width="0" cx="543.745" cy="326.924" r="21.3333"/>
<circle fill="#a64b00" stroke="#a64b00" stroke-width="0" cx="353.223" cy="87.5681" r="21.3333"/>
</svg>
