<?xml version="1.0" encoding="utf-8"?> <!-- Generator: Adobe Illustrator 13.0.0, SVG Export Plug-In . SVG Version: 6.00 Build 14948)  --> <svg version="1.2" baseProfile="tiny" id="Layer_1" xmlns="http://www.w3.org/2000/svg" xmlns:xlink="http://www.w3.org/1999/xlink" x="0px" y="0px" width="512px" height="512px" viewBox="0 0 512 512" xml:space="preserve">
<polygon points="0,0 512,0 512,512 0,512" style="fill:#ffffff; stroke:#000000;stroke-width:0"/>
<polygon points="-411.138,161.717 -415.003,119.226 -205.723,100.187 -201.857,142.678" style="fill:#006363; stroke:#000000;stroke-width:0"/>
<circle fill="#006363" stroke="#006363" stroke-width="0" cx="-413.071" cy="140.471" r="21.3333"/>
<circle fill="#006363" stroke="#006363" stroke-width="0" cx="-203.79" cy="121.433" r="21.3333"/>
<polygon points="890.811,214.815 933.223,219.472 909.429,436.162 867.017,431.505" style="fill:#006363; stroke:#000000;stroke-width:0"/>
<circle fill="#006363" stroke="#006363" stroke-width="0" cx="912.017" cy="217.143" r="21.3333"/>
<circle fill="#006363" stroke="#006363" stroke-width="0" cx="888.223" cy="433.834" r="21.3333"/>
<polygon points="1256,469.333 256,1469.33 -744,469.333" style="fill:#000000; stroke:#000000;stroke-width:0"/>
<polygon points="-744,42.6667 256,-957.333 1256,42.6667" style="fill:#000000; stroke:#000000;stroke-width:0"/>
<circle fill="#a64b00" stroke="#a64b00" stroke-width="0" cx="-413.071" cy="140.471" r="21.3333"/>
<circle fill="#a64b00" stroke="#a64b00" stroke-width="0" cx="-203.79" cy="121.433" r="21.3333"/>
<circle fill="#a64b00" stroke="#a64b00" stroke-width="0" cx="912.017" cy="217.143" r="21.3333"/>
<circle fill="#a64b00" stroke="#a64b00" stroke-width="0" cx="888.223" cy="433.834" r="21.3333"/>
<circle fill="#a64b00" stroke="#a64b00" stroke-width="0" cx="72.7221" cy="175.264" r="21.3333"/>
</svg>
