<?xml version="1.0" encoding="utf-8"?> <!-- Generator: Adobe Illustrator 13.0.0, SVG Export Plug-In . SVG Version: 6.00 Build 14948)  --> <svg version="1.2" baseProfile="tiny" id="Layer_1" xmlns="http://www.w3.org/2000/svg" xmlns:xlink="http://www.w3.org/1999/xlink" x="0px" y="0px" width="512px" height="512px" viewBox="0 0 512 512" xml:space="preserve">
<polygon points="0,0 512,0 512,512 0,512" style="fill:#ffffff; stroke:#000000;stroke-width:0"/>
<polygon points="-120.802,111.383 -78.9812,102.93 -37.1095,310.081 -78.9303,318.534" style="fill:#006363; stroke:#000000;stroke-width:0"/>
<circle fill="#006363" stroke="#006363" stroke-width="0" cx="-99.8916" cy="107.157" r="21.3333"/>
<circle fill="#006363" stroke="#006363" stroke-width="0" cx="-58.0199" cy="314.308" r="21.3333"/>
<polygon points="707.717,198.534 726.68,236.755 538.074,330.331 519.111,292.11" style="fill:#006363; stroke:#000000;stroke-width:0"/>
<circle fill="#006363" stroke="#006363" stroke-width="0" cx="717.198" cy="217.644" r="21.3333"/>
<circle fill="#006363" stroke="#006363" stroke-width="0" cx="528.592" cy="311.221" r="21.3333"/>
<polygon points="1256,469.333 256,1469.33 -744,469.333" style="fill:#000000; stroke:#000000;stroke-width:0"/>
<polygon points="-744,42.6667 256,-957.333 1256,42.6667" style="fill:#000000; stroke:#000000;stroke-width:0"/>
<circle fill="#a64b00" stroke="#a64b00" stroke-width="0" cx="-99.8916" cy="107.157" r="21.3333"/>
<circle fill="#a64b00" stroke="#a64b00" stroke-width="0" cx="-58.0199" cy="314.308" r="21.3333"/>
<circle fill="#a64b00" stroke="#a64b00" stroke-width="0" cx="717.198" cy="217.644" r="21.3333"/>
<circle fill="#a64b00" stroke="#a64b00" stroke-width="0" cx="528.592" cy="311.221" r="21.3333"/>
<circle fill="#a64b00" stroke="#a64b00" stroke-width="0" cx="342.74" cy="402.13" r="21.3333"/>
</svg>
