<?xml version="1.0" encoding="utf-8"?> <!-- Generator: Adobe Illustrator 13.0.0, SVG Export Plug-In . SVG Version: 6.00 Build 14948)  --> <svg version="1.2" baseProfile="tiny" id="Layer_1" xmlns="http://www.w3.org/2000/svg" xmlns:xlink="http://www.w3.org/1999/xlink" x="0px" y="0px" width="512px" height="512px" viewBox="0 0 512 512" xml:space="preserve">
<polygon points="0,0 512,0 512,512 0,512" style="fill:#ffffff; stroke:#000000;stroke-width:0"/>
<polygon points="-0.489525,88.9346 42.0248,85.3324 60.5212,303.631 18.0069,307.233" style="fill:#006363; stroke:#000000;stroke-width:0"/>
<circle fill="#006363" stroke="#006363" stroke-width="0" cx="20.7676" cy="87.1335" r="21.3333"/>
<circle fill="#006363" stroke="#006363" stroke-width="0" cx="39.2641" cy="305.432" r="21.3333"/>
<polygon points="457.808,233.157 500.271,228.995 521.182,442.317 478.719,446.48" style="fill:#006363; stroke:#000000;stroke-width:0"/>
<circle fill="#006363" stroke="#006363" stroke-width="0" cx="479.039" cy="231.076" r="21.3333"/>
<circle fill="#006363" stroke="#006363" stroke-width="0" cx="499.951" cy="444.398" r="21.3333"/>
<polygon points="1256,469.333 256,1469.33 -744,469.333" style="fill:#000000; stroke:#000000;stroke-width:0"/>
<polygon points="-744,42.6667 256,-957.333 1256,42.6667" style="fill:#000000; stroke:#000000;stroke-width:0"/>
<circle fill="#a64b00" stroke="#a64b00" stroke-width="0" cx="20.7676" cy="87.1335" r="21.3333"/>
<circle fill="#a64b00" stroke="#a64b00" stroke-width="0" cx="39.2641" cy="305.432" r="21.3333"/>
<circle fill="#a64b00" stroke="#a64b00" stroke-width="0" cx="479.039" cy="231.076" r="21.3333"/>
<circle fill="#a64b00" stroke="#a64b00" stroke-width="0" cx="499.951" cy="444.398" r="21.3333"/>
<circle fill="#a64b00" stroke="#a64b00" stroke-width="0" cx="311.143" cy="368.93" r="21.3333"/>
</svg>
