<?xml version="1.0" encoding="utf-8"?> <!-- Generator: Adobe Illustrator 13.0.0, SVG Export Plug-In . SVG Version: 6.00 Build 14948)  --> <svg version="1.2" baseProfile="tiny" id="Layer_1" xmlns="http://www.w3.org/2000/svg" xmlns:xlink="http://www.w3.org/1999/xlink" x="0px" y="0px" width="512px" height="512px" viewBox="0 0 512 512" xml:space="preserve">
<polygon points="0,0 512,0 512,512 0,512" style="fill:#ffffff; stroke:#000000;stroke-width:0"/>
<polygon points="-132.57,104.66 -121.953,63.3358 90.0853,117.812 79.4683,159.136" style="fill:#006363; stroke:#000000;stroke-width:0"/>
<circle fill="#006363" stroke="#006363" stroke-width="0" cx="-127.262" cy="83.9981" r="21.3333"/>
<circle fill="#006363" stroke="#006363" stroke-width="0" cx="84.7768" cy="138.474" r="21.3333"/>
<polygon points="478.436,270.703 453.171,236.321 627.149,108.471 652.414,142.852" style="fill:#006363; stroke:#000000;stroke-width:0"/>
<circle fill="#006363" stroke="#006363" stroke-width="0" cx="465.804" cy="253.512" r="21.3333"/>
<circle fill="#006363" stroke="#006363" stroke-width="0" cx="639.782" cy="125.662" r="21.3333"/>
<polygon points="1256,469.333 256,1469.33 -744,469.333" style="fill:#000000; stroke:#000000;stroke-width:0"/>
<polygon points="-744,42.6667 256,-957.333 1256,42.6667" style="fill:#000000; stroke:#000000;stroke-width:0"/>
<circle fill="#a64b00" stroke="#a64b00" stroke-width="0" cx="-127.262" cy="83.9981" r="21.3333"/>
<circle fill="#a64b00" stroke="#a64b00" stroke-width="0" cx="84.7768" cy="138.474" r="21.3333"/>
<circle fill="#a64b00" stroke="#a64b00" stroke-width="0" cx="465.804" cy="253.512" r="21.3333"/>
<circle fill="#a64b00" stroke="#a64b00" stroke-width="0" cx="639.782" cy="125.662" r="21.3333"/>
<circle fill="#a64b00" stroke="#a64b00" stroke-width="0" cx="473.98" cy="154.077" r="21.3333"/>
</svg>
