<?xml version="1.0" encoding="utf-8"?> <!-- Generator: Adobe Illustrator 13.0.0, SVG Export Plug-In . SVG Version: 6.00 Build 14948)  --> <svg version="1.2" baseProfile="tiny" id="Layer_1" xmlns="http://www.w3.org/2000/svg" xmlns:xlink="http://www.w3.org/1999/xlink" x="0px" y="0px" width="512px" height="512px" viewBox="0 0 512 512" xml:space="preserve">
<polygon points="0,0 512,0 512,512 0,512" style="fill:#ffffff; stroke:#000000;stroke-width:0"/>
<polygon points="-362.26,237.259 -388.448,203.575 -224.828,76.3694 -198.64,110.054" style="fill:#006363; stroke:#000000;stroke-width:0"/>
<circle fill="#006363" stroke="#006363" stroke-width="0" cx="-375.354" cy="220.417" r="21.3333"/>
<circle fill="#006363" stroke="#006363" stroke-width="0" cx="-211.734" cy="93.2116" r="21.3333"/>
<polygon points="823.866,240.148 863.562,224.506 943.235,426.703 903.538,442.345" style="fill:#006363; stroke:#000000;stroke-width:0"/>
<circle fill="#006363" stroke="#006363" stroke-width="0" cx="843.714" cy="232.327" r="21.3333"/>
<circle fill="#006363" stroke="#006363" stroke-width="0" cx="923.387" cy="434.524" r="21.3333"/>
<polygon points="1256,469.333 256,1469.33 -744,469.333" style="fill:#000000; stroke:#000000;stroke-width:0"/>
<polygon points="-744,42.6667 256,-957.333 1256,42.6667" style="fill:#000000; stroke:#000000;stroke-width:0"/>
<circle fill="#a64b00" stroke="#a64b00" stroke-width="0" cx="-375.354" cy="220.417" r="21.3333"/>
<circle fill="#a64b00" stroke="#a64b00" stroke-width="0" cx="-211.734" cy="93.2116" r="21.3333"/>
<circle fill="#a64b00" stroke="#a64b00" stroke-width="0" cx="843.714" cy="232.327" r="21.3333"/>
<circle fill="#a64b00" stroke="#a64b00" stroke-width="0" cx="923.387" cy="434.524" r="21.3333"/>
<circle fill="#a64b00" stroke="#a64b00" stroke-width="0" cx="-145.231" cy="421.212" r="21.3333"/>
</svg>
