<?xml version="1.0" encoding="utf-8"?> <!-- Generator: Adobe Illustrator 13.0.0, SVG Export Plug-In . SVG Version: 6.00 Build 14948)  --> <svg version="1.2" baseProfile="tiny" id="Layer_1" xmlns="http://www.w3.org/2000/svg" xmlns:xlink="http://www.w3.org/1999/xlink" x="0px" y="0px" width="512px" height="512px" viewBox="0 0 512 512" xml:space="preserve">
<polygon points="0,0 512,0 512,512 0,512" style="fill:#ffffff; stroke:#000000;stroke-width:0"/>
<polygon points="-231.478,189.284 -202.067,158.374 -50.2548,302.819 -79.6654,333.73" style="fill:#006363; stroke:#000000;stroke-width:0"/>
<circle fill="#006363" stroke="#006363" stroke-width="0" cx="-216.773" cy="173.829" r="21.3333"/>
<circle fill="#006363" stroke="#006363" stroke-width="0" cx="-64.9601" cy="318.274" r="21.3333"/>
<polygon points="616.134,414.25 595.54,376.882 780.06,275.194 800.653,312.562" style="fill:#006363; stroke:#000000;stroke-width:0"/>
<circle fill="#006363" stroke="#006363" stroke-width="0" cx="605.837" cy="395.566" r="21.3333"/>
<circle fill="#006363" stroke="#006363" stroke-width="0" cx="790.356" cy="293.878" r="21.3333"/>
<polygon points="1256,469.333 256,1469.33 -744,469.333" style="fill:#000000; stroke:#000000;stroke-width:0"/>
<polygon points="-744,42.6667 256,-957.333 1256,42.6667" style="fill:#000000; stroke:#000000;stroke-width:0"/>
<circle fill="#a64b00" stroke="#a64b00" stroke-width="0" cx="-216.773" cy="173.829" r="21.3333"/>
<circle fill="#a64b00" stroke="#a64b00" stroke-width="0" cx="-64.9601" cy="318.274" r="21.3333"/>
<circle fill="#a64b00" stroke="#a64b00" stroke-width="0" cx="605.837" cy="395.566" r="21.3333"/>
<circle fill="#a64b00" stroke="#a64b00" stroke-width="0" cx="790.356" cy="293.878" r="21.3333"/>
<circle fill="#a64b00" stroke="#a64b00" stroke-width="0" cx="201.957" cy="402.13" r="21.3333"/>
</svg>
