<?xml version="1.0" encoding="utf-8"?> <!-- Generator: Adobe Illustrator 13.0.0, SVG Export Plug-In . SVG Version: 6.00 Build 14948)  --> <svg version="1.2" baseProfile="tiny" id="Layer_1" xmlns="http://www.w3.org/2000/svg" xmlns:xlink="http://www.w3.org/1999/xlink" x="0px" y="0px" width="512px" height="512px" viewBox="0 0 512 512" xml:space="preserve">
<polygon points="0,0 512,0 512,512 0,512" style="fill:#ffffff; stroke:#000000;stroke-width:0"/>
<polygon points="-138.611,207.48 -97.9469,220.399 -160.961,418.743 -201.624,405.824" style="fill:#006363; stroke:#000000;stroke-width:0"/>
<circle fill="#006363" stroke="#006363" stroke-width="0" cx="-118.279" cy="213.94" r="21.3333"/>
<circle fill="#006363" stroke="#006363" stroke-width="0" cx="-181.292" cy="412.284" r="21.3333"/>
<polygon points="666.337,454.718 631.332,430.323 751.524,257.86 786.529,282.255" style="fill:#006363; stroke:#000000;stroke-width:0"/>
<circle fill="#006363" stroke="#006363" stroke-width="0" cx="648.835" cy="442.52" r="21.3333"/>
<circle fill="#006363" stroke="#006363" stroke-width="0" cx="769.027" cy="270.058" r="21.3333"/>
<polygon points="1256,469.333 256,1469.33 -744,469.333" style="fill:#000000; stroke:#000000;stroke-width:0"/>
<polygon points="-744,42.6667 256,-957.333 1256,42.6667" style="fill:#000000; stroke:#000000;stroke-width:0"/>
<circle fill="#a64b00" stroke="#a64b00" stroke-width="0" cx="-118.279" cy="213.94" r="21.3333"/>
<circle fill="#a64b00" stroke="#a64b00" stroke-width="0" cx="-181.292" cy="412.284" r="21.3333"/>
<circle fill="#a64b00" stroke="#a64b00" stroke-width="0" cx="648.835" cy="442.52" r="21.3333"/>
<circle fill="#a64b00" stroke="#a64b00" stroke-width="0" cx="769.027" cy="270.058" r="21.3333"/>
<circle fill="#a64b00" stroke="#a64b00" stroke-width="0" cx="181.674" cy="173.158" r="21.3333"/>
</svg>
