<?xml version="1.0" encoding="utf-8"?> <!-- Generator: Adobe Illustrator 13.0.0, SVG Export Plug-In . SVG Version: 6.00 Build 14948)  --> <svg version="1.2" baseProfile="tiny" id="Layer_1" xmlns="http://www.w3.org/2000/svg" xmlns:xlink="http://www.w3.org/1999/xlink" x="0px" y="0px" width="512px" height="512px" viewBox="0 0 512 512" xml:space="preserve">
<polygon points="0,0 512,0 512,512 0,512" style="fill:#ffffff; stroke:#000000;stroke-width:0"/>
<polygon points="-404.186,236.22 -420.697,196.878 -222.242,113.59 -205.731,152.933" style="fill:#006363; stroke:#000000;stroke-width:0"/>
<circle fill="#006363" stroke="#006363" stroke-width="0" cx="-412.442" cy="216.549" r="21.3333"/>
<circle fill="#006363" stroke="#006363" stroke-width="0" cx="-213.987" cy="133.261" r="21.3333"/>
<polygon points="911.317,212.048 952.652,222.624 898.483,434.35 857.147,423.774" style="fill:#006363; stroke:#000000;stroke-width:0"/>
<circle fill="#006363" stroke="#006363" stroke-width="0" cx="931.984" cy="217.336" r="21.3333"/>
<circle fill="#006363" stroke="#006363" stroke-width="0" cx="877.815" cy="429.062" r="21.3333"/>
<polygon points="1256,469.333 256,1469.33 -744,469.333" style="fill:#000000; stroke:#000000;stroke-width:0"/>
<polygon points="-744,42.6667 256,-957.333 1256,42.6667" style="fill:#000000; stroke:#000000;stroke-width:0"/>
<circle fill="#a64b00" stroke="#a64b00" stroke-width="0" cx="-412.442" cy="216.549" r="21.3333"/>
<circle fill="#a64b00" stroke="#a64b00" stroke-width="0" cx="-213.987" cy="133.261" r="21.3333"/>
<circle fill="#a64b00" stroke="#a64b00" stroke-width="0" cx="931.984" cy="217.336" r="21.3333"/>
<circle fill="#a64b00" stroke="#a64b00" stroke-width="0" cx="877.815" cy="429.062" r="21.3333"/>
<circle fill="#a64b00" stroke="#a64b00" stroke-width="0" cx="233.528" cy="202.719" r="21.3333"/>
</svg>
