<?xml version="1.0" encoding="utf-8"?> <!-- Generator: Adobe Illustrator 13.0.0, SVG Export Plug-In . SVG Version: 6.00 Build 14948)  --> <svg version="1.2" baseProfile="tiny" id="Layer_1" xmlns="http://www.w3.org/2000/svg" xmlns:xlink="http://www.w3.org/1999/xlink" x="0px" y="0px" width="512px" height="512px" viewBox="0 0 512 512" xml:space="preserve">
<polygon points="0,0 512,0 512,512 0,512" style="fill:#ffffff; stroke:#000000;stroke-width:0"/>
<polygon points="-144.172,223.42 -135.475,265.191 -333.262,306.37 -341.958,264.599" style="fill:#006363; stroke:#000000;stroke-width:0"/>
<circle fill="#006363" stroke="#006363" stroke-width="0" cx="-139.823" cy="244.306" r="21.3333"/>
<circle fill="#006363" stroke="#006363" stroke-width="0" cx="-337.61" cy="285.485" r="21.3333"/>
<polygon points="751.586,455.733 722.429,424.584 882.319,274.919 911.476,306.068" style="fill:#006363; stroke:#000000;stroke-width:0"/>
<circle fill="#006363" stroke="#006363" stroke-width="0" cx="737.008" cy="440.159" r="21.3333"/>
<circle fill="#006363" stroke="#006363" stroke-width="0" cx="896.898" cy="290.494" r="21.3333"/>
<polygon points="1256,469.333 256,1469.33 -744,469.333" style="fill:#000000; stroke:#000000;stroke-width:0"/>
<polygon points="-744,42.6667 256,-957.333 1256,42.6667" style="fill:#000000; stroke:#000000;stroke-width:0"/>
<circle fill="#a64b00" stroke="#a64b00" stroke-width="0" cx="-139.823" cy="244.306" r="21.3333"/>
<circle fill="#a64b00" stroke="#a64b00" stroke-width="0" cx="-337.61" cy="285.485" r="21.3333"/>
<circle fill="#a64b00" stroke="#a64b00" stroke-width="0" cx="737.008" cy="440.159" r="21.3333"/>
<circle fill="#a64b00" stroke="#a64b00" stroke-width="0" cx="896.898" cy="290.494" r="21.3333"/>
<circle fill="#a64b00" stroke="#a64b00" stroke-width="0" cx="-20.5536" cy="68.2121" r="21.3333"/>
</svg>
