<?xml version="1.0" encoding="utf-8"?> <!-- Generator: Adobe Illustrator 13.0.0, SVG Export Plug-In . SVG Version: 6.00 Build 14948)  --> <svg version="1.2" baseProfile="tiny" id="Layer_1" xmlns="http://www.w3.org/2000/svg" xmlns:xlink="http://www.w3.org/1999/xlink" x="0px" y="0px" width="512px" height="512px" viewBox="0 0 512 512" xml:space="preserve">
<polygon points="0,0 512,0 512,512 0,512" style="fill:#ffffff; stroke:#000000;stroke-width:0"/>
<polygon points="-101.602,74.1909 -105.135,116.711 -307.1,99.9286 -303.567,57.4084" style="fill:#006363; stroke:#000000;stroke-width:0"/>
<circle fill="#006363" stroke="#006363" stroke-width="0" cx="-103.368" cy="95.4509" r="21.3333"/>
<circle fill="#006363" stroke="#006363" stroke-width="0" cx="-305.334" cy="78.6685" r="21.3333"/>
<polygon points="747.066,363.191 708.56,344.814 803.353,146.195 841.859,164.573" style="fill:#006363; stroke:#000000;stroke-width:0"/>
<circle fill="#006363" stroke="#006363" stroke-width="0" cx="727.813" cy="354.003" r="21.3333"/>
<circle fill="#006363" stroke="#006363" stroke-width="0" cx="822.606" cy="155.384" r="21.3333"/>
<polygon points="1256,469.333 256,1469.33 -744,469.333" style="fill:#000000; stroke:#000000;stroke-width:0"/>
<polygon points="-744,42.6667 256,-957.333 1256,42.6667" style="fill:#000000; stroke:#000000;stroke-width:0"/>
<circle fill="#a64b00" stroke="#a64b00" stroke-width="0" cx="-103.368" cy="95.4509" r="21.3333"/>
<circle fill="#a64b00" stroke="#a64b00" stroke-width="0" cx="-305.334" cy="78.6685" r="21.3333"/>
<circle fill="#a64b00" stroke="#a64b00" stroke-width="0" cx="727.813" cy="354.003" r="21.3333"/>
<circle fill="#a64b00" stroke="#a64b00" stroke-width="0" cx="822.606" cy="155.384" r="21.3333"/>
<circle fill="#a64b00" stroke="#a64b00" stroke-width="0" cx="57.5934" cy="363.968" r="21.3333"/>
</svg>
