<?xml version="1.0" encoding="utf-8"?> <!-- Generator: Adobe Illustrator 13.0.0, SVG Export Plug-In . SVG Version: 6.00 Build 14948)  --> <svg version="1.2" baseProfile="tiny" id="Layer_1" xmlns="http://www.w3.org/2000/svg" xmlns:xlink="http://www.w3.org/1999/xlink" x="0px" y="0px" width="512px" height="512px" viewBox="0 0 512 512" xml:space="preserve">
<polygon points="0,0 512,0 512,512 0,512" style="fill:#ffffff; stroke:#000000;stroke-width:0"/>
<polygon points="-8.21509,117.853 34.1611,112.883 59.0163,324.814 16.64,329.784" style="fill:#006363; stroke:#000000;stroke-width:0"/>
<circle fill="#006363" stroke="#006363" stroke-width="0" cx="12.973" cy="115.368" r="21.3333"/>
<circle fill="#006363" stroke="#006363" stroke-width="0" cx="37.8282" cy="327.299" r="21.3333"/>
<polygon points="454.777,200.358 496.763,192.77 534.392,400.994 492.406,408.582" style="fill:#006363; stroke:#000000;stroke-width:0"/>
<circle fill="#006363" stroke="#006363" stroke-width="0" cx="475.77" cy="196.564" r="21.3333"/>
<circle fill="#006363" stroke="#006363" stroke-width="0" cx="513.399" cy="404.788" r="21.3333"/>
<polygon points="1256,469.333 256,1469.33 -744,469.333" style="fill:#000000; stroke:#000000;stroke-width:0"/>
<polygon points="-744,42.6667 256,-957.333 1256,42.6667" style="fill:#000000; stroke:#000000;stroke-width:0"/>
<circle fill="#a64b00" stroke="#a64b00" stroke-width="0" cx="12.973" cy="115.368" r="21.3333"/>
<circle fill="#a64b00" stroke="#a64b00" stroke-width="0" cx="37.8282" cy="327.299" r="21.3333"/>
<circle fill="#a64b00" stroke="#a64b00" stroke-width="0" cx="475.77" cy="196.564" r="21.3333"/>
<circle fill="#a64b00" stroke="#a64b00" stroke-width="0" cx="513.399" cy="404.788" r="21.3333"/>
<circle fill="#a64b00" stroke="#a64b00" stroke-width="0" cx="461.653" cy="436.79" r="21.3333"/>
</svg>
