<?xml version="1.0" encoding="utf-8"?> <!-- Generator: Adobe Illustrator 13.0.0, SVG Export Plug-In . SVG Version: 6.00 Build 14948)  --> <svg version="1.2" baseProfile="tiny" id="Layer_1" xmlns="http://www.w3.org/2000/svg" xmlns:xlink="http://www.w3.org/1999/xlink" x="0px" y="0px" width="512px" height="512px" viewBox="0 0 512 512" xml:space="preserve">
<polygon points="0,0 512,0 512,512 0,512" style="fill:#ffffff; stroke:#000000;stroke-width:0"/>
<polygon points="-119.615,209.757 -80.7286,192.199 9.44846,391.928 -29.4384,409.485" style="fill:#006363; stroke:#000000;stroke-width:0"/>
<circle fill="#006363" stroke="#006363" stroke-width="0" cx="-100.172" cy="200.978" r="21.3333"/>
<circle fill="#006363" stroke="#006363" stroke-width="0" cx="-9.99494" cy="400.706" r="21.3333"/>
<polygon points="686.643,293.215 657.038,323.939 501.154,173.732 530.759,143.008" style="fill:#006363; stroke:#000000;stroke-width:0"/>
<circle fill="#006363" stroke="#006363" stroke-width="0" cx="671.84" cy="308.577" r="21.3333"/>
<circle fill="#006363" stroke="#006363" stroke-width="0" cx="515.956" cy="158.37" r="21.3333"/>
<polygon points="1256,469.333 256,1469.33 -744,469.333" style="fill:#000000; stroke:#000000;stroke-width:0"/>
<polygon points="-744,42.6667 256,-957.333 1256,42.6667" style="fill:#000000; stroke:#000000;stroke-width:0"/>
<circle fill="#a64b00" stroke="#a64b00" stroke-width="0" cx="-100.172" cy="200.978" r="21.3333"/>
<circle fill="#a64b00" stroke="#a64b00" stroke-width="0" cx="-9.99494" cy="400.706" r="21.3333"/>
<circle fill="#a64b00" stroke="#a64b00" stroke-width="0" cx="671.84" cy="308.577" r="21.3333"/>
<circle fill="#a64b00" stroke="#a64b00" stroke-width="0" cx="515.956" cy="158.37" r="21.3333"/>
<circle fill="#a64b00" stroke="#a64b00" stroke-width="0" cx="397.026" cy="411.671" r="21.3333"/>
</svg>
