<?xml version="1.0" encoding="utf-8"?> <!-- Generator: Adobe Illustrator 13.0.0, SVG Export Plug-In . SVG Version: 6.00 Build 14948)  --> <svg version="1.2" baseProfile="tiny" id="Layer_1" xmlns="http://www.w3.org/2000/svg" xmlns:xlink="http://www.w3.org/1999/xlink" x="0px" y="0px" width="512px" height="512px" viewBox="0 0 512 512" xml:space="preserve">
<polygon points="0,0 512,0 512,512 0,512" style="fill:#ffffff; stroke:#000000;stroke-width:0"/>
<polygon points="-144.822,134.757 -125.92,96.5061 67.1847,191.933 48.282,230.184" style="fill:#006363; stroke:#000000;stroke-width:0"/>
<circle fill="#006363" stroke="#006363" stroke-width="0" cx="-135.371" cy="115.632" r="21.3333"/>
<circle fill="#006363" stroke="#006363" stroke-width="0" cx="57.7333" cy="211.059" r="21.3333"/>
<polygon points="592.002,320.387 549.358,319.011 556.282,104.375 598.926,105.751" style="fill:#006363; stroke:#000000;stroke-width:0"/>
<circle fill="#006363" stroke="#006363" stroke-width="0" cx="570.68" cy="319.699" r="21.3333"/>
<circle fill="#006363" stroke="#006363" stroke-width="0" cx="577.604" cy="105.063" r="21.3333"/>
<polygon points="1256,469.333 256,1469.33 -744,469.333" style="fill:#000000; stroke:#000000;stroke-width:0"/>
<polygon points="-744,42.6667 256,-957.333 1256,42.6667" style="fill:#000000; stroke:#000000;stroke-width:0"/>
<circle fill="#a64b00" stroke="#a64b00" stroke-width="0" cx="-135.371" cy="115.632" r="21.3333"/>
<circle fill="#a64b00" stroke="#a64b00" stroke-width="0" cx="57.7333" cy="211.059" r="21.3333"/>
<circle fill="#a64b00" stroke="#a64b00" stroke-width="0" cx="570.68" cy="319.699" r="21.3333"/>
<circle fill="#a64b00" stroke="#a64b00" stroke-width="0" cx="577.604" cy="105.063" r="21.3333"/>
<circle fill="#a64b00" stroke="#a64b00" stroke-width="0" cx="434.011" cy="297.185" r="21.3333"/>
</svg>
