<?xml version="1.0" encoding="utf-8"?> <!-- Generator: Adobe Illustrator 13.0.0, SVG Export Plug-In . SVG Version: 6.00 Build 14948)  --> <svg version="1.2" baseProfile="tiny" id="Layer_1" xmlns="http://www.w3.org/2000/svg" xmlns:xlink="http://www.w3.org/1999/xlink" x="0px" y="0px" width="512px" height="512px" viewBox="0 0 512 512" xml:space="preserve">
<polygon points="0,0 512,0 512,512 0,512" style="fill:#ffffff; stroke:#000000;stroke-width:0"/>
<polygon points="-199.493,407.855 -210.903,366.742 -9.83537,310.943 1.57407,352.056" style="fill:#006363; stroke:#000000;stroke-width:0"/>
<circle fill="#006363" stroke="#006363" stroke-width="0" cx="-205.198" cy="387.298" r="21.3333"/>
<circle fill="#006363" stroke="#006363" stroke-width="0" cx="-4.13065" cy="331.499" r="21.3333"/>
<polygon points="610.831,198.41 652.536,189.401 697.415,397.136 655.71,406.146" style="fill:#006363; stroke:#000000;stroke-width:0"/>
<circle fill="#006363" stroke="#006363" stroke-width="0" cx="631.684" cy="193.906" r="21.3333"/>
<circle fill="#006363" stroke="#006363" stroke-width="0" cx="676.562" cy="401.641" r="21.3333"/>
<polygon points="1256,469.333 256,1469.33 -744,469.333" style="fill:#000000; stroke:#000000;stroke-width:0"/>
<polygon points="-744,42.6667 256,-957.333 1256,42.6667" style="fill:#000000; stroke:#000000;stroke-width:0"/>
<circle fill="#a64b00" stroke="#a64b00" stroke-width="0" cx="-205.198" cy="387.298" r="21.3333"/>
<circle fill="#a64b00" stroke="#a64b00" stroke-width="0" cx="-4.13065" cy="331.499" r="21.3333"/>
<circle fill="#a64b00" stroke="#a64b00" stroke-width="0" cx="631.684" cy="193.906" r="21.3333"/>
<circle fill="#a64b00" stroke="#a64b00" stroke-width="0" cx="676.562" cy="401.641" r="21.3333"/>
<circle fill="#a64b00" stroke="#a64b00" stroke-width="0" cx="284.279" cy="249.482" r="21.3333"/>
</svg>
