<?xml version="1.0" encoding="utf-8"?> <!-- Generator: Adobe Illustrator 13.0.0, SVG Export Plug-In . SVG Version: 6.00 Build 14948)  --> <svg version="1.2" baseProfile="tiny" id="Layer_1" xmlns="http://www.w3.org/2000/svg" xmlns:xlink="http://www.w3.org/1999/xlink" x="0px" y="0px" width="512px" height="512px" viewBox="0 0 512 512" xml:space="preserve">
<polygon points="0,0 512,0 512,512 0,512" style="fill:#ffffff; stroke:#000000;stroke-width:0"/>
<polygon points="-187.076,441.565 -211.581,406.637 -30.1223,279.329 -5.61754,314.256" style="fill:#006363; stroke:#000000;stroke-width:0"/>
<circle fill="#006363" stroke="#006363" stroke-width="0" cx="-199.329" cy="424.101" r="21.3333"/>
<circle fill="#006363" stroke="#006363" stroke-width="0" cx="-17.8699" cy="296.792" r="21.3333"/>
<polygon points="596.995,215.124 636.05,197.944 720.81,390.628 681.755,407.808" style="fill:#006363; stroke:#000000;stroke-width:0"/>
<circle fill="#006363" stroke="#006363" stroke-width="0" cx="616.523" cy="206.534" r="21.3333"/>
<circle fill="#006363" stroke="#006363" stroke-width="0" cx="701.283" cy="399.218" r="21.3333"/>
<polygon points="1256,469.333 256,1469.33 -744,469.333" style="fill:#000000; stroke:#000000;stroke-width:0"/>
<polygon points="-744,42.6667 256,-957.333 1256,42.6667" style="fill:#000000; stroke:#000000;stroke-width:0"/>
<circle fill="#a64b00" stroke="#a64b00" stroke-width="0" cx="-199.329" cy="424.101" r="21.3333"/>
<circle fill="#a64b00" stroke="#a64b00" stroke-width="0" cx="-17.8699" cy="296.792" r="21.3333"/>
<circle fill="#a64b00" stroke="#a64b00" stroke-width="0" cx="616.523" cy="206.534" r="21.3333"/>
<circle fill="#a64b00" stroke="#a64b00" stroke-width="0" cx="701.283" cy="399.218" r="21.3333"/>
<circle fill="#a64b00" stroke="#a64b00" stroke-width="0" cx="275.331" cy="106.374" r="21.3333"/>
</svg>
