<?xml version="1.0" encoding="utf-8"?> <!-- Generator: Adobe Illustrator 13.0.0, SVG Export Plug-In . SVG Version: 6.00 Build 14948)  --> <svg version="1.2" baseProfile="tiny" id="Layer_1" xmlns="http://www.w3.org/2000/svg" xmlns:xlink="http://www.w3.org/1999/xlink" x="0px" y="0px" width="512px" height="512px" viewBox="0 0 512 512" xml:space="preserve">
<polygon points="0,0 512,0 512,512 0,512" style="fill:#ffffff; stroke:#000000;stroke-width:0"/>
<polygon points="-3.79894,106.748 38.6553,102.496 59.416,309.779 16.9618,314.031" style="fill:#006363; stroke:#000000;stroke-width:0"/>
<circle fill="#006363" stroke="#006363" stroke-width="0" cx="17.4282" cy="104.622" r="21.3333"/>
<circle fill="#006363" stroke="#006363" stroke-width="0" cx="38.1889" cy="311.905" r="21.3333"/>
<polygon points="456.2,216.573 498.478,210.828 527.385,423.557 485.107,429.302" style="fill:#006363; stroke:#000000;stroke-width:0"/>
<circle fill="#006363" stroke="#006363" stroke-width="0" cx="477.339" cy="213.7" r="21.3333"/>
<circle fill="#006363" stroke="#006363" stroke-width="0" cx="506.246" cy="426.43" r="21.3333"/>
<polygon points="1256,469.333 256,1469.33 -744,469.333" style="fill:#000000; stroke:#000000;stroke-width:0"/>
<polygon points="-744,42.6667 256,-957.333 1256,42.6667" style="fill:#000000; stroke:#000000;stroke-width:0"/>
<circle fill="#a64b00" stroke="#a64b00" stroke-width="0" cx="17.4282" cy="104.622" r="21.3333"/>
<circle fill="#a64b00" stroke="#a64b00" stroke-width="0" cx="38.1889" cy="311.905" r="21.3333"/>
<circle fill="#a64b00" stroke="#a64b00" stroke-width="0" cx="477.339" cy="213.7" r="21.3333"/>
<circle fill="#a64b00" stroke="#a64b00" stroke-width="0" cx="506.246" cy="426.43" r="21.3333"/>
<circle fill="#a64b00" stroke="#a64b00" stroke-width="0" cx="410.484" cy="405.657" r="21.3333"/>
</svg>
