<?xml version="1.0" encoding="utf-8"?> <!-- Generator: Adobe Illustrator 13.0.0, SVG Export Plug-In . SVG Version: 6.00 Build 14948)  --> <svg version="1.2" baseProfile="tiny" id="Layer_1" xmlns="http://www.w3.org/2000/svg" xmlns:xlink="http://www.w3.org/1999/xlink" x="0px" y="0px" width="512px" height="512px" viewBox="0 0 512 512" xml:space="preserve">
<polygon points="0,0 512,0 512,512 0,512" style="fill:#ffffff; stroke:#000000;stroke-width:0"/>
<polygon points="-39.4561,228.779 1.91025,218.326 52.5325,418.65 11.1662,429.103" style="fill:#006363; stroke:#000000;stroke-width:0"/>
<circle fill="#006363" stroke="#006363" stroke-width="0" cx="-18.7729" cy="223.553" r="21.3333"/>
<circle fill="#006363" stroke="#006363" stroke-width="0" cx="31.8494" cy="423.877" r="21.3333"/>
<polygon points="441.421,80.1536 476.684,56.1343 597.764,233.896 562.501,257.915" style="fill:#006363; stroke:#000000;stroke-width:0"/>
<circle fill="#006363" stroke="#006363" stroke-width="0" cx="459.053" cy="68.144" r="21.3333"/>
<circle fill="#006363" stroke="#006363" stroke-width="0" cx="580.133" cy="245.905" r="21.3333"/>
<polygon points="1256,469.333 256,1469.33 -744,469.333" style="fill:#000000; stroke:#000000;stroke-width:0"/>
<polygon points="-744,42.6667 256,-957.333 1256,42.6667" style="fill:#000000; stroke:#000000;stroke-width:0"/>
<circle fill="#a64b00" stroke="#a64b00" stroke-width="0" cx="-18.7729" cy="223.553" r="21.3333"/>
<circle fill="#a64b00" stroke="#a64b00" stroke-width="0" cx="31.8494" cy="423.877" r="21.3333"/>
<circle fill="#a64b00" stroke="#a64b00" stroke-width="0" cx="459.053" cy="68.144" r="21.3333"/>
<circle fill="#a64b00" stroke="#a64b00" stroke-width="0" cx="580.133" cy="245.905" r="21.3333"/>
<circle fill="#a64b00" stroke="#a64b00" stroke-width="0" cx="235.154" cy="405.748" r="21.3333"/>
</svg>
