<?xml version="1.0" encoding="utf-8"?> <!-- Generator: Adobe Illustrator 13.0.0, SVG Export Plug-In . SVG Version: 6.00 Build 14948)  --> <svg version="1.2" baseProfile="tiny" id="Layer_1" xmlns="http://www.w3.org/2000/svg" xmlns:xlink="http://www.w3.org/1999/xlink" x="0px" y="0px" width="512px" height="512px" viewBox="0 0 512 512" xml:space="preserve">
<polygon points="0,0 512,0 512,512 0,512" style="fill:#ffffff; stroke:#000000;stroke-width:0"/>
<polygon points="-72.7272,281.84 -50.7505,318.411 -238.387,431.167 -260.363,394.596" style="fill:#006363; stroke:#000000;stroke-width:0"/>
<circle fill="#006363" stroke="#006363" stroke-width="0" cx="-61.7388" cy="300.126" r="21.3333"/>
<circle fill="#006363" stroke="#006363" stroke-width="0" cx="-249.375" cy="412.881" r="21.3333"/>
<polygon points="683.024,427.821 645.758,407.044 748.858,222.124 786.124,242.901" style="fill:#006363; stroke:#000000;stroke-width:0"/>
<circle fill="#006363" stroke="#006363" stroke-width="0" cx="664.391" cy="417.433" r="21.3333"/>
<circle fill="#006363" stroke="#006363" stroke-width="0" cx="767.491" cy="232.513" r="21.3333"/>
<polygon points="1256,469.333 256,1469.33 -744,469.333" style="fill:#000000; stroke:#000000;stroke-width:0"/>
<polygon points="-744,42.6667 256,-957.333 1256,42.6667" style="fill:#000000; stroke:#000000;stroke-width:0"/>
<circle fill="#a64b00" stroke="#a64b00" stroke-width="0" cx="-61.7388" cy="300.126" r="21.3333"/>
<circle fill="#a64b00" stroke="#a64b00" stroke-width="0" cx="-249.375" cy="412.881" r="21.3333"/>
<circle fill="#a64b00" stroke="#a64b00" stroke-width="0" cx="664.391" cy="417.433" r="21.3333"/>
<circle fill="#a64b00" stroke="#a64b00" stroke-width="0" cx="767.491" cy="232.513" r="21.3333"/>
<circle fill="#a64b00" stroke="#a64b00" stroke-width="0" cx="168.55" cy="154.077" r="21.3333"/>
</svg>
