<?xml version="1.0" encoding="utf-8"?> <!-- Generator: Adobe Illustrator 13.0.0, SVG Export Plug-In . SVG Version: 6.00 Build 14948)  --> <svg version="1.2" baseProfile="tiny" id="Layer_1" xmlns="http://www.w3.org/2000/svg" xmlns:xlink="http://www.w3.org/1999/xlink" x="0px" y="0px" width="512px" height="512px" viewBox="0 0 512 512" xml:space="preserve">
<polygon points="0,0 512,0 512,512 0,512" style="fill:#ffffff; stroke:#000000;stroke-width:0"/>
<polygon points="-54.4156,398.283 -62.2968,440.215 -268.241,401.508 -260.36,359.576" style="fill:#006363; stroke:#000000;stroke-width:0"/>
<circle fill="#006363" stroke="#006363" stroke-width="0" cx="-58.3562" cy="419.249" r="21.3333"/>
<circle fill="#006363" stroke="#006363" stroke-width="0" cx="-264.3" cy="380.542" r="21.3333"/>
<polygon points="696.375,394.083 657.771,375.912 749.528,180.977 788.132,199.148" style="fill:#006363; stroke:#000000;stroke-width:0"/>
<circle fill="#006363" stroke="#006363" stroke-width="0" cx="677.073" cy="384.997" r="21.3333"/>
<circle fill="#006363" stroke="#006363" stroke-width="0" cx="768.83" cy="190.062" r="21.3333"/>
<polygon points="1256,469.333 256,1469.33 -744,469.333" style="fill:#000000; stroke:#000000;stroke-width:0"/>
<polygon points="-744,42.6667 256,-957.333 1256,42.6667" style="fill:#000000; stroke:#000000;stroke-width:0"/>
<circle fill="#a64b00" stroke="#a64b00" stroke-width="0" cx="-58.3562" cy="419.249" r="21.3333"/>
<circle fill="#a64b00" stroke="#a64b00" stroke-width="0" cx="-264.3" cy="380.542" r="21.3333"/>
<circle fill="#a64b00" stroke="#a64b00" stroke-width="0" cx="677.073" cy="384.997" r="21.3333"/>
<circle fill="#a64b00" stroke="#a64b00" stroke-width="0" cx="768.83" cy="190.062" r="21.3333"/>
<circle fill="#a64b00" stroke="#a64b00" stroke-width="0" cx="155.426" cy="363.968" r="21.3333"/>
</svg>
