<?xml version="1.0" encoding="utf-8"?> <!-- Generator: Adobe Illustrator 13.0.0, SVG Export Plug-In . SVG Version: 6.00 Build 14948)  --> <svg version="1.2" baseProfile="tiny" id="Layer_1" xmlns="http://www.w3.org/2000/svg" xmlns:xlink="http://www.w3.org/1999/xlink" x="0px" y="0px" width="512px" height="512px" viewBox="0 0 512 512" xml:space="preserve">
<polygon points="0,0 512,0 512,512 0,512" style="fill:#ffffff; stroke:#000000;stroke-width:0"/>
<polygon points="-369.456,231.406 -393.871,196.415 -218.681,74.1774 -194.266,109.168" style="fill:#006363; stroke:#000000;stroke-width:0"/>
<circle fill="#006363" stroke="#006363" stroke-width="0" cx="-381.664" cy="213.911" r="21.3333"/>
<circle fill="#006363" stroke="#006363" stroke-width="0" cx="-206.474" cy="91.6729" r="21.3333"/>
<polygon points="827.982,243.337 867.966,228.445 940.393,422.904 900.41,437.796" style="fill:#006363; stroke:#000000;stroke-width:0"/>
<circle fill="#006363" stroke="#006363" stroke-width="0" cx="847.974" cy="235.891" r="21.3333"/>
<circle fill="#006363" stroke="#006363" stroke-width="0" cx="920.401" cy="430.35" r="21.3333"/>
<polygon points="1256,469.333 256,1469.33 -744,469.333" style="fill:#000000; stroke:#000000;stroke-width:0"/>
<polygon points="-744,42.6667 256,-957.333 1256,42.6667" style="fill:#000000; stroke:#000000;stroke-width:0"/>
<circle fill="#a64b00" stroke="#a64b00" stroke-width="0" cx="-381.664" cy="213.911" r="21.3333"/>
<circle fill="#a64b00" stroke="#a64b00" stroke-width="0" cx="-206.474" cy="91.6729" r="21.3333"/>
<circle fill="#a64b00" stroke="#a64b00" stroke-width="0" cx="847.974" cy="235.891" r="21.3333"/>
<circle fill="#a64b00" stroke="#a64b00" stroke-width="0" cx="920.401" cy="430.35" r="21.3333"/>
<circle fill="#a64b00" stroke="#a64b00" stroke-width="0" cx="-146.424" cy="402.13" r="21.3333"/>
</svg>
