<?xml version="1.0" encoding="utf-8"?> <!-- Generator: Adobe Illustrator 13.0.0, SVG Export Plug-In . SVG Version: 6.00 Build 14948)  --> <svg version="1.2" baseProfile="tiny" id="Layer_1" xmlns="http://www.w3.org/2000/svg" xmlns:xlink="http://www.w3.org/1999/xlink" x="0px" y="0px" width="512px" height="512px" viewBox="0 0 512 512" xml:space="preserve">
<polygon points="0,0 512,0 512,512 0,512" style="fill:#ffffff; stroke:#000000;stroke-width:0"/>
<polygon points="-129.84,185.769 -95.7648,160.092 30.1662,327.207 -3.90883,352.885" style="fill:#006363; stroke:#000000;stroke-width:0"/>
<circle fill="#006363" stroke="#006363" stroke-width="0" cx="-112.802" cy="172.931" r="21.3333"/>
<circle fill="#006363" stroke="#006363" stroke-width="0" cx="13.1287" cy="340.046" r="21.3333"/>
<polygon points="659.762,306.84 623.044,328.571 515.289,146.499 552.007,124.768" style="fill:#006363; stroke:#000000;stroke-width:0"/>
<circle fill="#006363" stroke="#006363" stroke-width="0" cx="641.403" cy="317.706" r="21.3333"/>
<circle fill="#006363" stroke="#006363" stroke-width="0" cx="533.648" cy="135.633" r="21.3333"/>
<polygon points="1256,469.333 256,1469.33 -744,469.333" style="fill:#000000; stroke:#000000;stroke-width:0"/>
<polygon points="-744,42.6667 256,-957.333 1256,42.6667" style="fill:#000000; stroke:#000000;stroke-width:0"/>
<circle fill="#a64b00" stroke="#a64b00" stroke-width="0" cx="-112.802" cy="172.931" r="21.3333"/>
<circle fill="#a64b00" stroke="#a64b00" stroke-width="0" cx="13.1287" cy="340.046" r="21.3333"/>
<circle fill="#a64b00" stroke="#a64b00" stroke-width="0" cx="641.403" cy="317.706" r="21.3333"/>
<circle fill="#a64b00" stroke="#a64b00" stroke-width="0" cx="533.648" cy="135.633" r="21.3333"/>
<circle fill="#a64b00" stroke="#a64b00" stroke-width="0" cx="408.957" cy="220.861" r="21.3333"/>
</svg>
