<?xml version="1.0" encoding="utf-8"?> <!-- Generator: Adobe Illustrator 13.0.0, SVG Export Plug-In . SVG Version: 6.00 Build 14948)  --> <svg version="1.2" baseProfile="tiny" id="Layer_1" xmlns="http://www.w3.org/2000/svg" xmlns:xlink="http://www.w3.org/1999/xlink" x="0px" y="0px" width="512px" height="512px" viewBox="0 0 512 512" xml:space="preserve">
<polygon points="0,0 512,0 512,512 0,512" style="fill:#ffffff; stroke:#000000;stroke-width:0"/>
<polygon points="-30.5129,186.263 11.2662,177.606 56.0305,393.638 14.2513,402.295" style="fill:#006363; stroke:#000000;stroke-width:0"/>
<circle fill="#006363" stroke="#006363" stroke-width="0" cx="-9.62334" cy="181.934" r="21.3333"/>
<circle fill="#006363" stroke="#006363" stroke-width="0" cx="35.1409" cy="397.967" r="21.3333"/>
<polygon points="447.588,109.981 486.388,92.2317 575.102,286.159 536.303,303.908" style="fill:#006363; stroke:#000000;stroke-width:0"/>
<circle fill="#006363" stroke="#006363" stroke-width="0" cx="466.988" cy="101.106" r="21.3333"/>
<circle fill="#006363" stroke="#006363" stroke-width="0" cx="555.702" cy="295.033" r="21.3333"/>
<polygon points="1256,469.333 256,1469.33 -744,469.333" style="fill:#000000; stroke:#000000;stroke-width:0"/>
<polygon points="-744,42.6667 256,-957.333 1256,42.6667" style="fill:#000000; stroke:#000000;stroke-width:0"/>
<circle fill="#a64b00" stroke="#a64b00" stroke-width="0" cx="-9.62334" cy="181.934" r="21.3333"/>
<circle fill="#a64b00" stroke="#a64b00" stroke-width="0" cx="35.1409" cy="397.967" r="21.3333"/>
<circle fill="#a64b00" stroke="#a64b00" stroke-width="0" cx="466.988" cy="101.106" r="21.3333"/>
<circle fill="#a64b00" stroke="#a64b00" stroke-width="0" cx="555.702" cy="295.033" r="21.3333"/>
<circle fill="#a64b00" stroke="#a64b00" stroke-width="0" cx="309.851" cy="165.173" r="21.3333"/>
</svg>
