<?xml version="1.0" encoding="utf-8"?> <!-- Generator: Adobe Illustrator 13.0.0, SVG Export Plug-In . SVG Version: 6.00 Build 14948)  --> <svg version="1.2" baseProfile="tiny" id="Layer_1" xmlns="http://www.w3.org/2000/svg" xmlns:xlink="http://www.w3.org/1999/xlink" x="0px" y="0px" width="512px" height="512px" viewBox="0 0 512 512" xml:space="preserve">
<polygon points="0,0 512,0 512,512 0,512" style="fill:#ffffff; stroke:#000000;stroke-width:0"/>
<polygon points="-168.801,259.892 -204.152,236.001 -83.0253,56.7781 -47.675,80.6694" style="fill:#006363; stroke:#000000;stroke-width:0"/>
<circle fill="#006363" stroke="#006363" stroke-width="0" cx="-186.477" cy="247.946" r="21.3333"/>
<circle fill="#006363" stroke="#006363" stroke-width="0" cx="-65.3502" cy="68.7238" r="21.3333"/>
<polygon points="569.851,317.476 581.057,276.307 790.016,333.184 778.81,374.353" style="fill:#006363; stroke:#000000;stroke-width:0"/>
<circle fill="#006363" stroke="#006363" stroke-width="0" cx="575.454" cy="296.892" r="21.3333"/>
<circle fill="#006363" stroke="#006363" stroke-width="0" cx="784.413" cy="353.769" r="21.3333"/>
<polygon points="1256,469.333 256,1469.33 -744,469.333" style="fill:#000000; stroke:#000000;stroke-width:0"/>
<polygon points="-744,42.6667 256,-957.333 1256,42.6667" style="fill:#000000; stroke:#000000;stroke-width:0"/>
<circle fill="#a64b00" stroke="#a64b00" stroke-width="0" cx="-186.477" cy="247.946" r="21.3333"/>
<circle fill="#a64b00" stroke="#a64b00" stroke-width="0" cx="-65.3502" cy="68.7238" r="21.3333"/>
<circle fill="#a64b00" stroke="#a64b00" stroke-width="0" cx="575.454" cy="296.892" r="21.3333"/>
<circle fill="#a64b00" stroke="#a64b00" stroke-width="0" cx="784.413" cy="353.769" r="21.3333"/>
<circle fill="#a64b00" stroke="#a64b00" stroke-width="0" cx="235.959" cy="259.023" r="21.3333"/>
</svg>
