<?xml version="1.0" encoding="utf-8"?> <!-- Generator: Adobe Illustrator 13.0.0, SVG Export Plug-In . SVG Version: 6.00 Build 14948)  --> <svg version="1.2" baseProfile="tiny" id="Layer_1" xmlns="http://www.w3.org/2000/svg" xmlns:xlink="http://www.w3.org/1999/xlink" x="0px" y="0px" width="512px" height="512px" viewBox="0 0 512 512" xml:space="preserve">
<polygon points="0,0 512,0 512,512 0,512" style="fill:#ffffff; stroke:#000000;stroke-width:0"/>
<polygon points="-144.975,201.405 -103.52,211.5 -153.547,416.929 -195.002,406.834" style="fill:#006363; stroke:#000000;stroke-width:0"/>
<circle fill="#006363" stroke="#006363" stroke-width="0" cx="-124.248" cy="206.452" r="21.3333"/>
<circle fill="#006363" stroke="#006363" stroke-width="0" cx="-174.274" cy="411.882" r="21.3333"/>
<polygon points="662.178,453.952 627.858,428.602 754.409,257.266 788.729,282.615" style="fill:#006363; stroke:#000000;stroke-width:0"/>
<circle fill="#006363" stroke="#006363" stroke-width="0" cx="645.018" cy="441.277" r="21.3333"/>
<circle fill="#006363" stroke="#006363" stroke-width="0" cx="771.569" cy="269.94" r="21.3333"/>
<polygon points="1256,469.333 256,1469.33 -744,469.333" style="fill:#000000; stroke:#000000;stroke-width:0"/>
<polygon points="-744,42.6667 256,-957.333 1256,42.6667" style="fill:#000000; stroke:#000000;stroke-width:0"/>
<circle fill="#a64b00" stroke="#a64b00" stroke-width="0" cx="-124.248" cy="206.452" r="21.3333"/>
<circle fill="#a64b00" stroke="#a64b00" stroke-width="0" cx="-174.274" cy="411.882" r="21.3333"/>
<circle fill="#a64b00" stroke="#a64b00" stroke-width="0" cx="645.018" cy="441.277" r="21.3333"/>
<circle fill="#a64b00" stroke="#a64b00" stroke-width="0" cx="771.569" cy="269.94" r="21.3333"/>
<circle fill="#a64b00" stroke="#a64b00" stroke-width="0" cx="182.867" cy="192.239" r="21.3333"/>
</svg>
