<?xml version="1.0" encoding="utf-8"?> <!-- Generator: Adobe Illustrator 13.0.0, SVG Export Plug-In . SVG Version: 6.00 Build 14948)  --> <svg version="1.2" baseProfile="tiny" id="Layer_1" xmlns="http://www.w3.org/2000/svg" xmlns:xlink="http://www.w3.org/1999/xlink" x="0px" y="0px" width="512px" height="512px" viewBox="0 0 512 512" xml:space="preserve">
<polygon points="0,0 512,0 512,512 0,512" style="fill:#ffffff; stroke:#000000;stroke-width:0"/>
<polygon points="-156.569,447.859 -191.434,423.265 -70.0738,251.228 -35.2091,275.823" style="fill:#006363; stroke:#000000;stroke-width:0"/>
<circle fill="#006363" stroke="#006363" stroke-width="0" cx="-174.001" cy="435.562" r="21.3333"/>
<circle fill="#006363" stroke="#006363" stroke-width="0" cx="-52.6414" cy="263.525" r="21.3333"/>
<polygon points="583.517,238.844 617.288,212.769 745.76,379.156 711.989,405.232" style="fill:#006363; stroke:#000000;stroke-width:0"/>
<circle fill="#006363" stroke="#006363" stroke-width="0" cx="600.402" cy="225.806" r="21.3333"/>
<circle fill="#006363" stroke="#006363" stroke-width="0" cx="728.874" cy="392.194" r="21.3333"/>
<polygon points="1256,469.333 256,1469.33 -744,469.333" style="fill:#000000; stroke:#000000;stroke-width:0"/>
<polygon points="-744,42.6667 256,-957.333 1256,42.6667" style="fill:#000000; stroke:#000000;stroke-width:0"/>
<circle fill="#a64b00" stroke="#a64b00" stroke-width="0" cx="-174.001" cy="435.562" r="21.3333"/>
<circle fill="#a64b00" stroke="#a64b00" stroke-width="0" cx="-52.6414" cy="263.525" r="21.3333"/>
<circle fill="#a64b00" stroke="#a64b00" stroke-width="0" cx="600.402" cy="225.806" r="21.3333"/>
<circle fill="#a64b00" stroke="#a64b00" stroke-width="0" cx="728.874" cy="392.194" r="21.3333"/>
<circle fill="#a64b00" stroke="#a64b00" stroke-width="0" cx="264.593" cy="182.698" r="21.3333"/>
</svg>
