<?xml version="1.0" encoding="utf-8"?> <!-- Generator: Adobe Illustrator 13.0.0, SVG Export Plug-In . SVG Version: 6.00 Build 14948)  --> <svg version="1.2" baseProfile="tiny" id="Layer_1" xmlns="http://www.w3.org/2000/svg" xmlns:xlink="http://www.w3.org/1999/xlink" x="0px" y="0px" width="512px" height="512px" viewBox="0 0 512 512" xml:space="preserve">
<polygon points="0,0 512,0 512,512 0,512" style="fill:#ffffff; stroke:#000000;stroke-width:0"/>
<polygon points="-61.1249,323.183 -68.5734,365.195 -282.518,327.263 -275.07,285.251" style="fill:#006363; stroke:#000000;stroke-width:0"/>
<circle fill="#006363" stroke="#006363" stroke-width="0" cx="-64.8492" cy="344.189" r="21.3333"/>
<circle fill="#006363" stroke="#006363" stroke-width="0" cx="-278.794" cy="306.257" r="21.3333"/>
<polygon points="723.356,325.994 682.796,312.753 748.038,112.909 788.598,126.151" style="fill:#006363; stroke:#000000;stroke-width:0"/>
<circle fill="#006363" stroke="#006363" stroke-width="0" cx="703.076" cy="319.373" r="21.3333"/>
<circle fill="#006363" stroke="#006363" stroke-width="0" cx="768.318" cy="119.53" r="21.3333"/>
<polygon points="1256,469.333 256,1469.33 -744,469.333" style="fill:#000000; stroke:#000000;stroke-width:0"/>
<polygon points="-744,42.6667 256,-957.333 1256,42.6667" style="fill:#000000; stroke:#000000;stroke-width:0"/>
<circle fill="#a64b00" stroke="#a64b00" stroke-width="0" cx="-64.8492" cy="344.189" r="21.3333"/>
<circle fill="#a64b00" stroke="#a64b00" stroke-width="0" cx="-278.794" cy="306.257" r="21.3333"/>
<circle fill="#a64b00" stroke="#a64b00" stroke-width="0" cx="703.076" cy="319.373" r="21.3333"/>
<circle fill="#a64b00" stroke="#a64b00" stroke-width="0" cx="768.318" cy="119.53" r="21.3333"/>
<circle fill="#a64b00" stroke="#a64b00" stroke-width="0" cx="131.565" cy="154.077" r="21.3333"/>
</svg>
