<?xml version="1.0" encoding="utf-8"?> <!-- Generator: Adobe Illustrator 13.0.0, SVG Export Plug-In . SVG Version: 6.00 Build 14948)  --> <svg version="1.2" baseProfile="tiny" id="Layer_1" xmlns="http://www.w3.org/2000/svg" xmlns:xlink="http://www.w3.org/1999/xlink" x="0px" y="0px" width="512px" height="512px" viewBox="0 0 512 512" xml:space="preserve">
<polygon points="0,0 512,0 512,512 0,512" style="fill:#ffffff; stroke:#000000;stroke-width:0"/>
<polygon points="-4.45573,109.448 37.9858,105.071 59.2702,311.435 16.8287,315.813" style="fill:#006363; stroke:#000000;stroke-width:0"/>
<circle fill="#006363" stroke="#006363" stroke-width="0" cx="16.765" cy="107.259" r="21.3333"/>
<circle fill="#006363" stroke="#006363" stroke-width="0" cx="38.0494" cy="313.624" r="21.3333"/>
<polygon points="456.079,214.748 498.317,208.715 528.341,418.957 486.103,424.989" style="fill:#006363; stroke:#000000;stroke-width:0"/>
<circle fill="#006363" stroke="#006363" stroke-width="0" cx="477.198" cy="211.731" r="21.3333"/>
<circle fill="#006363" stroke="#006363" stroke-width="0" cx="507.222" cy="421.973" r="21.3333"/>
<polygon points="1256,469.333 256,1469.33 -744,469.333" style="fill:#000000; stroke:#000000;stroke-width:0"/>
<polygon points="-744,42.6667 256,-957.333 1256,42.6667" style="fill:#000000; stroke:#000000;stroke-width:0"/>
<circle fill="#a64b00" stroke="#a64b00" stroke-width="0" cx="16.765" cy="107.259" r="21.3333"/>
<circle fill="#a64b00" stroke="#a64b00" stroke-width="0" cx="38.0494" cy="313.624" r="21.3333"/>
<circle fill="#a64b00" stroke="#a64b00" stroke-width="0" cx="477.198" cy="211.731" r="21.3333"/>
<circle fill="#a64b00" stroke="#a64b00" stroke-width="0" cx="507.222" cy="421.973" r="21.3333"/>
<circle fill="#a64b00" stroke="#a64b00" stroke-width="0" cx="428.546" cy="412.335" r="21.3333"/>
</svg>
