<?xml version="1.0" encoding="utf-8"?> <!-- Generator: Adobe Illustrator 13.0.0, SVG Export Plug-In . SVG Version: 6.00 Build 14948)  --> <svg version="1.2" baseProfile="tiny" id="Layer_1" xmlns="http://www.w3.org/2000/svg" xmlns:xlink="http://www.w3.org/1999/xlink" x="0px" y="0px" width="512px" height="512px" viewBox="0 0 512 512" xml:space="preserve">
<polygon points="0,0 512,0 512,512 0,512" style="fill:#ffffff; stroke:#000000;stroke-width:0"/>
<polygon points="-113.029,144.387 -89.7624,108.623 87.8578,224.172 64.5914,259.937" style="fill:#006363; stroke:#000000;stroke-width:0"/>
<circle fill="#006363" stroke="#006363" stroke-width="0" cx="-101.396" cy="126.505" r="21.3333"/>
<circle fill="#006363" stroke="#006363" stroke-width="0" cx="76.2246" cy="242.054" r="21.3333"/>
<polygon points="444.224,223.097 435.57,181.318 643.382,138.274 652.035,180.054" style="fill:#006363; stroke:#000000;stroke-width:0"/>
<circle fill="#006363" stroke="#006363" stroke-width="0" cx="439.897" cy="202.208" r="21.3333"/>
<circle fill="#006363" stroke="#006363" stroke-width="0" cx="647.709" cy="159.164" r="21.3333"/>
<polygon points="1256,469.333 256,1469.33 -744,469.333" style="fill:#000000; stroke:#000000;stroke-width:0"/>
<polygon points="-744,42.6667 256,-957.333 1256,42.6667" style="fill:#000000; stroke:#000000;stroke-width:0"/>
<circle fill="#a64b00" stroke="#a64b00" stroke-width="0" cx="-101.396" cy="126.505" r="21.3333"/>
<circle fill="#a64b00" stroke="#a64b00" stroke-width="0" cx="76.2246" cy="242.054" r="21.3333"/>
<circle fill="#a64b00" stroke="#a64b00" stroke-width="0" cx="439.897" cy="202.208" r="21.3333"/>
<circle fill="#a64b00" stroke="#a64b00" stroke-width="0" cx="647.709" cy="159.164" r="21.3333"/>
<circle fill="#a64b00" stroke="#a64b00" stroke-width="0" cx="188.56" cy="120.75" r="21.3333"/>
</svg>
