<?xml version="1.0" encoding="utf-8"?> <!-- Generator: Adobe Illustrator 13.0.0, SVG Export Plug-In . SVG Version: 6.00 Build 14948)  --> <svg version="1.2" baseProfile="tiny" id="Layer_1" xmlns="http://www.w3.org/2000/svg" xmlns:xlink="http://www.w3.org/1999/xlink" x="0px" y="0px" width="512px" height="512px" viewBox="0 0 512 512" xml:space="preserve">
<polygon points="0,0 512,0 512,512 0,512" style="fill:#ffffff; stroke:#000000;stroke-width:0"/>
<polygon points="-172.245,352.716 -196.703,387.677 -375.493,262.599 -351.035,227.638" style="fill:#006363; stroke:#000000;stroke-width:0"/>
<circle fill="#006363" stroke="#006363" stroke-width="0" cx="-184.474" cy="370.196" r="21.3333"/>
<circle fill="#006363" stroke="#006363" stroke-width="0" cx="-363.264" cy="245.118" r="21.3333"/>
<polygon points="758.951,314.484 779.306,276.986 960.353,375.262 939.998,412.761" style="fill:#006363; stroke:#000000;stroke-width:0"/>
<circle fill="#006363" stroke="#006363" stroke-width="0" cx="769.128" cy="295.735" r="21.3333"/>
<circle fill="#006363" stroke="#006363" stroke-width="0" cx="950.175" cy="394.011" r="21.3333"/>
<polygon points="1256,469.333 256,1469.33 -744,469.333" style="fill:#000000; stroke:#000000;stroke-width:0"/>
<polygon points="-744,42.6667 256,-957.333 1256,42.6667" style="fill:#000000; stroke:#000000;stroke-width:0"/>
<circle fill="#a64b00" stroke="#a64b00" stroke-width="0" cx="-184.474" cy="370.196" r="21.3333"/>
<circle fill="#a64b00" stroke="#a64b00" stroke-width="0" cx="-363.264" cy="245.118" r="21.3333"/>
<circle fill="#a64b00" stroke="#a64b00" stroke-width="0" cx="769.128" cy="295.735" r="21.3333"/>
<circle fill="#a64b00" stroke="#a64b00" stroke-width="0" cx="950.175" cy="394.011" r="21.3333"/>
<circle fill="#a64b00" stroke="#a64b00" stroke-width="0" cx="-100.49" cy="354.428" r="21.3333"/>
</svg>
