<?xml version="1.0" encoding="utf-8"?> <!-- Generator: Adobe Illustrator 13.0.0, SVG Export Plug-In . SVG Version: 6.00 Build 14948)  --> <svg version="1.2" baseProfile="tiny" id="Layer_1" xmlns="http://www.w3.org/2000/svg" xmlns:xlink="http://www.w3.org/1999/xlink" x="0px" y="0px" width="512px" height="512px" viewBox="0 0 512 512" xml:space="preserve">
<polygon points="0,0 512,0 512,512 0,512" style="fill:#ffffff; stroke:#000000;stroke-width:0"/>
<polygon points="-107.742,67.6117 -65.3431,62.8377 -41.2504,276.81 -83.6491,281.584" style="fill:#006363; stroke:#000000;stroke-width:0"/>
<circle fill="#006363" stroke="#006363" stroke-width="0" cx="-86.5424" cy="65.2247" r="21.3333"/>
<circle fill="#006363" stroke="#006363" stroke-width="0" cx="-62.4497" cy="279.197" r="21.3333"/>
<polygon points="714.921,213.78 724.703,255.31 520.036,303.519 510.254,261.988" style="fill:#006363; stroke:#000000;stroke-width:0"/>
<circle fill="#006363" stroke="#006363" stroke-width="0" cx="719.812" cy="234.545" r="21.3333"/>
<circle fill="#006363" stroke="#006363" stroke-width="0" cx="515.145" cy="282.754" r="21.3333"/>
<polygon points="1256,469.333 256,1469.33 -744,469.333" style="fill:#000000; stroke:#000000;stroke-width:0"/>
<polygon points="-744,42.6667 256,-957.333 1256,42.6667" style="fill:#000000; stroke:#000000;stroke-width:0"/>
<circle fill="#a64b00" stroke="#a64b00" stroke-width="0" cx="-86.5424" cy="65.2247" r="21.3333"/>
<circle fill="#a64b00" stroke="#a64b00" stroke-width="0" cx="-62.4497" cy="279.197" r="21.3333"/>
<circle fill="#a64b00" stroke="#a64b00" stroke-width="0" cx="719.812" cy="234.545" r="21.3333"/>
<circle fill="#a64b00" stroke="#a64b00" stroke-width="0" cx="515.145" cy="282.754" r="21.3333"/>
<circle fill="#a64b00" stroke="#a64b00" stroke-width="0" cx="352.882" cy="335.347" r="21.3333"/>
</svg>
