<?xml version="1.0" encoding="utf-8"?> <!-- Generator: Adobe Illustrator 13.0.0, SVG Export Plug-In . SVG Version: 6.00 Build 14948)  --> <svg version="1.2" baseProfile="tiny" id="Layer_1" xmlns="http://www.w3.org/2000/svg" xmlns:xlink="http://www.w3.org/1999/xlink" x="0px" y="0px" width="512px" height="512px" viewBox="0 0 512 512" xml:space="preserve">
<polygon points="0,0 512,0 512,512 0,512" style="fill:#ffffff; stroke:#000000;stroke-width:0"/>
<polygon points="-212.596,380.058 -212.658,337.391 9.5629,337.064 9.62571,379.73" style="fill:#006363; stroke:#000000;stroke-width:0"/>
<circle fill="#006363" stroke="#006363" stroke-width="0" cx="-212.627" cy="358.724" r="21.3333"/>
<circle fill="#006363" stroke="#006363" stroke-width="0" cx="9.5943" cy="358.397" r="21.3333"/>
<polygon points="623.71,188.901 666.323,186.774 676.889,398.48 634.275,400.607" style="fill:#006363; stroke:#000000;stroke-width:0"/>
<circle fill="#006363" stroke="#006363" stroke-width="0" cx="645.016" cy="187.838" r="21.3333"/>
<circle fill="#006363" stroke="#006363" stroke-width="0" cx="655.582" cy="399.544" r="21.3333"/>
<polygon points="1256,469.333 256,1469.33 -744,469.333" style="fill:#000000; stroke:#000000;stroke-width:0"/>
<polygon points="-744,42.6667 256,-957.333 1256,42.6667" style="fill:#000000; stroke:#000000;stroke-width:0"/>
<circle fill="#a64b00" stroke="#a64b00" stroke-width="0" cx="-212.627" cy="358.724" r="21.3333"/>
<circle fill="#a64b00" stroke="#a64b00" stroke-width="0" cx="9.5943" cy="358.397" r="21.3333"/>
<circle fill="#a64b00" stroke="#a64b00" stroke-width="0" cx="645.016" cy="187.838" r="21.3333"/>
<circle fill="#a64b00" stroke="#a64b00" stroke-width="0" cx="655.582" cy="399.544" r="21.3333"/>
<circle fill="#a64b00" stroke="#a64b00" stroke-width="0" cx="291.438" cy="363.968" r="21.3333"/>
</svg>
