<?xml version="1.0" encoding="utf-8"?> <!-- Generator: Adobe Illustrator 13.0.0, SVG Export Plug-In . SVG Version: 6.00 Build 14948)  --> <svg version="1.2" baseProfile="tiny" id="Layer_1" xmlns="http://www.w3.org/2000/svg" xmlns:xlink="http://www.w3.org/1999/xlink" x="0px" y="0px" width="512px" height="512px" viewBox="0 0 512 512" xml:space="preserve">
<polygon points="0,0 512,0 512,512 0,512" style="fill:#ffffff; stroke:#000000;stroke-width:0"/>
<polygon points="-393.718,167.707 -403.743,126.235 -202.289,77.5397 -192.265,119.012" style="fill:#006363; stroke:#000000;stroke-width:0"/>
<circle fill="#006363" stroke="#006363" stroke-width="0" cx="-398.731" cy="146.971" r="21.3333"/>
<circle fill="#006363" stroke="#006363" stroke-width="0" cx="-197.277" cy="98.2759" r="21.3333"/>
<polygon points="844.592,228.516 886.261,219.34 933.342,433.145 891.674,442.321" style="fill:#006363; stroke:#000000;stroke-width:0"/>
<circle fill="#006363" stroke="#006363" stroke-width="0" cx="865.426" cy="223.928" r="21.3333"/>
<circle fill="#006363" stroke="#006363" stroke-width="0" cx="912.508" cy="437.733" r="21.3333"/>
<polygon points="1256,469.333 256,1469.33 -744,469.333" style="fill:#000000; stroke:#000000;stroke-width:0"/>
<polygon points="-744,42.6667 256,-957.333 1256,42.6667" style="fill:#000000; stroke:#000000;stroke-width:0"/>
<circle fill="#a64b00" stroke="#a64b00" stroke-width="0" cx="-398.731" cy="146.971" r="21.3333"/>
<circle fill="#a64b00" stroke="#a64b00" stroke-width="0" cx="-197.277" cy="98.2759" r="21.3333"/>
<circle fill="#a64b00" stroke="#a64b00" stroke-width="0" cx="865.426" cy="223.928" r="21.3333"/>
<circle fill="#a64b00" stroke="#a64b00" stroke-width="0" cx="912.508" cy="437.733" r="21.3333"/>
<circle fill="#a64b00" stroke="#a64b00" stroke-width="0" cx="-155.372" cy="259.023" r="21.3333"/>
</svg>
