<?xml version="1.0" encoding="utf-8"?> <!-- Generator: Adobe Illustrator 13.0.0, SVG Export Plug-In . SVG Version: 6.00 Build 14948)  --> <svg version="1.2" baseProfile="tiny" id="Layer_1" xmlns="http://www.w3.org/2000/svg" xmlns:xlink="http://www.w3.org/1999/xlink" x="0px" y="0px" width="512px" height="512px" viewBox="0 0 512 512" xml:space="preserve">
<polygon points="0,0 512,0 512,512 0,512" style="fill:#ffffff; stroke:#000000;stroke-width:0"/>
<polygon points="20.4329,213.033 63.0993,212.884 63.8534,428.834 21.187,428.983" style="fill:#006363; stroke:#000000;stroke-width:0"/>
<circle fill="#006363" stroke="#006363" stroke-width="0" cx="41.7661" cy="212.958" r="21.3333"/>
<circle fill="#006363" stroke="#006363" stroke-width="0" cx="42.5202" cy="428.909" r="21.3333"/>
<polygon points="450.36,79.7217 493.021,79.0477 496.369,290.927 453.707,291.601" style="fill:#006363; stroke:#000000;stroke-width:0"/>
<circle fill="#006363" stroke="#006363" stroke-width="0" cx="471.691" cy="79.3847" r="21.3333"/>
<circle fill="#006363" stroke="#006363" stroke-width="0" cx="475.038" cy="291.264" r="21.3333"/>
<polygon points="1256,469.333 256,1469.33 -744,469.333" style="fill:#000000; stroke:#000000;stroke-width:0"/>
<polygon points="-744,42.6667 256,-957.333 1256,42.6667" style="fill:#000000; stroke:#000000;stroke-width:0"/>
<circle fill="#a64b00" stroke="#a64b00" stroke-width="0" cx="41.7661" cy="212.958" r="21.3333"/>
<circle fill="#a64b00" stroke="#a64b00" stroke-width="0" cx="42.5202" cy="428.909" r="21.3333"/>
<circle fill="#a64b00" stroke="#a64b00" stroke-width="0" cx="471.691" cy="79.3847" r="21.3333"/>
<circle fill="#a64b00" stroke="#a64b00" stroke-width="0" cx="475.038" cy="291.264" r="21.3333"/>
<circle fill="#a64b00" stroke="#a64b00" stroke-width="0" cx="130.475" cy="256" r="21.3333"/>
</svg>
