<?xml version="1.0" encoding="utf-8"?> <!-- Generator: Adobe Illustrator 13.0.0, SVG Export Plug-In . SVG Version: 6.00 Build 14948)  --> <svg version="1.2" baseProfile="tiny" id="Layer_1" xmlns="http://www.w3.org/2000/svg" xmlns:xlink="http://www.w3.org/1999/xlink" x="0px" y="0px" width="512px" height="512px" viewBox="0 0 512 512" xml:space="preserve">
<polygon points="0,0 512,0 512,512 0,512" style="fill:#ffffff; stroke:#000000;stroke-width:0"/>
<polygon points="-135.605,175.51 -103.034,147.951 38.5552,315.29 5.98345,342.849" style="fill:#006363; stroke:#000000;stroke-width:0"/>
<circle fill="#006363" stroke="#006363" stroke-width="0" cx="-119.32" cy="161.73" r="21.3333"/>
<circle fill="#006363" stroke="#006363" stroke-width="0" cx="22.2693" cy="329.069" r="21.3333"/>
<polygon points="653.592,311.96 615.48,331.14 518.272,137.977 556.385,118.797" style="fill:#006363; stroke:#000000;stroke-width:0"/>
<circle fill="#006363" stroke="#006363" stroke-width="0" cx="634.536" cy="321.55" r="21.3333"/>
<circle fill="#006363" stroke="#006363" stroke-width="0" cx="537.328" cy="128.387" r="21.3333"/>
<polygon points="1256,469.333 256,1469.33 -744,469.333" style="fill:#000000; stroke:#000000;stroke-width:0"/>
<polygon points="-744,42.6667 256,-957.333 1256,42.6667" style="fill:#000000; stroke:#000000;stroke-width:0"/>
<circle fill="#a64b00" stroke="#a64b00" stroke-width="0" cx="-119.32" cy="161.73" r="21.3333"/>
<circle fill="#a64b00" stroke="#a64b00" stroke-width="0" cx="22.2693" cy="329.069" r="21.3333"/>
<circle fill="#a64b00" stroke="#a64b00" stroke-width="0" cx="634.536" cy="321.55" r="21.3333"/>
<circle fill="#a64b00" stroke="#a64b00" stroke-width="0" cx="537.328" cy="128.387" r="21.3333"/>
<circle fill="#a64b00" stroke="#a64b00" stroke-width="0" cx="411.939" cy="173.158" r="21.3333"/>
</svg>
