<?xml version="1.0" encoding="utf-8"?> <!-- Generator: Adobe Illustrator 13.0.0, SVG Export Plug-In . SVG Version: 6.00 Build 14948)  --> <svg version="1.2" baseProfile="tiny" id="Layer_1" xmlns="http://www.w3.org/2000/svg" xmlns:xlink="http://www.w3.org/1999/xlink" x="0px" y="0px" width="512px" height="512px" viewBox="0 0 512 512" xml:space="preserve">
<polygon points="0,0 512,0 512,512 0,512" style="fill:#ffffff; stroke:#000000;stroke-width:0"/>
<polygon points="-103.11,187.376 -60.9453,180.849 -28.0437,393.413 -70.2083,399.94" style="fill:#006363; stroke:#000000;stroke-width:0"/>
<circle fill="#006363" stroke="#006363" stroke-width="0" cx="-82.0276" cy="184.112" r="21.3333"/>
<circle fill="#006363" stroke="#006363" stroke-width="0" cx="-49.126" cy="396.677" r="21.3333"/>
<polygon points="713.956,249.987 704.349,291.558 499.333,244.177 508.94,202.606" style="fill:#006363; stroke:#000000;stroke-width:0"/>
<circle fill="#006363" stroke="#006363" stroke-width="0" cx="709.152" cy="270.772" r="21.3333"/>
<circle fill="#006363" stroke="#006363" stroke-width="0" cx="504.136" cy="223.392" r="21.3333"/>
<polygon points="1256,469.333 256,1469.33 -744,469.333" style="fill:#000000; stroke:#000000;stroke-width:0"/>
<polygon points="-744,42.6667 256,-957.333 1256,42.6667" style="fill:#000000; stroke:#000000;stroke-width:0"/>
<circle fill="#a64b00" stroke="#a64b00" stroke-width="0" cx="-82.0276" cy="184.112" r="21.3333"/>
<circle fill="#a64b00" stroke="#a64b00" stroke-width="0" cx="-49.126" cy="396.677" r="21.3333"/>
<circle fill="#a64b00" stroke="#a64b00" stroke-width="0" cx="709.152" cy="270.772" r="21.3333"/>
<circle fill="#a64b00" stroke="#a64b00" stroke-width="0" cx="504.136" cy="223.392" r="21.3333"/>
<circle fill="#a64b00" stroke="#a64b00" stroke-width="0" cx="373.164" cy="106.374" r="21.3333"/>
</svg>
