<?xml version="1.0" encoding="utf-8"?> <!-- Generator: Adobe Illustrator 13.0.0, SVG Export Plug-In . SVG Version: 6.00 Build 14948)  --> <svg version="1.2" baseProfile="tiny" id="Layer_1" xmlns="http://www.w3.org/2000/svg" xmlns:xlink="http://www.w3.org/1999/xlink" x="0px" y="0px" width="512px" height="512px" viewBox="0 0 512 512" xml:space="preserve">
<polygon points="0,0 512,0 512,512 0,512" style="fill:#ffffff; stroke:#000000;stroke-width:0"/>
<polygon points="-165.447,344.03 -179.511,384.313 -376.52,315.532 -362.456,275.249" style="fill:#006363; stroke:#000000;stroke-width:0"/>
<circle fill="#006363" stroke="#006363" stroke-width="0" cx="-172.479" cy="364.172" r="21.3333"/>
<circle fill="#006363" stroke="#006363" stroke-width="0" cx="-369.488" cy="295.39" r="21.3333"/>
<polygon points="749.814,325.479 766.183,286.077 962.479,367.626 946.11,407.027" style="fill:#006363; stroke:#000000;stroke-width:0"/>
<circle fill="#006363" stroke="#006363" stroke-width="0" cx="757.998" cy="305.778" r="21.3333"/>
<circle fill="#006363" stroke="#006363" stroke-width="0" cx="954.295" cy="387.326" r="21.3333"/>
<polygon points="1256,469.333 256,1469.33 -744,469.333" style="fill:#000000; stroke:#000000;stroke-width:0"/>
<polygon points="-744,42.6667 256,-957.333 1256,42.6667" style="fill:#000000; stroke:#000000;stroke-width:0"/>
<circle fill="#a64b00" stroke="#a64b00" stroke-width="0" cx="-172.479" cy="364.172" r="21.3333"/>
<circle fill="#a64b00" stroke="#a64b00" stroke-width="0" cx="-369.488" cy="295.39" r="21.3333"/>
<circle fill="#a64b00" stroke="#a64b00" stroke-width="0" cx="757.998" cy="305.778" r="21.3333"/>
<circle fill="#a64b00" stroke="#a64b00" stroke-width="0" cx="954.295" cy="387.326" r="21.3333"/>
<circle fill="#a64b00" stroke="#a64b00" stroke-width="0" cx="-93.9283" cy="440.293" r="21.3333"/>
</svg>
