<?xml version="1.0" encoding="utf-8"?> <!-- Generator: Adobe Illustrator 13.0.0, SVG Export Plug-In . SVG Version: 6.00 Build 14948)  --> <svg version="1.2" baseProfile="tiny" id="Layer_1" xmlns="http://www.w3.org/2000/svg" xmlns:xlink="http://www.w3.org/1999/xlink" x="0px" y="0px" width="512px" height="512px" viewBox="0 0 512 512" xml:space="preserve">
<polygon points="0,0 512,0 512,512 0,512" style="fill:#ffffff; stroke:#000000;stroke-width:0"/>
<polygon points="-104.646,116.73 -109.503,159.12 -323.993,134.545 -319.137,92.1561" style="fill:#006363; stroke:#000000;stroke-width:0"/>
<circle fill="#006363" stroke="#006363" stroke-width="0" cx="-107.074" cy="137.925" r="21.3333"/>
<circle fill="#006363" stroke="#006363" stroke-width="0" cx="-321.565" cy="113.351" r="21.3333"/>
<polygon points="752.407,390.271 715.709,368.507 822.229,188.89 858.928,210.654" style="fill:#006363; stroke:#000000;stroke-width:0"/>
<circle fill="#006363" stroke="#006363" stroke-width="0" cx="734.058" cy="379.389" r="21.3333"/>
<circle fill="#006363" stroke="#006363" stroke-width="0" cx="840.579" cy="199.772" r="21.3333"/>
<polygon points="1256,469.333 256,1469.33 -744,469.333" style="fill:#000000; stroke:#000000;stroke-width:0"/>
<polygon points="-744,42.6667 256,-957.333 1256,42.6667" style="fill:#000000; stroke:#000000;stroke-width:0"/>
<circle fill="#a64b00" stroke="#a64b00" stroke-width="0" cx="-107.074" cy="137.925" r="21.3333"/>
<circle fill="#a64b00" stroke="#a64b00" stroke-width="0" cx="-321.565" cy="113.351" r="21.3333"/>
<circle fill="#a64b00" stroke="#a64b00" stroke-width="0" cx="734.058" cy="379.389" r="21.3333"/>
<circle fill="#a64b00" stroke="#a64b00" stroke-width="0" cx="840.579" cy="199.772" r="21.3333"/>
<circle fill="#a64b00" stroke="#a64b00" stroke-width="0" cx="34.9248" cy="173.158" r="21.3333"/>
</svg>
