<?xml version="1.0" encoding="utf-8"?> <!-- Generator: Adobe Illustrator 13.0.0, SVG Export Plug-In . SVG Version: 6.00 Build 14948)  --> <svg version="1.2" baseProfile="tiny" id="Layer_1" xmlns="http://www.w3.org/2000/svg" xmlns:xlink="http://www.w3.org/1999/xlink" x="0px" y="0px" width="512px" height="512px" viewBox="0 0 512 512" xml:space="preserve">
<polygon points="0,0 512,0 512,512 0,512" style="fill:#ffffff; stroke:#000000;stroke-width:0"/>
<polygon points="-145.867,119.078 -133.614,78.2084 76.099,141.082 63.8461,181.951" style="fill:#006363; stroke:#000000;stroke-width:0"/>
<circle fill="#006363" stroke="#006363" stroke-width="0" cx="-139.74" cy="98.6431" r="21.3333"/>
<circle fill="#006363" stroke="#006363" stroke-width="0" cx="69.9726" cy="161.516" r="21.3333"/>
<polygon points="564.907,317.316 523.417,307.365 573.817,97.2389 615.307,107.191" style="fill:#006363; stroke:#000000;stroke-width:0"/>
<circle fill="#006363" stroke="#006363" stroke-width="0" cx="544.162" cy="312.341" r="21.3333"/>
<circle fill="#006363" stroke="#006363" stroke-width="0" cx="594.562" cy="102.215" r="21.3333"/>
<polygon points="1256,469.333 256,1469.33 -744,469.333" style="fill:#000000; stroke:#000000;stroke-width:0"/>
<polygon points="-744,42.6667 256,-957.333 1256,42.6667" style="fill:#000000; stroke:#000000;stroke-width:0"/>
<circle fill="#a64b00" stroke="#a64b00" stroke-width="0" cx="-139.74" cy="98.6431" r="21.3333"/>
<circle fill="#a64b00" stroke="#a64b00" stroke-width="0" cx="69.9726" cy="161.516" r="21.3333"/>
<circle fill="#a64b00" stroke="#a64b00" stroke-width="0" cx="544.162" cy="312.341" r="21.3333"/>
<circle fill="#a64b00" stroke="#a64b00" stroke-width="0" cx="594.562" cy="102.215" r="21.3333"/>
<circle fill="#a64b00" stroke="#a64b00" stroke-width="0" cx="442.959" cy="440.293" r="21.3333"/>
</svg>
