<?xml version="1.0" encoding="utf-8"?> <!-- Generator: Adobe Illustrator 13.0.0, SVG Export Plug-In . SVG Version: 6.00 Build 14948)  --> <svg version="1.2" baseProfile="tiny" id="Layer_1" xmlns="http://www.w3.org/2000/svg" xmlns:xlink="http://www.w3.org/1999/xlink" x="0px" y="0px" width="512px" height="512px" viewBox="0 0 512 512" xml:space="preserve">
<polygon points="0,0 512,0 512,512 0,512" style="fill:#ffffff; stroke:#000000;stroke-width:0"/>
<polygon points="-105.576,121.448 -63.2715,115.898 -35.5465,327.254 -77.8507,332.803" style="fill:#006363; stroke:#000000;stroke-width:0"/>
<circle fill="#006363" stroke="#006363" stroke-width="0" cx="-84.4236" cy="118.673" r="21.3333"/>
<circle fill="#006363" stroke="#006363" stroke-width="0" cx="-56.6986" cy="330.029" r="21.3333"/>
<polygon points="718.668,229.068 719.93,271.716 506.729,278.024 505.467,235.376" style="fill:#006363; stroke:#000000;stroke-width:0"/>
<circle fill="#006363" stroke="#006363" stroke-width="0" cx="719.299" cy="250.392" r="21.3333"/>
<circle fill="#006363" stroke="#006363" stroke-width="0" cx="506.098" cy="256.7" r="21.3333"/>
<polygon points="1256,469.333 256,1469.33 -744,469.333" style="fill:#000000; stroke:#000000;stroke-width:0"/>
<polygon points="-744,42.6667 256,-957.333 1256,42.6667" style="fill:#000000; stroke:#000000;stroke-width:0"/>
<circle fill="#a64b00" stroke="#a64b00" stroke-width="0" cx="-84.4236" cy="118.673" r="21.3333"/>
<circle fill="#a64b00" stroke="#a64b00" stroke-width="0" cx="-56.6986" cy="330.029" r="21.3333"/>
<circle fill="#a64b00" stroke="#a64b00" stroke-width="0" cx="719.299" cy="250.392" r="21.3333"/>
<circle fill="#a64b00" stroke="#a64b00" stroke-width="0" cx="506.098" cy="256.7" r="21.3333"/>
<circle fill="#a64b00" stroke="#a64b00" stroke-width="0" cx="361.83" cy="192.239" r="21.3333"/>
</svg>
