<?xml version="1.0" encoding="utf-8"?> <!-- Generator: Adobe Illustrator 13.0.0, SVG Export Plug-In . SVG Version: 6.00 Build 14948)  --> <svg version="1.2" baseProfile="tiny" id="Layer_1" xmlns="http://www.w3.org/2000/svg" xmlns:xlink="http://www.w3.org/1999/xlink" x="0px" y="0px" width="512px" height="512px" viewBox="0 0 512 512" xml:space="preserve">
<polygon points="0,0 512,0 512,512 0,512" style="fill:#ffffff; stroke:#000000;stroke-width:0"/>
<polygon points="-209.286,354.651 -199.831,313.045 11.5001,361.074 2.04443,402.68" style="fill:#006363; stroke:#000000;stroke-width:0"/>
<circle fill="#006363" stroke="#006363" stroke-width="0" cx="-204.558" cy="333.848" r="21.3333"/>
<circle fill="#006363" stroke="#006363" stroke-width="0" cx="6.77227" cy="381.877" r="21.3333"/>
<polygon points="634.984,181.42 677.496,185.045 659.242,399.157 616.729,395.532" style="fill:#006363; stroke:#000000;stroke-width:0"/>
<circle fill="#006363" stroke="#006363" stroke-width="0" cx="656.24" cy="183.233" r="21.3333"/>
<circle fill="#006363" stroke="#006363" stroke-width="0" cx="637.986" cy="397.345" r="21.3333"/>
<polygon points="1256,469.333 256,1469.33 -744,469.333" style="fill:#000000; stroke:#000000;stroke-width:0"/>
<polygon points="-744,42.6667 256,-957.333 1256,42.6667" style="fill:#000000; stroke:#000000;stroke-width:0"/>
<circle fill="#a64b00" stroke="#a64b00" stroke-width="0" cx="-204.558" cy="333.848" r="21.3333"/>
<circle fill="#a64b00" stroke="#a64b00" stroke-width="0" cx="6.77227" cy="381.877" r="21.3333"/>
<circle fill="#a64b00" stroke="#a64b00" stroke-width="0" cx="656.24" cy="183.233" r="21.3333"/>
<circle fill="#a64b00" stroke="#a64b00" stroke-width="0" cx="637.986" cy="397.345" r="21.3333"/>
<circle fill="#a64b00" stroke="#a64b00" stroke-width="0" cx="297.403" cy="440.293" r="21.3333"/>
</svg>
