<?xml version="1.0" encoding="utf-8"?> <!-- Generator: Adobe Illustrator 13.0.0, SVG Export Plug-In . SVG Version: 6.00 Build 14948)  --> <svg version="1.2" baseProfile="tiny" id="Layer_1" xmlns="http://www.w3.org/2000/svg" xmlns:xlink="http://www.w3.org/1999/xlink" x="0px" y="0px" width="512px" height="512px" viewBox="0 0 512 512" xml:space="preserve">
<polygon points="0,0 512,0 512,512 0,512" style="fill:#ffffff; stroke:#000000;stroke-width:0"/>
<polygon points="10.0334,83.7073 52.6583,81.8199 62.1079,295.226 19.483,297.113" style="fill:#006363; stroke:#000000;stroke-width:0"/>
<circle fill="#006363" stroke="#006363" stroke-width="0" cx="31.3459" cy="82.7636" r="21.3333"/>
<circle fill="#006363" stroke="#006363" stroke-width="0" cx="40.7955" cy="296.17" r="21.3333"/>
<polygon points="455.035,188.235 497.633,185.809 509.754,398.643 467.156,401.069" style="fill:#006363; stroke:#000000;stroke-width:0"/>
<circle fill="#006363" stroke="#006363" stroke-width="0" cx="476.334" cy="187.022" r="21.3333"/>
<circle fill="#006363" stroke="#006363" stroke-width="0" cx="488.455" cy="399.856" r="21.3333"/>
<polygon points="1256,469.333 256,1469.33 -744,469.333" style="fill:#000000; stroke:#000000;stroke-width:0"/>
<polygon points="-744,42.6667 256,-957.333 1256,42.6667" style="fill:#000000; stroke:#000000;stroke-width:0"/>
<circle fill="#a64b00" stroke="#a64b00" stroke-width="0" cx="31.3459" cy="82.7636" r="21.3333"/>
<circle fill="#a64b00" stroke="#a64b00" stroke-width="0" cx="40.7955" cy="296.17" r="21.3333"/>
<circle fill="#a64b00" stroke="#a64b00" stroke-width="0" cx="476.334" cy="187.022" r="21.3333"/>
<circle fill="#a64b00" stroke="#a64b00" stroke-width="0" cx="488.455" cy="399.856" r="21.3333"/>
<circle fill="#a64b00" stroke="#a64b00" stroke-width="0" cx="157.634" cy="276.314" r="21.3333"/>
</svg>
