<?xml version="1.0" encoding="utf-8"?> <!-- Generator: Adobe Illustrator 13.0.0, SVG Export Plug-In . SVG Version: 6.00 Build 14948)  --> <svg version="1.2" baseProfile="tiny" id="Layer_1" xmlns="http://www.w3.org/2000/svg" xmlns:xlink="http://www.w3.org/1999/xlink" x="0px" y="0px" width="512px" height="512px" viewBox="0 0 512 512" xml:space="preserve">
<polygon points="0,0 512,0 512,512 0,512" style="fill:#ffffff; stroke:#000000;stroke-width:0"/>
<polygon points="-101.514,226.614 -59.4407,219.524 -23.8679,430.647 -65.9415,437.736" style="fill:#006363; stroke:#000000;stroke-width:0"/>
<circle fill="#006363" stroke="#006363" stroke-width="0" cx="-80.4775" cy="223.069" r="21.3333"/>
<circle fill="#006363" stroke="#006363" stroke-width="0" cx="-44.9047" cy="434.192" r="21.3333"/>
<polygon points="709.835,262.554 694.158,302.236 496.443,224.126 512.12,184.444" style="fill:#006363; stroke:#000000;stroke-width:0"/>
<circle fill="#006363" stroke="#006363" stroke-width="0" cx="701.997" cy="282.395" r="21.3333"/>
<circle fill="#006363" stroke="#006363" stroke-width="0" cx="504.281" cy="204.285" r="21.3333"/>
<polygon points="1256,469.333 256,1469.33 -744,469.333" style="fill:#000000; stroke:#000000;stroke-width:0"/>
<polygon points="-744,42.6667 256,-957.333 1256,42.6667" style="fill:#000000; stroke:#000000;stroke-width:0"/>
<circle fill="#a64b00" stroke="#a64b00" stroke-width="0" cx="-80.4775" cy="223.069" r="21.3333"/>
<circle fill="#a64b00" stroke="#a64b00" stroke-width="0" cx="-44.9047" cy="434.192" r="21.3333"/>
<circle fill="#a64b00" stroke="#a64b00" stroke-width="0" cx="701.997" cy="282.395" r="21.3333"/>
<circle fill="#a64b00" stroke="#a64b00" stroke-width="0" cx="504.281" cy="204.285" r="21.3333"/>
<circle fill="#a64b00" stroke="#a64b00" stroke-width="0" cx="379.726" cy="211.32" r="21.3333"/>
</svg>
