<?xml version="1.0" encoding="utf-8"?> <!-- Generator: Adobe Illustrator 13.0.0, SVG Export Plug-In . SVG Version: 6.00 Build 14948)  --> <svg version="1.2" baseProfile="tiny" id="Layer_1" xmlns="http://www.w3.org/2000/svg" xmlns:xlink="http://www.w3.org/1999/xlink" x="0px" y="0px" width="512px" height="512px" viewBox="0 0 512 512" xml:space="preserve">
<polygon points="0,0 512,0 512,512 0,512" style="fill:#ffffff; stroke:#000000;stroke-width:0"/>
<polygon points="-120.377,134.277 -99.6419,96.9873 91.5337,203.295 70.7982,240.584" style="fill:#006363; stroke:#000000;stroke-width:0"/>
<circle fill="#006363" stroke="#006363" stroke-width="0" cx="-110.01" cy="115.632" r="21.3333"/>
<circle fill="#006363" stroke="#006363" stroke-width="0" cx="81.1659" cy="221.939" r="21.3333"/>
<polygon points="448.634,234.286 436.229,193.463 642.696,130.725 655.101,171.549" style="fill:#006363; stroke:#000000;stroke-width:0"/>
<circle fill="#006363" stroke="#006363" stroke-width="0" cx="442.431" cy="213.874" r="21.3333"/>
<circle fill="#006363" stroke="#006363" stroke-width="0" cx="648.899" cy="151.137" r="21.3333"/>
<polygon points="1256,469.333 256,1469.33 -744,469.333" style="fill:#000000; stroke:#000000;stroke-width:0"/>
<polygon points="-744,42.6667 256,-957.333 1256,42.6667" style="fill:#000000; stroke:#000000;stroke-width:0"/>
<circle fill="#a64b00" stroke="#a64b00" stroke-width="0" cx="-110.01" cy="115.632" r="21.3333"/>
<circle fill="#a64b00" stroke="#a64b00" stroke-width="0" cx="81.1659" cy="221.939" r="21.3333"/>
<circle fill="#a64b00" stroke="#a64b00" stroke-width="0" cx="442.431" cy="213.874" r="21.3333"/>
<circle fill="#a64b00" stroke="#a64b00" stroke-width="0" cx="648.899" cy="151.137" r="21.3333"/>
<circle fill="#a64b00" stroke="#a64b00" stroke-width="0" cx="258.03" cy="75.2572" r="21.3333"/>
</svg>
