<?xml version="1.0" encoding="utf-8"?> <!-- Generator: Adobe Illustrator 13.0.0, SVG Export Plug-In . SVG Version: 6.00 Build 14948)  --> <svg version="1.2" baseProfile="tiny" id="Layer_1" xmlns="http://www.w3.org/2000/svg" xmlns:xlink="http://www.w3.org/1999/xlink" x="0px" y="0px" width="512px" height="512px" viewBox="0 0 512 512" xml:space="preserve">
<polygon points="0,0 512,0 512,512 0,512" style="fill:#ffffff; stroke:#000000;stroke-width:0"/>
<polygon points="-127.826,206.402 -121.002,248.519 -342.786,284.456 -349.611,242.339" style="fill:#006363; stroke:#000000;stroke-width:0"/>
<circle fill="#006363" stroke="#006363" stroke-width="0" cx="-124.414" cy="227.461" r="21.3333"/>
<circle fill="#006363" stroke="#006363" stroke-width="0" cx="-346.199" cy="263.398" r="21.3333"/>
<polygon points="760.045,454.705 728.118,426.401 865.575,271.35 897.502,299.653" style="fill:#006363; stroke:#000000;stroke-width:0"/>
<circle fill="#006363" stroke="#006363" stroke-width="0" cx="744.082" cy="440.553" r="21.3333"/>
<circle fill="#006363" stroke="#006363" stroke-width="0" cx="881.539" cy="285.501" r="21.3333"/>
<polygon points="1256,469.333 256,1469.33 -744,469.333" style="fill:#000000; stroke:#000000;stroke-width:0"/>
<polygon points="-744,42.6667 256,-957.333 1256,42.6667" style="fill:#000000; stroke:#000000;stroke-width:0"/>
<circle fill="#a64b00" stroke="#a64b00" stroke-width="0" cx="-124.414" cy="227.461" r="21.3333"/>
<circle fill="#a64b00" stroke="#a64b00" stroke-width="0" cx="-346.199" cy="263.398" r="21.3333"/>
<circle fill="#a64b00" stroke="#a64b00" stroke-width="0" cx="744.082" cy="440.553" r="21.3333"/>
<circle fill="#a64b00" stroke="#a64b00" stroke-width="0" cx="881.539" cy="285.501" r="21.3333"/>
<circle fill="#a64b00" stroke="#a64b00" stroke-width="0" cx="-12.7986" cy="192.239" r="21.3333"/>
</svg>
