<?xml version="1.0" encoding="utf-8"?> <!-- Generator: Adobe Illustrator 13.0.0, SVG Export Plug-In . SVG Version: 6.00 Build 14948)  --> <svg version="1.2" baseProfile="tiny" id="Layer_1" xmlns="http://www.w3.org/2000/svg" xmlns:xlink="http://www.w3.org/1999/xlink" x="0px" y="0px" width="512px" height="512px" viewBox="0 0 512 512" xml:space="preserve">
<polygon points="0,0 512,0 512,512 0,512" style="fill:#ffffff; stroke:#000000;stroke-width:0"/>
<polygon points="-73.028,210.09 -35.8157,189.217 68.8474,375.808 31.6351,396.681" style="fill:#006363; stroke:#000000;stroke-width:0"/>
<circle fill="#006363" stroke="#006363" stroke-width="0" cx="-54.4219" cy="199.653" r="21.3333"/>
<circle fill="#006363" stroke="#006363" stroke-width="0" cx="50.2413" cy="386.245" r="21.3333"/>
<polygon points="424.482,144.438 441.729,105.413 637.583,191.972 620.336,230.997" style="fill:#006363; stroke:#000000;stroke-width:0"/>
<circle fill="#006363" stroke="#006363" stroke-width="0" cx="433.106" cy="124.926" r="21.3333"/>
<circle fill="#006363" stroke="#006363" stroke-width="0" cx="628.96" cy="211.484" r="21.3333"/>
<polygon points="1256,469.333 256,1469.33 -744,469.333" style="fill:#000000; stroke:#000000;stroke-width:0"/>
<polygon points="-744,42.6667 256,-957.333 1256,42.6667" style="fill:#000000; stroke:#000000;stroke-width:0"/>
<circle fill="#a64b00" stroke="#a64b00" stroke-width="0" cx="-54.4219" cy="199.653" r="21.3333"/>
<circle fill="#a64b00" stroke="#a64b00" stroke-width="0" cx="50.2413" cy="386.245" r="21.3333"/>
<circle fill="#a64b00" stroke="#a64b00" stroke-width="0" cx="433.106" cy="124.926" r="21.3333"/>
<circle fill="#a64b00" stroke="#a64b00" stroke-width="0" cx="628.96" cy="211.484" r="21.3333"/>
<circle fill="#a64b00" stroke="#a64b00" stroke-width="0" cx="131.544" cy="165.173" r="21.3333"/>
</svg>
