<?xml version="1.0" encoding="utf-8"?> <!-- Generator: Adobe Illustrator 13.0.0, SVG Export Plug-In . SVG Version: 6.00 Build 14948)  --> <svg version="1.2" baseProfile="tiny" id="Layer_1" xmlns="http://www.w3.org/2000/svg" xmlns:xlink="http://www.w3.org/1999/xlink" x="0px" y="0px" width="512px" height="512px" viewBox="0 0 512 512" xml:space="preserve">
<polygon points="0,0 512,0 512,512 0,512" style="fill:#ffffff; stroke:#000000;stroke-width:0"/>
<polygon points="-413.782,151.671 -415.88,109.056 -201.803,98.5122 -199.705,141.127" style="fill:#006363; stroke:#000000;stroke-width:0"/>
<circle fill="#006363" stroke="#006363" stroke-width="0" cx="-414.831" cy="130.363" r="21.3333"/>
<circle fill="#006363" stroke="#006363" stroke-width="0" cx="-200.754" cy="119.82" r="21.3333"/>
<polygon points="888.32,214.379 930.807,218.292 910.645,437.208 868.158,433.295" style="fill:#006363; stroke:#000000;stroke-width:0"/>
<circle fill="#006363" stroke="#006363" stroke-width="0" cx="909.564" cy="216.336" r="21.3333"/>
<circle fill="#006363" stroke="#006363" stroke-width="0" cx="889.402" cy="435.252" r="21.3333"/>
<polygon points="1256,469.333 256,1469.33 -744,469.333" style="fill:#000000; stroke:#000000;stroke-width:0"/>
<polygon points="-744,42.6667 256,-957.333 1256,42.6667" style="fill:#000000; stroke:#000000;stroke-width:0"/>
<circle fill="#a64b00" stroke="#a64b00" stroke-width="0" cx="-414.831" cy="130.363" r="21.3333"/>
<circle fill="#a64b00" stroke="#a64b00" stroke-width="0" cx="-200.754" cy="119.82" r="21.3333"/>
<circle fill="#a64b00" stroke="#a64b00" stroke-width="0" cx="909.564" cy="216.336" r="21.3333"/>
<circle fill="#a64b00" stroke="#a64b00" stroke-width="0" cx="889.402" cy="435.252" r="21.3333"/>
<circle fill="#a64b00" stroke="#a64b00" stroke-width="0" cx="51.2812" cy="171.603" r="21.3333"/>
</svg>
