<?xml version="1.0" encoding="utf-8"?> <!-- Generator: Adobe Illustrator 13.0.0, SVG Export Plug-In . SVG Version: 6.00 Build 14948)  --> <svg version="1.2" baseProfile="tiny" id="Layer_1" xmlns="http://www.w3.org/2000/svg" xmlns:xlink="http://www.w3.org/1999/xlink" x="0px" y="0px" width="512px" height="512px" viewBox="0 0 512 512" xml:space="preserve">
<polygon points="0,0 512,0 512,512 0,512" style="fill:#ffffff; stroke:#000000;stroke-width:0"/>
<polygon points="-97.094,64.4395 -95.214,107.065 -306.361,116.377 -308.241,73.7521" style="fill:#006363; stroke:#000000;stroke-width:0"/>
<circle fill="#006363" stroke="#006363" stroke-width="0" cx="-96.154" cy="85.7522" r="21.3333"/>
<circle fill="#006363" stroke="#006363" stroke-width="0" cx="-307.301" cy="95.0647" r="21.3333"/>
<polygon points="747.048,353.299 708.119,335.834 796.999,137.726 835.927,155.191" style="fill:#006363; stroke:#000000;stroke-width:0"/>
<circle fill="#006363" stroke="#006363" stroke-width="0" cx="727.583" cy="344.566" r="21.3333"/>
<circle fill="#006363" stroke="#006363" stroke-width="0" cx="816.463" cy="146.459" r="21.3333"/>
<polygon points="1256,469.333 256,1469.33 -744,469.333" style="fill:#000000; stroke:#000000;stroke-width:0"/>
<polygon points="-744,42.6667 256,-957.333 1256,42.6667" style="fill:#000000; stroke:#000000;stroke-width:0"/>
<circle fill="#a64b00" stroke="#a64b00" stroke-width="0" cx="-96.154" cy="85.7522" r="21.3333"/>
<circle fill="#a64b00" stroke="#a64b00" stroke-width="0" cx="-307.301" cy="95.0647" r="21.3333"/>
<circle fill="#a64b00" stroke="#a64b00" stroke-width="0" cx="727.583" cy="344.566" r="21.3333"/>
<circle fill="#a64b00" stroke="#a64b00" stroke-width="0" cx="816.463" cy="146.459" r="21.3333"/>
<circle fill="#a64b00" stroke="#a64b00" stroke-width="0" cx="63.5588" cy="268.563" r="21.3333"/>
</svg>
