<?xml version="1.0" encoding="utf-8"?> <!-- Generator: Adobe Illustrator 13.0.0, SVG Export Plug-In . SVG Version: 6.00 Build 14948)  --> <svg version="1.2" baseProfile="tiny" id="Layer_1" xmlns="http://www.w3.org/2000/svg" xmlns:xlink="http://www.w3.org/1999/xlink" x="0px" y="0px" width="512px" height="512px" viewBox="0 0 512 512" xml:space="preserve">
<polygon points="0,0 512,0 512,512 0,512" style="fill:#ffffff; stroke:#000000;stroke-width:0"/>
<polygon points="-45.4181,240.082 -4.26152,228.831 52.876,437.844 11.7194,449.095" style="fill:#006363; stroke:#000000;stroke-width:0"/>
<circle fill="#006363" stroke="#006363" stroke-width="0" cx="-24.8398" cy="234.456" r="21.3333"/>
<circle fill="#006363" stroke="#006363" stroke-width="0" cx="32.2977" cy="443.47" r="21.3333"/>
<polygon points="434.26,100.764 464.635,70.7999 612.374,220.566 582,250.53" style="fill:#006363; stroke:#000000;stroke-width:0"/>
<circle fill="#006363" stroke="#006363" stroke-width="0" cx="449.447" cy="85.7818" r="21.3333"/>
<circle fill="#006363" stroke="#006363" stroke-width="0" cx="597.187" cy="235.548" r="21.3333"/>
<polygon points="1256,469.333 256,1469.33 -744,469.333" style="fill:#000000; stroke:#000000;stroke-width:0"/>
<polygon points="-744,42.6667 256,-957.333 1256,42.6667" style="fill:#000000; stroke:#000000;stroke-width:0"/>
<circle fill="#a64b00" stroke="#a64b00" stroke-width="0" cx="-24.8398" cy="234.456" r="21.3333"/>
<circle fill="#a64b00" stroke="#a64b00" stroke-width="0" cx="32.2977" cy="443.47" r="21.3333"/>
<circle fill="#a64b00" stroke="#a64b00" stroke-width="0" cx="449.447" cy="85.7818" r="21.3333"/>
<circle fill="#a64b00" stroke="#a64b00" stroke-width="0" cx="597.187" cy="235.548" r="21.3333"/>
<circle fill="#a64b00" stroke="#a64b00" stroke-width="0" cx="201.421" cy="390.227" r="21.3333"/>
</svg>
