<?xml version="1.0" encoding="utf-8"?> <!-- Generator: Adobe Illustrator 13.0.0, SVG Export Plug-In . SVG Version: 6.00 Build 14948)  --> <svg version="1.2" baseProfile="tiny" id="Layer_1" xmlns="http://www.w3.org/2000/svg" xmlns:xlink="http://www.w3.org/1999/xlink" x="0px" y="0px" width="512px" height="512px" viewBox="0 0 512 512" xml:space="preserve">
<polygon points="0,0 512,0 512,512 0,512" style="fill:#ffffff; stroke:#000000;stroke-width:0"/>
<polygon points="-8.83959,116.6 33.5298,111.573 59.2394,328.245 16.87,333.272" style="fill:#006363; stroke:#000000;stroke-width:0"/>
<circle fill="#006363" stroke="#006363" stroke-width="0" cx="12.3451" cy="114.087" r="21.3333"/>
<circle fill="#006363" stroke="#006363" stroke-width="0" cx="38.0547" cy="330.758" r="21.3333"/>
<polygon points="454.602,198.693 496.558,190.936 535.099,399.402 493.143,407.158" style="fill:#006363; stroke:#000000;stroke-width:0"/>
<circle fill="#006363" stroke="#006363" stroke-width="0" cx="475.58" cy="194.815" r="21.3333"/>
<circle fill="#006363" stroke="#006363" stroke-width="0" cx="514.121" cy="403.28" r="21.3333"/>
<polygon points="1256,469.333 256,1469.33 -744,469.333" style="fill:#000000; stroke:#000000;stroke-width:0"/>
<polygon points="-744,42.6667 256,-957.333 1256,42.6667" style="fill:#000000; stroke:#000000;stroke-width:0"/>
<circle fill="#a64b00" stroke="#a64b00" stroke-width="0" cx="12.3451" cy="114.087" r="21.3333"/>
<circle fill="#a64b00" stroke="#a64b00" stroke-width="0" cx="38.0547" cy="330.758" r="21.3333"/>
<circle fill="#a64b00" stroke="#a64b00" stroke-width="0" cx="475.58" cy="194.815" r="21.3333"/>
<circle fill="#a64b00" stroke="#a64b00" stroke-width="0" cx="514.121" cy="403.28" r="21.3333"/>
<circle fill="#a64b00" stroke="#a64b00" stroke-width="0" cx="459.243" cy="429.03" r="21.3333"/>
</svg>
