<?xml version="1.0" encoding="utf-8"?> <!-- Generator: Adobe Illustrator 13.0.0, SVG Export Plug-In . SVG Version: 6.00 Build 14948)  --> <svg version="1.2" baseProfile="tiny" id="Layer_1" xmlns="http://www.w3.org/2000/svg" xmlns:xlink="http://www.w3.org/1999/xlink" x="0px" y="0px" width="512px" height="512px" viewBox="0 0 512 512" xml:space="preserve">
<polygon points="0,0 512,0 512,512 0,512" style="fill:#ffffff; stroke:#000000;stroke-width:0"/>
<polygon points="-167.794,306.177 -148.978,344.471 -347.94,442.232 -366.756,403.939" style="fill:#006363; stroke:#000000;stroke-width:0"/>
<circle fill="#006363" stroke="#006363" stroke-width="0" cx="-158.386" cy="325.324" r="21.3333"/>
<circle fill="#006363" stroke="#006363" stroke-width="0" cx="-357.348" cy="423.085" r="21.3333"/>
<polygon points="739.06,382.8 736.019,340.241 941.368,325.568 944.409,368.126" style="fill:#006363; stroke:#000000;stroke-width:0"/>
<circle fill="#006363" stroke="#006363" stroke-width="0" cx="737.54" cy="361.521" r="21.3333"/>
<circle fill="#006363" stroke="#006363" stroke-width="0" cx="942.889" cy="346.847" r="21.3333"/>
<polygon points="1256,469.333 256,1469.33 -744,469.333" style="fill:#000000; stroke:#000000;stroke-width:0"/>
<polygon points="-744,42.6667 256,-957.333 1256,42.6667" style="fill:#000000; stroke:#000000;stroke-width:0"/>
<circle fill="#a64b00" stroke="#a64b00" stroke-width="0" cx="-158.386" cy="325.324" r="21.3333"/>
<circle fill="#a64b00" stroke="#a64b00" stroke-width="0" cx="-357.348" cy="423.085" r="21.3333"/>
<circle fill="#a64b00" stroke="#a64b00" stroke-width="0" cx="737.54" cy="361.521" r="21.3333"/>
<circle fill="#a64b00" stroke="#a64b00" stroke-width="0" cx="942.889" cy="346.847" r="21.3333"/>
<circle fill="#a64b00" stroke="#a64b00" stroke-width="0" cx="-64.1012" cy="154.077" r="21.3333"/>
</svg>
