<?xml version="1.0" encoding="utf-8"?> <!-- Generator: Adobe Illustrator 13.0.0, SVG Export Plug-In . SVG Version: 6.00 Build 14948)  --> <svg version="1.2" baseProfile="tiny" id="Layer_1" xmlns="http://www.w3.org/2000/svg" xmlns:xlink="http://www.w3.org/1999/xlink" x="0px" y="0px" width="512px" height="512px" viewBox="0 0 512 512" xml:space="preserve">
<polygon points="0,0 512,0 512,512 0,512" style="fill:#ffffff; stroke:#000000;stroke-width:0"/>
<polygon points="-19.5774,158.502 22.5163,151.534 56.7335,358.227 14.6397,365.196" style="fill:#006363; stroke:#000000;stroke-width:0"/>
<circle fill="#006363" stroke="#006363" stroke-width="0" cx="1.46945" cy="155.018" r="21.3333"/>
<circle fill="#006363" stroke="#006363" stroke-width="0" cx="35.6866" cy="361.712" r="21.3333"/>
<polygon points="450.641,151.113 491.224,137.945 556.619,339.49 516.036,352.658" style="fill:#006363; stroke:#000000;stroke-width:0"/>
<circle fill="#006363" stroke="#006363" stroke-width="0" cx="470.933" cy="144.529" r="21.3333"/>
<circle fill="#006363" stroke="#006363" stroke-width="0" cx="536.327" cy="346.074" r="21.3333"/>
<polygon points="1256,469.333 256,1469.33 -744,469.333" style="fill:#000000; stroke:#000000;stroke-width:0"/>
<polygon points="-744,42.6667 256,-957.333 1256,42.6667" style="fill:#000000; stroke:#000000;stroke-width:0"/>
<circle fill="#a64b00" stroke="#a64b00" stroke-width="0" cx="1.46945" cy="155.018" r="21.3333"/>
<circle fill="#a64b00" stroke="#a64b00" stroke-width="0" cx="35.6866" cy="361.712" r="21.3333"/>
<circle fill="#a64b00" stroke="#a64b00" stroke-width="0" cx="470.933" cy="144.529" r="21.3333"/>
<circle fill="#a64b00" stroke="#a64b00" stroke-width="0" cx="536.327" cy="346.074" r="21.3333"/>
<circle fill="#a64b00" stroke="#a64b00" stroke-width="0" cx="379.728" cy="172.933" r="21.3333"/>
</svg>
