<?xml version="1.0" encoding="utf-8"?> <!-- Generator: Adobe Illustrator 13.0.0, SVG Export Plug-In . SVG Version: 6.00 Build 14948)  --> <svg version="1.2" baseProfile="tiny" id="Layer_1" xmlns="http://www.w3.org/2000/svg" xmlns:xlink="http://www.w3.org/1999/xlink" x="0px" y="0px" width="512px" height="512px" viewBox="0 0 512 512" xml:space="preserve">
<polygon points="0,0 512,0 512,512 0,512" style="fill:#ffffff; stroke:#000000;stroke-width:0"/>
<polygon points="-101.063,82.1866 -108.827,124.141 -311.836,86.5748 -304.072,44.6204" style="fill:#006363; stroke:#000000;stroke-width:0"/>
<circle fill="#006363" stroke="#006363" stroke-width="0" cx="-104.945" cy="103.164" r="21.3333"/>
<circle fill="#006363" stroke="#006363" stroke-width="0" cx="-307.954" cy="65.5976" r="21.3333"/>
<polygon points="747.758,369.567 709.609,350.458 807.76,154.509 845.908,173.618" style="fill:#006363; stroke:#000000;stroke-width:0"/>
<circle fill="#006363" stroke="#006363" stroke-width="0" cx="728.684" cy="360.013" r="21.3333"/>
<circle fill="#006363" stroke="#006363" stroke-width="0" cx="826.834" cy="164.063" r="21.3333"/>
<polygon points="1256,469.333 256,1469.33 -744,469.333" style="fill:#000000; stroke:#000000;stroke-width:0"/>
<polygon points="-744,42.6667 256,-957.333 1256,42.6667" style="fill:#000000; stroke:#000000;stroke-width:0"/>
<circle fill="#a64b00" stroke="#a64b00" stroke-width="0" cx="-104.945" cy="103.164" r="21.3333"/>
<circle fill="#a64b00" stroke="#a64b00" stroke-width="0" cx="-307.954" cy="65.5976" r="21.3333"/>
<circle fill="#a64b00" stroke="#a64b00" stroke-width="0" cx="728.684" cy="360.013" r="21.3333"/>
<circle fill="#a64b00" stroke="#a64b00" stroke-width="0" cx="826.834" cy="164.063" r="21.3333"/>
<circle fill="#a64b00" stroke="#a64b00" stroke-width="0" cx="52.821" cy="440.293" r="21.3333"/>
</svg>
