<?xml version="1.0" encoding="utf-8"?> <!-- Generator: Adobe Illustrator 13.0.0, SVG Export Plug-In . SVG Version: 6.00 Build 14948)  --> <svg version="1.2" baseProfile="tiny" id="Layer_1" xmlns="http://www.w3.org/2000/svg" xmlns:xlink="http://www.w3.org/1999/xlink" x="0px" y="0px" width="512px" height="512px" viewBox="0 0 512 512" xml:space="preserve">
<polygon points="0,0 512,0 512,512 0,512" style="fill:#ffffff; stroke:#000000;stroke-width:0"/>
<polygon points="5.77549,67.9183 48.3666,65.3803 61.4801,285.437 18.889,287.975" style="fill:#006363; stroke:#000000;stroke-width:0"/>
<circle fill="#006363" stroke="#006363" stroke-width="0" cx="27.071" cy="66.6493" r="21.3333"/>
<circle fill="#006363" stroke="#006363" stroke-width="0" cx="40.1845" cy="286.706" r="21.3333"/>
<polygon points="457.027,217.624 499.591,214.672 514.445,428.844 471.881,431.796" style="fill:#006363; stroke:#000000;stroke-width:0"/>
<circle fill="#006363" stroke="#006363" stroke-width="0" cx="478.309" cy="216.148" r="21.3333"/>
<circle fill="#006363" stroke="#006363" stroke-width="0" cx="493.163" cy="430.32" r="21.3333"/>
<polygon points="1256,469.333 256,1469.33 -744,469.333" style="fill:#000000; stroke:#000000;stroke-width:0"/>
<polygon points="-744,42.6667 256,-957.333 1256,42.6667" style="fill:#000000; stroke:#000000;stroke-width:0"/>
<circle fill="#a64b00" stroke="#a64b00" stroke-width="0" cx="27.071" cy="66.6493" r="21.3333"/>
<circle fill="#a64b00" stroke="#a64b00" stroke-width="0" cx="40.1845" cy="286.706" r="21.3333"/>
<circle fill="#a64b00" stroke="#a64b00" stroke-width="0" cx="478.309" cy="216.148" r="21.3333"/>
<circle fill="#a64b00" stroke="#a64b00" stroke-width="0" cx="493.163" cy="430.32" r="21.3333"/>
<circle fill="#a64b00" stroke="#a64b00" stroke-width="0" cx="148.585" cy="308.83" r="21.3333"/>
</svg>
