<?xml version="1.0" encoding="utf-8"?> <!-- Generator: Adobe Illustrator 13.0.0, SVG Export Plug-In . SVG Version: 6.00 Build 14948)  --> <svg version="1.2" baseProfile="tiny" id="Layer_1" xmlns="http://www.w3.org/2000/svg" xmlns:xlink="http://www.w3.org/1999/xlink" x="0px" y="0px" width="512px" height="512px" viewBox="0 0 512 512" xml:space="preserve">
<polygon points="0,0 512,0 512,512 0,512" style="fill:#ffffff; stroke:#000000;stroke-width:0"/>
<polygon points="-172.625,351.106 -196.224,386.652 -374.589,268.231 -350.989,232.685" style="fill:#006363; stroke:#000000;stroke-width:0"/>
<circle fill="#006363" stroke="#006363" stroke-width="0" cx="-184.424" cy="368.879" r="21.3333"/>
<circle fill="#006363" stroke="#006363" stroke-width="0" cx="-362.789" cy="250.458" r="21.3333"/>
<polygon points="757.97,315.446 777.951,277.747 960.696,374.606 940.715,412.304" style="fill:#006363; stroke:#000000;stroke-width:0"/>
<circle fill="#006363" stroke="#006363" stroke-width="0" cx="767.961" cy="296.596" r="21.3333"/>
<circle fill="#006363" stroke="#006363" stroke-width="0" cx="950.705" cy="393.455" r="21.3333"/>
<polygon points="1256,469.333 256,1469.33 -744,469.333" style="fill:#000000; stroke:#000000;stroke-width:0"/>
<polygon points="-744,42.6667 256,-957.333 1256,42.6667" style="fill:#000000; stroke:#000000;stroke-width:0"/>
<circle fill="#a64b00" stroke="#a64b00" stroke-width="0" cx="-184.424" cy="368.879" r="21.3333"/>
<circle fill="#a64b00" stroke="#a64b00" stroke-width="0" cx="-362.789" cy="250.458" r="21.3333"/>
<circle fill="#a64b00" stroke="#a64b00" stroke-width="0" cx="767.961" cy="296.596" r="21.3333"/>
<circle fill="#a64b00" stroke="#a64b00" stroke-width="0" cx="950.705" cy="393.455" r="21.3333"/>
<circle fill="#a64b00" stroke="#a64b00" stroke-width="0" cx="-99.8937" cy="363.968" r="21.3333"/>
</svg>
