<?xml version="1.0" encoding="utf-8"?> <!-- Generator: Adobe Illustrator 13.0.0, SVG Export Plug-In . SVG Version: 6.00 Build 14948)  --> <svg version="1.2" baseProfile="tiny" id="Layer_1" xmlns="http://www.w3.org/2000/svg" xmlns:xlink="http://www.w3.org/1999/xlink" x="0px" y="0px" width="512px" height="512px" viewBox="0 0 512 512" xml:space="preserve">
<polygon points="0,0 512,0 512,512 0,512" style="fill:#ffffff; stroke:#000000;stroke-width:0"/>
<polygon points="-132.092,191.791 -127.319,234.19 -331.175,257.14 -335.948,214.742" style="fill:#006363; stroke:#000000;stroke-width:0"/>
<circle fill="#006363" stroke="#006363" stroke-width="0" cx="-129.705" cy="212.991" r="21.3333"/>
<circle fill="#006363" stroke="#006363" stroke-width="0" cx="-333.562" cy="235.941" r="21.3333"/>
<polygon points="754.627,448.423 721.776,421.196 862.072,251.925 894.922,279.152" style="fill:#006363; stroke:#000000;stroke-width:0"/>
<circle fill="#006363" stroke="#006363" stroke-width="0" cx="738.201" cy="434.81" r="21.3333"/>
<circle fill="#006363" stroke="#006363" stroke-width="0" cx="878.497" cy="265.539" r="21.3333"/>
<polygon points="1256,469.333 256,1469.33 -744,469.333" style="fill:#000000; stroke:#000000;stroke-width:0"/>
<polygon points="-744,42.6667 256,-957.333 1256,42.6667" style="fill:#000000; stroke:#000000;stroke-width:0"/>
<circle fill="#a64b00" stroke="#a64b00" stroke-width="0" cx="-129.705" cy="212.991" r="21.3333"/>
<circle fill="#a64b00" stroke="#a64b00" stroke-width="0" cx="-333.562" cy="235.941" r="21.3333"/>
<circle fill="#a64b00" stroke="#a64b00" stroke-width="0" cx="738.201" cy="434.81" r="21.3333"/>
<circle fill="#a64b00" stroke="#a64b00" stroke-width="0" cx="878.497" cy="265.539" r="21.3333"/>
<circle fill="#a64b00" stroke="#a64b00" stroke-width="0" cx="-4.447" cy="325.806" r="21.3333"/>
</svg>
