<?xml version="1.0" encoding="utf-8"?> <!-- Generator: Adobe Illustrator 13.0.0, SVG Export Plug-In . SVG Version: 6.00 Build 14948)  --> <svg version="1.2" baseProfile="tiny" id="Layer_1" xmlns="http://www.w3.org/2000/svg" xmlns:xlink="http://www.w3.org/1999/xlink" x="0px" y="0px" width="512px" height="512px" viewBox="0 0 512 512" xml:space="preserve">
<polygon points="0,0 512,0 512,512 0,512" style="fill:#ffffff; stroke:#000000;stroke-width:0"/>
<polygon points="-303.439,312.979 -343.703,298.861 -271.582,93.1671 -231.318,107.284" style="fill:#006363; stroke:#000000;stroke-width:0"/>
<circle fill="#006363" stroke="#006363" stroke-width="0" cx="-323.571" cy="305.92" r="21.3333"/>
<circle fill="#006363" stroke="#006363" stroke-width="0" cx="-251.45" cy="100.226" r="21.3333"/>
<polygon points="801.304,263.187 836.783,239.488 951.139,410.685 915.659,434.385" style="fill:#006363; stroke:#000000;stroke-width:0"/>
<circle fill="#006363" stroke="#006363" stroke-width="0" cx="819.044" cy="251.337" r="21.3333"/>
<circle fill="#006363" stroke="#006363" stroke-width="0" cx="933.399" cy="422.535" r="21.3333"/>
<polygon points="1256,469.333 256,1469.33 -744,469.333" style="fill:#000000; stroke:#000000;stroke-width:0"/>
<polygon points="-744,42.6667 256,-957.333 1256,42.6667" style="fill:#000000; stroke:#000000;stroke-width:0"/>
<circle fill="#a64b00" stroke="#a64b00" stroke-width="0" cx="-323.571" cy="305.92" r="21.3333"/>
<circle fill="#a64b00" stroke="#a64b00" stroke-width="0" cx="-251.45" cy="100.226" r="21.3333"/>
<circle fill="#a64b00" stroke="#a64b00" stroke-width="0" cx="819.044" cy="251.337" r="21.3333"/>
<circle fill="#a64b00" stroke="#a64b00" stroke-width="0" cx="933.399" cy="422.535" r="21.3333"/>
<circle fill="#a64b00" stroke="#a64b00" stroke-width="0" cx="-131.51" cy="259.023" r="21.3333"/>
</svg>
