<?xml version="1.0" encoding="utf-8"?> <!-- Generator: Adobe Illustrator 13.0.0, SVG Export Plug-In . SVG Version: 6.00 Build 14948)  --> <svg version="1.2" baseProfile="tiny" id="Layer_1" xmlns="http://www.w3.org/2000/svg" xmlns:xlink="http://www.w3.org/1999/xlink" x="0px" y="0px" width="512px" height="512px" viewBox="0 0 512 512" xml:space="preserve">
<polygon points="0,0 512,0 512,512 0,512" style="fill:#ffffff; stroke:#000000;stroke-width:0"/>
<polygon points="-45.6872,248.671 -4.59631,237.183 51.5398,437.968 10.4489,449.456" style="fill:#006363; stroke:#000000;stroke-width:0"/>
<circle fill="#006363" stroke="#006363" stroke-width="0" cx="-25.1418" cy="242.927" r="21.3333"/>
<circle fill="#006363" stroke="#006363" stroke-width="0" cx="30.9943" cy="443.712" r="21.3333"/>
<polygon points="430.207,104.605 458.976,73.0963 618.556,218.805 589.787,250.313" style="fill:#006363; stroke:#000000;stroke-width:0"/>
<circle fill="#006363" stroke="#006363" stroke-width="0" cx="444.591" cy="88.8504" r="21.3333"/>
<circle fill="#006363" stroke="#006363" stroke-width="0" cx="604.172" cy="234.559" r="21.3333"/>
<polygon points="1256,469.333 256,1469.33 -744,469.333" style="fill:#000000; stroke:#000000;stroke-width:0"/>
<polygon points="-744,42.6667 256,-957.333 1256,42.6667" style="fill:#000000; stroke:#000000;stroke-width:0"/>
<circle fill="#a64b00" stroke="#a64b00" stroke-width="0" cx="-25.1418" cy="242.927" r="21.3333"/>
<circle fill="#a64b00" stroke="#a64b00" stroke-width="0" cx="30.9943" cy="443.712" r="21.3333"/>
<circle fill="#a64b00" stroke="#a64b00" stroke-width="0" cx="444.591" cy="88.8504" r="21.3333"/>
<circle fill="#a64b00" stroke="#a64b00" stroke-width="0" cx="604.172" cy="234.559" r="21.3333"/>
<circle fill="#a64b00" stroke="#a64b00" stroke-width="0" cx="191.782" cy="359.185" r="21.3333"/>
</svg>
