<?xml version="1.0" encoding="utf-8"?> <!-- Generator: Adobe Illustrator 13.0.0, SVG Export Plug-In . SVG Version: 6.00 Build 14948)  --> <svg version="1.2" baseProfile="tiny" id="Layer_1" xmlns="http://www.w3.org/2000/svg" xmlns:xlink="http://www.w3.org/1999/xlink" x="0px" y="0px" width="512px" height="512px" viewBox="0 0 512 512" xml:space="preserve">
<polygon points="0,0 512,0 512,512 0,512" style="fill:#ffffff; stroke:#000000;stroke-width:0"/>
<polygon points="-36.6286,207.303 4.92107,197.604 54.9223,411.808 13.3726,421.507" style="fill:#006363; stroke:#000000;stroke-width:0"/>
<circle fill="#006363" stroke="#006363" stroke-width="0" cx="-15.8538" cy="202.454" r="21.3333"/>
<circle fill="#006363" stroke="#006363" stroke-width="0" cx="34.1475" cy="416.657" r="21.3333"/>
<polygon points="446.068,85.1111 483.501,64.6365 586.2,252.397 548.767,272.871" style="fill:#006363; stroke:#000000;stroke-width:0"/>
<circle fill="#006363" stroke="#006363" stroke-width="0" cx="464.785" cy="74.8738" r="21.3333"/>
<circle fill="#006363" stroke="#006363" stroke-width="0" cx="567.483" cy="262.634" r="21.3333"/>
<polygon points="1256,469.333 256,1469.33 -744,469.333" style="fill:#000000; stroke:#000000;stroke-width:0"/>
<polygon points="-744,42.6667 256,-957.333 1256,42.6667" style="fill:#000000; stroke:#000000;stroke-width:0"/>
<circle fill="#a64b00" stroke="#a64b00" stroke-width="0" cx="-15.8538" cy="202.454" r="21.3333"/>
<circle fill="#a64b00" stroke="#a64b00" stroke-width="0" cx="34.1475" cy="416.657" r="21.3333"/>
<circle fill="#a64b00" stroke="#a64b00" stroke-width="0" cx="464.785" cy="74.8738" r="21.3333"/>
<circle fill="#a64b00" stroke="#a64b00" stroke-width="0" cx="567.483" cy="262.634" r="21.3333"/>
<circle fill="#a64b00" stroke="#a64b00" stroke-width="0" cx="266.479" cy="304.862" r="21.3333"/>
</svg>
