<?xml version="1.0" encoding="utf-8"?> <!-- Generator: Adobe Illustrator 13.0.0, SVG Export Plug-In . SVG Version: 6.00 Build 14948)  --> <svg version="1.2" baseProfile="tiny" id="Layer_1" xmlns="http://www.w3.org/2000/svg" xmlns:xlink="http://www.w3.org/1999/xlink" x="0px" y="0px" width="512px" height="512px" viewBox="0 0 512 512" xml:space="preserve">
<polygon points="0,0 512,0 512,512 0,512" style="fill:#ffffff; stroke:#000000;stroke-width:0"/>
<polygon points="-135.468,98.5803 -132.939,55.9886 76.7183,68.4361 74.1896,111.028" style="fill:#006363; stroke:#000000;stroke-width:0"/>
<circle fill="#006363" stroke="#006363" stroke-width="0" cx="-134.204" cy="77.2845" r="21.3333"/>
<circle fill="#006363" stroke="#006363" stroke-width="0" cx="75.454" cy="89.732" r="21.3333"/>
<polygon points="528.73,302.777 491.66,281.652 596.611,97.4892 633.681,118.614" style="fill:#006363; stroke:#000000;stroke-width:0"/>
<circle fill="#006363" stroke="#006363" stroke-width="0" cx="510.195" cy="292.215" r="21.3333"/>
<circle fill="#006363" stroke="#006363" stroke-width="0" cx="615.146" cy="108.052" r="21.3333"/>
<polygon points="1256,469.333 256,1469.33 -744,469.333" style="fill:#000000; stroke:#000000;stroke-width:0"/>
<polygon points="-744,42.6667 256,-957.333 1256,42.6667" style="fill:#000000; stroke:#000000;stroke-width:0"/>
<circle fill="#a64b00" stroke="#a64b00" stroke-width="0" cx="-134.204" cy="77.2845" r="21.3333"/>
<circle fill="#a64b00" stroke="#a64b00" stroke-width="0" cx="75.454" cy="89.732" r="21.3333"/>
<circle fill="#a64b00" stroke="#a64b00" stroke-width="0" cx="510.195" cy="292.215" r="21.3333"/>
<circle fill="#a64b00" stroke="#a64b00" stroke-width="0" cx="615.146" cy="108.052" r="21.3333"/>
<circle fill="#a64b00" stroke="#a64b00" stroke-width="0" cx="455.487" cy="259.023" r="21.3333"/>
</svg>
