<?xml version="1.0" encoding="utf-8"?> <!-- Generator: Adobe Illustrator 13.0.0, SVG Export Plug-In . SVG Version: 6.00 Build 14948)  --> <svg version="1.2" baseProfile="tiny" id="Layer_1" xmlns="http://www.w3.org/2000/svg" xmlns:xlink="http://www.w3.org/1999/xlink" x="0px" y="0px" width="512px" height="512px" viewBox="0 0 512 512" xml:space="preserve">
<polygon points="0,0 512,0 512,512 0,512" style="fill:#ffffff; stroke:#000000;stroke-width:0"/>
<polygon points="-140.989,123.807 -127.384,83.3678 69.6477,149.659 56.0419,190.098" style="fill:#006363; stroke:#000000;stroke-width:0"/>
<circle fill="#006363" stroke="#006363" stroke-width="0" cx="-134.186" cy="103.587" r="21.3333"/>
<circle fill="#006363" stroke="#006363" stroke-width="0" cx="62.8448" cy="169.878" r="21.3333"/>
<polygon points="570.874,315.665 529.015,307.404 569.763,100.931 611.622,109.192" style="fill:#006363; stroke:#000000;stroke-width:0"/>
<circle fill="#006363" stroke="#006363" stroke-width="0" cx="549.944" cy="311.535" r="21.3333"/>
<circle fill="#006363" stroke="#006363" stroke-width="0" cx="590.692" cy="105.062" r="21.3333"/>
<polygon points="1256,469.333 256,1469.33 -744,469.333" style="fill:#000000; stroke:#000000;stroke-width:0"/>
<polygon points="-744,42.6667 256,-957.333 1256,42.6667" style="fill:#000000; stroke:#000000;stroke-width:0"/>
<circle fill="#a64b00" stroke="#a64b00" stroke-width="0" cx="-134.186" cy="103.587" r="21.3333"/>
<circle fill="#a64b00" stroke="#a64b00" stroke-width="0" cx="62.8448" cy="169.878" r="21.3333"/>
<circle fill="#a64b00" stroke="#a64b00" stroke-width="0" cx="549.944" cy="311.535" r="21.3333"/>
<circle fill="#a64b00" stroke="#a64b00" stroke-width="0" cx="590.692" cy="105.062" r="21.3333"/>
<circle fill="#a64b00" stroke="#a64b00" stroke-width="0" cx="441.17" cy="411.671" r="21.3333"/>
</svg>
