<?xml version="1.0" encoding="utf-8"?> <!-- Generator: Adobe Illustrator 13.0.0, SVG Export Plug-In . SVG Version: 6.00 Build 14948)  --> <svg version="1.2" baseProfile="tiny" id="Layer_1" xmlns="http://www.w3.org/2000/svg" xmlns:xlink="http://www.w3.org/1999/xlink" x="0px" y="0px" width="512px" height="512px" viewBox="0 0 512 512" xml:space="preserve">
<polygon points="0,0 512,0 512,512 0,512" style="fill:#ffffff; stroke:#000000;stroke-width:0"/>
<polygon points="-133.093,209.47 -126.001,251.543 -338.568,287.378 -345.661,245.305" style="fill:#006363; stroke:#000000;stroke-width:0"/>
<circle fill="#006363" stroke="#006363" stroke-width="0" cx="-129.547" cy="230.506" r="21.3333"/>
<circle fill="#006363" stroke="#006363" stroke-width="0" cx="-342.115" cy="266.342" r="21.3333"/>
<polygon points="757.516,459.326 725.727,430.868 869.379,270.401 901.168,298.86" style="fill:#006363; stroke:#000000;stroke-width:0"/>
<circle fill="#006363" stroke="#006363" stroke-width="0" cx="741.621" cy="445.097" r="21.3333"/>
<circle fill="#006363" stroke="#006363" stroke-width="0" cx="885.274" cy="284.63" r="21.3333"/>
<polygon points="1256,469.333 256,1469.33 -744,469.333" style="fill:#000000; stroke:#000000;stroke-width:0"/>
<polygon points="-744,42.6667 256,-957.333 1256,42.6667" style="fill:#000000; stroke:#000000;stroke-width:0"/>
<circle fill="#a64b00" stroke="#a64b00" stroke-width="0" cx="-129.547" cy="230.506" r="21.3333"/>
<circle fill="#a64b00" stroke="#a64b00" stroke-width="0" cx="-342.115" cy="266.342" r="21.3333"/>
<circle fill="#a64b00" stroke="#a64b00" stroke-width="0" cx="741.621" cy="445.097" r="21.3333"/>
<circle fill="#a64b00" stroke="#a64b00" stroke-width="0" cx="885.274" cy="284.63" r="21.3333"/>
<circle fill="#a64b00" stroke="#a64b00" stroke-width="0" cx="-13.9917" cy="173.158" r="21.3333"/>
</svg>
