<?xml version="1.0" encoding="utf-8"?> <!-- Generator: Adobe Illustrator 13.0.0, SVG Export Plug-In . SVG Version: 6.00 Build 14948)  --> <svg version="1.2" baseProfile="tiny" id="Layer_1" xmlns="http://www.w3.org/2000/svg" xmlns:xlink="http://www.w3.org/1999/xlink" x="0px" y="0px" width="512px" height="512px" viewBox="0 0 512 512" xml:space="preserve">
<polygon points="0,0 512,0 512,512 0,512" style="fill:#ffffff; stroke:#000000;stroke-width:0"/>
<polygon points="-59.3053,332.852 -67.4505,374.734 -282.764,332.86 -274.619,290.978" style="fill:#006363; stroke:#000000;stroke-width:0"/>
<circle fill="#006363" stroke="#006363" stroke-width="0" cx="-63.3779" cy="353.793" r="21.3333"/>
<circle fill="#006363" stroke="#006363" stroke-width="0" cx="-278.691" cy="311.919" r="21.3333"/>
<polygon points="720.536,333.544 680.102,319.922 748.947,115.571 789.38,129.193" style="fill:#006363; stroke:#000000;stroke-width:0"/>
<circle fill="#006363" stroke="#006363" stroke-width="0" cx="700.319" cy="326.733" r="21.3333"/>
<circle fill="#006363" stroke="#006363" stroke-width="0" cx="769.164" cy="122.382" r="21.3333"/>
<polygon points="1256,469.333 256,1469.33 -744,469.333" style="fill:#000000; stroke:#000000;stroke-width:0"/>
<polygon points="-744,42.6667 256,-957.333 1256,42.6667" style="fill:#000000; stroke:#000000;stroke-width:0"/>
<circle fill="#a64b00" stroke="#a64b00" stroke-width="0" cx="-63.3779" cy="353.793" r="21.3333"/>
<circle fill="#a64b00" stroke="#a64b00" stroke-width="0" cx="-278.691" cy="311.919" r="21.3333"/>
<circle fill="#a64b00" stroke="#a64b00" stroke-width="0" cx="700.319" cy="326.733" r="21.3333"/>
<circle fill="#a64b00" stroke="#a64b00" stroke-width="0" cx="769.164" cy="122.382" r="21.3333"/>
<circle fill="#a64b00" stroke="#a64b00" stroke-width="0" cx="133.354" cy="182.698" r="21.3333"/>
</svg>
