<?xml version="1.0" encoding="utf-8"?> <!-- Generator: Adobe Illustrator 13.0.0, SVG Export Plug-In . SVG Version: 6.00 Build 14948)  --> <svg version="1.2" baseProfile="tiny" id="Layer_1" xmlns="http://www.w3.org/2000/svg" xmlns:xlink="http://www.w3.org/1999/xlink" x="0px" y="0px" width="512px" height="512px" viewBox="0 0 512 512" xml:space="preserve">
<polygon points="0,0 512,0 512,512 0,512" style="fill:#ffffff; stroke:#000000;stroke-width:0"/>
<polygon points="-308.702,444.104 -351.363,444.795 -354.721,237.399 -312.059,236.709" style="fill:#006363; stroke:#000000;stroke-width:0"/>
<circle fill="#006363" stroke="#006363" stroke-width="0" cx="-330.033" cy="444.449" r="21.3333"/>
<circle fill="#006363" stroke="#006363" stroke-width="0" cx="-333.39" cy="237.054" r="21.3333"/>
<polygon points="981.637,226.692 1011.65,257.021 865.126,402.001 835.116,371.672" style="fill:#006363; stroke:#000000;stroke-width:0"/>
<circle fill="#006363" stroke="#006363" stroke-width="0" cx="996.642" cy="241.856" r="21.3333"/>
<circle fill="#006363" stroke="#006363" stroke-width="0" cx="850.121" cy="386.836" r="21.3333"/>
<polygon points="1256,469.333 256,1469.33 -744,469.333" style="fill:#000000; stroke:#000000;stroke-width:0"/>
<polygon points="-744,42.6667 256,-957.333 1256,42.6667" style="fill:#000000; stroke:#000000;stroke-width:0"/>
<circle fill="#a64b00" stroke="#a64b00" stroke-width="0" cx="-330.033" cy="444.449" r="21.3333"/>
<circle fill="#a64b00" stroke="#a64b00" stroke-width="0" cx="-333.39" cy="237.054" r="21.3333"/>
<circle fill="#a64b00" stroke="#a64b00" stroke-width="0" cx="996.642" cy="241.856" r="21.3333"/>
<circle fill="#a64b00" stroke="#a64b00" stroke-width="0" cx="850.121" cy="386.836" r="21.3333"/>
<circle fill="#a64b00" stroke="#a64b00" stroke-width="0" cx="855.313" cy="308.881" r="21.3333"/>
</svg>
