<?xml version="1.0" encoding="utf-8"?> <!-- Generator: Adobe Illustrator 13.0.0, SVG Export Plug-In . SVG Version: 6.00 Build 14948)  --> <svg version="1.2" baseProfile="tiny" id="Layer_1" xmlns="http://www.w3.org/2000/svg" xmlns:xlink="http://www.w3.org/1999/xlink" x="0px" y="0px" width="512px" height="512px" viewBox="0 0 512 512" xml:space="preserve">
<polygon points="0,0 512,0 512,512 0,512" style="fill:#ffffff; stroke:#000000;stroke-width:0"/>
<polygon points="-135.523,226.884 -126.114,268.5 -344.534,317.881 -353.942,276.264" style="fill:#006363; stroke:#000000;stroke-width:0"/>
<circle fill="#006363" stroke="#006363" stroke-width="0" cx="-130.818" cy="247.692" r="21.3333"/>
<circle fill="#006363" stroke="#006363" stroke-width="0" cx="-349.238" cy="297.073" r="21.3333"/>
<polygon points="752.112,449.016 724.482,416.504 884.98,280.109 912.609,312.622" style="fill:#006363; stroke:#000000;stroke-width:0"/>
<circle fill="#006363" stroke="#006363" stroke-width="0" cx="738.297" cy="432.76" r="21.3333"/>
<circle fill="#006363" stroke="#006363" stroke-width="0" cx="898.795" cy="296.365" r="21.3333"/>
<polygon points="1256,469.333 256,1469.33 -744,469.333" style="fill:#000000; stroke:#000000;stroke-width:0"/>
<polygon points="-744,42.6667 256,-957.333 1256,42.6667" style="fill:#000000; stroke:#000000;stroke-width:0"/>
<circle fill="#a64b00" stroke="#a64b00" stroke-width="0" cx="-130.818" cy="247.692" r="21.3333"/>
<circle fill="#a64b00" stroke="#a64b00" stroke-width="0" cx="-349.238" cy="297.073" r="21.3333"/>
<circle fill="#a64b00" stroke="#a64b00" stroke-width="0" cx="738.297" cy="432.76" r="21.3333"/>
<circle fill="#a64b00" stroke="#a64b00" stroke-width="0" cx="898.795" cy="296.365" r="21.3333"/>
<circle fill="#a64b00" stroke="#a64b00" stroke-width="0" cx="-23.5363" cy="96.8337" r="21.3333"/>
</svg>
