<?xml version="1.0" encoding="utf-8"?> <!-- Generator: Adobe Illustrator 13.0.0, SVG Export Plug-In . SVG Version: 6.00 Build 14948)  --> <svg version="1.2" baseProfile="tiny" id="Layer_1" xmlns="http://www.w3.org/2000/svg" xmlns:xlink="http://www.w3.org/1999/xlink" x="0px" y="0px" width="512px" height="512px" viewBox="0 0 512 512" xml:space="preserve">
<polygon points="0,0 512,0 512,512 0,512" style="fill:#ffffff; stroke:#000000;stroke-width:0"/>
<polygon points="-59.3478,402.042 -72.9845,442.471 -271.179,375.619 -257.542,335.191" style="fill:#006363; stroke:#000000;stroke-width:0"/>
<circle fill="#006363" stroke="#006363" stroke-width="0" cx="-66.1662" cy="422.256" r="21.3333"/>
<circle fill="#006363" stroke="#006363" stroke-width="0" cx="-264.36" cy="355.405" r="21.3333"/>
<polygon points="707.071,367.465 667.662,351.114 748.39,156.536 787.8,172.887" style="fill:#006363; stroke:#000000;stroke-width:0"/>
<circle fill="#006363" stroke="#006363" stroke-width="0" cx="687.367" cy="359.29" r="21.3333"/>
<circle fill="#006363" stroke="#006363" stroke-width="0" cx="768.095" cy="164.711" r="21.3333"/>
<polygon points="1256,469.333 256,1469.33 -744,469.333" style="fill:#000000; stroke:#000000;stroke-width:0"/>
<polygon points="-744,42.6667 256,-957.333 1256,42.6667" style="fill:#000000; stroke:#000000;stroke-width:0"/>
<circle fill="#a64b00" stroke="#a64b00" stroke-width="0" cx="-66.1662" cy="422.256" r="21.3333"/>
<circle fill="#a64b00" stroke="#a64b00" stroke-width="0" cx="-264.36" cy="355.405" r="21.3333"/>
<circle fill="#a64b00" stroke="#a64b00" stroke-width="0" cx="687.367" cy="359.29" r="21.3333"/>
<circle fill="#a64b00" stroke="#a64b00" stroke-width="0" cx="768.095" cy="164.711" r="21.3333"/>
<circle fill="#a64b00" stroke="#a64b00" stroke-width="0" cx="146.478" cy="392.59" r="21.3333"/>
</svg>
