<?xml version="1.0" encoding="utf-8"?> <!-- Generator: Adobe Illustrator 13.0.0, SVG Export Plug-In . SVG Version: 6.00 Build 14948)  --> <svg version="1.2" baseProfile="tiny" id="Layer_1" xmlns="http://www.w3.org/2000/svg" xmlns:xlink="http://www.w3.org/1999/xlink" x="0px" y="0px" width="512px" height="512px" viewBox="0 0 512 512" xml:space="preserve">
<polygon points="0,0 512,0 512,512 0,512" style="fill:#ffffff; stroke:#000000;stroke-width:0"/>
<polygon points="-7.58926,119.116 34.794,114.207 58.7918,321.372 16.4085,326.282" style="fill:#006363; stroke:#000000;stroke-width:0"/>
<circle fill="#006363" stroke="#006363" stroke-width="0" cx="13.6024" cy="116.662" r="21.3333"/>
<circle fill="#006363" stroke="#006363" stroke-width="0" cx="37.6001" cy="323.827" r="21.3333"/>
<polygon points="454.874,201.595 496.891,194.177 533.763,403.014 491.746,410.432" style="fill:#006363; stroke:#000000;stroke-width:0"/>
<circle fill="#006363" stroke="#006363" stroke-width="0" cx="475.883" cy="197.886" r="21.3333"/>
<circle fill="#006363" stroke="#006363" stroke-width="0" cx="512.754" cy="406.723" r="21.3333"/>
<polygon points="1256,469.333 256,1469.33 -744,469.333" style="fill:#000000; stroke:#000000;stroke-width:0"/>
<polygon points="-744,42.6667 256,-957.333 1256,42.6667" style="fill:#000000; stroke:#000000;stroke-width:0"/>
<circle fill="#a64b00" stroke="#a64b00" stroke-width="0" cx="13.6024" cy="116.662" r="21.3333"/>
<circle fill="#a64b00" stroke="#a64b00" stroke-width="0" cx="37.6001" cy="323.827" r="21.3333"/>
<circle fill="#a64b00" stroke="#a64b00" stroke-width="0" cx="475.883" cy="197.886" r="21.3333"/>
<circle fill="#a64b00" stroke="#a64b00" stroke-width="0" cx="512.754" cy="406.723" r="21.3333"/>
<circle fill="#a64b00" stroke="#a64b00" stroke-width="0" cx="464.062" cy="444.551" r="21.3333"/>
</svg>
