<?xml version="1.0" encoding="utf-8"?> <!-- Generator: Adobe Illustrator 13.0.0, SVG Export Plug-In . SVG Version: 6.00 Build 14948)  --> <svg version="1.2" baseProfile="tiny" id="Layer_1" xmlns="http://www.w3.org/2000/svg" xmlns:xlink="http://www.w3.org/1999/xlink" x="0px" y="0px" width="512px" height="512px" viewBox="0 0 512 512" xml:space="preserve">
<polygon points="0,0 512,0 512,512 0,512" style="fill:#ffffff; stroke:#000000;stroke-width:0"/>
<polygon points="-113.186,223.697 -73.2123,208.779 -0.129162,404.599 -40.1026,419.518" style="fill:#006363; stroke:#000000;stroke-width:0"/>
<circle fill="#006363" stroke="#006363" stroke-width="0" cx="-93.199" cy="216.238" r="21.3333"/>
<circle fill="#006363" stroke="#006363" stroke-width="0" cx="-20.1159" cy="412.059" r="21.3333"/>
<polygon points="691.149,285.941 664.134,318.966 500.472,185.089 527.486,152.064" style="fill:#006363; stroke:#000000;stroke-width:0"/>
<circle fill="#006363" stroke="#006363" stroke-width="0" cx="677.641" cy="302.454" r="21.3333"/>
<circle fill="#006363" stroke="#006363" stroke-width="0" cx="513.979" cy="168.576" r="21.3333"/>
<polygon points="1256,469.333 256,1469.33 -744,469.333" style="fill:#000000; stroke:#000000;stroke-width:0"/>
<polygon points="-744,42.6667 256,-957.333 1256,42.6667" style="fill:#000000; stroke:#000000;stroke-width:0"/>
<circle fill="#a64b00" stroke="#a64b00" stroke-width="0" cx="-93.199" cy="216.238" r="21.3333"/>
<circle fill="#a64b00" stroke="#a64b00" stroke-width="0" cx="-20.1159" cy="412.059" r="21.3333"/>
<circle fill="#a64b00" stroke="#a64b00" stroke-width="0" cx="677.641" cy="302.454" r="21.3333"/>
<circle fill="#a64b00" stroke="#a64b00" stroke-width="0" cx="513.979" cy="168.576" r="21.3333"/>
<circle fill="#a64b00" stroke="#a64b00" stroke-width="0" cx="393.446" cy="430.752" r="21.3333"/>
</svg>
