<?xml version="1.0" encoding="utf-8"?> <!-- Generator: Adobe Illustrator 13.0.0, SVG Export Plug-In . SVG Version: 6.00 Build 14948)  --> <svg version="1.2" baseProfile="tiny" id="Layer_1" xmlns="http://www.w3.org/2000/svg" xmlns:xlink="http://www.w3.org/1999/xlink" x="0px" y="0px" width="512px" height="512px" viewBox="0 0 512 512" xml:space="preserve">
<polygon points="0,0 512,0 512,512 0,512" style="fill:#ffffff; stroke:#000000;stroke-width:0"/>
<polygon points="-36.5465,210.236 4.99022,200.482 54.4389,411.053 12.9022,420.807" style="fill:#006363; stroke:#000000;stroke-width:0"/>
<circle fill="#006363" stroke="#006363" stroke-width="0" cx="-15.7782" cy="205.359" r="21.3333"/>
<circle fill="#006363" stroke="#006363" stroke-width="0" cx="33.6705" cy="415.93" r="21.3333"/>
<polygon points="445.789,83.3657 483.142,62.7441 587.011,250.885 549.658,271.506" style="fill:#006363; stroke:#000000;stroke-width:0"/>
<circle fill="#006363" stroke="#006363" stroke-width="0" cx="464.466" cy="73.0549" r="21.3333"/>
<circle fill="#006363" stroke="#006363" stroke-width="0" cx="568.335" cy="261.195" r="21.3333"/>
<polygon points="1256,469.333 256,1469.33 -744,469.333" style="fill:#000000; stroke:#000000;stroke-width:0"/>
<polygon points="-744,42.6667 256,-957.333 1256,42.6667" style="fill:#000000; stroke:#000000;stroke-width:0"/>
<circle fill="#a64b00" stroke="#a64b00" stroke-width="0" cx="-15.7782" cy="205.359" r="21.3333"/>
<circle fill="#a64b00" stroke="#a64b00" stroke-width="0" cx="33.6705" cy="415.93" r="21.3333"/>
<circle fill="#a64b00" stroke="#a64b00" stroke-width="0" cx="464.466" cy="73.0549" r="21.3333"/>
<circle fill="#a64b00" stroke="#a64b00" stroke-width="0" cx="568.335" cy="261.195" r="21.3333"/>
<circle fill="#a64b00" stroke="#a64b00" stroke-width="0" cx="264.069" cy="312.622" r="21.3333"/>
</svg>
