<?xml version="1.0" encoding="utf-8"?> <!-- Generator: Adobe Illustrator 13.0.0, SVG Export Plug-In . SVG Version: 6.00 Build 14948)  --> <svg version="1.2" baseProfile="tiny" id="Layer_1" xmlns="http://www.w3.org/2000/svg" xmlns:xlink="http://www.w3.org/1999/xlink" x="0px" y="0px" width="512px" height="512px" viewBox="0 0 512 512" xml:space="preserve">
<polygon points="0,0 512,0 512,512 0,512" style="fill:#ffffff; stroke:#000000;stroke-width:0"/>
<polygon points="-105.73,115.315 -63.4122,109.87 -36.4415,319.482 -78.7593,324.927" style="fill:#006363; stroke:#000000;stroke-width:0"/>
<circle fill="#006363" stroke="#006363" stroke-width="0" cx="-84.5711" cy="112.593" r="21.3333"/>
<circle fill="#006363" stroke="#006363" stroke-width="0" cx="-57.6004" cy="322.205" r="21.3333"/>
<polygon points="720.253,226.854 722.646,269.453 506.419,281.599 504.026,239" style="fill:#006363; stroke:#000000;stroke-width:0"/>
<circle fill="#006363" stroke="#006363" stroke-width="0" cx="721.449" cy="248.153" r="21.3333"/>
<circle fill="#006363" stroke="#006363" stroke-width="0" cx="505.223" cy="260.3" r="21.3333"/>
<polygon points="1256,469.333 256,1469.33 -744,469.333" style="fill:#000000; stroke:#000000;stroke-width:0"/>
<polygon points="-744,42.6667 256,-957.333 1256,42.6667" style="fill:#000000; stroke:#000000;stroke-width:0"/>
<circle fill="#a64b00" stroke="#a64b00" stroke-width="0" cx="-84.5711" cy="112.593" r="21.3333"/>
<circle fill="#a64b00" stroke="#a64b00" stroke-width="0" cx="-57.6004" cy="322.205" r="21.3333"/>
<circle fill="#a64b00" stroke="#a64b00" stroke-width="0" cx="721.449" cy="248.153" r="21.3333"/>
<circle fill="#a64b00" stroke="#a64b00" stroke-width="0" cx="505.223" cy="260.3" r="21.3333"/>
<circle fill="#a64b00" stroke="#a64b00" stroke-width="0" cx="360.637" cy="211.32" r="21.3333"/>
</svg>
