<?xml version="1.0" encoding="utf-8"?> <!-- Generator: Adobe Illustrator 13.0.0, SVG Export Plug-In . SVG Version: 6.00 Build 14948)  --> <svg version="1.2" baseProfile="tiny" id="Layer_1" xmlns="http://www.w3.org/2000/svg" xmlns:xlink="http://www.w3.org/1999/xlink" x="0px" y="0px" width="512px" height="512px" viewBox="0 0 512 512" xml:space="preserve">
<polygon points="0,0 512,0 512,512 0,512" style="fill:#ffffff; stroke:#000000;stroke-width:0"/>
<polygon points="4.83362,79.616 47.4099,76.8399 60.8167,282.453 18.2404,285.229" style="fill:#006363; stroke:#000000;stroke-width:0"/>
<circle fill="#006363" stroke="#006363" stroke-width="0" cx="26.1217" cy="78.2279" r="21.3333"/>
<circle fill="#006363" stroke="#006363" stroke-width="0" cx="39.5285" cy="283.841" r="21.3333"/>
<polygon points="457.64,226.62 500.195,223.536 515.502,434.746 472.947,437.83" style="fill:#006363; stroke:#000000;stroke-width:0"/>
<circle fill="#006363" stroke="#006363" stroke-width="0" cx="478.918" cy="225.078" r="21.3333"/>
<circle fill="#006363" stroke="#006363" stroke-width="0" cx="494.225" cy="436.288" r="21.3333"/>
<polygon points="1256,469.333 256,1469.33 -744,469.333" style="fill:#000000; stroke:#000000;stroke-width:0"/>
<polygon points="-744,42.6667 256,-957.333 1256,42.6667" style="fill:#000000; stroke:#000000;stroke-width:0"/>
<circle fill="#a64b00" stroke="#a64b00" stroke-width="0" cx="26.1217" cy="78.2279" r="21.3333"/>
<circle fill="#a64b00" stroke="#a64b00" stroke-width="0" cx="39.5285" cy="283.841" r="21.3333"/>
<circle fill="#a64b00" stroke="#a64b00" stroke-width="0" cx="478.918" cy="225.078" r="21.3333"/>
<circle fill="#a64b00" stroke="#a64b00" stroke-width="0" cx="494.225" cy="436.288" r="21.3333"/>
<circle fill="#a64b00" stroke="#a64b00" stroke-width="0" cx="184.709" cy="322.185" r="21.3333"/>
</svg>
