<?xml version="1.0" encoding="utf-8"?> <!-- Generator: Adobe Illustrator 13.0.0, SVG Export Plug-In . SVG Version: 6.00 Build 14948)  --> <svg version="1.2" baseProfile="tiny" id="Layer_1" xmlns="http://www.w3.org/2000/svg" xmlns:xlink="http://www.w3.org/1999/xlink" x="0px" y="0px" width="512px" height="512px" viewBox="0 0 512 512" xml:space="preserve">
<polygon points="0,0 512,0 512,512 0,512" style="fill:#ffffff; stroke:#000000;stroke-width:0"/>
<polygon points="-233.389,230.689 -241.777,188.855 -33.1281,147.018 -24.74,188.852" style="fill:#006363; stroke:#000000;stroke-width:0"/>
<circle fill="#006363" stroke="#006363" stroke-width="0" cx="-237.583" cy="209.772" r="21.3333"/>
<circle fill="#006363" stroke="#006363" stroke-width="0" cx="-28.9341" cy="167.935" r="21.3333"/>
<polygon points="585.189,367.939 580.438,325.538 792.523,301.773 797.274,344.174" style="fill:#006363; stroke:#000000;stroke-width:0"/>
<circle fill="#006363" stroke="#006363" stroke-width="0" cx="582.813" cy="346.738" r="21.3333"/>
<circle fill="#006363" stroke="#006363" stroke-width="0" cx="794.898" cy="322.973" r="21.3333"/>
<polygon points="1256,469.333 256,1469.33 -744,469.333" style="fill:#000000; stroke:#000000;stroke-width:0"/>
<polygon points="-744,42.6667 256,-957.333 1256,42.6667" style="fill:#000000; stroke:#000000;stroke-width:0"/>
<circle fill="#a64b00" stroke="#a64b00" stroke-width="0" cx="-237.583" cy="209.772" r="21.3333"/>
<circle fill="#a64b00" stroke="#a64b00" stroke-width="0" cx="-28.9341" cy="167.935" r="21.3333"/>
<circle fill="#a64b00" stroke="#a64b00" stroke-width="0" cx="582.813" cy="346.738" r="21.3333"/>
<circle fill="#a64b00" stroke="#a64b00" stroke-width="0" cx="794.898" cy="322.973" r="21.3333"/>
<circle fill="#a64b00" stroke="#a64b00" stroke-width="0" cx="219.256" cy="125.455" r="21.3333"/>
</svg>
