<?xml version="1.0" encoding="utf-8"?> <!-- Generator: Adobe Illustrator 13.0.0, SVG Export Plug-In . SVG Version: 6.00 Build 14948)  --> <svg version="1.2" baseProfile="tiny" id="Layer_1" xmlns="http://www.w3.org/2000/svg" xmlns:xlink="http://www.w3.org/1999/xlink" x="0px" y="0px" width="512px" height="512px" viewBox="0 0 512 512" xml:space="preserve">
<polygon points="0,0 512,0 512,512 0,512" style="fill:#ffffff; stroke:#000000;stroke-width:0"/>
<polygon points="16.8709,170.552 59.531,169.804 63.2275,380.648 20.5674,381.396" style="fill:#006363; stroke:#000000;stroke-width:0"/>
<circle fill="#006363" stroke="#006363" stroke-width="0" cx="38.201" cy="170.178" r="21.3333"/>
<circle fill="#006363" stroke="#006363" stroke-width="0" cx="41.8975" cy="381.022" r="21.3333"/>
<polygon points="451.071,115.962 493.72,114.733 499.901,329.319 457.252,330.548" style="fill:#006363; stroke:#000000;stroke-width:0"/>
<circle fill="#006363" stroke="#006363" stroke-width="0" cx="472.395" cy="115.348" r="21.3333"/>
<circle fill="#006363" stroke="#006363" stroke-width="0" cx="478.577" cy="329.933" r="21.3333"/>
<polygon points="1256,469.333 256,1469.33 -744,469.333" style="fill:#000000; stroke:#000000;stroke-width:0"/>
<polygon points="-744,42.6667 256,-957.333 1256,42.6667" style="fill:#000000; stroke:#000000;stroke-width:0"/>
<circle fill="#a64b00" stroke="#a64b00" stroke-width="0" cx="38.201" cy="170.178" r="21.3333"/>
<circle fill="#a64b00" stroke="#a64b00" stroke-width="0" cx="41.8975" cy="381.022" r="21.3333"/>
<circle fill="#a64b00" stroke="#a64b00" stroke-width="0" cx="472.395" cy="115.348" r="21.3333"/>
<circle fill="#a64b00" stroke="#a64b00" stroke-width="0" cx="478.577" cy="329.933" r="21.3333"/>
<circle fill="#a64b00" stroke="#a64b00" stroke-width="0" cx="338.273" cy="256" r="21.3333"/>
</svg>
