<?xml version="1.0" encoding="utf-8"?> <!-- Generator: Adobe Illustrator 13.0.0, SVG Export Plug-In . SVG Version: 6.00 Build 14948)  --> <svg version="1.2" baseProfile="tiny" id="Layer_1" xmlns="http://www.w3.org/2000/svg" xmlns:xlink="http://www.w3.org/1999/xlink" x="0px" y="0px" width="512px" height="512px" viewBox="0 0 512 512" xml:space="preserve">
<polygon points="0,0 512,0 512,512 0,512" style="fill:#ffffff; stroke:#000000;stroke-width:0"/>
<polygon points="-143.167,154.099 -116.701,120.633 55.5606,256.864 29.0943,290.33" style="fill:#006363; stroke:#000000;stroke-width:0"/>
<circle fill="#006363" stroke="#006363" stroke-width="0" cx="-129.934" cy="137.366" r="21.3333"/>
<circle fill="#006363" stroke="#006363" stroke-width="0" cx="42.3274" cy="273.597" r="21.3333"/>
<polygon points="625.014,319.721 583.41,329.183 535.378,117.968 576.983,108.507" style="fill:#006363; stroke:#000000;stroke-width:0"/>
<circle fill="#006363" stroke="#006363" stroke-width="0" cx="604.212" cy="324.452" r="21.3333"/>
<circle fill="#006363" stroke="#006363" stroke-width="0" cx="556.181" cy="113.237" r="21.3333"/>
<polygon points="1256,469.333 256,1469.33 -744,469.333" style="fill:#000000; stroke:#000000;stroke-width:0"/>
<polygon points="-744,42.6667 256,-957.333 1256,42.6667" style="fill:#000000; stroke:#000000;stroke-width:0"/>
<circle fill="#a64b00" stroke="#a64b00" stroke-width="0" cx="-129.934" cy="137.366" r="21.3333"/>
<circle fill="#a64b00" stroke="#a64b00" stroke-width="0" cx="42.3274" cy="273.597" r="21.3333"/>
<circle fill="#a64b00" stroke="#a64b00" stroke-width="0" cx="604.212" cy="324.452" r="21.3333"/>
<circle fill="#a64b00" stroke="#a64b00" stroke-width="0" cx="556.181" cy="113.237" r="21.3333"/>
<circle fill="#a64b00" stroke="#a64b00" stroke-width="0" cx="422.677" cy="115.915" r="21.3333"/>
</svg>
