<?xml version="1.0" encoding="utf-8"?> <!-- Generator: Adobe Illustrator 13.0.0, SVG Export Plug-In . SVG Version: 6.00 Build 14948)  --> <svg version="1.2" baseProfile="tiny" id="Layer_1" xmlns="http://www.w3.org/2000/svg" xmlns:xlink="http://www.w3.org/1999/xlink" x="0px" y="0px" width="512px" height="512px" viewBox="0 0 512 512" xml:space="preserve">
<polygon points="0,0 512,0 512,512 0,512" style="fill:#ffffff; stroke:#000000;stroke-width:0"/>
<polygon points="10.7824,93.364 53.4126,91.5985 62.1965,303.703 19.5664,305.468" style="fill:#006363; stroke:#000000;stroke-width:0"/>
<circle fill="#006363" stroke="#006363" stroke-width="0" cx="32.0975" cy="92.4812" r="21.3333"/>
<circle fill="#006363" stroke="#006363" stroke-width="0" cx="40.8815" cy="304.585" r="21.3333"/>
<polygon points="454.502,180.34 497.107,178.045 508.616,391.641 466.011,393.937" style="fill:#006363; stroke:#000000;stroke-width:0"/>
<circle fill="#006363" stroke="#006363" stroke-width="0" cx="475.804" cy="179.193" r="21.3333"/>
<circle fill="#006363" stroke="#006363" stroke-width="0" cx="487.314" cy="392.789" r="21.3333"/>
<polygon points="1256,469.333 256,1469.33 -744,469.333" style="fill:#000000; stroke:#000000;stroke-width:0"/>
<polygon points="-744,42.6667 256,-957.333 1256,42.6667" style="fill:#000000; stroke:#000000;stroke-width:0"/>
<circle fill="#a64b00" stroke="#a64b00" stroke-width="0" cx="32.0975" cy="92.4812" r="21.3333"/>
<circle fill="#a64b00" stroke="#a64b00" stroke-width="0" cx="40.8815" cy="304.585" r="21.3333"/>
<circle fill="#a64b00" stroke="#a64b00" stroke-width="0" cx="475.804" cy="179.193" r="21.3333"/>
<circle fill="#a64b00" stroke="#a64b00" stroke-width="0" cx="487.314" cy="392.789" r="21.3333"/>
<circle fill="#a64b00" stroke="#a64b00" stroke-width="0" cx="198.282" cy="273.412" r="21.3333"/>
</svg>
