<?xml version="1.0" encoding="utf-8"?> <!-- Generator: Adobe Illustrator 13.0.0, SVG Export Plug-In . SVG Version: 6.00 Build 14948)  --> <svg version="1.2" baseProfile="tiny" id="Layer_1" xmlns="http://www.w3.org/2000/svg" xmlns:xlink="http://www.w3.org/1999/xlink" x="0px" y="0px" width="512px" height="512px" viewBox="0 0 512 512" xml:space="preserve">
<polygon points="0,0 512,0 512,512 0,512" style="fill:#ffffff; stroke:#000000;stroke-width:0"/>
<polygon points="-398.059,264.762 -419.321,227.771 -232.196,120.211 -210.934,157.202" style="fill:#006363; stroke:#000000;stroke-width:0"/>
<circle fill="#006363" stroke="#006363" stroke-width="0" cx="-408.69" cy="246.266" r="21.3333"/>
<circle fill="#006363" stroke="#006363" stroke-width="0" cx="-221.565" cy="138.707" r="21.3333"/>
<polygon points="917.568,217.458 958.251,230.315 896.056,427.109 855.373,414.251" style="fill:#006363; stroke:#000000;stroke-width:0"/>
<circle fill="#006363" stroke="#006363" stroke-width="0" cx="937.909" cy="223.887" r="21.3333"/>
<circle fill="#006363" stroke="#006363" stroke-width="0" cx="875.714" cy="420.68" r="21.3333"/>
<polygon points="1256,469.333 256,1469.33 -744,469.333" style="fill:#000000; stroke:#000000;stroke-width:0"/>
<polygon points="-744,42.6667 256,-957.333 1256,42.6667" style="fill:#000000; stroke:#000000;stroke-width:0"/>
<circle fill="#a64b00" stroke="#a64b00" stroke-width="0" cx="-408.69" cy="246.266" r="21.3333"/>
<circle fill="#a64b00" stroke="#a64b00" stroke-width="0" cx="-221.565" cy="138.707" r="21.3333"/>
<circle fill="#a64b00" stroke="#a64b00" stroke-width="0" cx="937.909" cy="223.887" r="21.3333"/>
<circle fill="#a64b00" stroke="#a64b00" stroke-width="0" cx="875.714" cy="420.68" r="21.3333"/>
<circle fill="#a64b00" stroke="#a64b00" stroke-width="0" cx="297.851" cy="213.702" r="21.3333"/>
</svg>
