<?xml version="1.0" encoding="utf-8"?> <!-- Generator: Adobe Illustrator 13.0.0, SVG Export Plug-In . SVG Version: 6.00 Build 14948)  --> <svg version="1.2" baseProfile="tiny" id="Layer_1" xmlns="http://www.w3.org/2000/svg" xmlns:xlink="http://www.w3.org/1999/xlink" x="0px" y="0px" width="512px" height="512px" viewBox="0 0 512 512" xml:space="preserve">
<polygon points="0,0 512,0 512,512 0,512" style="fill:#ffffff; stroke:#000000;stroke-width:0"/>
<polygon points="-141.005,102.463 -136.645,60.0195 80.1572,82.2953 75.7962,124.739" style="fill:#006363; stroke:#000000;stroke-width:0"/>
<circle fill="#006363" stroke="#006363" stroke-width="0" cx="-138.825" cy="81.2411" r="21.3333"/>
<circle fill="#006363" stroke="#006363" stroke-width="0" cx="77.9767" cy="103.517" r="21.3333"/>
<polygon points="534.705,307.379 496.566,288.25 593.186,95.6094 631.324,114.738" style="fill:#006363; stroke:#000000;stroke-width:0"/>
<circle fill="#006363" stroke="#006363" stroke-width="0" cx="515.636" cy="297.815" r="21.3333"/>
<circle fill="#006363" stroke="#006363" stroke-width="0" cx="612.255" cy="105.174" r="21.3333"/>
<polygon points="1256,469.333 256,1469.33 -744,469.333" style="fill:#000000; stroke:#000000;stroke-width:0"/>
<polygon points="-744,42.6667 256,-957.333 1256,42.6667" style="fill:#000000; stroke:#000000;stroke-width:0"/>
<circle fill="#a64b00" stroke="#a64b00" stroke-width="0" cx="-138.825" cy="81.2411" r="21.3333"/>
<circle fill="#a64b00" stroke="#a64b00" stroke-width="0" cx="77.9767" cy="103.517" r="21.3333"/>
<circle fill="#a64b00" stroke="#a64b00" stroke-width="0" cx="515.636" cy="297.815" r="21.3333"/>
<circle fill="#a64b00" stroke="#a64b00" stroke-width="0" cx="612.255" cy="105.174" r="21.3333"/>
<circle fill="#a64b00" stroke="#a64b00" stroke-width="0" cx="453.101" cy="297.185" r="21.3333"/>
</svg>
