<?xml version="1.0" encoding="utf-8"?> <!-- Generator: Adobe Illustrator 13.0.0, SVG Export Plug-In . SVG Version: 6.00 Build 14948)  --> <svg version="1.2" baseProfile="tiny" id="Layer_1" xmlns="http://www.w3.org/2000/svg" xmlns:xlink="http://www.w3.org/1999/xlink" x="0px" y="0px" width="512px" height="512px" viewBox="0 0 512 512" xml:space="preserve">
<polygon points="0,0 512,0 512,512 0,512" style="fill:#ffffff; stroke:#000000;stroke-width:0"/>
<polygon points="-134.656,94.6706 -127.732,52.5696 87.4491,87.9597 80.5249,130.061" style="fill:#006363; stroke:#000000;stroke-width:0"/>
<circle fill="#006363" stroke="#006363" stroke-width="0" cx="-131.194" cy="73.6201" r="21.3333"/>
<circle fill="#006363" stroke="#006363" stroke-width="0" cx="83.987" cy="109.01" r="21.3333"/>
<polygon points="491.856,281.994 462.614,250.924 619.465,103.303 648.707,134.373" style="fill:#006363; stroke:#000000;stroke-width:0"/>
<circle fill="#006363" stroke="#006363" stroke-width="0" cx="477.235" cy="266.459" r="21.3333"/>
<circle fill="#006363" stroke="#006363" stroke-width="0" cx="634.086" cy="118.838" r="21.3333"/>
<polygon points="1256,469.333 256,1469.33 -744,469.333" style="fill:#000000; stroke:#000000;stroke-width:0"/>
<polygon points="-744,42.6667 256,-957.333 1256,42.6667" style="fill:#000000; stroke:#000000;stroke-width:0"/>
<circle fill="#a64b00" stroke="#a64b00" stroke-width="0" cx="-131.194" cy="73.6201" r="21.3333"/>
<circle fill="#a64b00" stroke="#a64b00" stroke-width="0" cx="83.987" cy="109.01" r="21.3333"/>
<circle fill="#a64b00" stroke="#a64b00" stroke-width="0" cx="477.235" cy="266.459" r="21.3333"/>
<circle fill="#a64b00" stroke="#a64b00" stroke-width="0" cx="634.086" cy="118.838" r="21.3333"/>
<circle fill="#a64b00" stroke="#a64b00" stroke-width="0" cx="468.611" cy="68.2121" r="21.3333"/>
</svg>
