<?xml version="1.0" encoding="utf-8"?> <!-- Generator: Adobe Illustrator 13.0.0, SVG Export Plug-In . SVG Version: 6.00 Build 14948)  --> <svg version="1.2" baseProfile="tiny" id="Layer_1" xmlns="http://www.w3.org/2000/svg" xmlns:xlink="http://www.w3.org/1999/xlink" x="0px" y="0px" width="512px" height="512px" viewBox="0 0 512 512" xml:space="preserve">
<polygon points="0,0 512,0 512,512 0,512" style="fill:#ffffff; stroke:#000000;stroke-width:0"/>
<polygon points="12.2334,112 54.8727,110.474 62.4208,321.333 19.7814,322.859" style="fill:#006363; stroke:#000000;stroke-width:0"/>
<circle fill="#006363" stroke="#006363" stroke-width="0" cx="33.5531" cy="111.237" r="21.3333"/>
<circle fill="#006363" stroke="#006363" stroke-width="0" cx="41.1011" cy="322.096" r="21.3333"/>
<polygon points="453.468,164.926 496.086,162.894 506.309,377.26 463.691,379.293" style="fill:#006363; stroke:#000000;stroke-width:0"/>
<circle fill="#006363" stroke="#006363" stroke-width="0" cx="474.777" cy="163.91" r="21.3333"/>
<circle fill="#006363" stroke="#006363" stroke-width="0" cx="485" cy="378.277" r="21.3333"/>
<polygon points="1256,469.333 256,1469.33 -744,469.333" style="fill:#000000; stroke:#000000;stroke-width:0"/>
<polygon points="-744,42.6667 256,-957.333 1256,42.6667" style="fill:#000000; stroke:#000000;stroke-width:0"/>
<circle fill="#a64b00" stroke="#a64b00" stroke-width="0" cx="33.5531" cy="111.237" r="21.3333"/>
<circle fill="#a64b00" stroke="#a64b00" stroke-width="0" cx="41.1011" cy="322.096" r="21.3333"/>
<circle fill="#a64b00" stroke="#a64b00" stroke-width="0" cx="474.777" cy="163.91" r="21.3333"/>
<circle fill="#a64b00" stroke="#a64b00" stroke-width="0" cx="485" cy="378.277" r="21.3333"/>
<circle fill="#a64b00" stroke="#a64b00" stroke-width="0" cx="279.579" cy="267.608" r="21.3333"/>
</svg>
