<?xml version="1.0" encoding="utf-8"?> <!-- Generator: Adobe Illustrator 13.0.0, SVG Export Plug-In . SVG Version: 6.00 Build 14948)  --> <svg version="1.2" baseProfile="tiny" id="Layer_1" xmlns="http://www.w3.org/2000/svg" xmlns:xlink="http://www.w3.org/1999/xlink" x="0px" y="0px" width="512px" height="512px" viewBox="0 0 512 512" xml:space="preserve">
<polygon points="0,0 512,0 512,512 0,512" style="fill:#ffffff; stroke:#000000;stroke-width:0"/>
<polygon points="-130.523,185.422 -96.16,160.131 30.3249,331.99 -4.03824,357.281" style="fill:#006363; stroke:#000000;stroke-width:0"/>
<circle fill="#006363" stroke="#006363" stroke-width="0" cx="-113.342" cy="172.776" r="21.3333"/>
<circle fill="#006363" stroke="#006363" stroke-width="0" cx="13.1433" cy="344.636" r="21.3333"/>
<polygon points="661.733,307.127 625.314,329.354 513.955,146.893 550.374,124.665" style="fill:#006363; stroke:#000000;stroke-width:0"/>
<circle fill="#006363" stroke="#006363" stroke-width="0" cx="643.524" cy="318.241" r="21.3333"/>
<circle fill="#006363" stroke="#006363" stroke-width="0" cx="532.164" cy="135.779" r="21.3333"/>
<polygon points="1256,469.333 256,1469.33 -744,469.333" style="fill:#000000; stroke:#000000;stroke-width:0"/>
<polygon points="-744,42.6667 256,-957.333 1256,42.6667" style="fill:#000000; stroke:#000000;stroke-width:0"/>
<circle fill="#a64b00" stroke="#a64b00" stroke-width="0" cx="-113.342" cy="172.776" r="21.3333"/>
<circle fill="#a64b00" stroke="#a64b00" stroke-width="0" cx="13.1433" cy="344.636" r="21.3333"/>
<circle fill="#a64b00" stroke="#a64b00" stroke-width="0" cx="643.524" cy="318.241" r="21.3333"/>
<circle fill="#a64b00" stroke="#a64b00" stroke-width="0" cx="532.164" cy="135.779" r="21.3333"/>
<circle fill="#a64b00" stroke="#a64b00" stroke-width="0" cx="408.36" cy="230.401" r="21.3333"/>
</svg>
