<?xml version="1.0" encoding="utf-8"?> <!-- Generator: Adobe Illustrator 13.0.0, SVG Export Plug-In . SVG Version: 6.00 Build 14948)  --> <svg version="1.2" baseProfile="tiny" id="Layer_1" xmlns="http://www.w3.org/2000/svg" xmlns:xlink="http://www.w3.org/1999/xlink" x="0px" y="0px" width="512px" height="512px" viewBox="0 0 512 512" xml:space="preserve">
<polygon points="0,0 512,0 512,512 0,512" style="fill:#ffffff; stroke:#000000;stroke-width:0"/>
<polygon points="-365.462,234.05 -390.759,199.691 -222.15,75.556 -196.854,109.915" style="fill:#006363; stroke:#000000;stroke-width:0"/>
<circle fill="#006363" stroke="#006363" stroke-width="0" cx="-378.111" cy="216.871" r="21.3333"/>
<circle fill="#006363" stroke="#006363" stroke-width="0" cx="-209.502" cy="92.7355" r="21.3333"/>
<polygon points="825.98,241.891 865.818,226.614 941.758,424.655 901.92,439.931" style="fill:#006363; stroke:#000000;stroke-width:0"/>
<circle fill="#006363" stroke="#006363" stroke-width="0" cx="845.899" cy="234.253" r="21.3333"/>
<circle fill="#006363" stroke="#006363" stroke-width="0" cx="921.839" cy="432.293" r="21.3333"/>
<polygon points="1256,469.333 256,1469.33 -744,469.333" style="fill:#000000; stroke:#000000;stroke-width:0"/>
<polygon points="-744,42.6667 256,-957.333 1256,42.6667" style="fill:#000000; stroke:#000000;stroke-width:0"/>
<circle fill="#a64b00" stroke="#a64b00" stroke-width="0" cx="-378.111" cy="216.871" r="21.3333"/>
<circle fill="#a64b00" stroke="#a64b00" stroke-width="0" cx="-209.502" cy="92.7355" r="21.3333"/>
<circle fill="#a64b00" stroke="#a64b00" stroke-width="0" cx="845.899" cy="234.253" r="21.3333"/>
<circle fill="#a64b00" stroke="#a64b00" stroke-width="0" cx="921.839" cy="432.293" r="21.3333"/>
<circle fill="#a64b00" stroke="#a64b00" stroke-width="0" cx="-145.827" cy="411.671" r="21.3333"/>
</svg>
