<?xml version="1.0" encoding="utf-8"?> <!-- Generator: Adobe Illustrator 13.0.0, SVG Export Plug-In . SVG Version: 6.00 Build 14948)  --> <svg version="1.2" baseProfile="tiny" id="Layer_1" xmlns="http://www.w3.org/2000/svg" xmlns:xlink="http://www.w3.org/1999/xlink" x="0px" y="0px" width="512px" height="512px" viewBox="0 0 512 512" xml:space="preserve">
<polygon points="0,0 512,0 512,512 0,512" style="fill:#ffffff; stroke:#000000;stroke-width:0"/>
<polygon points="-58.1219,361.51 -68.5097,402.893 -279.225,350 -268.838,308.617" style="fill:#006363; stroke:#000000;stroke-width:0"/>
<circle fill="#006363" stroke="#006363" stroke-width="0" cx="-63.3158" cy="382.201" r="21.3333"/>
<circle fill="#006363" stroke="#006363" stroke-width="0" cx="-274.031" cy="329.308" r="21.3333"/>
<polygon points="714.549,348.622 674.513,333.874 749.197,131.128 789.234,145.877" style="fill:#006363; stroke:#000000;stroke-width:0"/>
<circle fill="#006363" stroke="#006363" stroke-width="0" cx="694.531" cy="341.248" r="21.3333"/>
<circle fill="#006363" stroke="#006363" stroke-width="0" cx="769.216" cy="138.503" r="21.3333"/>
<polygon points="1256,469.333 256,1469.33 -744,469.333" style="fill:#000000; stroke:#000000;stroke-width:0"/>
<polygon points="-744,42.6667 256,-957.333 1256,42.6667" style="fill:#000000; stroke:#000000;stroke-width:0"/>
<circle fill="#a64b00" stroke="#a64b00" stroke-width="0" cx="-63.3158" cy="382.201" r="21.3333"/>
<circle fill="#a64b00" stroke="#a64b00" stroke-width="0" cx="-274.031" cy="329.308" r="21.3333"/>
<circle fill="#a64b00" stroke="#a64b00" stroke-width="0" cx="694.531" cy="341.248" r="21.3333"/>
<circle fill="#a64b00" stroke="#a64b00" stroke-width="0" cx="769.216" cy="138.503" r="21.3333"/>
<circle fill="#a64b00" stroke="#a64b00" stroke-width="0" cx="138.723" cy="268.563" r="21.3333"/>
</svg>
