<?xml version="1.0" encoding="utf-8"?> <!-- Generator: Adobe Illustrator 13.0.0, SVG Export Plug-In . SVG Version: 6.00 Build 14948)  --> <svg version="1.2" baseProfile="tiny" id="Layer_1" xmlns="http://www.w3.org/2000/svg" xmlns:xlink="http://www.w3.org/1999/xlink" x="0px" y="0px" width="512px" height="512px" viewBox="0 0 512 512" xml:space="preserve">
<polygon points="0,0 512,0 512,512 0,512" style="fill:#ffffff; stroke:#000000;stroke-width:0"/>
<polygon points="-376.359,225.348 -399.061,189.222 -212.828,72.1907 -190.126,108.316" style="fill:#006363; stroke:#000000;stroke-width:0"/>
<circle fill="#006363" stroke="#006363" stroke-width="0" cx="-387.71" cy="207.285" r="21.3333"/>
<circle fill="#006363" stroke="#006363" stroke-width="0" cx="-201.477" cy="90.2536" r="21.3333"/>
<polygon points="830.336,241.727 870.607,227.63 939.314,423.903 899.043,438" style="fill:#006363; stroke:#000000;stroke-width:0"/>
<circle fill="#006363" stroke="#006363" stroke-width="0" cx="850.471" cy="234.678" r="21.3333"/>
<circle fill="#006363" stroke="#006363" stroke-width="0" cx="919.178" cy="430.952" r="21.3333"/>
<polygon points="1256,469.333 256,1469.33 -744,469.333" style="fill:#000000; stroke:#000000;stroke-width:0"/>
<polygon points="-744,42.6667 256,-957.333 1256,42.6667" style="fill:#000000; stroke:#000000;stroke-width:0"/>
<circle fill="#a64b00" stroke="#a64b00" stroke-width="0" cx="-387.71" cy="207.285" r="21.3333"/>
<circle fill="#a64b00" stroke="#a64b00" stroke-width="0" cx="-201.477" cy="90.2536" r="21.3333"/>
<circle fill="#a64b00" stroke="#a64b00" stroke-width="0" cx="850.471" cy="234.678" r="21.3333"/>
<circle fill="#a64b00" stroke="#a64b00" stroke-width="0" cx="919.178" cy="430.952" r="21.3333"/>
<circle fill="#a64b00" stroke="#a64b00" stroke-width="0" cx="-147.617" cy="383.049" r="21.3333"/>
</svg>
