<?xml version="1.0" encoding="utf-8"?> <!-- Generator: Adobe Illustrator 13.0.0, SVG Export Plug-In . SVG Version: 6.00 Build 14948)  --> <svg version="1.2" baseProfile="tiny" id="Layer_1" xmlns="http://www.w3.org/2000/svg" xmlns:xlink="http://www.w3.org/1999/xlink" x="0px" y="0px" width="512px" height="512px" viewBox="0 0 512 512" xml:space="preserve">
<polygon points="0,0 512,0 512,512 0,512" style="fill:#ffffff; stroke:#000000;stroke-width:0"/>
<polygon points="-197.221,322.945 -175.916,285.978 6.25514,390.963 -15.049,427.93" style="fill:#006363; stroke:#000000;stroke-width:0"/>
<circle fill="#006363" stroke="#006363" stroke-width="0" cx="-186.569" cy="304.462" r="21.3333"/>
<circle fill="#006363" stroke="#006363" stroke-width="0" cx="-4.39695" cy="409.447" r="21.3333"/>
<polygon points="649.55,177.94 690.789,188.888 636.39,393.792 595.152,382.844" style="fill:#006363; stroke:#000000;stroke-width:0"/>
<circle fill="#006363" stroke="#006363" stroke-width="0" cx="670.17" cy="183.414" r="21.3333"/>
<circle fill="#006363" stroke="#006363" stroke-width="0" cx="615.771" cy="388.318" r="21.3333"/>
<polygon points="1256,469.333 256,1469.33 -744,469.333" style="fill:#000000; stroke:#000000;stroke-width:0"/>
<polygon points="-744,42.6667 256,-957.333 1256,42.6667" style="fill:#000000; stroke:#000000;stroke-width:0"/>
<circle fill="#a64b00" stroke="#a64b00" stroke-width="0" cx="-186.569" cy="304.462" r="21.3333"/>
<circle fill="#a64b00" stroke="#a64b00" stroke-width="0" cx="-4.39695" cy="409.447" r="21.3333"/>
<circle fill="#a64b00" stroke="#a64b00" stroke-width="0" cx="670.17" cy="183.414" r="21.3333"/>
<circle fill="#a64b00" stroke="#a64b00" stroke-width="0" cx="615.771" cy="388.318" r="21.3333"/>
<circle fill="#a64b00" stroke="#a64b00" stroke-width="0" cx="305.158" cy="316.266" r="21.3333"/>
</svg>
