<?xml version="1.0" encoding="utf-8"?> <!-- Generator: Adobe Illustrator 13.0.0, SVG Export Plug-In . SVG Version: 6.00 Build 14948)  --> <svg version="1.2" baseProfile="tiny" id="Layer_1" xmlns="http://www.w3.org/2000/svg" xmlns:xlink="http://www.w3.org/1999/xlink" x="0px" y="0px" width="512px" height="512px" viewBox="0 0 512 512" xml:space="preserve">
<polygon points="0,0 512,0 512,512 0,512" style="fill:#ffffff; stroke:#000000;stroke-width:0"/>
<polygon points="-385.358,309.781 -413.673,277.864 -251.275,133.796 -222.961,165.714" style="fill:#006363; stroke:#000000;stroke-width:0"/>
<circle fill="#006363" stroke="#006363" stroke-width="0" cx="-399.516" cy="293.822" r="21.3333"/>
<circle fill="#006363" stroke="#006363" stroke-width="0" cx="-237.118" cy="149.755" r="21.3333"/>
<polygon points="931.525,215.012 970.826,231.621 888.471,426.501 849.17,409.893" style="fill:#006363; stroke:#000000;stroke-width:0"/>
<circle fill="#006363" stroke="#006363" stroke-width="0" cx="951.176" cy="223.317" r="21.3333"/>
<circle fill="#006363" stroke="#006363" stroke-width="0" cx="868.821" cy="418.197" r="21.3333"/>
<polygon points="1256,469.333 256,1469.33 -744,469.333" style="fill:#000000; stroke:#000000;stroke-width:0"/>
<polygon points="-744,42.6667 256,-957.333 1256,42.6667" style="fill:#000000; stroke:#000000;stroke-width:0"/>
<circle fill="#a64b00" stroke="#a64b00" stroke-width="0" cx="-399.516" cy="293.822" r="21.3333"/>
<circle fill="#a64b00" stroke="#a64b00" stroke-width="0" cx="-237.118" cy="149.755" r="21.3333"/>
<circle fill="#a64b00" stroke="#a64b00" stroke-width="0" cx="951.176" cy="223.317" r="21.3333"/>
<circle fill="#a64b00" stroke="#a64b00" stroke-width="0" cx="868.821" cy="418.197" r="21.3333"/>
<circle fill="#a64b00" stroke="#a64b00" stroke-width="0" cx="405.055" cy="232.005" r="21.3333"/>
</svg>
