<?xml version="1.0" encoding="utf-8"?> <!-- Generator: Adobe Illustrator 13.0.0, SVG Export Plug-In . SVG Version: 6.00 Build 14948)  --> <svg version="1.2" baseProfile="tiny" id="Layer_1" xmlns="http://www.w3.org/2000/svg" xmlns:xlink="http://www.w3.org/1999/xlink" x="0px" y="0px" width="512px" height="512px" viewBox="0 0 512 512" xml:space="preserve">
<polygon points="0,0 512,0 512,512 0,512" style="fill:#ffffff; stroke:#000000;stroke-width:0"/>
<polygon points="-287.061,424.211 -328.249,435.347 -384.016,229.074 -342.828,217.939" style="fill:#006363; stroke:#000000;stroke-width:0"/>
<circle fill="#006363" stroke="#006363" stroke-width="0" cx="-307.655" cy="429.779" r="21.3333"/>
<circle fill="#006363" stroke="#006363" stroke-width="0" cx="-363.422" cy="223.507" r="21.3333"/>
<polygon points="1000.76,228.065 1027.31,261.469 855.023,398.384 828.478,364.98" style="fill:#006363; stroke:#000000;stroke-width:0"/>
<circle fill="#006363" stroke="#006363" stroke-width="0" cx="1014.04" cy="244.767" r="21.3333"/>
<circle fill="#006363" stroke="#006363" stroke-width="0" cx="841.751" cy="381.682" r="21.3333"/>
<polygon points="1256,469.333 256,1469.33 -744,469.333" style="fill:#000000; stroke:#000000;stroke-width:0"/>
<polygon points="-744,42.6667 256,-957.333 1256,42.6667" style="fill:#000000; stroke:#000000;stroke-width:0"/>
<circle fill="#a64b00" stroke="#a64b00" stroke-width="0" cx="-307.655" cy="429.779" r="21.3333"/>
<circle fill="#a64b00" stroke="#a64b00" stroke-width="0" cx="-363.422" cy="223.507" r="21.3333"/>
<circle fill="#a64b00" stroke="#a64b00" stroke-width="0" cx="1014.04" cy="244.767" r="21.3333"/>
<circle fill="#a64b00" stroke="#a64b00" stroke-width="0" cx="841.751" cy="381.682" r="21.3333"/>
<circle fill="#a64b00" stroke="#a64b00" stroke-width="0" cx="846.203" cy="188.865" r="21.3333"/>
</svg>
