<?xml version="1.0" encoding="utf-8"?> <!-- Generator: Adobe Illustrator 13.0.0, SVG Export Plug-In . SVG Version: 6.00 Build 14948)  --> <svg version="1.2" baseProfile="tiny" id="Layer_1" xmlns="http://www.w3.org/2000/svg" xmlns:xlink="http://www.w3.org/1999/xlink" x="0px" y="0px" width="512px" height="512px" viewBox="0 0 512 512" xml:space="preserve">
<polygon points="0,0 512,0 512,512 0,512" style="fill:#ffffff; stroke:#000000;stroke-width:0"/>
<polygon points="9.81059,80.462 52.4342,78.545 62.1214,293.938 19.4978,295.855" style="fill:#006363; stroke:#000000;stroke-width:0"/>
<circle fill="#006363" stroke="#006363" stroke-width="0" cx="31.1224" cy="79.5035" r="21.3333"/>
<circle fill="#006363" stroke="#006363" stroke-width="0" cx="40.8096" cy="294.896" r="21.3333"/>
<polygon points="455.194,190.662 497.79,188.203 510.013,399.941 467.417,402.4" style="fill:#006363; stroke:#000000;stroke-width:0"/>
<circle fill="#006363" stroke="#006363" stroke-width="0" cx="476.492" cy="189.432" r="21.3333"/>
<circle fill="#006363" stroke="#006363" stroke-width="0" cx="488.715" cy="401.171" r="21.3333"/>
<polygon points="1256,469.333 256,1469.33 -744,469.333" style="fill:#000000; stroke:#000000;stroke-width:0"/>
<polygon points="-744,42.6667 256,-957.333 1256,42.6667" style="fill:#000000; stroke:#000000;stroke-width:0"/>
<circle fill="#a64b00" stroke="#a64b00" stroke-width="0" cx="31.1224" cy="79.5035" r="21.3333"/>
<circle fill="#a64b00" stroke="#a64b00" stroke-width="0" cx="40.8096" cy="294.896" r="21.3333"/>
<circle fill="#a64b00" stroke="#a64b00" stroke-width="0" cx="476.492" cy="189.432" r="21.3333"/>
<circle fill="#a64b00" stroke="#a64b00" stroke-width="0" cx="488.715" cy="401.171" r="21.3333"/>
<circle fill="#a64b00" stroke="#a64b00" stroke-width="0" cx="147.472" cy="277.04" r="21.3333"/>
</svg>
