<?xml version="1.0" encoding="utf-8"?> <!-- Generator: Adobe Illustrator 13.0.0, SVG Export Plug-In . SVG Version: 6.00 Build 14948)  --> <svg version="1.2" baseProfile="tiny" id="Layer_1" xmlns="http://www.w3.org/2000/svg" xmlns:xlink="http://www.w3.org/1999/xlink" x="0px" y="0px" width="512px" height="512px" viewBox="0 0 512 512" xml:space="preserve">
<polygon points="0,0 512,0 512,512 0,512" style="fill:#ffffff; stroke:#000000;stroke-width:0"/>
<polygon points="17.0344,171.851 59.695,171.133 63.2734,383.883 20.6128,384.6" style="fill:#006363; stroke:#000000;stroke-width:0"/>
<circle fill="#006363" stroke="#006363" stroke-width="0" cx="38.3647" cy="171.492" r="21.3333"/>
<circle fill="#006363" stroke="#006363" stroke-width="0" cx="41.9431" cy="384.241" r="21.3333"/>
<polygon points="451.048,114.599 493.698,113.398 499.712,326.95 457.062,328.151" style="fill:#006363; stroke:#000000;stroke-width:0"/>
<circle fill="#006363" stroke="#006363" stroke-width="0" cx="472.373" cy="113.999" r="21.3333"/>
<circle fill="#006363" stroke="#006363" stroke-width="0" cx="478.387" cy="327.551" r="21.3333"/>
<polygon points="1256,469.333 256,1469.33 -744,469.333" style="fill:#000000; stroke:#000000;stroke-width:0"/>
<polygon points="-744,42.6667 256,-957.333 1256,42.6667" style="fill:#000000; stroke:#000000;stroke-width:0"/>
<circle fill="#a64b00" stroke="#a64b00" stroke-width="0" cx="38.3647" cy="171.492" r="21.3333"/>
<circle fill="#a64b00" stroke="#a64b00" stroke-width="0" cx="41.9431" cy="384.241" r="21.3333"/>
<circle fill="#a64b00" stroke="#a64b00" stroke-width="0" cx="472.373" cy="113.999" r="21.3333"/>
<circle fill="#a64b00" stroke="#a64b00" stroke-width="0" cx="478.387" cy="327.551" r="21.3333"/>
<circle fill="#a64b00" stroke="#a64b00" stroke-width="0" cx="327.883" cy="256" r="21.3333"/>
</svg>
