<?xml version="1.0" encoding="utf-8"?> <!-- Generator: Adobe Illustrator 13.0.0, SVG Export Plug-In . SVG Version: 6.00 Build 14948)  --> <svg version="1.2" baseProfile="tiny" id="Layer_1" xmlns="http://www.w3.org/2000/svg" xmlns:xlink="http://www.w3.org/1999/xlink" x="0px" y="0px" width="512px" height="512px" viewBox="0 0 512 512" xml:space="preserve">
<polygon points="0,0 512,0 512,512 0,512" style="fill:#ffffff; stroke:#000000;stroke-width:0"/>
<polygon points="-171.56,347.694 -192.325,384.967 -374.08,283.711 -353.315,246.438" style="fill:#006363; stroke:#000000;stroke-width:0"/>
<circle fill="#006363" stroke="#006363" stroke-width="0" cx="-181.942" cy="366.33" r="21.3333"/>
<circle fill="#006363" stroke="#006363" stroke-width="0" cx="-363.697" cy="265.075" r="21.3333"/>
<polygon points="750.266,315.792 769.188,277.551 966.488,375.175 947.566,413.416" style="fill:#006363; stroke:#000000;stroke-width:0"/>
<circle fill="#006363" stroke="#006363" stroke-width="0" cx="759.727" cy="296.672" r="21.3333"/>
<circle fill="#006363" stroke="#006363" stroke-width="0" cx="957.027" cy="394.296" r="21.3333"/>
<polygon points="1256,469.333 256,1469.33 -744,469.333" style="fill:#000000; stroke:#000000;stroke-width:0"/>
<polygon points="-744,42.6667 256,-957.333 1256,42.6667" style="fill:#000000; stroke:#000000;stroke-width:0"/>
<circle fill="#a64b00" stroke="#a64b00" stroke-width="0" cx="-181.942" cy="366.33" r="21.3333"/>
<circle fill="#a64b00" stroke="#a64b00" stroke-width="0" cx="-363.697" cy="265.075" r="21.3333"/>
<circle fill="#a64b00" stroke="#a64b00" stroke-width="0" cx="759.727" cy="296.672" r="21.3333"/>
<circle fill="#a64b00" stroke="#a64b00" stroke-width="0" cx="957.027" cy="394.296" r="21.3333"/>
<circle fill="#a64b00" stroke="#a64b00" stroke-width="0" cx="-98.1041" cy="392.59" r="21.3333"/>
</svg>
