<?xml version="1.0" encoding="utf-8"?> <!-- Generator: Adobe Illustrator 13.0.0, SVG Export Plug-In . SVG Version: 6.00 Build 14948)  --> <svg version="1.2" baseProfile="tiny" id="Layer_1" xmlns="http://www.w3.org/2000/svg" xmlns:xlink="http://www.w3.org/1999/xlink" x="0px" y="0px" width="512px" height="512px" viewBox="0 0 512 512" xml:space="preserve">
<polygon points="0,0 512,0 512,512 0,512" style="fill:#ffffff; stroke:#000000;stroke-width:0"/>
<polygon points="8.64081,66.4887 51.2544,64.362 61.8254,276.178 19.2118,278.305" style="fill:#006363; stroke:#000000;stroke-width:0"/>
<circle fill="#006363" stroke="#006363" stroke-width="0" cx="29.9476" cy="65.4254" r="21.3333"/>
<circle fill="#006363" stroke="#006363" stroke-width="0" cx="40.5186" cy="277.241" r="21.3333"/>
<polygon points="456.03,202.886 498.612,200.197 512.1,413.788 469.518,416.477" style="fill:#006363; stroke:#000000;stroke-width:0"/>
<circle fill="#006363" stroke="#006363" stroke-width="0" cx="477.321" cy="201.541" r="21.3333"/>
<circle fill="#006363" stroke="#006363" stroke-width="0" cx="490.809" cy="415.132" r="21.3333"/>
<polygon points="1256,469.333 256,1469.33 -744,469.333" style="fill:#000000; stroke:#000000;stroke-width:0"/>
<polygon points="-744,42.6667 256,-957.333 1256,42.6667" style="fill:#000000; stroke:#000000;stroke-width:0"/>
<circle fill="#a64b00" stroke="#a64b00" stroke-width="0" cx="29.9476" cy="65.4254" r="21.3333"/>
<circle fill="#a64b00" stroke="#a64b00" stroke-width="0" cx="40.5186" cy="277.241" r="21.3333"/>
<circle fill="#a64b00" stroke="#a64b00" stroke-width="0" cx="477.321" cy="201.541" r="21.3333"/>
<circle fill="#a64b00" stroke="#a64b00" stroke-width="0" cx="490.809" cy="415.132" r="21.3333"/>
<circle fill="#a64b00" stroke="#a64b00" stroke-width="0" cx="76.3374" cy="282.118" r="21.3333"/>
</svg>
