<?xml version="1.0" encoding="utf-8"?> <!-- Generator: Adobe Illustrator 13.0.0, SVG Export Plug-In . SVG Version: 6.00 Build 14948)  --> <svg version="1.2" baseProfile="tiny" id="Layer_1" xmlns="http://www.w3.org/2000/svg" xmlns:xlink="http://www.w3.org/1999/xlink" x="0px" y="0px" width="512px" height="512px" viewBox="0 0 512 512" xml:space="preserve">
<polygon points="0,0 512,0 512,512 0,512" style="fill:#ffffff; stroke:#000000;stroke-width:0"/>
<polygon points="-200.523,352.007 -235.434,376.536 -354.56,206.993 -319.65,182.464" style="fill:#006363; stroke:#000000;stroke-width:0"/>
<circle fill="#006363" stroke="#006363" stroke-width="0" cx="-217.978" cy="364.272" r="21.3333"/>
<circle fill="#006363" stroke="#006363" stroke-width="0" cx="-337.105" cy="194.728" r="21.3333"/>
<polygon points="763.31,296.053 788.342,261.5 964.915,389.42 939.883,423.972" style="fill:#006363; stroke:#000000;stroke-width:0"/>
<circle fill="#006363" stroke="#006363" stroke-width="0" cx="775.826" cy="278.777" r="21.3333"/>
<circle fill="#006363" stroke="#006363" stroke-width="0" cx="952.399" cy="406.696" r="21.3333"/>
<polygon points="1256,469.333 256,1469.33 -744,469.333" style="fill:#000000; stroke:#000000;stroke-width:0"/>
<polygon points="-744,42.6667 256,-957.333 1256,42.6667" style="fill:#000000; stroke:#000000;stroke-width:0"/>
<circle fill="#a64b00" stroke="#a64b00" stroke-width="0" cx="-217.978" cy="364.272" r="21.3333"/>
<circle fill="#a64b00" stroke="#a64b00" stroke-width="0" cx="-337.105" cy="194.728" r="21.3333"/>
<circle fill="#a64b00" stroke="#a64b00" stroke-width="0" cx="775.826" cy="278.777" r="21.3333"/>
<circle fill="#a64b00" stroke="#a64b00" stroke-width="0" cx="952.399" cy="406.696" r="21.3333"/>
<circle fill="#a64b00" stroke="#a64b00" stroke-width="0" cx="-108.842" cy="220.861" r="21.3333"/>
</svg>
