<?xml version="1.0" encoding="utf-8"?> <!-- Generator: Adobe Illustrator 13.0.0, SVG Export Plug-In . SVG Version: 6.00 Build 14948)  --> <svg version="1.2" baseProfile="tiny" id="Layer_1" xmlns="http://www.w3.org/2000/svg" xmlns:xlink="http://www.w3.org/1999/xlink" x="0px" y="0px" width="512px" height="512px" viewBox="0 0 512 512" xml:space="preserve">
<polygon points="0,0 512,0 512,512 0,512" style="fill:#ffffff; stroke:#000000;stroke-width:0"/>
<polygon points="-101.37,51.9399 -92.1862,93.6064 -294.739,138.253 -303.924,96.5869" style="fill:#006363; stroke:#000000;stroke-width:0"/>
<circle fill="#006363" stroke="#006363" stroke-width="0" cx="-96.7783" cy="72.7732" r="21.3333"/>
<circle fill="#006363" stroke="#006363" stroke-width="0" cx="-299.332" cy="117.42" r="21.3333"/>
<polygon points="746.815,339.766 707.322,323.618 788.309,125.553 827.802,141.701" style="fill:#006363; stroke:#000000;stroke-width:0"/>
<circle fill="#006363" stroke="#006363" stroke-width="0" cx="727.068" cy="331.692" r="21.3333"/>
<circle fill="#006363" stroke="#006363" stroke-width="0" cx="808.056" cy="133.627" r="21.3333"/>
<polygon points="1256,469.333 256,1469.33 -744,469.333" style="fill:#000000; stroke:#000000;stroke-width:0"/>
<polygon points="-744,42.6667 256,-957.333 1256,42.6667" style="fill:#000000; stroke:#000000;stroke-width:0"/>
<circle fill="#a64b00" stroke="#a64b00" stroke-width="0" cx="-96.7783" cy="72.7732" r="21.3333"/>
<circle fill="#a64b00" stroke="#a64b00" stroke-width="0" cx="-299.332" cy="117.42" r="21.3333"/>
<circle fill="#a64b00" stroke="#a64b00" stroke-width="0" cx="727.068" cy="331.692" r="21.3333"/>
<circle fill="#a64b00" stroke="#a64b00" stroke-width="0" cx="808.056" cy="133.627" r="21.3333"/>
<circle fill="#a64b00" stroke="#a64b00" stroke-width="0" cx="71.9104" cy="134.996" r="21.3333"/>
</svg>
