<?xml version="1.0" encoding="utf-8"?> <!-- Generator: Adobe Illustrator 13.0.0, SVG Export Plug-In . SVG Version: 6.00 Build 14948)  --> <svg version="1.2" baseProfile="tiny" id="Layer_1" xmlns="http://www.w3.org/2000/svg" xmlns:xlink="http://www.w3.org/1999/xlink" x="0px" y="0px" width="512px" height="512px" viewBox="0 0 512 512" xml:space="preserve">
<polygon points="0,0 512,0 512,512 0,512" style="fill:#ffffff; stroke:#000000;stroke-width:0"/>
<polygon points="-128.014,138.662 -86.6577,128.171 -33.5698,337.442 -74.9265,347.934" style="fill:#006363; stroke:#000000;stroke-width:0"/>
<circle fill="#006363" stroke="#006363" stroke-width="0" cx="-107.336" cy="133.416" r="21.3333"/>
<circle fill="#006363" stroke="#006363" stroke-width="0" cx="-54.2481" cy="342.688" r="21.3333"/>
<polygon points="704.743,192.386 727.216,228.654 545.508,341.243 523.036,304.974" style="fill:#006363; stroke:#000000;stroke-width:0"/>
<circle fill="#006363" stroke="#006363" stroke-width="0" cx="715.98" cy="210.52" r="21.3333"/>
<circle fill="#006363" stroke="#006363" stroke-width="0" cx="534.272" cy="323.108" r="21.3333"/>
<polygon points="1256,469.333 256,1469.33 -744,469.333" style="fill:#000000; stroke:#000000;stroke-width:0"/>
<polygon points="-744,42.6667 256,-957.333 1256,42.6667" style="fill:#000000; stroke:#000000;stroke-width:0"/>
<circle fill="#a64b00" stroke="#a64b00" stroke-width="0" cx="-107.336" cy="133.416" r="21.3333"/>
<circle fill="#a64b00" stroke="#a64b00" stroke-width="0" cx="-54.2481" cy="342.688" r="21.3333"/>
<circle fill="#a64b00" stroke="#a64b00" stroke-width="0" cx="715.98" cy="210.52" r="21.3333"/>
<circle fill="#a64b00" stroke="#a64b00" stroke-width="0" cx="534.272" cy="323.108" r="21.3333"/>
<circle fill="#a64b00" stroke="#a64b00" stroke-width="0" cx="338.565" cy="335.347" r="21.3333"/>
</svg>
