<?xml version="1.0" encoding="utf-8"?> <!-- Generator: Adobe Illustrator 13.0.0, SVG Export Plug-In . SVG Version: 6.00 Build 14948)  --> <svg version="1.2" baseProfile="tiny" id="Layer_1" xmlns="http://www.w3.org/2000/svg" xmlns:xlink="http://www.w3.org/1999/xlink" x="0px" y="0px" width="512px" height="512px" viewBox="0 0 512 512" xml:space="preserve">
<polygon points="0,0 512,0 512,512 0,512" style="fill:#ffffff; stroke:#000000;stroke-width:0"/>
<polygon points="-40.233,228.213 1.11809,217.699 52.9081,421.395 11.557,431.908" style="fill:#006363; stroke:#000000;stroke-width:0"/>
<circle fill="#006363" stroke="#006363" stroke-width="0" cx="-19.5574" cy="222.956" r="21.3333"/>
<circle fill="#006363" stroke="#006363" stroke-width="0" cx="32.2326" cy="426.651" r="21.3333"/>
<polygon points="440.324,80.8438 475.281,56.38 599.393,233.725 564.436,258.189" style="fill:#006363; stroke:#000000;stroke-width:0"/>
<circle fill="#006363" stroke="#006363" stroke-width="0" cx="457.803" cy="68.6119" r="21.3333"/>
<circle fill="#006363" stroke="#006363" stroke-width="0" cx="581.915" cy="245.957" r="21.3333"/>
<polygon points="1256,469.333 256,1469.33 -744,469.333" style="fill:#000000; stroke:#000000;stroke-width:0"/>
<polygon points="-744,42.6667 256,-957.333 1256,42.6667" style="fill:#000000; stroke:#000000;stroke-width:0"/>
<circle fill="#a64b00" stroke="#a64b00" stroke-width="0" cx="-19.5574" cy="222.956" r="21.3333"/>
<circle fill="#a64b00" stroke="#a64b00" stroke-width="0" cx="32.2326" cy="426.651" r="21.3333"/>
<circle fill="#a64b00" stroke="#a64b00" stroke-width="0" cx="457.803" cy="68.6119" r="21.3333"/>
<circle fill="#a64b00" stroke="#a64b00" stroke-width="0" cx="581.915" cy="245.957" r="21.3333"/>
<circle fill="#a64b00" stroke="#a64b00" stroke-width="0" cx="232.745" cy="413.509" r="21.3333"/>
</svg>
