<?xml version="1.0" encoding="utf-8"?> <!-- Generator: Adobe Illustrator 13.0.0, SVG Export Plug-In . SVG Version: 6.00 Build 14948)  --> <svg version="1.2" baseProfile="tiny" id="Layer_1" xmlns="http://www.w3.org/2000/svg" xmlns:xlink="http://www.w3.org/1999/xlink" x="0px" y="0px" width="512px" height="512px" viewBox="0 0 512 512" xml:space="preserve">
<polygon points="0,0 512,0 512,512 0,512" style="fill:#ffffff; stroke:#000000;stroke-width:0"/>
<polygon points="-163.217,337.396 -166.821,379.911 -373.503,362.39 -369.9,319.876" style="fill:#006363; stroke:#000000;stroke-width:0"/>
<circle fill="#006363" stroke="#006363" stroke-width="0" cx="-165.019" cy="358.653" r="21.3333"/>
<circle fill="#006363" stroke="#006363" stroke-width="0" cx="-371.702" cy="341.133" r="21.3333"/>
<polygon points="742.072,336.012 754.714,295.261 963.848,360.145 951.205,400.896" style="fill:#006363; stroke:#000000;stroke-width:0"/>
<circle fill="#006363" stroke="#006363" stroke-width="0" cx="748.393" cy="315.636" r="21.3333"/>
<circle fill="#006363" stroke="#006363" stroke-width="0" cx="957.527" cy="380.52" r="21.3333"/>
<polygon points="1256,469.333 256,1469.33 -744,469.333" style="fill:#000000; stroke:#000000;stroke-width:0"/>
<polygon points="-744,42.6667 256,-957.333 1256,42.6667" style="fill:#000000; stroke:#000000;stroke-width:0"/>
<circle fill="#a64b00" stroke="#a64b00" stroke-width="0" cx="-165.019" cy="358.653" r="21.3333"/>
<circle fill="#a64b00" stroke="#a64b00" stroke-width="0" cx="-371.702" cy="341.133" r="21.3333"/>
<circle fill="#a64b00" stroke="#a64b00" stroke-width="0" cx="748.393" cy="315.636" r="21.3333"/>
<circle fill="#a64b00" stroke="#a64b00" stroke-width="0" cx="957.527" cy="380.52" r="21.3333"/>
<circle fill="#a64b00" stroke="#a64b00" stroke-width="0" cx="-87.9629" cy="344.887" r="21.3333"/>
</svg>
