<?xml version="1.0" encoding="utf-8"?> <!-- Generator: Adobe Illustrator 13.0.0, SVG Export Plug-In . SVG Version: 6.00 Build 14948)  --> <svg version="1.2" baseProfile="tiny" id="Layer_1" xmlns="http://www.w3.org/2000/svg" xmlns:xlink="http://www.w3.org/1999/xlink" x="0px" y="0px" width="512px" height="512px" viewBox="0 0 512 512" xml:space="preserve">
<polygon points="0,0 512,0 512,512 0,512" style="fill:#ffffff; stroke:#000000;stroke-width:0"/>
<polygon points="-18.6467,147.82 23.4957,141.152 57.8094,358.018 15.667,364.686" style="fill:#006363; stroke:#000000;stroke-width:0"/>
<circle fill="#006363" stroke="#006363" stroke-width="0" cx="2.42447" cy="144.486" r="21.3333"/>
<circle fill="#006363" stroke="#006363" stroke-width="0" cx="36.7382" cy="361.352" r="21.3333"/>
<polygon points="450.845,157.127 491.681,144.762 553.754,349.762 512.918,362.127" style="fill:#006363; stroke:#000000;stroke-width:0"/>
<circle fill="#006363" stroke="#006363" stroke-width="0" cx="471.263" cy="150.944" r="21.3333"/>
<circle fill="#006363" stroke="#006363" stroke-width="0" cx="533.336" cy="355.945" r="21.3333"/>
<polygon points="1256,469.333 256,1469.33 -744,469.333" style="fill:#000000; stroke:#000000;stroke-width:0"/>
<polygon points="-744,42.6667 256,-957.333 1256,42.6667" style="fill:#000000; stroke:#000000;stroke-width:0"/>
<circle fill="#a64b00" stroke="#a64b00" stroke-width="0" cx="2.42447" cy="144.486" r="21.3333"/>
<circle fill="#a64b00" stroke="#a64b00" stroke-width="0" cx="36.7382" cy="361.352" r="21.3333"/>
<circle fill="#a64b00" stroke="#a64b00" stroke-width="0" cx="471.263" cy="150.944" r="21.3333"/>
<circle fill="#a64b00" stroke="#a64b00" stroke-width="0" cx="533.336" cy="355.945" r="21.3333"/>
<circle fill="#a64b00" stroke="#a64b00" stroke-width="0" cx="391.776" cy="211.736" r="21.3333"/>
</svg>
