<?xml version="1.0" encoding="utf-8"?> <!-- Generator: Adobe Illustrator 13.0.0, SVG Export Plug-In . SVG Version: 6.00 Build 14948)  --> <svg version="1.2" baseProfile="tiny" id="Layer_1" xmlns="http://www.w3.org/2000/svg" xmlns:xlink="http://www.w3.org/1999/xlink" x="0px" y="0px" width="512px" height="512px" viewBox="0 0 512 512" xml:space="preserve">
<polygon points="0,0 512,0 512,512 0,512" style="fill:#ffffff; stroke:#000000;stroke-width:0"/>
<polygon points="-46.6735,247.514 -5.59893,235.967 52.1247,441.304 11.0502,452.85" style="fill:#006363; stroke:#000000;stroke-width:0"/>
<circle fill="#006363" stroke="#006363" stroke-width="0" cx="-26.1362" cy="241.74" r="21.3333"/>
<circle fill="#006363" stroke="#006363" stroke-width="0" cx="31.5874" cy="447.077" r="21.3333"/>
<polygon points="429.587,105.9 457.957,74.0318 619.708,218.03 591.338,249.898" style="fill:#006363; stroke:#000000;stroke-width:0"/>
<circle fill="#006363" stroke="#006363" stroke-width="0" cx="443.772" cy="89.9658" r="21.3333"/>
<circle fill="#006363" stroke="#006363" stroke-width="0" cx="605.523" cy="233.964" r="21.3333"/>
<polygon points="1256,469.333 256,1469.33 -744,469.333" style="fill:#000000; stroke:#000000;stroke-width:0"/>
<polygon points="-744,42.6667 256,-957.333 1256,42.6667" style="fill:#000000; stroke:#000000;stroke-width:0"/>
<circle fill="#a64b00" stroke="#a64b00" stroke-width="0" cx="-26.1362" cy="241.74" r="21.3333"/>
<circle fill="#a64b00" stroke="#a64b00" stroke-width="0" cx="31.5874" cy="447.077" r="21.3333"/>
<circle fill="#a64b00" stroke="#a64b00" stroke-width="0" cx="443.772" cy="89.9658" r="21.3333"/>
<circle fill="#a64b00" stroke="#a64b00" stroke-width="0" cx="605.523" cy="233.964" r="21.3333"/>
<circle fill="#a64b00" stroke="#a64b00" stroke-width="0" cx="189.373" cy="351.425" r="21.3333"/>
</svg>
