<?xml version="1.0" encoding="utf-8"?> <!-- Generator: Adobe Illustrator 13.0.0, SVG Export Plug-In . SVG Version: 6.00 Build 14948)  --> <svg version="1.2" baseProfile="tiny" id="Layer_1" xmlns="http://www.w3.org/2000/svg" xmlns:xlink="http://www.w3.org/1999/xlink" x="0px" y="0px" width="512px" height="512px" viewBox="0 0 512 512" xml:space="preserve">
<polygon points="0,0 512,0 512,512 0,512" style="fill:#ffffff; stroke:#000000;stroke-width:0"/>
<polygon points="13.8303,131.986 56.4784,130.729 62.7084,342.148 20.0603,343.404" style="fill:#006363; stroke:#000000;stroke-width:0"/>
<circle fill="#006363" stroke="#006363" stroke-width="0" cx="35.1543" cy="131.357" r="21.3333"/>
<circle fill="#006363" stroke="#006363" stroke-width="0" cx="41.3843" cy="342.776" r="21.3333"/>
<polygon points="452.332,148.126 494.963,146.39 503.686,360.541 461.054,362.278" style="fill:#006363; stroke:#000000;stroke-width:0"/>
<circle fill="#006363" stroke="#006363" stroke-width="0" cx="473.648" cy="147.258" r="21.3333"/>
<circle fill="#006363" stroke="#006363" stroke-width="0" cx="482.37" cy="361.409" r="21.3333"/>
<polygon points="1256,469.333 256,1469.33 -744,469.333" style="fill:#000000; stroke:#000000;stroke-width:0"/>
<polygon points="-744,42.6667 256,-957.333 1256,42.6667" style="fill:#000000; stroke:#000000;stroke-width:0"/>
<circle fill="#a64b00" stroke="#a64b00" stroke-width="0" cx="35.1543" cy="131.357" r="21.3333"/>
<circle fill="#a64b00" stroke="#a64b00" stroke-width="0" cx="41.3843" cy="342.776" r="21.3333"/>
<circle fill="#a64b00" stroke="#a64b00" stroke-width="0" cx="473.648" cy="147.258" r="21.3333"/>
<circle fill="#a64b00" stroke="#a64b00" stroke-width="0" cx="482.37" cy="361.409" r="21.3333"/>
<circle fill="#a64b00" stroke="#a64b00" stroke-width="0" cx="371.038" cy="261.079" r="21.3333"/>
</svg>
