<?xml version="1.0" encoding="utf-8"?> <!-- Generator: Adobe Illustrator 13.0.0, SVG Export Plug-In . SVG Version: 6.00 Build 14948)  --> <svg version="1.2" baseProfile="tiny" id="Layer_1" xmlns="http://www.w3.org/2000/svg" xmlns:xlink="http://www.w3.org/1999/xlink" x="0px" y="0px" width="512px" height="512px" viewBox="0 0 512 512" xml:space="preserve">
<polygon points="0,0 512,0 512,512 0,512" style="fill:#ffffff; stroke:#000000;stroke-width:0"/>
<polygon points="-341.445,404.24 -381.773,390.307 -311.134,185.848 -270.806,199.78" style="fill:#006363; stroke:#000000;stroke-width:0"/>
<circle fill="#006363" stroke="#006363" stroke-width="0" cx="-361.609" cy="397.274" r="21.3333"/>
<circle fill="#006363" stroke="#006363" stroke-width="0" cx="-290.97" cy="192.814" r="21.3333"/>
<polygon points="961.928,220.865 996.342,246.087 874.001,413.017 839.587,387.795" style="fill:#006363; stroke:#000000;stroke-width:0"/>
<circle fill="#006363" stroke="#006363" stroke-width="0" cx="979.135" cy="233.476" r="21.3333"/>
<circle fill="#006363" stroke="#006363" stroke-width="0" cx="856.794" cy="400.406" r="21.3333"/>
<polygon points="1256,469.333 256,1469.33 -744,469.333" style="fill:#000000; stroke:#000000;stroke-width:0"/>
<polygon points="-744,42.6667 256,-957.333 1256,42.6667" style="fill:#000000; stroke:#000000;stroke-width:0"/>
<circle fill="#a64b00" stroke="#a64b00" stroke-width="0" cx="-361.609" cy="397.274" r="21.3333"/>
<circle fill="#a64b00" stroke="#a64b00" stroke-width="0" cx="-290.97" cy="192.814" r="21.3333"/>
<circle fill="#a64b00" stroke="#a64b00" stroke-width="0" cx="979.135" cy="233.476" r="21.3333"/>
<circle fill="#a64b00" stroke="#a64b00" stroke-width="0" cx="856.794" cy="400.406" r="21.3333"/>
<circle fill="#a64b00" stroke="#a64b00" stroke-width="0" cx="673.066" cy="277.765" r="21.3333"/>
</svg>
