<?xml version="1.0" encoding="utf-8"?> <!-- Generator: Adobe Illustrator 13.0.0, SVG Export Plug-In . SVG Version: 6.00 Build 14948)  --> <svg version="1.2" baseProfile="tiny" id="Layer_1" xmlns="http://www.w3.org/2000/svg" xmlns:xlink="http://www.w3.org/1999/xlink" x="0px" y="0px" width="512px" height="512px" viewBox="0 0 512 512" xml:space="preserve">
<polygon points="0,0 512,0 512,512 0,512" style="fill:#ffffff; stroke:#000000;stroke-width:0"/>
<polygon points="-159.413,426.227 -194.339,401.719 -70.3776,225.059 -35.4515,249.566" style="fill:#006363; stroke:#000000;stroke-width:0"/>
<circle fill="#006363" stroke="#006363" stroke-width="0" cx="-176.876" cy="413.973" r="21.3333"/>
<circle fill="#006363" stroke="#006363" stroke-width="0" cx="-52.9146" cy="237.312" r="21.3333"/>
<polygon points="578.606,246.04 610.173,217.334 754.494,376.043 722.928,404.748" style="fill:#006363; stroke:#000000;stroke-width:0"/>
<circle fill="#006363" stroke="#006363" stroke-width="0" cx="594.39" cy="231.687" r="21.3333"/>
<circle fill="#006363" stroke="#006363" stroke-width="0" cx="738.711" cy="390.396" r="21.3333"/>
<polygon points="1256,469.333 256,1469.33 -744,469.333" style="fill:#000000; stroke:#000000;stroke-width:0"/>
<polygon points="-744,42.6667 256,-957.333 1256,42.6667" style="fill:#000000; stroke:#000000;stroke-width:0"/>
<circle fill="#a64b00" stroke="#a64b00" stroke-width="0" cx="-176.876" cy="413.973" r="21.3333"/>
<circle fill="#a64b00" stroke="#a64b00" stroke-width="0" cx="-52.9146" cy="237.312" r="21.3333"/>
<circle fill="#a64b00" stroke="#a64b00" stroke-width="0" cx="594.39" cy="231.687" r="21.3333"/>
<circle fill="#a64b00" stroke="#a64b00" stroke-width="0" cx="738.711" cy="390.396" r="21.3333"/>
<circle fill="#a64b00" stroke="#a64b00" stroke-width="0" cx="261.014" cy="239.942" r="21.3333"/>
</svg>
