<?xml version="1.0" encoding="utf-8"?> <!-- Generator: Adobe Illustrator 13.0.0, SVG Export Plug-In . SVG Version: 6.00 Build 14948)  --> <svg version="1.2" baseProfile="tiny" id="Layer_1" xmlns="http://www.w3.org/2000/svg" xmlns:xlink="http://www.w3.org/1999/xlink" x="0px" y="0px" width="512px" height="512px" viewBox="0 0 512 512" xml:space="preserve">
<polygon points="0,0 512,0 512,512 0,512" style="fill:#ffffff; stroke:#000000;stroke-width:0"/>
<polygon points="-242.07,198.405 -221.694,160.918 -35.4653,262.141 -55.841,299.628" style="fill:#006363; stroke:#000000;stroke-width:0"/>
<circle fill="#006363" stroke="#006363" stroke-width="0" cx="-231.882" cy="179.661" r="21.3333"/>
<circle fill="#006363" stroke="#006363" stroke-width="0" cx="-45.6531" cy="280.884" r="21.3333"/>
<polygon points="606.061,402.528 589.606,363.162 785.034,281.473 801.489,320.839" style="fill:#006363; stroke:#000000;stroke-width:0"/>
<circle fill="#006363" stroke="#006363" stroke-width="0" cx="597.834" cy="382.845" r="21.3333"/>
<circle fill="#006363" stroke="#006363" stroke-width="0" cx="793.261" cy="301.156" r="21.3333"/>
<polygon points="1256,469.333 256,1469.33 -744,469.333" style="fill:#000000; stroke:#000000;stroke-width:0"/>
<polygon points="-744,42.6667 256,-957.333 1256,42.6667" style="fill:#000000; stroke:#000000;stroke-width:0"/>
<circle fill="#a64b00" stroke="#a64b00" stroke-width="0" cx="-231.882" cy="179.661" r="21.3333"/>
<circle fill="#a64b00" stroke="#a64b00" stroke-width="0" cx="-45.6531" cy="280.884" r="21.3333"/>
<circle fill="#a64b00" stroke="#a64b00" stroke-width="0" cx="597.834" cy="382.845" r="21.3333"/>
<circle fill="#a64b00" stroke="#a64b00" stroke-width="0" cx="793.261" cy="301.156" r="21.3333"/>
<circle fill="#a64b00" stroke="#a64b00" stroke-width="0" cx="206.729" cy="325.806" r="21.3333"/>
</svg>
