<?xml version="1.0" encoding="utf-8"?> <!-- Generator: Adobe Illustrator 13.0.0, SVG Export Plug-In . SVG Version: 6.00 Build 14948)  --> <svg version="1.2" baseProfile="tiny" id="Layer_1" xmlns="http://www.w3.org/2000/svg" xmlns:xlink="http://www.w3.org/1999/xlink" x="0px" y="0px" width="512px" height="512px" viewBox="0 0 512 512" xml:space="preserve">
<polygon points="0,0 512,0 512,512 0,512" style="fill:#ffffff; stroke:#000000;stroke-width:0"/>
<polygon points="-161.343,288.911 -144.555,328.136 -346.521,414.577 -363.309,375.352" style="fill:#006363; stroke:#000000;stroke-width:0"/>
<circle fill="#006363" stroke="#006363" stroke-width="0" cx="-152.949" cy="308.524" r="21.3333"/>
<circle fill="#006363" stroke="#006363" stroke-width="0" cx="-354.915" cy="394.964" r="21.3333"/>
<polygon points="734.674,399.804 725.764,358.079 936.195,313.142 945.105,354.868" style="fill:#006363; stroke:#000000;stroke-width:0"/>
<circle fill="#006363" stroke="#006363" stroke-width="0" cx="730.219" cy="378.941" r="21.3333"/>
<circle fill="#006363" stroke="#006363" stroke-width="0" cx="940.65" cy="334.005" r="21.3333"/>
<polygon points="1256,469.333 256,1469.33 -744,469.333" style="fill:#000000; stroke:#000000;stroke-width:0"/>
<polygon points="-744,42.6667 256,-957.333 1256,42.6667" style="fill:#000000; stroke:#000000;stroke-width:0"/>
<circle fill="#a64b00" stroke="#a64b00" stroke-width="0" cx="-152.949" cy="308.524" r="21.3333"/>
<circle fill="#a64b00" stroke="#a64b00" stroke-width="0" cx="-354.915" cy="394.964" r="21.3333"/>
<circle fill="#a64b00" stroke="#a64b00" stroke-width="0" cx="730.219" cy="378.941" r="21.3333"/>
<circle fill="#a64b00" stroke="#a64b00" stroke-width="0" cx="940.65" cy="334.005" r="21.3333"/>
<circle fill="#a64b00" stroke="#a64b00" stroke-width="0" cx="-55.1531" cy="297.185" r="21.3333"/>
</svg>
