<?xml version="1.0" encoding="utf-8"?> <!-- Generator: Adobe Illustrator 13.0.0, SVG Export Plug-In . SVG Version: 6.00 Build 14948)  --> <svg version="1.2" baseProfile="tiny" id="Layer_1" xmlns="http://www.w3.org/2000/svg" xmlns:xlink="http://www.w3.org/1999/xlink" x="0px" y="0px" width="512px" height="512px" viewBox="0 0 512 512" xml:space="preserve">
<polygon points="0,0 512,0 512,512 0,512" style="fill:#ffffff; stroke:#000000;stroke-width:0"/>
<polygon points="1.29552,89.4997 43.8286,86.1267 60.3415,294.352 17.8084,297.725" style="fill:#006363; stroke:#000000;stroke-width:0"/>
<circle fill="#006363" stroke="#006363" stroke-width="0" cx="22.5621" cy="87.8132" r="21.3333"/>
<circle fill="#006363" stroke="#006363" stroke-width="0" cx="39.0749" cy="296.039" r="21.3333"/>
<polygon points="458.509,240.325 501.026,236.746 518.81,448.002 476.294,451.581" style="fill:#006363; stroke:#000000;stroke-width:0"/>
<circle fill="#006363" stroke="#006363" stroke-width="0" cx="479.767" cy="238.535" r="21.3333"/>
<circle fill="#006363" stroke="#006363" stroke-width="0" cx="497.552" cy="449.792" r="21.3333"/>
<polygon points="1256,469.333 256,1469.33 -744,469.333" style="fill:#000000; stroke:#000000;stroke-width:0"/>
<polygon points="-744,42.6667 256,-957.333 1256,42.6667" style="fill:#000000; stroke:#000000;stroke-width:0"/>
<circle fill="#a64b00" stroke="#a64b00" stroke-width="0" cx="22.5621" cy="87.8132" r="21.3333"/>
<circle fill="#a64b00" stroke="#a64b00" stroke-width="0" cx="39.0749" cy="296.039" r="21.3333"/>
<circle fill="#a64b00" stroke="#a64b00" stroke-width="0" cx="479.767" cy="238.535" r="21.3333"/>
<circle fill="#a64b00" stroke="#a64b00" stroke-width="0" cx="497.552" cy="449.792" r="21.3333"/>
<circle fill="#a64b00" stroke="#a64b00" stroke-width="0" cx="275.019" cy="355.574" r="21.3333"/>
</svg>
