<?xml version="1.0" encoding="utf-8"?> <!-- Generator: Adobe Illustrator 13.0.0, SVG Export Plug-In . SVG Version: 6.00 Build 14948)  --> <svg version="1.2" baseProfile="tiny" id="Layer_1" xmlns="http://www.w3.org/2000/svg" xmlns:xlink="http://www.w3.org/1999/xlink" x="0px" y="0px" width="512px" height="512px" viewBox="0 0 512 512" xml:space="preserve">
<polygon points="0,0 512,0 512,512 0,512" style="fill:#ffffff; stroke:#000000;stroke-width:0"/>
<polygon points="-183.829,351.18 -212.387,382.881 -366.532,244.022 -337.975,212.321" style="fill:#006363; stroke:#000000;stroke-width:0"/>
<circle fill="#006363" stroke="#006363" stroke-width="0" cx="-198.108" cy="367.031" r="21.3333"/>
<circle fill="#006363" stroke="#006363" stroke-width="0" cx="-352.254" cy="228.172" r="21.3333"/>
<polygon points="756.381,305.715 778.435,269.189 966.109,382.505 944.055,419.03" style="fill:#006363; stroke:#000000;stroke-width:0"/>
<circle fill="#006363" stroke="#006363" stroke-width="0" cx="767.408" cy="287.452" r="21.3333"/>
<circle fill="#006363" stroke="#006363" stroke-width="0" cx="955.082" cy="400.768" r="21.3333"/>
<polygon points="1256,469.333 256,1469.33 -744,469.333" style="fill:#000000; stroke:#000000;stroke-width:0"/>
<polygon points="-744,42.6667 256,-957.333 1256,42.6667" style="fill:#000000; stroke:#000000;stroke-width:0"/>
<circle fill="#a64b00" stroke="#a64b00" stroke-width="0" cx="-198.108" cy="367.031" r="21.3333"/>
<circle fill="#a64b00" stroke="#a64b00" stroke-width="0" cx="-352.254" cy="228.172" r="21.3333"/>
<circle fill="#a64b00" stroke="#a64b00" stroke-width="0" cx="767.408" cy="287.452" r="21.3333"/>
<circle fill="#a64b00" stroke="#a64b00" stroke-width="0" cx="955.082" cy="400.768" r="21.3333"/>
<circle fill="#a64b00" stroke="#a64b00" stroke-width="0" cx="-103.473" cy="306.725" r="21.3333"/>
</svg>
