<?xml version="1.0" encoding="utf-8"?> <!-- Generator: Adobe Illustrator 13.0.0, SVG Export Plug-In . SVG Version: 6.00 Build 14948)  --> <svg version="1.2" baseProfile="tiny" id="Layer_1" xmlns="http://www.w3.org/2000/svg" xmlns:xlink="http://www.w3.org/1999/xlink" x="0px" y="0px" width="512px" height="512px" viewBox="0 0 512 512" xml:space="preserve">
<polygon points="0,0 512,0 512,512 0,512" style="fill:#ffffff; stroke:#000000;stroke-width:0"/>
<polygon points="-96.5838,49.1556 -82.3435,89.3757 -292.181,163.671 -306.421,123.451" style="fill:#006363; stroke:#000000;stroke-width:0"/>
<circle fill="#006363" stroke="#006363" stroke-width="0" cx="-89.4637" cy="69.2657" r="21.3333"/>
<circle fill="#006363" stroke="#006363" stroke-width="0" cx="-299.301" cy="143.561" r="21.3333"/>
<polygon points="746.831,324.987 706.829,310.146 779.371,114.625 819.373,129.466" style="fill:#006363; stroke:#000000;stroke-width:0"/>
<circle fill="#006363" stroke="#006363" stroke-width="0" cx="726.83" cy="317.566" r="21.3333"/>
<circle fill="#006363" stroke="#006363" stroke-width="0" cx="799.372" cy="122.046" r="21.3333"/>
<polygon points="1256,469.333 256,1469.33 -744,469.333" style="fill:#000000; stroke:#000000;stroke-width:0"/>
<polygon points="-744,42.6667 256,-957.333 1256,42.6667" style="fill:#000000; stroke:#000000;stroke-width:0"/>
<circle fill="#a64b00" stroke="#a64b00" stroke-width="0" cx="-89.4637" cy="69.2657" r="21.3333"/>
<circle fill="#a64b00" stroke="#a64b00" stroke-width="0" cx="-299.301" cy="143.561" r="21.3333"/>
<circle fill="#a64b00" stroke="#a64b00" stroke-width="0" cx="726.83" cy="317.566" r="21.3333"/>
<circle fill="#a64b00" stroke="#a64b00" stroke-width="0" cx="799.372" cy="122.046" r="21.3333"/>
<circle fill="#a64b00" stroke="#a64b00" stroke-width="0" cx="80.262" cy="115.915" r="21.3333"/>
</svg>
