<?xml version="1.0" encoding="utf-8"?> <!-- Generator: Adobe Illustrator 13.0.0, SVG Export Plug-In . SVG Version: 6.00 Build 14948)  --> <svg version="1.2" baseProfile="tiny" id="Layer_1" xmlns="http://www.w3.org/2000/svg" xmlns:xlink="http://www.w3.org/1999/xlink" x="0px" y="0px" width="512px" height="512px" viewBox="0 0 512 512" xml:space="preserve">
<polygon points="0,0 512,0 512,512 0,512" style="fill:#ffffff; stroke:#000000;stroke-width:0"/>
<polygon points="-245.205,220.298 -243.77,177.656 -24.9848,185.021 -26.4204,227.664" style="fill:#006363; stroke:#000000;stroke-width:0"/>
<circle fill="#006363" stroke="#006363" stroke-width="0" cx="-244.487" cy="198.977" r="21.3333"/>
<circle fill="#006363" stroke="#006363" stroke-width="0" cx="-25.7026" cy="206.343" r="21.3333"/>
<polygon points="589.546,380.293 580.803,338.532 792.626,294.182 801.37,335.943" style="fill:#006363; stroke:#000000;stroke-width:0"/>
<circle fill="#006363" stroke="#006363" stroke-width="0" cx="585.175" cy="359.412" r="21.3333"/>
<circle fill="#006363" stroke="#006363" stroke-width="0" cx="796.998" cy="315.063" r="21.3333"/>
<polygon points="1256,469.333 256,1469.33 -744,469.333" style="fill:#000000; stroke:#000000;stroke-width:0"/>
<polygon points="-744,42.6667 256,-957.333 1256,42.6667" style="fill:#000000; stroke:#000000;stroke-width:0"/>
<circle fill="#a64b00" stroke="#a64b00" stroke-width="0" cx="-244.487" cy="198.977" r="21.3333"/>
<circle fill="#a64b00" stroke="#a64b00" stroke-width="0" cx="-25.7026" cy="206.343" r="21.3333"/>
<circle fill="#a64b00" stroke="#a64b00" stroke-width="0" cx="585.175" cy="359.412" r="21.3333"/>
<circle fill="#a64b00" stroke="#a64b00" stroke-width="0" cx="796.998" cy="315.063" r="21.3333"/>
<circle fill="#a64b00" stroke="#a64b00" stroke-width="0" cx="215.08" cy="192.239" r="21.3333"/>
</svg>
