<?xml version="1.0" encoding="utf-8"?> <!-- Generator: Adobe Illustrator 13.0.0, SVG Export Plug-In . SVG Version: 6.00 Build 14948)  --> <svg version="1.2" baseProfile="tiny" id="Layer_1" xmlns="http://www.w3.org/2000/svg" xmlns:xlink="http://www.w3.org/1999/xlink" x="0px" y="0px" width="512px" height="512px" viewBox="0 0 512 512" xml:space="preserve">
<polygon points="0,0 512,0 512,512 0,512" style="fill:#ffffff; stroke:#000000;stroke-width:0"/>
<polygon points="11.0611,95.9385 53.6936,94.2323 62.3366,310.195 19.7041,311.901" style="fill:#006363; stroke:#000000;stroke-width:0"/>
<circle fill="#006363" stroke="#006363" stroke-width="0" cx="32.3774" cy="95.0854" r="21.3333"/>
<circle fill="#006363" stroke="#006363" stroke-width="0" cx="41.0204" cy="311.048" r="21.3333"/>
<polygon points="454.303,177.623 496.912,175.393 507.98,386.91 465.371,389.139" style="fill:#006363; stroke:#000000;stroke-width:0"/>
<circle fill="#006363" stroke="#006363" stroke-width="0" cx="475.607" cy="176.508" r="21.3333"/>
<circle fill="#006363" stroke="#006363" stroke-width="0" cx="486.675" cy="388.025" r="21.3333"/>
<polygon points="1256,469.333 256,1469.33 -744,469.333" style="fill:#000000; stroke:#000000;stroke-width:0"/>
<polygon points="-744,42.6667 256,-957.333 1256,42.6667" style="fill:#000000; stroke:#000000;stroke-width:0"/>
<circle fill="#a64b00" stroke="#a64b00" stroke-width="0" cx="32.3774" cy="95.0854" r="21.3333"/>
<circle fill="#a64b00" stroke="#a64b00" stroke-width="0" cx="41.0204" cy="311.048" r="21.3333"/>
<circle fill="#a64b00" stroke="#a64b00" stroke-width="0" cx="475.607" cy="176.508" r="21.3333"/>
<circle fill="#a64b00" stroke="#a64b00" stroke-width="0" cx="486.675" cy="388.025" r="21.3333"/>
<circle fill="#a64b00" stroke="#a64b00" stroke-width="0" cx="218.607" cy="271.961" r="21.3333"/>
</svg>
