<?xml version="1.0" encoding="utf-8"?> <!-- Generator: Adobe Illustrator 13.0.0, SVG Export Plug-In . SVG Version: 6.00 Build 14948)  --> <svg version="1.2" baseProfile="tiny" id="Layer_1" xmlns="http://www.w3.org/2000/svg" xmlns:xlink="http://www.w3.org/1999/xlink" x="0px" y="0px" width="512px" height="512px" viewBox="0 0 512 512" xml:space="preserve">
<polygon points="0,0 512,0 512,512 0,512" style="fill:#ffffff; stroke:#000000;stroke-width:0"/>
<polygon points="-171.632,278.32 -136.857,253.598 -9.36525,432.935 -44.1401,457.656" style="fill:#006363; stroke:#000000;stroke-width:0"/>
<circle fill="#006363" stroke="#006363" stroke-width="0" cx="-154.244" cy="265.959" r="21.3333"/>
<circle fill="#006363" stroke="#006363" stroke-width="0" cx="-26.7527" cy="445.295" r="21.3333"/>
<polygon points="670.259,177.464 707.363,198.53 603.573,381.34 566.469,360.274" style="fill:#006363; stroke:#000000;stroke-width:0"/>
<circle fill="#006363" stroke="#006363" stroke-width="0" cx="688.811" cy="187.997" r="21.3333"/>
<circle fill="#006363" stroke="#006363" stroke-width="0" cx="585.021" cy="370.807" r="21.3333"/>
<polygon points="1256,469.333 256,1469.33 -744,469.333" style="fill:#000000; stroke:#000000;stroke-width:0"/>
<polygon points="-744,42.6667 256,-957.333 1256,42.6667" style="fill:#000000; stroke:#000000;stroke-width:0"/>
<circle fill="#a64b00" stroke="#a64b00" stroke-width="0" cx="-154.244" cy="265.959" r="21.3333"/>
<circle fill="#a64b00" stroke="#a64b00" stroke-width="0" cx="-26.7527" cy="445.295" r="21.3333"/>
<circle fill="#a64b00" stroke="#a64b00" stroke-width="0" cx="688.811" cy="187.997" r="21.3333"/>
<circle fill="#a64b00" stroke="#a64b00" stroke-width="0" cx="585.021" cy="370.807" r="21.3333"/>
<circle fill="#a64b00" stroke="#a64b00" stroke-width="0" cx="316.493" cy="134.996" r="21.3333"/>
</svg>
