<?xml version="1.0" encoding="utf-8"?> <!-- Generator: Adobe Illustrator 13.0.0, SVG Export Plug-In . SVG Version: 6.00 Build 14948)  --> <svg version="1.2" baseProfile="tiny" id="Layer_1" xmlns="http://www.w3.org/2000/svg" xmlns:xlink="http://www.w3.org/1999/xlink" x="0px" y="0px" width="512px" height="512px" viewBox="0 0 512 512" xml:space="preserve">
<polygon points="0,0 512,0 512,512 0,512" style="fill:#ffffff; stroke:#000000;stroke-width:0"/>
<polygon points="-129.465,114.677 -115.239,74.4513 91.7023,147.638 77.4764,187.863" style="fill:#006363; stroke:#000000;stroke-width:0"/>
<circle fill="#006363" stroke="#006363" stroke-width="0" cx="-122.352" cy="94.564" r="21.3333"/>
<circle fill="#006363" stroke="#006363" stroke-width="0" cx="84.5894" cy="167.75" r="21.3333"/>
<polygon points="466.597,258.768 445.575,221.64 633.779,115.083 654.8,152.212" style="fill:#006363; stroke:#000000;stroke-width:0"/>
<circle fill="#006363" stroke="#006363" stroke-width="0" cx="456.086" cy="240.204" r="21.3333"/>
<circle fill="#006363" stroke="#006363" stroke-width="0" cx="644.29" cy="133.648" r="21.3333"/>
<polygon points="1256,469.333 256,1469.33 -744,469.333" style="fill:#000000; stroke:#000000;stroke-width:0"/>
<polygon points="-744,42.6667 256,-957.333 1256,42.6667" style="fill:#000000; stroke:#000000;stroke-width:0"/>
<circle fill="#a64b00" stroke="#a64b00" stroke-width="0" cx="-122.352" cy="94.564" r="21.3333"/>
<circle fill="#a64b00" stroke="#a64b00" stroke-width="0" cx="84.5894" cy="167.75" r="21.3333"/>
<circle fill="#a64b00" stroke="#a64b00" stroke-width="0" cx="456.086" cy="240.204" r="21.3333"/>
<circle fill="#a64b00" stroke="#a64b00" stroke-width="0" cx="644.29" cy="133.648" r="21.3333"/>
<circle fill="#a64b00" stroke="#a64b00" stroke-width="0" cx="426.744" cy="159.744" r="21.3333"/>
</svg>
