<?xml version="1.0" encoding="utf-8"?> <!-- Generator: Adobe Illustrator 13.0.0, SVG Export Plug-In . SVG Version: 6.00 Build 14948)  --> <svg version="1.2" baseProfile="tiny" id="Layer_1" xmlns="http://www.w3.org/2000/svg" xmlns:xlink="http://www.w3.org/1999/xlink" x="0px" y="0px" width="512px" height="512px" viewBox="0 0 512 512" xml:space="preserve">
<polygon points="0,0 512,0 512,512 0,512" style="fill:#ffffff; stroke:#000000;stroke-width:0"/>
<polygon points="-122.037,123.39 -105.446,84.081 87.4222,165.486 70.831,204.794" style="fill:#006363; stroke:#000000;stroke-width:0"/>
<circle fill="#006363" stroke="#006363" stroke-width="0" cx="-113.742" cy="103.735" r="21.3333"/>
<circle fill="#006363" stroke="#006363" stroke-width="0" cx="79.1266" cy="185.14" r="21.3333"/>
<polygon points="462.036,249.388 443.963,210.738 635.147,121.343 653.22,159.994" style="fill:#006363; stroke:#000000;stroke-width:0"/>
<circle fill="#006363" stroke="#006363" stroke-width="0" cx="452.999" cy="230.063" r="21.3333"/>
<circle fill="#006363" stroke="#006363" stroke-width="0" cx="644.184" cy="140.669" r="21.3333"/>
<polygon points="1256,469.333 256,1469.33 -744,469.333" style="fill:#000000; stroke:#000000;stroke-width:0"/>
<polygon points="-744,42.6667 256,-957.333 1256,42.6667" style="fill:#000000; stroke:#000000;stroke-width:0"/>
<circle fill="#a64b00" stroke="#a64b00" stroke-width="0" cx="-113.742" cy="103.735" r="21.3333"/>
<circle fill="#a64b00" stroke="#a64b00" stroke-width="0" cx="79.1266" cy="185.14" r="21.3333"/>
<circle fill="#a64b00" stroke="#a64b00" stroke-width="0" cx="452.999" cy="230.063" r="21.3333"/>
<circle fill="#a64b00" stroke="#a64b00" stroke-width="0" cx="644.184" cy="140.669" r="21.3333"/>
<circle fill="#a64b00" stroke="#a64b00" stroke-width="0" cx="367.198" cy="120.75" r="21.3333"/>
</svg>
