<?xml version="1.0" encoding="utf-8"?> <!-- Generator: Adobe Illustrator 13.0.0, SVG Export Plug-In . SVG Version: 6.00 Build 14948)  --> <svg version="1.2" baseProfile="tiny" id="Layer_1" xmlns="http://www.w3.org/2000/svg" xmlns:xlink="http://www.w3.org/1999/xlink" x="0px" y="0px" width="512px" height="512px" viewBox="0 0 512 512" xml:space="preserve">
<polygon points="0,0 512,0 512,512 0,512" style="fill:#ffffff; stroke:#000000;stroke-width:0"/>
<polygon points="-133.188,194.075 -128.095,236.437 -331.129,260.846 -336.222,218.484" style="fill:#006363; stroke:#000000;stroke-width:0"/>
<circle fill="#006363" stroke="#006363" stroke-width="0" cx="-130.641" cy="215.256" r="21.3333"/>
<circle fill="#006363" stroke="#006363" stroke-width="0" cx="-333.675" cy="239.665" r="21.3333"/>
<polygon points="756.095,448.493 723.368,421.118 861.878,255.528 894.605,282.903" style="fill:#006363; stroke:#000000;stroke-width:0"/>
<circle fill="#006363" stroke="#006363" stroke-width="0" cx="739.732" cy="434.805" r="21.3333"/>
<circle fill="#006363" stroke="#006363" stroke-width="0" cx="878.241" cy="269.216" r="21.3333"/>
<polygon points="1256,469.333 256,1469.33 -744,469.333" style="fill:#000000; stroke:#000000;stroke-width:0"/>
<polygon points="-744,42.6667 256,-957.333 1256,42.6667" style="fill:#000000; stroke:#000000;stroke-width:0"/>
<circle fill="#a64b00" stroke="#a64b00" stroke-width="0" cx="-130.641" cy="215.256" r="21.3333"/>
<circle fill="#a64b00" stroke="#a64b00" stroke-width="0" cx="-333.675" cy="239.665" r="21.3333"/>
<circle fill="#a64b00" stroke="#a64b00" stroke-width="0" cx="739.732" cy="434.805" r="21.3333"/>
<circle fill="#a64b00" stroke="#a64b00" stroke-width="0" cx="878.241" cy="269.216" r="21.3333"/>
<circle fill="#a64b00" stroke="#a64b00" stroke-width="0" cx="-5.64008" cy="306.725" r="21.3333"/>
</svg>
