<?xml version="1.0" encoding="utf-8"?> <!-- Generator: Adobe Illustrator 13.0.0, SVG Export Plug-In . SVG Version: 6.00 Build 14948)  --> <svg version="1.2" baseProfile="tiny" id="Layer_1" xmlns="http://www.w3.org/2000/svg" xmlns:xlink="http://www.w3.org/1999/xlink" x="0px" y="0px" width="512px" height="512px" viewBox="0 0 512 512" xml:space="preserve">
<polygon points="0,0 512,0 512,512 0,512" style="fill:#ffffff; stroke:#000000;stroke-width:0"/>
<polygon points="-215.021,352.136 -253.631,370.294 -343.735,178.707 -305.125,160.549" style="fill:#006363; stroke:#000000;stroke-width:0"/>
<circle fill="#006363" stroke="#006363" stroke-width="0" cx="-234.326" cy="361.215" r="21.3333"/>
<circle fill="#006363" stroke="#006363" stroke-width="0" cx="-324.43" cy="169.628" r="21.3333"/>
<polygon points="767.897,287.629 795.159,254.808 964.789,395.706 937.527,428.527" style="fill:#006363; stroke:#000000;stroke-width:0"/>
<circle fill="#006363" stroke="#006363" stroke-width="0" cx="781.528" cy="271.219" r="21.3333"/>
<circle fill="#006363" stroke="#006363" stroke-width="0" cx="951.158" cy="412.117" r="21.3333"/>
<polygon points="1256,469.333 256,1469.33 -744,469.333" style="fill:#000000; stroke:#000000;stroke-width:0"/>
<polygon points="-744,42.6667 256,-957.333 1256,42.6667" style="fill:#000000; stroke:#000000;stroke-width:0"/>
<circle fill="#a64b00" stroke="#a64b00" stroke-width="0" cx="-234.326" cy="361.215" r="21.3333"/>
<circle fill="#a64b00" stroke="#a64b00" stroke-width="0" cx="-324.43" cy="169.628" r="21.3333"/>
<circle fill="#a64b00" stroke="#a64b00" stroke-width="0" cx="781.528" cy="271.219" r="21.3333"/>
<circle fill="#a64b00" stroke="#a64b00" stroke-width="0" cx="951.158" cy="412.117" r="21.3333"/>
<circle fill="#a64b00" stroke="#a64b00" stroke-width="0" cx="-113.018" cy="154.077" r="21.3333"/>
</svg>
