<?xml version="1.0" encoding="utf-8"?> <!-- Generator: Adobe Illustrator 13.0.0, SVG Export Plug-In . SVG Version: 6.00 Build 14948)  --> <svg version="1.2" baseProfile="tiny" id="Layer_1" xmlns="http://www.w3.org/2000/svg" xmlns:xlink="http://www.w3.org/1999/xlink" x="0px" y="0px" width="512px" height="512px" viewBox="0 0 512 512" xml:space="preserve">
<polygon points="0,0 512,0 512,512 0,512" style="fill:#ffffff; stroke:#000000;stroke-width:0"/>
<polygon points="-63.0031,312.402 -48.7708,352.625 -251.259,424.273 -265.491,384.05" style="fill:#006363; stroke:#000000;stroke-width:0"/>
<circle fill="#006363" stroke="#006363" stroke-width="0" cx="-55.8869" cy="332.514" r="21.3333"/>
<circle fill="#006363" stroke="#006363" stroke-width="0" cx="-258.375" cy="404.161" r="21.3333"/>
<polygon points="685.751,420.31 648.102,400.236 749.955,209.212 787.604,229.286" style="fill:#006363; stroke:#000000;stroke-width:0"/>
<circle fill="#006363" stroke="#006363" stroke-width="0" cx="666.926" cy="410.273" r="21.3333"/>
<circle fill="#006363" stroke="#006363" stroke-width="0" cx="768.779" cy="219.249" r="21.3333"/>
<polygon points="1256,469.333 256,1469.33 -744,469.333" style="fill:#000000; stroke:#000000;stroke-width:0"/>
<polygon points="-744,42.6667 256,-957.333 1256,42.6667" style="fill:#000000; stroke:#000000;stroke-width:0"/>
<circle fill="#a64b00" stroke="#a64b00" stroke-width="0" cx="-55.8869" cy="332.514" r="21.3333"/>
<circle fill="#a64b00" stroke="#a64b00" stroke-width="0" cx="-258.375" cy="404.161" r="21.3333"/>
<circle fill="#a64b00" stroke="#a64b00" stroke-width="0" cx="666.926" cy="410.273" r="21.3333"/>
<circle fill="#a64b00" stroke="#a64b00" stroke-width="0" cx="768.779" cy="219.249" r="21.3333"/>
<circle fill="#a64b00" stroke="#a64b00" stroke-width="0" cx="164.971" cy="211.32" r="21.3333"/>
</svg>
