<?xml version="1.0" encoding="utf-8"?> <!-- Generator: Adobe Illustrator 13.0.0, SVG Export Plug-In . SVG Version: 6.00 Build 14948)  --> <svg version="1.2" baseProfile="tiny" id="Layer_1" xmlns="http://www.w3.org/2000/svg" xmlns:xlink="http://www.w3.org/1999/xlink" x="0px" y="0px" width="512px" height="512px" viewBox="0 0 512 512" xml:space="preserve">
<polygon points="0,0 512,0 512,512 0,512" style="fill:#ffffff; stroke:#000000;stroke-width:0"/>
<polygon points="-354.81,259.584 -384.973,229.408 -229.655,74.1571 -199.492,104.333" style="fill:#006363; stroke:#000000;stroke-width:0"/>
<circle fill="#006363" stroke="#006363" stroke-width="0" cx="-369.891" cy="244.496" r="21.3333"/>
<circle fill="#006363" stroke="#006363" stroke-width="0" cx="-214.574" cy="89.2453" r="21.3333"/>
<polygon points="820.223,248.462 859.169,231.034 943.691,419.915 904.746,437.343" style="fill:#006363; stroke:#000000;stroke-width:0"/>
<circle fill="#006363" stroke="#006363" stroke-width="0" cx="839.696" cy="239.748" r="21.3333"/>
<circle fill="#006363" stroke="#006363" stroke-width="0" cx="924.218" cy="428.629" r="21.3333"/>
<polygon points="1256,469.333 256,1469.33 -744,469.333" style="fill:#000000; stroke:#000000;stroke-width:0"/>
<polygon points="-744,42.6667 256,-957.333 1256,42.6667" style="fill:#000000; stroke:#000000;stroke-width:0"/>
<circle fill="#a64b00" stroke="#a64b00" stroke-width="0" cx="-369.891" cy="244.496" r="21.3333"/>
<circle fill="#a64b00" stroke="#a64b00" stroke-width="0" cx="-214.574" cy="89.2453" r="21.3333"/>
<circle fill="#a64b00" stroke="#a64b00" stroke-width="0" cx="839.696" cy="239.748" r="21.3333"/>
<circle fill="#a64b00" stroke="#a64b00" stroke-width="0" cx="924.218" cy="428.629" r="21.3333"/>
<circle fill="#a64b00" stroke="#a64b00" stroke-width="0" cx="-142.248" cy="430.752" r="21.3333"/>
</svg>
