<?xml version="1.0" encoding="utf-8"?> <!-- Generator: Adobe Illustrator 13.0.0, SVG Export Plug-In . SVG Version: 6.00 Build 14948)  --> <svg version="1.2" baseProfile="tiny" id="Layer_1" xmlns="http://www.w3.org/2000/svg" xmlns:xlink="http://www.w3.org/1999/xlink" x="0px" y="0px" width="512px" height="512px" viewBox="0 0 512 512" xml:space="preserve">
<polygon points="0,0 512,0 512,512 0,512" style="fill:#ffffff; stroke:#000000;stroke-width:0"/>
<polygon points="-104.637,143.363 -62.3745,137.507 -33.3369,347.05 -75.5997,352.907" style="fill:#006363; stroke:#000000;stroke-width:0"/>
<circle fill="#006363" stroke="#006363" stroke-width="0" cx="-83.5059" cy="140.435" r="21.3333"/>
<circle fill="#006363" stroke="#006363" stroke-width="0" cx="-54.4683" cy="349.978" r="21.3333"/>
<polygon points="719.965,235.834 717.744,278.443 501.608,267.175 503.83,224.567" style="fill:#006363; stroke:#000000;stroke-width:0"/>
<circle fill="#006363" stroke="#006363" stroke-width="0" cx="718.854" cy="257.139" r="21.3333"/>
<circle fill="#006363" stroke="#006363" stroke-width="0" cx="502.719" cy="245.871" r="21.3333"/>
<polygon points="1256,469.333 256,1469.33 -744,469.333" style="fill:#000000; stroke:#000000;stroke-width:0"/>
<polygon points="-744,42.6667 256,-957.333 1256,42.6667" style="fill:#000000; stroke:#000000;stroke-width:0"/>
<circle fill="#a64b00" stroke="#a64b00" stroke-width="0" cx="-83.5059" cy="140.435" r="21.3333"/>
<circle fill="#a64b00" stroke="#a64b00" stroke-width="0" cx="-54.4683" cy="349.978" r="21.3333"/>
<circle fill="#a64b00" stroke="#a64b00" stroke-width="0" cx="718.854" cy="257.139" r="21.3333"/>
<circle fill="#a64b00" stroke="#a64b00" stroke-width="0" cx="502.719" cy="245.871" r="21.3333"/>
<circle fill="#a64b00" stroke="#a64b00" stroke-width="0" cx="365.409" cy="134.996" r="21.3333"/>
</svg>
