<?xml version="1.0" encoding="utf-8"?> <!-- Generator: Adobe Illustrator 13.0.0, SVG Export Plug-In . SVG Version: 6.00 Build 14948)  --> <svg version="1.2" baseProfile="tiny" id="Layer_1" xmlns="http://www.w3.org/2000/svg" xmlns:xlink="http://www.w3.org/1999/xlink" x="0px" y="0px" width="512px" height="512px" viewBox="0 0 512 512" xml:space="preserve">
<polygon points="0,0 512,0 512,512 0,512" style="fill:#ffffff; stroke:#000000;stroke-width:0"/>
<polygon points="-85.6653,191.004 -50.9984,166.131 77.0702,344.63 42.4033,369.502" style="fill:#006363; stroke:#000000;stroke-width:0"/>
<circle fill="#006363" stroke="#006363" stroke-width="0" cx="-68.3319" cy="178.567" r="21.3333"/>
<circle fill="#006363" stroke="#006363" stroke-width="0" cx="59.7367" cy="357.066" r="21.3333"/>
<polygon points="424.013,162.277 435.575,121.206 643.905,179.854 632.344,220.924" style="fill:#006363; stroke:#000000;stroke-width:0"/>
<circle fill="#006363" stroke="#006363" stroke-width="0" cx="429.794" cy="141.741" r="21.3333"/>
<circle fill="#006363" stroke="#006363" stroke-width="0" cx="638.124" cy="200.389" r="21.3333"/>
<polygon points="1256,469.333 256,1469.33 -744,469.333" style="fill:#000000; stroke:#000000;stroke-width:0"/>
<polygon points="-744,42.6667 256,-957.333 1256,42.6667" style="fill:#000000; stroke:#000000;stroke-width:0"/>
<circle fill="#a64b00" stroke="#a64b00" stroke-width="0" cx="-68.3319" cy="178.567" r="21.3333"/>
<circle fill="#a64b00" stroke="#a64b00" stroke-width="0" cx="59.7367" cy="357.066" r="21.3333"/>
<circle fill="#a64b00" stroke="#a64b00" stroke-width="0" cx="429.794" cy="141.741" r="21.3333"/>
<circle fill="#a64b00" stroke="#a64b00" stroke-width="0" cx="638.124" cy="200.389" r="21.3333"/>
<circle fill="#a64b00" stroke="#a64b00" stroke-width="0" cx="105.038" cy="79.8076" r="21.3333"/>
</svg>
