<?xml version="1.0" encoding="utf-8"?> <!-- Generator: Adobe Illustrator 13.0.0, SVG Export Plug-In . SVG Version: 6.00 Build 14948)  --> <svg version="1.2" baseProfile="tiny" id="Layer_1" xmlns="http://www.w3.org/2000/svg" xmlns:xlink="http://www.w3.org/1999/xlink" x="0px" y="0px" width="512px" height="512px" viewBox="0 0 512 512" xml:space="preserve">
<polygon points="0,0 512,0 512,512 0,512" style="fill:#ffffff; stroke:#000000;stroke-width:0"/>
<polygon points="-136.902,85.6638 -133.326,43.1472 85.4972,61.5515 81.9214,104.068" style="fill:#006363; stroke:#000000;stroke-width:0"/>
<circle fill="#006363" stroke="#006363" stroke-width="0" cx="-135.114" cy="64.4055" r="21.3333"/>
<circle fill="#006363" stroke="#006363" stroke-width="0" cx="83.7093" cy="82.8098" r="21.3333"/>
<polygon points="504.11,291.445 471.685,263.712 612.309,99.2958 644.734,127.028" style="fill:#006363; stroke:#000000;stroke-width:0"/>
<circle fill="#006363" stroke="#006363" stroke-width="0" cx="487.898" cy="277.579" r="21.3333"/>
<circle fill="#006363" stroke="#006363" stroke-width="0" cx="628.522" cy="113.162" r="21.3333"/>
<polygon points="1256,469.333 256,1469.33 -744,469.333" style="fill:#000000; stroke:#000000;stroke-width:0"/>
<polygon points="-744,42.6667 256,-957.333 1256,42.6667" style="fill:#000000; stroke:#000000;stroke-width:0"/>
<circle fill="#a64b00" stroke="#a64b00" stroke-width="0" cx="-135.114" cy="64.4055" r="21.3333"/>
<circle fill="#a64b00" stroke="#a64b00" stroke-width="0" cx="83.7093" cy="82.8098" r="21.3333"/>
<circle fill="#a64b00" stroke="#a64b00" stroke-width="0" cx="487.898" cy="277.579" r="21.3333"/>
<circle fill="#a64b00" stroke="#a64b00" stroke-width="0" cx="628.522" cy="113.162" r="21.3333"/>
<circle fill="#a64b00" stroke="#a64b00" stroke-width="0" cx="463.838" cy="125.455" r="21.3333"/>
</svg>
