<?xml version="1.0" encoding="utf-8"?> <!-- Generator: Adobe Illustrator 13.0.0, SVG Export Plug-In . SVG Version: 6.00 Build 14948)  --> <svg version="1.2" baseProfile="tiny" id="Layer_1" xmlns="http://www.w3.org/2000/svg" xmlns:xlink="http://www.w3.org/1999/xlink" x="0px" y="0px" width="512px" height="512px" viewBox="0 0 512 512" xml:space="preserve">
<polygon points="0,0 512,0 512,512 0,512" style="fill:#ffffff; stroke:#000000;stroke-width:0"/>
<polygon points="-110.853,149.407 -111.498,192.069 -333.002,188.718 -332.356,146.056" style="fill:#006363; stroke:#000000;stroke-width:0"/>
<circle fill="#006363" stroke="#006363" stroke-width="0" cx="-111.176" cy="170.738" r="21.3333"/>
<circle fill="#006363" stroke="#006363" stroke-width="0" cx="-332.679" cy="167.387" r="21.3333"/>
<polygon points="754.06,415.278 718.953,391.031 839.058,217.132 874.165,241.379" style="fill:#006363; stroke:#000000;stroke-width:0"/>
<circle fill="#006363" stroke="#006363" stroke-width="0" cx="736.506" cy="403.155" r="21.3333"/>
<circle fill="#006363" stroke="#006363" stroke-width="0" cx="856.612" cy="229.255" r="21.3333"/>
<polygon points="1256,469.333 256,1469.33 -744,469.333" style="fill:#000000; stroke:#000000;stroke-width:0"/>
<polygon points="-744,42.6667 256,-957.333 1256,42.6667" style="fill:#000000; stroke:#000000;stroke-width:0"/>
<circle fill="#a64b00" stroke="#a64b00" stroke-width="0" cx="-111.176" cy="170.738" r="21.3333"/>
<circle fill="#a64b00" stroke="#a64b00" stroke-width="0" cx="-332.679" cy="167.387" r="21.3333"/>
<circle fill="#a64b00" stroke="#a64b00" stroke-width="0" cx="736.506" cy="403.155" r="21.3333"/>
<circle fill="#a64b00" stroke="#a64b00" stroke-width="0" cx="856.612" cy="229.255" r="21.3333"/>
<circle fill="#a64b00" stroke="#a64b00" stroke-width="0" cx="17.6251" cy="220.861" r="21.3333"/>
</svg>
