<?xml version="1.0" encoding="utf-8"?> <!-- Generator: Adobe Illustrator 13.0.0, SVG Export Plug-In . SVG Version: 6.00 Build 14948)  --> <svg version="1.2" baseProfile="tiny" id="Layer_1" xmlns="http://www.w3.org/2000/svg" xmlns:xlink="http://www.w3.org/1999/xlink" x="0px" y="0px" width="512px" height="512px" viewBox="0 0 512 512" xml:space="preserve">
<polygon points="0,0 512,0 512,512 0,512" style="fill:#ffffff; stroke:#000000;stroke-width:0"/>
<polygon points="-203.501,345.202 -190.138,304.682 7.81335,369.964 -5.5497,410.484" style="fill:#006363; stroke:#000000;stroke-width:0"/>
<circle fill="#006363" stroke="#006363" stroke-width="0" cx="-196.819" cy="324.942" r="21.3333"/>
<circle fill="#006363" stroke="#006363" stroke-width="0" cx="1.13182" cy="390.224" r="21.3333"/>
<polygon points="639.339,180.665 681.6,186.535 652.338,397.191 610.077,391.32" style="fill:#006363; stroke:#000000;stroke-width:0"/>
<circle fill="#006363" stroke="#006363" stroke-width="0" cx="660.469" cy="183.6" r="21.3333"/>
<circle fill="#006363" stroke="#006363" stroke-width="0" cx="631.207" cy="394.256" r="21.3333"/>
<polygon points="1256,469.333 256,1469.33 -744,469.333" style="fill:#000000; stroke:#000000;stroke-width:0"/>
<polygon points="-744,42.6667 256,-957.333 1256,42.6667" style="fill:#000000; stroke:#000000;stroke-width:0"/>
<circle fill="#a64b00" stroke="#a64b00" stroke-width="0" cx="-196.819" cy="324.942" r="21.3333"/>
<circle fill="#a64b00" stroke="#a64b00" stroke-width="0" cx="1.13182" cy="390.224" r="21.3333"/>
<circle fill="#a64b00" stroke="#a64b00" stroke-width="0" cx="660.469" cy="183.6" r="21.3333"/>
<circle fill="#a64b00" stroke="#a64b00" stroke-width="0" cx="631.207" cy="394.256" r="21.3333"/>
<circle fill="#a64b00" stroke="#a64b00" stroke-width="0" cx="299.789" cy="402.13" r="21.3333"/>
</svg>
