<?xml version="1.0" encoding="utf-8"?> <!-- Generator: Adobe Illustrator 13.0.0, SVG Export Plug-In . SVG Version: 6.00 Build 14948)  --> <svg version="1.2" baseProfile="tiny" id="Layer_1" xmlns="http://www.w3.org/2000/svg" xmlns:xlink="http://www.w3.org/1999/xlink" x="0px" y="0px" width="512px" height="512px" viewBox="0 0 512 512" xml:space="preserve">
<polygon points="0,0 512,0 512,512 0,512" style="fill:#ffffff; stroke:#000000;stroke-width:0"/>
<polygon points="-112.651,223.556 -72.2095,209.957 -2.23782,418.047 -42.6794,431.646" style="fill:#006363; stroke:#000000;stroke-width:0"/>
<circle fill="#006363" stroke="#006363" stroke-width="0" cx="-92.4303" cy="216.757" r="21.3333"/>
<circle fill="#006363" stroke="#006363" stroke-width="0" cx="-22.4586" cy="424.846" r="21.3333"/>
<polygon points="696.109,284.652 670.44,318.733 497.423,188.419 523.093,154.338" style="fill:#006363; stroke:#000000;stroke-width:0"/>
<circle fill="#006363" stroke="#006363" stroke-width="0" cx="683.275" cy="301.693" r="21.3333"/>
<circle fill="#006363" stroke="#006363" stroke-width="0" cx="510.258" cy="171.378" r="21.3333"/>
<polygon points="1256,469.333 256,1469.33 -744,469.333" style="fill:#000000; stroke:#000000;stroke-width:0"/>
<polygon points="-744,42.6667 256,-957.333 1256,42.6667" style="fill:#000000; stroke:#000000;stroke-width:0"/>
<circle fill="#a64b00" stroke="#a64b00" stroke-width="0" cx="-92.4303" cy="216.757" r="21.3333"/>
<circle fill="#a64b00" stroke="#a64b00" stroke-width="0" cx="-22.4586" cy="424.846" r="21.3333"/>
<circle fill="#a64b00" stroke="#a64b00" stroke-width="0" cx="683.275" cy="301.693" r="21.3333"/>
<circle fill="#a64b00" stroke="#a64b00" stroke-width="0" cx="510.258" cy="171.378" r="21.3333"/>
<circle fill="#a64b00" stroke="#a64b00" stroke-width="0" cx="391.657" cy="402.13" r="21.3333"/>
</svg>
