<?xml version="1.0" encoding="utf-8"?> <!-- Generator: Adobe Illustrator 13.0.0, SVG Export Plug-In . SVG Version: 6.00 Build 14948)  --> <svg version="1.2" baseProfile="tiny" id="Layer_1" xmlns="http://www.w3.org/2000/svg" xmlns:xlink="http://www.w3.org/1999/xlink" x="0px" y="0px" width="512px" height="512px" viewBox="0 0 512 512" xml:space="preserve">
<polygon points="0,0 512,0 512,512 0,512" style="fill:#ffffff; stroke:#000000;stroke-width:0"/>
<polygon points="-104.975,159.803 -77.3828,127.258 86.6242,266.306 59.0325,298.851" style="fill:#006363; stroke:#000000;stroke-width:0"/>
<circle fill="#006363" stroke="#006363" stroke-width="0" cx="-91.1787" cy="143.53" r="21.3333"/>
<circle fill="#006363" stroke="#006363" stroke-width="0" cx="72.8283" cy="282.578" r="21.3333"/>
<polygon points="433.874,202.584 432.3,159.947 646.814,152.027 648.388,194.664" style="fill:#006363; stroke:#000000;stroke-width:0"/>
<circle fill="#006363" stroke="#006363" stroke-width="0" cx="433.087" cy="181.265" r="21.3333"/>
<circle fill="#006363" stroke="#006363" stroke-width="0" cx="647.601" cy="173.346" r="21.3333"/>
<polygon points="1256,469.333 256,1469.33 -744,469.333" style="fill:#000000; stroke:#000000;stroke-width:0"/>
<polygon points="-744,42.6667 256,-957.333 1256,42.6667" style="fill:#000000; stroke:#000000;stroke-width:0"/>
<circle fill="#a64b00" stroke="#a64b00" stroke-width="0" cx="-91.1787" cy="143.53" r="21.3333"/>
<circle fill="#a64b00" stroke="#a64b00" stroke-width="0" cx="72.8283" cy="282.578" r="21.3333"/>
<circle fill="#a64b00" stroke="#a64b00" stroke-width="0" cx="433.087" cy="181.265" r="21.3333"/>
<circle fill="#a64b00" stroke="#a64b00" stroke-width="0" cx="647.601" cy="173.346" r="21.3333"/>
<circle fill="#a64b00" stroke="#a64b00" stroke-width="0" cx="59.543" cy="205.237" r="21.3333"/>
</svg>
