<?xml version="1.0" encoding="utf-8"?> <!-- Generator: Adobe Illustrator 13.0.0, SVG Export Plug-In . SVG Version: 6.00 Build 14948)  --> <svg version="1.2" baseProfile="tiny" id="Layer_1" xmlns="http://www.w3.org/2000/svg" xmlns:xlink="http://www.w3.org/1999/xlink" x="0px" y="0px" width="512px" height="512px" viewBox="0 0 512 512" xml:space="preserve">
<polygon points="0,0 512,0 512,512 0,512" style="fill:#ffffff; stroke:#000000;stroke-width:0"/>
<polygon points="-158.793,334.447 -157.157,377.082 -375.304,385.452 -376.94,342.817" style="fill:#006363; stroke:#000000;stroke-width:0"/>
<circle fill="#006363" stroke="#006363" stroke-width="0" cx="-157.975" cy="355.765" r="21.3333"/>
<circle fill="#006363" stroke="#006363" stroke-width="0" cx="-376.122" cy="364.135" r="21.3333"/>
<polygon points="746.271,343.489 757.035,302.202 956.463,354.195 945.699,395.481" style="fill:#006363; stroke:#000000;stroke-width:0"/>
<circle fill="#006363" stroke="#006363" stroke-width="0" cx="751.653" cy="322.845" r="21.3333"/>
<circle fill="#006363" stroke="#006363" stroke-width="0" cx="951.081" cy="374.838" r="21.3333"/>
<polygon points="1256,469.333 256,1469.33 -744,469.333" style="fill:#000000; stroke:#000000;stroke-width:0"/>
<polygon points="-744,42.6667 256,-957.333 1256,42.6667" style="fill:#000000; stroke:#000000;stroke-width:0"/>
<circle fill="#a64b00" stroke="#a64b00" stroke-width="0" cx="-157.975" cy="355.765" r="21.3333"/>
<circle fill="#a64b00" stroke="#a64b00" stroke-width="0" cx="-376.122" cy="364.135" r="21.3333"/>
<circle fill="#a64b00" stroke="#a64b00" stroke-width="0" cx="751.653" cy="322.845" r="21.3333"/>
<circle fill="#a64b00" stroke="#a64b00" stroke-width="0" cx="951.081" cy="374.838" r="21.3333"/>
<circle fill="#a64b00" stroke="#a64b00" stroke-width="0" cx="-84.9802" cy="297.185" r="21.3333"/>
</svg>
