<?xml version="1.0" encoding="utf-8"?> <!-- Generator: Adobe Illustrator 13.0.0, SVG Export Plug-In . SVG Version: 6.00 Build 14948)  --> <svg version="1.2" baseProfile="tiny" id="Layer_1" xmlns="http://www.w3.org/2000/svg" xmlns:xlink="http://www.w3.org/1999/xlink" x="0px" y="0px" width="512px" height="512px" viewBox="0 0 512 512" xml:space="preserve">
<polygon points="0,0 512,0 512,512 0,512" style="fill:#ffffff; stroke:#000000;stroke-width:0"/>
<polygon points="-294.537,431.48 -336.527,439.049 -373.989,231.211 -331.999,223.642" style="fill:#006363; stroke:#000000;stroke-width:0"/>
<circle fill="#006363" stroke="#006363" stroke-width="0" cx="-315.532" cy="435.265" r="21.3333"/>
<circle fill="#006363" stroke="#006363" stroke-width="0" cx="-352.994" cy="227.427" r="21.3333"/>
<polygon points="990.743,230.371 1018.49,262.781 861.995,396.782 834.245,364.373" style="fill:#006363; stroke:#000000;stroke-width:0"/>
<circle fill="#006363" stroke="#006363" stroke-width="0" cx="1004.62" cy="246.576" r="21.3333"/>
<circle fill="#006363" stroke="#006363" stroke-width="0" cx="848.12" cy="380.578" r="21.3333"/>
<polygon points="1256,469.333 256,1469.33 -744,469.333" style="fill:#000000; stroke:#000000;stroke-width:0"/>
<polygon points="-744,42.6667 256,-957.333 1256,42.6667" style="fill:#000000; stroke:#000000;stroke-width:0"/>
<circle fill="#a64b00" stroke="#a64b00" stroke-width="0" cx="-315.532" cy="435.265" r="21.3333"/>
<circle fill="#a64b00" stroke="#a64b00" stroke-width="0" cx="-352.994" cy="227.427" r="21.3333"/>
<circle fill="#a64b00" stroke="#a64b00" stroke-width="0" cx="1004.62" cy="246.576" r="21.3333"/>
<circle fill="#a64b00" stroke="#a64b00" stroke-width="0" cx="848.12" cy="380.578" r="21.3333"/>
<circle fill="#a64b00" stroke="#a64b00" stroke-width="0" cx="853.414" cy="233.173" r="21.3333"/>
</svg>
