<?xml version="1.0" encoding="utf-8"?> <!-- Generator: Adobe Illustrator 13.0.0, SVG Export Plug-In . SVG Version: 6.00 Build 14948)  --> <svg version="1.2" baseProfile="tiny" id="Layer_1" xmlns="http://www.w3.org/2000/svg" xmlns:xlink="http://www.w3.org/1999/xlink" x="0px" y="0px" width="512px" height="512px" viewBox="0 0 512 512" xml:space="preserve">
<polygon points="0,0 512,0 512,512 0,512" style="fill:#ffffff; stroke:#000000;stroke-width:0"/>
<polygon points="-181.155,351.686 -208.876,384.121 -368.682,247.539 -340.961,215.104" style="fill:#006363; stroke:#000000;stroke-width:0"/>
<circle fill="#006363" stroke="#006363" stroke-width="0" cx="-195.016" cy="367.903" r="21.3333"/>
<circle fill="#006363" stroke="#006363" stroke-width="0" cx="-354.821" cy="231.321" r="21.3333"/>
<polygon points="755.016,306.363 776.749,269.646 966.836,382.162 945.103,418.879" style="fill:#006363; stroke:#000000;stroke-width:0"/>
<circle fill="#006363" stroke="#006363" stroke-width="0" cx="765.883" cy="288.005" r="21.3333"/>
<circle fill="#006363" stroke="#006363" stroke-width="0" cx="955.97" cy="400.521" r="21.3333"/>
<polygon points="1256,469.333 256,1469.33 -744,469.333" style="fill:#000000; stroke:#000000;stroke-width:0"/>
<polygon points="-744,42.6667 256,-957.333 1256,42.6667" style="fill:#000000; stroke:#000000;stroke-width:0"/>
<circle fill="#a64b00" stroke="#a64b00" stroke-width="0" cx="-195.016" cy="367.903" r="21.3333"/>
<circle fill="#a64b00" stroke="#a64b00" stroke-width="0" cx="-354.821" cy="231.321" r="21.3333"/>
<circle fill="#a64b00" stroke="#a64b00" stroke-width="0" cx="765.883" cy="288.005" r="21.3333"/>
<circle fill="#a64b00" stroke="#a64b00" stroke-width="0" cx="955.97" cy="400.521" r="21.3333"/>
<circle fill="#a64b00" stroke="#a64b00" stroke-width="0" cx="-102.876" cy="316.266" r="21.3333"/>
</svg>
