<?xml version="1.0" encoding="utf-8"?> <!-- Generator: Adobe Illustrator 13.0.0, SVG Export Plug-In . SVG Version: 6.00 Build 14948)  --> <svg version="1.2" baseProfile="tiny" id="Layer_1" xmlns="http://www.w3.org/2000/svg" xmlns:xlink="http://www.w3.org/1999/xlink" x="0px" y="0px" width="512px" height="512px" viewBox="0 0 512 512" xml:space="preserve">
<polygon points="0,0 512,0 512,512 0,512" style="fill:#ffffff; stroke:#000000;stroke-width:0"/>
<polygon points="-152.7,261.334 -114.175,242.996 -23.5746,433.331 -62.0995,451.669" style="fill:#006363; stroke:#000000;stroke-width:0"/>
<circle fill="#006363" stroke="#006363" stroke-width="0" cx="-133.438" cy="252.165" r="21.3333"/>
<circle fill="#006363" stroke="#006363" stroke-width="0" cx="-42.837" cy="442.5" r="21.3333"/>
<polygon points="679.541,179.148 713.817,204.557 588.555,373.532 554.279,348.123" style="fill:#006363; stroke:#000000;stroke-width:0"/>
<circle fill="#006363" stroke="#006363" stroke-width="0" cx="696.679" cy="191.853" r="21.3333"/>
<circle fill="#006363" stroke="#006363" stroke-width="0" cx="571.417" cy="360.827" r="21.3333"/>
<polygon points="1256,469.333 256,1469.33 -744,469.333" style="fill:#000000; stroke:#000000;stroke-width:0"/>
<polygon points="-744,42.6667 256,-957.333 1256,42.6667" style="fill:#000000; stroke:#000000;stroke-width:0"/>
<circle fill="#a64b00" stroke="#a64b00" stroke-width="0" cx="-133.438" cy="252.165" r="21.3333"/>
<circle fill="#a64b00" stroke="#a64b00" stroke-width="0" cx="-42.837" cy="442.5" r="21.3333"/>
<circle fill="#a64b00" stroke="#a64b00" stroke-width="0" cx="696.679" cy="191.853" r="21.3333"/>
<circle fill="#a64b00" stroke="#a64b00" stroke-width="0" cx="571.417" cy="360.827" r="21.3333"/>
<circle fill="#a64b00" stroke="#a64b00" stroke-width="0" cx="321.861" cy="68.2121" r="21.3333"/>
</svg>
