<?xml version="1.0" encoding="utf-8"?> <!-- Generator: Adobe Illustrator 13.0.0, SVG Export Plug-In . SVG Version: 6.00 Build 14948)  --> <svg version="1.2" baseProfile="tiny" id="Layer_1" xmlns="http://www.w3.org/2000/svg" xmlns:xlink="http://www.w3.org/1999/xlink" x="0px" y="0px" width="512px" height="512px" viewBox="0 0 512 512" xml:space="preserve">
<polygon points="0,0 512,0 512,512 0,512" style="fill:#ffffff; stroke:#000000;stroke-width:0"/>
<polygon points="-141.497,149.9 -117.348,114.725 57.0386,234.45 32.8894,269.625" style="fill:#006363; stroke:#000000;stroke-width:0"/>
<circle fill="#006363" stroke="#006363" stroke-width="0" cx="-129.422" cy="132.313" r="21.3333"/>
<circle fill="#006363" stroke="#006363" stroke-width="0" cx="44.964" cy="252.038" r="21.3333"/>
<polygon points="614.433,318.783 572.197,324.829 542.136,114.824 584.373,108.778" style="fill:#006363; stroke:#000000;stroke-width:0"/>
<circle fill="#006363" stroke="#006363" stroke-width="0" cx="593.315" cy="321.806" r="21.3333"/>
<circle fill="#006363" stroke="#006363" stroke-width="0" cx="563.254" cy="111.801" r="21.3333"/>
<polygon points="1256,469.333 256,1469.33 -744,469.333" style="fill:#000000; stroke:#000000;stroke-width:0"/>
<polygon points="-744,42.6667 256,-957.333 1256,42.6667" style="fill:#000000; stroke:#000000;stroke-width:0"/>
<circle fill="#a64b00" stroke="#a64b00" stroke-width="0" cx="-129.422" cy="132.313" r="21.3333"/>
<circle fill="#a64b00" stroke="#a64b00" stroke-width="0" cx="44.964" cy="252.038" r="21.3333"/>
<circle fill="#a64b00" stroke="#a64b00" stroke-width="0" cx="593.315" cy="321.806" r="21.3333"/>
<circle fill="#a64b00" stroke="#a64b00" stroke-width="0" cx="563.254" cy="111.801" r="21.3333"/>
<circle fill="#a64b00" stroke="#a64b00" stroke-width="0" cx="426.256" cy="173.158" r="21.3333"/>
</svg>
