<?xml version="1.0" encoding="utf-8"?> <!-- Generator: Adobe Illustrator 13.0.0, SVG Export Plug-In . SVG Version: 6.00 Build 14948)  --> <svg version="1.2" baseProfile="tiny" id="Layer_1" xmlns="http://www.w3.org/2000/svg" xmlns:xlink="http://www.w3.org/1999/xlink" x="0px" y="0px" width="512px" height="512px" viewBox="0 0 512 512" xml:space="preserve">
<polygon points="0,0 512,0 512,512 0,512" style="fill:#ffffff; stroke:#000000;stroke-width:0"/>
<polygon points="-97.7287,72.791 -85.2041,113.578 -287.363,175.656 -299.888,134.869" style="fill:#006363; stroke:#000000;stroke-width:0"/>
<circle fill="#006363" stroke="#006363" stroke-width="0" cx="-91.4664" cy="93.1845" r="21.3333"/>
<circle fill="#006363" stroke="#006363" stroke-width="0" cx="-293.625" cy="155.262" r="21.3333"/>
<polygon points="745.078,322.414 704.836,308.237 776.663,104.345 816.905,118.522" style="fill:#006363; stroke:#000000;stroke-width:0"/>
<circle fill="#006363" stroke="#006363" stroke-width="0" cx="724.957" cy="315.326" r="21.3333"/>
<circle fill="#006363" stroke="#006363" stroke-width="0" cx="796.784" cy="111.433" r="21.3333"/>
<polygon points="1256,469.333 256,1469.33 -744,469.333" style="fill:#000000; stroke:#000000;stroke-width:0"/>
<polygon points="-744,42.6667 256,-957.333 1256,42.6667" style="fill:#000000; stroke:#000000;stroke-width:0"/>
<circle fill="#a64b00" stroke="#a64b00" stroke-width="0" cx="-91.4664" cy="93.1845" r="21.3333"/>
<circle fill="#a64b00" stroke="#a64b00" stroke-width="0" cx="-293.625" cy="155.262" r="21.3333"/>
<circle fill="#a64b00" stroke="#a64b00" stroke-width="0" cx="724.957" cy="315.326" r="21.3333"/>
<circle fill="#a64b00" stroke="#a64b00" stroke-width="0" cx="796.784" cy="111.433" r="21.3333"/>
<circle fill="#a64b00" stroke="#a64b00" stroke-width="0" cx="84.4377" cy="182.698" r="21.3333"/>
</svg>
