<?xml version="1.0" encoding="utf-8"?> <!-- Generator: Adobe Illustrator 13.0.0, SVG Export Plug-In . SVG Version: 6.00 Build 14948)  --> <svg version="1.2" baseProfile="tiny" id="Layer_1" xmlns="http://www.w3.org/2000/svg" xmlns:xlink="http://www.w3.org/1999/xlink" x="0px" y="0px" width="512px" height="512px" viewBox="0 0 512 512" xml:space="preserve">
<polygon points="0,0 512,0 512,512 0,512" style="fill:#ffffff; stroke:#000000;stroke-width:0"/>
<polygon points="-243.043,195.944 -221.449,159.146 -35.0169,268.546 -56.6108,305.345" style="fill:#006363; stroke:#000000;stroke-width:0"/>
<circle fill="#006363" stroke="#006363" stroke-width="0" cx="-232.246" cy="177.545" r="21.3333"/>
<circle fill="#006363" stroke="#006363" stroke-width="0" cx="-45.8139" cy="286.945" r="21.3333"/>
<polygon points="606.184,404.519 589.197,365.38 785.548,280.162 802.535,319.301" style="fill:#006363; stroke:#000000;stroke-width:0"/>
<circle fill="#006363" stroke="#006363" stroke-width="0" cx="597.69" cy="384.95" r="21.3333"/>
<circle fill="#006363" stroke="#006363" stroke-width="0" cx="794.042" cy="299.731" r="21.3333"/>
<polygon points="1256,469.333 256,1469.33 -744,469.333" style="fill:#000000; stroke:#000000;stroke-width:0"/>
<polygon points="-744,42.6667 256,-957.333 1256,42.6667" style="fill:#000000; stroke:#000000;stroke-width:0"/>
<circle fill="#a64b00" stroke="#a64b00" stroke-width="0" cx="-232.246" cy="177.545" r="21.3333"/>
<circle fill="#a64b00" stroke="#a64b00" stroke-width="0" cx="-45.8139" cy="286.945" r="21.3333"/>
<circle fill="#a64b00" stroke="#a64b00" stroke-width="0" cx="597.69" cy="384.95" r="21.3333"/>
<circle fill="#a64b00" stroke="#a64b00" stroke-width="0" cx="794.042" cy="299.731" r="21.3333"/>
<circle fill="#a64b00" stroke="#a64b00" stroke-width="0" cx="206.132" cy="335.347" r="21.3333"/>
</svg>
