<?xml version="1.0" encoding="utf-8"?> <!-- Generator: Adobe Illustrator 13.0.0, SVG Export Plug-In . SVG Version: 6.00 Build 14948)  --> <svg version="1.2" baseProfile="tiny" id="Layer_1" xmlns="http://www.w3.org/2000/svg" xmlns:xlink="http://www.w3.org/1999/xlink" x="0px" y="0px" width="512px" height="512px" viewBox="0 0 512 512" xml:space="preserve">
<polygon points="0,0 512,0 512,512 0,512" style="fill:#ffffff; stroke:#000000;stroke-width:0"/>
<polygon points="-151.304,267.216 -136.968,307.402 -347.116,382.366 -361.451,342.18" style="fill:#006363; stroke:#000000;stroke-width:0"/>
<circle fill="#006363" stroke="#006363" stroke-width="0" cx="-144.136" cy="287.309" r="21.3333"/>
<circle fill="#006363" stroke="#006363" stroke-width="0" cx="-354.284" cy="362.273" r="21.3333"/>
<polygon points="739.135,418.152 723.383,378.5 920.262,300.289 936.014,339.941" style="fill:#006363; stroke:#000000;stroke-width:0"/>
<circle fill="#006363" stroke="#006363" stroke-width="0" cx="731.259" cy="398.326" r="21.3333"/>
<circle fill="#006363" stroke="#006363" stroke-width="0" cx="928.138" cy="320.115" r="21.3333"/>
<polygon points="1256,469.333 256,1469.33 -744,469.333" style="fill:#000000; stroke:#000000;stroke-width:0"/>
<polygon points="-744,42.6667 256,-957.333 1256,42.6667" style="fill:#000000; stroke:#000000;stroke-width:0"/>
<circle fill="#a64b00" stroke="#a64b00" stroke-width="0" cx="-144.136" cy="287.309" r="21.3333"/>
<circle fill="#a64b00" stroke="#a64b00" stroke-width="0" cx="-354.284" cy="362.273" r="21.3333"/>
<circle fill="#a64b00" stroke="#a64b00" stroke-width="0" cx="731.259" cy="398.326" r="21.3333"/>
<circle fill="#a64b00" stroke="#a64b00" stroke-width="0" cx="928.138" cy="320.115" r="21.3333"/>
<circle fill="#a64b00" stroke="#a64b00" stroke-width="0" cx="-44.4153" cy="430.752" r="21.3333"/>
</svg>
