<?xml version="1.0" encoding="utf-8"?> <!-- Generator: Adobe Illustrator 13.0.0, SVG Export Plug-In . SVG Version: 6.00 Build 14948)  --> <svg version="1.2" baseProfile="tiny" id="Layer_1" xmlns="http://www.w3.org/2000/svg" xmlns:xlink="http://www.w3.org/1999/xlink" x="0px" y="0px" width="512px" height="512px" viewBox="0 0 512 512" xml:space="preserve">
<polygon points="0,0 512,0 512,512 0,512" style="fill:#ffffff; stroke:#000000;stroke-width:0"/>
<polygon points="-57.4713,231.807 -17.4993,216.885 59.3107,422.633 19.3386,437.555" style="fill:#006363; stroke:#000000;stroke-width:0"/>
<circle fill="#006363" stroke="#006363" stroke-width="0" cx="-37.4853" cy="224.346" r="21.3333"/>
<circle fill="#006363" stroke="#006363" stroke-width="0" cx="39.3246" cy="430.094" r="21.3333"/>
<polygon points="426.19,119.713 450.668,84.7657 627.894,208.897 603.416,243.844" style="fill:#006363; stroke:#000000;stroke-width:0"/>
<circle fill="#006363" stroke="#006363" stroke-width="0" cx="438.429" cy="102.239" r="21.3333"/>
<circle fill="#006363" stroke="#006363" stroke-width="0" cx="615.655" cy="226.371" r="21.3333"/>
<polygon points="1256,469.333 256,1469.33 -744,469.333" style="fill:#000000; stroke:#000000;stroke-width:0"/>
<polygon points="-744,42.6667 256,-957.333 1256,42.6667" style="fill:#000000; stroke:#000000;stroke-width:0"/>
<circle fill="#a64b00" stroke="#a64b00" stroke-width="0" cx="-37.4853" cy="224.346" r="21.3333"/>
<circle fill="#a64b00" stroke="#a64b00" stroke-width="0" cx="39.3246" cy="430.094" r="21.3333"/>
<circle fill="#a64b00" stroke="#a64b00" stroke-width="0" cx="438.429" cy="102.239" r="21.3333"/>
<circle fill="#a64b00" stroke="#a64b00" stroke-width="0" cx="615.655" cy="226.371" r="21.3333"/>
<circle fill="#a64b00" stroke="#a64b00" stroke-width="0" cx="167.687" cy="281.58" r="21.3333"/>
</svg>
