<?xml version="1.0" encoding="utf-8"?> <!-- Generator: Adobe Illustrator 13.0.0, SVG Export Plug-In . SVG Version: 6.00 Build 14948)  --> <svg version="1.2" baseProfile="tiny" id="Layer_1" xmlns="http://www.w3.org/2000/svg" xmlns:xlink="http://www.w3.org/1999/xlink" x="0px" y="0px" width="512px" height="512px" viewBox="0 0 512 512" xml:space="preserve">
<polygon points="0,0 512,0 512,512 0,512" style="fill:#ffffff; stroke:#000000;stroke-width:0"/>
<polygon points="8.18341,66.7458 50.7944,64.567 61.4801,273.54 18.8691,275.719" style="fill:#006363; stroke:#000000;stroke-width:0"/>
<circle fill="#006363" stroke="#006363" stroke-width="0" cx="29.4889" cy="65.6564" r="21.3333"/>
<circle fill="#006363" stroke="#006363" stroke-width="0" cx="40.1746" cy="274.629" r="21.3333"/>
<polygon points="456.354,207.728 498.932,204.973 512.612,416.394 470.034,419.149" style="fill:#006363; stroke:#000000;stroke-width:0"/>
<circle fill="#006363" stroke="#006363" stroke-width="0" cx="477.643" cy="206.351" r="21.3333"/>
<circle fill="#006363" stroke="#006363" stroke-width="0" cx="491.323" cy="417.772" r="21.3333"/>
<polygon points="1256,469.333 256,1469.33 -744,469.333" style="fill:#000000; stroke:#000000;stroke-width:0"/>
<polygon points="-744,42.6667 256,-957.333 1256,42.6667" style="fill:#000000; stroke:#000000;stroke-width:0"/>
<circle fill="#a64b00" stroke="#a64b00" stroke-width="0" cx="29.4889" cy="65.6564" r="21.3333"/>
<circle fill="#a64b00" stroke="#a64b00" stroke-width="0" cx="40.1746" cy="274.629" r="21.3333"/>
<circle fill="#a64b00" stroke="#a64b00" stroke-width="0" cx="477.643" cy="206.351" r="21.3333"/>
<circle fill="#a64b00" stroke="#a64b00" stroke-width="0" cx="491.323" cy="417.772" r="21.3333"/>
<circle fill="#a64b00" stroke="#a64b00" stroke-width="0" cx="94.3993" cy="288.796" r="21.3333"/>
</svg>
