<?xml version="1.0" encoding="utf-8"?> <!-- Generator: Adobe Illustrator 13.0.0, SVG Export Plug-In . SVG Version: 6.00 Build 14948)  --> <svg version="1.2" baseProfile="tiny" id="Layer_1" xmlns="http://www.w3.org/2000/svg" xmlns:xlink="http://www.w3.org/1999/xlink" x="0px" y="0px" width="512px" height="512px" viewBox="0 0 512 512" xml:space="preserve">
<polygon points="0,0 512,0 512,512 0,512" style="fill:#ffffff; stroke:#000000;stroke-width:0"/>
<polygon points="-102.169,236.9 -68.7554,263.432 -203.173,432.716 -236.587,406.184" style="fill:#006363; stroke:#000000;stroke-width:0"/>
<circle fill="#006363" stroke="#006363" stroke-width="0" cx="-85.4625" cy="250.166" r="21.3333"/>
<circle fill="#006363" stroke="#006363" stroke-width="0" cx="-219.88" cy="419.45" r="21.3333"/>
<polygon points="674.86,447.285 638.326,425.247 750.011,240.103 786.545,262.141" style="fill:#006363; stroke:#000000;stroke-width:0"/>
<circle fill="#006363" stroke="#006363" stroke-width="0" cx="656.593" cy="436.266" r="21.3333"/>
<circle fill="#006363" stroke="#006363" stroke-width="0" cx="768.278" cy="251.122" r="21.3333"/>
<polygon points="1256,469.333 256,1469.33 -744,469.333" style="fill:#000000; stroke:#000000;stroke-width:0"/>
<polygon points="-744,42.6667 256,-957.333 1256,42.6667" style="fill:#000000; stroke:#000000;stroke-width:0"/>
<circle fill="#a64b00" stroke="#a64b00" stroke-width="0" cx="-85.4625" cy="250.166" r="21.3333"/>
<circle fill="#a64b00" stroke="#a64b00" stroke-width="0" cx="-219.88" cy="419.45" r="21.3333"/>
<circle fill="#a64b00" stroke="#a64b00" stroke-width="0" cx="656.593" cy="436.266" r="21.3333"/>
<circle fill="#a64b00" stroke="#a64b00" stroke-width="0" cx="768.278" cy="251.122" r="21.3333"/>
<circle fill="#a64b00" stroke="#a64b00" stroke-width="0" cx="175.112" cy="68.2121" r="21.3333"/>
</svg>
