<?xml version="1.0" encoding="utf-8"?> <!-- Generator: Adobe Illustrator 13.0.0, SVG Export Plug-In . SVG Version: 6.00 Build 14948)  --> <svg version="1.2" baseProfile="tiny" id="Layer_1" xmlns="http://www.w3.org/2000/svg" xmlns:xlink="http://www.w3.org/1999/xlink" x="0px" y="0px" width="512px" height="512px" viewBox="0 0 512 512" xml:space="preserve">
<polygon points="0,0 512,0 512,512 0,512" style="fill:#ffffff; stroke:#000000;stroke-width:0"/>
<polygon points="-400.123,244.793 -418.241,206.164 -227.581,116.739 -209.463,155.368" style="fill:#006363; stroke:#000000;stroke-width:0"/>
<circle fill="#006363" stroke="#006363" stroke-width="0" cx="-409.182" cy="225.478" r="21.3333"/>
<circle fill="#006363" stroke="#006363" stroke-width="0" cx="-218.522" cy="136.053" r="21.3333"/>
<polygon points="914.018,211.441 955.162,222.739 897.056,434.347 855.912,423.049" style="fill:#006363; stroke:#000000;stroke-width:0"/>
<circle fill="#006363" stroke="#006363" stroke-width="0" cx="934.59" cy="217.09" r="21.3333"/>
<circle fill="#006363" stroke="#006363" stroke-width="0" cx="876.484" cy="428.698" r="21.3333"/>
<polygon points="1256,469.333 256,1469.33 -744,469.333" style="fill:#000000; stroke:#000000;stroke-width:0"/>
<polygon points="-744,42.6667 256,-957.333 1256,42.6667" style="fill:#000000; stroke:#000000;stroke-width:0"/>
<circle fill="#a64b00" stroke="#a64b00" stroke-width="0" cx="-409.182" cy="225.478" r="21.3333"/>
<circle fill="#a64b00" stroke="#a64b00" stroke-width="0" cx="-218.522" cy="136.053" r="21.3333"/>
<circle fill="#a64b00" stroke="#a64b00" stroke-width="0" cx="934.59" cy="217.09" r="21.3333"/>
<circle fill="#a64b00" stroke="#a64b00" stroke-width="0" cx="876.484" cy="428.698" r="21.3333"/>
<circle fill="#a64b00" stroke="#a64b00" stroke-width="0" cx="254.969" cy="206.38" r="21.3333"/>
</svg>
