<?xml version="1.0" encoding="utf-8"?> <!-- Generator: Adobe Illustrator 13.0.0, SVG Export Plug-In . SVG Version: 6.00 Build 14948)  --> <svg version="1.2" baseProfile="tiny" id="Layer_1" xmlns="http://www.w3.org/2000/svg" xmlns:xlink="http://www.w3.org/1999/xlink" x="0px" y="0px" width="512px" height="512px" viewBox="0 0 512 512" xml:space="preserve">
<polygon points="0,0 512,0 512,512 0,512" style="fill:#ffffff; stroke:#000000;stroke-width:0"/>
<polygon points="-269.847,330.563 -312.431,327.896 -299.402,119.83 -256.819,122.497" style="fill:#006363; stroke:#000000;stroke-width:0"/>
<circle fill="#006363" stroke="#006363" stroke-width="0" cx="-291.139" cy="329.229" r="21.3333"/>
<circle fill="#006363" stroke="#006363" stroke-width="0" cx="-278.111" cy="121.164" r="21.3333"/>
<polygon points="788.19,270.116 821.032,242.879 957.242,407.114 924.401,434.352" style="fill:#006363; stroke:#000000;stroke-width:0"/>
<circle fill="#006363" stroke="#006363" stroke-width="0" cx="804.611" cy="256.497" r="21.3333"/>
<circle fill="#006363" stroke="#006363" stroke-width="0" cx="940.821" cy="420.733" r="21.3333"/>
<polygon points="1256,469.333 256,1469.33 -744,469.333" style="fill:#000000; stroke:#000000;stroke-width:0"/>
<polygon points="-744,42.6667 256,-957.333 1256,42.6667" style="fill:#000000; stroke:#000000;stroke-width:0"/>
<circle fill="#a64b00" stroke="#a64b00" stroke-width="0" cx="-291.139" cy="329.229" r="21.3333"/>
<circle fill="#a64b00" stroke="#a64b00" stroke-width="0" cx="-278.111" cy="121.164" r="21.3333"/>
<circle fill="#a64b00" stroke="#a64b00" stroke-width="0" cx="804.611" cy="256.497" r="21.3333"/>
<circle fill="#a64b00" stroke="#a64b00" stroke-width="0" cx="940.821" cy="420.733" r="21.3333"/>
<circle fill="#a64b00" stroke="#a64b00" stroke-width="0" cx="-124.948" cy="154.077" r="21.3333"/>
</svg>
