<?xml version="1.0" encoding="utf-8"?> <!-- Generator: Adobe Illustrator 13.0.0, SVG Export Plug-In . SVG Version: 6.00 Build 14948)  --> <svg version="1.2" baseProfile="tiny" id="Layer_1" xmlns="http://www.w3.org/2000/svg" xmlns:xlink="http://www.w3.org/1999/xlink" x="0px" y="0px" width="512px" height="512px" viewBox="0 0 512 512" xml:space="preserve">
<polygon points="0,0 512,0 512,512 0,512" style="fill:#ffffff; stroke:#000000;stroke-width:0"/>
<polygon points="-395.64,163.267 -404.569,121.545 -200.892,77.9567 -191.963,119.679" style="fill:#006363; stroke:#000000;stroke-width:0"/>
<circle fill="#006363" stroke="#006363" stroke-width="0" cx="-400.105" cy="142.406" r="21.3333"/>
<circle fill="#006363" stroke="#006363" stroke-width="0" cx="-196.427" cy="98.8177" r="21.3333"/>
<polygon points="846.327,230.291 888.076,221.492 932.245,431.066 890.496,439.864" style="fill:#006363; stroke:#000000;stroke-width:0"/>
<circle fill="#006363" stroke="#006363" stroke-width="0" cx="867.202" cy="225.891" r="21.3333"/>
<circle fill="#006363" stroke="#006363" stroke-width="0" cx="911.37" cy="435.465" r="21.3333"/>
<polygon points="1256,469.333 256,1469.33 -744,469.333" style="fill:#000000; stroke:#000000;stroke-width:0"/>
<polygon points="-744,42.6667 256,-957.333 1256,42.6667" style="fill:#000000; stroke:#000000;stroke-width:0"/>
<circle fill="#a64b00" stroke="#a64b00" stroke-width="0" cx="-400.105" cy="142.406" r="21.3333"/>
<circle fill="#a64b00" stroke="#a64b00" stroke-width="0" cx="-196.427" cy="98.8177" r="21.3333"/>
<circle fill="#a64b00" stroke="#a64b00" stroke-width="0" cx="867.202" cy="225.891" r="21.3333"/>
<circle fill="#a64b00" stroke="#a64b00" stroke-width="0" cx="911.37" cy="435.465" r="21.3333"/>
<circle fill="#a64b00" stroke="#a64b00" stroke-width="0" cx="-155.969" cy="249.482" r="21.3333"/>
</svg>
