<?xml version="1.0" encoding="utf-8"?> <!-- Generator: Adobe Illustrator 13.0.0, SVG Export Plug-In . SVG Version: 6.00 Build 14948)  --> <svg version="1.2" baseProfile="tiny" id="Layer_1" xmlns="http://www.w3.org/2000/svg" xmlns:xlink="http://www.w3.org/1999/xlink" x="0px" y="0px" width="512px" height="512px" viewBox="0 0 512 512" xml:space="preserve">
<polygon points="0,0 512,0 512,512 0,512" style="fill:#ffffff; stroke:#000000;stroke-width:0"/>
<polygon points="-39.4523,216.224 1.9862,206.061 54.5354,420.314 13.0969,430.477" style="fill:#006363; stroke:#000000;stroke-width:0"/>
<circle fill="#006363" stroke="#006363" stroke-width="0" cx="-18.733" cy="211.142" r="21.3333"/>
<circle fill="#006363" stroke="#006363" stroke-width="0" cx="33.8161" cy="425.395" r="21.3333"/>
<polygon points="445.792,74.7187 482.556,53.0652 590.733,236.73 553.969,258.384" style="fill:#006363; stroke:#000000;stroke-width:0"/>
<circle fill="#006363" stroke="#006363" stroke-width="0" cx="464.174" cy="63.8919" r="21.3333"/>
<circle fill="#006363" stroke="#006363" stroke-width="0" cx="572.351" cy="247.557" r="21.3333"/>
<polygon points="1256,469.333 256,1469.33 -744,469.333" style="fill:#000000; stroke:#000000;stroke-width:0"/>
<polygon points="-744,42.6667 256,-957.333 1256,42.6667" style="fill:#000000; stroke:#000000;stroke-width:0"/>
<circle fill="#a64b00" stroke="#a64b00" stroke-width="0" cx="-18.733" cy="211.142" r="21.3333"/>
<circle fill="#a64b00" stroke="#a64b00" stroke-width="0" cx="33.8161" cy="425.395" r="21.3333"/>
<circle fill="#a64b00" stroke="#a64b00" stroke-width="0" cx="464.174" cy="63.8919" r="21.3333"/>
<circle fill="#a64b00" stroke="#a64b00" stroke-width="0" cx="572.351" cy="247.557" r="21.3333"/>
<circle fill="#a64b00" stroke="#a64b00" stroke-width="0" cx="247.202" cy="366.946" r="21.3333"/>
</svg>
