<?xml version="1.0" encoding="utf-8"?> <!-- Generator: Adobe Illustrator 13.0.0, SVG Export Plug-In . SVG Version: 6.00 Build 14948)  --> <svg version="1.2" baseProfile="tiny" id="Layer_1" xmlns="http://www.w3.org/2000/svg" xmlns:xlink="http://www.w3.org/1999/xlink" x="0px" y="0px" width="512px" height="512px" viewBox="0 0 512 512" xml:space="preserve">
<polygon points="0,0 512,0 512,512 0,512" style="fill:#ffffff; stroke:#000000;stroke-width:0"/>
<polygon points="-134.607,174.365 -102.938,145.773 39.1304,303.128 7.46135,331.721" style="fill:#006363; stroke:#000000;stroke-width:0"/>
<circle fill="#006363" stroke="#006363" stroke-width="0" cx="-118.772" cy="160.069" r="21.3333"/>
<circle fill="#006363" stroke="#006363" stroke-width="0" cx="23.2959" cy="317.425" r="21.3333"/>
<polygon points="648.468,312.099 609.624,329.751 521.484,135.797 560.328,118.145" style="fill:#006363; stroke:#000000;stroke-width:0"/>
<circle fill="#006363" stroke="#006363" stroke-width="0" cx="629.046" cy="320.925" r="21.3333"/>
<circle fill="#006363" stroke="#006363" stroke-width="0" cx="540.906" cy="126.971" r="21.3333"/>
<polygon points="1256,469.333 256,1469.33 -744,469.333" style="fill:#000000; stroke:#000000;stroke-width:0"/>
<polygon points="-744,42.6667 256,-957.333 1256,42.6667" style="fill:#000000; stroke:#000000;stroke-width:0"/>
<circle fill="#a64b00" stroke="#a64b00" stroke-width="0" cx="-118.772" cy="160.069" r="21.3333"/>
<circle fill="#a64b00" stroke="#a64b00" stroke-width="0" cx="23.2959" cy="317.425" r="21.3333"/>
<circle fill="#a64b00" stroke="#a64b00" stroke-width="0" cx="629.046" cy="320.925" r="21.3333"/>
<circle fill="#a64b00" stroke="#a64b00" stroke-width="0" cx="540.906" cy="126.971" r="21.3333"/>
<circle fill="#a64b00" stroke="#a64b00" stroke-width="0" cx="413.729" cy="144.536" r="21.3333"/>
</svg>
