<?xml version="1.0" encoding="utf-8"?> <!-- Generator: Adobe Illustrator 13.0.0, SVG Export Plug-In . SVG Version: 6.00 Build 14948)  --> <svg version="1.2" baseProfile="tiny" id="Layer_1" xmlns="http://www.w3.org/2000/svg" xmlns:xlink="http://www.w3.org/1999/xlink" x="0px" y="0px" width="512px" height="512px" viewBox="0 0 512 512" xml:space="preserve">
<polygon points="0,0 512,0 512,512 0,512" style="fill:#ffffff; stroke:#000000;stroke-width:0"/>
<polygon points="-163.534,348.459 -181.459,387.178 -380.532,295.013 -362.606,256.294" style="fill:#006363; stroke:#000000;stroke-width:0"/>
<circle fill="#006363" stroke="#006363" stroke-width="0" cx="-172.497" cy="367.819" r="21.3333"/>
<circle fill="#006363" stroke="#006363" stroke-width="0" cx="-371.569" cy="275.653" r="21.3333"/>
<polygon points="752.109,320.791 770.002,282.058 962.733,371.092 944.84,409.825" style="fill:#006363; stroke:#000000;stroke-width:0"/>
<circle fill="#006363" stroke="#006363" stroke-width="0" cx="761.055" cy="301.424" r="21.3333"/>
<circle fill="#006363" stroke="#006363" stroke-width="0" cx="953.787" cy="390.459" r="21.3333"/>
<polygon points="1256,469.333 256,1469.33 -744,469.333" style="fill:#000000; stroke:#000000;stroke-width:0"/>
<polygon points="-744,42.6667 256,-957.333 1256,42.6667" style="fill:#000000; stroke:#000000;stroke-width:0"/>
<circle fill="#a64b00" stroke="#a64b00" stroke-width="0" cx="-172.497" cy="367.819" r="21.3333"/>
<circle fill="#a64b00" stroke="#a64b00" stroke-width="0" cx="-371.569" cy="275.653" r="21.3333"/>
<circle fill="#a64b00" stroke="#a64b00" stroke-width="0" cx="761.055" cy="301.424" r="21.3333"/>
<circle fill="#a64b00" stroke="#a64b00" stroke-width="0" cx="953.787" cy="390.459" r="21.3333"/>
<circle fill="#a64b00" stroke="#a64b00" stroke-width="0" cx="-96.3145" cy="421.212" r="21.3333"/>
</svg>
