<?xml version="1.0" encoding="utf-8"?> <!-- Generator: Adobe Illustrator 13.0.0, SVG Export Plug-In . SVG Version: 6.00 Build 14948)  --> <svg version="1.2" baseProfile="tiny" id="Layer_1" xmlns="http://www.w3.org/2000/svg" xmlns:xlink="http://www.w3.org/1999/xlink" x="0px" y="0px" width="512px" height="512px" viewBox="0 0 512 512" xml:space="preserve">
<polygon points="0,0 512,0 512,512 0,512" style="fill:#ffffff; stroke:#000000;stroke-width:0"/>
<polygon points="-119.008,151.584 -119.363,194.249 -325.895,192.531 -325.54,149.865" style="fill:#006363; stroke:#000000;stroke-width:0"/>
<circle fill="#006363" stroke="#006363" stroke-width="0" cx="-119.186" cy="172.916" r="21.3333"/>
<circle fill="#006363" stroke="#006363" stroke-width="0" cx="-325.718" cy="171.198" r="21.3333"/>
<polygon points="751.911,420.254 716.916,395.844 842.482,215.828 877.477,240.238" style="fill:#006363; stroke:#000000;stroke-width:0"/>
<circle fill="#006363" stroke="#006363" stroke-width="0" cx="734.413" cy="408.049" r="21.3333"/>
<circle fill="#006363" stroke="#006363" stroke-width="0" cx="859.979" cy="228.033" r="21.3333"/>
<polygon points="1256,469.333 256,1469.33 -744,469.333" style="fill:#000000; stroke:#000000;stroke-width:0"/>
<polygon points="-744,42.6667 256,-957.333 1256,42.6667" style="fill:#000000; stroke:#000000;stroke-width:0"/>
<circle fill="#a64b00" stroke="#a64b00" stroke-width="0" cx="-119.186" cy="172.916" r="21.3333"/>
<circle fill="#a64b00" stroke="#a64b00" stroke-width="0" cx="-325.718" cy="171.198" r="21.3333"/>
<circle fill="#a64b00" stroke="#a64b00" stroke-width="0" cx="734.413" cy="408.049" r="21.3333"/>
<circle fill="#a64b00" stroke="#a64b00" stroke-width="0" cx="859.979" cy="228.033" r="21.3333"/>
<circle fill="#a64b00" stroke="#a64b00" stroke-width="0" cx="16.432" cy="239.942" r="21.3333"/>
</svg>
