<?xml version="1.0" encoding="utf-8"?> <!-- Generator: Adobe Illustrator 13.0.0, SVG Export Plug-In . SVG Version: 6.00 Build 14948)  --> <svg version="1.2" baseProfile="tiny" id="Layer_1" xmlns="http://www.w3.org/2000/svg" xmlns:xlink="http://www.w3.org/1999/xlink" x="0px" y="0px" width="512px" height="512px" viewBox="0 0 512 512" xml:space="preserve">
<polygon points="0,0 512,0 512,512 0,512" style="fill:#ffffff; stroke:#000000;stroke-width:0"/>
<polygon points="-116.639,144.665 -117.84,187.314 -325.116,181.481 -323.916,138.831" style="fill:#006363; stroke:#000000;stroke-width:0"/>
<circle fill="#006363" stroke="#006363" stroke-width="0" cx="-117.24" cy="165.99" r="21.3333"/>
<circle fill="#006363" stroke="#006363" stroke-width="0" cx="-324.516" cy="160.156" r="21.3333"/>
<polygon points="753.116,412.983 717.771,389.084 837.453,212.082 872.798,235.982" style="fill:#006363; stroke:#000000;stroke-width:0"/>
<circle fill="#006363" stroke="#006363" stroke-width="0" cx="735.443" cy="401.033" r="21.3333"/>
<circle fill="#006363" stroke="#006363" stroke-width="0" cx="855.126" cy="224.032" r="21.3333"/>
<polygon points="1256,469.333 256,1469.33 -744,469.333" style="fill:#000000; stroke:#000000;stroke-width:0"/>
<polygon points="-744,42.6667 256,-957.333 1256,42.6667" style="fill:#000000; stroke:#000000;stroke-width:0"/>
<circle fill="#a64b00" stroke="#a64b00" stroke-width="0" cx="-117.24" cy="165.99" r="21.3333"/>
<circle fill="#a64b00" stroke="#a64b00" stroke-width="0" cx="-324.516" cy="160.156" r="21.3333"/>
<circle fill="#a64b00" stroke="#a64b00" stroke-width="0" cx="735.443" cy="401.033" r="21.3333"/>
<circle fill="#a64b00" stroke="#a64b00" stroke-width="0" cx="855.126" cy="224.032" r="21.3333"/>
<circle fill="#a64b00" stroke="#a64b00" stroke-width="0" cx="20.0112" cy="182.698" r="21.3333"/>
</svg>
