<?xml version="1.0" encoding="utf-8"?> <!-- Generator: Adobe Illustrator 13.0.0, SVG Export Plug-In . SVG Version: 6.00 Build 14948)  --> <svg version="1.2" baseProfile="tiny" id="Layer_1" xmlns="http://www.w3.org/2000/svg" xmlns:xlink="http://www.w3.org/1999/xlink" x="0px" y="0px" width="512px" height="512px" viewBox="0 0 512 512" xml:space="preserve">
<polygon points="0,0 512,0 512,512 0,512" style="fill:#ffffff; stroke:#000000;stroke-width:0"/>
<polygon points="-229.27,352.763 -270.181,364.876 -332.635,153.945 -291.724,141.832" style="fill:#006363; stroke:#000000;stroke-width:0"/>
<circle fill="#006363" stroke="#006363" stroke-width="0" cx="-249.725" cy="358.82" r="21.3333"/>
<circle fill="#006363" stroke="#006363" stroke-width="0" cx="-312.179" cy="147.888" r="21.3333"/>
<polygon points="777.389,285.334 806.456,254.1 959.121,396.17 930.054,427.404" style="fill:#006363; stroke:#000000;stroke-width:0"/>
<circle fill="#006363" stroke="#006363" stroke-width="0" cx="791.923" cy="269.717" r="21.3333"/>
<circle fill="#006363" stroke="#006363" stroke-width="0" cx="944.588" cy="411.787" r="21.3333"/>
<polygon points="1256,469.333 256,1469.33 -744,469.333" style="fill:#000000; stroke:#000000;stroke-width:0"/>
<polygon points="-744,42.6667 256,-957.333 1256,42.6667" style="fill:#000000; stroke:#000000;stroke-width:0"/>
<circle fill="#a64b00" stroke="#a64b00" stroke-width="0" cx="-249.725" cy="358.82" r="21.3333"/>
<circle fill="#a64b00" stroke="#a64b00" stroke-width="0" cx="-312.179" cy="147.888" r="21.3333"/>
<circle fill="#a64b00" stroke="#a64b00" stroke-width="0" cx="791.923" cy="269.717" r="21.3333"/>
<circle fill="#a64b00" stroke="#a64b00" stroke-width="0" cx="944.588" cy="411.787" r="21.3333"/>
<circle fill="#a64b00" stroke="#a64b00" stroke-width="0" cx="-116.597" cy="96.8337" r="21.3333"/>
</svg>
