<?xml version="1.0" encoding="utf-8"?> <!-- Generator: Adobe Illustrator 13.0.0, SVG Export Plug-In . SVG Version: 6.00 Build 14948)  --> <svg version="1.2" baseProfile="tiny" id="Layer_1" xmlns="http://www.w3.org/2000/svg" xmlns:xlink="http://www.w3.org/1999/xlink" x="0px" y="0px" width="512px" height="512px" viewBox="0 0 512 512" xml:space="preserve">
<polygon points="0,0 512,0 512,512 0,512" style="fill:#ffffff; stroke:#000000;stroke-width:0"/>
<polygon points="-196.356,311.586 -171.945,276.592 7.4895,401.764 -16.9216,436.757" style="fill:#006363; stroke:#000000;stroke-width:0"/>
<circle fill="#006363" stroke="#006363" stroke-width="0" cx="-184.151" cy="294.089" r="21.3333"/>
<circle fill="#006363" stroke="#006363" stroke-width="0" cx="-4.71603" cy="419.261" r="21.3333"/>
<polygon points="654.515,176.121 695.09,189.319 628.876,392.889 588.302,379.691" style="fill:#006363; stroke:#000000;stroke-width:0"/>
<circle fill="#006363" stroke="#006363" stroke-width="0" cx="674.803" cy="182.72" r="21.3333"/>
<circle fill="#006363" stroke="#006363" stroke-width="0" cx="608.589" cy="386.29" r="21.3333"/>
<polygon points="1256,469.333 256,1469.33 -744,469.333" style="fill:#000000; stroke:#000000;stroke-width:0"/>
<polygon points="-744,42.6667 256,-957.333 1256,42.6667" style="fill:#000000; stroke:#000000;stroke-width:0"/>
<circle fill="#a64b00" stroke="#a64b00" stroke-width="0" cx="-184.151" cy="294.089" r="21.3333"/>
<circle fill="#a64b00" stroke="#a64b00" stroke-width="0" cx="-4.71603" cy="419.261" r="21.3333"/>
<circle fill="#a64b00" stroke="#a64b00" stroke-width="0" cx="674.803" cy="182.72" r="21.3333"/>
<circle fill="#a64b00" stroke="#a64b00" stroke-width="0" cx="608.589" cy="386.29" r="21.3333"/>
<circle fill="#a64b00" stroke="#a64b00" stroke-width="0" cx="307.544" cy="278.104" r="21.3333"/>
</svg>
