<?xml version="1.0" encoding="utf-8"?> <!-- Generator: Adobe Illustrator 13.0.0, SVG Export Plug-In . SVG Version: 6.00 Build 14948)  --> <svg version="1.2" baseProfile="tiny" id="Layer_1" xmlns="http://www.w3.org/2000/svg" xmlns:xlink="http://www.w3.org/1999/xlink" x="0px" y="0px" width="512px" height="512px" viewBox="0 0 512 512" xml:space="preserve">
<polygon points="0,0 512,0 512,512 0,512" style="fill:#ffffff; stroke:#000000;stroke-width:0"/>
<polygon points="-396.046,274.043 -418.763,237.927 -235.485,122.65 -212.768,158.767" style="fill:#006363; stroke:#000000;stroke-width:0"/>
<circle fill="#006363" stroke="#006363" stroke-width="0" cx="-407.404" cy="255.985" r="21.3333"/>
<circle fill="#006363" stroke="#006363" stroke-width="0" cx="-224.126" cy="140.709" r="21.3333"/>
<polygon points="921.632,213.159 962.062,226.793 893.266,430.797 852.836,417.163" style="fill:#006363; stroke:#000000;stroke-width:0"/>
<circle fill="#006363" stroke="#006363" stroke-width="0" cx="941.847" cy="219.976" r="21.3333"/>
<circle fill="#006363" stroke="#006363" stroke-width="0" cx="873.051" cy="423.98" r="21.3333"/>
<polygon points="1256,469.333 256,1469.33 -744,469.333" style="fill:#000000; stroke:#000000;stroke-width:0"/>
<polygon points="-744,42.6667 256,-957.333 1256,42.6667" style="fill:#000000; stroke:#000000;stroke-width:0"/>
<circle fill="#a64b00" stroke="#a64b00" stroke-width="0" cx="-407.404" cy="255.985" r="21.3333"/>
<circle fill="#a64b00" stroke="#a64b00" stroke-width="0" cx="-224.126" cy="140.709" r="21.3333"/>
<circle fill="#a64b00" stroke="#a64b00" stroke-width="0" cx="941.847" cy="219.976" r="21.3333"/>
<circle fill="#a64b00" stroke="#a64b00" stroke-width="0" cx="873.051" cy="423.98" r="21.3333"/>
<circle fill="#a64b00" stroke="#a64b00" stroke-width="0" cx="319.292" cy="217.362" r="21.3333"/>
</svg>
