<?xml version="1.0" encoding="utf-8"?> <!-- Generator: Adobe Illustrator 13.0.0, SVG Export Plug-In . SVG Version: 6.00 Build 14948)  --> <svg version="1.2" baseProfile="tiny" id="Layer_1" xmlns="http://www.w3.org/2000/svg" xmlns:xlink="http://www.w3.org/1999/xlink" x="0px" y="0px" width="512px" height="512px" viewBox="0 0 512 512" xml:space="preserve">
<polygon points="0,0 512,0 512,512 0,512" style="fill:#ffffff; stroke:#000000;stroke-width:0"/>
<polygon points="-189.257,244.962 -219.569,214.935 -67.8167,61.7404 -37.5045,91.7673" style="fill:#006363; stroke:#000000;stroke-width:0"/>
<circle fill="#006363" stroke="#006363" stroke-width="0" cx="-204.413" cy="229.948" r="21.3333"/>
<circle fill="#006363" stroke="#006363" stroke-width="0" cx="-52.6606" cy="76.7539" r="21.3333"/>
<polygon points="573.851,335.83 579.434,293.53 792.389,321.635 786.807,363.935" style="fill:#006363; stroke:#000000;stroke-width:0"/>
<circle fill="#006363" stroke="#006363" stroke-width="0" cx="576.642" cy="314.68" r="21.3333"/>
<circle fill="#006363" stroke="#006363" stroke-width="0" cx="789.598" cy="342.785" r="21.3333"/>
<polygon points="1256,469.333 256,1469.33 -744,469.333" style="fill:#000000; stroke:#000000;stroke-width:0"/>
<polygon points="-744,42.6667 256,-957.333 1256,42.6667" style="fill:#000000; stroke:#000000;stroke-width:0"/>
<circle fill="#a64b00" stroke="#a64b00" stroke-width="0" cx="-204.413" cy="229.948" r="21.3333"/>
<circle fill="#a64b00" stroke="#a64b00" stroke-width="0" cx="-52.6606" cy="76.7539" r="21.3333"/>
<circle fill="#a64b00" stroke="#a64b00" stroke-width="0" cx="576.642" cy="314.68" r="21.3333"/>
<circle fill="#a64b00" stroke="#a64b00" stroke-width="0" cx="789.598" cy="342.785" r="21.3333"/>
<circle fill="#a64b00" stroke="#a64b00" stroke-width="0" cx="229.994" cy="163.617" r="21.3333"/>
</svg>
