<?xml version="1.0" encoding="utf-8"?> <!-- Generator: Adobe Illustrator 13.0.0, SVG Export Plug-In . SVG Version: 6.00 Build 14948)  --> <svg version="1.2" baseProfile="tiny" id="Layer_1" xmlns="http://www.w3.org/2000/svg" xmlns:xlink="http://www.w3.org/1999/xlink" x="0px" y="0px" width="512px" height="512px" viewBox="0 0 512 512" xml:space="preserve">
<polygon points="0,0 512,0 512,512 0,512" style="fill:#ffffff; stroke:#000000;stroke-width:0"/>
<polygon points="-101.402,44.2462 -88.0809,84.7802 -290.511,151.305 -303.832,110.771" style="fill:#006363; stroke:#000000;stroke-width:0"/>
<circle fill="#006363" stroke="#006363" stroke-width="0" cx="-94.7413" cy="64.5132" r="21.3333"/>
<circle fill="#006363" stroke="#006363" stroke-width="0" cx="-297.171" cy="131.038" r="21.3333"/>
<polygon points="746.897,331.254 707.105,315.857 783.129,119.375 822.921,134.772" style="fill:#006363; stroke:#000000;stroke-width:0"/>
<circle fill="#006363" stroke="#006363" stroke-width="0" cx="727.001" cy="323.555" r="21.3333"/>
<circle fill="#006363" stroke="#006363" stroke-width="0" cx="803.025" cy="127.074" r="21.3333"/>
<polygon points="1256,469.333 256,1469.33 -744,469.333" style="fill:#000000; stroke:#000000;stroke-width:0"/>
<polygon points="-744,42.6667 256,-957.333 1256,42.6667" style="fill:#000000; stroke:#000000;stroke-width:0"/>
<circle fill="#a64b00" stroke="#a64b00" stroke-width="0" cx="-94.7413" cy="64.5132" r="21.3333"/>
<circle fill="#a64b00" stroke="#a64b00" stroke-width="0" cx="-297.171" cy="131.038" r="21.3333"/>
<circle fill="#a64b00" stroke="#a64b00" stroke-width="0" cx="727.001" cy="323.555" r="21.3333"/>
<circle fill="#a64b00" stroke="#a64b00" stroke-width="0" cx="803.025" cy="127.074" r="21.3333"/>
<circle fill="#a64b00" stroke="#a64b00" stroke-width="0" cx="76.6827" cy="58.6716" r="21.3333"/>
</svg>
