<?xml version="1.0" encoding="utf-8"?> <!-- Generator: Adobe Illustrator 13.0.0, SVG Export Plug-In . SVG Version: 6.00 Build 14948)  --> <svg version="1.2" baseProfile="tiny" id="Layer_1" xmlns="http://www.w3.org/2000/svg" xmlns:xlink="http://www.w3.org/1999/xlink" x="0px" y="0px" width="512px" height="512px" viewBox="0 0 512 512" xml:space="preserve">
<polygon points="0,0 512,0 512,512 0,512" style="fill:#ffffff; stroke:#000000;stroke-width:0"/>
<polygon points="-36.4011,218.63 5.09321,208.697 53.0895,409.194 11.5952,419.127" style="fill:#006363; stroke:#000000;stroke-width:0"/>
<circle fill="#006363" stroke="#006363" stroke-width="0" cx="-15.6539" cy="213.664" r="21.3333"/>
<circle fill="#006363" stroke="#006363" stroke-width="0" cx="32.3423" cy="414.161" r="21.3333"/>
<polygon points="446.054,80.1091 483.161,59.0487 588.342,244.369 551.236,265.43" style="fill:#006363; stroke:#000000;stroke-width:0"/>
<circle fill="#006363" stroke="#006363" stroke-width="0" cx="464.607" cy="69.5789" r="21.3333"/>
<circle fill="#006363" stroke="#006363" stroke-width="0" cx="569.789" cy="254.899" r="21.3333"/>
<polygon points="1256,469.333 256,1469.33 -744,469.333" style="fill:#000000; stroke:#000000;stroke-width:0"/>
<polygon points="-744,42.6667 256,-957.333 1256,42.6667" style="fill:#000000; stroke:#000000;stroke-width:0"/>
<circle fill="#a64b00" stroke="#a64b00" stroke-width="0" cx="-15.6539" cy="213.664" r="21.3333"/>
<circle fill="#a64b00" stroke="#a64b00" stroke-width="0" cx="32.3423" cy="414.161" r="21.3333"/>
<circle fill="#a64b00" stroke="#a64b00" stroke-width="0" cx="464.607" cy="69.5789" r="21.3333"/>
<circle fill="#a64b00" stroke="#a64b00" stroke-width="0" cx="569.789" cy="254.899" r="21.3333"/>
<circle fill="#a64b00" stroke="#a64b00" stroke-width="0" cx="256.84" cy="335.904" r="21.3333"/>
</svg>
