<?xml version="1.0" encoding="utf-8"?> <!-- Generator: Adobe Illustrator 13.0.0, SVG Export Plug-In . SVG Version: 6.00 Build 14948)  --> <svg version="1.2" baseProfile="tiny" id="Layer_1" xmlns="http://www.w3.org/2000/svg" xmlns:xlink="http://www.w3.org/1999/xlink" x="0px" y="0px" width="512px" height="512px" viewBox="0 0 512 512" xml:space="preserve">
<polygon points="0,0 512,0 512,512 0,512" style="fill:#ffffff; stroke:#000000;stroke-width:0"/>
<polygon points="-330.094,288.991 -366.211,266.275 -249.649,80.9521 -213.532,103.668" style="fill:#006363; stroke:#000000;stroke-width:0"/>
<circle fill="#006363" stroke="#006363" stroke-width="0" cx="-348.153" cy="277.633" r="21.3333"/>
<circle fill="#006363" stroke="#006363" stroke-width="0" cx="-231.59" cy="92.3103" r="21.3333"/>
<polygon points="810.545,255.629 847.89,234.993 947.633,415.495 910.289,436.131" style="fill:#006363; stroke:#000000;stroke-width:0"/>
<circle fill="#006363" stroke="#006363" stroke-width="0" cx="829.218" cy="245.311" r="21.3333"/>
<circle fill="#006363" stroke="#006363" stroke-width="0" cx="928.961" cy="425.813" r="21.3333"/>
<polygon points="1256,469.333 256,1469.33 -744,469.333" style="fill:#000000; stroke:#000000;stroke-width:0"/>
<polygon points="-744,42.6667 256,-957.333 1256,42.6667" style="fill:#000000; stroke:#000000;stroke-width:0"/>
<circle fill="#a64b00" stroke="#a64b00" stroke-width="0" cx="-348.153" cy="277.633" r="21.3333"/>
<circle fill="#a64b00" stroke="#a64b00" stroke-width="0" cx="-231.59" cy="92.3103" r="21.3333"/>
<circle fill="#a64b00" stroke="#a64b00" stroke-width="0" cx="829.218" cy="245.311" r="21.3333"/>
<circle fill="#a64b00" stroke="#a64b00" stroke-width="0" cx="928.961" cy="425.813" r="21.3333"/>
<circle fill="#a64b00" stroke="#a64b00" stroke-width="0" cx="-136.879" cy="344.887" r="21.3333"/>
</svg>
