<?xml version="1.0" encoding="utf-8"?> <!-- Generator: Adobe Illustrator 13.0.0, SVG Export Plug-In . SVG Version: 6.00 Build 14948)  --> <svg version="1.2" baseProfile="tiny" id="Layer_1" xmlns="http://www.w3.org/2000/svg" xmlns:xlink="http://www.w3.org/1999/xlink" x="0px" y="0px" width="512px" height="512px" viewBox="0 0 512 512" xml:space="preserve">
<polygon points="0,0 512,0 512,512 0,512" style="fill:#ffffff; stroke:#000000;stroke-width:0"/>
<polygon points="-381.173,317.067 -410.745,286.31 -256.736,138.231 -227.164,168.988" style="fill:#006363; stroke:#000000;stroke-width:0"/>
<circle fill="#006363" stroke="#006363" stroke-width="0" cx="-395.959" cy="301.689" r="21.3333"/>
<circle fill="#006363" stroke="#006363" stroke-width="0" cx="-241.95" cy="153.61" r="21.3333"/>
<polygon points="935.864,211.079 974.859,228.396 885.407,429.824 846.412,412.507" style="fill:#006363; stroke:#000000;stroke-width:0"/>
<circle fill="#006363" stroke="#006363" stroke-width="0" cx="955.362" cy="219.737" r="21.3333"/>
<circle fill="#006363" stroke="#006363" stroke-width="0" cx="865.909" cy="421.166" r="21.3333"/>
<polygon points="1256,469.333 256,1469.33 -744,469.333" style="fill:#000000; stroke:#000000;stroke-width:0"/>
<polygon points="-744,42.6667 256,-957.333 1256,42.6667" style="fill:#000000; stroke:#000000;stroke-width:0"/>
<circle fill="#a64b00" stroke="#a64b00" stroke-width="0" cx="-395.959" cy="301.689" r="21.3333"/>
<circle fill="#a64b00" stroke="#a64b00" stroke-width="0" cx="-241.95" cy="153.61" r="21.3333"/>
<circle fill="#a64b00" stroke="#a64b00" stroke-width="0" cx="955.362" cy="219.737" r="21.3333"/>
<circle fill="#a64b00" stroke="#a64b00" stroke-width="0" cx="865.909" cy="421.166" r="21.3333"/>
<circle fill="#a64b00" stroke="#a64b00" stroke-width="0" cx="426.496" cy="235.666" r="21.3333"/>
</svg>
