<?xml version="1.0" encoding="utf-8"?> <!-- Generator: Adobe Illustrator 13.0.0, SVG Export Plug-In . SVG Version: 6.00 Build 14948)  --> <svg version="1.2" baseProfile="tiny" id="Layer_1" xmlns="http://www.w3.org/2000/svg" xmlns:xlink="http://www.w3.org/1999/xlink" x="0px" y="0px" width="512px" height="512px" viewBox="0 0 512 512" xml:space="preserve">
<polygon points="0,0 512,0 512,512 0,512" style="fill:#ffffff; stroke:#000000;stroke-width:0"/>
<polygon points="-145.896,245.055 -134.327,286.124 -342.031,344.631 -353.599,303.563" style="fill:#006363; stroke:#000000;stroke-width:0"/>
<circle fill="#006363" stroke="#006363" stroke-width="0" cx="-140.111" cy="265.589" r="21.3333"/>
<circle fill="#006363" stroke="#006363" stroke-width="0" cx="-347.815" cy="324.097" r="21.3333"/>
<polygon points="747.456,435.733 724.581,399.716 899.195,288.814 922.07,324.83" style="fill:#006363; stroke:#000000;stroke-width:0"/>
<circle fill="#006363" stroke="#006363" stroke-width="0" cx="736.018" cy="417.725" r="21.3333"/>
<circle fill="#006363" stroke="#006363" stroke-width="0" cx="910.633" cy="306.822" r="21.3333"/>
<polygon points="1256,469.333 256,1469.33 -744,469.333" style="fill:#000000; stroke:#000000;stroke-width:0"/>
<polygon points="-744,42.6667 256,-957.333 1256,42.6667" style="fill:#000000; stroke:#000000;stroke-width:0"/>
<circle fill="#a64b00" stroke="#a64b00" stroke-width="0" cx="-140.111" cy="265.589" r="21.3333"/>
<circle fill="#a64b00" stroke="#a64b00" stroke-width="0" cx="-347.815" cy="324.097" r="21.3333"/>
<circle fill="#a64b00" stroke="#a64b00" stroke-width="0" cx="736.018" cy="417.725" r="21.3333"/>
<circle fill="#a64b00" stroke="#a64b00" stroke-width="0" cx="910.633" cy="306.822" r="21.3333"/>
<circle fill="#a64b00" stroke="#a64b00" stroke-width="0" cx="-32.4845" cy="239.942" r="21.3333"/>
</svg>
