<?xml version="1.0" encoding="utf-8"?> <!-- Generator: Adobe Illustrator 13.0.0, SVG Export Plug-In . SVG Version: 6.00 Build 14948)  --> <svg version="1.2" baseProfile="tiny" id="Layer_1" xmlns="http://www.w3.org/2000/svg" xmlns:xlink="http://www.w3.org/1999/xlink" x="0px" y="0px" width="512px" height="512px" viewBox="0 0 512 512" xml:space="preserve">
<polygon points="0,0 512,0 512,512 0,512" style="fill:#ffffff; stroke:#000000;stroke-width:0"/>
<polygon points="-65.7517,246.264 -67.0603,288.911 -290.484,282.055 -289.175,239.409" style="fill:#006363; stroke:#000000;stroke-width:0"/>
<circle fill="#006363" stroke="#006363" stroke-width="0" cx="-66.406" cy="267.588" r="21.3333"/>
<circle fill="#006363" stroke="#006363" stroke-width="0" cx="-289.829" cy="260.732" r="21.3333"/>
<polygon points="738.554,287.501 697.12,277.319 748.135,69.7088 789.57,79.8903" style="fill:#006363; stroke:#000000;stroke-width:0"/>
<circle fill="#006363" stroke="#006363" stroke-width="0" cx="717.837" cy="282.41" r="21.3333"/>
<circle fill="#006363" stroke="#006363" stroke-width="0" cx="768.853" cy="74.7995" r="21.3333"/>
<polygon points="1256,469.333 256,1469.33 -744,469.333" style="fill:#000000; stroke:#000000;stroke-width:0"/>
<polygon points="-744,42.6667 256,-957.333 1256,42.6667" style="fill:#000000; stroke:#000000;stroke-width:0"/>
<circle fill="#a64b00" stroke="#a64b00" stroke-width="0" cx="-66.406" cy="267.588" r="21.3333"/>
<circle fill="#a64b00" stroke="#a64b00" stroke-width="0" cx="-289.829" cy="260.732" r="21.3333"/>
<circle fill="#a64b00" stroke="#a64b00" stroke-width="0" cx="717.837" cy="282.41" r="21.3333"/>
<circle fill="#a64b00" stroke="#a64b00" stroke-width="0" cx="768.853" cy="74.7995" r="21.3333"/>
<circle fill="#a64b00" stroke="#a64b00" stroke-width="0" cx="117.248" cy="192.239" r="21.3333"/>
</svg>
