<?xml version="1.0" encoding="utf-8"?> <!-- Generator: Adobe Illustrator 13.0.0, SVG Export Plug-In . SVG Version: 6.00 Build 14948)  --> <svg version="1.2" baseProfile="tiny" id="Layer_1" xmlns="http://www.w3.org/2000/svg" xmlns:xlink="http://www.w3.org/1999/xlink" x="0px" y="0px" width="512px" height="512px" viewBox="0 0 512 512" xml:space="preserve">
<polygon points="0,0 512,0 512,512 0,512" style="fill:#ffffff; stroke:#000000;stroke-width:0"/>
<polygon points="-252.245,344.495 -294.749,348.217 -313.856,130.033 -271.352,126.311" style="fill:#006363; stroke:#000000;stroke-width:0"/>
<circle fill="#006363" stroke="#006363" stroke-width="0" cx="-273.497" cy="346.356" r="21.3333"/>
<circle fill="#006363" stroke="#006363" stroke-width="0" cx="-292.604" cy="128.172" r="21.3333"/>
<polygon points="785.038,278.327 816.34,249.334 956.571,400.734 925.268,429.728" style="fill:#006363; stroke:#000000;stroke-width:0"/>
<circle fill="#006363" stroke="#006363" stroke-width="0" cx="800.689" cy="263.831" r="21.3333"/>
<circle fill="#006363" stroke="#006363" stroke-width="0" cx="940.92" cy="415.231" r="21.3333"/>
<polygon points="1256,469.333 256,1469.33 -744,469.333" style="fill:#000000; stroke:#000000;stroke-width:0"/>
<polygon points="-744,42.6667 256,-957.333 1256,42.6667" style="fill:#000000; stroke:#000000;stroke-width:0"/>
<circle fill="#a64b00" stroke="#a64b00" stroke-width="0" cx="-273.497" cy="346.356" r="21.3333"/>
<circle fill="#a64b00" stroke="#a64b00" stroke-width="0" cx="-292.604" cy="128.172" r="21.3333"/>
<circle fill="#a64b00" stroke="#a64b00" stroke-width="0" cx="800.689" cy="263.831" r="21.3333"/>
<circle fill="#a64b00" stroke="#a64b00" stroke-width="0" cx="940.92" cy="415.231" r="21.3333"/>
<circle fill="#a64b00" stroke="#a64b00" stroke-width="0" cx="-121.369" cy="96.8337" r="21.3333"/>
</svg>
