<?xml version="1.0" encoding="utf-8"?> <!-- Generator: Adobe Illustrator 13.0.0, SVG Export Plug-In . SVG Version: 6.00 Build 14948)  --> <svg version="1.2" baseProfile="tiny" id="Layer_1" xmlns="http://www.w3.org/2000/svg" xmlns:xlink="http://www.w3.org/1999/xlink" x="0px" y="0px" width="512px" height="512px" viewBox="0 0 512 512" xml:space="preserve">
<polygon points="0,0 512,0 512,512 0,512" style="fill:#ffffff; stroke:#000000;stroke-width:0"/>
<polygon points="-125.182,197.486 -119.529,239.776 -341.233,269.414 -346.886,227.124" style="fill:#006363; stroke:#000000;stroke-width:0"/>
<circle fill="#006363" stroke="#006363" stroke-width="0" cx="-122.356" cy="218.631" r="21.3333"/>
<circle fill="#006363" stroke="#006363" stroke-width="0" cx="-344.06" cy="248.269" r="21.3333"/>
<polygon points="758.553,449.145 726.097,421.449 861.969,262.221 894.425,289.916" style="fill:#006363; stroke:#000000;stroke-width:0"/>
<circle fill="#006363" stroke="#006363" stroke-width="0" cx="742.325" cy="435.297" r="21.3333"/>
<circle fill="#006363" stroke="#006363" stroke-width="0" cx="878.197" cy="276.069" r="21.3333"/>
<polygon points="1256,469.333 256,1469.33 -744,469.333" style="fill:#000000; stroke:#000000;stroke-width:0"/>
<polygon points="-744,42.6667 256,-957.333 1256,42.6667" style="fill:#000000; stroke:#000000;stroke-width:0"/>
<circle fill="#a64b00" stroke="#a64b00" stroke-width="0" cx="-122.356" cy="218.631" r="21.3333"/>
<circle fill="#a64b00" stroke="#a64b00" stroke-width="0" cx="-344.06" cy="248.269" r="21.3333"/>
<circle fill="#a64b00" stroke="#a64b00" stroke-width="0" cx="742.325" cy="435.297" r="21.3333"/>
<circle fill="#a64b00" stroke="#a64b00" stroke-width="0" cx="878.197" cy="276.069" r="21.3333"/>
<circle fill="#a64b00" stroke="#a64b00" stroke-width="0" cx="-8.02625" cy="268.563" r="21.3333"/>
</svg>
