<?xml version="1.0" encoding="utf-8"?> <!-- Generator: Adobe Illustrator 13.0.0, SVG Export Plug-In . SVG Version: 6.00 Build 14948)  --> <svg version="1.2" baseProfile="tiny" id="Layer_1" xmlns="http://www.w3.org/2000/svg" xmlns:xlink="http://www.w3.org/1999/xlink" x="0px" y="0px" width="512px" height="512px" viewBox="0 0 512 512" xml:space="preserve">
<polygon points="0,0 512,0 512,512 0,512" style="fill:#ffffff; stroke:#000000;stroke-width:0"/>
<polygon points="-44.8524,246.906 -3.72777,235.539 51.5077,435.376 10.383,446.743" style="fill:#006363; stroke:#000000;stroke-width:0"/>
<circle fill="#006363" stroke="#006363" stroke-width="0" cx="-24.2901" cy="241.223" r="21.3333"/>
<circle fill="#006363" stroke="#006363" stroke-width="0" cx="30.9453" cy="441.06" r="21.3333"/>
<polygon points="432.638,103.092 462.208,72.3334 615.061,219.278 585.491,250.036" style="fill:#006363; stroke:#000000;stroke-width:0"/>
<circle fill="#006363" stroke="#006363" stroke-width="0" cx="447.423" cy="87.7127" r="21.3333"/>
<circle fill="#006363" stroke="#006363" stroke-width="0" cx="600.276" cy="234.657" r="21.3333"/>
<polygon points="1256,469.333 256,1469.33 -744,469.333" style="fill:#000000; stroke:#000000;stroke-width:0"/>
<polygon points="-744,42.6667 256,-957.333 1256,42.6667" style="fill:#000000; stroke:#000000;stroke-width:0"/>
<circle fill="#a64b00" stroke="#a64b00" stroke-width="0" cx="-24.2901" cy="241.223" r="21.3333"/>
<circle fill="#a64b00" stroke="#a64b00" stroke-width="0" cx="30.9453" cy="441.06" r="21.3333"/>
<circle fill="#a64b00" stroke="#a64b00" stroke-width="0" cx="447.423" cy="87.7127" r="21.3333"/>
<circle fill="#a64b00" stroke="#a64b00" stroke-width="0" cx="600.276" cy="234.657" r="21.3333"/>
<circle fill="#a64b00" stroke="#a64b00" stroke-width="0" cx="196.602" cy="374.706" r="21.3333"/>
</svg>
