<?xml version="1.0" encoding="utf-8"?> <!-- Generator: Adobe Illustrator 13.0.0, SVG Export Plug-In . SVG Version: 6.00 Build 14948)  --> <svg version="1.2" baseProfile="tiny" id="Layer_1" xmlns="http://www.w3.org/2000/svg" xmlns:xlink="http://www.w3.org/1999/xlink" x="0px" y="0px" width="512px" height="512px" viewBox="0 0 512 512" xml:space="preserve">
<polygon points="0,0 512,0 512,512 0,512" style="fill:#ffffff; stroke:#000000;stroke-width:0"/>
<polygon points="-106.083,237.52 -64.7008,227.13 -12.4785,435.131 -53.8608,445.52" style="fill:#006363; stroke:#000000;stroke-width:0"/>
<circle fill="#006363" stroke="#006363" stroke-width="0" cx="-85.392" cy="232.325" r="21.3333"/>
<circle fill="#006363" stroke="#006363" stroke-width="0" cx="-33.1696" cy="440.326" r="21.3333"/>
<polygon points="701.477,276.802 679.153,313.162 496.516,201.032 518.84,164.672" style="fill:#006363; stroke:#000000;stroke-width:0"/>
<circle fill="#006363" stroke="#006363" stroke-width="0" cx="690.315" cy="294.982" r="21.3333"/>
<circle fill="#006363" stroke="#006363" stroke-width="0" cx="507.678" cy="182.852" r="21.3333"/>
<polygon points="1256,469.333 256,1469.33 -744,469.333" style="fill:#000000; stroke:#000000;stroke-width:0"/>
<polygon points="-744,42.6667 256,-957.333 1256,42.6667" style="fill:#000000; stroke:#000000;stroke-width:0"/>
<circle fill="#a64b00" stroke="#a64b00" stroke-width="0" cx="-85.392" cy="232.325" r="21.3333"/>
<circle fill="#a64b00" stroke="#a64b00" stroke-width="0" cx="-33.1696" cy="440.326" r="21.3333"/>
<circle fill="#a64b00" stroke="#a64b00" stroke-width="0" cx="690.315" cy="294.982" r="21.3333"/>
<circle fill="#a64b00" stroke="#a64b00" stroke-width="0" cx="507.678" cy="182.852" r="21.3333"/>
<circle fill="#a64b00" stroke="#a64b00" stroke-width="0" cx="387.481" cy="335.347" r="21.3333"/>
</svg>
