<?xml version="1.0" encoding="utf-8"?> <!-- Generator: Adobe Illustrator 13.0.0, SVG Export Plug-In . SVG Version: 6.00 Build 14948)  --> <svg version="1.2" baseProfile="tiny" id="Layer_1" xmlns="http://www.w3.org/2000/svg" xmlns:xlink="http://www.w3.org/1999/xlink" x="0px" y="0px" width="512px" height="512px" viewBox="0 0 512 512" xml:space="preserve">
<polygon points="0,0 512,0 512,512 0,512" style="fill:#ffffff; stroke:#000000;stroke-width:0"/>
<polygon points="-153.279,266.326 -114.888,247.711 -23.5203,436.144 -61.9119,454.76" style="fill:#006363; stroke:#000000;stroke-width:0"/>
<circle fill="#006363" stroke="#006363" stroke-width="0" cx="-134.083" cy="257.018" r="21.3333"/>
<circle fill="#006363" stroke="#006363" stroke-width="0" cx="-42.7161" cy="445.452" r="21.3333"/>
<polygon points="678.559,178.795 713.184,203.726 590.174,374.566 555.549,349.635" style="fill:#006363; stroke:#000000;stroke-width:0"/>
<circle fill="#006363" stroke="#006363" stroke-width="0" cx="695.872" cy="191.26" r="21.3333"/>
<circle fill="#006363" stroke="#006363" stroke-width="0" cx="572.862" cy="362.1" r="21.3333"/>
<polygon points="1256,469.333 256,1469.33 -744,469.333" style="fill:#000000; stroke:#000000;stroke-width:0"/>
<polygon points="-744,42.6667 256,-957.333 1256,42.6667" style="fill:#000000; stroke:#000000;stroke-width:0"/>
<circle fill="#a64b00" stroke="#a64b00" stroke-width="0" cx="-134.083" cy="257.018" r="21.3333"/>
<circle fill="#a64b00" stroke="#a64b00" stroke-width="0" cx="-42.7161" cy="445.452" r="21.3333"/>
<circle fill="#a64b00" stroke="#a64b00" stroke-width="0" cx="695.872" cy="191.26" r="21.3333"/>
<circle fill="#a64b00" stroke="#a64b00" stroke-width="0" cx="572.862" cy="362.1" r="21.3333"/>
<circle fill="#a64b00" stroke="#a64b00" stroke-width="0" cx="321.265" cy="58.6716" r="21.3333"/>
</svg>
