<?xml version="1.0" encoding="utf-8"?> <!-- Generator: Adobe Illustrator 13.0.0, SVG Export Plug-In . SVG Version: 6.00 Build 14948)  --> <svg version="1.2" baseProfile="tiny" id="Layer_1" xmlns="http://www.w3.org/2000/svg" xmlns:xlink="http://www.w3.org/1999/xlink" x="0px" y="0px" width="512px" height="512px" viewBox="0 0 512 512" xml:space="preserve">
<polygon points="0,0 512,0 512,512 0,512" style="fill:#ffffff; stroke:#000000;stroke-width:0"/>
<polygon points="-92.8401,178.381 -61.4585,149.473 79.429,302.419 48.0474,331.327" style="fill:#006363; stroke:#000000;stroke-width:0"/>
<circle fill="#006363" stroke="#006363" stroke-width="0" cx="-77.1493" cy="163.927" r="21.3333"/>
<circle fill="#006363" stroke="#006363" stroke-width="0" cx="63.7382" cy="316.873" r="21.3333"/>
<polygon points="430.119,182.861 435.189,140.497 644.185,165.51 639.114,207.874" style="fill:#006363; stroke:#000000;stroke-width:0"/>
<circle fill="#006363" stroke="#006363" stroke-width="0" cx="432.654" cy="161.679" r="21.3333"/>
<circle fill="#006363" stroke="#006363" stroke-width="0" cx="641.649" cy="186.692" r="21.3333"/>
<polygon points="1256,469.333 256,1469.33 -744,469.333" style="fill:#000000; stroke:#000000;stroke-width:0"/>
<polygon points="-744,42.6667 256,-957.333 1256,42.6667" style="fill:#000000; stroke:#000000;stroke-width:0"/>
<circle fill="#a64b00" stroke="#a64b00" stroke-width="0" cx="-77.1493" cy="163.927" r="21.3333"/>
<circle fill="#a64b00" stroke="#a64b00" stroke-width="0" cx="63.7382" cy="316.873" r="21.3333"/>
<circle fill="#a64b00" stroke="#a64b00" stroke-width="0" cx="432.654" cy="161.679" r="21.3333"/>
<circle fill="#a64b00" stroke="#a64b00" stroke-width="0" cx="641.649" cy="186.692" r="21.3333"/>
<circle fill="#a64b00" stroke="#a64b00" stroke-width="0" cx="76.1237" cy="126.371" r="21.3333"/>
</svg>
