<?xml version="1.0" encoding="utf-8"?> <!-- Generator: Adobe Illustrator 13.0.0, SVG Export Plug-In . SVG Version: 6.00 Build 14948)  --> <svg version="1.2" baseProfile="tiny" id="Layer_1" xmlns="http://www.w3.org/2000/svg" xmlns:xlink="http://www.w3.org/1999/xlink" x="0px" y="0px" width="512px" height="512px" viewBox="0 0 512 512" xml:space="preserve">
<polygon points="0,0 512,0 512,512 0,512" style="fill:#ffffff; stroke:#000000;stroke-width:0"/>
<polygon points="-196.128,241.852 -223.235,208.903 -62.5198,76.6837 -35.4127,109.633" style="fill:#006363; stroke:#000000;stroke-width:0"/>
<circle fill="#006363" stroke="#006363" stroke-width="0" cx="-209.681" cy="225.378" r="21.3333"/>
<circle fill="#006363" stroke="#006363" stroke-width="0" cx="-48.9663" cy="93.1583" r="21.3333"/>
<polygon points="577.458,341.532 581.3,299.039 790.694,317.974 786.852,360.467" style="fill:#006363; stroke:#000000;stroke-width:0"/>
<circle fill="#006363" stroke="#006363" stroke-width="0" cx="579.379" cy="320.285" r="21.3333"/>
<circle fill="#006363" stroke="#006363" stroke-width="0" cx="788.773" cy="339.22" r="21.3333"/>
<polygon points="1256,469.333 256,1469.33 -744,469.333" style="fill:#000000; stroke:#000000;stroke-width:0"/>
<polygon points="-744,42.6667 256,-957.333 1256,42.6667" style="fill:#000000; stroke:#000000;stroke-width:0"/>
<circle fill="#a64b00" stroke="#a64b00" stroke-width="0" cx="-209.681" cy="225.378" r="21.3333"/>
<circle fill="#a64b00" stroke="#a64b00" stroke-width="0" cx="-48.9663" cy="93.1583" r="21.3333"/>
<circle fill="#a64b00" stroke="#a64b00" stroke-width="0" cx="579.379" cy="320.285" r="21.3333"/>
<circle fill="#a64b00" stroke="#a64b00" stroke-width="0" cx="788.773" cy="339.22" r="21.3333"/>
<circle fill="#a64b00" stroke="#a64b00" stroke-width="0" cx="228.204" cy="134.996" r="21.3333"/>
</svg>
