<?xml version="1.0" encoding="utf-8"?> <!-- Generator: Adobe Illustrator 13.0.0, SVG Export Plug-In . SVG Version: 6.00 Build 14948)  --> <svg version="1.2" baseProfile="tiny" id="Layer_1" xmlns="http://www.w3.org/2000/svg" xmlns:xlink="http://www.w3.org/1999/xlink" x="0px" y="0px" width="512px" height="512px" viewBox="0 0 512 512" xml:space="preserve">
<polygon points="0,0 512,0 512,512 0,512" style="fill:#ffffff; stroke:#000000;stroke-width:0"/>
<polygon points="-143.494,239.301 -132.672,280.572 -341.809,335.411 -352.631,294.14" style="fill:#006363; stroke:#000000;stroke-width:0"/>
<circle fill="#006363" stroke="#006363" stroke-width="0" cx="-138.083" cy="259.937" r="21.3333"/>
<circle fill="#006363" stroke="#006363" stroke-width="0" cx="-347.22" cy="314.776" r="21.3333"/>
<polygon points="744.94,442.906 720.453,407.966 898.525,283.167 923.012,318.107" style="fill:#006363; stroke:#000000;stroke-width:0"/>
<circle fill="#006363" stroke="#006363" stroke-width="0" cx="732.696" cy="425.436" r="21.3333"/>
<circle fill="#006363" stroke="#006363" stroke-width="0" cx="910.769" cy="300.637" r="21.3333"/>
<polygon points="1256,469.333 256,1469.33 -744,469.333" style="fill:#000000; stroke:#000000;stroke-width:0"/>
<polygon points="-744,42.6667 256,-957.333 1256,42.6667" style="fill:#000000; stroke:#000000;stroke-width:0"/>
<circle fill="#a64b00" stroke="#a64b00" stroke-width="0" cx="-138.083" cy="259.937" r="21.3333"/>
<circle fill="#a64b00" stroke="#a64b00" stroke-width="0" cx="-347.22" cy="314.776" r="21.3333"/>
<circle fill="#a64b00" stroke="#a64b00" stroke-width="0" cx="732.696" cy="425.436" r="21.3333"/>
<circle fill="#a64b00" stroke="#a64b00" stroke-width="0" cx="910.769" cy="300.637" r="21.3333"/>
<circle fill="#a64b00" stroke="#a64b00" stroke-width="0" cx="-29.5018" cy="192.239" r="21.3333"/>
</svg>
