<?xml version="1.0" encoding="utf-8"?> <!-- Generator: Adobe Illustrator 13.0.0, SVG Export Plug-In . SVG Version: 6.00 Build 14948)  --> <svg version="1.2" baseProfile="tiny" id="Layer_1" xmlns="http://www.w3.org/2000/svg" xmlns:xlink="http://www.w3.org/1999/xlink" x="0px" y="0px" width="512px" height="512px" viewBox="0 0 512 512" xml:space="preserve">
<polygon points="0,0 512,0 512,512 0,512" style="fill:#ffffff; stroke:#000000;stroke-width:0"/>
<polygon points="-133.42,96.6547 -131.884,54.0156 75.7192,61.491 74.1839,104.13" style="fill:#006363; stroke:#000000;stroke-width:0"/>
<circle fill="#006363" stroke="#006363" stroke-width="0" cx="-132.652" cy="75.3351" r="21.3333"/>
<circle fill="#006363" stroke="#006363" stroke-width="0" cx="74.9515" cy="82.8105" r="21.3333"/>
<polygon points="525.676,300.449 489.204,278.307 598.391,98.4566 634.863,120.599" style="fill:#006363; stroke:#000000;stroke-width:0"/>
<circle fill="#006363" stroke="#006363" stroke-width="0" cx="507.44" cy="289.378" r="21.3333"/>
<circle fill="#006363" stroke="#006363" stroke-width="0" cx="616.627" cy="109.528" r="21.3333"/>
<polygon points="1256,469.333 256,1469.33 -744,469.333" style="fill:#000000; stroke:#000000;stroke-width:0"/>
<polygon points="-744,42.6667 256,-957.333 1256,42.6667" style="fill:#000000; stroke:#000000;stroke-width:0"/>
<circle fill="#a64b00" stroke="#a64b00" stroke-width="0" cx="-132.652" cy="75.3351" r="21.3333"/>
<circle fill="#a64b00" stroke="#a64b00" stroke-width="0" cx="74.9515" cy="82.8105" r="21.3333"/>
<circle fill="#a64b00" stroke="#a64b00" stroke-width="0" cx="507.44" cy="289.378" r="21.3333"/>
<circle fill="#a64b00" stroke="#a64b00" stroke-width="0" cx="616.627" cy="109.528" r="21.3333"/>
<circle fill="#a64b00" stroke="#a64b00" stroke-width="0" cx="456.68" cy="239.942" r="21.3333"/>
</svg>
