<?xml version="1.0" encoding="utf-8"?> <!-- Generator: Adobe Illustrator 13.0.0, SVG Export Plug-In . SVG Version: 6.00 Build 14948)  --> <svg version="1.2" baseProfile="tiny" id="Layer_1" xmlns="http://www.w3.org/2000/svg" xmlns:xlink="http://www.w3.org/1999/xlink" x="0px" y="0px" width="512px" height="512px" viewBox="0 0 512 512" xml:space="preserve">
<polygon points="0,0 512,0 512,512 0,512" style="fill:#ffffff; stroke:#000000;stroke-width:0"/>
<polygon points="-100.784,57.1456 -94.6402,99.3676 -298.474,129.029 -304.618,86.8073" style="fill:#006363; stroke:#000000;stroke-width:0"/>
<circle fill="#006363" stroke="#006363" stroke-width="0" cx="-97.7123" cy="78.2566" r="21.3333"/>
<circle fill="#006363" stroke="#006363" stroke-width="0" cx="-301.546" cy="107.918" r="21.3333"/>
<polygon points="746.123,347.428 706.869,330.708 792.825,128.907 832.079,145.627" style="fill:#006363; stroke:#000000;stroke-width:0"/>
<circle fill="#006363" stroke="#006363" stroke-width="0" cx="726.496" cy="339.068" r="21.3333"/>
<circle fill="#006363" stroke="#006363" stroke-width="0" cx="812.452" cy="137.267" r="21.3333"/>
<polygon points="1256,469.333 256,1469.33 -744,469.333" style="fill:#000000; stroke:#000000;stroke-width:0"/>
<polygon points="-744,42.6667 256,-957.333 1256,42.6667" style="fill:#000000; stroke:#000000;stroke-width:0"/>
<circle fill="#a64b00" stroke="#a64b00" stroke-width="0" cx="-97.7123" cy="78.2566" r="21.3333"/>
<circle fill="#a64b00" stroke="#a64b00" stroke-width="0" cx="-301.546" cy="107.918" r="21.3333"/>
<circle fill="#a64b00" stroke="#a64b00" stroke-width="0" cx="726.496" cy="339.068" r="21.3333"/>
<circle fill="#a64b00" stroke="#a64b00" stroke-width="0" cx="812.452" cy="137.267" r="21.3333"/>
<circle fill="#a64b00" stroke="#a64b00" stroke-width="0" cx="68.3311" cy="192.239" r="21.3333"/>
</svg>
