<?xml version="1.0" encoding="utf-8"?> <!-- Generator: Adobe Illustrator 13.0.0, SVG Export Plug-In . SVG Version: 6.00 Build 14948)  --> <svg version="1.2" baseProfile="tiny" id="Layer_1" xmlns="http://www.w3.org/2000/svg" xmlns:xlink="http://www.w3.org/1999/xlink" x="0px" y="0px" width="512px" height="512px" viewBox="0 0 512 512" xml:space="preserve">
<polygon points="0,0 512,0 512,512 0,512" style="fill:#ffffff; stroke:#000000;stroke-width:0"/>
<polygon points="-48.8308,246.854 -8.01538,234.422 53.0781,435.003 12.2626,447.434" style="fill:#006363; stroke:#000000;stroke-width:0"/>
<circle fill="#006363" stroke="#006363" stroke-width="0" cx="-28.4231" cy="240.638" r="21.3333"/>
<circle fill="#006363" stroke="#006363" stroke-width="0" cx="32.6704" cy="441.219" r="21.3333"/>
<polygon points="430.356,112.081 457.477,79.1432 620.535,213.409 593.414,246.347" style="fill:#006363; stroke:#000000;stroke-width:0"/>
<circle fill="#006363" stroke="#006363" stroke-width="0" cx="443.917" cy="95.6118" r="21.3333"/>
<circle fill="#006363" stroke="#006363" stroke-width="0" cx="606.975" cy="229.878" r="21.3333"/>
<polygon points="1256,469.333 256,1469.33 -744,469.333" style="fill:#000000; stroke:#000000;stroke-width:0"/>
<polygon points="-744,42.6667 256,-957.333 1256,42.6667" style="fill:#000000; stroke:#000000;stroke-width:0"/>
<circle fill="#a64b00" stroke="#a64b00" stroke-width="0" cx="-28.4231" cy="240.638" r="21.3333"/>
<circle fill="#a64b00" stroke="#a64b00" stroke-width="0" cx="32.6704" cy="441.219" r="21.3333"/>
<circle fill="#a64b00" stroke="#a64b00" stroke-width="0" cx="443.917" cy="95.6118" r="21.3333"/>
<circle fill="#a64b00" stroke="#a64b00" stroke-width="0" cx="606.975" cy="229.878" r="21.3333"/>
<circle fill="#a64b00" stroke="#a64b00" stroke-width="0" cx="182.144" cy="328.143" r="21.3333"/>
</svg>
