<?xml version="1.0" encoding="utf-8"?> <!-- Generator: Adobe Illustrator 13.0.0, SVG Export Plug-In . SVG Version: 6.00 Build 14948)  --> <svg version="1.2" baseProfile="tiny" id="Layer_1" xmlns="http://www.w3.org/2000/svg" xmlns:xlink="http://www.w3.org/1999/xlink" x="0px" y="0px" width="512px" height="512px" viewBox="0 0 512 512" xml:space="preserve">
<polygon points="0,0 512,0 512,512 0,512" style="fill:#ffffff; stroke:#000000;stroke-width:0"/>
<polygon points="-4.03562,109.001 38.4123,104.686 59.2514,309.705 16.8034,314.019" style="fill:#006363; stroke:#000000;stroke-width:0"/>
<circle fill="#006363" stroke="#006363" stroke-width="0" cx="17.1884" cy="106.843" r="21.3333"/>
<circle fill="#006363" stroke="#006363" stroke-width="0" cx="38.0274" cy="311.862" r="21.3333"/>
<polygon points="456.135,215.628 498.393,209.74 527.868,421.29 485.609,427.177" style="fill:#006363; stroke:#000000;stroke-width:0"/>
<circle fill="#006363" stroke="#006363" stroke-width="0" cx="477.264" cy="212.684" r="21.3333"/>
<circle fill="#006363" stroke="#006363" stroke-width="0" cx="506.738" cy="424.233" r="21.3333"/>
<polygon points="1256,469.333 256,1469.33 -744,469.333" style="fill:#000000; stroke:#000000;stroke-width:0"/>
<polygon points="-744,42.6667 256,-957.333 1256,42.6667" style="fill:#000000; stroke:#000000;stroke-width:0"/>
<circle fill="#a64b00" stroke="#a64b00" stroke-width="0" cx="17.1884" cy="106.843" r="21.3333"/>
<circle fill="#a64b00" stroke="#a64b00" stroke-width="0" cx="38.0274" cy="311.862" r="21.3333"/>
<circle fill="#a64b00" stroke="#a64b00" stroke-width="0" cx="477.264" cy="212.684" r="21.3333"/>
<circle fill="#a64b00" stroke="#a64b00" stroke-width="0" cx="506.738" cy="424.233" r="21.3333"/>
<circle fill="#a64b00" stroke="#a64b00" stroke-width="0" cx="419.515" cy="408.996" r="21.3333"/>
</svg>
