<?xml version="1.0" encoding="utf-8"?> <!-- Generator: Adobe Illustrator 13.0.0, SVG Export Plug-In . SVG Version: 6.00 Build 14948)  --> <svg version="1.2" baseProfile="tiny" id="Layer_1" xmlns="http://www.w3.org/2000/svg" xmlns:xlink="http://www.w3.org/1999/xlink" x="0px" y="0px" width="512px" height="512px" viewBox="0 0 512 512" xml:space="preserve">
<polygon points="0,0 512,0 512,512 0,512" style="fill:#ffffff; stroke:#000000;stroke-width:0"/>
<polygon points="-198.139,182.598 -157.642,169.165 -91.4641,368.676 -131.961,382.109" style="fill:#006363; stroke:#000000;stroke-width:0"/>
<circle fill="#006363" stroke="#006363" stroke-width="0" cx="-177.89" cy="175.882" r="21.3333"/>
<circle fill="#006363" stroke="#006363" stroke-width="0" cx="-111.713" cy="375.392" r="21.3333"/>
<polygon points="635.933,434.837 608.274,402.35 769.82,264.813 797.479,297.301" style="fill:#006363; stroke:#000000;stroke-width:0"/>
<circle fill="#006363" stroke="#006363" stroke-width="0" cx="622.103" cy="418.593" r="21.3333"/>
<circle fill="#006363" stroke="#006363" stroke-width="0" cx="783.649" cy="281.057" r="21.3333"/>
<polygon points="1256,469.333 256,1469.33 -744,469.333" style="fill:#000000; stroke:#000000;stroke-width:0"/>
<polygon points="-744,42.6667 256,-957.333 1256,42.6667" style="fill:#000000; stroke:#000000;stroke-width:0"/>
<circle fill="#a64b00" stroke="#a64b00" stroke-width="0" cx="-177.89" cy="175.882" r="21.3333"/>
<circle fill="#a64b00" stroke="#a64b00" stroke-width="0" cx="-111.713" cy="375.392" r="21.3333"/>
<circle fill="#a64b00" stroke="#a64b00" stroke-width="0" cx="622.103" cy="418.593" r="21.3333"/>
<circle fill="#a64b00" stroke="#a64b00" stroke-width="0" cx="783.649" cy="281.057" r="21.3333"/>
<circle fill="#a64b00" stroke="#a64b00" stroke-width="0" cx="193.008" cy="354.428" r="21.3333"/>
</svg>
