<?xml version="1.0" encoding="utf-8"?> <!-- Generator: Adobe Illustrator 13.0.0, SVG Export Plug-In . SVG Version: 6.00 Build 14948)  --> <svg version="1.2" baseProfile="tiny" id="Layer_1" xmlns="http://www.w3.org/2000/svg" xmlns:xlink="http://www.w3.org/1999/xlink" x="0px" y="0px" width="512px" height="512px" viewBox="0 0 512 512" xml:space="preserve">
<polygon points="0,0 512,0 512,512 0,512" style="fill:#ffffff; stroke:#000000;stroke-width:0"/>
<polygon points="-318.749,292.772 -356.47,272.832 -259.42,89.2391 -221.699,109.179" style="fill:#006363; stroke:#000000;stroke-width:0"/>
<circle fill="#006363" stroke="#006363" stroke-width="0" cx="-337.609" cy="282.802" r="21.3333"/>
<circle fill="#006363" stroke="#006363" stroke-width="0" cx="-240.56" cy="99.209" r="21.3333"/>
<polygon points="804.954,254.154 841.683,232.441 951.313,417.887 914.584,439.6" style="fill:#006363; stroke:#000000;stroke-width:0"/>
<circle fill="#006363" stroke="#006363" stroke-width="0" cx="823.318" cy="243.297" r="21.3333"/>
<circle fill="#006363" stroke="#006363" stroke-width="0" cx="932.948" cy="428.743" r="21.3333"/>
<polygon points="1256,469.333 256,1469.33 -744,469.333" style="fill:#000000; stroke:#000000;stroke-width:0"/>
<polygon points="-744,42.6667 256,-957.333 1256,42.6667" style="fill:#000000; stroke:#000000;stroke-width:0"/>
<circle fill="#a64b00" stroke="#a64b00" stroke-width="0" cx="-337.609" cy="282.802" r="21.3333"/>
<circle fill="#a64b00" stroke="#a64b00" stroke-width="0" cx="-240.56" cy="99.209" r="21.3333"/>
<circle fill="#a64b00" stroke="#a64b00" stroke-width="0" cx="823.318" cy="243.297" r="21.3333"/>
<circle fill="#a64b00" stroke="#a64b00" stroke-width="0" cx="932.948" cy="428.743" r="21.3333"/>
<circle fill="#a64b00" stroke="#a64b00" stroke-width="0" cx="-135.09" cy="316.266" r="21.3333"/>
</svg>
