<?xml version="1.0" encoding="utf-8"?> <!-- Generator: Adobe Illustrator 13.0.0, SVG Export Plug-In . SVG Version: 6.00 Build 14948)  --> <svg version="1.2" baseProfile="tiny" id="Layer_1" xmlns="http://www.w3.org/2000/svg" xmlns:xlink="http://www.w3.org/1999/xlink" x="0px" y="0px" width="512px" height="512px" viewBox="0 0 512 512" xml:space="preserve">
<polygon points="0,0 512,0 512,512 0,512" style="fill:#ffffff; stroke:#000000;stroke-width:0"/>
<polygon points="-21.6812,158.594 20.3745,151.399 57.2319,366.849 15.1762,374.044" style="fill:#006363; stroke:#000000;stroke-width:0"/>
<circle fill="#006363" stroke="#006363" stroke-width="0" cx="-0.653327" cy="154.996" r="21.3333"/>
<circle fill="#006363" stroke="#006363" stroke-width="0" cx="36.2041" cy="370.447" r="21.3333"/>
<polygon points="449.781,144.22 490.149,130.404 559.607,333.353 519.239,347.169" style="fill:#006363; stroke:#000000;stroke-width:0"/>
<circle fill="#006363" stroke="#006363" stroke-width="0" cx="469.965" cy="137.312" r="21.3333"/>
<circle fill="#006363" stroke="#006363" stroke-width="0" cx="539.423" cy="340.261" r="21.3333"/>
<polygon points="1256,469.333 256,1469.33 -744,469.333" style="fill:#000000; stroke:#000000;stroke-width:0"/>
<polygon points="-744,42.6667 256,-957.333 1256,42.6667" style="fill:#000000; stroke:#000000;stroke-width:0"/>
<circle fill="#a64b00" stroke="#a64b00" stroke-width="0" cx="-0.653327" cy="154.996" r="21.3333"/>
<circle fill="#a64b00" stroke="#a64b00" stroke-width="0" cx="36.2041" cy="370.447" r="21.3333"/>
<circle fill="#a64b00" stroke="#a64b00" stroke-width="0" cx="469.965" cy="137.312" r="21.3333"/>
<circle fill="#a64b00" stroke="#a64b00" stroke-width="0" cx="539.423" cy="340.261" r="21.3333"/>
<circle fill="#a64b00" stroke="#a64b00" stroke-width="0" cx="370.09" cy="141.891" r="21.3333"/>
</svg>
