<?xml version="1.0" encoding="utf-8"?> <!-- Generator: Adobe Illustrator 13.0.0, SVG Export Plug-In . SVG Version: 6.00 Build 14948)  --> <svg version="1.2" baseProfile="tiny" id="Layer_1" xmlns="http://www.w3.org/2000/svg" xmlns:xlink="http://www.w3.org/1999/xlink" x="0px" y="0px" width="512px" height="512px" viewBox="0 0 512 512" xml:space="preserve">
<polygon points="0,0 512,0 512,512 0,512" style="fill:#ffffff; stroke:#000000;stroke-width:0"/>
<polygon points="-101.987,213.041 -59.88,206.155 -25.4936,416.412 -67.6008,423.298" style="fill:#006363; stroke:#000000;stroke-width:0"/>
<circle fill="#006363" stroke="#006363" stroke-width="0" cx="-80.9337" cy="209.598" r="21.3333"/>
<circle fill="#006363" stroke="#006363" stroke-width="0" cx="-46.5472" cy="419.855" r="21.3333"/>
<polygon points="712.415,258.154 698.944,298.638 496.413,231.247 509.884,190.763" style="fill:#006363; stroke:#000000;stroke-width:0"/>
<circle fill="#006363" stroke="#006363" stroke-width="0" cx="705.679" cy="278.396" r="21.3333"/>
<circle fill="#006363" stroke="#006363" stroke-width="0" cx="503.148" cy="211.005" r="21.3333"/>
<polygon points="1256,469.333 256,1469.33 -744,469.333" style="fill:#000000; stroke:#000000;stroke-width:0"/>
<polygon points="-744,42.6667 256,-957.333 1256,42.6667" style="fill:#000000; stroke:#000000;stroke-width:0"/>
<circle fill="#a64b00" stroke="#a64b00" stroke-width="0" cx="-80.9337" cy="209.598" r="21.3333"/>
<circle fill="#a64b00" stroke="#a64b00" stroke-width="0" cx="-46.5472" cy="419.855" r="21.3333"/>
<circle fill="#a64b00" stroke="#a64b00" stroke-width="0" cx="705.679" cy="278.396" r="21.3333"/>
<circle fill="#a64b00" stroke="#a64b00" stroke-width="0" cx="503.148" cy="211.005" r="21.3333"/>
<circle fill="#a64b00" stroke="#a64b00" stroke-width="0" cx="377.34" cy="173.158" r="21.3333"/>
</svg>
