<?xml version="1.0" encoding="utf-8"?> <!-- Generator: Adobe Illustrator 13.0.0, SVG Export Plug-In . SVG Version: 6.00 Build 14948)  --> <svg version="1.2" baseProfile="tiny" id="Layer_1" xmlns="http://www.w3.org/2000/svg" xmlns:xlink="http://www.w3.org/1999/xlink" x="0px" y="0px" width="512px" height="512px" viewBox="0 0 512 512" xml:space="preserve">
<polygon points="0,0 512,0 512,512 0,512" style="fill:#ffffff; stroke:#000000;stroke-width:0"/>
<polygon points="2.95813,77.0063 45.5182,73.9915 61.0868,293.776 18.5268,296.791" style="fill:#006363; stroke:#000000;stroke-width:0"/>
<circle fill="#006363" stroke="#006363" stroke-width="0" cx="24.2381" cy="75.4989" r="21.3333"/>
<circle fill="#006363" stroke="#006363" stroke-width="0" cx="39.8068" cy="295.283" r="21.3333"/>
<polygon points="458.033,232.533 500.578,229.318 516.781,443.73 474.236,446.945" style="fill:#006363; stroke:#000000;stroke-width:0"/>
<circle fill="#006363" stroke="#006363" stroke-width="0" cx="479.305" cy="230.926" r="21.3333"/>
<circle fill="#006363" stroke="#006363" stroke-width="0" cx="495.508" cy="445.337" r="21.3333"/>
<polygon points="1256,469.333 256,1469.33 -744,469.333" style="fill:#000000; stroke:#000000;stroke-width:0"/>
<polygon points="-744,42.6667 256,-957.333 1256,42.6667" style="fill:#000000; stroke:#000000;stroke-width:0"/>
<circle fill="#a64b00" stroke="#a64b00" stroke-width="0" cx="24.2381" cy="75.4989" r="21.3333"/>
<circle fill="#a64b00" stroke="#a64b00" stroke-width="0" cx="39.8068" cy="295.283" r="21.3333"/>
<circle fill="#a64b00" stroke="#a64b00" stroke-width="0" cx="479.305" cy="230.926" r="21.3333"/>
<circle fill="#a64b00" stroke="#a64b00" stroke-width="0" cx="495.508" cy="445.337" r="21.3333"/>
<circle fill="#a64b00" stroke="#a64b00" stroke-width="0" cx="220.833" cy="335.541" r="21.3333"/>
</svg>
