<?xml version="1.0" encoding="utf-8"?> <!-- Generator: Adobe Illustrator 13.0.0, SVG Export Plug-In . SVG Version: 6.00 Build 14948)  --> <svg version="1.2" baseProfile="tiny" id="Layer_1" xmlns="http://www.w3.org/2000/svg" xmlns:xlink="http://www.w3.org/1999/xlink" x="0px" y="0px" width="512px" height="512px" viewBox="0 0 512 512" xml:space="preserve">
<polygon points="0,0 512,0 512,512 0,512" style="fill:#ffffff; stroke:#000000;stroke-width:0"/>
<polygon points="-114.645,220.887 -75.0313,205.039 2.3799,398.539 -37.2343,414.387" style="fill:#006363; stroke:#000000;stroke-width:0"/>
<circle fill="#006363" stroke="#006363" stroke-width="0" cx="-94.8384" cy="212.963" r="21.3333"/>
<circle fill="#006363" stroke="#006363" stroke-width="0" cx="-17.4272" cy="406.463" r="21.3333"/>
<polygon points="688.785,287.626 660.866,319.89 501.561,182.044 529.48,149.779" style="fill:#006363; stroke:#000000;stroke-width:0"/>
<circle fill="#006363" stroke="#006363" stroke-width="0" cx="674.825" cy="303.758" r="21.3333"/>
<circle fill="#006363" stroke="#006363" stroke-width="0" cx="515.521" cy="165.911" r="21.3333"/>
<polygon points="1256,469.333 256,1469.33 -744,469.333" style="fill:#000000; stroke:#000000;stroke-width:0"/>
<polygon points="-744,42.6667 256,-957.333 1256,42.6667" style="fill:#000000; stroke:#000000;stroke-width:0"/>
<circle fill="#a64b00" stroke="#a64b00" stroke-width="0" cx="-94.8384" cy="212.963" r="21.3333"/>
<circle fill="#a64b00" stroke="#a64b00" stroke-width="0" cx="-17.4272" cy="406.463" r="21.3333"/>
<circle fill="#a64b00" stroke="#a64b00" stroke-width="0" cx="674.825" cy="303.758" r="21.3333"/>
<circle fill="#a64b00" stroke="#a64b00" stroke-width="0" cx="515.521" cy="165.911" r="21.3333"/>
<circle fill="#a64b00" stroke="#a64b00" stroke-width="0" cx="394.64" cy="449.833" r="21.3333"/>
</svg>
