<?xml version="1.0" encoding="utf-8"?> <!-- Generator: Adobe Illustrator 13.0.0, SVG Export Plug-In . SVG Version: 6.00 Build 14948)  --> <svg version="1.2" baseProfile="tiny" id="Layer_1" xmlns="http://www.w3.org/2000/svg" xmlns:xlink="http://www.w3.org/1999/xlink" x="0px" y="0px" width="512px" height="512px" viewBox="0 0 512 512" xml:space="preserve">
<polygon points="0,0 512,0 512,512 0,512" style="fill:#ffffff; stroke:#000000;stroke-width:0"/>
<polygon points="9.31832,74.6028 51.9379,72.598 61.9855,286.197 19.3659,288.202" style="fill:#006363; stroke:#000000;stroke-width:0"/>
<circle fill="#006363" stroke="#006363" stroke-width="0" cx="30.6281" cy="73.6004" r="21.3333"/>
<circle fill="#006363" stroke="#006363" stroke-width="0" cx="40.6757" cy="287.2" r="21.3333"/>
<polygon points="455.546,195.829 498.136,193.27 510.914,405.947 468.324,408.506" style="fill:#006363; stroke:#000000;stroke-width:0"/>
<circle fill="#006363" stroke="#006363" stroke-width="0" cx="476.841" cy="194.549" r="21.3333"/>
<circle fill="#006363" stroke="#006363" stroke-width="0" cx="489.619" cy="407.227" r="21.3333"/>
<polygon points="1256,469.333 256,1469.33 -744,469.333" style="fill:#000000; stroke:#000000;stroke-width:0"/>
<polygon points="-744,42.6667 256,-957.333 1256,42.6667" style="fill:#000000; stroke:#000000;stroke-width:0"/>
<circle fill="#a64b00" stroke="#a64b00" stroke-width="0" cx="30.6281" cy="73.6004" r="21.3333"/>
<circle fill="#a64b00" stroke="#a64b00" stroke-width="0" cx="40.6757" cy="287.2" r="21.3333"/>
<circle fill="#a64b00" stroke="#a64b00" stroke-width="0" cx="476.841" cy="194.549" r="21.3333"/>
<circle fill="#a64b00" stroke="#a64b00" stroke-width="0" cx="489.619" cy="407.227" r="21.3333"/>
<circle fill="#a64b00" stroke="#a64b00" stroke-width="0" cx="116.986" cy="279.216" r="21.3333"/>
</svg>
