<?xml version="1.0" encoding="utf-8"?> <!-- Generator: Adobe Illustrator 13.0.0, SVG Export Plug-In . SVG Version: 6.00 Build 14948)  --> <svg version="1.2" baseProfile="tiny" id="Layer_1" xmlns="http://www.w3.org/2000/svg" xmlns:xlink="http://www.w3.org/1999/xlink" x="0px" y="0px" width="512px" height="512px" viewBox="0 0 512 512" xml:space="preserve">
<polygon points="0,0 512,0 512,512 0,512" style="fill:#ffffff; stroke:#000000;stroke-width:0"/>
<polygon points="-166.599,285.093 -150.613,324.652 -338.116,400.426 -354.103,360.867" style="fill:#006363; stroke:#000000;stroke-width:0"/>
<circle fill="#006363" stroke="#006363" stroke-width="0" cx="-158.606" cy="304.873" r="21.3333"/>
<circle fill="#006363" stroke="#006363" stroke-width="0" cx="-346.11" cy="380.647" r="21.3333"/>
<polygon points="733.316,406.988 722.033,365.841 933.728,307.79 945.012,348.937" style="fill:#006363; stroke:#000000;stroke-width:0"/>
<circle fill="#006363" stroke="#006363" stroke-width="0" cx="727.675" cy="386.415" r="21.3333"/>
<circle fill="#006363" stroke="#006363" stroke-width="0" cx="939.37" cy="328.364" r="21.3333"/>
<polygon points="1256,469.333 256,1469.33 -744,469.333" style="fill:#000000; stroke:#000000;stroke-width:0"/>
<polygon points="-744,42.6667 256,-957.333 1256,42.6667" style="fill:#000000; stroke:#000000;stroke-width:0"/>
<circle fill="#a64b00" stroke="#a64b00" stroke-width="0" cx="-158.606" cy="304.873" r="21.3333"/>
<circle fill="#a64b00" stroke="#a64b00" stroke-width="0" cx="-346.11" cy="380.647" r="21.3333"/>
<circle fill="#a64b00" stroke="#a64b00" stroke-width="0" cx="727.675" cy="386.415" r="21.3333"/>
<circle fill="#a64b00" stroke="#a64b00" stroke-width="0" cx="939.37" cy="328.364" r="21.3333"/>
<circle fill="#a64b00" stroke="#a64b00" stroke-width="0" cx="-51.5738" cy="354.428" r="21.3333"/>
</svg>
