<?xml version="1.0" encoding="utf-8"?> <!-- Generator: Adobe Illustrator 13.0.0, SVG Export Plug-In . SVG Version: 6.00 Build 14948)  --> <svg version="1.2" baseProfile="tiny" id="Layer_1" xmlns="http://www.w3.org/2000/svg" xmlns:xlink="http://www.w3.org/1999/xlink" x="0px" y="0px" width="512px" height="512px" viewBox="0 0 512 512" xml:space="preserve">
<polygon points="0,0 512,0 512,512 0,512" style="fill:#ffffff; stroke:#000000;stroke-width:0"/>
<polygon points="-174.865,353.568 -200.949,387.332 -373.923,253.702 -347.838,219.938" style="fill:#006363; stroke:#000000;stroke-width:0"/>
<circle fill="#006363" stroke="#006363" stroke-width="0" cx="-187.907" cy="370.45" r="21.3333"/>
<circle fill="#006363" stroke="#006363" stroke-width="0" cx="-360.88" cy="236.82" r="21.3333"/>
<polygon points="756.726,310.268 777.802,273.17 963.852,378.867 942.776,415.965" style="fill:#006363; stroke:#000000;stroke-width:0"/>
<circle fill="#006363" stroke="#006363" stroke-width="0" cx="767.264" cy="291.719" r="21.3333"/>
<circle fill="#006363" stroke="#006363" stroke-width="0" cx="953.314" cy="397.416" r="21.3333"/>
<polygon points="1256,469.333 256,1469.33 -744,469.333" style="fill:#000000; stroke:#000000;stroke-width:0"/>
<polygon points="-744,42.6667 256,-957.333 1256,42.6667" style="fill:#000000; stroke:#000000;stroke-width:0"/>
<circle fill="#a64b00" stroke="#a64b00" stroke-width="0" cx="-187.907" cy="370.45" r="21.3333"/>
<circle fill="#a64b00" stroke="#a64b00" stroke-width="0" cx="-360.88" cy="236.82" r="21.3333"/>
<circle fill="#a64b00" stroke="#a64b00" stroke-width="0" cx="767.264" cy="291.719" r="21.3333"/>
<circle fill="#a64b00" stroke="#a64b00" stroke-width="0" cx="953.314" cy="397.416" r="21.3333"/>
<circle fill="#a64b00" stroke="#a64b00" stroke-width="0" cx="-101.683" cy="335.347" r="21.3333"/>
</svg>
