<?xml version="1.0" encoding="utf-8"?> <!-- Generator: Adobe Illustrator 13.0.0, SVG Export Plug-In . SVG Version: 6.00 Build 14948)  --> <svg version="1.2" baseProfile="tiny" id="Layer_1" xmlns="http://www.w3.org/2000/svg" xmlns:xlink="http://www.w3.org/1999/xlink" x="0px" y="0px" width="512px" height="512px" viewBox="0 0 512 512" xml:space="preserve">
<polygon points="0,0 512,0 512,512 0,512" style="fill:#ffffff; stroke:#000000;stroke-width:0"/>
<polygon points="-114.804,156.031 -114.536,198.696 -332.198,200.063 -332.466,157.397" style="fill:#006363; stroke:#000000;stroke-width:0"/>
<circle fill="#006363" stroke="#006363" stroke-width="0" cx="-114.67" cy="177.363" r="21.3333"/>
<circle fill="#006363" stroke="#006363" stroke-width="0" cx="-332.332" cy="178.73" r="21.3333"/>
<polygon points="755.546,418.852 720.78,394.119 841.396,224.575 876.162,249.308" style="fill:#006363; stroke:#000000;stroke-width:0"/>
<circle fill="#006363" stroke="#006363" stroke-width="0" cx="738.163" cy="406.486" r="21.3333"/>
<circle fill="#006363" stroke="#006363" stroke-width="0" cx="858.779" cy="236.942" r="21.3333"/>
<polygon points="1256,469.333 256,1469.33 -744,469.333" style="fill:#000000; stroke:#000000;stroke-width:0"/>
<polygon points="-744,42.6667 256,-957.333 1256,42.6667" style="fill:#000000; stroke:#000000;stroke-width:0"/>
<circle fill="#a64b00" stroke="#a64b00" stroke-width="0" cx="-114.67" cy="177.363" r="21.3333"/>
<circle fill="#a64b00" stroke="#a64b00" stroke-width="0" cx="-332.332" cy="178.73" r="21.3333"/>
<circle fill="#a64b00" stroke="#a64b00" stroke-width="0" cx="738.163" cy="406.486" r="21.3333"/>
<circle fill="#a64b00" stroke="#a64b00" stroke-width="0" cx="858.779" cy="236.942" r="21.3333"/>
<circle fill="#a64b00" stroke="#a64b00" stroke-width="0" cx="14.0458" cy="278.104" r="21.3333"/>
</svg>
