<?xml version="1.0" encoding="utf-8"?> <!-- Generator: Adobe Illustrator 13.0.0, SVG Export Plug-In . SVG Version: 6.00 Build 14948)  --> <svg version="1.2" baseProfile="tiny" id="Layer_1" xmlns="http://www.w3.org/2000/svg" xmlns:xlink="http://www.w3.org/1999/xlink" x="0px" y="0px" width="512px" height="512px" viewBox="0 0 512 512" xml:space="preserve">
<polygon points="0,0 512,0 512,512 0,512" style="fill:#ffffff; stroke:#000000;stroke-width:0"/>
<polygon points="-76.8678,233.403 -77.1822,276.068 -281.466,274.563 -281.152,231.897" style="fill:#006363; stroke:#000000;stroke-width:0"/>
<circle fill="#006363" stroke="#006363" stroke-width="0" cx="-77.025" cy="254.735" r="21.3333"/>
<circle fill="#006363" stroke="#006363" stroke-width="0" cx="-281.309" cy="253.23" r="21.3333"/>
<polygon points="741.399,279.934 699.839,270.279 747.84,63.6604 789.4,73.3155" style="fill:#006363; stroke:#000000;stroke-width:0"/>
<circle fill="#006363" stroke="#006363" stroke-width="0" cx="720.619" cy="275.106" r="21.3333"/>
<circle fill="#006363" stroke="#006363" stroke-width="0" cx="768.62" cy="68.488" r="21.3333"/>
<polygon points="1256,469.333 256,1469.33 -744,469.333" style="fill:#000000; stroke:#000000;stroke-width:0"/>
<polygon points="-744,42.6667 256,-957.333 1256,42.6667" style="fill:#000000; stroke:#000000;stroke-width:0"/>
<circle fill="#a64b00" stroke="#a64b00" stroke-width="0" cx="-77.025" cy="254.735" r="21.3333"/>
<circle fill="#a64b00" stroke="#a64b00" stroke-width="0" cx="-281.309" cy="253.23" r="21.3333"/>
<circle fill="#a64b00" stroke="#a64b00" stroke-width="0" cx="720.619" cy="275.106" r="21.3333"/>
<circle fill="#a64b00" stroke="#a64b00" stroke-width="0" cx="768.62" cy="68.488" r="21.3333"/>
<circle fill="#a64b00" stroke="#a64b00" stroke-width="0" cx="114.861" cy="230.401" r="21.3333"/>
</svg>
