<?xml version="1.0" encoding="utf-8"?> <!-- Generator: Adobe Illustrator 13.0.0, SVG Export Plug-In . SVG Version: 6.00 Build 14948)  --> <svg version="1.2" baseProfile="tiny" id="Layer_1" xmlns="http://www.w3.org/2000/svg" xmlns:xlink="http://www.w3.org/1999/xlink" x="0px" y="0px" width="512px" height="512px" viewBox="0 0 512 512" xml:space="preserve">
<polygon points="0,0 512,0 512,512 0,512" style="fill:#ffffff; stroke:#000000;stroke-width:0"/>
<polygon points="-378.389,210.974 -398.401,173.291 -212.372,74.4977 -192.36,112.18" style="fill:#006363; stroke:#000000;stroke-width:0"/>
<circle fill="#006363" stroke="#006363" stroke-width="0" cx="-388.395" cy="192.132" r="21.3333"/>
<circle fill="#006363" stroke="#006363" stroke-width="0" cx="-202.366" cy="93.3389" r="21.3333"/>
<polygon points="831.873,233.713 872.517,220.729 939.688,431.001 899.045,443.985" style="fill:#006363; stroke:#000000;stroke-width:0"/>
<circle fill="#006363" stroke="#006363" stroke-width="0" cx="852.195" cy="227.221" r="21.3333"/>
<circle fill="#006363" stroke="#006363" stroke-width="0" cx="919.367" cy="437.493" r="21.3333"/>
<polygon points="1256,469.333 256,1469.33 -744,469.333" style="fill:#000000; stroke:#000000;stroke-width:0"/>
<polygon points="-744,42.6667 256,-957.333 1256,42.6667" style="fill:#000000; stroke:#000000;stroke-width:0"/>
<circle fill="#a64b00" stroke="#a64b00" stroke-width="0" cx="-388.395" cy="192.132" r="21.3333"/>
<circle fill="#a64b00" stroke="#a64b00" stroke-width="0" cx="-202.366" cy="93.3389" r="21.3333"/>
<circle fill="#a64b00" stroke="#a64b00" stroke-width="0" cx="852.195" cy="227.221" r="21.3333"/>
<circle fill="#a64b00" stroke="#a64b00" stroke-width="0" cx="919.367" cy="437.493" r="21.3333"/>
<circle fill="#a64b00" stroke="#a64b00" stroke-width="0" cx="-149.407" cy="354.428" r="21.3333"/>
</svg>
