<?xml version="1.0" encoding="utf-8"?> <!-- Generator: Adobe Illustrator 13.0.0, SVG Export Plug-In . SVG Version: 6.00 Build 14948)  --> <svg version="1.2" baseProfile="tiny" id="Layer_1" xmlns="http://www.w3.org/2000/svg" xmlns:xlink="http://www.w3.org/1999/xlink" x="0px" y="0px" width="512px" height="512px" viewBox="0 0 512 512" xml:space="preserve">
<polygon points="0,0 512,0 512,512 0,512" style="fill:#ffffff; stroke:#000000;stroke-width:0"/>
<polygon points="-15.5726,137.212 26.6499,131.072 58.3472,349.021 16.1247,355.162" style="fill:#006363; stroke:#000000;stroke-width:0"/>
<circle fill="#006363" stroke="#006363" stroke-width="0" cx="5.53867" cy="134.142" r="21.3333"/>
<circle fill="#006363" stroke="#006363" stroke-width="0" cx="37.236" cy="352.091" r="21.3333"/>
<polygon points="451.97,170.18 493.221,159.282 547.841,366.025 506.589,376.923" style="fill:#006363; stroke:#000000;stroke-width:0"/>
<circle fill="#006363" stroke="#006363" stroke-width="0" cx="472.596" cy="164.731" r="21.3333"/>
<circle fill="#006363" stroke="#006363" stroke-width="0" cx="527.215" cy="371.474" r="21.3333"/>
<polygon points="1256,469.333 256,1469.33 -744,469.333" style="fill:#000000; stroke:#000000;stroke-width:0"/>
<polygon points="-744,42.6667 256,-957.333 1256,42.6667" style="fill:#000000; stroke:#000000;stroke-width:0"/>
<circle fill="#a64b00" stroke="#a64b00" stroke-width="0" cx="5.53867" cy="134.142" r="21.3333"/>
<circle fill="#a64b00" stroke="#a64b00" stroke-width="0" cx="37.236" cy="352.091" r="21.3333"/>
<circle fill="#a64b00" stroke="#a64b00" stroke-width="0" cx="472.596" cy="164.731" r="21.3333"/>
<circle fill="#a64b00" stroke="#a64b00" stroke-width="0" cx="527.215" cy="371.474" r="21.3333"/>
<circle fill="#a64b00" stroke="#a64b00" stroke-width="0" cx="413.462" cy="281.58" r="21.3333"/>
</svg>
