<?xml version="1.0" encoding="utf-8"?> <!-- Generator: Adobe Illustrator 13.0.0, SVG Export Plug-In . SVG Version: 6.00 Build 14948)  --> <svg version="1.2" baseProfile="tiny" id="Layer_1" xmlns="http://www.w3.org/2000/svg" xmlns:xlink="http://www.w3.org/1999/xlink" x="0px" y="0px" width="512px" height="512px" viewBox="0 0 512 512" xml:space="preserve">
<polygon points="0,0 512,0 512,512 0,512" style="fill:#ffffff; stroke:#000000;stroke-width:0"/>
<polygon points="-212.044,382.441 -213,339.785 8.48667,334.82 9.44304,377.476" style="fill:#006363; stroke:#000000;stroke-width:0"/>
<circle fill="#006363" stroke="#006363" stroke-width="0" cx="-212.522" cy="361.113" r="21.3333"/>
<circle fill="#006363" stroke="#006363" stroke-width="0" cx="8.96486" cy="356.148" r="21.3333"/>
<polygon points="622.636,190.38 665.217,187.667 678.599,397.682 636.019,400.395" style="fill:#006363; stroke:#000000;stroke-width:0"/>
<circle fill="#006363" stroke="#006363" stroke-width="0" cx="643.926" cy="189.023" r="21.3333"/>
<circle fill="#006363" stroke="#006363" stroke-width="0" cx="657.309" cy="399.039" r="21.3333"/>
<polygon points="1256,469.333 256,1469.33 -744,469.333" style="fill:#000000; stroke:#000000;stroke-width:0"/>
<polygon points="-744,42.6667 256,-957.333 1256,42.6667" style="fill:#000000; stroke:#000000;stroke-width:0"/>
<circle fill="#a64b00" stroke="#a64b00" stroke-width="0" cx="-212.522" cy="361.113" r="21.3333"/>
<circle fill="#a64b00" stroke="#a64b00" stroke-width="0" cx="8.96486" cy="356.148" r="21.3333"/>
<circle fill="#a64b00" stroke="#a64b00" stroke-width="0" cx="643.926" cy="189.023" r="21.3333"/>
<circle fill="#a64b00" stroke="#a64b00" stroke-width="0" cx="657.309" cy="399.039" r="21.3333"/>
<circle fill="#a64b00" stroke="#a64b00" stroke-width="0" cx="290.841" cy="354.428" r="21.3333"/>
</svg>
