<?xml version="1.0" encoding="utf-8"?> <!-- Generator: Adobe Illustrator 13.0.0, SVG Export Plug-In . SVG Version: 6.00 Build 14948)  --> <svg version="1.2" baseProfile="tiny" id="Layer_1" xmlns="http://www.w3.org/2000/svg" xmlns:xlink="http://www.w3.org/1999/xlink" x="0px" y="0px" width="512px" height="512px" viewBox="0 0 512 512" xml:space="preserve">
<polygon points="0,0 512,0 512,512 0,512" style="fill:#ffffff; stroke:#000000;stroke-width:0"/>
<polygon points="-9.70338,125.218 32.6385,119.963 58.4979,328.341 16.1561,333.595" style="fill:#006363; stroke:#000000;stroke-width:0"/>
<circle fill="#006363" stroke="#006363" stroke-width="0" cx="11.4676" cy="122.59" r="21.3333"/>
<circle fill="#006363" stroke="#006363" stroke-width="0" cx="37.327" cy="330.968" r="21.3333"/>
<polygon points="453.799,191.396 495.627,182.978 538.03,393.669 496.202,402.088" style="fill:#006363; stroke:#000000;stroke-width:0"/>
<circle fill="#006363" stroke="#006363" stroke-width="0" cx="474.713" cy="187.187" r="21.3333"/>
<circle fill="#006363" stroke="#006363" stroke-width="0" cx="517.116" cy="397.878" r="21.3333"/>
<polygon points="1256,469.333 256,1469.33 -744,469.333" style="fill:#000000; stroke:#000000;stroke-width:0"/>
<polygon points="-744,42.6667 256,-957.333 1256,42.6667" style="fill:#000000; stroke:#000000;stroke-width:0"/>
<circle fill="#a64b00" stroke="#a64b00" stroke-width="0" cx="11.4676" cy="122.59" r="21.3333"/>
<circle fill="#a64b00" stroke="#a64b00" stroke-width="0" cx="37.327" cy="330.968" r="21.3333"/>
<circle fill="#a64b00" stroke="#a64b00" stroke-width="0" cx="474.713" cy="187.187" r="21.3333"/>
<circle fill="#a64b00" stroke="#a64b00" stroke-width="0" cx="517.116" cy="397.878" r="21.3333"/>
<circle fill="#a64b00" stroke="#a64b00" stroke-width="0" cx="449.605" cy="397.988" r="21.3333"/>
</svg>
