<?xml version="1.0" encoding="utf-8"?> <!-- Generator: Adobe Illustrator 13.0.0, SVG Export Plug-In . SVG Version: 6.00 Build 14948)  --> <svg version="1.2" baseProfile="tiny" id="Layer_1" xmlns="http://www.w3.org/2000/svg" xmlns:xlink="http://www.w3.org/1999/xlink" x="0px" y="0px" width="512px" height="512px" viewBox="0 0 512 512" xml:space="preserve">
<polygon points="0,0 512,0 512,512 0,512" style="fill:#ffffff; stroke:#000000;stroke-width:0"/>
<polygon points="-159.252,342.193 -169.114,383.704 -380.616,333.459 -370.755,291.948" style="fill:#006363; stroke:#000000;stroke-width:0"/>
<circle fill="#006363" stroke="#006363" stroke-width="0" cx="-164.183" cy="362.948" r="21.3333"/>
<circle fill="#006363" stroke="#006363" stroke-width="0" cx="-375.686" cy="312.704" r="21.3333"/>
<polygon points="746.244,329.284 761.2,289.325 963.5,365.041 948.544,405" style="fill:#006363; stroke:#000000;stroke-width:0"/>
<circle fill="#006363" stroke="#006363" stroke-width="0" cx="753.722" cy="309.305" r="21.3333"/>
<circle fill="#006363" stroke="#006363" stroke-width="0" cx="956.022" cy="385.021" r="21.3333"/>
<polygon points="1256,469.333 256,1469.33 -744,469.333" style="fill:#000000; stroke:#000000;stroke-width:0"/>
<polygon points="-744,42.6667 256,-957.333 1256,42.6667" style="fill:#000000; stroke:#000000;stroke-width:0"/>
<circle fill="#a64b00" stroke="#a64b00" stroke-width="0" cx="-164.183" cy="362.948" r="21.3333"/>
<circle fill="#a64b00" stroke="#a64b00" stroke-width="0" cx="-375.686" cy="312.704" r="21.3333"/>
<circle fill="#a64b00" stroke="#a64b00" stroke-width="0" cx="753.722" cy="309.305" r="21.3333"/>
<circle fill="#a64b00" stroke="#a64b00" stroke-width="0" cx="956.022" cy="385.021" r="21.3333"/>
<circle fill="#a64b00" stroke="#a64b00" stroke-width="0" cx="-91.5421" cy="402.13" r="21.3333"/>
</svg>
