<?xml version="1.0" encoding="utf-8"?> <!-- Generator: Adobe Illustrator 13.0.0, SVG Export Plug-In . SVG Version: 6.00 Build 14948)  --> <svg version="1.2" baseProfile="tiny" id="Layer_1" xmlns="http://www.w3.org/2000/svg" xmlns:xlink="http://www.w3.org/1999/xlink" x="0px" y="0px" width="512px" height="512px" viewBox="0 0 512 512" xml:space="preserve">
<polygon points="0,0 512,0 512,512 0,512" style="fill:#ffffff; stroke:#000000;stroke-width:0"/>
<polygon points="-92.421,253.15 -62.6384,283.702 -215.02,432.244 -244.803,401.692" style="fill:#006363; stroke:#000000;stroke-width:0"/>
<circle fill="#006363" stroke="#006363" stroke-width="0" cx="-77.5297" cy="268.426" r="21.3333"/>
<circle fill="#006363" stroke="#006363" stroke-width="0" cx="-229.912" cy="416.968" r="21.3333"/>
<polygon points="678.956,438.347 642.148,416.767 748.465,235.426 785.272,257.005" style="fill:#006363; stroke:#000000;stroke-width:0"/>
<circle fill="#006363" stroke="#006363" stroke-width="0" cx="660.552" cy="427.557" r="21.3333"/>
<circle fill="#006363" stroke="#006363" stroke-width="0" cx="766.869" cy="246.216" r="21.3333"/>
<polygon points="1256,469.333 256,1469.33 -744,469.333" style="fill:#000000; stroke:#000000;stroke-width:0"/>
<polygon points="-744,42.6667 256,-957.333 1256,42.6667" style="fill:#000000; stroke:#000000;stroke-width:0"/>
<circle fill="#a64b00" stroke="#a64b00" stroke-width="0" cx="-77.5297" cy="268.426" r="21.3333"/>
<circle fill="#a64b00" stroke="#a64b00" stroke-width="0" cx="-229.912" cy="416.968" r="21.3333"/>
<circle fill="#a64b00" stroke="#a64b00" stroke-width="0" cx="660.552" cy="427.557" r="21.3333"/>
<circle fill="#a64b00" stroke="#a64b00" stroke-width="0" cx="766.869" cy="246.216" r="21.3333"/>
<circle fill="#a64b00" stroke="#a64b00" stroke-width="0" cx="172.726" cy="87.2932" r="21.3333"/>
</svg>
