<?xml version="1.0" encoding="utf-8"?> <!-- Generator: Adobe Illustrator 13.0.0, SVG Export Plug-In . SVG Version: 6.00 Build 14948)  --> <svg version="1.2" baseProfile="tiny" id="Layer_1" xmlns="http://www.w3.org/2000/svg" xmlns:xlink="http://www.w3.org/1999/xlink" x="0px" y="0px" width="512px" height="512px" viewBox="0 0 512 512" xml:space="preserve">
<polygon points="0,0 512,0 512,512 0,512" style="fill:#ffffff; stroke:#000000;stroke-width:0"/>
<polygon points="-186.878,427.817 -207.311,390.361 -27.6974,292.378 -7.26452,329.834" style="fill:#006363; stroke:#000000;stroke-width:0"/>
<circle fill="#006363" stroke="#006363" stroke-width="0" cx="-197.094" cy="409.089" r="21.3333"/>
<circle fill="#006363" stroke="#006363" stroke-width="0" cx="-17.481" cy="311.106" r="21.3333"/>
<polygon points="600.567,207.187 640.682,192.653 714.052,395.164 673.937,409.697" style="fill:#006363; stroke:#000000;stroke-width:0"/>
<circle fill="#006363" stroke="#006363" stroke-width="0" cx="620.624" cy="199.92" r="21.3333"/>
<circle fill="#006363" stroke="#006363" stroke-width="0" cx="693.995" cy="402.431" r="21.3333"/>
<polygon points="1256,469.333 256,1469.33 -744,469.333" style="fill:#000000; stroke:#000000;stroke-width:0"/>
<polygon points="-744,42.6667 256,-957.333 1256,42.6667" style="fill:#000000; stroke:#000000;stroke-width:0"/>
<circle fill="#a64b00" stroke="#a64b00" stroke-width="0" cx="-197.094" cy="409.089" r="21.3333"/>
<circle fill="#a64b00" stroke="#a64b00" stroke-width="0" cx="-17.481" cy="311.106" r="21.3333"/>
<circle fill="#a64b00" stroke="#a64b00" stroke-width="0" cx="620.624" cy="199.92" r="21.3333"/>
<circle fill="#a64b00" stroke="#a64b00" stroke-width="0" cx="693.995" cy="402.431" r="21.3333"/>
<circle fill="#a64b00" stroke="#a64b00" stroke-width="0" cx="278.314" cy="154.077" r="21.3333"/>
</svg>
