<?xml version="1.0" encoding="utf-8"?> <!-- Generator: Adobe Illustrator 13.0.0, SVG Export Plug-In . SVG Version: 6.00 Build 14948)  --> <svg version="1.2" baseProfile="tiny" id="Layer_1" xmlns="http://www.w3.org/2000/svg" xmlns:xlink="http://www.w3.org/1999/xlink" x="0px" y="0px" width="512px" height="512px" viewBox="0 0 512 512" xml:space="preserve">
<polygon points="0,0 512,0 512,512 0,512" style="fill:#ffffff; stroke:#000000;stroke-width:0"/>
<polygon points="-104.042,162.865 -61.8235,156.7 -30.7838,369.26 -73.0027,375.425" style="fill:#006363; stroke:#000000;stroke-width:0"/>
<circle fill="#006363" stroke="#006363" stroke-width="0" cx="-82.933" cy="159.782" r="21.3333"/>
<circle fill="#006363" stroke="#006363" stroke-width="0" cx="-51.8933" cy="372.343" r="21.3333"/>
<polygon points="716.435,242.359 710.766,284.648 501.315,256.568 506.984,214.279" style="fill:#006363; stroke:#000000;stroke-width:0"/>
<circle fill="#006363" stroke="#006363" stroke-width="0" cx="713.6" cy="263.504" r="21.3333"/>
<circle fill="#006363" stroke="#006363" stroke-width="0" cx="504.149" cy="235.423" r="21.3333"/>
<polygon points="1256,469.333 256,1469.33 -744,469.333" style="fill:#000000; stroke:#000000;stroke-width:0"/>
<polygon points="-744,42.6667 256,-957.333 1256,42.6667" style="fill:#000000; stroke:#000000;stroke-width:0"/>
<circle fill="#a64b00" stroke="#a64b00" stroke-width="0" cx="-82.933" cy="159.782" r="21.3333"/>
<circle fill="#a64b00" stroke="#a64b00" stroke-width="0" cx="-51.8933" cy="372.343" r="21.3333"/>
<circle fill="#a64b00" stroke="#a64b00" stroke-width="0" cx="713.6" cy="263.504" r="21.3333"/>
<circle fill="#a64b00" stroke="#a64b00" stroke-width="0" cx="504.149" cy="235.423" r="21.3333"/>
<circle fill="#a64b00" stroke="#a64b00" stroke-width="0" cx="368.988" cy="77.7526" r="21.3333"/>
</svg>
