<?xml version="1.0" encoding="utf-8"?> <!-- Generator: Adobe Illustrator 13.0.0, SVG Export Plug-In . SVG Version: 6.00 Build 14948)  --> <svg version="1.2" baseProfile="tiny" id="Layer_1" xmlns="http://www.w3.org/2000/svg" xmlns:xlink="http://www.w3.org/1999/xlink" x="0px" y="0px" width="512px" height="512px" viewBox="0 0 512 512" xml:space="preserve">
<polygon points="0,0 512,0 512,512 0,512" style="fill:#ffffff; stroke:#000000;stroke-width:0"/>
<polygon points="-104.413,150.065 -62.1644,144.103 -32.5123,354.253 -74.7605,360.214" style="fill:#006363; stroke:#000000;stroke-width:0"/>
<circle fill="#006363" stroke="#006363" stroke-width="0" cx="-83.2885" cy="147.084" r="21.3333"/>
<circle fill="#006363" stroke="#006363" stroke-width="0" cx="-53.6364" cy="357.233" r="21.3333"/>
<polygon points="718.908,237.971 715.566,280.507 501.391,263.677 504.733,221.142" style="fill:#006363; stroke:#000000;stroke-width:0"/>
<circle fill="#006363" stroke="#006363" stroke-width="0" cx="717.237" cy="259.239" r="21.3333"/>
<circle fill="#006363" stroke="#006363" stroke-width="0" cx="503.062" cy="242.41" r="21.3333"/>
<polygon points="1256,469.333 256,1469.33 -744,469.333" style="fill:#000000; stroke:#000000;stroke-width:0"/>
<polygon points="-744,42.6667 256,-957.333 1256,42.6667" style="fill:#000000; stroke:#000000;stroke-width:0"/>
<circle fill="#a64b00" stroke="#a64b00" stroke-width="0" cx="-83.2885" cy="147.084" r="21.3333"/>
<circle fill="#a64b00" stroke="#a64b00" stroke-width="0" cx="-53.6364" cy="357.233" r="21.3333"/>
<circle fill="#a64b00" stroke="#a64b00" stroke-width="0" cx="717.237" cy="259.239" r="21.3333"/>
<circle fill="#a64b00" stroke="#a64b00" stroke-width="0" cx="503.062" cy="242.41" r="21.3333"/>
<circle fill="#a64b00" stroke="#a64b00" stroke-width="0" cx="366.602" cy="115.915" r="21.3333"/>
</svg>
