<?xml version="1.0" encoding="utf-8"?> <!-- Generator: Adobe Illustrator 13.0.0, SVG Export Plug-In . SVG Version: 6.00 Build 14948)  --> <svg version="1.2" baseProfile="tiny" id="Layer_1" xmlns="http://www.w3.org/2000/svg" xmlns:xlink="http://www.w3.org/1999/xlink" x="0px" y="0px" width="512px" height="512px" viewBox="0 0 512 512" xml:space="preserve">
<polygon points="0,0 512,0 512,512 0,512" style="fill:#ffffff; stroke:#000000;stroke-width:0"/>
<polygon points="-408.38,117.597 -406.693,74.9634 -193.399,83.4026 -195.086,126.036" style="fill:#006363; stroke:#000000;stroke-width:0"/>
<circle fill="#006363" stroke="#006363" stroke-width="0" cx="-407.537" cy="96.28" r="21.3333"/>
<circle fill="#006363" stroke="#006363" stroke-width="0" cx="-194.242" cy="104.719" r="21.3333"/>
<polygon points="859.436,228.375 901.825,223.511 925.509,429.929 883.12,434.792" style="fill:#006363; stroke:#000000;stroke-width:0"/>
<circle fill="#006363" stroke="#006363" stroke-width="0" cx="880.63" cy="225.943" r="21.3333"/>
<circle fill="#006363" stroke="#006363" stroke-width="0" cx="904.315" cy="432.36" r="21.3333"/>
<polygon points="1256,469.333 256,1469.33 -744,469.333" style="fill:#000000; stroke:#000000;stroke-width:0"/>
<polygon points="-744,42.6667 256,-957.333 1256,42.6667" style="fill:#000000; stroke:#000000;stroke-width:0"/>
<circle fill="#a64b00" stroke="#a64b00" stroke-width="0" cx="-407.537" cy="96.28" r="21.3333"/>
<circle fill="#a64b00" stroke="#a64b00" stroke-width="0" cx="-194.242" cy="104.719" r="21.3333"/>
<circle fill="#a64b00" stroke="#a64b00" stroke-width="0" cx="880.63" cy="225.943" r="21.3333"/>
<circle fill="#a64b00" stroke="#a64b00" stroke-width="0" cx="904.315" cy="432.36" r="21.3333"/>
<circle fill="#a64b00" stroke="#a64b00" stroke-width="0" cx="-161.934" cy="154.077" r="21.3333"/>
</svg>
