<?xml version="1.0" encoding="utf-8"?> <!-- Generator: Adobe Illustrator 13.0.0, SVG Export Plug-In . SVG Version: 6.00 Build 14948)  --> <svg version="1.2" baseProfile="tiny" id="Layer_1" xmlns="http://www.w3.org/2000/svg" xmlns:xlink="http://www.w3.org/1999/xlink" x="0px" y="0px" width="512px" height="512px" viewBox="0 0 512 512" xml:space="preserve">
<polygon points="0,0 512,0 512,512 0,512" style="fill:#ffffff; stroke:#000000;stroke-width:0"/>
<polygon points="-47.6626,246.346 -6.60376,234.744 52.7125,444.65 11.6537,456.252" style="fill:#006363; stroke:#000000;stroke-width:0"/>
<circle fill="#006363" stroke="#006363" stroke-width="0" cx="-27.1332" cy="240.545" r="21.3333"/>
<circle fill="#006363" stroke="#006363" stroke-width="0" cx="32.1831" cy="450.451" r="21.3333"/>
<polygon points="429.572,107.73 457.538,75.5059 620.255,216.72 592.289,248.944" style="fill:#006363; stroke:#000000;stroke-width:0"/>
<circle fill="#006363" stroke="#006363" stroke-width="0" cx="443.555" cy="91.6178" r="21.3333"/>
<circle fill="#006363" stroke="#006363" stroke-width="0" cx="606.272" cy="232.832" r="21.3333"/>
<polygon points="1256,469.333 256,1469.33 -744,469.333" style="fill:#000000; stroke:#000000;stroke-width:0"/>
<polygon points="-744,42.6667 256,-957.333 1256,42.6667" style="fill:#000000; stroke:#000000;stroke-width:0"/>
<circle fill="#a64b00" stroke="#a64b00" stroke-width="0" cx="-27.1332" cy="240.545" r="21.3333"/>
<circle fill="#a64b00" stroke="#a64b00" stroke-width="0" cx="32.1831" cy="450.451" r="21.3333"/>
<circle fill="#a64b00" stroke="#a64b00" stroke-width="0" cx="443.555" cy="91.6178" r="21.3333"/>
<circle fill="#a64b00" stroke="#a64b00" stroke-width="0" cx="606.272" cy="232.832" r="21.3333"/>
<circle fill="#a64b00" stroke="#a64b00" stroke-width="0" cx="186.963" cy="343.664" r="21.3333"/>
</svg>
