<?xml version="1.0" encoding="utf-8"?> <!-- Generator: Adobe Illustrator 13.0.0, SVG Export Plug-In . SVG Version: 6.00 Build 14948)  --> <svg version="1.2" baseProfile="tiny" id="Layer_1" xmlns="http://www.w3.org/2000/svg" xmlns:xlink="http://www.w3.org/1999/xlink" x="0px" y="0px" width="512px" height="512px" viewBox="0 0 512 512" xml:space="preserve">
<polygon points="0,0 512,0 512,512 0,512" style="fill:#ffffff; stroke:#000000;stroke-width:0"/>
<polygon points="-98.3305,46.9066 -86.9188,88.0188 -295.681,145.966 -307.092,104.853" style="fill:#006363; stroke:#000000;stroke-width:0"/>
<circle fill="#006363" stroke="#006363" stroke-width="0" cx="-92.6247" cy="67.4627" r="21.3333"/>
<circle fill="#006363" stroke="#006363" stroke-width="0" cx="-301.387" cy="125.41" r="21.3333"/>
<polygon points="746.443,336.46 706.805,320.671 786.132,121.514 825.77,137.303" style="fill:#006363; stroke:#000000;stroke-width:0"/>
<circle fill="#006363" stroke="#006363" stroke-width="0" cx="726.624" cy="328.565" r="21.3333"/>
<circle fill="#006363" stroke="#006363" stroke-width="0" cx="805.951" cy="129.408" r="21.3333"/>
<polygon points="1256,469.333 256,1469.33 -744,469.333" style="fill:#000000; stroke:#000000;stroke-width:0"/>
<polygon points="-744,42.6667 256,-957.333 1256,42.6667" style="fill:#000000; stroke:#000000;stroke-width:0"/>
<circle fill="#a64b00" stroke="#a64b00" stroke-width="0" cx="-92.6247" cy="67.4627" r="21.3333"/>
<circle fill="#a64b00" stroke="#a64b00" stroke-width="0" cx="-301.387" cy="125.41" r="21.3333"/>
<circle fill="#a64b00" stroke="#a64b00" stroke-width="0" cx="726.624" cy="328.565" r="21.3333"/>
<circle fill="#a64b00" stroke="#a64b00" stroke-width="0" cx="805.951" cy="129.408" r="21.3333"/>
<circle fill="#a64b00" stroke="#a64b00" stroke-width="0" cx="74.2965" cy="96.8337" r="21.3333"/>
</svg>
