<?xml version="1.0" encoding="utf-8"?> <!-- Generator: Adobe Illustrator 13.0.0, SVG Export Plug-In . SVG Version: 6.00 Build 14948)  --> <svg version="1.2" baseProfile="tiny" id="Layer_1" xmlns="http://www.w3.org/2000/svg" xmlns:xlink="http://www.w3.org/1999/xlink" x="0px" y="0px" width="512px" height="512px" viewBox="0 0 512 512" xml:space="preserve">
<polygon points="0,0 512,0 512,512 0,512" style="fill:#ffffff; stroke:#000000;stroke-width:0"/>
<polygon points="-131.083,158.433 -90.0409,146.769 -32.6003,348.895 -73.6419,360.558" style="fill:#006363; stroke:#000000;stroke-width:0"/>
<circle fill="#006363" stroke="#006363" stroke-width="0" cx="-110.562" cy="152.601" r="21.3333"/>
<circle fill="#006363" stroke="#006363" stroke-width="0" cx="-53.1211" cy="354.726" r="21.3333"/>
<polygon points="701.202,189.904 725.635,224.882 551.599,346.446 527.166,311.468" style="fill:#006363; stroke:#000000;stroke-width:0"/>
<circle fill="#006363" stroke="#006363" stroke-width="0" cx="713.418" cy="207.393" r="21.3333"/>
<circle fill="#006363" stroke="#006363" stroke-width="0" cx="539.383" cy="328.957" r="21.3333"/>
<polygon points="1256,469.333 256,1469.33 -744,469.333" style="fill:#000000; stroke:#000000;stroke-width:0"/>
<polygon points="-744,42.6667 256,-957.333 1256,42.6667" style="fill:#000000; stroke:#000000;stroke-width:0"/>
<circle fill="#a64b00" stroke="#a64b00" stroke-width="0" cx="-110.562" cy="152.601" r="21.3333"/>
<circle fill="#a64b00" stroke="#a64b00" stroke-width="0" cx="-53.1211" cy="354.726" r="21.3333"/>
<circle fill="#a64b00" stroke="#a64b00" stroke-width="0" cx="713.418" cy="207.393" r="21.3333"/>
<circle fill="#a64b00" stroke="#a64b00" stroke-width="0" cx="539.383" cy="328.957" r="21.3333"/>
<circle fill="#a64b00" stroke="#a64b00" stroke-width="0" cx="336.178" cy="297.185" r="21.3333"/>
</svg>
