<?xml version="1.0" encoding="utf-8"?> <!-- Generator: Adobe Illustrator 13.0.0, SVG Export Plug-In . SVG Version: 6.00 Build 14948)  --> <svg version="1.2" baseProfile="tiny" id="Layer_1" xmlns="http://www.w3.org/2000/svg" xmlns:xlink="http://www.w3.org/1999/xlink" x="0px" y="0px" width="512px" height="512px" viewBox="0 0 512 512" xml:space="preserve">
<polygon points="0,0 512,0 512,512 0,512" style="fill:#ffffff; stroke:#000000;stroke-width:0"/>
<polygon points="0.75151,88.1743 43.2798,84.7411 60.4842,297.856 17.9559,301.289" style="fill:#006363; stroke:#000000;stroke-width:0"/>
<circle fill="#006363" stroke="#006363" stroke-width="0" cx="22.0157" cy="86.4577" r="21.3333"/>
<circle fill="#006363" stroke="#006363" stroke-width="0" cx="39.22" cy="299.573" r="21.3333"/>
<polygon points="458.378,239.037 500.882,235.311 519.359,446.077 476.855,449.803" style="fill:#006363; stroke:#000000;stroke-width:0"/>
<circle fill="#006363" stroke="#006363" stroke-width="0" cx="479.63" cy="237.174" r="21.3333"/>
<circle fill="#006363" stroke="#006363" stroke-width="0" cx="498.107" cy="447.94" r="21.3333"/>
<polygon points="1256,469.333 256,1469.33 -744,469.333" style="fill:#000000; stroke:#000000;stroke-width:0"/>
<polygon points="-744,42.6667 256,-957.333 1256,42.6667" style="fill:#000000; stroke:#000000;stroke-width:0"/>
<circle fill="#a64b00" stroke="#a64b00" stroke-width="0" cx="22.0157" cy="86.4577" r="21.3333"/>
<circle fill="#a64b00" stroke="#a64b00" stroke-width="0" cx="39.22" cy="299.573" r="21.3333"/>
<circle fill="#a64b00" stroke="#a64b00" stroke-width="0" cx="479.63" cy="237.174" r="21.3333"/>
<circle fill="#a64b00" stroke="#a64b00" stroke-width="0" cx="498.107" cy="447.94" r="21.3333"/>
<circle fill="#a64b00" stroke="#a64b00" stroke-width="0" cx="284.05" cy="358.913" r="21.3333"/>
</svg>
