<?xml version="1.0" encoding="utf-8"?> <!-- Generator: Adobe Illustrator 13.0.0, SVG Export Plug-In . SVG Version: 6.00 Build 14948)  --> <svg version="1.2" baseProfile="tiny" id="Layer_1" xmlns="http://www.w3.org/2000/svg" xmlns:xlink="http://www.w3.org/1999/xlink" x="0px" y="0px" width="512px" height="512px" viewBox="0 0 512 512" xml:space="preserve">
<polygon points="0,0 512,0 512,512 0,512" style="fill:#ffffff; stroke:#000000;stroke-width:0"/>
<polygon points="-89.1044,185.405 -56.0481,158.428 78.1013,322.812 45.045,349.789" style="fill:#006363; stroke:#000000;stroke-width:0"/>
<circle fill="#006363" stroke="#006363" stroke-width="0" cx="-72.5763" cy="171.916" r="21.3333"/>
<circle fill="#006363" stroke="#006363" stroke-width="0" cx="61.5731" cy="336.3" r="21.3333"/>
<polygon points="426.812,172.777 435.124,130.928 644.298,172.473 635.987,214.322" style="fill:#006363; stroke:#000000;stroke-width:0"/>
<circle fill="#006363" stroke="#006363" stroke-width="0" cx="430.968" cy="151.853" r="21.3333"/>
<circle fill="#006363" stroke="#006363" stroke-width="0" cx="640.143" cy="193.398" r="21.3333"/>
<polygon points="1256,469.333 256,1469.33 -744,469.333" style="fill:#000000; stroke:#000000;stroke-width:0"/>
<polygon points="-744,42.6667 256,-957.333 1256,42.6667" style="fill:#000000; stroke:#000000;stroke-width:0"/>
<circle fill="#a64b00" stroke="#a64b00" stroke-width="0" cx="-72.5763" cy="171.916" r="21.3333"/>
<circle fill="#a64b00" stroke="#a64b00" stroke-width="0" cx="61.5731" cy="336.3" r="21.3333"/>
<circle fill="#a64b00" stroke="#a64b00" stroke-width="0" cx="430.968" cy="151.853" r="21.3333"/>
<circle fill="#a64b00" stroke="#a64b00" stroke-width="0" cx="640.143" cy="193.398" r="21.3333"/>
<circle fill="#a64b00" stroke="#a64b00" stroke-width="0" cx="90.5811" cy="79.8076" r="21.3333"/>
</svg>
