<?xml version="1.0" encoding="utf-8"?> <!-- Generator: Adobe Illustrator 13.0.0, SVG Export Plug-In . SVG Version: 6.00 Build 14948)  --> <svg version="1.2" baseProfile="tiny" id="Layer_1" xmlns="http://www.w3.org/2000/svg" xmlns:xlink="http://www.w3.org/1999/xlink" x="0px" y="0px" width="512px" height="512px" viewBox="0 0 512 512" xml:space="preserve">
<polygon points="0,0 512,0 512,512 0,512" style="fill:#ffffff; stroke:#000000;stroke-width:0"/>
<polygon points="-366.367,352.992 -401.074,328.175 -277.283,155.05 -242.576,179.866" style="fill:#006363; stroke:#000000;stroke-width:0"/>
<circle fill="#006363" stroke="#006363" stroke-width="0" cx="-383.72" cy="340.584" r="21.3333"/>
<circle fill="#006363" stroke="#006363" stroke-width="0" cx="-259.929" cy="167.458" r="21.3333"/>
<polygon points="947.89,212.012 985.3,232.528 879.117,426.144 841.707,405.628" style="fill:#006363; stroke:#000000;stroke-width:0"/>
<circle fill="#006363" stroke="#006363" stroke-width="0" cx="966.595" cy="222.27" r="21.3333"/>
<circle fill="#006363" stroke="#006363" stroke-width="0" cx="860.412" cy="415.886" r="21.3333"/>
<polygon points="1256,469.333 256,1469.33 -744,469.333" style="fill:#000000; stroke:#000000;stroke-width:0"/>
<polygon points="-744,42.6667 256,-957.333 1256,42.6667" style="fill:#000000; stroke:#000000;stroke-width:0"/>
<circle fill="#a64b00" stroke="#a64b00" stroke-width="0" cx="-383.72" cy="340.584" r="21.3333"/>
<circle fill="#a64b00" stroke="#a64b00" stroke-width="0" cx="-259.929" cy="167.458" r="21.3333"/>
<circle fill="#a64b00" stroke="#a64b00" stroke-width="0" cx="966.595" cy="222.27" r="21.3333"/>
<circle fill="#a64b00" stroke="#a64b00" stroke-width="0" cx="860.412" cy="415.886" r="21.3333"/>
<circle fill="#a64b00" stroke="#a64b00" stroke-width="0" cx="522.98" cy="252.139" r="21.3333"/>
</svg>
