<?xml version="1.0" encoding="utf-8"?> <!-- Generator: Adobe Illustrator 13.0.0, SVG Export Plug-In . SVG Version: 6.00 Build 14948)  --> <svg version="1.2" baseProfile="tiny" id="Layer_1" xmlns="http://www.w3.org/2000/svg" xmlns:xlink="http://www.w3.org/1999/xlink" x="0px" y="0px" width="512px" height="512px" viewBox="0 0 512 512" xml:space="preserve">
<polygon points="0,0 512,0 512,512 0,512" style="fill:#ffffff; stroke:#000000;stroke-width:0"/>
<polygon points="-133.702,97.6543 -131.667,55.0362 75.4768,64.9267 73.442,107.545" style="fill:#006363; stroke:#000000;stroke-width:0"/>
<circle fill="#006363" stroke="#006363" stroke-width="0" cx="-132.684" cy="76.3453" r="21.3333"/>
<circle fill="#006363" stroke="#006363" stroke-width="0" cx="74.4594" cy="86.2358" r="21.3333"/>
<polygon points="527.389,301.302 490.613,279.668 597.316,98.2844 634.091,119.918" style="fill:#006363; stroke:#000000;stroke-width:0"/>
<circle fill="#006363" stroke="#006363" stroke-width="0" cx="509.001" cy="290.485" r="21.3333"/>
<circle fill="#006363" stroke="#006363" stroke-width="0" cx="615.703" cy="109.101" r="21.3333"/>
<polygon points="1256,469.333 256,1469.33 -744,469.333" style="fill:#000000; stroke:#000000;stroke-width:0"/>
<polygon points="-744,42.6667 256,-957.333 1256,42.6667" style="fill:#000000; stroke:#000000;stroke-width:0"/>
<circle fill="#a64b00" stroke="#a64b00" stroke-width="0" cx="-132.684" cy="76.3453" r="21.3333"/>
<circle fill="#a64b00" stroke="#a64b00" stroke-width="0" cx="74.4594" cy="86.2358" r="21.3333"/>
<circle fill="#a64b00" stroke="#a64b00" stroke-width="0" cx="509.001" cy="290.485" r="21.3333"/>
<circle fill="#a64b00" stroke="#a64b00" stroke-width="0" cx="615.703" cy="109.101" r="21.3333"/>
<circle fill="#a64b00" stroke="#a64b00" stroke-width="0" cx="456.083" cy="249.482" r="21.3333"/>
</svg>
