<?xml version="1.0" encoding="utf-8"?> <!-- Generator: Adobe Illustrator 13.0.0, SVG Export Plug-In . SVG Version: 6.00 Build 14948)  --> <svg version="1.2" baseProfile="tiny" id="Layer_1" xmlns="http://www.w3.org/2000/svg" xmlns:xlink="http://www.w3.org/1999/xlink" x="0px" y="0px" width="512px" height="512px" viewBox="0 0 512 512" xml:space="preserve">
<polygon points="0,0 512,0 512,512 0,512" style="fill:#ffffff; stroke:#000000;stroke-width:0"/>
<polygon points="-408.649,90.115 -400.815,48.1737 -196.73,86.2946 -204.564,128.236" style="fill:#006363; stroke:#000000;stroke-width:0"/>
<circle fill="#006363" stroke="#006363" stroke-width="0" cx="-404.732" cy="69.1444" r="21.3333"/>
<circle fill="#006363" stroke="#006363" stroke-width="0" cx="-200.647" cy="107.265" r="21.3333"/>
<polygon points="866.696,219.609 909.291,217.131 922.073,436.863 879.478,439.341" style="fill:#006363; stroke:#000000;stroke-width:0"/>
<circle fill="#006363" stroke="#006363" stroke-width="0" cx="887.993" cy="218.37" r="21.3333"/>
<circle fill="#006363" stroke="#006363" stroke-width="0" cx="900.775" cy="438.102" r="21.3333"/>
<polygon points="1256,469.333 256,1469.33 -744,469.333" style="fill:#000000; stroke:#000000;stroke-width:0"/>
<polygon points="-744,42.6667 256,-957.333 1256,42.6667" style="fill:#000000; stroke:#000000;stroke-width:0"/>
<circle fill="#a64b00" stroke="#a64b00" stroke-width="0" cx="-404.732" cy="69.1444" r="21.3333"/>
<circle fill="#a64b00" stroke="#a64b00" stroke-width="0" cx="-200.647" cy="107.265" r="21.3333"/>
<circle fill="#a64b00" stroke="#a64b00" stroke-width="0" cx="887.993" cy="218.37" r="21.3333"/>
<circle fill="#a64b00" stroke="#a64b00" stroke-width="0" cx="900.775" cy="438.102" r="21.3333"/>
<circle fill="#a64b00" stroke="#a64b00" stroke-width="0" cx="-120.245" cy="142.317" r="21.3333"/>
</svg>
