<?xml version="1.0" encoding="utf-8"?> <!-- Generator: Adobe Illustrator 13.0.0, SVG Export Plug-In . SVG Version: 6.00 Build 14948)  --> <svg version="1.2" baseProfile="tiny" id="Layer_1" xmlns="http://www.w3.org/2000/svg" xmlns:xlink="http://www.w3.org/1999/xlink" x="0px" y="0px" width="512px" height="512px" viewBox="0 0 512 512" xml:space="preserve">
<polygon points="0,0 512,0 512,512 0,512" style="fill:#ffffff; stroke:#000000;stroke-width:0"/>
<polygon points="-104.061,241.063 -62.3689,231.997 -16.0743,444.894 -57.7667,453.96" style="fill:#006363; stroke:#000000;stroke-width:0"/>
<circle fill="#006363" stroke="#006363" stroke-width="0" cx="-83.2151" cy="236.53" r="21.3333"/>
<circle fill="#006363" stroke="#006363" stroke-width="0" cx="-36.9205" cy="449.427" r="21.3333"/>
<polygon points="704.343,274.016 683.474,311.231 495.563,205.859 516.431,168.644" style="fill:#006363; stroke:#000000;stroke-width:0"/>
<circle fill="#006363" stroke="#006363" stroke-width="0" cx="693.908" cy="292.623" r="21.3333"/>
<circle fill="#006363" stroke="#006363" stroke-width="0" cx="505.997" cy="187.252" r="21.3333"/>
<polygon points="1256,469.333 256,1469.33 -744,469.333" style="fill:#000000; stroke:#000000;stroke-width:0"/>
<polygon points="-744,42.6667 256,-957.333 1256,42.6667" style="fill:#000000; stroke:#000000;stroke-width:0"/>
<circle fill="#a64b00" stroke="#a64b00" stroke-width="0" cx="-83.2151" cy="236.53" r="21.3333"/>
<circle fill="#a64b00" stroke="#a64b00" stroke-width="0" cx="-36.9205" cy="449.427" r="21.3333"/>
<circle fill="#a64b00" stroke="#a64b00" stroke-width="0" cx="693.908" cy="292.623" r="21.3333"/>
<circle fill="#a64b00" stroke="#a64b00" stroke-width="0" cx="505.997" cy="187.252" r="21.3333"/>
<circle fill="#a64b00" stroke="#a64b00" stroke-width="0" cx="385.691" cy="306.725" r="21.3333"/>
</svg>
