<?xml version="1.0" encoding="utf-8"?> <!-- Generator: Adobe Illustrator 13.0.0, SVG Export Plug-In . SVG Version: 6.00 Build 14948)  --> <svg version="1.2" baseProfile="tiny" id="Layer_1" xmlns="http://www.w3.org/2000/svg" xmlns:xlink="http://www.w3.org/1999/xlink" x="0px" y="0px" width="512px" height="512px" viewBox="0 0 512 512" xml:space="preserve">
<polygon points="0,0 512,0 512,512 0,512" style="fill:#ffffff; stroke:#000000;stroke-width:0"/>
<polygon points="-127.688,173.393 -125.234,215.989 -327.185,227.622 -329.639,185.026" style="fill:#006363; stroke:#000000;stroke-width:0"/>
<circle fill="#006363" stroke="#006363" stroke-width="0" cx="-126.461" cy="194.691" r="21.3333"/>
<circle fill="#006363" stroke="#006363" stroke-width="0" cx="-328.412" cy="206.324" r="21.3333"/>
<polygon points="753.782,435.1 719.917,409.146 852.72,235.87 886.584,261.824" style="fill:#006363; stroke:#000000;stroke-width:0"/>
<circle fill="#006363" stroke="#006363" stroke-width="0" cx="736.849" cy="422.123" r="21.3333"/>
<circle fill="#006363" stroke="#006363" stroke-width="0" cx="869.652" cy="248.847" r="21.3333"/>
<polygon points="1256,469.333 256,1469.33 -744,469.333" style="fill:#000000; stroke:#000000;stroke-width:0"/>
<polygon points="-744,42.6667 256,-957.333 1256,42.6667" style="fill:#000000; stroke:#000000;stroke-width:0"/>
<circle fill="#a64b00" stroke="#a64b00" stroke-width="0" cx="-126.461" cy="194.691" r="21.3333"/>
<circle fill="#a64b00" stroke="#a64b00" stroke-width="0" cx="-328.412" cy="206.324" r="21.3333"/>
<circle fill="#a64b00" stroke="#a64b00" stroke-width="0" cx="736.849" cy="422.123" r="21.3333"/>
<circle fill="#a64b00" stroke="#a64b00" stroke-width="0" cx="869.652" cy="248.847" r="21.3333"/>
<circle fill="#a64b00" stroke="#a64b00" stroke-width="0" cx="5.09767" cy="421.212" r="21.3333"/>
</svg>
