<?xml version="1.0" encoding="utf-8"?> <!-- Generator: Adobe Illustrator 13.0.0, SVG Export Plug-In . SVG Version: 6.00 Build 14948)  --> <svg version="1.2" baseProfile="tiny" id="Layer_1" xmlns="http://www.w3.org/2000/svg" xmlns:xlink="http://www.w3.org/1999/xlink" x="0px" y="0px" width="512px" height="512px" viewBox="0 0 512 512" xml:space="preserve">
<polygon points="0,0 512,0 512,512 0,512" style="fill:#ffffff; stroke:#000000;stroke-width:0"/>
<polygon points="-146.869,126.846 -131.024,87.2306 72.9038,168.797 57.0586,208.412" style="fill:#006363; stroke:#000000;stroke-width:0"/>
<circle fill="#006363" stroke="#006363" stroke-width="0" cx="-138.946" cy="107.038" r="21.3333"/>
<circle fill="#006363" stroke="#006363" stroke-width="0" cx="64.9812" cy="188.604" r="21.3333"/>
<polygon points="579.332,320.13 537.01,314.716 564.492,99.8687 606.813,105.282" style="fill:#006363; stroke:#000000;stroke-width:0"/>
<circle fill="#006363" stroke="#006363" stroke-width="0" cx="558.171" cy="317.423" r="21.3333"/>
<circle fill="#006363" stroke="#006363" stroke-width="0" cx="585.653" cy="102.575" r="21.3333"/>
<polygon points="1256,469.333 256,1469.33 -744,469.333" style="fill:#000000; stroke:#000000;stroke-width:0"/>
<polygon points="-744,42.6667 256,-957.333 1256,42.6667" style="fill:#000000; stroke:#000000;stroke-width:0"/>
<circle fill="#a64b00" stroke="#a64b00" stroke-width="0" cx="-138.946" cy="107.038" r="21.3333"/>
<circle fill="#a64b00" stroke="#a64b00" stroke-width="0" cx="64.9812" cy="188.604" r="21.3333"/>
<circle fill="#a64b00" stroke="#a64b00" stroke-width="0" cx="558.171" cy="317.423" r="21.3333"/>
<circle fill="#a64b00" stroke="#a64b00" stroke-width="0" cx="585.653" cy="102.575" r="21.3333"/>
<circle fill="#a64b00" stroke="#a64b00" stroke-width="0" cx="438.187" cy="363.968" r="21.3333"/>
</svg>
