<?xml version="1.0" encoding="utf-8"?> <!-- Generator: Adobe Illustrator 13.0.0, SVG Export Plug-In . SVG Version: 6.00 Build 14948)  --> <svg version="1.2" baseProfile="tiny" id="Layer_1" xmlns="http://www.w3.org/2000/svg" xmlns:xlink="http://www.w3.org/1999/xlink" x="0px" y="0px" width="512px" height="512px" viewBox="0 0 512 512" xml:space="preserve">
<polygon points="0,0 512,0 512,512 0,512" style="fill:#ffffff; stroke:#000000;stroke-width:0"/>
<polygon points="-130.523,182.659 -126.908,225.172 -328.547,242.314 -332.161,199.801" style="fill:#006363; stroke:#000000;stroke-width:0"/>
<circle fill="#006363" stroke="#006363" stroke-width="0" cx="-128.716" cy="203.916" r="21.3333"/>
<circle fill="#006363" stroke="#006363" stroke-width="0" cx="-330.354" cy="221.058" r="21.3333"/>
<polygon points="753.95,442.1 720.586,415.504 857.65,243.56 891.014,270.155" style="fill:#006363; stroke:#000000;stroke-width:0"/>
<circle fill="#006363" stroke="#006363" stroke-width="0" cx="737.268" cy="428.802" r="21.3333"/>
<circle fill="#006363" stroke="#006363" stroke-width="0" cx="874.332" cy="256.857" r="21.3333"/>
<polygon points="1256,469.333 256,1469.33 -744,469.333" style="fill:#000000; stroke:#000000;stroke-width:0"/>
<polygon points="-744,42.6667 256,-957.333 1256,42.6667" style="fill:#000000; stroke:#000000;stroke-width:0"/>
<circle fill="#a64b00" stroke="#a64b00" stroke-width="0" cx="-128.716" cy="203.916" r="21.3333"/>
<circle fill="#a64b00" stroke="#a64b00" stroke-width="0" cx="-330.354" cy="221.058" r="21.3333"/>
<circle fill="#a64b00" stroke="#a64b00" stroke-width="0" cx="737.268" cy="428.802" r="21.3333"/>
<circle fill="#a64b00" stroke="#a64b00" stroke-width="0" cx="874.332" cy="256.857" r="21.3333"/>
<circle fill="#a64b00" stroke="#a64b00" stroke-width="0" cx="0.325335" cy="402.13" r="21.3333"/>
</svg>
