<?xml version="1.0" encoding="utf-8"?> <!-- Generator: Adobe Illustrator 13.0.0, SVG Export Plug-In . SVG Version: 6.00 Build 14948)  --> <svg version="1.2" baseProfile="tiny" id="Layer_1" xmlns="http://www.w3.org/2000/svg" xmlns:xlink="http://www.w3.org/1999/xlink" x="0px" y="0px" width="512px" height="512px" viewBox="0 0 512 512" xml:space="preserve">
<polygon points="0,0 512,0 512,512 0,512" style="fill:#ffffff; stroke:#000000;stroke-width:0"/>
<polygon points="-107.856,64.2972 -65.452,59.574 -41.6605,273.173 -84.0649,277.896" style="fill:#006363; stroke:#000000;stroke-width:0"/>
<circle fill="#006363" stroke="#006363" stroke-width="0" cx="-86.6542" cy="61.9356" r="21.3333"/>
<circle fill="#006363" stroke="#006363" stroke-width="0" cx="-62.8627" cy="275.535" r="21.3333"/>
<polygon points="714.8,212.725 725.157,254.115 520.794,305.254 510.437,263.863" style="fill:#006363; stroke:#000000;stroke-width:0"/>
<circle fill="#006363" stroke="#006363" stroke-width="0" cx="719.978" cy="233.42" r="21.3333"/>
<circle fill="#006363" stroke="#006363" stroke-width="0" cx="515.616" cy="284.559" r="21.3333"/>
<polygon points="1256,469.333 256,1469.33 -744,469.333" style="fill:#000000; stroke:#000000;stroke-width:0"/>
<polygon points="-744,42.6667 256,-957.333 1256,42.6667" style="fill:#000000; stroke:#000000;stroke-width:0"/>
<circle fill="#a64b00" stroke="#a64b00" stroke-width="0" cx="-86.6542" cy="61.9356" r="21.3333"/>
<circle fill="#a64b00" stroke="#a64b00" stroke-width="0" cx="-62.8627" cy="275.535" r="21.3333"/>
<circle fill="#a64b00" stroke="#a64b00" stroke-width="0" cx="719.978" cy="233.42" r="21.3333"/>
<circle fill="#a64b00" stroke="#a64b00" stroke-width="0" cx="515.616" cy="284.559" r="21.3333"/>
<circle fill="#a64b00" stroke="#a64b00" stroke-width="0" cx="352.285" cy="344.887" r="21.3333"/>
</svg>
