<?xml version="1.0" encoding="utf-8"?> <!-- Generator: Adobe Illustrator 13.0.0, SVG Export Plug-In . SVG Version: 6.00 Build 14948)  --> <svg version="1.2" baseProfile="tiny" id="Layer_1" xmlns="http://www.w3.org/2000/svg" xmlns:xlink="http://www.w3.org/1999/xlink" x="0px" y="0px" width="512px" height="512px" viewBox="0 0 512 512" xml:space="preserve">
<polygon points="0,0 512,0 512,512 0,512" style="fill:#ffffff; stroke:#000000;stroke-width:0"/>
<polygon points="-95.0215,175.186 -64.2675,145.612 80.8077,296.475 50.0537,326.049" style="fill:#006363; stroke:#000000;stroke-width:0"/>
<circle fill="#006363" stroke="#006363" stroke-width="0" cx="-79.6445" cy="160.399" r="21.3333"/>
<circle fill="#006363" stroke="#006363" stroke-width="0" cx="65.4307" cy="311.262" r="21.3333"/>
<polygon points="430.289,186.16 434.233,143.676 645.078,163.251 641.134,205.735" style="fill:#006363; stroke:#000000;stroke-width:0"/>
<circle fill="#006363" stroke="#006363" stroke-width="0" cx="432.261" cy="164.918" r="21.3333"/>
<circle fill="#006363" stroke="#006363" stroke-width="0" cx="643.106" cy="184.493" r="21.3333"/>
<polygon points="1256,469.333 256,1469.33 -744,469.333" style="fill:#000000; stroke:#000000;stroke-width:0"/>
<polygon points="-744,42.6667 256,-957.333 1256,42.6667" style="fill:#000000; stroke:#000000;stroke-width:0"/>
<circle fill="#a64b00" stroke="#a64b00" stroke-width="0" cx="-79.6445" cy="160.399" r="21.3333"/>
<circle fill="#a64b00" stroke="#a64b00" stroke-width="0" cx="65.4307" cy="311.262" r="21.3333"/>
<circle fill="#a64b00" stroke="#a64b00" stroke-width="0" cx="432.261" cy="164.918" r="21.3333"/>
<circle fill="#a64b00" stroke="#a64b00" stroke-width="0" cx="643.106" cy="184.493" r="21.3333"/>
<circle fill="#a64b00" stroke="#a64b00" stroke-width="0" cx="71.3046" cy="141.891" r="21.3333"/>
</svg>
