<?xml version="1.0" encoding="utf-8"?> <!-- Generator: Adobe Illustrator 13.0.0, SVG Export Plug-In . SVG Version: 6.00 Build 14948)  --> <svg version="1.2" baseProfile="tiny" id="Layer_1" xmlns="http://www.w3.org/2000/svg" xmlns:xlink="http://www.w3.org/1999/xlink" x="0px" y="0px" width="512px" height="512px" viewBox="0 0 512 512" xml:space="preserve">
<polygon points="0,0 512,0 512,512 0,512" style="fill:#ffffff; stroke:#000000;stroke-width:0"/>
<polygon points="-84.7369,173.465 -80.1631,215.886 -283.566,237.817 -288.139,195.396" style="fill:#006363; stroke:#000000;stroke-width:0"/>
<circle fill="#006363" stroke="#006363" stroke-width="0" cx="-82.45" cy="194.676" r="21.3333"/>
<circle fill="#006363" stroke="#006363" stroke-width="0" cx="-285.853" cy="216.606" r="21.3333"/>
<polygon points="743.035,294.656 701.83,283.586 758.312,73.3455 799.518,84.4156" style="fill:#006363; stroke:#000000;stroke-width:0"/>
<circle fill="#006363" stroke="#006363" stroke-width="0" cx="722.433" cy="289.121" r="21.3333"/>
<circle fill="#006363" stroke="#006363" stroke-width="0" cx="778.915" cy="78.8806" r="21.3333"/>
<polygon points="1256,469.333 256,1469.33 -744,469.333" style="fill:#000000; stroke:#000000;stroke-width:0"/>
<polygon points="-744,42.6667 256,-957.333 1256,42.6667" style="fill:#000000; stroke:#000000;stroke-width:0"/>
<circle fill="#a64b00" stroke="#a64b00" stroke-width="0" cx="-82.45" cy="194.676" r="21.3333"/>
<circle fill="#a64b00" stroke="#a64b00" stroke-width="0" cx="-285.853" cy="216.606" r="21.3333"/>
<circle fill="#a64b00" stroke="#a64b00" stroke-width="0" cx="722.433" cy="289.121" r="21.3333"/>
<circle fill="#a64b00" stroke="#a64b00" stroke-width="0" cx="778.915" cy="78.8806" r="21.3333"/>
<circle fill="#a64b00" stroke="#a64b00" stroke-width="0" cx="103.527" cy="411.671" r="21.3333"/>
</svg>
