<?xml version="1.0" encoding="utf-8"?> <!-- Generator: Adobe Illustrator 13.0.0, SVG Export Plug-In . SVG Version: 6.00 Build 14948)  --> <svg version="1.2" baseProfile="tiny" id="Layer_1" xmlns="http://www.w3.org/2000/svg" xmlns:xlink="http://www.w3.org/1999/xlink" x="0px" y="0px" width="512px" height="512px" viewBox="0 0 512 512" xml:space="preserve">
<polygon points="0,0 512,0 512,512 0,512" style="fill:#ffffff; stroke:#000000;stroke-width:0"/>
<polygon points="-144.549,216.354 -104.836,200.756 -26.4787,400.254 -66.1919,415.852" style="fill:#006363; stroke:#000000;stroke-width:0"/>
<circle fill="#006363" stroke="#006363" stroke-width="0" cx="-124.693" cy="208.555" r="21.3333"/>
<circle fill="#006363" stroke="#006363" stroke-width="0" cx="-46.3353" cy="408.053" r="21.3333"/>
<polygon points="689.747,182.052 720.283,211.852 571.976,363.823 541.44,334.024" style="fill:#006363; stroke:#000000;stroke-width:0"/>
<circle fill="#006363" stroke="#006363" stroke-width="0" cx="705.015" cy="196.952" r="21.3333"/>
<circle fill="#006363" stroke="#006363" stroke-width="0" cx="556.708" cy="348.924" r="21.3333"/>
<polygon points="1256,469.333 256,1469.33 -744,469.333" style="fill:#000000; stroke:#000000;stroke-width:0"/>
<polygon points="-744,42.6667 256,-957.333 1256,42.6667" style="fill:#000000; stroke:#000000;stroke-width:0"/>
<circle fill="#a64b00" stroke="#a64b00" stroke-width="0" cx="-124.693" cy="208.555" r="21.3333"/>
<circle fill="#a64b00" stroke="#a64b00" stroke-width="0" cx="-46.3353" cy="408.053" r="21.3333"/>
<circle fill="#a64b00" stroke="#a64b00" stroke-width="0" cx="705.015" cy="196.952" r="21.3333"/>
<circle fill="#a64b00" stroke="#a64b00" stroke-width="0" cx="556.708" cy="348.924" r="21.3333"/>
<circle fill="#a64b00" stroke="#a64b00" stroke-width="0" cx="327.827" cy="163.617" r="21.3333"/>
</svg>
