<?xml version="1.0" encoding="utf-8"?> <!-- Generator: Adobe Illustrator 13.0.0, SVG Export Plug-In . SVG Version: 6.00 Build 14948)  --> <svg version="1.2" baseProfile="tiny" id="Layer_1" xmlns="http://www.w3.org/2000/svg" xmlns:xlink="http://www.w3.org/1999/xlink" x="0px" y="0px" width="512px" height="512px" viewBox="0 0 512 512" xml:space="preserve">
<polygon points="0,0 512,0 512,512 0,512" style="fill:#ffffff; stroke:#000000;stroke-width:0"/>
<polygon points="-112.149,158.298 -111.612,200.961 -335.903,203.785 -336.44,161.122" style="fill:#006363; stroke:#000000;stroke-width:0"/>
<circle fill="#006363" stroke="#006363" stroke-width="0" cx="-111.88" cy="179.629" r="21.3333"/>
<circle fill="#006363" stroke="#006363" stroke-width="0" cx="-336.172" cy="182.454" r="21.3333"/>
<polygon points="755.574,420.643 720.932,395.736 842.643,226.457 877.285,251.364" style="fill:#006363; stroke:#000000;stroke-width:0"/>
<circle fill="#006363" stroke="#006363" stroke-width="0" cx="738.253" cy="408.189" r="21.3333"/>
<circle fill="#006363" stroke="#006363" stroke-width="0" cx="859.964" cy="238.91" r="21.3333"/>
<polygon points="1256,469.333 256,1469.33 -744,469.333" style="fill:#000000; stroke:#000000;stroke-width:0"/>
<polygon points="-744,42.6667 256,-957.333 1256,42.6667" style="fill:#000000; stroke:#000000;stroke-width:0"/>
<circle fill="#a64b00" stroke="#a64b00" stroke-width="0" cx="-111.88" cy="179.629" r="21.3333"/>
<circle fill="#a64b00" stroke="#a64b00" stroke-width="0" cx="-336.172" cy="182.454" r="21.3333"/>
<circle fill="#a64b00" stroke="#a64b00" stroke-width="0" cx="738.253" cy="408.189" r="21.3333"/>
<circle fill="#a64b00" stroke="#a64b00" stroke-width="0" cx="859.964" cy="238.91" r="21.3333"/>
<circle fill="#a64b00" stroke="#a64b00" stroke-width="0" cx="12.8527" cy="297.185" r="21.3333"/>
</svg>
