<?xml version="1.0" encoding="utf-8"?> <!-- Generator: Adobe Illustrator 13.0.0, SVG Export Plug-In . SVG Version: 6.00 Build 14948)  --> <svg version="1.2" baseProfile="tiny" id="Layer_1" xmlns="http://www.w3.org/2000/svg" xmlns:xlink="http://www.w3.org/1999/xlink" x="0px" y="0px" width="512px" height="512px" viewBox="0 0 512 512" xml:space="preserve">
<polygon points="0,0 512,0 512,512 0,512" style="fill:#ffffff; stroke:#000000;stroke-width:0"/>
<polygon points="-64.0982,366.264 -74.9951,407.516 -272.2,355.423 -261.303,314.171" style="fill:#006363; stroke:#000000;stroke-width:0"/>
<circle fill="#006363" stroke="#006363" stroke-width="0" cx="-69.5466" cy="386.89" r="21.3333"/>
<circle fill="#006363" stroke="#006363" stroke-width="0" cx="-266.751" cy="334.797" r="21.3333"/>
<polygon points="713.385,351.566 673.439,336.575 749.087,134.992 789.034,149.983" style="fill:#006363; stroke:#000000;stroke-width:0"/>
<circle fill="#006363" stroke="#006363" stroke-width="0" cx="693.412" cy="344.07" r="21.3333"/>
<circle fill="#006363" stroke="#006363" stroke-width="0" cx="769.06" cy="142.488" r="21.3333"/>
<polygon points="1256,469.333 256,1469.33 -744,469.333" style="fill:#000000; stroke:#000000;stroke-width:0"/>
<polygon points="-744,42.6667 256,-957.333 1256,42.6667" style="fill:#000000; stroke:#000000;stroke-width:0"/>
<circle fill="#a64b00" stroke="#a64b00" stroke-width="0" cx="-69.5466" cy="386.89" r="21.3333"/>
<circle fill="#a64b00" stroke="#a64b00" stroke-width="0" cx="-266.751" cy="334.797" r="21.3333"/>
<circle fill="#a64b00" stroke="#a64b00" stroke-width="0" cx="693.412" cy="344.07" r="21.3333"/>
<circle fill="#a64b00" stroke="#a64b00" stroke-width="0" cx="769.06" cy="142.488" r="21.3333"/>
<circle fill="#a64b00" stroke="#a64b00" stroke-width="0" cx="139.916" cy="287.644" r="21.3333"/>
</svg>
