<?xml version="1.0" encoding="utf-8"?> <!-- Generator: Adobe Illustrator 13.0.0, SVG Export Plug-In . SVG Version: 6.00 Build 14948)  --> <svg version="1.2" baseProfile="tiny" id="Layer_1" xmlns="http://www.w3.org/2000/svg" xmlns:xlink="http://www.w3.org/1999/xlink" x="0px" y="0px" width="512px" height="512px" viewBox="0 0 512 512" xml:space="preserve">
<polygon points="0,0 512,0 512,512 0,512" style="fill:#ffffff; stroke:#000000;stroke-width:0"/>
<polygon points="-107.334,111.851 -112.812,154.164 -319.206,127.446 -313.728,85.1325" style="fill:#006363; stroke:#000000;stroke-width:0"/>
<circle fill="#006363" stroke="#006363" stroke-width="0" cx="-110.073" cy="133.007" r="21.3333"/>
<circle fill="#006363" stroke="#006363" stroke-width="0" cx="-316.467" cy="106.289" r="21.3333"/>
<polygon points="749.523,391.293 712.625,369.869 822.565,180.524 859.463,201.948" style="fill:#006363; stroke:#000000;stroke-width:0"/>
<circle fill="#006363" stroke="#006363" stroke-width="0" cx="731.074" cy="380.581" r="21.3333"/>
<circle fill="#006363" stroke="#006363" stroke-width="0" cx="841.014" cy="191.236" r="21.3333"/>
<polygon points="1256,469.333 256,1469.33 -744,469.333" style="fill:#000000; stroke:#000000;stroke-width:0"/>
<polygon points="-744,42.6667 256,-957.333 1256,42.6667" style="fill:#000000; stroke:#000000;stroke-width:0"/>
<circle fill="#a64b00" stroke="#a64b00" stroke-width="0" cx="-110.073" cy="133.007" r="21.3333"/>
<circle fill="#a64b00" stroke="#a64b00" stroke-width="0" cx="-316.467" cy="106.289" r="21.3333"/>
<circle fill="#a64b00" stroke="#a64b00" stroke-width="0" cx="731.074" cy="380.581" r="21.3333"/>
<circle fill="#a64b00" stroke="#a64b00" stroke-width="0" cx="841.014" cy="191.236" r="21.3333"/>
<circle fill="#a64b00" stroke="#a64b00" stroke-width="0" cx="37.3109" cy="211.32" r="21.3333"/>
</svg>
