<?xml version="1.0" encoding="utf-8"?> <!-- Generator: Adobe Illustrator 13.0.0, SVG Export Plug-In . SVG Version: 6.00 Build 14948)  --> <svg version="1.2" baseProfile="tiny" id="Layer_1" xmlns="http://www.w3.org/2000/svg" xmlns:xlink="http://www.w3.org/1999/xlink" x="0px" y="0px" width="512px" height="512px" viewBox="0 0 512 512" xml:space="preserve">
<polygon points="0,0 512,0 512,512 0,512" style="fill:#ffffff; stroke:#000000;stroke-width:0"/>
<polygon points="-61.6163,348.271 -71.0724,389.876 -277.83,342.885 -268.374,301.279" style="fill:#006363; stroke:#000000;stroke-width:0"/>
<circle fill="#006363" stroke="#006363" stroke-width="0" cx="-66.3443" cy="369.073" r="21.3333"/>
<circle fill="#006363" stroke="#006363" stroke-width="0" cx="-273.102" cy="322.082" r="21.3333"/>
<polygon points="718.154,339.301 677.935,325.057 748.142,126.833 788.361,141.078" style="fill:#006363; stroke:#000000;stroke-width:0"/>
<circle fill="#006363" stroke="#006363" stroke-width="0" cx="698.044" cy="332.179" r="21.3333"/>
<circle fill="#006363" stroke="#006363" stroke-width="0" cx="768.251" cy="133.956" r="21.3333"/>
<polygon points="1256,469.333 256,1469.33 -744,469.333" style="fill:#000000; stroke:#000000;stroke-width:0"/>
<polygon points="-744,42.6667 256,-957.333 1256,42.6667" style="fill:#000000; stroke:#000000;stroke-width:0"/>
<circle fill="#a64b00" stroke="#a64b00" stroke-width="0" cx="-66.3443" cy="369.073" r="21.3333"/>
<circle fill="#a64b00" stroke="#a64b00" stroke-width="0" cx="-273.102" cy="322.082" r="21.3333"/>
<circle fill="#a64b00" stroke="#a64b00" stroke-width="0" cx="698.044" cy="332.179" r="21.3333"/>
<circle fill="#a64b00" stroke="#a64b00" stroke-width="0" cx="768.251" cy="133.956" r="21.3333"/>
<circle fill="#a64b00" stroke="#a64b00" stroke-width="0" cx="136.337" cy="230.401" r="21.3333"/>
</svg>
