<?xml version="1.0" encoding="utf-8"?> <!-- Generator: Adobe Illustrator 13.0.0, SVG Export Plug-In . SVG Version: 6.00 Build 14948)  --> <svg version="1.2" baseProfile="tiny" id="Layer_1" xmlns="http://www.w3.org/2000/svg" xmlns:xlink="http://www.w3.org/1999/xlink" x="0px" y="0px" width="512px" height="512px" viewBox="0 0 512 512" xml:space="preserve">
<polygon points="0,0 512,0 512,512 0,512" style="fill:#ffffff; stroke:#000000;stroke-width:0"/>
<polygon points="-100.962,248.996 -59.0596,240.955 -20.7478,440.599 -62.65,448.64" style="fill:#006363; stroke:#000000;stroke-width:0"/>
<circle fill="#006363" stroke="#006363" stroke-width="0" cx="-80.0107" cy="244.975" r="21.3333"/>
<circle fill="#006363" stroke="#006363" stroke-width="0" cx="-41.6989" cy="444.62" r="21.3333"/>
<polygon points="704.279,269.565 684.948,307.601 497.538,212.352 516.87,174.316" style="fill:#006363; stroke:#000000;stroke-width:0"/>
<circle fill="#006363" stroke="#006363" stroke-width="0" cx="694.613" cy="288.583" r="21.3333"/>
<circle fill="#006363" stroke="#006363" stroke-width="0" cx="507.204" cy="193.334" r="21.3333"/>
<polygon points="1256,469.333 256,1469.33 -744,469.333" style="fill:#000000; stroke:#000000;stroke-width:0"/>
<polygon points="-744,42.6667 256,-957.333 1256,42.6667" style="fill:#000000; stroke:#000000;stroke-width:0"/>
<circle fill="#a64b00" stroke="#a64b00" stroke-width="0" cx="-80.0107" cy="244.975" r="21.3333"/>
<circle fill="#a64b00" stroke="#a64b00" stroke-width="0" cx="-41.6989" cy="444.62" r="21.3333"/>
<circle fill="#a64b00" stroke="#a64b00" stroke-width="0" cx="694.613" cy="288.583" r="21.3333"/>
<circle fill="#a64b00" stroke="#a64b00" stroke-width="0" cx="507.204" cy="193.334" r="21.3333"/>
<circle fill="#a64b00" stroke="#a64b00" stroke-width="0" cx="383.902" cy="278.104" r="21.3333"/>
</svg>
