<?xml version="1.0" encoding="utf-8"?> <!-- Generator: Adobe Illustrator 13.0.0, SVG Export Plug-In . SVG Version: 6.00 Build 14948)  --> <svg version="1.2" baseProfile="tiny" id="Layer_1" xmlns="http://www.w3.org/2000/svg" xmlns:xlink="http://www.w3.org/1999/xlink" x="0px" y="0px" width="512px" height="512px" viewBox="0 0 512 512" xml:space="preserve">
<polygon points="0,0 512,0 512,512 0,512" style="fill:#ffffff; stroke:#000000;stroke-width:0"/>
<polygon points="-393.28,172.49 -404.387,131.294 -202.203,76.7794 -191.096,117.975" style="fill:#006363; stroke:#000000;stroke-width:0"/>
<circle fill="#006363" stroke="#006363" stroke-width="0" cx="-398.833" cy="151.892" r="21.3333"/>
<circle fill="#006363" stroke="#006363" stroke-width="0" cx="-196.65" cy="97.3771" r="21.3333"/>
<polygon points="843.159,228.101 884.745,218.561 934.138,433.865 892.552,443.406" style="fill:#006363; stroke:#000000;stroke-width:0"/>
<circle fill="#006363" stroke="#006363" stroke-width="0" cx="863.952" cy="223.331" r="21.3333"/>
<circle fill="#006363" stroke="#006363" stroke-width="0" cx="913.345" cy="438.636" r="21.3333"/>
<polygon points="1256,469.333 256,1469.33 -744,469.333" style="fill:#000000; stroke:#000000;stroke-width:0"/>
<polygon points="-744,42.6667 256,-957.333 1256,42.6667" style="fill:#000000; stroke:#000000;stroke-width:0"/>
<circle fill="#a64b00" stroke="#a64b00" stroke-width="0" cx="-398.833" cy="151.892" r="21.3333"/>
<circle fill="#a64b00" stroke="#a64b00" stroke-width="0" cx="-196.65" cy="97.3771" r="21.3333"/>
<circle fill="#a64b00" stroke="#a64b00" stroke-width="0" cx="863.952" cy="223.331" r="21.3333"/>
<circle fill="#a64b00" stroke="#a64b00" stroke-width="0" cx="913.345" cy="438.636" r="21.3333"/>
<circle fill="#a64b00" stroke="#a64b00" stroke-width="0" cx="-154.776" cy="268.563" r="21.3333"/>
</svg>
