<?xml version="1.0" encoding="utf-8"?> <!-- Generator: Adobe Illustrator 13.0.0, SVG Export Plug-In . SVG Version: 6.00 Build 14948)  --> <svg version="1.2" baseProfile="tiny" id="Layer_1" xmlns="http://www.w3.org/2000/svg" xmlns:xlink="http://www.w3.org/1999/xlink" x="0px" y="0px" width="512px" height="512px" viewBox="0 0 512 512" xml:space="preserve">
<polygon points="0,0 512,0 512,512 0,512" style="fill:#ffffff; stroke:#000000;stroke-width:0"/>
<polygon points="-133.084,90.218 -134.337,47.5698 78.5316,41.3153 79.7846,83.9636" style="fill:#006363; stroke:#000000;stroke-width:0"/>
<circle fill="#006363" stroke="#006363" stroke-width="0" cx="-133.71" cy="68.8939" r="21.3333"/>
<circle fill="#006363" stroke="#006363" stroke-width="0" cx="79.1581" cy="62.6395" r="21.3333"/>
<polygon points="514.875,296.428 480.296,271.434 605.368,98.395 639.947,123.389" style="fill:#006363; stroke:#000000;stroke-width:0"/>
<circle fill="#006363" stroke="#006363" stroke-width="0" cx="497.586" cy="283.931" r="21.3333"/>
<circle fill="#006363" stroke="#006363" stroke-width="0" cx="622.658" cy="110.892" r="21.3333"/>
<polygon points="1256,469.333 256,1469.33 -744,469.333" style="fill:#000000; stroke:#000000;stroke-width:0"/>
<polygon points="-744,42.6667 256,-957.333 1256,42.6667" style="fill:#000000; stroke:#000000;stroke-width:0"/>
<circle fill="#a64b00" stroke="#a64b00" stroke-width="0" cx="-133.71" cy="68.8939" r="21.3333"/>
<circle fill="#a64b00" stroke="#a64b00" stroke-width="0" cx="79.1581" cy="62.6395" r="21.3333"/>
<circle fill="#a64b00" stroke="#a64b00" stroke-width="0" cx="497.586" cy="283.931" r="21.3333"/>
<circle fill="#a64b00" stroke="#a64b00" stroke-width="0" cx="622.658" cy="110.892" r="21.3333"/>
<circle fill="#a64b00" stroke="#a64b00" stroke-width="0" cx="460.259" cy="182.698" r="21.3333"/>
</svg>
