<?xml version="1.0" encoding="utf-8"?> <!-- Generator: Adobe Illustrator 13.0.0, SVG Export Plug-In . SVG Version: 6.00 Build 14948)  --> <svg version="1.2" baseProfile="tiny" id="Layer_1" xmlns="http://www.w3.org/2000/svg" xmlns:xlink="http://www.w3.org/1999/xlink" x="0px" y="0px" width="512px" height="512px" viewBox="0 0 512 512" xml:space="preserve">
<polygon points="0,0 512,0 512,512 0,512" style="fill:#ffffff; stroke:#000000;stroke-width:0"/>
<polygon points="18.986,194.769 61.6509,194.38 63.6252,410.831 20.9603,411.22" style="fill:#006363; stroke:#000000;stroke-width:0"/>
<circle fill="#006363" stroke="#006363" stroke-width="0" cx="40.3185" cy="194.575" r="21.3333"/>
<circle fill="#006363" stroke="#006363" stroke-width="0" cx="42.2927" cy="411.025" r="21.3333"/>
<polygon points="450.664,94.9076 493.321,94.0121 497.763,305.594 455.105,306.49" style="fill:#006363; stroke:#000000;stroke-width:0"/>
<circle fill="#006363" stroke="#006363" stroke-width="0" cx="471.992" cy="94.4598" r="21.3333"/>
<circle fill="#006363" stroke="#006363" stroke-width="0" cx="476.434" cy="306.042" r="21.3333"/>
<polygon points="1256,469.333 256,1469.33 -744,469.333" style="fill:#000000; stroke:#000000;stroke-width:0"/>
<polygon points="-744,42.6667 256,-957.333 1256,42.6667" style="fill:#000000; stroke:#000000;stroke-width:0"/>
<circle fill="#a64b00" stroke="#a64b00" stroke-width="0" cx="40.3185" cy="194.575" r="21.3333"/>
<circle fill="#a64b00" stroke="#a64b00" stroke-width="0" cx="42.2927" cy="411.025" r="21.3333"/>
<circle fill="#a64b00" stroke="#a64b00" stroke-width="0" cx="471.992" cy="94.4598" r="21.3333"/>
<circle fill="#a64b00" stroke="#a64b00" stroke-width="0" cx="476.434" cy="306.042" r="21.3333"/>
<circle fill="#a64b00" stroke="#a64b00" stroke-width="0" cx="213.595" cy="256" r="21.3333"/>
</svg>
