<?xml version="1.0" encoding="utf-8"?> <!-- Generator: Adobe Illustrator 13.0.0, SVG Export Plug-In . SVG Version: 6.00 Build 14948)  --> <svg version="1.2" baseProfile="tiny" id="Layer_1" xmlns="http://www.w3.org/2000/svg" xmlns:xlink="http://www.w3.org/1999/xlink" x="0px" y="0px" width="512px" height="512px" viewBox="0 0 512 512" xml:space="preserve">
<polygon points="0,0 512,0 512,512 0,512" style="fill:#ffffff; stroke:#000000;stroke-width:0"/>
<polygon points="-42.5513,238.786 -1.31945,227.815 52.0158,428.248 10.784,439.22" style="fill:#006363; stroke:#000000;stroke-width:0"/>
<circle fill="#006363" stroke="#006363" stroke-width="0" cx="-21.9354" cy="233.3" r="21.3333"/>
<circle fill="#006363" stroke="#006363" stroke-width="0" cx="31.3999" cy="433.734" r="21.3333"/>
<polygon points="435.23,91.8826 467.464,63.9293 608.744,226.847 576.51,254.8" style="fill:#006363; stroke:#000000;stroke-width:0"/>
<circle fill="#006363" stroke="#006363" stroke-width="0" cx="451.347" cy="77.906" r="21.3333"/>
<circle fill="#006363" stroke="#006363" stroke-width="0" cx="592.627" cy="240.823" r="21.3333"/>
<polygon points="1256,469.333 256,1469.33 -744,469.333" style="fill:#000000; stroke:#000000;stroke-width:0"/>
<polygon points="-744,42.6667 256,-957.333 1256,42.6667" style="fill:#000000; stroke:#000000;stroke-width:0"/>
<circle fill="#a64b00" stroke="#a64b00" stroke-width="0" cx="-21.9354" cy="233.3" r="21.3333"/>
<circle fill="#a64b00" stroke="#a64b00" stroke-width="0" cx="31.3999" cy="433.734" r="21.3333"/>
<circle fill="#a64b00" stroke="#a64b00" stroke-width="0" cx="451.347" cy="77.906" r="21.3333"/>
<circle fill="#a64b00" stroke="#a64b00" stroke-width="0" cx="592.627" cy="240.823" r="21.3333"/>
<circle fill="#a64b00" stroke="#a64b00" stroke-width="0" cx="213.468" cy="429.03" r="21.3333"/>
</svg>
