<?xml version="1.0" encoding="utf-8"?> <!-- Generator: Adobe Illustrator 13.0.0, SVG Export Plug-In . SVG Version: 6.00 Build 14948)  --> <svg version="1.2" baseProfile="tiny" id="Layer_1" xmlns="http://www.w3.org/2000/svg" xmlns:xlink="http://www.w3.org/1999/xlink" x="0px" y="0px" width="512px" height="512px" viewBox="0 0 512 512" xml:space="preserve">
<polygon points="0,0 512,0 512,512 0,512" style="fill:#ffffff; stroke:#000000;stroke-width:0"/>
<polygon points="-103.088,111.247 -108.712,153.541 -322.928,125.055 -317.304,82.7607" style="fill:#006363; stroke:#000000;stroke-width:0"/>
<circle fill="#006363" stroke="#006363" stroke-width="0" cx="-105.9" cy="132.394" r="21.3333"/>
<circle fill="#006363" stroke="#006363" stroke-width="0" cx="-320.116" cy="103.908" r="21.3333"/>
<polygon points="750.416,388.778 713.469,367.439 821.034,181.202 857.981,202.542" style="fill:#006363; stroke:#000000;stroke-width:0"/>
<circle fill="#006363" stroke="#006363" stroke-width="0" cx="731.942" cy="378.108" r="21.3333"/>
<circle fill="#006363" stroke="#006363" stroke-width="0" cx="839.508" cy="191.872" r="21.3333"/>
<polygon points="1256,469.333 256,1469.33 -744,469.333" style="fill:#000000; stroke:#000000;stroke-width:0"/>
<polygon points="-744,42.6667 256,-957.333 1256,42.6667" style="fill:#000000; stroke:#000000;stroke-width:0"/>
<circle fill="#a64b00" stroke="#a64b00" stroke-width="0" cx="-105.9" cy="132.394" r="21.3333"/>
<circle fill="#a64b00" stroke="#a64b00" stroke-width="0" cx="-320.116" cy="103.908" r="21.3333"/>
<circle fill="#a64b00" stroke="#a64b00" stroke-width="0" cx="731.942" cy="378.108" r="21.3333"/>
<circle fill="#a64b00" stroke="#a64b00" stroke-width="0" cx="839.508" cy="191.872" r="21.3333"/>
<circle fill="#a64b00" stroke="#a64b00" stroke-width="0" cx="37.9075" cy="220.861" r="21.3333"/>
</svg>
