<?xml version="1.0" encoding="utf-8"?> <!-- Generator: Adobe Illustrator 13.0.0, SVG Export Plug-In . SVG Version: 6.00 Build 14948)  --> <svg version="1.2" baseProfile="tiny" id="Layer_1" xmlns="http://www.w3.org/2000/svg" xmlns:xlink="http://www.w3.org/1999/xlink" x="0px" y="0px" width="512px" height="512px" viewBox="0 0 512 512" xml:space="preserve">
<polygon points="0,0 512,0 512,512 0,512" style="fill:#ffffff; stroke:#000000;stroke-width:0"/>
<polygon points="-191.934,183.821 -150.607,173.212 -98.7182,375.342 -140.045,385.951" style="fill:#006363; stroke:#000000;stroke-width:0"/>
<circle fill="#006363" stroke="#006363" stroke-width="0" cx="-171.27" cy="178.517" r="21.3333"/>
<circle fill="#006363" stroke="#006363" stroke-width="0" cx="-119.382" cy="380.646" r="21.3333"/>
<polygon points="639.624,436.722 611.078,405.011 767.404,264.289 795.949,296" style="fill:#006363; stroke:#000000;stroke-width:0"/>
<circle fill="#006363" stroke="#006363" stroke-width="0" cx="625.351" cy="420.867" r="21.3333"/>
<circle fill="#006363" stroke="#006363" stroke-width="0" cx="781.676" cy="280.144" r="21.3333"/>
<polygon points="1256,469.333 256,1469.33 -744,469.333" style="fill:#000000; stroke:#000000;stroke-width:0"/>
<polygon points="-744,42.6667 256,-957.333 1256,42.6667" style="fill:#000000; stroke:#000000;stroke-width:0"/>
<circle fill="#a64b00" stroke="#a64b00" stroke-width="0" cx="-171.27" cy="178.517" r="21.3333"/>
<circle fill="#a64b00" stroke="#a64b00" stroke-width="0" cx="-119.382" cy="380.646" r="21.3333"/>
<circle fill="#a64b00" stroke="#a64b00" stroke-width="0" cx="625.351" cy="420.867" r="21.3333"/>
<circle fill="#a64b00" stroke="#a64b00" stroke-width="0" cx="781.676" cy="280.144" r="21.3333"/>
<circle fill="#a64b00" stroke="#a64b00" stroke-width="0" cx="191.815" cy="335.347" r="21.3333"/>
</svg>
