<?xml version="1.0" encoding="utf-8"?> <!-- Generator: Adobe Illustrator 13.0.0, SVG Export Plug-In . SVG Version: 6.00 Build 14948)  --> <svg version="1.2" baseProfile="tiny" id="Layer_1" xmlns="http://www.w3.org/2000/svg" xmlns:xlink="http://www.w3.org/1999/xlink" x="0px" y="0px" width="512px" height="512px" viewBox="0 0 512 512" xml:space="preserve">
<polygon points="0,0 512,0 512,512 0,512" style="fill:#ffffff; stroke:#000000;stroke-width:0"/>
<polygon points="-410.706,80.1883 -400.73,38.7043 -195.95,87.9489 -205.926,129.433" style="fill:#006363; stroke:#000000;stroke-width:0"/>
<circle fill="#006363" stroke="#006363" stroke-width="0" cx="-405.718" cy="59.4463" r="21.3333"/>
<circle fill="#006363" stroke="#006363" stroke-width="0" cx="-200.938" cy="108.691" r="21.3333"/>
<polygon points="869.498,223.431 912.131,221.729 920.545,432.43 877.912,434.133" style="fill:#006363; stroke:#000000;stroke-width:0"/>
<circle fill="#006363" stroke="#006363" stroke-width="0" cx="890.815" cy="222.58" r="21.3333"/>
<circle fill="#006363" stroke="#006363" stroke-width="0" cx="899.228" cy="433.281" r="21.3333"/>
<polygon points="1256,469.333 256,1469.33 -744,469.333" style="fill:#000000; stroke:#000000;stroke-width:0"/>
<polygon points="-744,42.6667 256,-957.333 1256,42.6667" style="fill:#000000; stroke:#000000;stroke-width:0"/>
<circle fill="#a64b00" stroke="#a64b00" stroke-width="0" cx="-405.718" cy="59.4463" r="21.3333"/>
<circle fill="#a64b00" stroke="#a64b00" stroke-width="0" cx="-200.938" cy="108.691" r="21.3333"/>
<circle fill="#a64b00" stroke="#a64b00" stroke-width="0" cx="890.815" cy="222.58" r="21.3333"/>
<circle fill="#a64b00" stroke="#a64b00" stroke-width="0" cx="899.228" cy="433.281" r="21.3333"/>
<circle fill="#a64b00" stroke="#a64b00" stroke-width="0" cx="-98.8046" cy="145.978" r="21.3333"/>
</svg>
