<?xml version="1.0" encoding="utf-8"?> <!-- Generator: Adobe Illustrator 13.0.0, SVG Export Plug-In . SVG Version: 6.00 Build 14948)  --> <svg version="1.2" baseProfile="tiny" id="Layer_1" xmlns="http://www.w3.org/2000/svg" xmlns:xlink="http://www.w3.org/1999/xlink" x="0px" y="0px" width="512px" height="512px" viewBox="0 0 512 512" xml:space="preserve">
<polygon points="0,0 512,0 512,512 0,512" style="fill:#ffffff; stroke:#000000;stroke-width:0"/>
<polygon points="-36.3338,205.985 5.22845,196.34 55.0289,410.948 13.4666,420.593" style="fill:#006363; stroke:#000000;stroke-width:0"/>
<circle fill="#006363" stroke="#006363" stroke-width="0" cx="-15.5527" cy="201.162" r="21.3333"/>
<circle fill="#006363" stroke="#006363" stroke-width="0" cx="34.2477" cy="415.77" r="21.3333"/>
<polygon points="446.428,87.0044 483.943,66.6785 585.308,253.761 547.794,274.087" style="fill:#006363; stroke:#000000;stroke-width:0"/>
<circle fill="#006363" stroke="#006363" stroke-width="0" cx="465.185" cy="76.8414" r="21.3333"/>
<circle fill="#006363" stroke="#006363" stroke-width="0" cx="566.551" cy="263.924" r="21.3333"/>
<polygon points="1256,469.333 256,1469.33 -744,469.333" style="fill:#000000; stroke:#000000;stroke-width:0"/>
<polygon points="-744,42.6667 256,-957.333 1256,42.6667" style="fill:#000000; stroke:#000000;stroke-width:0"/>
<circle fill="#a64b00" stroke="#a64b00" stroke-width="0" cx="-15.5527" cy="201.162" r="21.3333"/>
<circle fill="#a64b00" stroke="#a64b00" stroke-width="0" cx="34.2477" cy="415.77" r="21.3333"/>
<circle fill="#a64b00" stroke="#a64b00" stroke-width="0" cx="465.185" cy="76.8414" r="21.3333"/>
<circle fill="#a64b00" stroke="#a64b00" stroke-width="0" cx="566.551" cy="263.924" r="21.3333"/>
<circle fill="#a64b00" stroke="#a64b00" stroke-width="0" cx="268.888" cy="297.101" r="21.3333"/>
</svg>
