<?xml version="1.0" encoding="utf-8"?> <!-- Generator: Adobe Illustrator 13.0.0, SVG Export Plug-In . SVG Version: 6.00 Build 14948)  --> <svg version="1.2" baseProfile="tiny" id="Layer_1" xmlns="http://www.w3.org/2000/svg" xmlns:xlink="http://www.w3.org/1999/xlink" x="0px" y="0px" width="512px" height="512px" viewBox="0 0 512 512" xml:space="preserve">
<polygon points="0,0 512,0 512,512 0,512" style="fill:#ffffff; stroke:#000000;stroke-width:0"/>
<polygon points="-289.493,423.518 -330.904,433.794 -380.945,232.119 -339.534,221.844" style="fill:#006363; stroke:#000000;stroke-width:0"/>
<circle fill="#006363" stroke="#006363" stroke-width="0" cx="-310.199" cy="428.656" r="21.3333"/>
<circle fill="#006363" stroke="#006363" stroke-width="0" cx="-360.24" cy="226.981" r="21.3333"/>
<polygon points="998.112,228.771 1024.94,261.944 856.913,397.855 830.081,364.681" style="fill:#006363; stroke:#000000;stroke-width:0"/>
<circle fill="#006363" stroke="#006363" stroke-width="0" cx="1011.53" cy="245.357" r="21.3333"/>
<circle fill="#006363" stroke="#006363" stroke-width="0" cx="843.497" cy="381.268" r="21.3333"/>
<polygon points="1256,469.333 256,1469.33 -744,469.333" style="fill:#000000; stroke:#000000;stroke-width:0"/>
<polygon points="-744,42.6667 256,-957.333 1256,42.6667" style="fill:#000000; stroke:#000000;stroke-width:0"/>
<circle fill="#a64b00" stroke="#a64b00" stroke-width="0" cx="-310.199" cy="428.656" r="21.3333"/>
<circle fill="#a64b00" stroke="#a64b00" stroke-width="0" cx="-360.24" cy="226.981" r="21.3333"/>
<circle fill="#a64b00" stroke="#a64b00" stroke-width="0" cx="1011.53" cy="245.357" r="21.3333"/>
<circle fill="#a64b00" stroke="#a64b00" stroke-width="0" cx="843.497" cy="381.268" r="21.3333"/>
<circle fill="#a64b00" stroke="#a64b00" stroke-width="0" cx="848.006" cy="199.942" r="21.3333"/>
</svg>
