<?xml version="1.0" encoding="utf-8"?> <!-- Generator: Adobe Illustrator 13.0.0, SVG Export Plug-In . SVG Version: 6.00 Build 14948)  --> <svg version="1.2" baseProfile="tiny" id="Layer_1" xmlns="http://www.w3.org/2000/svg" xmlns:xlink="http://www.w3.org/1999/xlink" x="0px" y="0px" width="512px" height="512px" viewBox="0 0 512 512" xml:space="preserve">
<polygon points="0,0 512,0 512,512 0,512" style="fill:#ffffff; stroke:#000000;stroke-width:0"/>
<polygon points="-77.2643,203.621 -41.3733,180.55 70.6757,354.86 34.7847,377.931" style="fill:#006363; stroke:#000000;stroke-width:0"/>
<circle fill="#006363" stroke="#006363" stroke-width="0" cx="-59.3188" cy="192.085" r="21.3333"/>
<circle fill="#006363" stroke="#006363" stroke-width="0" cx="52.7302" cy="366.396" r="21.3333"/>
<polygon points="426.396,154.922 440.586,114.684 638.862,184.609 624.671,224.846" style="fill:#006363; stroke:#000000;stroke-width:0"/>
<circle fill="#006363" stroke="#006363" stroke-width="0" cx="433.491" cy="134.803" r="21.3333"/>
<circle fill="#006363" stroke="#006363" stroke-width="0" cx="631.767" cy="204.727" r="21.3333"/>
<polygon points="1256,469.333 256,1469.33 -744,469.333" style="fill:#000000; stroke:#000000;stroke-width:0"/>
<polygon points="-744,42.6667 256,-957.333 1256,42.6667" style="fill:#000000; stroke:#000000;stroke-width:0"/>
<circle fill="#a64b00" stroke="#a64b00" stroke-width="0" cx="-59.3188" cy="192.085" r="21.3333"/>
<circle fill="#a64b00" stroke="#a64b00" stroke-width="0" cx="52.7302" cy="366.396" r="21.3333"/>
<circle fill="#a64b00" stroke="#a64b00" stroke-width="0" cx="433.491" cy="134.803" r="21.3333"/>
<circle fill="#a64b00" stroke="#a64b00" stroke-width="0" cx="631.767" cy="204.727" r="21.3333"/>
<circle fill="#a64b00" stroke="#a64b00" stroke-width="0" cx="117.086" cy="118.61" r="21.3333"/>
</svg>
