<?xml version="1.0" encoding="utf-8"?> <!-- Generator: Adobe Illustrator 13.0.0, SVG Export Plug-In . SVG Version: 6.00 Build 14948)  --> <svg version="1.2" baseProfile="tiny" id="Layer_1" xmlns="http://www.w3.org/2000/svg" xmlns:xlink="http://www.w3.org/1999/xlink" x="0px" y="0px" width="512px" height="512px" viewBox="0 0 512 512" xml:space="preserve">
<polygon points="0,0 512,0 512,512 0,512" style="fill:#ffffff; stroke:#000000;stroke-width:0"/>
<polygon points="-412.746,126.302 -410.546,83.692 -199.65,94.5791 -201.85,137.189" style="fill:#006363; stroke:#000000;stroke-width:0"/>
<circle fill="#006363" stroke="#006363" stroke-width="0" cx="-411.646" cy="104.997" r="21.3333"/>
<circle fill="#006363" stroke="#006363" stroke-width="0" cx="-200.75" cy="115.884" r="21.3333"/>
<polygon points="881.187,221.039 923.812,222.918 914.592,432.075 871.967,430.196" style="fill:#006363; stroke:#000000;stroke-width:0"/>
<circle fill="#006363" stroke="#006363" stroke-width="0" cx="902.5" cy="221.978" r="21.3333"/>
<circle fill="#006363" stroke="#006363" stroke-width="0" cx="893.279" cy="431.136" r="21.3333"/>
<polygon points="1256,469.333 256,1469.33 -744,469.333" style="fill:#000000; stroke:#000000;stroke-width:0"/>
<polygon points="-744,42.6667 256,-957.333 1256,42.6667" style="fill:#000000; stroke:#000000;stroke-width:0"/>
<circle fill="#a64b00" stroke="#a64b00" stroke-width="0" cx="-411.646" cy="104.997" r="21.3333"/>
<circle fill="#a64b00" stroke="#a64b00" stroke-width="0" cx="-200.75" cy="115.884" r="21.3333"/>
<circle fill="#a64b00" stroke="#a64b00" stroke-width="0" cx="902.5" cy="221.978" r="21.3333"/>
<circle fill="#a64b00" stroke="#a64b00" stroke-width="0" cx="893.279" cy="431.136" r="21.3333"/>
<circle fill="#a64b00" stroke="#a64b00" stroke-width="0" cx="-2.32086" cy="162.451" r="21.3333"/>
</svg>
