<?xml version="1.0" encoding="utf-8"?> <!-- Generator: Adobe Illustrator 13.0.0, SVG Export Plug-In . SVG Version: 6.00 Build 14948)  --> <svg version="1.2" baseProfile="tiny" id="Layer_1" xmlns="http://www.w3.org/2000/svg" xmlns:xlink="http://www.w3.org/1999/xlink" x="0px" y="0px" width="512px" height="512px" viewBox="0 0 512 512" xml:space="preserve">
<polygon points="0,0 512,0 512,512 0,512" style="fill:#ffffff; stroke:#000000;stroke-width:0"/>
<polygon points="-143.3,111.463 -134.733,69.6658 77.7301,113.213 69.1631,155.011" style="fill:#006363; stroke:#000000;stroke-width:0"/>
<circle fill="#006363" stroke="#006363" stroke-width="0" cx="-139.017" cy="90.5646" r="21.3333"/>
<circle fill="#006363" stroke="#006363" stroke-width="0" cx="73.4466" cy="134.112" r="21.3333"/>
<polygon points="550.706,312.924 510.532,298.553 582.92,96.188 623.094,110.559" style="fill:#006363; stroke:#000000;stroke-width:0"/>
<circle fill="#006363" stroke="#006363" stroke-width="0" cx="530.619" cy="305.739" r="21.3333"/>
<circle fill="#006363" stroke="#006363" stroke-width="0" cx="603.007" cy="103.373" r="21.3333"/>
<polygon points="1256,469.333 256,1469.33 -744,469.333" style="fill:#000000; stroke:#000000;stroke-width:0"/>
<polygon points="-744,42.6667 256,-957.333 1256,42.6667" style="fill:#000000; stroke:#000000;stroke-width:0"/>
<circle fill="#a64b00" stroke="#a64b00" stroke-width="0" cx="-139.017" cy="90.5646" r="21.3333"/>
<circle fill="#a64b00" stroke="#a64b00" stroke-width="0" cx="73.4466" cy="134.112" r="21.3333"/>
<circle fill="#a64b00" stroke="#a64b00" stroke-width="0" cx="530.619" cy="305.739" r="21.3333"/>
<circle fill="#a64b00" stroke="#a64b00" stroke-width="0" cx="603.007" cy="103.373" r="21.3333"/>
<circle fill="#a64b00" stroke="#a64b00" stroke-width="0" cx="447.732" cy="383.049" r="21.3333"/>
</svg>
