<?xml version="1.0" encoding="utf-8"?> <!-- Generator: Adobe Illustrator 13.0.0, SVG Export Plug-In . SVG Version: 6.00 Build 14948)  --> <svg version="1.2" baseProfile="tiny" id="Layer_1" xmlns="http://www.w3.org/2000/svg" xmlns:xlink="http://www.w3.org/1999/xlink" x="0px" y="0px" width="512px" height="512px" viewBox="0 0 512 512" xml:space="preserve">
<polygon points="0,0 512,0 512,512 0,512" style="fill:#ffffff; stroke:#000000;stroke-width:0"/>
<polygon points="-207.822,338.24 -192.655,298.361 13.1838,376.646 -1.98347,416.526" style="fill:#006363; stroke:#000000;stroke-width:0"/>
<circle fill="#006363" stroke="#006363" stroke-width="0" cx="-200.238" cy="318.3" r="21.3333"/>
<circle fill="#006363" stroke="#006363" stroke-width="0" cx="5.60015" cy="396.586" r="21.3333"/>
<polygon points="641.486,181.053 683.569,188.086 648.916,395.442 606.833,388.409" style="fill:#006363; stroke:#000000;stroke-width:0"/>
<circle fill="#006363" stroke="#006363" stroke-width="0" cx="662.527" cy="184.57" r="21.3333"/>
<circle fill="#006363" stroke="#006363" stroke-width="0" cx="627.874" cy="391.925" r="21.3333"/>
<polygon points="1256,469.333 256,1469.33 -744,469.333" style="fill:#000000; stroke:#000000;stroke-width:0"/>
<polygon points="-744,42.6667 256,-957.333 1256,42.6667" style="fill:#000000; stroke:#000000;stroke-width:0"/>
<circle fill="#a64b00" stroke="#a64b00" stroke-width="0" cx="-200.238" cy="318.3" r="21.3333"/>
<circle fill="#a64b00" stroke="#a64b00" stroke-width="0" cx="5.60015" cy="396.586" r="21.3333"/>
<circle fill="#a64b00" stroke="#a64b00" stroke-width="0" cx="662.527" cy="184.57" r="21.3333"/>
<circle fill="#a64b00" stroke="#a64b00" stroke-width="0" cx="627.874" cy="391.925" r="21.3333"/>
<circle fill="#a64b00" stroke="#a64b00" stroke-width="0" cx="300.982" cy="383.049" r="21.3333"/>
</svg>
