<?xml version="1.0" encoding="utf-8"?> <!-- Generator: Adobe Illustrator 13.0.0, SVG Export Plug-In . SVG Version: 6.00 Build 14948)  --> <svg version="1.2" baseProfile="tiny" id="Layer_1" xmlns="http://www.w3.org/2000/svg" xmlns:xlink="http://www.w3.org/1999/xlink" x="0px" y="0px" width="512px" height="512px" viewBox="0 0 512 512" xml:space="preserve">
<polygon points="0,0 512,0 512,512 0,512" style="fill:#ffffff; stroke:#000000;stroke-width:0"/>
<polygon points="-102.069,75.2552 -106.195,117.722 -307.158,98.1945 -303.031,55.7278" style="fill:#006363; stroke:#000000;stroke-width:0"/>
<circle fill="#006363" stroke="#006363" stroke-width="0" cx="-104.132" cy="96.4885" r="21.3333"/>
<circle fill="#006363" stroke="#006363" stroke-width="0" cx="-305.095" cy="76.9611" r="21.3333"/>
<polygon points="747.478,363.344 709.014,344.881 803.578,147.878 842.043,166.342" style="fill:#006363; stroke:#000000;stroke-width:0"/>
<circle fill="#006363" stroke="#006363" stroke-width="0" cx="728.246" cy="354.112" r="21.3333"/>
<circle fill="#006363" stroke="#006363" stroke-width="0" cx="822.81" cy="157.11" r="21.3333"/>
<polygon points="1256,469.333 256,1469.33 -744,469.333" style="fill:#000000; stroke:#000000;stroke-width:0"/>
<polygon points="-744,42.6667 256,-957.333 1256,42.6667" style="fill:#000000; stroke:#000000;stroke-width:0"/>
<circle fill="#a64b00" stroke="#a64b00" stroke-width="0" cx="-104.132" cy="96.4885" r="21.3333"/>
<circle fill="#a64b00" stroke="#a64b00" stroke-width="0" cx="-305.095" cy="76.9611" r="21.3333"/>
<circle fill="#a64b00" stroke="#a64b00" stroke-width="0" cx="728.246" cy="354.112" r="21.3333"/>
<circle fill="#a64b00" stroke="#a64b00" stroke-width="0" cx="822.81" cy="157.11" r="21.3333"/>
<circle fill="#a64b00" stroke="#a64b00" stroke-width="0" cx="56.9968" cy="373.509" r="21.3333"/>
</svg>
