<?xml version="1.0" encoding="utf-8"?> <!-- Generator: Adobe Illustrator 13.0.0, SVG Export Plug-In . SVG Version: 6.00 Build 14948)  --> <svg version="1.2" baseProfile="tiny" id="Layer_1" xmlns="http://www.w3.org/2000/svg" xmlns:xlink="http://www.w3.org/1999/xlink" x="0px" y="0px" width="512px" height="512px" viewBox="0 0 512 512" xml:space="preserve">
<polygon points="0,0 512,0 512,512 0,512" style="fill:#ffffff; stroke:#000000;stroke-width:0"/>
<polygon points="-205.068,178.713 -165.538,162.657 -83.4854,364.671 -123.016,380.727" style="fill:#006363; stroke:#000000;stroke-width:0"/>
<circle fill="#006363" stroke="#006363" stroke-width="0" cx="-185.303" cy="170.685" r="21.3333"/>
<circle fill="#006363" stroke="#006363" stroke-width="0" cx="-103.251" cy="372.699" r="21.3333"/>
<polygon points="631.483,433.595 604.703,400.379 772.995,264.694 799.775,297.91" style="fill:#006363; stroke:#000000;stroke-width:0"/>
<circle fill="#006363" stroke="#006363" stroke-width="0" cx="618.093" cy="416.987" r="21.3333"/>
<circle fill="#006363" stroke="#006363" stroke-width="0" cx="786.385" cy="281.302" r="21.3333"/>
<polygon points="1256,469.333 256,1469.33 -744,469.333" style="fill:#000000; stroke:#000000;stroke-width:0"/>
<polygon points="-744,42.6667 256,-957.333 1256,42.6667" style="fill:#000000; stroke:#000000;stroke-width:0"/>
<circle fill="#a64b00" stroke="#a64b00" stroke-width="0" cx="-185.303" cy="170.685" r="21.3333"/>
<circle fill="#a64b00" stroke="#a64b00" stroke-width="0" cx="-103.251" cy="372.699" r="21.3333"/>
<circle fill="#a64b00" stroke="#a64b00" stroke-width="0" cx="618.093" cy="416.987" r="21.3333"/>
<circle fill="#a64b00" stroke="#a64b00" stroke-width="0" cx="786.385" cy="281.302" r="21.3333"/>
<circle fill="#a64b00" stroke="#a64b00" stroke-width="0" cx="194.201" cy="373.509" r="21.3333"/>
</svg>
