<?xml version="1.0" encoding="utf-8"?> <!-- Generator: Adobe Illustrator 13.0.0, SVG Export Plug-In . SVG Version: 6.00 Build 14948)  --> <svg version="1.2" baseProfile="tiny" id="Layer_1" xmlns="http://www.w3.org/2000/svg" xmlns:xlink="http://www.w3.org/1999/xlink" x="0px" y="0px" width="512px" height="512px" viewBox="0 0 512 512" xml:space="preserve">
<polygon points="0,0 512,0 512,512 0,512" style="fill:#ffffff; stroke:#000000;stroke-width:0"/>
<polygon points="-107.301,155.136 -80.9607,121.571 86.8523,253.265 60.5117,286.83" style="fill:#006363; stroke:#000000;stroke-width:0"/>
<circle fill="#006363" stroke="#006363" stroke-width="0" cx="-94.131" cy="138.354" r="21.3333"/>
<circle fill="#006363" stroke="#006363" stroke-width="0" cx="73.682" cy="270.047" r="21.3333"/>
<polygon points="437.23,208.922 433.492,166.419 645.587,147.769 649.324,190.272" style="fill:#006363; stroke:#000000;stroke-width:0"/>
<circle fill="#006363" stroke="#006363" stroke-width="0" cx="435.361" cy="187.671" r="21.3333"/>
<circle fill="#006363" stroke="#006363" stroke-width="0" cx="647.456" cy="169.02" r="21.3333"/>
<polygon points="1256,469.333 256,1469.33 -744,469.333" style="fill:#000000; stroke:#000000;stroke-width:0"/>
<polygon points="-744,42.6667 256,-957.333 1256,42.6667" style="fill:#000000; stroke:#000000;stroke-width:0"/>
<circle fill="#a64b00" stroke="#a64b00" stroke-width="0" cx="-94.131" cy="138.354" r="21.3333"/>
<circle fill="#a64b00" stroke="#a64b00" stroke-width="0" cx="73.682" cy="270.047" r="21.3333"/>
<circle fill="#a64b00" stroke="#a64b00" stroke-width="0" cx="435.361" cy="187.671" r="21.3333"/>
<circle fill="#a64b00" stroke="#a64b00" stroke-width="0" cx="647.456" cy="169.02" r="21.3333"/>
<circle fill="#a64b00" stroke="#a64b00" stroke-width="0" cx="99.2404" cy="179.241" r="21.3333"/>
</svg>
