<?xml version="1.0" encoding="utf-8"?> <!-- Generator: Adobe Illustrator 13.0.0, SVG Export Plug-In . SVG Version: 6.00 Build 14948)  --> <svg version="1.2" baseProfile="tiny" id="Layer_1" xmlns="http://www.w3.org/2000/svg" xmlns:xlink="http://www.w3.org/1999/xlink" x="0px" y="0px" width="512px" height="512px" viewBox="0 0 512 512" xml:space="preserve">
<polygon points="0,0 512,0 512,512 0,512" style="fill:#ffffff; stroke:#000000;stroke-width:0"/>
<polygon points="-337.697,410.504 -378.547,398.185 -316.158,191.305 -275.308,203.624" style="fill:#006363; stroke:#000000;stroke-width:0"/>
<circle fill="#006363" stroke="#006363" stroke-width="0" cx="-358.122" cy="404.344" r="21.3333"/>
<circle fill="#006363" stroke="#006363" stroke-width="0" cx="-295.733" cy="197.464" r="21.3333"/>
<polygon points="967.267,217.622 1001.2,243.491 869.936,415.65 836.006,389.78" style="fill:#006363; stroke:#000000;stroke-width:0"/>
<circle fill="#006363" stroke="#006363" stroke-width="0" cx="984.232" cy="230.557" r="21.3333"/>
<circle fill="#006363" stroke="#006363" stroke-width="0" cx="852.971" cy="402.715" r="21.3333"/>
<polygon points="1256,469.333 256,1469.33 -744,469.333" style="fill:#000000; stroke:#000000;stroke-width:0"/>
<polygon points="-744,42.6667 256,-957.333 1256,42.6667" style="fill:#000000; stroke:#000000;stroke-width:0"/>
<circle fill="#a64b00" stroke="#a64b00" stroke-width="0" cx="-358.122" cy="404.344" r="21.3333"/>
<circle fill="#a64b00" stroke="#a64b00" stroke-width="0" cx="-295.733" cy="197.464" r="21.3333"/>
<circle fill="#a64b00" stroke="#a64b00" stroke-width="0" cx="984.232" cy="230.557" r="21.3333"/>
<circle fill="#a64b00" stroke="#a64b00" stroke-width="0" cx="852.971" cy="402.715" r="21.3333"/>
<circle fill="#a64b00" stroke="#a64b00" stroke-width="0" cx="694.506" cy="281.425" r="21.3333"/>
</svg>
