<?xml version="1.0" encoding="utf-8"?> <!-- Generator: Adobe Illustrator 13.0.0, SVG Export Plug-In . SVG Version: 6.00 Build 14948)  --> <svg version="1.2" baseProfile="tiny" id="Layer_1" xmlns="http://www.w3.org/2000/svg" xmlns:xlink="http://www.w3.org/1999/xlink" x="0px" y="0px" width="512px" height="512px" viewBox="0 0 512 512" xml:space="preserve">
<polygon points="0,0 512,0 512,512 0,512" style="fill:#ffffff; stroke:#000000;stroke-width:0"/>
<polygon points="-137.749,163.839 -109.091,132.229 46.9945,273.736 18.3369,305.346" style="fill:#006363; stroke:#000000;stroke-width:0"/>
<circle fill="#006363" stroke="#006363" stroke-width="0" cx="-123.42" cy="148.034" r="21.3333"/>
<circle fill="#006363" stroke="#006363" stroke-width="0" cx="32.6657" cy="289.541" r="21.3333"/>
<polygon points="634.347,315.747 593.651,328.563 529.869,126.025 570.566,113.209" style="fill:#006363; stroke:#000000;stroke-width:0"/>
<circle fill="#006363" stroke="#006363" stroke-width="0" cx="613.999" cy="322.155" r="21.3333"/>
<circle fill="#006363" stroke="#006363" stroke-width="0" cx="550.217" cy="119.617" r="21.3333"/>
<polygon points="1256,469.333 256,1469.33 -744,469.333" style="fill:#000000; stroke:#000000;stroke-width:0"/>
<polygon points="-744,42.6667 256,-957.333 1256,42.6667" style="fill:#000000; stroke:#000000;stroke-width:0"/>
<circle fill="#a64b00" stroke="#a64b00" stroke-width="0" cx="-123.42" cy="148.034" r="21.3333"/>
<circle fill="#a64b00" stroke="#a64b00" stroke-width="0" cx="32.6657" cy="289.541" r="21.3333"/>
<circle fill="#a64b00" stroke="#a64b00" stroke-width="0" cx="613.999" cy="322.155" r="21.3333"/>
<circle fill="#a64b00" stroke="#a64b00" stroke-width="0" cx="550.217" cy="119.617" r="21.3333"/>
<circle fill="#a64b00" stroke="#a64b00" stroke-width="0" cx="419.098" cy="58.6716" r="21.3333"/>
</svg>
