<?xml version="1.0" encoding="utf-8"?> <!-- Generator: Adobe Illustrator 13.0.0, SVG Export Plug-In . SVG Version: 6.00 Build 14948)  --> <svg version="1.2" baseProfile="tiny" id="Layer_1" xmlns="http://www.w3.org/2000/svg" xmlns:xlink="http://www.w3.org/1999/xlink" x="0px" y="0px" width="512px" height="512px" viewBox="0 0 512 512" xml:space="preserve">
<polygon points="0,0 512,0 512,512 0,512" style="fill:#ffffff; stroke:#000000;stroke-width:0"/>
<polygon points="-102.044,96.1412 -109.513,138.149 -317.152,101.229 -309.682,59.2208" style="fill:#006363; stroke:#000000;stroke-width:0"/>
<circle fill="#006363" stroke="#006363" stroke-width="0" cx="-105.778" cy="117.145" r="21.3333"/>
<circle fill="#006363" stroke="#006363" stroke-width="0" cx="-313.417" cy="80.2247" r="21.3333"/>
<polygon points="750.395,376.285 712.8,356.109 812.771,169.825 850.366,190.001" style="fill:#006363; stroke:#000000;stroke-width:0"/>
<circle fill="#006363" stroke="#006363" stroke-width="0" cx="731.597" cy="366.197" r="21.3333"/>
<circle fill="#006363" stroke="#006363" stroke-width="0" cx="831.568" cy="179.913" r="21.3333"/>
<polygon points="1256,469.333 256,1469.33 -744,469.333" style="fill:#000000; stroke:#000000;stroke-width:0"/>
<polygon points="-744,42.6667 256,-957.333 1256,42.6667" style="fill:#000000; stroke:#000000;stroke-width:0"/>
<circle fill="#a64b00" stroke="#a64b00" stroke-width="0" cx="-105.778" cy="117.145" r="21.3333"/>
<circle fill="#a64b00" stroke="#a64b00" stroke-width="0" cx="-313.417" cy="80.2247" r="21.3333"/>
<circle fill="#a64b00" stroke="#a64b00" stroke-width="0" cx="731.597" cy="366.197" r="21.3333"/>
<circle fill="#a64b00" stroke="#a64b00" stroke-width="0" cx="831.568" cy="179.913" r="21.3333"/>
<circle fill="#a64b00" stroke="#a64b00" stroke-width="0" cx="45.6625" cy="344.887" r="21.3333"/>
</svg>
