<?xml version="1.0" encoding="utf-8"?> <!-- Generator: Adobe Illustrator 13.0.0, SVG Export Plug-In . SVG Version: 6.00 Build 14948)  --> <svg version="1.2" baseProfile="tiny" id="Layer_1" xmlns="http://www.w3.org/2000/svg" xmlns:xlink="http://www.w3.org/1999/xlink" x="0px" y="0px" width="512px" height="512px" viewBox="0 0 512 512" xml:space="preserve">
<polygon points="0,0 512,0 512,512 0,512" style="fill:#ffffff; stroke:#000000;stroke-width:0"/>
<polygon points="-98.4663,73.3523 -101.425,115.916 -309.711,101.437 -306.752,58.8729" style="fill:#006363; stroke:#000000;stroke-width:0"/>
<circle fill="#006363" stroke="#006363" stroke-width="0" cx="-99.9458" cy="94.6342" r="21.3333"/>
<circle fill="#006363" stroke="#006363" stroke-width="0" cx="-308.231" cy="80.1549" r="21.3333"/>
<polygon points="747.38,361.516 708.833,343.225 802.402,146.034 840.949,164.325" style="fill:#006363; stroke:#000000;stroke-width:0"/>
<circle fill="#006363" stroke="#006363" stroke-width="0" cx="728.107" cy="352.371" r="21.3333"/>
<circle fill="#006363" stroke="#006363" stroke-width="0" cx="821.675" cy="155.18" r="21.3333"/>
<polygon points="1256,469.333 256,1469.33 -744,469.333" style="fill:#000000; stroke:#000000;stroke-width:0"/>
<polygon points="-744,42.6667 256,-957.333 1256,42.6667" style="fill:#000000; stroke:#000000;stroke-width:0"/>
<circle fill="#a64b00" stroke="#a64b00" stroke-width="0" cx="-99.9458" cy="94.6342" r="21.3333"/>
<circle fill="#a64b00" stroke="#a64b00" stroke-width="0" cx="-308.231" cy="80.1549" r="21.3333"/>
<circle fill="#a64b00" stroke="#a64b00" stroke-width="0" cx="728.107" cy="352.371" r="21.3333"/>
<circle fill="#a64b00" stroke="#a64b00" stroke-width="0" cx="821.675" cy="155.18" r="21.3333"/>
<circle fill="#a64b00" stroke="#a64b00" stroke-width="0" cx="58.1899" cy="354.428" r="21.3333"/>
</svg>
