<?xml version="1.0" encoding="utf-8"?> <!-- Generator: Adobe Illustrator 13.0.0, SVG Export Plug-In . SVG Version: 6.00 Build 14948)  --> <svg version="1.2" baseProfile="tiny" id="Layer_1" xmlns="http://www.w3.org/2000/svg" xmlns:xlink="http://www.w3.org/1999/xlink" x="0px" y="0px" width="512px" height="512px" viewBox="0 0 512 512" xml:space="preserve">
<polygon points="0,0 512,0 512,512 0,512" style="fill:#ffffff; stroke:#000000;stroke-width:0"/>
<polygon points="-205.729,397.398 -212.611,355.29 -0.97609,320.701 5.906,362.809" style="fill:#006363; stroke:#000000;stroke-width:0"/>
<circle fill="#006363" stroke="#006363" stroke-width="0" cx="-209.17" cy="376.344" r="21.3333"/>
<circle fill="#006363" stroke="#006363" stroke-width="0" cx="2.46496" cy="341.755" r="21.3333"/>
<polygon points="615.906,192.464 658.128,186.324 689.154,399.68 646.931,405.82" style="fill:#006363; stroke:#000000;stroke-width:0"/>
<circle fill="#006363" stroke="#006363" stroke-width="0" cx="637.017" cy="189.394" r="21.3333"/>
<circle fill="#006363" stroke="#006363" stroke-width="0" cx="668.043" cy="402.75" r="21.3333"/>
<polygon points="1256,469.333 256,1469.33 -744,469.333" style="fill:#000000; stroke:#000000;stroke-width:0"/>
<polygon points="-744,42.6667 256,-957.333 1256,42.6667" style="fill:#000000; stroke:#000000;stroke-width:0"/>
<circle fill="#a64b00" stroke="#a64b00" stroke-width="0" cx="-209.17" cy="376.344" r="21.3333"/>
<circle fill="#a64b00" stroke="#a64b00" stroke-width="0" cx="2.46496" cy="341.755" r="21.3333"/>
<circle fill="#a64b00" stroke="#a64b00" stroke-width="0" cx="637.017" cy="189.394" r="21.3333"/>
<circle fill="#a64b00" stroke="#a64b00" stroke-width="0" cx="668.043" cy="402.75" r="21.3333"/>
<circle fill="#a64b00" stroke="#a64b00" stroke-width="0" cx="287.262" cy="297.185" r="21.3333"/>
</svg>
