<?xml version="1.0" encoding="utf-8"?> <!-- Generator: Adobe Illustrator 13.0.0, SVG Export Plug-In . SVG Version: 6.00 Build 14948)  --> <svg version="1.2" baseProfile="tiny" id="Layer_1" xmlns="http://www.w3.org/2000/svg" xmlns:xlink="http://www.w3.org/1999/xlink" x="0px" y="0px" width="512px" height="512px" viewBox="0 0 512 512" xml:space="preserve">
<polygon points="0,0 512,0 512,512 0,512" style="fill:#ffffff; stroke:#000000;stroke-width:0"/>
<polygon points="-165.359,329.258 -154.283,370.462 -364.016,426.844 -375.092,385.64" style="fill:#006363; stroke:#000000;stroke-width:0"/>
<circle fill="#006363" stroke="#006363" stroke-width="0" cx="-159.821" cy="349.86" r="21.3333"/>
<circle fill="#006363" stroke="#006363" stroke-width="0" cx="-369.554" cy="406.242" r="21.3333"/>
<polygon points="743.446,353.728 750.705,311.684 953.551,346.702 946.293,388.747" style="fill:#006363; stroke:#000000;stroke-width:0"/>
<circle fill="#006363" stroke="#006363" stroke-width="0" cx="747.076" cy="332.706" r="21.3333"/>
<circle fill="#006363" stroke="#006363" stroke-width="0" cx="949.922" cy="367.725" r="21.3333"/>
<polygon points="1256,469.333 256,1469.33 -744,469.333" style="fill:#000000; stroke:#000000;stroke-width:0"/>
<polygon points="-744,42.6667 256,-957.333 1256,42.6667" style="fill:#000000; stroke:#000000;stroke-width:0"/>
<circle fill="#a64b00" stroke="#a64b00" stroke-width="0" cx="-159.821" cy="349.86" r="21.3333"/>
<circle fill="#a64b00" stroke="#a64b00" stroke-width="0" cx="-369.554" cy="406.242" r="21.3333"/>
<circle fill="#a64b00" stroke="#a64b00" stroke-width="0" cx="747.076" cy="332.706" r="21.3333"/>
<circle fill="#a64b00" stroke="#a64b00" stroke-width="0" cx="949.922" cy="367.725" r="21.3333"/>
<circle fill="#a64b00" stroke="#a64b00" stroke-width="0" cx="-79.6113" cy="211.32" r="21.3333"/>
</svg>
