<?xml version="1.0" encoding="utf-8"?> <!-- Generator: Adobe Illustrator 13.0.0, SVG Export Plug-In . SVG Version: 6.00 Build 14948)  --> <svg version="1.2" baseProfile="tiny" id="Layer_1" xmlns="http://www.w3.org/2000/svg" xmlns:xlink="http://www.w3.org/1999/xlink" x="0px" y="0px" width="512px" height="512px" viewBox="0 0 512 512" xml:space="preserve">
<polygon points="0,0 512,0 512,512 0,512" style="fill:#ffffff; stroke:#000000;stroke-width:0"/>
<polygon points="-188.989,310.442 -163.008,276.597 1.1713,402.629 -24.8093,436.473" style="fill:#006363; stroke:#000000;stroke-width:0"/>
<circle fill="#006363" stroke="#006363" stroke-width="0" cx="-175.998" cy="293.519" r="21.3333"/>
<circle fill="#006363" stroke="#006363" stroke-width="0" cx="-11.819" cy="419.551" r="21.3333"/>
<polygon points="657.16,174.625 697.371,188.89 624.957,393.024 584.746,378.76" style="fill:#006363; stroke:#000000;stroke-width:0"/>
<circle fill="#006363" stroke="#006363" stroke-width="0" cx="677.265" cy="181.757" r="21.3333"/>
<circle fill="#006363" stroke="#006363" stroke-width="0" cx="604.851" cy="385.892" r="21.3333"/>
<polygon points="1256,469.333 256,1469.33 -744,469.333" style="fill:#000000; stroke:#000000;stroke-width:0"/>
<polygon points="-744,42.6667 256,-957.333 1256,42.6667" style="fill:#000000; stroke:#000000;stroke-width:0"/>
<circle fill="#a64b00" stroke="#a64b00" stroke-width="0" cx="-175.998" cy="293.519" r="21.3333"/>
<circle fill="#a64b00" stroke="#a64b00" stroke-width="0" cx="-11.819" cy="419.551" r="21.3333"/>
<circle fill="#a64b00" stroke="#a64b00" stroke-width="0" cx="677.265" cy="181.757" r="21.3333"/>
<circle fill="#a64b00" stroke="#a64b00" stroke-width="0" cx="604.851" cy="385.892" r="21.3333"/>
<circle fill="#a64b00" stroke="#a64b00" stroke-width="0" cx="308.738" cy="259.023" r="21.3333"/>
</svg>
