<?xml version="1.0" encoding="utf-8"?> <!-- Generator: Adobe Illustrator 13.0.0, SVG Export Plug-In . SVG Version: 6.00 Build 14948)  --> <svg version="1.2" baseProfile="tiny" id="Layer_1" xmlns="http://www.w3.org/2000/svg" xmlns:xlink="http://www.w3.org/1999/xlink" x="0px" y="0px" width="512px" height="512px" viewBox="0 0 512 512" xml:space="preserve">
<polygon points="0,0 512,0 512,512 0,512" style="fill:#ffffff; stroke:#000000;stroke-width:0"/>
<polygon points="-160.801,191.273 -118.268,194.639 -135.097,407.337 -177.631,403.972" style="fill:#006363; stroke:#000000;stroke-width:0"/>
<circle fill="#006363" stroke="#006363" stroke-width="0" cx="-139.534" cy="192.956" r="21.3333"/>
<circle fill="#006363" stroke="#006363" stroke-width="0" cx="-156.364" cy="405.654" r="21.3333"/>
<polygon points="654.379,448.713 621.817,421.141 759.021,259.103 791.583,286.674" style="fill:#006363; stroke:#000000;stroke-width:0"/>
<circle fill="#006363" stroke="#006363" stroke-width="0" cx="638.098" cy="434.927" r="21.3333"/>
<circle fill="#006363" stroke="#006363" stroke-width="0" cx="775.302" cy="272.888" r="21.3333"/>
<polygon points="1256,469.333 256,1469.33 -744,469.333" style="fill:#000000; stroke:#000000;stroke-width:0"/>
<polygon points="-744,42.6667 256,-957.333 1256,42.6667" style="fill:#000000; stroke:#000000;stroke-width:0"/>
<circle fill="#a64b00" stroke="#a64b00" stroke-width="0" cx="-139.534" cy="192.956" r="21.3333"/>
<circle fill="#a64b00" stroke="#a64b00" stroke-width="0" cx="-156.364" cy="405.654" r="21.3333"/>
<circle fill="#a64b00" stroke="#a64b00" stroke-width="0" cx="638.098" cy="434.927" r="21.3333"/>
<circle fill="#a64b00" stroke="#a64b00" stroke-width="0" cx="775.302" cy="272.888" r="21.3333"/>
<circle fill="#a64b00" stroke="#a64b00" stroke-width="0" cx="185.85" cy="239.942" r="21.3333"/>
</svg>
