<?xml version="1.0" encoding="utf-8"?> <!-- Generator: Adobe Illustrator 13.0.0, SVG Export Plug-In . SVG Version: 6.00 Build 14948)  --> <svg version="1.2" baseProfile="tiny" id="Layer_1" xmlns="http://www.w3.org/2000/svg" xmlns:xlink="http://www.w3.org/1999/xlink" x="0px" y="0px" width="512px" height="512px" viewBox="0 0 512 512" xml:space="preserve">
<polygon points="0,0 512,0 512,512 0,512" style="fill:#ffffff; stroke:#000000;stroke-width:0"/>
<polygon points="-107.451,153.053 -82.1559,118.693 85.4282,242.068 60.1328,276.427" style="fill:#006363; stroke:#000000;stroke-width:0"/>
<circle fill="#006363" stroke="#006363" stroke-width="0" cx="-94.8036" cy="135.873" r="21.3333"/>
<circle fill="#006363" stroke="#006363" stroke-width="0" cx="72.7805" cy="259.247" r="21.3333"/>
<polygon points="440.235,213.695 434.814,171.374 644.178,144.556 649.599,186.877" style="fill:#006363; stroke:#000000;stroke-width:0"/>
<circle fill="#006363" stroke="#006363" stroke-width="0" cx="437.525" cy="192.535" r="21.3333"/>
<circle fill="#006363" stroke="#006363" stroke-width="0" cx="646.888" cy="165.716" r="21.3333"/>
<polygon points="1256,469.333 256,1469.33 -744,469.333" style="fill:#000000; stroke:#000000;stroke-width:0"/>
<polygon points="-744,42.6667 256,-957.333 1256,42.6667" style="fill:#000000; stroke:#000000;stroke-width:0"/>
<circle fill="#a64b00" stroke="#a64b00" stroke-width="0" cx="-94.8036" cy="135.873" r="21.3333"/>
<circle fill="#a64b00" stroke="#a64b00" stroke-width="0" cx="72.7805" cy="259.247" r="21.3333"/>
<circle fill="#a64b00" stroke="#a64b00" stroke-width="0" cx="437.525" cy="192.535" r="21.3333"/>
<circle fill="#a64b00" stroke="#a64b00" stroke-width="0" cx="646.888" cy="165.716" r="21.3333"/>
<circle fill="#a64b00" stroke="#a64b00" stroke-width="0" cx="129.013" cy="159.744" r="21.3333"/>
</svg>
