<?xml version="1.0" encoding="utf-8"?> <!-- Generator: Adobe Illustrator 13.0.0, SVG Export Plug-In . SVG Version: 6.00 Build 14948)  --> <svg version="1.2" baseProfile="tiny" id="Layer_1" xmlns="http://www.w3.org/2000/svg" xmlns:xlink="http://www.w3.org/1999/xlink" x="0px" y="0px" width="512px" height="512px" viewBox="0 0 512 512" xml:space="preserve">
<polygon points="0,0 512,0 512,512 0,512" style="fill:#ffffff; stroke:#000000;stroke-width:0"/>
<polygon points="-106.728,92.8188 -64.3719,87.6821 -38.5913,300.267 -80.9476,305.404" style="fill:#006363; stroke:#000000;stroke-width:0"/>
<circle fill="#006363" stroke="#006363" stroke-width="0" cx="-85.5501" cy="90.2505" r="21.3333"/>
<circle fill="#006363" stroke="#006363" stroke-width="0" cx="-59.7694" cy="302.835" r="21.3333"/>
<polygon points="717.217,220.627 723.062,262.891 513.279,291.908 507.433,249.644" style="fill:#006363; stroke:#000000;stroke-width:0"/>
<circle fill="#006363" stroke="#006363" stroke-width="0" cx="720.14" cy="241.759" r="21.3333"/>
<circle fill="#006363" stroke="#006363" stroke-width="0" cx="510.356" cy="270.776" r="21.3333"/>
<polygon points="1256,469.333 256,1469.33 -744,469.333" style="fill:#000000; stroke:#000000;stroke-width:0"/>
<polygon points="-744,42.6667 256,-957.333 1256,42.6667" style="fill:#000000; stroke:#000000;stroke-width:0"/>
<circle fill="#a64b00" stroke="#a64b00" stroke-width="0" cx="-85.5501" cy="90.2505" r="21.3333"/>
<circle fill="#a64b00" stroke="#a64b00" stroke-width="0" cx="-59.7694" cy="302.835" r="21.3333"/>
<circle fill="#a64b00" stroke="#a64b00" stroke-width="0" cx="720.14" cy="241.759" r="21.3333"/>
<circle fill="#a64b00" stroke="#a64b00" stroke-width="0" cx="510.356" cy="270.776" r="21.3333"/>
<circle fill="#a64b00" stroke="#a64b00" stroke-width="0" cx="357.057" cy="268.563" r="21.3333"/>
</svg>
