<?xml version="1.0" encoding="utf-8"?> <!-- Generator: Adobe Illustrator 13.0.0, SVG Export Plug-In . SVG Version: 6.00 Build 14948)  --> <svg version="1.2" baseProfile="tiny" id="Layer_1" xmlns="http://www.w3.org/2000/svg" xmlns:xlink="http://www.w3.org/1999/xlink" x="0px" y="0px" width="512px" height="512px" viewBox="0 0 512 512" xml:space="preserve">
<polygon points="0,0 512,0 512,512 0,512" style="fill:#ffffff; stroke:#000000;stroke-width:0"/>
<polygon points="-170.417,275.537 -135.129,251.554 -10.0552,435.577 -45.343,459.561" style="fill:#006363; stroke:#000000;stroke-width:0"/>
<circle fill="#006363" stroke="#006363" stroke-width="0" cx="-152.773" cy="263.546" r="21.3333"/>
<circle fill="#006363" stroke="#006363" stroke-width="0" cx="-27.6991" cy="447.569" r="21.3333"/>
<polygon points="671.581,177.198 708.389,198.775 601.614,380.926 564.805,359.349" style="fill:#006363; stroke:#000000;stroke-width:0"/>
<circle fill="#006363" stroke="#006363" stroke-width="0" cx="689.985" cy="187.986" r="21.3333"/>
<circle fill="#006363" stroke="#006363" stroke-width="0" cx="583.209" cy="370.137" r="21.3333"/>
<polygon points="1256,469.333 256,1469.33 -744,469.333" style="fill:#000000; stroke:#000000;stroke-width:0"/>
<polygon points="-744,42.6667 256,-957.333 1256,42.6667" style="fill:#000000; stroke:#000000;stroke-width:0"/>
<circle fill="#a64b00" stroke="#a64b00" stroke-width="0" cx="-152.773" cy="263.546" r="21.3333"/>
<circle fill="#a64b00" stroke="#a64b00" stroke-width="0" cx="-27.6991" cy="447.569" r="21.3333"/>
<circle fill="#a64b00" stroke="#a64b00" stroke-width="0" cx="689.985" cy="187.986" r="21.3333"/>
<circle fill="#a64b00" stroke="#a64b00" stroke-width="0" cx="583.209" cy="370.137" r="21.3333"/>
<circle fill="#a64b00" stroke="#a64b00" stroke-width="0" cx="317.089" cy="125.455" r="21.3333"/>
</svg>
