<?xml version="1.0" encoding="utf-8"?> <!-- Generator: Adobe Illustrator 13.0.0, SVG Export Plug-In . SVG Version: 6.00 Build 14948)  --> <svg version="1.2" baseProfile="tiny" id="Layer_1" xmlns="http://www.w3.org/2000/svg" xmlns:xlink="http://www.w3.org/1999/xlink" x="0px" y="0px" width="512px" height="512px" viewBox="0 0 512 512" xml:space="preserve">
<polygon points="0,0 512,0 512,512 0,512" style="fill:#ffffff; stroke:#000000;stroke-width:0"/>
<polygon points="-117.686,214.055 -78.4371,197.324 6.47003,396.5 -32.7791,413.231" style="fill:#006363; stroke:#000000;stroke-width:0"/>
<circle fill="#006363" stroke="#006363" stroke-width="0" cx="-98.0617" cy="205.69" r="21.3333"/>
<circle fill="#006363" stroke="#006363" stroke-width="0" cx="-13.1546" cy="404.866" r="21.3333"/>
<polygon points="688.165,290.831 659.379,322.324 500.906,177.477 529.692,145.984" style="fill:#006363; stroke:#000000;stroke-width:0"/>
<circle fill="#006363" stroke="#006363" stroke-width="0" cx="673.772" cy="306.578" r="21.3333"/>
<circle fill="#006363" stroke="#006363" stroke-width="0" cx="515.299" cy="161.731" r="21.3333"/>
<polygon points="1256,469.333 256,1469.33 -744,469.333" style="fill:#000000; stroke:#000000;stroke-width:0"/>
<polygon points="-744,42.6667 256,-957.333 1256,42.6667" style="fill:#000000; stroke:#000000;stroke-width:0"/>
<circle fill="#a64b00" stroke="#a64b00" stroke-width="0" cx="-98.0617" cy="205.69" r="21.3333"/>
<circle fill="#a64b00" stroke="#a64b00" stroke-width="0" cx="-13.1546" cy="404.866" r="21.3333"/>
<circle fill="#a64b00" stroke="#a64b00" stroke-width="0" cx="673.772" cy="306.578" r="21.3333"/>
<circle fill="#a64b00" stroke="#a64b00" stroke-width="0" cx="515.299" cy="161.731" r="21.3333"/>
<circle fill="#a64b00" stroke="#a64b00" stroke-width="0" cx="395.833" cy="430.752" r="21.3333"/>
</svg>
