<?xml version="1.0" encoding="utf-8"?> <!-- Generator: Adobe Illustrator 13.0.0, SVG Export Plug-In . SVG Version: 6.00 Build 14948)  --> <svg version="1.2" baseProfile="tiny" id="Layer_1" xmlns="http://www.w3.org/2000/svg" xmlns:xlink="http://www.w3.org/1999/xlink" x="0px" y="0px" width="512px" height="512px" viewBox="0 0 512 512" xml:space="preserve">
<polygon points="0,0 512,0 512,512 0,512" style="fill:#ffffff; stroke:#000000;stroke-width:0"/>
<polygon points="-30.6702,188.268 11.0976,179.556 55.7865,393.812 14.0187,402.523" style="fill:#006363; stroke:#000000;stroke-width:0"/>
<circle fill="#006363" stroke="#006363" stroke-width="0" cx="-9.78629" cy="183.912" r="21.3333"/>
<circle fill="#006363" stroke="#006363" stroke-width="0" cx="34.9026" cy="398.168" r="21.3333"/>
<polygon points="447.261,108.072 485.99,90.1698 575.962,284.81 537.233,302.713" style="fill:#006363; stroke:#000000;stroke-width:0"/>
<circle fill="#006363" stroke="#006363" stroke-width="0" cx="466.625" cy="99.121" r="21.3333"/>
<circle fill="#006363" stroke="#006363" stroke-width="0" cx="556.597" cy="293.761" r="21.3333"/>
<polygon points="1256,469.333 256,1469.33 -744,469.333" style="fill:#000000; stroke:#000000;stroke-width:0"/>
<polygon points="-744,42.6667 256,-957.333 1256,42.6667" style="fill:#000000; stroke:#000000;stroke-width:0"/>
<circle fill="#a64b00" stroke="#a64b00" stroke-width="0" cx="-9.78629" cy="183.912" r="21.3333"/>
<circle fill="#a64b00" stroke="#a64b00" stroke-width="0" cx="34.9026" cy="398.168" r="21.3333"/>
<circle fill="#a64b00" stroke="#a64b00" stroke-width="0" cx="466.625" cy="99.121" r="21.3333"/>
<circle fill="#a64b00" stroke="#a64b00" stroke-width="0" cx="556.597" cy="293.761" r="21.3333"/>
<circle fill="#a64b00" stroke="#a64b00" stroke-width="0" cx="307.441" cy="172.933" r="21.3333"/>
</svg>
