<?xml version="1.0" encoding="utf-8"?> <!-- Generator: Adobe Illustrator 13.0.0, SVG Export Plug-In . SVG Version: 6.00 Build 14948)  --> <svg version="1.2" baseProfile="tiny" id="Layer_1" xmlns="http://www.w3.org/2000/svg" xmlns:xlink="http://www.w3.org/1999/xlink" x="0px" y="0px" width="512px" height="512px" viewBox="0 0 512 512" xml:space="preserve">
<polygon points="0,0 512,0 512,512 0,512" style="fill:#ffffff; stroke:#000000;stroke-width:0"/>
<polygon points="-101.411,70.625 -88.6311,111.333 -284.205,172.733 -296.985,132.025" style="fill:#006363; stroke:#000000;stroke-width:0"/>
<circle fill="#006363" stroke="#006363" stroke-width="0" cx="-95.0211" cy="90.9788" r="21.3333"/>
<circle fill="#006363" stroke="#006363" stroke-width="0" cx="-290.595" cy="152.379" r="21.3333"/>
<polygon points="744.591,324.869 704.381,310.601 777.787,103.726 817.998,117.994" style="fill:#006363; stroke:#000000;stroke-width:0"/>
<circle fill="#006363" stroke="#006363" stroke-width="0" cx="724.486" cy="317.735" r="21.3333"/>
<circle fill="#006363" stroke="#006363" stroke-width="0" cx="797.892" cy="110.86" r="21.3333"/>
<polygon points="1256,469.333 256,1469.33 -744,469.333" style="fill:#000000; stroke:#000000;stroke-width:0"/>
<polygon points="-744,42.6667 256,-957.333 1256,42.6667" style="fill:#000000; stroke:#000000;stroke-width:0"/>
<circle fill="#a64b00" stroke="#a64b00" stroke-width="0" cx="-95.0211" cy="90.9788" r="21.3333"/>
<circle fill="#a64b00" stroke="#a64b00" stroke-width="0" cx="-290.595" cy="152.379" r="21.3333"/>
<circle fill="#a64b00" stroke="#a64b00" stroke-width="0" cx="724.486" cy="317.735" r="21.3333"/>
<circle fill="#a64b00" stroke="#a64b00" stroke-width="0" cx="797.892" cy="110.86" r="21.3333"/>
<circle fill="#a64b00" stroke="#a64b00" stroke-width="0" cx="83.8412" cy="173.158" r="21.3333"/>
</svg>
