<?xml version="1.0" encoding="utf-8"?> <!-- Generator: Adobe Illustrator 13.0.0, SVG Export Plug-In . SVG Version: 6.00 Build 14948)  --> <svg version="1.2" baseProfile="tiny" id="Layer_1" xmlns="http://www.w3.org/2000/svg" xmlns:xlink="http://www.w3.org/1999/xlink" x="0px" y="0px" width="512px" height="512px" viewBox="0 0 512 512" xml:space="preserve">
<polygon points="0,0 512,0 512,512 0,512" style="fill:#ffffff; stroke:#000000;stroke-width:0"/>
<polygon points="-102.785,194.719 -60.6359,188.092 -27.3195,399.974 -69.4683,406.601" style="fill:#006363; stroke:#000000;stroke-width:0"/>
<circle fill="#006363" stroke="#006363" stroke-width="0" cx="-81.7103" cy="191.406" r="21.3333"/>
<circle fill="#006363" stroke="#006363" stroke-width="0" cx="-48.3939" cy="403.287" r="21.3333"/>
<polygon points="713.922,252.461 703.169,293.75 498.092,240.342 508.845,199.053" style="fill:#006363; stroke:#000000;stroke-width:0"/>
<circle fill="#006363" stroke="#006363" stroke-width="0" cx="708.546" cy="273.106" r="21.3333"/>
<circle fill="#006363" stroke="#006363" stroke-width="0" cx="503.468" cy="219.698" r="21.3333"/>
<polygon points="1256,469.333 256,1469.33 -744,469.333" style="fill:#000000; stroke:#000000;stroke-width:0"/>
<polygon points="-744,42.6667 256,-957.333 1256,42.6667" style="fill:#000000; stroke:#000000;stroke-width:0"/>
<circle fill="#a64b00" stroke="#a64b00" stroke-width="0" cx="-81.7103" cy="191.406" r="21.3333"/>
<circle fill="#a64b00" stroke="#a64b00" stroke-width="0" cx="-48.3939" cy="403.287" r="21.3333"/>
<circle fill="#a64b00" stroke="#a64b00" stroke-width="0" cx="708.546" cy="273.106" r="21.3333"/>
<circle fill="#a64b00" stroke="#a64b00" stroke-width="0" cx="503.468" cy="219.698" r="21.3333"/>
<circle fill="#a64b00" stroke="#a64b00" stroke-width="0" cx="374.357" cy="125.455" r="21.3333"/>
</svg>
