<?xml version="1.0" encoding="utf-8"?> <!-- Generator: Adobe Illustrator 13.0.0, SVG Export Plug-In . SVG Version: 6.00 Build 14948)  --> <svg version="1.2" baseProfile="tiny" id="Layer_1" xmlns="http://www.w3.org/2000/svg" xmlns:xlink="http://www.w3.org/1999/xlink" x="0px" y="0px" width="512px" height="512px" viewBox="0 0 512 512" xml:space="preserve">
<polygon points="0,0 512,0 512,512 0,512" style="fill:#ffffff; stroke:#000000;stroke-width:0"/>
<polygon points="-152.391,255.771 -113.738,237.706 -23.3589,431.088 -62.0124,449.153" style="fill:#006363; stroke:#000000;stroke-width:0"/>
<circle fill="#006363" stroke="#006363" stroke-width="0" cx="-133.065" cy="246.739" r="21.3333"/>
<circle fill="#006363" stroke="#006363" stroke-width="0" cx="-42.6856" cy="440.12" r="21.3333"/>
<polygon points="680.971,178.905 714.893,204.784 586.488,373.095 552.566,347.216" style="fill:#006363; stroke:#000000;stroke-width:0"/>
<circle fill="#006363" stroke="#006363" stroke-width="0" cx="697.932" cy="191.844" r="21.3333"/>
<circle fill="#006363" stroke="#006363" stroke-width="0" cx="569.527" cy="360.155" r="21.3333"/>
<polygon points="1256,469.333 256,1469.33 -744,469.333" style="fill:#000000; stroke:#000000;stroke-width:0"/>
<polygon points="-744,42.6667 256,-957.333 1256,42.6667" style="fill:#000000; stroke:#000000;stroke-width:0"/>
<circle fill="#a64b00" stroke="#a64b00" stroke-width="0" cx="-133.065" cy="246.739" r="21.3333"/>
<circle fill="#a64b00" stroke="#a64b00" stroke-width="0" cx="-42.6856" cy="440.12" r="21.3333"/>
<circle fill="#a64b00" stroke="#a64b00" stroke-width="0" cx="697.932" cy="191.844" r="21.3333"/>
<circle fill="#a64b00" stroke="#a64b00" stroke-width="0" cx="569.527" cy="360.155" r="21.3333"/>
<circle fill="#a64b00" stroke="#a64b00" stroke-width="0" cx="322.458" cy="77.7526" r="21.3333"/>
</svg>
