<?xml version="1.0" encoding="utf-8"?> <!-- Generator: Adobe Illustrator 13.0.0, SVG Export Plug-In . SVG Version: 6.00 Build 14948)  --> <svg version="1.2" baseProfile="tiny" id="Layer_1" xmlns="http://www.w3.org/2000/svg" xmlns:xlink="http://www.w3.org/1999/xlink" x="0px" y="0px" width="512px" height="512px" viewBox="0 0 512 512" xml:space="preserve">
<polygon points="0,0 512,0 512,512 0,512" style="fill:#ffffff; stroke:#000000;stroke-width:0"/>
<polygon points="-106.28,154.598 -80.6291,120.503 84.7818,244.949 59.1307,279.044" style="fill:#006363; stroke:#000000;stroke-width:0"/>
<circle fill="#006363" stroke="#006363" stroke-width="0" cx="-93.4546" cy="137.551" r="21.3333"/>
<circle fill="#006363" stroke="#006363" stroke-width="0" cx="71.9563" cy="261.997" r="21.3333"/>
<polygon points="439.947,212.029 435.089,169.64 643.933,145.702 648.792,188.091" style="fill:#006363; stroke:#000000;stroke-width:0"/>
<circle fill="#006363" stroke="#006363" stroke-width="0" cx="437.518" cy="190.834" r="21.3333"/>
<circle fill="#006363" stroke="#006363" stroke-width="0" cx="646.363" cy="166.897" r="21.3333"/>
<polygon points="1256,469.333 256,1469.33 -744,469.333" style="fill:#000000; stroke:#000000;stroke-width:0"/>
<polygon points="-744,42.6667 256,-957.333 1256,42.6667" style="fill:#000000; stroke:#000000;stroke-width:0"/>
<circle fill="#a64b00" stroke="#a64b00" stroke-width="0" cx="-93.4546" cy="137.551" r="21.3333"/>
<circle fill="#a64b00" stroke="#a64b00" stroke-width="0" cx="71.9563" cy="261.997" r="21.3333"/>
<circle fill="#a64b00" stroke="#a64b00" stroke-width="0" cx="437.518" cy="190.834" r="21.3333"/>
<circle fill="#a64b00" stroke="#a64b00" stroke-width="0" cx="646.363" cy="166.897" r="21.3333"/>
<circle fill="#a64b00" stroke="#a64b00" stroke-width="0" cx="119.089" cy="166.243" r="21.3333"/>
</svg>
