<?xml version="1.0" encoding="utf-8"?> <!-- Generator: Adobe Illustrator 13.0.0, SVG Export Plug-In . SVG Version: 6.00 Build 14948)  --> <svg version="1.2" baseProfile="tiny" id="Layer_1" xmlns="http://www.w3.org/2000/svg" xmlns:xlink="http://www.w3.org/1999/xlink" x="0px" y="0px" width="512px" height="512px" viewBox="0 0 512 512" xml:space="preserve">
<polygon points="0,0 512,0 512,512 0,512" style="fill:#ffffff; stroke:#000000;stroke-width:0"/>
<polygon points="-343.298,265.759 -375.62,237.907 -239.593,80.0498 -207.271,107.902" style="fill:#006363; stroke:#000000;stroke-width:0"/>
<circle fill="#006363" stroke="#006363" stroke-width="0" cx="-359.459" cy="251.833" r="21.3333"/>
<circle fill="#006363" stroke="#006363" stroke-width="0" cx="-223.432" cy="93.9758" r="21.3333"/>
<polygon points="815.295,247.683 853.713,229.123 946.707,421.61 908.289,440.171" style="fill:#006363; stroke:#000000;stroke-width:0"/>
<circle fill="#006363" stroke="#006363" stroke-width="0" cx="834.504" cy="238.403" r="21.3333"/>
<circle fill="#006363" stroke="#006363" stroke-width="0" cx="927.498" cy="430.89" r="21.3333"/>
<polygon points="1256,469.333 256,1469.33 -744,469.333" style="fill:#000000; stroke:#000000;stroke-width:0"/>
<polygon points="-744,42.6667 256,-957.333 1256,42.6667" style="fill:#000000; stroke:#000000;stroke-width:0"/>
<circle fill="#a64b00" stroke="#a64b00" stroke-width="0" cx="-359.459" cy="251.833" r="21.3333"/>
<circle fill="#a64b00" stroke="#a64b00" stroke-width="0" cx="-223.432" cy="93.9758" r="21.3333"/>
<circle fill="#a64b00" stroke="#a64b00" stroke-width="0" cx="834.504" cy="238.403" r="21.3333"/>
<circle fill="#a64b00" stroke="#a64b00" stroke-width="0" cx="927.498" cy="430.89" r="21.3333"/>
<circle fill="#a64b00" stroke="#a64b00" stroke-width="0" cx="-140.459" cy="402.13" r="21.3333"/>
</svg>
