<?xml version="1.0" encoding="utf-8"?> <!-- Generator: Adobe Illustrator 13.0.0, SVG Export Plug-In . SVG Version: 6.00 Build 14948)  --> <svg version="1.2" baseProfile="tiny" id="Layer_1" xmlns="http://www.w3.org/2000/svg" xmlns:xlink="http://www.w3.org/1999/xlink" x="0px" y="0px" width="512px" height="512px" viewBox="0 0 512 512" xml:space="preserve">
<polygon points="0,0 512,0 512,512 0,512" style="fill:#ffffff; stroke:#000000;stroke-width:0"/>
<polygon points="-232.066,351.315 -273.252,362.458 -330.363,151.37 -289.177,140.227" style="fill:#006363; stroke:#000000;stroke-width:0"/>
<circle fill="#006363" stroke="#006363" stroke-width="0" cx="-252.659" cy="356.887" r="21.3333"/>
<circle fill="#006363" stroke="#006363" stroke-width="0" cx="-309.77" cy="145.799" r="21.3333"/>
<polygon points="776.415,282.589 805.777,251.632 960.733,398.61 931.371,429.566" style="fill:#006363; stroke:#000000;stroke-width:0"/>
<circle fill="#006363" stroke="#006363" stroke-width="0" cx="791.096" cy="267.111" r="21.3333"/>
<circle fill="#006363" stroke="#006363" stroke-width="0" cx="946.052" cy="414.088" r="21.3333"/>
<polygon points="1256,469.333 256,1469.33 -744,469.333" style="fill:#000000; stroke:#000000;stroke-width:0"/>
<polygon points="-744,42.6667 256,-957.333 1256,42.6667" style="fill:#000000; stroke:#000000;stroke-width:0"/>
<circle fill="#a64b00" stroke="#a64b00" stroke-width="0" cx="-252.659" cy="356.887" r="21.3333"/>
<circle fill="#a64b00" stroke="#a64b00" stroke-width="0" cx="-309.77" cy="145.799" r="21.3333"/>
<circle fill="#a64b00" stroke="#a64b00" stroke-width="0" cx="791.096" cy="267.111" r="21.3333"/>
<circle fill="#a64b00" stroke="#a64b00" stroke-width="0" cx="946.052" cy="414.088" r="21.3333"/>
<circle fill="#a64b00" stroke="#a64b00" stroke-width="0" cx="-117.193" cy="87.2932" r="21.3333"/>
</svg>
