<?xml version="1.0" encoding="utf-8"?> <!-- Generator: Adobe Illustrator 13.0.0, SVG Export Plug-In . SVG Version: 6.00 Build 14948)  --> <svg version="1.2" baseProfile="tiny" id="Layer_1" xmlns="http://www.w3.org/2000/svg" xmlns:xlink="http://www.w3.org/1999/xlink" x="0px" y="0px" width="512px" height="512px" viewBox="0 0 512 512" xml:space="preserve">
<polygon points="0,0 512,0 512,512 0,512" style="fill:#ffffff; stroke:#000000;stroke-width:0"/>
<polygon points="-54.9587,381.432 -66.879,422.4 -279.241,360.609 -267.32,319.641" style="fill:#006363; stroke:#000000;stroke-width:0"/>
<circle fill="#006363" stroke="#006363" stroke-width="0" cx="-60.9188" cy="401.916" r="21.3333"/>
<circle fill="#006363" stroke="#006363" stroke-width="0" cx="-273.28" cy="340.125" r="21.3333"/>
<polygon points="711.563,356.042 671.809,340.548 748.36,144.132 788.114,159.625" style="fill:#006363; stroke:#000000;stroke-width:0"/>
<circle fill="#006363" stroke="#006363" stroke-width="0" cx="691.686" cy="348.295" r="21.3333"/>
<circle fill="#006363" stroke="#006363" stroke-width="0" cx="768.237" cy="151.878" r="21.3333"/>
<polygon points="1256,469.333 256,1469.33 -744,469.333" style="fill:#000000; stroke:#000000;stroke-width:0"/>
<polygon points="-744,42.6667 256,-957.333 1256,42.6667" style="fill:#000000; stroke:#000000;stroke-width:0"/>
<circle fill="#a64b00" stroke="#a64b00" stroke-width="0" cx="-60.9188" cy="401.916" r="21.3333"/>
<circle fill="#a64b00" stroke="#a64b00" stroke-width="0" cx="-273.28" cy="340.125" r="21.3333"/>
<circle fill="#a64b00" stroke="#a64b00" stroke-width="0" cx="691.686" cy="348.295" r="21.3333"/>
<circle fill="#a64b00" stroke="#a64b00" stroke-width="0" cx="768.237" cy="151.878" r="21.3333"/>
<circle fill="#a64b00" stroke="#a64b00" stroke-width="0" cx="142.302" cy="325.806" r="21.3333"/>
</svg>
