<?xml version="1.0" encoding="utf-8"?> <!-- Generator: Adobe Illustrator 13.0.0, SVG Export Plug-In . SVG Version: 6.00 Build 14948)  --> <svg version="1.2" baseProfile="tiny" id="Layer_1" xmlns="http://www.w3.org/2000/svg" xmlns:xlink="http://www.w3.org/1999/xlink" x="0px" y="0px" width="512px" height="512px" viewBox="0 0 512 512" xml:space="preserve">
<polygon points="0,0 512,0 512,512 0,512" style="fill:#ffffff; stroke:#000000;stroke-width:0"/>
<polygon points="-58.4636,231.652 -18.7943,215.942 59.5002,413.649 19.8309,429.359" style="fill:#006363; stroke:#000000;stroke-width:0"/>
<circle fill="#006363" stroke="#006363" stroke-width="0" cx="-38.6289" cy="223.797" r="21.3333"/>
<circle fill="#006363" stroke="#006363" stroke-width="0" cx="39.6656" cy="421.504" r="21.3333"/>
<polygon points="427.186,123.868 450.761,88.3066 627.962,205.781 604.387,241.343" style="fill:#006363; stroke:#000000;stroke-width:0"/>
<circle fill="#006363" stroke="#006363" stroke-width="0" cx="438.974" cy="106.087" r="21.3333"/>
<circle fill="#006363" stroke="#006363" stroke-width="0" cx="616.174" cy="223.562" r="21.3333"/>
<polygon points="1256,469.333 256,1469.33 -744,469.333" style="fill:#000000; stroke:#000000;stroke-width:0"/>
<polygon points="-744,42.6667 256,-957.333 1256,42.6667" style="fill:#000000; stroke:#000000;stroke-width:0"/>
<circle fill="#a64b00" stroke="#a64b00" stroke-width="0" cx="-38.6289" cy="223.797" r="21.3333"/>
<circle fill="#a64b00" stroke="#a64b00" stroke-width="0" cx="39.6656" cy="421.504" r="21.3333"/>
<circle fill="#a64b00" stroke="#a64b00" stroke-width="0" cx="438.974" cy="106.087" r="21.3333"/>
<circle fill="#a64b00" stroke="#a64b00" stroke-width="0" cx="616.174" cy="223.562" r="21.3333"/>
<circle fill="#a64b00" stroke="#a64b00" stroke-width="0" cx="162.868" cy="266.059" r="21.3333"/>
</svg>
