<?xml version="1.0" encoding="utf-8"?> <!-- Generator: Adobe Illustrator 13.0.0, SVG Export Plug-In . SVG Version: 6.00 Build 14948)  --> <svg version="1.2" baseProfile="tiny" id="Layer_1" xmlns="http://www.w3.org/2000/svg" xmlns:xlink="http://www.w3.org/1999/xlink" x="0px" y="0px" width="512px" height="512px" viewBox="0 0 512 512" xml:space="preserve">
<polygon points="0,0 512,0 512,512 0,512" style="fill:#ffffff; stroke:#000000;stroke-width:0"/>
<polygon points="-162.643,349.503 -197.762,325.273 -77.1161,150.409 -41.997,174.639" style="fill:#006363; stroke:#000000;stroke-width:0"/>
<circle fill="#006363" stroke="#006363" stroke-width="0" cx="-180.203" cy="337.388" r="21.3333"/>
<circle fill="#006363" stroke="#006363" stroke-width="0" cx="-59.5566" cy="162.524" r="21.3333"/>
<polygon points="572.491,277.878 595.743,242.104 772.718,357.133 749.466,392.907" style="fill:#006363; stroke:#000000;stroke-width:0"/>
<circle fill="#006363" stroke="#006363" stroke-width="0" cx="584.117" cy="259.991" r="21.3333"/>
<circle fill="#006363" stroke="#006363" stroke-width="0" cx="761.092" cy="375.02" r="21.3333"/>
<polygon points="1256,469.333 256,1469.33 -744,469.333" style="fill:#000000; stroke:#000000;stroke-width:0"/>
<polygon points="-744,42.6667 256,-957.333 1256,42.6667" style="fill:#000000; stroke:#000000;stroke-width:0"/>
<circle fill="#a64b00" stroke="#a64b00" stroke-width="0" cx="-180.203" cy="337.388" r="21.3333"/>
<circle fill="#a64b00" stroke="#a64b00" stroke-width="0" cx="-59.5566" cy="162.524" r="21.3333"/>
<circle fill="#a64b00" stroke="#a64b00" stroke-width="0" cx="584.117" cy="259.991" r="21.3333"/>
<circle fill="#a64b00" stroke="#a64b00" stroke-width="0" cx="761.092" cy="375.02" r="21.3333"/>
<circle fill="#a64b00" stroke="#a64b00" stroke-width="0" cx="249.68" cy="421.212" r="21.3333"/>
</svg>
