<?xml version="1.0" encoding="utf-8"?> <!-- Generator: Adobe Illustrator 13.0.0, SVG Export Plug-In . SVG Version: 6.00 Build 14948)  --> <svg version="1.2" baseProfile="tiny" id="Layer_1" xmlns="http://www.w3.org/2000/svg" xmlns:xlink="http://www.w3.org/1999/xlink" x="0px" y="0px" width="512px" height="512px" viewBox="0 0 512 512" xml:space="preserve">
<polygon points="0,0 512,0 512,512 0,512" style="fill:#ffffff; stroke:#000000;stroke-width:0"/>
<polygon points="10.6382,91.9616 53.2671,90.1657 62.1313,300.572 19.5025,302.368" style="fill:#006363; stroke:#000000;stroke-width:0"/>
<circle fill="#006363" stroke="#006363" stroke-width="0" cx="31.9527" cy="91.0636" r="21.3333"/>
<circle fill="#006363" stroke="#006363" stroke-width="0" cx="40.8169" cy="301.47" r="21.3333"/>
<polygon points="454.605,181.763 497.208,179.434 508.931,393.943 466.328,396.272" style="fill:#006363; stroke:#000000;stroke-width:0"/>
<circle fill="#006363" stroke="#006363" stroke-width="0" cx="475.906" cy="180.598" r="21.3333"/>
<circle fill="#006363" stroke="#006363" stroke-width="0" cx="487.629" cy="395.107" r="21.3333"/>
<polygon points="1256,469.333 256,1469.33 -744,469.333" style="fill:#000000; stroke:#000000;stroke-width:0"/>
<polygon points="-744,42.6667 256,-957.333 1256,42.6667" style="fill:#000000; stroke:#000000;stroke-width:0"/>
<circle fill="#a64b00" stroke="#a64b00" stroke-width="0" cx="31.9527" cy="91.0636" r="21.3333"/>
<circle fill="#a64b00" stroke="#a64b00" stroke-width="0" cx="40.8169" cy="301.47" r="21.3333"/>
<circle fill="#a64b00" stroke="#a64b00" stroke-width="0" cx="475.906" cy="180.598" r="21.3333"/>
<circle fill="#a64b00" stroke="#a64b00" stroke-width="0" cx="487.629" cy="395.107" r="21.3333"/>
<circle fill="#a64b00" stroke="#a64b00" stroke-width="0" cx="188.12" cy="274.138" r="21.3333"/>
</svg>
