<?xml version="1.0" encoding="utf-8"?> <!-- Generator: Adobe Illustrator 13.0.0, SVG Export Plug-In . SVG Version: 6.00 Build 14948)  --> <svg version="1.2" baseProfile="tiny" id="Layer_1" xmlns="http://www.w3.org/2000/svg" xmlns:xlink="http://www.w3.org/1999/xlink" x="0px" y="0px" width="512px" height="512px" viewBox="0 0 512 512" xml:space="preserve">
<polygon points="0,0 512,0 512,512 0,512" style="fill:#ffffff; stroke:#000000;stroke-width:0"/>
<polygon points="-138.741,166.433 -108.752,136.083 45.888,288.884 15.8991,319.234" style="fill:#006363; stroke:#000000;stroke-width:0"/>
<circle fill="#006363" stroke="#006363" stroke-width="0" cx="-123.746" cy="151.258" r="21.3333"/>
<circle fill="#006363" stroke="#006363" stroke-width="0" cx="30.8935" cy="304.059" r="21.3333"/>
<polygon points="641.075,315.539 601.115,330.493 525.691,128.955 565.651,114" style="fill:#006363; stroke:#000000;stroke-width:0"/>
<circle fill="#006363" stroke="#006363" stroke-width="0" cx="621.095" cy="323.016" r="21.3333"/>
<circle fill="#006363" stroke="#006363" stroke-width="0" cx="545.671" cy="121.478" r="21.3333"/>
<polygon points="1256,469.333 256,1469.33 -744,469.333" style="fill:#000000; stroke:#000000;stroke-width:0"/>
<polygon points="-744,42.6667 256,-957.333 1256,42.6667" style="fill:#000000; stroke:#000000;stroke-width:0"/>
<circle fill="#a64b00" stroke="#a64b00" stroke-width="0" cx="-123.746" cy="151.258" r="21.3333"/>
<circle fill="#a64b00" stroke="#a64b00" stroke-width="0" cx="30.8935" cy="304.059" r="21.3333"/>
<circle fill="#a64b00" stroke="#a64b00" stroke-width="0" cx="621.095" cy="323.016" r="21.3333"/>
<circle fill="#a64b00" stroke="#a64b00" stroke-width="0" cx="545.671" cy="121.478" r="21.3333"/>
<circle fill="#a64b00" stroke="#a64b00" stroke-width="0" cx="416.712" cy="96.8337" r="21.3333"/>
</svg>
