<?xml version="1.0" encoding="utf-8"?> <!-- Generator: Adobe Illustrator 13.0.0, SVG Export Plug-In . SVG Version: 6.00 Build 14948)  --> <svg version="1.2" baseProfile="tiny" id="Layer_1" xmlns="http://www.w3.org/2000/svg" xmlns:xlink="http://www.w3.org/1999/xlink" x="0px" y="0px" width="512px" height="512px" viewBox="0 0 512 512" xml:space="preserve">
<polygon points="0,0 512,0 512,512 0,512" style="fill:#ffffff; stroke:#000000;stroke-width:0"/>
<polygon points="-158.741,286.799 -142.078,326.077 -348.598,413.694 -365.261,374.416" style="fill:#006363; stroke:#000000;stroke-width:0"/>
<circle fill="#006363" stroke="#006363" stroke-width="0" cx="-150.41" cy="306.438" r="21.3333"/>
<circle fill="#006363" stroke="#006363" stroke-width="0" cx="-356.93" cy="394.055" r="21.3333"/>
<polygon points="737.346,400.324 728.045,358.683 932.885,312.928 942.187,354.568" style="fill:#006363; stroke:#000000;stroke-width:0"/>
<circle fill="#006363" stroke="#006363" stroke-width="0" cx="732.695" cy="379.504" r="21.3333"/>
<circle fill="#006363" stroke="#006363" stroke-width="0" cx="937.536" cy="333.748" r="21.3333"/>
<polygon points="1256,469.333 256,1469.33 -744,469.333" style="fill:#000000; stroke:#000000;stroke-width:0"/>
<polygon points="-744,42.6667 256,-957.333 1256,42.6667" style="fill:#000000; stroke:#000000;stroke-width:0"/>
<circle fill="#a64b00" stroke="#a64b00" stroke-width="0" cx="-150.41" cy="306.438" r="21.3333"/>
<circle fill="#a64b00" stroke="#a64b00" stroke-width="0" cx="-356.93" cy="394.055" r="21.3333"/>
<circle fill="#a64b00" stroke="#a64b00" stroke-width="0" cx="732.695" cy="379.504" r="21.3333"/>
<circle fill="#a64b00" stroke="#a64b00" stroke-width="0" cx="937.536" cy="333.748" r="21.3333"/>
<circle fill="#a64b00" stroke="#a64b00" stroke-width="0" cx="-54.5565" cy="306.725" r="21.3333"/>
</svg>
