<?xml version="1.0" encoding="utf-8"?> <!-- Generator: Adobe Illustrator 13.0.0, SVG Export Plug-In . SVG Version: 6.00 Build 14948)  --> <svg version="1.2" baseProfile="tiny" id="Layer_1" xmlns="http://www.w3.org/2000/svg" xmlns:xlink="http://www.w3.org/1999/xlink" x="0px" y="0px" width="512px" height="512px" viewBox="0 0 512 512" xml:space="preserve">
<polygon points="0,0 512,0 512,512 0,512" style="fill:#ffffff; stroke:#000000;stroke-width:0"/>
<polygon points="-379.049,206.11 -398.074,167.92 -212.237,75.3392 -193.212,113.529" style="fill:#006363; stroke:#000000;stroke-width:0"/>
<circle fill="#006363" stroke="#006363" stroke-width="0" cx="-388.561" cy="187.015" r="21.3333"/>
<circle fill="#006363" stroke="#006363" stroke-width="0" cx="-202.724" cy="94.4342" r="21.3333"/>
<polygon points="833.177,233.489 873.932,220.86 939.022,430.92 898.267,443.549" style="fill:#006363; stroke:#000000;stroke-width:0"/>
<circle fill="#006363" stroke="#006363" stroke-width="0" cx="853.555" cy="227.174" r="21.3333"/>
<circle fill="#006363" stroke="#006363" stroke-width="0" cx="918.644" cy="437.234" r="21.3333"/>
<polygon points="1256,469.333 256,1469.33 -744,469.333" style="fill:#000000; stroke:#000000;stroke-width:0"/>
<polygon points="-744,42.6667 256,-957.333 1256,42.6667" style="fill:#000000; stroke:#000000;stroke-width:0"/>
<circle fill="#a64b00" stroke="#a64b00" stroke-width="0" cx="-388.561" cy="187.015" r="21.3333"/>
<circle fill="#a64b00" stroke="#a64b00" stroke-width="0" cx="-202.724" cy="94.4342" r="21.3333"/>
<circle fill="#a64b00" stroke="#a64b00" stroke-width="0" cx="853.555" cy="227.174" r="21.3333"/>
<circle fill="#a64b00" stroke="#a64b00" stroke-width="0" cx="918.644" cy="437.234" r="21.3333"/>
<circle fill="#a64b00" stroke="#a64b00" stroke-width="0" cx="-150.003" cy="344.887" r="21.3333"/>
</svg>
