<?xml version="1.0" encoding="utf-8"?> <!-- Generator: Adobe Illustrator 13.0.0, SVG Export Plug-In . SVG Version: 6.00 Build 14948)  --> <svg version="1.2" baseProfile="tiny" id="Layer_1" xmlns="http://www.w3.org/2000/svg" xmlns:xlink="http://www.w3.org/1999/xlink" x="0px" y="0px" width="512px" height="512px" viewBox="0 0 512 512" xml:space="preserve">
<polygon points="0,0 512,0 512,512 0,512" style="fill:#ffffff; stroke:#000000;stroke-width:0"/>
<polygon points="-27.3883,176.026 14.4958,167.892 56.5178,384.27 14.6337,392.405" style="fill:#006363; stroke:#000000;stroke-width:0"/>
<circle fill="#006363" stroke="#006363" stroke-width="0" cx="-6.44624" cy="171.959" r="21.3333"/>
<circle fill="#006363" stroke="#006363" stroke-width="0" cx="35.5758" cy="388.338" r="21.3333"/>
<polygon points="448.456,122.593 487.865,106.241 569.446,302.863 530.037,319.214" style="fill:#006363; stroke:#000000;stroke-width:0"/>
<circle fill="#006363" stroke="#006363" stroke-width="0" cx="468.16" cy="114.417" r="21.3333"/>
<circle fill="#006363" stroke="#006363" stroke-width="0" cx="549.742" cy="311.039" r="21.3333"/>
<polygon points="1256,469.333 256,1469.33 -744,469.333" style="fill:#000000; stroke:#000000;stroke-width:0"/>
<polygon points="-744,42.6667 256,-957.333 1256,42.6667" style="fill:#000000; stroke:#000000;stroke-width:0"/>
<circle fill="#a64b00" stroke="#a64b00" stroke-width="0" cx="-6.44624" cy="171.959" r="21.3333"/>
<circle fill="#a64b00" stroke="#a64b00" stroke-width="0" cx="35.5758" cy="388.338" r="21.3333"/>
<circle fill="#a64b00" stroke="#a64b00" stroke-width="0" cx="468.16" cy="114.417" r="21.3333"/>
<circle fill="#a64b00" stroke="#a64b00" stroke-width="0" cx="549.742" cy="311.039" r="21.3333"/>
<circle fill="#a64b00" stroke="#a64b00" stroke-width="0" cx="331.537" cy="95.3286" r="21.3333"/>
</svg>
