<?xml version="1.0" encoding="utf-8"?> <!-- Generator: Adobe Illustrator 13.0.0, SVG Export Plug-In . SVG Version: 6.00 Build 14948)  --> <svg version="1.2" baseProfile="tiny" id="Layer_1" xmlns="http://www.w3.org/2000/svg" xmlns:xlink="http://www.w3.org/1999/xlink" x="0px" y="0px" width="512px" height="512px" viewBox="0 0 512 512" xml:space="preserve">
<polygon points="0,0 512,0 512,512 0,512" style="fill:#ffffff; stroke:#000000;stroke-width:0"/>
<polygon points="-113.78,141.61 -91.6289,105.143 87.0346,213.669 64.8838,250.135" style="fill:#006363; stroke:#000000;stroke-width:0"/>
<circle fill="#006363" stroke="#006363" stroke-width="0" cx="-102.704" cy="123.377" r="21.3333"/>
<circle fill="#006363" stroke="#006363" stroke-width="0" cx="75.9592" cy="231.902" r="21.3333"/>
<polygon points="447.078,227.727 436.772,186.324 642.123,135.204 652.43,176.607" style="fill:#006363; stroke:#000000;stroke-width:0"/>
<circle fill="#006363" stroke="#006363" stroke-width="0" cx="441.925" cy="207.026" r="21.3333"/>
<circle fill="#006363" stroke="#006363" stroke-width="0" cx="647.277" cy="155.905" r="21.3333"/>
<polygon points="1256,469.333 256,1469.33 -744,469.333" style="fill:#000000; stroke:#000000;stroke-width:0"/>
<polygon points="-744,42.6667 256,-957.333 1256,42.6667" style="fill:#000000; stroke:#000000;stroke-width:0"/>
<circle fill="#a64b00" stroke="#a64b00" stroke-width="0" cx="-102.704" cy="123.377" r="21.3333"/>
<circle fill="#a64b00" stroke="#a64b00" stroke-width="0" cx="75.9592" cy="231.902" r="21.3333"/>
<circle fill="#a64b00" stroke="#a64b00" stroke-width="0" cx="441.925" cy="207.026" r="21.3333"/>
<circle fill="#a64b00" stroke="#a64b00" stroke-width="0" cx="647.277" cy="155.905" r="21.3333"/>
<circle fill="#a64b00" stroke="#a64b00" stroke-width="0" cx="218.333" cy="101.253" r="21.3333"/>
</svg>
