<?xml version="1.0" encoding="utf-8"?> <!-- Generator: Adobe Illustrator 13.0.0, SVG Export Plug-In . SVG Version: 6.00 Build 14948)  --> <svg version="1.2" baseProfile="tiny" id="Layer_1" xmlns="http://www.w3.org/2000/svg" xmlns:xlink="http://www.w3.org/1999/xlink" x="0px" y="0px" width="512px" height="512px" viewBox="0 0 512 512" xml:space="preserve">
<polygon points="0,0 512,0 512,512 0,512" style="fill:#ffffff; stroke:#000000;stroke-width:0"/>
<polygon points="-243.375,193.834 -220.626,157.739 -35.2092,274.601 -57.9592,310.697" style="fill:#006363; stroke:#000000;stroke-width:0"/>
<circle fill="#006363" stroke="#006363" stroke-width="0" cx="-232" cy="175.786" r="21.3333"/>
<circle fill="#006363" stroke="#006363" stroke-width="0" cx="-46.5842" cy="292.649" r="21.3333"/>
<polygon points="606.464,406.439 588.958,367.529 785.906,278.923 803.411,317.833" style="fill:#006363; stroke:#000000;stroke-width:0"/>
<circle fill="#006363" stroke="#006363" stroke-width="0" cx="597.711" cy="386.984" r="21.3333"/>
<circle fill="#006363" stroke="#006363" stroke-width="0" cx="794.658" cy="298.378" r="21.3333"/>
<polygon points="1256,469.333 256,1469.33 -744,469.333" style="fill:#000000; stroke:#000000;stroke-width:0"/>
<polygon points="-744,42.6667 256,-957.333 1256,42.6667" style="fill:#000000; stroke:#000000;stroke-width:0"/>
<circle fill="#a64b00" stroke="#a64b00" stroke-width="0" cx="-232" cy="175.786" r="21.3333"/>
<circle fill="#a64b00" stroke="#a64b00" stroke-width="0" cx="-46.5842" cy="292.649" r="21.3333"/>
<circle fill="#a64b00" stroke="#a64b00" stroke-width="0" cx="597.711" cy="386.984" r="21.3333"/>
<circle fill="#a64b00" stroke="#a64b00" stroke-width="0" cx="794.658" cy="298.378" r="21.3333"/>
<circle fill="#a64b00" stroke="#a64b00" stroke-width="0" cx="205.536" cy="344.887" r="21.3333"/>
</svg>
