<?xml version="1.0" encoding="utf-8"?> <!-- Generator: Adobe Illustrator 13.0.0, SVG Export Plug-In . SVG Version: 6.00 Build 14948)  --> <svg version="1.2" baseProfile="tiny" id="Layer_1" xmlns="http://www.w3.org/2000/svg" xmlns:xlink="http://www.w3.org/1999/xlink" x="0px" y="0px" width="512px" height="512px" viewBox="0 0 512 512" xml:space="preserve">
<polygon points="0,0 512,0 512,512 0,512" style="fill:#ffffff; stroke:#000000;stroke-width:0"/>
<polygon points="-68.877,290.551 -73.7939,332.933 -280.013,309.009 -275.096,266.627" style="fill:#006363; stroke:#000000;stroke-width:0"/>
<circle fill="#006363" stroke="#006363" stroke-width="0" cx="-71.3354" cy="311.742" r="21.3333"/>
<circle fill="#006363" stroke="#006363" stroke-width="0" cx="-277.554" cy="287.818" r="21.3333"/>
<polygon points="729.77,309.67 688.816,297.701 747.997,95.1949 788.951,107.163" style="fill:#006363; stroke:#000000;stroke-width:0"/>
<circle fill="#006363" stroke="#006363" stroke-width="0" cx="709.293" cy="303.685" r="21.3333"/>
<circle fill="#006363" stroke="#006363" stroke-width="0" cx="768.474" cy="101.179" r="21.3333"/>
<polygon points="1256,469.333 256,1469.33 -744,469.333" style="fill:#000000; stroke:#000000;stroke-width:0"/>
<polygon points="-744,42.6667 256,-957.333 1256,42.6667" style="fill:#000000; stroke:#000000;stroke-width:0"/>
<circle fill="#a64b00" stroke="#a64b00" stroke-width="0" cx="-71.3354" cy="311.742" r="21.3333"/>
<circle fill="#a64b00" stroke="#a64b00" stroke-width="0" cx="-277.554" cy="287.818" r="21.3333"/>
<circle fill="#a64b00" stroke="#a64b00" stroke-width="0" cx="709.293" cy="303.685" r="21.3333"/>
<circle fill="#a64b00" stroke="#a64b00" stroke-width="0" cx="768.474" cy="101.179" r="21.3333"/>
<circle fill="#a64b00" stroke="#a64b00" stroke-width="0" cx="125.599" cy="58.6716" r="21.3333"/>
</svg>
