<?xml version="1.0" encoding="utf-8"?> <!-- Generator: Adobe Illustrator 13.0.0, SVG Export Plug-In . SVG Version: 6.00 Build 14948)  --> <svg version="1.2" baseProfile="tiny" id="Layer_1" xmlns="http://www.w3.org/2000/svg" xmlns:xlink="http://www.w3.org/1999/xlink" x="0px" y="0px" width="512px" height="512px" viewBox="0 0 512 512" xml:space="preserve">
<polygon points="0,0 512,0 512,512 0,512" style="fill:#ffffff; stroke:#000000;stroke-width:0"/>
<polygon points="-12.0364,126.304 30.2668,120.747 58.8243,338.146 16.5211,343.703" style="fill:#006363; stroke:#000000;stroke-width:0"/>
<circle fill="#006363" stroke="#006363" stroke-width="0" cx="9.11519" cy="123.526" r="21.3333"/>
<circle fill="#006363" stroke="#006363" stroke-width="0" cx="37.6727" cy="340.924" r="21.3333"/>
<polygon points="453.405,185.402 495.057,176.151 541.084,383.376 499.433,392.628" style="fill:#006363; stroke:#000000;stroke-width:0"/>
<circle fill="#006363" stroke="#006363" stroke-width="0" cx="474.231" cy="180.776" r="21.3333"/>
<circle fill="#006363" stroke="#006363" stroke-width="0" cx="520.259" cy="388.002" r="21.3333"/>
<polygon points="1256,469.333 256,1469.33 -744,469.333" style="fill:#000000; stroke:#000000;stroke-width:0"/>
<polygon points="-744,42.6667 256,-957.333 1256,42.6667" style="fill:#000000; stroke:#000000;stroke-width:0"/>
<circle fill="#a64b00" stroke="#a64b00" stroke-width="0" cx="9.11519" cy="123.526" r="21.3333"/>
<circle fill="#a64b00" stroke="#a64b00" stroke-width="0" cx="37.6727" cy="340.924" r="21.3333"/>
<circle fill="#a64b00" stroke="#a64b00" stroke-width="0" cx="474.231" cy="180.776" r="21.3333"/>
<circle fill="#a64b00" stroke="#a64b00" stroke-width="0" cx="520.259" cy="388.002" r="21.3333"/>
<circle fill="#a64b00" stroke="#a64b00" stroke-width="0" cx="437.557" cy="359.185" r="21.3333"/>
</svg>
