<?xml version="1.0" encoding="utf-8"?> <!-- Generator: Adobe Illustrator 13.0.0, SVG Export Plug-In . SVG Version: 6.00 Build 14948)  --> <svg version="1.2" baseProfile="tiny" id="Layer_1" xmlns="http://www.w3.org/2000/svg" xmlns:xlink="http://www.w3.org/1999/xlink" x="0px" y="0px" width="512px" height="512px" viewBox="0 0 512 512" xml:space="preserve">
<polygon points="0,0 512,0 512,512 0,512" style="fill:#ffffff; stroke:#000000;stroke-width:0"/>
<polygon points="-177.796,322.744 -157.447,360.245 -344.233,461.603 -364.583,424.102" style="fill:#006363; stroke:#000000;stroke-width:0"/>
<circle fill="#006363" stroke="#006363" stroke-width="0" cx="-167.622" cy="341.495" r="21.3333"/>
<circle fill="#006363" stroke="#006363" stroke-width="0" cx="-354.408" cy="442.853" r="21.3333"/>
<polygon points="733.596,369.178 735.343,326.547 954.479,335.526 952.732,378.157" style="fill:#006363; stroke:#000000;stroke-width:0"/>
<circle fill="#006363" stroke="#006363" stroke-width="0" cx="734.47" cy="347.863" r="21.3333"/>
<circle fill="#006363" stroke="#006363" stroke-width="0" cx="953.606" cy="356.842" r="21.3333"/>
<polygon points="1256,469.333 256,1469.33 -744,469.333" style="fill:#000000; stroke:#000000;stroke-width:0"/>
<polygon points="-744,42.6667 256,-957.333 1256,42.6667" style="fill:#000000; stroke:#000000;stroke-width:0"/>
<circle fill="#a64b00" stroke="#a64b00" stroke-width="0" cx="-167.622" cy="341.495" r="21.3333"/>
<circle fill="#a64b00" stroke="#a64b00" stroke-width="0" cx="-354.408" cy="442.853" r="21.3333"/>
<circle fill="#a64b00" stroke="#a64b00" stroke-width="0" cx="734.47" cy="347.863" r="21.3333"/>
<circle fill="#a64b00" stroke="#a64b00" stroke-width="0" cx="953.606" cy="356.842" r="21.3333"/>
<circle fill="#a64b00" stroke="#a64b00" stroke-width="0" cx="-71.2597" cy="77.7526" r="21.3333"/>
</svg>
