<?xml version="1.0" encoding="utf-8"?> <!-- Generator: Adobe Illustrator 13.0.0, SVG Export Plug-In . SVG Version: 6.00 Build 14948)  --> <svg version="1.2" baseProfile="tiny" id="Layer_1" xmlns="http://www.w3.org/2000/svg" xmlns:xlink="http://www.w3.org/1999/xlink" x="0px" y="0px" width="512px" height="512px" viewBox="0 0 512 512" xml:space="preserve">
<polygon points="0,0 512,0 512,512 0,512" style="fill:#ffffff; stroke:#000000;stroke-width:0"/>
<polygon points="-39.4212,221.361 1.99022,211.088 53.7016,419.533 12.2902,429.807" style="fill:#006363; stroke:#000000;stroke-width:0"/>
<circle fill="#006363" stroke="#006363" stroke-width="0" cx="-18.7155" cy="216.224" r="21.3333"/>
<circle fill="#006363" stroke="#006363" stroke-width="0" cx="32.9959" cy="424.67" r="21.3333"/>
<polygon points="444.992,78.4252 481.172,55.8097 592.597,234.064 556.417,256.679" style="fill:#006363; stroke:#000000;stroke-width:0"/>
<circle fill="#006363" stroke="#006363" stroke-width="0" cx="463.082" cy="67.1175" r="21.3333"/>
<circle fill="#006363" stroke="#006363" stroke-width="0" cx="574.507" cy="245.372" r="21.3333"/>
<polygon points="1256,469.333 256,1469.33 -744,469.333" style="fill:#000000; stroke:#000000;stroke-width:0"/>
<polygon points="-744,42.6667 256,-957.333 1256,42.6667" style="fill:#000000; stroke:#000000;stroke-width:0"/>
<circle fill="#a64b00" stroke="#a64b00" stroke-width="0" cx="-18.7155" cy="216.224" r="21.3333"/>
<circle fill="#a64b00" stroke="#a64b00" stroke-width="0" cx="32.9959" cy="424.67" r="21.3333"/>
<circle fill="#a64b00" stroke="#a64b00" stroke-width="0" cx="463.082" cy="67.1175" r="21.3333"/>
<circle fill="#a64b00" stroke="#a64b00" stroke-width="0" cx="574.507" cy="245.372" r="21.3333"/>
<circle fill="#a64b00" stroke="#a64b00" stroke-width="0" cx="242.383" cy="382.467" r="21.3333"/>
</svg>
