<?xml version="1.0" encoding="utf-8"?> <!-- Generator: Adobe Illustrator 13.0.0, SVG Export Plug-In . SVG Version: 6.00 Build 14948)  --> <svg version="1.2" baseProfile="tiny" id="Layer_1" xmlns="http://www.w3.org/2000/svg" xmlns:xlink="http://www.w3.org/1999/xlink" x="0px" y="0px" width="512px" height="512px" viewBox="0 0 512 512" xml:space="preserve">
<polygon points="0,0 512,0 512,512 0,512" style="fill:#ffffff; stroke:#000000;stroke-width:0"/>
<polygon points="-120.218,135.261 -99.1357,98.1665 91.8986,206.737 70.8167,243.831" style="fill:#006363; stroke:#000000;stroke-width:0"/>
<circle fill="#006363" stroke="#006363" stroke-width="0" cx="-109.677" cy="116.714" r="21.3333"/>
<circle fill="#006363" stroke="#006363" stroke-width="0" cx="81.3576" cy="225.284" r="21.3333"/>
<polygon points="447.333,232.912 435.444,191.935 643.465,131.58 655.354,172.557" style="fill:#006363; stroke:#000000;stroke-width:0"/>
<circle fill="#006363" stroke="#006363" stroke-width="0" cx="441.389" cy="212.423" r="21.3333"/>
<circle fill="#006363" stroke="#006363" stroke-width="0" cx="649.409" cy="152.068" r="21.3333"/>
<polygon points="1256,469.333 256,1469.33 -744,469.333" style="fill:#000000; stroke:#000000;stroke-width:0"/>
<polygon points="-744,42.6667 256,-957.333 1256,42.6667" style="fill:#000000; stroke:#000000;stroke-width:0"/>
<circle fill="#a64b00" stroke="#a64b00" stroke-width="0" cx="-109.677" cy="116.714" r="21.3333"/>
<circle fill="#a64b00" stroke="#a64b00" stroke-width="0" cx="81.3576" cy="225.284" r="21.3333"/>
<circle fill="#a64b00" stroke="#a64b00" stroke-width="0" cx="441.389" cy="212.423" r="21.3333"/>
<circle fill="#a64b00" stroke="#a64b00" stroke-width="0" cx="649.409" cy="152.068" r="21.3333"/>
<circle fill="#a64b00" stroke="#a64b00" stroke-width="0" cx="248.106" cy="81.7562" r="21.3333"/>
</svg>
