<?xml version="1.0" encoding="utf-8"?> <!-- Generator: Adobe Illustrator 13.0.0, SVG Export Plug-In . SVG Version: 6.00 Build 14948)  --> <svg version="1.2" baseProfile="tiny" id="Layer_1" xmlns="http://www.w3.org/2000/svg" xmlns:xlink="http://www.w3.org/1999/xlink" x="0px" y="0px" width="512px" height="512px" viewBox="0 0 512 512" xml:space="preserve">
<polygon points="0,0 512,0 512,512 0,512" style="fill:#ffffff; stroke:#000000;stroke-width:0"/>
<polygon points="-140.816,124.888 -126.738,84.6114 68.9502,153.013 54.8717,193.29" style="fill:#006363; stroke:#000000;stroke-width:0"/>
<circle fill="#006363" stroke="#006363" stroke-width="0" cx="-133.777" cy="104.75" r="21.3333"/>
<circle fill="#006363" stroke="#006363" stroke-width="0" cx="61.9109" cy="173.151" r="21.3333"/>
<polygon points="572.688,315.954 530.719,308.274 568.585,101.323 610.555,109.003" style="fill:#006363; stroke:#000000;stroke-width:0"/>
<circle fill="#006363" stroke="#006363" stroke-width="0" cx="551.704" cy="312.114" r="21.3333"/>
<circle fill="#006363" stroke="#006363" stroke-width="0" cx="589.57" cy="105.163" r="21.3333"/>
<polygon points="1256,469.333 256,1469.33 -744,469.333" style="fill:#000000; stroke:#000000;stroke-width:0"/>
<polygon points="-744,42.6667 256,-957.333 1256,42.6667" style="fill:#000000; stroke:#000000;stroke-width:0"/>
<circle fill="#a64b00" stroke="#a64b00" stroke-width="0" cx="-133.777" cy="104.75" r="21.3333"/>
<circle fill="#a64b00" stroke="#a64b00" stroke-width="0" cx="61.9109" cy="173.151" r="21.3333"/>
<circle fill="#a64b00" stroke="#a64b00" stroke-width="0" cx="551.704" cy="312.114" r="21.3333"/>
<circle fill="#a64b00" stroke="#a64b00" stroke-width="0" cx="589.57" cy="105.163" r="21.3333"/>
<circle fill="#a64b00" stroke="#a64b00" stroke-width="0" cx="440.573" cy="402.13" r="21.3333"/>
</svg>
