<?xml version="1.0" encoding="utf-8"?> <!-- Generator: Adobe Illustrator 13.0.0, SVG Export Plug-In . SVG Version: 6.00 Build 14948)  --> <svg version="1.2" baseProfile="tiny" id="Layer_1" xmlns="http://www.w3.org/2000/svg" xmlns:xlink="http://www.w3.org/1999/xlink" x="0px" y="0px" width="512px" height="512px" viewBox="0 0 512 512" xml:space="preserve">
<polygon points="0,0 512,0 512,512 0,512" style="fill:#ffffff; stroke:#000000;stroke-width:0"/>
<polygon points="-74.7085,258.6 -77.0509,301.202 -279.428,290.074 -277.086,247.472" style="fill:#006363; stroke:#000000;stroke-width:0"/>
<circle fill="#006363" stroke="#006363" stroke-width="0" cx="-75.8797" cy="279.901" r="21.3333"/>
<circle fill="#006363" stroke="#006363" stroke-width="0" cx="-278.257" cy="268.773" r="21.3333"/>
<polygon points="735.963,294.192 694.657,283.506 748.177,76.6331 789.484,87.3196" style="fill:#006363; stroke:#000000;stroke-width:0"/>
<circle fill="#006363" stroke="#006363" stroke-width="0" cx="715.31" cy="288.849" r="21.3333"/>
<circle fill="#006363" stroke="#006363" stroke-width="0" cx="768.83" cy="81.9763" r="21.3333"/>
<polygon points="1256,469.333 256,1469.33 -744,469.333" style="fill:#000000; stroke:#000000;stroke-width:0"/>
<polygon points="-744,42.6667 256,-957.333 1256,42.6667" style="fill:#000000; stroke:#000000;stroke-width:0"/>
<circle fill="#a64b00" stroke="#a64b00" stroke-width="0" cx="-75.8797" cy="279.901" r="21.3333"/>
<circle fill="#a64b00" stroke="#a64b00" stroke-width="0" cx="-278.257" cy="268.773" r="21.3333"/>
<circle fill="#a64b00" stroke="#a64b00" stroke-width="0" cx="715.31" cy="288.849" r="21.3333"/>
<circle fill="#a64b00" stroke="#a64b00" stroke-width="0" cx="768.83" cy="81.9763" r="21.3333"/>
<circle fill="#a64b00" stroke="#a64b00" stroke-width="0" cx="119.634" cy="154.077" r="21.3333"/>
</svg>
