<?xml version="1.0" encoding="utf-8"?> <!-- Generator: Adobe Illustrator 13.0.0, SVG Export Plug-In . SVG Version: 6.00 Build 14948)  --> <svg version="1.2" baseProfile="tiny" id="Layer_1" xmlns="http://www.w3.org/2000/svg" xmlns:xlink="http://www.w3.org/1999/xlink" x="0px" y="0px" width="512px" height="512px" viewBox="0 0 512 512" xml:space="preserve">
<polygon points="0,0 512,0 512,512 0,512" style="fill:#ffffff; stroke:#000000;stroke-width:0"/>
<polygon points="-105.44,127.434 -63.1489,121.782 -34.6332,335.172 -76.9239,340.823" style="fill:#006363; stroke:#000000;stroke-width:0"/>
<circle fill="#006363" stroke="#006363" stroke-width="0" cx="-84.2943" cy="124.608" r="21.3333"/>
<circle fill="#006363" stroke="#006363" stroke-width="0" cx="-55.7786" cy="337.997" r="21.3333"/>
<polygon points="717.129,231.311 717.219,273.977 506.994,274.42 506.904,231.754" style="fill:#006363; stroke:#000000;stroke-width:0"/>
<circle fill="#006363" stroke="#006363" stroke-width="0" cx="717.174" cy="252.644" r="21.3333"/>
<circle fill="#006363" stroke="#006363" stroke-width="0" cx="506.949" cy="253.087" r="21.3333"/>
<polygon points="1256,469.333 256,1469.33 -744,469.333" style="fill:#000000; stroke:#000000;stroke-width:0"/>
<polygon points="-744,42.6667 256,-957.333 1256,42.6667" style="fill:#000000; stroke:#000000;stroke-width:0"/>
<circle fill="#a64b00" stroke="#a64b00" stroke-width="0" cx="-84.2943" cy="124.608" r="21.3333"/>
<circle fill="#a64b00" stroke="#a64b00" stroke-width="0" cx="-55.7786" cy="337.997" r="21.3333"/>
<circle fill="#a64b00" stroke="#a64b00" stroke-width="0" cx="717.174" cy="252.644" r="21.3333"/>
<circle fill="#a64b00" stroke="#a64b00" stroke-width="0" cx="506.949" cy="253.087" r="21.3333"/>
<circle fill="#a64b00" stroke="#a64b00" stroke-width="0" cx="363.023" cy="173.158" r="21.3333"/>
</svg>
