<?xml version="1.0" encoding="utf-8"?> <!-- Generator: Adobe Illustrator 13.0.0, SVG Export Plug-In . SVG Version: 6.00 Build 14948)  --> <svg version="1.2" baseProfile="tiny" id="Layer_1" xmlns="http://www.w3.org/2000/svg" xmlns:xlink="http://www.w3.org/1999/xlink" x="0px" y="0px" width="512px" height="512px" viewBox="0 0 512 512" xml:space="preserve">
<polygon points="0,0 512,0 512,512 0,512" style="fill:#ffffff; stroke:#000000;stroke-width:0"/>
<polygon points="10.2594,87.0228 52.8857,85.1655 62.0913,296.444 19.4651,298.301" style="fill:#006363; stroke:#000000;stroke-width:0"/>
<circle fill="#006363" stroke="#006363" stroke-width="0" cx="31.5725" cy="86.0941" r="21.3333"/>
<circle fill="#006363" stroke="#006363" stroke-width="0" cx="40.7782" cy="297.373" r="21.3333"/>
<polygon points="454.875,185.77 497.474,183.377 509.497,397.384 466.897,399.777" style="fill:#006363; stroke:#000000;stroke-width:0"/>
<circle fill="#006363" stroke="#006363" stroke-width="0" cx="476.174" cy="184.574" r="21.3333"/>
<circle fill="#006363" stroke="#006363" stroke-width="0" cx="488.197" cy="398.581" r="21.3333"/>
<polygon points="1256,469.333 256,1469.33 -744,469.333" style="fill:#000000; stroke:#000000;stroke-width:0"/>
<polygon points="-744,42.6667 256,-957.333 1256,42.6667" style="fill:#000000; stroke:#000000;stroke-width:0"/>
<circle fill="#a64b00" stroke="#a64b00" stroke-width="0" cx="31.5725" cy="86.0941" r="21.3333"/>
<circle fill="#a64b00" stroke="#a64b00" stroke-width="0" cx="40.7782" cy="297.373" r="21.3333"/>
<circle fill="#a64b00" stroke="#a64b00" stroke-width="0" cx="476.174" cy="184.574" r="21.3333"/>
<circle fill="#a64b00" stroke="#a64b00" stroke-width="0" cx="488.197" cy="398.581" r="21.3333"/>
<circle fill="#a64b00" stroke="#a64b00" stroke-width="0" cx="167.796" cy="275.589" r="21.3333"/>
</svg>
