<?xml version="1.0" encoding="utf-8"?> <!-- Generator: Adobe Illustrator 13.0.0, SVG Export Plug-In . SVG Version: 6.00 Build 14948)  --> <svg version="1.2" baseProfile="tiny" id="Layer_1" xmlns="http://www.w3.org/2000/svg" xmlns:xlink="http://www.w3.org/1999/xlink" x="0px" y="0px" width="512px" height="512px" viewBox="0 0 512 512" xml:space="preserve">
<polygon points="0,0 512,0 512,512 0,512" style="fill:#ffffff; stroke:#000000;stroke-width:0"/>
<polygon points="6.13939,67.1564 48.7338,64.6739 61.5175,284.021 18.9231,286.503" style="fill:#006363; stroke:#000000;stroke-width:0"/>
<circle fill="#006363" stroke="#006363" stroke-width="0" cx="27.4366" cy="65.9151" r="21.3333"/>
<circle fill="#006363" stroke="#006363" stroke-width="0" cx="40.2203" cy="285.262" r="21.3333"/>
<polygon points="456.886,215.564 499.453,212.644 514.168,427.18 471.601,430.1" style="fill:#006363; stroke:#000000;stroke-width:0"/>
<circle fill="#006363" stroke="#006363" stroke-width="0" cx="478.17" cy="214.104" r="21.3333"/>
<circle fill="#006363" stroke="#006363" stroke-width="0" cx="492.885" cy="428.64" r="21.3333"/>
<polygon points="1256,469.333 256,1469.33 -744,469.333" style="fill:#000000; stroke:#000000;stroke-width:0"/>
<polygon points="-744,42.6667 256,-957.333 1256,42.6667" style="fill:#000000; stroke:#000000;stroke-width:0"/>
<circle fill="#a64b00" stroke="#a64b00" stroke-width="0" cx="27.4366" cy="65.9151" r="21.3333"/>
<circle fill="#a64b00" stroke="#a64b00" stroke-width="0" cx="40.2203" cy="285.262" r="21.3333"/>
<circle fill="#a64b00" stroke="#a64b00" stroke-width="0" cx="478.17" cy="214.104" r="21.3333"/>
<circle fill="#a64b00" stroke="#a64b00" stroke-width="0" cx="492.885" cy="428.64" r="21.3333"/>
<circle fill="#a64b00" stroke="#a64b00" stroke-width="0" cx="139.554" cy="305.491" r="21.3333"/>
</svg>
