<?xml version="1.0" encoding="utf-8"?> <!-- Generator: Adobe Illustrator 13.0.0, SVG Export Plug-In . SVG Version: 6.00 Build 14948)  --> <svg version="1.2" baseProfile="tiny" id="Layer_1" xmlns="http://www.w3.org/2000/svg" xmlns:xlink="http://www.w3.org/1999/xlink" x="0px" y="0px" width="512px" height="512px" viewBox="0 0 512 512" xml:space="preserve">
<polygon points="0,0 512,0 512,512 0,512" style="fill:#ffffff; stroke:#000000;stroke-width:0"/>
<polygon points="-143.084,245.311 -131.382,286.342 -345.367,347.37 -357.069,306.339" style="fill:#006363; stroke:#000000;stroke-width:0"/>
<circle fill="#006363" stroke="#006363" stroke-width="0" cx="-137.233" cy="265.827" r="21.3333"/>
<circle fill="#006363" stroke="#006363" stroke-width="0" cx="-351.218" cy="326.854" r="21.3333"/>
<polygon points="747.416,434.593 724.901,398.351 899.872,289.648 922.388,325.89" style="fill:#006363; stroke:#000000;stroke-width:0"/>
<circle fill="#006363" stroke="#006363" stroke-width="0" cx="736.159" cy="416.472" r="21.3333"/>
<circle fill="#006363" stroke="#006363" stroke-width="0" cx="911.13" cy="307.769" r="21.3333"/>
<polygon points="1256,469.333 256,1469.33 -744,469.333" style="fill:#000000; stroke:#000000;stroke-width:0"/>
<polygon points="-744,42.6667 256,-957.333 1256,42.6667" style="fill:#000000; stroke:#000000;stroke-width:0"/>
<circle fill="#a64b00" stroke="#a64b00" stroke-width="0" cx="-137.233" cy="265.827" r="21.3333"/>
<circle fill="#a64b00" stroke="#a64b00" stroke-width="0" cx="-351.218" cy="326.854" r="21.3333"/>
<circle fill="#a64b00" stroke="#a64b00" stroke-width="0" cx="736.159" cy="416.472" r="21.3333"/>
<circle fill="#a64b00" stroke="#a64b00" stroke-width="0" cx="911.13" cy="307.769" r="21.3333"/>
<circle fill="#a64b00" stroke="#a64b00" stroke-width="0" cx="-33.081" cy="249.482" r="21.3333"/>
</svg>
