<?xml version="1.0" encoding="utf-8"?> <!-- Generator: Adobe Illustrator 13.0.0, SVG Export Plug-In . SVG Version: 6.00 Build 14948)  --> <svg version="1.2" baseProfile="tiny" id="Layer_1" xmlns="http://www.w3.org/2000/svg" xmlns:xlink="http://www.w3.org/1999/xlink" x="0px" y="0px" width="512px" height="512px" viewBox="0 0 512 512" xml:space="preserve">
<polygon points="0,0 512,0 512,512 0,512" style="fill:#ffffff; stroke:#000000;stroke-width:0"/>
<polygon points="-139.938,163.53 -110.596,132.555 48.1346,282.916 18.7925,313.891" style="fill:#006363; stroke:#000000;stroke-width:0"/>
<circle fill="#006363" stroke="#006363" stroke-width="0" cx="-125.267" cy="148.043" r="21.3333"/>
<circle fill="#006363" stroke="#006363" stroke-width="0" cx="33.4635" cy="298.403" r="21.3333"/>
<polygon points="638.14,316.854 597.8,330.752 527.352,126.279 567.691,112.38" style="fill:#006363; stroke:#000000;stroke-width:0"/>
<circle fill="#006363" stroke="#006363" stroke-width="0" cx="617.97" cy="323.803" r="21.3333"/>
<circle fill="#006363" stroke="#006363" stroke-width="0" cx="547.521" cy="119.33" r="21.3333"/>
<polygon points="1256,469.333 256,1469.33 -744,469.333" style="fill:#000000; stroke:#000000;stroke-width:0"/>
<polygon points="-744,42.6667 256,-957.333 1256,42.6667" style="fill:#000000; stroke:#000000;stroke-width:0"/>
<circle fill="#a64b00" stroke="#a64b00" stroke-width="0" cx="-125.267" cy="148.043" r="21.3333"/>
<circle fill="#a64b00" stroke="#a64b00" stroke-width="0" cx="33.4635" cy="298.403" r="21.3333"/>
<circle fill="#a64b00" stroke="#a64b00" stroke-width="0" cx="617.97" cy="323.803" r="21.3333"/>
<circle fill="#a64b00" stroke="#a64b00" stroke-width="0" cx="547.521" cy="119.33" r="21.3333"/>
<circle fill="#a64b00" stroke="#a64b00" stroke-width="0" cx="417.905" cy="77.7526" r="21.3333"/>
</svg>
