<?xml version="1.0" encoding="utf-8"?> <!-- Generator: Adobe Illustrator 13.0.0, SVG Export Plug-In . SVG Version: 6.00 Build 14948)  --> <svg version="1.2" baseProfile="tiny" id="Layer_1" xmlns="http://www.w3.org/2000/svg" xmlns:xlink="http://www.w3.org/1999/xlink" x="0px" y="0px" width="512px" height="512px" viewBox="0 0 512 512" xml:space="preserve">
<polygon points="0,0 512,0 512,512 0,512" style="fill:#ffffff; stroke:#000000;stroke-width:0"/>
<polygon points="-142.855,230.709 -133.173,272.262 -338.25,320.046 -347.932,278.492" style="fill:#006363; stroke:#000000;stroke-width:0"/>
<circle fill="#006363" stroke="#006363" stroke-width="0" cx="-138.014" cy="251.485" r="21.3333"/>
<circle fill="#006363" stroke="#006363" stroke-width="0" cx="-343.091" cy="299.269" r="21.3333"/>
<polygon points="747.601,450.451 720.568,417.44 890.766,278.065 917.798,311.075" style="fill:#006363; stroke:#000000;stroke-width:0"/>
<circle fill="#006363" stroke="#006363" stroke-width="0" cx="734.084" cy="433.946" r="21.3333"/>
<circle fill="#006363" stroke="#006363" stroke-width="0" cx="904.282" cy="294.57" r="21.3333"/>
<polygon points="1256,469.333 256,1469.33 -744,469.333" style="fill:#000000; stroke:#000000;stroke-width:0"/>
<polygon points="-744,42.6667 256,-957.333 1256,42.6667" style="fill:#000000; stroke:#000000;stroke-width:0"/>
<circle fill="#a64b00" stroke="#a64b00" stroke-width="0" cx="-138.014" cy="251.485" r="21.3333"/>
<circle fill="#a64b00" stroke="#a64b00" stroke-width="0" cx="-343.091" cy="299.269" r="21.3333"/>
<circle fill="#a64b00" stroke="#a64b00" stroke-width="0" cx="734.084" cy="433.946" r="21.3333"/>
<circle fill="#a64b00" stroke="#a64b00" stroke-width="0" cx="904.282" cy="294.57" r="21.3333"/>
<circle fill="#a64b00" stroke="#a64b00" stroke-width="0" cx="-24.7294" cy="115.915" r="21.3333"/>
</svg>
