<?xml version="1.0" encoding="utf-8"?> <!-- Generator: Adobe Illustrator 13.0.0, SVG Export Plug-In . SVG Version: 6.00 Build 14948)  --> <svg version="1.2" baseProfile="tiny" id="Layer_1" xmlns="http://www.w3.org/2000/svg" xmlns:xlink="http://www.w3.org/1999/xlink" x="0px" y="0px" width="512px" height="512px" viewBox="0 0 512 512" xml:space="preserve">
<polygon points="0,0 512,0 512,512 0,512" style="fill:#ffffff; stroke:#000000;stroke-width:0"/>
<polygon points="-123.891,188.698 -119.411,231.129 -338.327,254.244 -342.807,211.813" style="fill:#006363; stroke:#000000;stroke-width:0"/>
<circle fill="#006363" stroke="#006363" stroke-width="0" cx="-121.651" cy="209.914" r="21.3333"/>
<circle fill="#006363" stroke="#006363" stroke-width="0" cx="-340.567" cy="233.028" r="21.3333"/>
<polygon points="756.8,443.96 723.825,416.885 858.623,252.716 891.598,279.792" style="fill:#006363; stroke:#000000;stroke-width:0"/>
<circle fill="#006363" stroke="#006363" stroke-width="0" cx="740.313" cy="430.422" r="21.3333"/>
<circle fill="#006363" stroke="#006363" stroke-width="0" cx="875.111" cy="266.254" r="21.3333"/>
<polygon points="1256,469.333 256,1469.33 -744,469.333" style="fill:#000000; stroke:#000000;stroke-width:0"/>
<polygon points="-744,42.6667 256,-957.333 1256,42.6667" style="fill:#000000; stroke:#000000;stroke-width:0"/>
<circle fill="#a64b00" stroke="#a64b00" stroke-width="0" cx="-121.651" cy="209.914" r="21.3333"/>
<circle fill="#a64b00" stroke="#a64b00" stroke-width="0" cx="-340.567" cy="233.028" r="21.3333"/>
<circle fill="#a64b00" stroke="#a64b00" stroke-width="0" cx="740.313" cy="430.422" r="21.3333"/>
<circle fill="#a64b00" stroke="#a64b00" stroke-width="0" cx="875.111" cy="266.254" r="21.3333"/>
<circle fill="#a64b00" stroke="#a64b00" stroke-width="0" cx="-3.25392" cy="344.887" r="21.3333"/>
</svg>
