<?xml version="1.0" encoding="utf-8"?> <!-- Generator: Adobe Illustrator 13.0.0, SVG Export Plug-In . SVG Version: 6.00 Build 14948)  --> <svg version="1.2" baseProfile="tiny" id="Layer_1" xmlns="http://www.w3.org/2000/svg" xmlns:xlink="http://www.w3.org/1999/xlink" x="0px" y="0px" width="512px" height="512px" viewBox="0 0 512 512" xml:space="preserve">
<polygon points="0,0 512,0 512,512 0,512" style="fill:#ffffff; stroke:#000000;stroke-width:0"/>
<polygon points="-266.795,331.523 -309.433,329.978 -301.93,122.893 -259.292,124.438" style="fill:#006363; stroke:#000000;stroke-width:0"/>
<circle fill="#006363" stroke="#006363" stroke-width="0" cx="-288.114" cy="330.75" r="21.3333"/>
<circle fill="#006363" stroke="#006363" stroke-width="0" cx="-280.611" cy="123.665" r="21.3333"/>
<polygon points="785.645,269.138 818.238,241.603 959.15,408.398 926.558,435.933" style="fill:#006363; stroke:#000000;stroke-width:0"/>
<circle fill="#006363" stroke="#006363" stroke-width="0" cx="801.941" cy="255.37" r="21.3333"/>
<circle fill="#006363" stroke="#006363" stroke-width="0" cx="942.854" cy="422.165" r="21.3333"/>
<polygon points="1256,469.333 256,1469.33 -744,469.333" style="fill:#000000; stroke:#000000;stroke-width:0"/>
<polygon points="-744,42.6667 256,-957.333 1256,42.6667" style="fill:#000000; stroke:#000000;stroke-width:0"/>
<circle fill="#a64b00" stroke="#a64b00" stroke-width="0" cx="-288.114" cy="330.75" r="21.3333"/>
<circle fill="#a64b00" stroke="#a64b00" stroke-width="0" cx="-280.611" cy="123.665" r="21.3333"/>
<circle fill="#a64b00" stroke="#a64b00" stroke-width="0" cx="801.941" cy="255.37" r="21.3333"/>
<circle fill="#a64b00" stroke="#a64b00" stroke-width="0" cx="942.854" cy="422.165" r="21.3333"/>
<circle fill="#a64b00" stroke="#a64b00" stroke-width="0" cx="-124.352" cy="144.536" r="21.3333"/>
</svg>
