<?xml version="1.0" encoding="utf-8"?> <!-- Generator: Adobe Illustrator 13.0.0, SVG Export Plug-In . SVG Version: 6.00 Build 14948)  --> <svg version="1.2" baseProfile="tiny" id="Layer_1" xmlns="http://www.w3.org/2000/svg" xmlns:xlink="http://www.w3.org/1999/xlink" x="0px" y="0px" width="512px" height="512px" viewBox="0 0 512 512" xml:space="preserve">
<polygon points="0,0 512,0 512,512 0,512" style="fill:#ffffff; stroke:#000000;stroke-width:0"/>
<polygon points="-39.6105,218.088 1.81469,207.87 54.2922,420.628 12.8671,430.846" style="fill:#006363; stroke:#000000;stroke-width:0"/>
<circle fill="#006363" stroke="#006363" stroke-width="0" cx="-18.8979" cy="212.979" r="21.3333"/>
<circle fill="#006363" stroke="#006363" stroke-width="0" cx="33.5797" cy="425.737" r="21.3333"/>
<polygon points="445.534,76.8088 482.011,54.6757 591.523,235.16 555.046,257.293" style="fill:#006363; stroke:#000000;stroke-width:0"/>
<circle fill="#006363" stroke="#006363" stroke-width="0" cx="463.772" cy="65.7422" r="21.3333"/>
<circle fill="#006363" stroke="#006363" stroke-width="0" cx="573.285" cy="246.227" r="21.3333"/>
<polygon points="1256,469.333 256,1469.33 -744,469.333" style="fill:#000000; stroke:#000000;stroke-width:0"/>
<polygon points="-744,42.6667 256,-957.333 1256,42.6667" style="fill:#000000; stroke:#000000;stroke-width:0"/>
<circle fill="#a64b00" stroke="#a64b00" stroke-width="0" cx="-18.8979" cy="212.979" r="21.3333"/>
<circle fill="#a64b00" stroke="#a64b00" stroke-width="0" cx="33.5797" cy="425.737" r="21.3333"/>
<circle fill="#a64b00" stroke="#a64b00" stroke-width="0" cx="463.772" cy="65.7422" r="21.3333"/>
<circle fill="#a64b00" stroke="#a64b00" stroke-width="0" cx="573.285" cy="246.227" r="21.3333"/>
<circle fill="#a64b00" stroke="#a64b00" stroke-width="0" cx="244.793" cy="374.706" r="21.3333"/>
</svg>
