<?xml version="1.0" encoding="utf-8"?> <!-- Generator: Adobe Illustrator 13.0.0, SVG Export Plug-In . SVG Version: 6.00 Build 14948)  --> <svg version="1.2" baseProfile="tiny" id="Layer_1" xmlns="http://www.w3.org/2000/svg" xmlns:xlink="http://www.w3.org/1999/xlink" x="0px" y="0px" width="512px" height="512px" viewBox="0 0 512 512" xml:space="preserve">
<polygon points="0,0 512,0 512,512 0,512" style="fill:#ffffff; stroke:#000000;stroke-width:0"/>
<polygon points="-78.8457,166.346 -73.7543,208.708 -290.506,234.759 -295.598,192.397" style="fill:#006363; stroke:#000000;stroke-width:0"/>
<circle fill="#006363" stroke="#006363" stroke-width="0" cx="-76.3" cy="187.527" r="21.3333"/>
<circle fill="#006363" stroke="#006363" stroke-width="0" cx="-293.052" cy="213.578" r="21.3333"/>
<polygon points="744.326,292.151 703.173,280.886 758.296,79.5226 799.449,90.7881" style="fill:#006363; stroke:#000000;stroke-width:0"/>
<circle fill="#006363" stroke="#006363" stroke-width="0" cx="723.749" cy="286.518" r="21.3333"/>
<circle fill="#006363" stroke="#006363" stroke-width="0" cx="778.873" cy="85.1554" r="21.3333"/>
<polygon points="1256,469.333 256,1469.33 -744,469.333" style="fill:#000000; stroke:#000000;stroke-width:0"/>
<polygon points="-744,42.6667 256,-957.333 1256,42.6667" style="fill:#000000; stroke:#000000;stroke-width:0"/>
<circle fill="#a64b00" stroke="#a64b00" stroke-width="0" cx="-76.3" cy="187.527" r="21.3333"/>
<circle fill="#a64b00" stroke="#a64b00" stroke-width="0" cx="-293.052" cy="213.578" r="21.3333"/>
<circle fill="#a64b00" stroke="#a64b00" stroke-width="0" cx="723.749" cy="286.518" r="21.3333"/>
<circle fill="#a64b00" stroke="#a64b00" stroke-width="0" cx="778.873" cy="85.1554" r="21.3333"/>
<circle fill="#a64b00" stroke="#a64b00" stroke-width="0" cx="102.334" cy="430.752" r="21.3333"/>
</svg>
