<?xml version="1.0" encoding="utf-8"?> <!-- Generator: Adobe Illustrator 13.0.0, SVG Export Plug-In . SVG Version: 6.00 Build 14948)  --> <svg version="1.2" baseProfile="tiny" id="Layer_1" xmlns="http://www.w3.org/2000/svg" xmlns:xlink="http://www.w3.org/1999/xlink" x="0px" y="0px" width="512px" height="512px" viewBox="0 0 512 512" xml:space="preserve">
<polygon points="0,0 512,0 512,512 0,512" style="fill:#ffffff; stroke:#000000;stroke-width:0"/>
<polygon points="-326.369,290.362 -363.023,268.523 -252.849,83.6041 -216.195,105.442" style="fill:#006363; stroke:#000000;stroke-width:0"/>
<circle fill="#006363" stroke="#006363" stroke-width="0" cx="-344.696" cy="279.443" r="21.3333"/>
<circle fill="#006363" stroke="#006363" stroke-width="0" cx="-234.522" cy="94.5233" r="21.3333"/>
<polygon points="809.382,256.375 846.519,235.368 948.159,415.055 911.022,436.062" style="fill:#006363; stroke:#000000;stroke-width:0"/>
<circle fill="#006363" stroke="#006363" stroke-width="0" cx="827.951" cy="245.872" r="21.3333"/>
<circle fill="#006363" stroke="#006363" stroke-width="0" cx="929.59" cy="425.558" r="21.3333"/>
<polygon points="1256,469.333 256,1469.33 -744,469.333" style="fill:#000000; stroke:#000000;stroke-width:0"/>
<polygon points="-744,42.6667 256,-957.333 1256,42.6667" style="fill:#000000; stroke:#000000;stroke-width:0"/>
<circle fill="#a64b00" stroke="#a64b00" stroke-width="0" cx="-344.696" cy="279.443" r="21.3333"/>
<circle fill="#a64b00" stroke="#a64b00" stroke-width="0" cx="-234.522" cy="94.5233" r="21.3333"/>
<circle fill="#a64b00" stroke="#a64b00" stroke-width="0" cx="827.951" cy="245.872" r="21.3333"/>
<circle fill="#a64b00" stroke="#a64b00" stroke-width="0" cx="929.59" cy="425.558" r="21.3333"/>
<circle fill="#a64b00" stroke="#a64b00" stroke-width="0" cx="-136.283" cy="335.347" r="21.3333"/>
</svg>
