<?xml version="1.0" encoding="utf-8"?> <!-- Generator: Adobe Illustrator 13.0.0, SVG Export Plug-In . SVG Version: 6.00 Build 14948)  --> <svg version="1.2" baseProfile="tiny" id="Layer_1" xmlns="http://www.w3.org/2000/svg" xmlns:xlink="http://www.w3.org/1999/xlink" x="0px" y="0px" width="512px" height="512px" viewBox="0 0 512 512" xml:space="preserve">
<polygon points="0,0 512,0 512,512 0,512" style="fill:#ffffff; stroke:#000000;stroke-width:0"/>
<polygon points="-110.649,140.403 -112.473,183.031 -329.009,173.763 -327.184,131.136" style="fill:#006363; stroke:#000000;stroke-width:0"/>
<circle fill="#006363" stroke="#006363" stroke-width="0" cx="-111.561" cy="161.717" r="21.3333"/>
<circle fill="#006363" stroke="#006363" stroke-width="0" cx="-328.096" cy="152.449" r="21.3333"/>
<polygon points="752.475,410.115 716.914,386.539 835.545,207.606 871.106,231.182" style="fill:#006363; stroke:#000000;stroke-width:0"/>
<circle fill="#006363" stroke="#006363" stroke-width="0" cx="734.694" cy="398.327" r="21.3333"/>
<circle fill="#006363" stroke="#006363" stroke-width="0" cx="853.325" cy="219.394" r="21.3333"/>
<polygon points="1256,469.333 256,1469.33 -744,469.333" style="fill:#000000; stroke:#000000;stroke-width:0"/>
<polygon points="-744,42.6667 256,-957.333 1256,42.6667" style="fill:#000000; stroke:#000000;stroke-width:0"/>
<circle fill="#a64b00" stroke="#a64b00" stroke-width="0" cx="-111.561" cy="161.717" r="21.3333"/>
<circle fill="#a64b00" stroke="#a64b00" stroke-width="0" cx="-328.096" cy="152.449" r="21.3333"/>
<circle fill="#a64b00" stroke="#a64b00" stroke-width="0" cx="734.694" cy="398.327" r="21.3333"/>
<circle fill="#a64b00" stroke="#a64b00" stroke-width="0" cx="853.325" cy="219.394" r="21.3333"/>
<circle fill="#a64b00" stroke="#a64b00" stroke-width="0" cx="22.3974" cy="144.536" r="21.3333"/>
</svg>
