<?xml version="1.0" encoding="utf-8"?> <!-- Generator: Adobe Illustrator 13.0.0, SVG Export Plug-In . SVG Version: 6.00 Build 14948)  --> <svg version="1.2" baseProfile="tiny" id="Layer_1" xmlns="http://www.w3.org/2000/svg" xmlns:xlink="http://www.w3.org/1999/xlink" x="0px" y="0px" width="512px" height="512px" viewBox="0 0 512 512" xml:space="preserve">
<polygon points="0,0 512,0 512,512 0,512" style="fill:#ffffff; stroke:#000000;stroke-width:0"/>
<polygon points="-172.455,326.072 -154.306,364.686 -353.248,458.187 -371.396,419.573" style="fill:#006363; stroke:#000000;stroke-width:0"/>
<circle fill="#006363" stroke="#006363" stroke-width="0" cx="-163.381" cy="345.379" r="21.3333"/>
<circle fill="#006363" stroke="#006363" stroke-width="0" cx="-362.322" cy="438.88" r="21.3333"/>
<polygon points="739.067,361.277 743.603,318.853 953.47,341.29 948.934,383.715" style="fill:#006363; stroke:#000000;stroke-width:0"/>
<circle fill="#006363" stroke="#006363" stroke-width="0" cx="741.335" cy="340.065" r="21.3333"/>
<circle fill="#006363" stroke="#006363" stroke-width="0" cx="951.202" cy="362.502" r="21.3333"/>
<polygon points="1256,469.333 256,1469.33 -744,469.333" style="fill:#000000; stroke:#000000;stroke-width:0"/>
<polygon points="-744,42.6667 256,-957.333 1256,42.6667" style="fill:#000000; stroke:#000000;stroke-width:0"/>
<circle fill="#a64b00" stroke="#a64b00" stroke-width="0" cx="-163.381" cy="345.379" r="21.3333"/>
<circle fill="#a64b00" stroke="#a64b00" stroke-width="0" cx="-362.322" cy="438.88" r="21.3333"/>
<circle fill="#a64b00" stroke="#a64b00" stroke-width="0" cx="741.335" cy="340.065" r="21.3333"/>
<circle fill="#a64b00" stroke="#a64b00" stroke-width="0" cx="951.202" cy="362.502" r="21.3333"/>
<circle fill="#a64b00" stroke="#a64b00" stroke-width="0" cx="-75.4355" cy="144.536" r="21.3333"/>
</svg>
