<?xml version="1.0" encoding="utf-8"?> <!-- Generator: Adobe Illustrator 13.0.0, SVG Export Plug-In . SVG Version: 6.00 Build 14948)  --> <svg version="1.2" baseProfile="tiny" id="Layer_1" xmlns="http://www.w3.org/2000/svg" xmlns:xlink="http://www.w3.org/1999/xlink" x="0px" y="0px" width="512px" height="512px" viewBox="0 0 512 512" xml:space="preserve">
<polygon points="0,0 512,0 512,512 0,512" style="fill:#ffffff; stroke:#000000;stroke-width:0"/>
<polygon points="-114.821,144.791 -90.8725,109.479 90.6993,232.622 66.7508,267.934" style="fill:#006363; stroke:#000000;stroke-width:0"/>
<circle fill="#006363" stroke="#006363" stroke-width="0" cx="-102.847" cy="127.135" r="21.3333"/>
<circle fill="#006363" stroke="#006363" stroke-width="0" cx="78.725" cy="250.278" r="21.3333"/>
<polygon points="440.678,220.362 433.099,178.374 645.863,139.969 653.442,181.957" style="fill:#006363; stroke:#000000;stroke-width:0"/>
<circle fill="#006363" stroke="#006363" stroke-width="0" cx="436.889" cy="199.368" r="21.3333"/>
<circle fill="#006363" stroke="#006363" stroke-width="0" cx="649.653" cy="160.963" r="21.3333"/>
<polygon points="1256,469.333 256,1469.33 -744,469.333" style="fill:#000000; stroke:#000000;stroke-width:0"/>
<polygon points="-744,42.6667 256,-957.333 1256,42.6667" style="fill:#000000; stroke:#000000;stroke-width:0"/>
<circle fill="#a64b00" stroke="#a64b00" stroke-width="0" cx="-102.847" cy="127.135" r="21.3333"/>
<circle fill="#a64b00" stroke="#a64b00" stroke-width="0" cx="78.725" cy="250.278" r="21.3333"/>
<circle fill="#a64b00" stroke="#a64b00" stroke-width="0" cx="436.889" cy="199.368" r="21.3333"/>
<circle fill="#a64b00" stroke="#a64b00" stroke-width="0" cx="649.653" cy="160.963" r="21.3333"/>
<circle fill="#a64b00" stroke="#a64b00" stroke-width="0" cx="168.711" cy="133.748" r="21.3333"/>
</svg>
