<?xml version="1.0" encoding="utf-8"?> <!-- Generator: Adobe Illustrator 13.0.0, SVG Export Plug-In . SVG Version: 6.00 Build 14948)  --> <svg version="1.2" baseProfile="tiny" id="Layer_1" xmlns="http://www.w3.org/2000/svg" xmlns:xlink="http://www.w3.org/1999/xlink" x="0px" y="0px" width="512px" height="512px" viewBox="0 0 512 512" xml:space="preserve">
<polygon points="0,0 512,0 512,512 0,512" style="fill:#ffffff; stroke:#000000;stroke-width:0"/>
<polygon points="-128.104,190.257 -123.483,232.673 -334.638,255.68 -339.26,213.264" style="fill:#006363; stroke:#000000;stroke-width:0"/>
<circle fill="#006363" stroke="#006363" stroke-width="0" cx="-125.793" cy="211.465" r="21.3333"/>
<circle fill="#006363" stroke="#006363" stroke-width="0" cx="-336.949" cy="234.472" r="21.3333"/>
<polygon points="755.416,446.553 722.504,419.4 860.645,251.96 893.557,279.112" style="fill:#006363; stroke:#000000;stroke-width:0"/>
<circle fill="#006363" stroke="#006363" stroke-width="0" cx="738.96" cy="432.976" r="21.3333"/>
<circle fill="#006363" stroke="#006363" stroke-width="0" cx="877.101" cy="265.536" r="21.3333"/>
<polygon points="1256,469.333 256,1469.33 -744,469.333" style="fill:#000000; stroke:#000000;stroke-width:0"/>
<polygon points="-744,42.6667 256,-957.333 1256,42.6667" style="fill:#000000; stroke:#000000;stroke-width:0"/>
<circle fill="#a64b00" stroke="#a64b00" stroke-width="0" cx="-125.793" cy="211.465" r="21.3333"/>
<circle fill="#a64b00" stroke="#a64b00" stroke-width="0" cx="-336.949" cy="234.472" r="21.3333"/>
<circle fill="#a64b00" stroke="#a64b00" stroke-width="0" cx="738.96" cy="432.976" r="21.3333"/>
<circle fill="#a64b00" stroke="#a64b00" stroke-width="0" cx="877.101" cy="265.536" r="21.3333"/>
<circle fill="#a64b00" stroke="#a64b00" stroke-width="0" cx="-3.85046" cy="335.347" r="21.3333"/>
</svg>
