<?xml version="1.0" encoding="utf-8"?> <!-- Generator: Adobe Illustrator 13.0.0, SVG Export Plug-In . SVG Version: 6.00 Build 14948)  --> <svg version="1.2" baseProfile="tiny" id="Layer_1" xmlns="http://www.w3.org/2000/svg" xmlns:xlink="http://www.w3.org/1999/xlink" x="0px" y="0px" width="512px" height="512px" viewBox="0 0 512 512" xml:space="preserve">
<polygon points="0,0 512,0 512,512 0,512" style="fill:#ffffff; stroke:#000000;stroke-width:0"/>
<polygon points="-62.6471,335.327 -71.037,377.161 -278.897,335.474 -270.508,293.64" style="fill:#006363; stroke:#000000;stroke-width:0"/>
<circle fill="#006363" stroke="#006363" stroke-width="0" cx="-66.8421" cy="356.244" r="21.3333"/>
<circle fill="#006363" stroke="#006363" stroke-width="0" cx="-274.702" cy="314.557" r="21.3333"/>
<polygon points="719.744,335.62 679.352,321.875 749.101,116.899 789.493,130.644" style="fill:#006363; stroke:#000000;stroke-width:0"/>
<circle fill="#006363" stroke="#006363" stroke-width="0" cx="699.548" cy="328.748" r="21.3333"/>
<circle fill="#006363" stroke="#006363" stroke-width="0" cx="769.297" cy="123.771" r="21.3333"/>
<polygon points="1256,469.333 256,1469.33 -744,469.333" style="fill:#000000; stroke:#000000;stroke-width:0"/>
<polygon points="-744,42.6667 256,-957.333 1256,42.6667" style="fill:#000000; stroke:#000000;stroke-width:0"/>
<circle fill="#a64b00" stroke="#a64b00" stroke-width="0" cx="-66.8421" cy="356.244" r="21.3333"/>
<circle fill="#a64b00" stroke="#a64b00" stroke-width="0" cx="-274.702" cy="314.557" r="21.3333"/>
<circle fill="#a64b00" stroke="#a64b00" stroke-width="0" cx="699.548" cy="328.748" r="21.3333"/>
<circle fill="#a64b00" stroke="#a64b00" stroke-width="0" cx="769.297" cy="123.771" r="21.3333"/>
<circle fill="#a64b00" stroke="#a64b00" stroke-width="0" cx="133.951" cy="192.239" r="21.3333"/>
</svg>
