<?xml version="1.0" encoding="utf-8"?> <!-- Generator: Adobe Illustrator 13.0.0, SVG Export Plug-In . SVG Version: 6.00 Build 14948)  --> <svg version="1.2" baseProfile="tiny" id="Layer_1" xmlns="http://www.w3.org/2000/svg" xmlns:xlink="http://www.w3.org/1999/xlink" x="0px" y="0px" width="512px" height="512px" viewBox="0 0 512 512" xml:space="preserve">
<polygon points="0,0 512,0 512,512 0,512" style="fill:#ffffff; stroke:#000000;stroke-width:0"/>
<polygon points="-202.12,391.829 -207.005,349.443 -3.53658,325.991 1.34894,368.377" style="fill:#006363; stroke:#000000;stroke-width:0"/>
<circle fill="#006363" stroke="#006363" stroke-width="0" cx="-204.562" cy="370.636" r="21.3333"/>
<circle fill="#006363" stroke="#006363" stroke-width="0" cx="-1.09382" cy="347.184" r="21.3333"/>
<polygon points="617.981,190.66 660.35,185.632 685.804,400.123 643.435,405.151" style="fill:#006363; stroke:#000000;stroke-width:0"/>
<circle fill="#006363" stroke="#006363" stroke-width="0" cx="639.165" cy="188.146" r="21.3333"/>
<circle fill="#006363" stroke="#006363" stroke-width="0" cx="664.619" cy="402.637" r="21.3333"/>
<polygon points="1256,469.333 256,1469.33 -744,469.333" style="fill:#000000; stroke:#000000;stroke-width:0"/>
<polygon points="-744,42.6667 256,-957.333 1256,42.6667" style="fill:#000000; stroke:#000000;stroke-width:0"/>
<circle fill="#a64b00" stroke="#a64b00" stroke-width="0" cx="-204.562" cy="370.636" r="21.3333"/>
<circle fill="#a64b00" stroke="#a64b00" stroke-width="0" cx="-1.09382" cy="347.184" r="21.3333"/>
<circle fill="#a64b00" stroke="#a64b00" stroke-width="0" cx="639.165" cy="188.146" r="21.3333"/>
<circle fill="#a64b00" stroke="#a64b00" stroke-width="0" cx="664.619" cy="402.637" r="21.3333"/>
<circle fill="#a64b00" stroke="#a64b00" stroke-width="0" cx="288.455" cy="316.266" r="21.3333"/>
</svg>
