<?xml version="1.0" encoding="utf-8"?> <!-- Generator: Adobe Illustrator 13.0.0, SVG Export Plug-In . SVG Version: 6.00 Build 14948)  --> <svg version="1.2" baseProfile="tiny" id="Layer_1" xmlns="http://www.w3.org/2000/svg" xmlns:xlink="http://www.w3.org/1999/xlink" x="0px" y="0px" width="512px" height="512px" viewBox="0 0 512 512" xml:space="preserve">
<polygon points="0,0 512,0 512,512 0,512" style="fill:#ffffff; stroke:#000000;stroke-width:0"/>
<polygon points="-97.0126,51.9985 -88.361,93.7788 -299.622,137.525 -308.274,95.7448" style="fill:#006363; stroke:#000000;stroke-width:0"/>
<circle fill="#006363" stroke="#006363" stroke-width="0" cx="-92.6868" cy="72.8887" r="21.3333"/>
<circle fill="#006363" stroke="#006363" stroke-width="0" cx="-303.948" cy="116.635" r="21.3333"/>
<polygon points="747.752,338.505 708.298,322.262 788.009,128.649 827.463,144.893" style="fill:#006363; stroke:#000000;stroke-width:0"/>
<circle fill="#006363" stroke="#006363" stroke-width="0" cx="728.025" cy="330.383" r="21.3333"/>
<circle fill="#006363" stroke="#006363" stroke-width="0" cx="807.736" cy="136.771" r="21.3333"/>
<polygon points="1256,469.333 256,1469.33 -744,469.333" style="fill:#000000; stroke:#000000;stroke-width:0"/>
<polygon points="-744,42.6667 256,-957.333 1256,42.6667" style="fill:#000000; stroke:#000000;stroke-width:0"/>
<circle fill="#a64b00" stroke="#a64b00" stroke-width="0" cx="-92.6868" cy="72.8887" r="21.3333"/>
<circle fill="#a64b00" stroke="#a64b00" stroke-width="0" cx="-303.948" cy="116.635" r="21.3333"/>
<circle fill="#a64b00" stroke="#a64b00" stroke-width="0" cx="728.025" cy="330.383" r="21.3333"/>
<circle fill="#a64b00" stroke="#a64b00" stroke-width="0" cx="807.736" cy="136.771" r="21.3333"/>
<circle fill="#a64b00" stroke="#a64b00" stroke-width="0" cx="71.3138" cy="144.536" r="21.3333"/>
</svg>
