<?xml version="1.0" encoding="utf-8"?> <!-- Generator: Adobe Illustrator 13.0.0, SVG Export Plug-In . SVG Version: 6.00 Build 14948)  --> <svg version="1.2" baseProfile="tiny" id="Layer_1" xmlns="http://www.w3.org/2000/svg" xmlns:xlink="http://www.w3.org/1999/xlink" x="0px" y="0px" width="512px" height="512px" viewBox="0 0 512 512" xml:space="preserve">
<polygon points="0,0 512,0 512,512 0,512" style="fill:#ffffff; stroke:#000000;stroke-width:0"/>
<polygon points="-15.9099,148.787 26.2774,142.409 57.0793,346.16 14.892,352.537" style="fill:#006363; stroke:#000000;stroke-width:0"/>
<circle fill="#006363" stroke="#006363" stroke-width="0" cx="5.18371" cy="145.598" r="21.3333"/>
<circle fill="#006363" stroke="#006363" stroke-width="0" cx="35.9856" cy="349.349" r="21.3333"/>
<polygon points="451.577,164.702 492.652,153.156 550.362,358.474 509.287,370.019" style="fill:#006363; stroke:#000000;stroke-width:0"/>
<circle fill="#006363" stroke="#006363" stroke-width="0" cx="472.115" cy="158.929" r="21.3333"/>
<circle fill="#006363" stroke="#006363" stroke-width="0" cx="529.824" cy="364.247" r="21.3333"/>
<polygon points="1256,469.333 256,1469.33 -744,469.333" style="fill:#000000; stroke:#000000;stroke-width:0"/>
<polygon points="-744,42.6667 256,-957.333 1256,42.6667" style="fill:#000000; stroke:#000000;stroke-width:0"/>
<circle fill="#a64b00" stroke="#a64b00" stroke-width="0" cx="5.18371" cy="145.598" r="21.3333"/>
<circle fill="#a64b00" stroke="#a64b00" stroke-width="0" cx="35.9856" cy="349.349" r="21.3333"/>
<circle fill="#a64b00" stroke="#a64b00" stroke-width="0" cx="472.115" cy="158.929" r="21.3333"/>
<circle fill="#a64b00" stroke="#a64b00" stroke-width="0" cx="529.824" cy="364.247" r="21.3333"/>
<circle fill="#a64b00" stroke="#a64b00" stroke-width="0" cx="403.823" cy="250.538" r="21.3333"/>
</svg>
