<?xml version="1.0" encoding="utf-8"?> <!-- Generator: Adobe Illustrator 13.0.0, SVG Export Plug-In . SVG Version: 6.00 Build 14948)  --> <svg version="1.2" baseProfile="tiny" id="Layer_1" xmlns="http://www.w3.org/2000/svg" xmlns:xlink="http://www.w3.org/1999/xlink" x="0px" y="0px" width="512px" height="512px" viewBox="0 0 512 512" xml:space="preserve">
<polygon points="0,0 512,0 512,512 0,512" style="fill:#ffffff; stroke:#000000;stroke-width:0"/>
<polygon points="19.1671,197.327 61.8323,196.967 63.6534,412.806 20.9883,413.166" style="fill:#006363; stroke:#000000;stroke-width:0"/>
<circle fill="#006363" stroke="#006363" stroke-width="0" cx="40.4997" cy="197.147" r="21.3333"/>
<circle fill="#006363" stroke="#006363" stroke-width="0" cx="42.3209" cy="412.986" r="21.3333"/>
<polygon points="450.624,92.8596 493.281,91.9922 497.59,303.91 454.933,304.778" style="fill:#006363; stroke:#000000;stroke-width:0"/>
<circle fill="#006363" stroke="#006363" stroke-width="0" cx="471.952" cy="92.4259" r="21.3333"/>
<circle fill="#006363" stroke="#006363" stroke-width="0" cx="476.262" cy="304.344" r="21.3333"/>
<polygon points="1256,469.333 256,1469.33 -744,469.333" style="fill:#000000; stroke:#000000;stroke-width:0"/>
<polygon points="-744,42.6667 256,-957.333 1256,42.6667" style="fill:#000000; stroke:#000000;stroke-width:0"/>
<circle fill="#a64b00" stroke="#a64b00" stroke-width="0" cx="40.4997" cy="197.147" r="21.3333"/>
<circle fill="#a64b00" stroke="#a64b00" stroke-width="0" cx="42.3209" cy="412.986" r="21.3333"/>
<circle fill="#a64b00" stroke="#a64b00" stroke-width="0" cx="471.952" cy="92.4259" r="21.3333"/>
<circle fill="#a64b00" stroke="#a64b00" stroke-width="0" cx="476.262" cy="304.344" r="21.3333"/>
<circle fill="#a64b00" stroke="#a64b00" stroke-width="0" cx="203.205" cy="256" r="21.3333"/>
</svg>
