<?xml version="1.0" encoding="utf-8"?> <!-- Generator: Adobe Illustrator 13.0.0, SVG Export Plug-In . SVG Version: 6.00 Build 14948)  --> <svg version="1.2" baseProfile="tiny" id="Layer_1" xmlns="http://www.w3.org/2000/svg" xmlns:xlink="http://www.w3.org/1999/xlink" x="0px" y="0px" width="512px" height="512px" viewBox="0 0 512 512" xml:space="preserve">
<polygon points="0,0 512,0 512,512 0,512" style="fill:#ffffff; stroke:#000000;stroke-width:0"/>
<polygon points="-132.356,204.924 -125.802,247.084 -337.207,279.945 -343.761,237.785" style="fill:#006363; stroke:#000000;stroke-width:0"/>
<circle fill="#006363" stroke="#006363" stroke-width="0" cx="-129.079" cy="226.004" r="21.3333"/>
<circle fill="#006363" stroke="#006363" stroke-width="0" cx="-340.484" cy="258.865" r="21.3333"/>
<polygon points="759.023,454.093 726.955,425.949 865.323,268.289 897.391,296.433" style="fill:#006363; stroke:#000000;stroke-width:0"/>
<circle fill="#006363" stroke="#006363" stroke-width="0" cx="742.989" cy="440.021" r="21.3333"/>
<circle fill="#006363" stroke="#006363" stroke-width="0" cx="881.357" cy="282.361" r="21.3333"/>
<polygon points="1256,469.333 256,1469.33 -744,469.333" style="fill:#000000; stroke:#000000;stroke-width:0"/>
<polygon points="-744,42.6667 256,-957.333 1256,42.6667" style="fill:#000000; stroke:#000000;stroke-width:0"/>
<circle fill="#a64b00" stroke="#a64b00" stroke-width="0" cx="-129.079" cy="226.004" r="21.3333"/>
<circle fill="#a64b00" stroke="#a64b00" stroke-width="0" cx="-340.484" cy="258.865" r="21.3333"/>
<circle fill="#a64b00" stroke="#a64b00" stroke-width="0" cx="742.989" cy="440.021" r="21.3333"/>
<circle fill="#a64b00" stroke="#a64b00" stroke-width="0" cx="881.357" cy="282.361" r="21.3333"/>
<circle fill="#a64b00" stroke="#a64b00" stroke-width="0" cx="-11.6055" cy="211.32" r="21.3333"/>
</svg>
