<?xml version="1.0" encoding="utf-8"?> <!-- Generator: Adobe Illustrator 13.0.0, SVG Export Plug-In . SVG Version: 6.00 Build 14948)  --> <svg version="1.2" baseProfile="tiny" id="Layer_1" xmlns="http://www.w3.org/2000/svg" xmlns:xlink="http://www.w3.org/1999/xlink" x="0px" y="0px" width="512px" height="512px" viewBox="0 0 512 512" xml:space="preserve">
<polygon points="0,0 512,0 512,512 0,512" style="fill:#ffffff; stroke:#000000;stroke-width:0"/>
<polygon points="-157.712,341.826 -166.583,383.56 -381.632,337.848 -372.761,296.114" style="fill:#006363; stroke:#000000;stroke-width:0"/>
<circle fill="#006363" stroke="#006363" stroke-width="0" cx="-162.147" cy="362.693" r="21.3333"/>
<circle fill="#006363" stroke="#006363" stroke-width="0" cx="-377.196" cy="316.981" r="21.3333"/>
<polygon points="748.265,331.359 762.849,291.262 960.841,363.272 946.258,403.369" style="fill:#006363; stroke:#000000;stroke-width:0"/>
<circle fill="#006363" stroke="#006363" stroke-width="0" cx="755.557" cy="311.31" r="21.3333"/>
<circle fill="#006363" stroke="#006363" stroke-width="0" cx="953.549" cy="383.32" r="21.3333"/>
<polygon points="1256,469.333 256,1469.33 -744,469.333" style="fill:#000000; stroke:#000000;stroke-width:0"/>
<polygon points="-744,42.6667 256,-957.333 1256,42.6667" style="fill:#000000; stroke:#000000;stroke-width:0"/>
<circle fill="#a64b00" stroke="#a64b00" stroke-width="0" cx="-162.147" cy="362.693" r="21.3333"/>
<circle fill="#a64b00" stroke="#a64b00" stroke-width="0" cx="-377.196" cy="316.981" r="21.3333"/>
<circle fill="#a64b00" stroke="#a64b00" stroke-width="0" cx="755.557" cy="311.31" r="21.3333"/>
<circle fill="#a64b00" stroke="#a64b00" stroke-width="0" cx="953.549" cy="383.32" r="21.3333"/>
<circle fill="#a64b00" stroke="#a64b00" stroke-width="0" cx="-90.9456" cy="392.59" r="21.3333"/>
</svg>
