<?xml version="1.0" encoding="utf-8"?> <!-- Generator: Adobe Illustrator 13.0.0, SVG Export Plug-In . SVG Version: 6.00 Build 14948)  --> <svg version="1.2" baseProfile="tiny" id="Layer_1" xmlns="http://www.w3.org/2000/svg" xmlns:xlink="http://www.w3.org/1999/xlink" x="0px" y="0px" width="512px" height="512px" viewBox="0 0 512 512" xml:space="preserve">
<polygon points="0,0 512,0 512,512 0,512" style="fill:#ffffff; stroke:#000000;stroke-width:0"/>
<polygon points="-146.052,126.086 -130.626,86.3062 72.6119,165.121 57.1853,204.901" style="fill:#006363; stroke:#000000;stroke-width:0"/>
<circle fill="#006363" stroke="#006363" stroke-width="0" cx="-138.339" cy="106.196" r="21.3333"/>
<circle fill="#006363" stroke="#006363" stroke-width="0" cx="64.8986" cy="185.011" r="21.3333"/>
<polygon points="577.61,319.568 535.363,313.6 565.576,99.7497 607.823,105.719" style="fill:#006363; stroke:#000000;stroke-width:0"/>
<circle fill="#006363" stroke="#006363" stroke-width="0" cx="556.486" cy="316.584" r="21.3333"/>
<circle fill="#006363" stroke="#006363" stroke-width="0" cx="586.7" cy="102.734" r="21.3333"/>
<polygon points="1256,469.333 256,1469.33 -744,469.333" style="fill:#000000; stroke:#000000;stroke-width:0"/>
<polygon points="-744,42.6667 256,-957.333 1256,42.6667" style="fill:#000000; stroke:#000000;stroke-width:0"/>
<circle fill="#a64b00" stroke="#a64b00" stroke-width="0" cx="-138.339" cy="106.196" r="21.3333"/>
<circle fill="#a64b00" stroke="#a64b00" stroke-width="0" cx="64.8986" cy="185.011" r="21.3333"/>
<circle fill="#a64b00" stroke="#a64b00" stroke-width="0" cx="556.486" cy="316.584" r="21.3333"/>
<circle fill="#a64b00" stroke="#a64b00" stroke-width="0" cx="586.7" cy="102.734" r="21.3333"/>
<circle fill="#a64b00" stroke="#a64b00" stroke-width="0" cx="438.784" cy="373.509" r="21.3333"/>
</svg>
