<?xml version="1.0" encoding="utf-8"?> <!-- Generator: Adobe Illustrator 13.0.0, SVG Export Plug-In . SVG Version: 6.00 Build 14948)  --> <svg version="1.2" baseProfile="tiny" id="Layer_1" xmlns="http://www.w3.org/2000/svg" xmlns:xlink="http://www.w3.org/1999/xlink" x="0px" y="0px" width="512px" height="512px" viewBox="0 0 512 512" xml:space="preserve">
<polygon points="0,0 512,0 512,512 0,512" style="fill:#ffffff; stroke:#000000;stroke-width:0"/>
<polygon points="-95.6159,98.3304 -85.0542,139.669 -285.279,190.825 -295.84,149.486" style="fill:#006363; stroke:#000000;stroke-width:0"/>
<circle fill="#006363" stroke="#006363" stroke-width="0" cx="-90.335" cy="119" r="21.3333"/>
<circle fill="#006363" stroke="#006363" stroke-width="0" cx="-290.56" cy="170.156" r="21.3333"/>
<polygon points="744.201,316.58 703.695,303.173 772.442,95.489 812.947,108.897" style="fill:#006363; stroke:#000000;stroke-width:0"/>
<circle fill="#006363" stroke="#006363" stroke-width="0" cx="723.948" cy="309.877" r="21.3333"/>
<circle fill="#006363" stroke="#006363" stroke-width="0" cx="792.694" cy="102.193" r="21.3333"/>
<polygon points="1256,469.333 256,1469.33 -744,469.333" style="fill:#000000; stroke:#000000;stroke-width:0"/>
<polygon points="-744,42.6667 256,-957.333 1256,42.6667" style="fill:#000000; stroke:#000000;stroke-width:0"/>
<circle fill="#a64b00" stroke="#a64b00" stroke-width="0" cx="-90.335" cy="119" r="21.3333"/>
<circle fill="#a64b00" stroke="#a64b00" stroke-width="0" cx="-290.56" cy="170.156" r="21.3333"/>
<circle fill="#a64b00" stroke="#a64b00" stroke-width="0" cx="723.948" cy="309.877" r="21.3333"/>
<circle fill="#a64b00" stroke="#a64b00" stroke-width="0" cx="792.694" cy="102.193" r="21.3333"/>
<circle fill="#a64b00" stroke="#a64b00" stroke-width="0" cx="89.2101" cy="259.023" r="21.3333"/>
</svg>
