<?xml version="1.0" encoding="utf-8"?> <!-- Generator: Adobe Illustrator 13.0.0, SVG Export Plug-In . SVG Version: 6.00 Build 14948)  --> <svg version="1.2" baseProfile="tiny" id="Layer_1" xmlns="http://www.w3.org/2000/svg" xmlns:xlink="http://www.w3.org/1999/xlink" x="0px" y="0px" width="512px" height="512px" viewBox="0 0 512 512" xml:space="preserve">
<polygon points="0,0 512,0 512,512 0,512" style="fill:#ffffff; stroke:#000000;stroke-width:0"/>
<polygon points="-381,201.873 -399.012,163.194 -210.81,75.5535 -192.798,114.232" style="fill:#006363; stroke:#000000;stroke-width:0"/>
<circle fill="#006363" stroke="#006363" stroke-width="0" cx="-390.006" cy="182.534" r="21.3333"/>
<circle fill="#006363" stroke="#006363" stroke-width="0" cx="-201.804" cy="94.8927" r="21.3333"/>
<polygon points="834.968,234.831 875.834,222.567 937.868,429.273 897.002,441.537" style="fill:#006363; stroke:#000000;stroke-width:0"/>
<circle fill="#006363" stroke="#006363" stroke-width="0" cx="855.401" cy="228.699" r="21.3333"/>
<circle fill="#006363" stroke="#006363" stroke-width="0" cx="917.435" cy="435.405" r="21.3333"/>
<polygon points="1256,469.333 256,1469.33 -744,469.333" style="fill:#000000; stroke:#000000;stroke-width:0"/>
<polygon points="-744,42.6667 256,-957.333 1256,42.6667" style="fill:#000000; stroke:#000000;stroke-width:0"/>
<circle fill="#a64b00" stroke="#a64b00" stroke-width="0" cx="-390.006" cy="182.534" r="21.3333"/>
<circle fill="#a64b00" stroke="#a64b00" stroke-width="0" cx="-201.804" cy="94.8927" r="21.3333"/>
<circle fill="#a64b00" stroke="#a64b00" stroke-width="0" cx="855.401" cy="228.699" r="21.3333"/>
<circle fill="#a64b00" stroke="#a64b00" stroke-width="0" cx="917.435" cy="435.405" r="21.3333"/>
<circle fill="#a64b00" stroke="#a64b00" stroke-width="0" cx="-150.6" cy="335.347" r="21.3333"/>
</svg>
