<?xml version="1.0" encoding="utf-8"?> <!-- Generator: Adobe Illustrator 13.0.0, SVG Export Plug-In . SVG Version: 6.00 Build 14948)  --> <svg version="1.2" baseProfile="tiny" id="Layer_1" xmlns="http://www.w3.org/2000/svg" xmlns:xlink="http://www.w3.org/1999/xlink" x="0px" y="0px" width="512px" height="512px" viewBox="0 0 512 512" xml:space="preserve">
<polygon points="0,0 512,0 512,512 0,512" style="fill:#ffffff; stroke:#000000;stroke-width:0"/>
<polygon points="-15.22,136.169 27.0104,130.084 58.396,347.886 16.1656,353.971" style="fill:#006363; stroke:#000000;stroke-width:0"/>
<circle fill="#006363" stroke="#006363" stroke-width="0" cx="5.89518" cy="133.127" r="21.3333"/>
<circle fill="#006363" stroke="#006363" stroke-width="0" cx="37.2808" cy="350.928" r="21.3333"/>
<polygon points="452.248,172.214 493.543,161.48 547.03,367.248 505.736,377.982" style="fill:#006363; stroke:#000000;stroke-width:0"/>
<circle fill="#006363" stroke="#006363" stroke-width="0" cx="472.896" cy="166.847" r="21.3333"/>
<circle fill="#006363" stroke="#006363" stroke-width="0" cx="526.383" cy="372.615" r="21.3333"/>
<polygon points="1256,469.333 256,1469.33 -744,469.333" style="fill:#000000; stroke:#000000;stroke-width:0"/>
<polygon points="-744,42.6667 256,-957.333 1256,42.6667" style="fill:#000000; stroke:#000000;stroke-width:0"/>
<circle fill="#a64b00" stroke="#a64b00" stroke-width="0" cx="5.89518" cy="133.127" r="21.3333"/>
<circle fill="#a64b00" stroke="#a64b00" stroke-width="0" cx="37.2808" cy="350.928" r="21.3333"/>
<circle fill="#a64b00" stroke="#a64b00" stroke-width="0" cx="472.896" cy="166.847" r="21.3333"/>
<circle fill="#a64b00" stroke="#a64b00" stroke-width="0" cx="526.383" cy="372.615" r="21.3333"/>
<circle fill="#a64b00" stroke="#a64b00" stroke-width="0" cx="415.871" cy="289.341" r="21.3333"/>
</svg>
