<?xml version="1.0" encoding="utf-8"?> <!-- Generator: Adobe Illustrator 13.0.0, SVG Export Plug-In . SVG Version: 6.00 Build 14948)  --> <svg version="1.2" baseProfile="tiny" id="Layer_1" xmlns="http://www.w3.org/2000/svg" xmlns:xlink="http://www.w3.org/1999/xlink" x="0px" y="0px" width="512px" height="512px" viewBox="0 0 512 512" xml:space="preserve">
<polygon points="0,0 512,0 512,512 0,512" style="fill:#ffffff; stroke:#000000;stroke-width:0"/>
<polygon points="-95.5232,242.983 -63.8445,271.565 -210.869,434.521 -242.548,405.94" style="fill:#006363; stroke:#000000;stroke-width:0"/>
<circle fill="#006363" stroke="#006363" stroke-width="0" cx="-79.6838" cy="257.274" r="21.3333"/>
<circle fill="#006363" stroke="#006363" stroke-width="0" cx="-226.708" cy="420.23" r="21.3333"/>
<polygon points="677.123,442.452 640.454,420.639 749.023,238.128 785.692,259.942" style="fill:#006363; stroke:#000000;stroke-width:0"/>
<circle fill="#006363" stroke="#006363" stroke-width="0" cx="658.789" cy="431.545" r="21.3333"/>
<circle fill="#006363" stroke="#006363" stroke-width="0" cx="767.357" cy="249.035" r="21.3333"/>
<polygon points="1256,469.333 256,1469.33 -744,469.333" style="fill:#000000; stroke:#000000;stroke-width:0"/>
<polygon points="-744,42.6667 256,-957.333 1256,42.6667" style="fill:#000000; stroke:#000000;stroke-width:0"/>
<circle fill="#a64b00" stroke="#a64b00" stroke-width="0" cx="-79.6838" cy="257.274" r="21.3333"/>
<circle fill="#a64b00" stroke="#a64b00" stroke-width="0" cx="-226.708" cy="420.23" r="21.3333"/>
<circle fill="#a64b00" stroke="#a64b00" stroke-width="0" cx="658.789" cy="431.545" r="21.3333"/>
<circle fill="#a64b00" stroke="#a64b00" stroke-width="0" cx="767.357" cy="249.035" r="21.3333"/>
<circle fill="#a64b00" stroke="#a64b00" stroke-width="0" cx="173.919" cy="68.2121" r="21.3333"/>
</svg>
