<?xml version="1.0" encoding="utf-8"?> <!-- Generator: Adobe Illustrator 13.0.0, SVG Export Plug-In . SVG Version: 6.00 Build 14948)  --> <svg version="1.2" baseProfile="tiny" id="Layer_1" xmlns="http://www.w3.org/2000/svg" xmlns:xlink="http://www.w3.org/1999/xlink" x="0px" y="0px" width="512px" height="512px" viewBox="0 0 512 512" xml:space="preserve">
<polygon points="0,0 512,0 512,512 0,512" style="fill:#ffffff; stroke:#000000;stroke-width:0"/>
<polygon points="-387.088,300.274 -414.104,267.25 -248.27,131.583 -221.254,164.607" style="fill:#006363; stroke:#000000;stroke-width:0"/>
<circle fill="#006363" stroke="#006363" stroke-width="0" cx="-400.596" cy="283.762" r="21.3333"/>
<circle fill="#006363" stroke="#006363" stroke-width="0" cx="-234.762" cy="148.095" r="21.3333"/>
<polygon points="927.759,217.551 967.378,233.386 890.963,424.574 851.344,408.738" style="fill:#006363; stroke:#000000;stroke-width:0"/>
<circle fill="#006363" stroke="#006363" stroke-width="0" cx="947.568" cy="225.468" r="21.3333"/>
<circle fill="#006363" stroke="#006363" stroke-width="0" cx="871.153" cy="416.656" r="21.3333"/>
<polygon points="1256,469.333 256,1469.33 -744,469.333" style="fill:#000000; stroke:#000000;stroke-width:0"/>
<polygon points="-744,42.6667 256,-957.333 1256,42.6667" style="fill:#000000; stroke:#000000;stroke-width:0"/>
<circle fill="#a64b00" stroke="#a64b00" stroke-width="0" cx="-400.596" cy="283.762" r="21.3333"/>
<circle fill="#a64b00" stroke="#a64b00" stroke-width="0" cx="-234.762" cy="148.095" r="21.3333"/>
<circle fill="#a64b00" stroke="#a64b00" stroke-width="0" cx="947.568" cy="225.468" r="21.3333"/>
<circle fill="#a64b00" stroke="#a64b00" stroke-width="0" cx="871.153" cy="416.656" r="21.3333"/>
<circle fill="#a64b00" stroke="#a64b00" stroke-width="0" cx="383.614" cy="228.345" r="21.3333"/>
</svg>
