<?xml version="1.0" encoding="utf-8"?> <!-- Generator: Adobe Illustrator 13.0.0, SVG Export Plug-In . SVG Version: 6.00 Build 14948)  --> <svg version="1.2" baseProfile="tiny" id="Layer_1" xmlns="http://www.w3.org/2000/svg" xmlns:xlink="http://www.w3.org/1999/xlink" x="0px" y="0px" width="512px" height="512px" viewBox="0 0 512 512" xml:space="preserve">
<polygon points="0,0 512,0 512,512 0,512" style="fill:#ffffff; stroke:#000000;stroke-width:0"/>
<polygon points="-85.1843,176.755 -80.8887,219.205 -282.594,239.616 -286.889,197.166" style="fill:#006363; stroke:#000000;stroke-width:0"/>
<circle fill="#006363" stroke="#006363" stroke-width="0" cx="-83.0365" cy="197.98" r="21.3333"/>
<circle fill="#006363" stroke="#006363" stroke-width="0" cx="-284.741" cy="218.391" r="21.3333"/>
<polygon points="742.668,294.874 701.437,283.896 758.042,71.2914 799.272,82.2688" style="fill:#006363; stroke:#000000;stroke-width:0"/>
<circle fill="#006363" stroke="#006363" stroke-width="0" cx="722.053" cy="289.385" r="21.3333"/>
<circle fill="#006363" stroke="#006363" stroke-width="0" cx="778.657" cy="76.7801" r="21.3333"/>
<polygon points="1256,469.333 256,1469.33 -744,469.333" style="fill:#000000; stroke:#000000;stroke-width:0"/>
<polygon points="-744,42.6667 256,-957.333 1256,42.6667" style="fill:#000000; stroke:#000000;stroke-width:0"/>
<circle fill="#a64b00" stroke="#a64b00" stroke-width="0" cx="-83.0365" cy="197.98" r="21.3333"/>
<circle fill="#a64b00" stroke="#a64b00" stroke-width="0" cx="-284.741" cy="218.391" r="21.3333"/>
<circle fill="#a64b00" stroke="#a64b00" stroke-width="0" cx="722.053" cy="289.385" r="21.3333"/>
<circle fill="#a64b00" stroke="#a64b00" stroke-width="0" cx="778.657" cy="76.7801" r="21.3333"/>
<circle fill="#a64b00" stroke="#a64b00" stroke-width="0" cx="104.124" cy="402.13" r="21.3333"/>
</svg>
