<?xml version="1.0" encoding="utf-8"?> <!-- Generator: Adobe Illustrator 13.0.0, SVG Export Plug-In . SVG Version: 6.00 Build 14948)  --> <svg version="1.2" baseProfile="tiny" id="Layer_1" xmlns="http://www.w3.org/2000/svg" xmlns:xlink="http://www.w3.org/1999/xlink" x="0px" y="0px" width="512px" height="512px" viewBox="0 0 512 512" xml:space="preserve">
<polygon points="0,0 512,0 512,512 0,512" style="fill:#ffffff; stroke:#000000;stroke-width:0"/>
<polygon points="-245.455,204.45 -230.363,164.541 -29.982,240.317 -45.0737,280.226" style="fill:#006363; stroke:#000000;stroke-width:0"/>
<circle fill="#006363" stroke="#006363" stroke-width="0" cx="-237.909" cy="184.496" r="21.3333"/>
<circle fill="#006363" stroke="#006363" stroke-width="0" cx="-37.5278" cy="260.271" r="21.3333"/>
<polygon points="600.437,396.573 586.169,356.362 788.108,284.706 802.377,324.917" style="fill:#006363; stroke:#000000;stroke-width:0"/>
<circle fill="#006363" stroke="#006363" stroke-width="0" cx="593.303" cy="376.468" r="21.3333"/>
<circle fill="#006363" stroke="#006363" stroke-width="0" cx="795.242" cy="304.811" r="21.3333"/>
<polygon points="1256,469.333 256,1469.33 -744,469.333" style="fill:#000000; stroke:#000000;stroke-width:0"/>
<polygon points="-744,42.6667 256,-957.333 1256,42.6667" style="fill:#000000; stroke:#000000;stroke-width:0"/>
<circle fill="#a64b00" stroke="#a64b00" stroke-width="0" cx="-237.909" cy="184.496" r="21.3333"/>
<circle fill="#a64b00" stroke="#a64b00" stroke-width="0" cx="-37.5278" cy="260.271" r="21.3333"/>
<circle fill="#a64b00" stroke="#a64b00" stroke-width="0" cx="593.303" cy="376.468" r="21.3333"/>
<circle fill="#a64b00" stroke="#a64b00" stroke-width="0" cx="795.242" cy="304.811" r="21.3333"/>
<circle fill="#a64b00" stroke="#a64b00" stroke-width="0" cx="209.115" cy="287.644" r="21.3333"/>
</svg>
