<?xml version="1.0" encoding="utf-8"?> <!-- Generator: Adobe Illustrator 13.0.0, SVG Export Plug-In . SVG Version: 6.00 Build 14948)  --> <svg version="1.2" baseProfile="tiny" id="Layer_1" xmlns="http://www.w3.org/2000/svg" xmlns:xlink="http://www.w3.org/1999/xlink" x="0px" y="0px" width="512px" height="512px" viewBox="0 0 512 512" xml:space="preserve">
<polygon points="0,0 512,0 512,512 0,512" style="fill:#ffffff; stroke:#000000;stroke-width:0"/>
<polygon points="-139.398,103.707 -134.578,61.3135 78.0251,85.4864 73.205,127.88" style="fill:#006363; stroke:#000000;stroke-width:0"/>
<circle fill="#006363" stroke="#006363" stroke-width="0" cx="-136.988" cy="82.5102" r="21.3333"/>
<circle fill="#006363" stroke="#006363" stroke-width="0" cx="75.6151" cy="106.683" r="21.3333"/>
<polygon points="536.903,307.146 498.513,288.529 591.625,96.5227 630.015,115.14" style="fill:#006363; stroke:#000000;stroke-width:0"/>
<circle fill="#006363" stroke="#006363" stroke-width="0" cx="517.708" cy="297.837" r="21.3333"/>
<circle fill="#006363" stroke="#006363" stroke-width="0" cx="610.82" cy="105.831" r="21.3333"/>
<polygon points="1256,469.333 256,1469.33 -744,469.333" style="fill:#000000; stroke:#000000;stroke-width:0"/>
<polygon points="-744,42.6667 256,-957.333 1256,42.6667" style="fill:#000000; stroke:#000000;stroke-width:0"/>
<circle fill="#a64b00" stroke="#a64b00" stroke-width="0" cx="-136.988" cy="82.5102" r="21.3333"/>
<circle fill="#a64b00" stroke="#a64b00" stroke-width="0" cx="75.6151" cy="106.683" r="21.3333"/>
<circle fill="#a64b00" stroke="#a64b00" stroke-width="0" cx="517.708" cy="297.837" r="21.3333"/>
<circle fill="#a64b00" stroke="#a64b00" stroke-width="0" cx="610.82" cy="105.831" r="21.3333"/>
<circle fill="#a64b00" stroke="#a64b00" stroke-width="0" cx="452.504" cy="306.725" r="21.3333"/>
</svg>
