<?xml version="1.0" encoding="utf-8"?> <!-- Generator: Adobe Illustrator 13.0.0, SVG Export Plug-In . SVG Version: 6.00 Build 14948)  --> <svg version="1.2" baseProfile="tiny" id="Layer_1" xmlns="http://www.w3.org/2000/svg" xmlns:xlink="http://www.w3.org/1999/xlink" x="0px" y="0px" width="512px" height="512px" viewBox="0 0 512 512" xml:space="preserve">
<polygon points="0,0 512,0 512,512 0,512" style="fill:#ffffff; stroke:#000000;stroke-width:0"/>
<polygon points="-219.979,236.572 -236.268,197.137 -43.3906,117.467 -27.1016,156.902" style="fill:#006363; stroke:#000000;stroke-width:0"/>
<circle fill="#006363" stroke="#006363" stroke-width="0" cx="-228.123" cy="216.854" r="21.3333"/>
<circle fill="#006363" stroke="#006363" stroke-width="0" cx="-35.2461" cy="137.184" r="21.3333"/>
<polygon points="582.448,357.437 581.11,314.792 791.44,308.192 792.778,350.838" style="fill:#006363; stroke:#000000;stroke-width:0"/>
<circle fill="#006363" stroke="#006363" stroke-width="0" cx="581.779" cy="336.114" r="21.3333"/>
<circle fill="#006363" stroke="#006363" stroke-width="0" cx="792.109" cy="329.515" r="21.3333"/>
<polygon points="1256,469.333 256,1469.33 -744,469.333" style="fill:#000000; stroke:#000000;stroke-width:0"/>
<polygon points="-744,42.6667 256,-957.333 1256,42.6667" style="fill:#000000; stroke:#000000;stroke-width:0"/>
<circle fill="#a64b00" stroke="#a64b00" stroke-width="0" cx="-228.123" cy="216.854" r="21.3333"/>
<circle fill="#a64b00" stroke="#a64b00" stroke-width="0" cx="-35.2461" cy="137.184" r="21.3333"/>
<circle fill="#a64b00" stroke="#a64b00" stroke-width="0" cx="581.779" cy="336.114" r="21.3333"/>
<circle fill="#a64b00" stroke="#a64b00" stroke-width="0" cx="792.109" cy="329.515" r="21.3333"/>
<circle fill="#a64b00" stroke="#a64b00" stroke-width="0" cx="222.835" cy="68.2121" r="21.3333"/>
</svg>
