<?xml version="1.0" encoding="utf-8"?> <!-- Generator: Adobe Illustrator 13.0.0, SVG Export Plug-In . SVG Version: 6.00 Build 14948)  --> <svg version="1.2" baseProfile="tiny" id="Layer_1" xmlns="http://www.w3.org/2000/svg" xmlns:xlink="http://www.w3.org/1999/xlink" x="0px" y="0px" width="512px" height="512px" viewBox="0 0 512 512" xml:space="preserve">
<polygon points="0,0 512,0 512,512 0,512" style="fill:#ffffff; stroke:#000000;stroke-width:0"/>
<polygon points="-93.2192,179.72 -60.7043,152.093 81.4134,319.358 48.8985,346.984" style="fill:#006363; stroke:#000000;stroke-width:0"/>
<circle fill="#006363" stroke="#006363" stroke-width="0" cx="-76.9618" cy="165.907" r="21.3333"/>
<circle fill="#006363" stroke="#006363" stroke-width="0" cx="65.156" cy="333.171" r="21.3333"/>
<polygon points="425.761,175.786 433.005,133.739 646.414,170.504 639.17,212.551" style="fill:#006363; stroke:#000000;stroke-width:0"/>
<circle fill="#006363" stroke="#006363" stroke-width="0" cx="429.383" cy="154.763" r="21.3333"/>
<circle fill="#006363" stroke="#006363" stroke-width="0" cx="642.792" cy="191.528" r="21.3333"/>
<polygon points="1256,469.333 256,1469.33 -744,469.333" style="fill:#000000; stroke:#000000;stroke-width:0"/>
<polygon points="-744,42.6667 256,-957.333 1256,42.6667" style="fill:#000000; stroke:#000000;stroke-width:0"/>
<circle fill="#a64b00" stroke="#a64b00" stroke-width="0" cx="-76.9618" cy="165.907" r="21.3333"/>
<circle fill="#a64b00" stroke="#a64b00" stroke-width="0" cx="65.156" cy="333.171" r="21.3333"/>
<circle fill="#a64b00" stroke="#a64b00" stroke-width="0" cx="429.383" cy="154.763" r="21.3333"/>
<circle fill="#a64b00" stroke="#a64b00" stroke-width="0" cx="642.792" cy="191.528" r="21.3333"/>
<circle fill="#a64b00" stroke="#a64b00" stroke-width="0" cx="85.762" cy="95.3286" r="21.3333"/>
</svg>
