<?xml version="1.0" encoding="utf-8"?> <!-- Generator: Adobe Illustrator 13.0.0, SVG Export Plug-In . SVG Version: 6.00 Build 14948)  --> <svg version="1.2" baseProfile="tiny" id="Layer_1" xmlns="http://www.w3.org/2000/svg" xmlns:xlink="http://www.w3.org/1999/xlink" x="0px" y="0px" width="512px" height="512px" viewBox="0 0 512 512" xml:space="preserve">
<polygon points="0,0 512,0 512,512 0,512" style="fill:#ffffff; stroke:#000000;stroke-width:0"/>
<polygon points="-94.1785,72.5975 -96.6011,115.195 -313.474,102.861 -311.051,60.2636" style="fill:#006363; stroke:#000000;stroke-width:0"/>
<circle fill="#006363" stroke="#006363" stroke-width="0" cx="-95.3898" cy="93.8964" r="21.3333"/>
<circle fill="#006363" stroke="#006363" stroke-width="0" cx="-312.263" cy="81.5625" r="21.3333"/>
<polygon points="748.223,358.726 709.634,340.524 800.921,146.988 839.511,165.19" style="fill:#006363; stroke:#000000;stroke-width:0"/>
<circle fill="#006363" stroke="#006363" stroke-width="0" cx="728.929" cy="349.625" r="21.3333"/>
<circle fill="#006363" stroke="#006363" stroke-width="0" cx="820.216" cy="156.089" r="21.3333"/>
<polygon points="1256,469.333 256,1469.33 -744,469.333" style="fill:#000000; stroke:#000000;stroke-width:0"/>
<polygon points="-744,42.6667 256,-957.333 1256,42.6667" style="fill:#000000; stroke:#000000;stroke-width:0"/>
<circle fill="#a64b00" stroke="#a64b00" stroke-width="0" cx="-95.3898" cy="93.8964" r="21.3333"/>
<circle fill="#a64b00" stroke="#a64b00" stroke-width="0" cx="-312.263" cy="81.5625" r="21.3333"/>
<circle fill="#a64b00" stroke="#a64b00" stroke-width="0" cx="728.929" cy="349.625" r="21.3333"/>
<circle fill="#a64b00" stroke="#a64b00" stroke-width="0" cx="820.216" cy="156.089" r="21.3333"/>
<circle fill="#a64b00" stroke="#a64b00" stroke-width="0" cx="58.7864" cy="344.887" r="21.3333"/>
</svg>
