<?xml version="1.0" encoding="utf-8"?> <!-- Generator: Adobe Illustrator 13.0.0, SVG Export Plug-In . SVG Version: 6.00 Build 14948)  --> <svg version="1.2" baseProfile="tiny" id="Layer_1" xmlns="http://www.w3.org/2000/svg" xmlns:xlink="http://www.w3.org/1999/xlink" x="0px" y="0px" width="512px" height="512px" viewBox="0 0 512 512" xml:space="preserve">
<polygon points="0,0 512,0 512,512 0,512" style="fill:#ffffff; stroke:#000000;stroke-width:0"/>
<polygon points="-103.108,67.8365 -90.0617,108.46 -283.033,170.433 -296.08,129.81" style="fill:#006363; stroke:#000000;stroke-width:0"/>
<circle fill="#006363" stroke="#006363" stroke-width="0" cx="-96.5848" cy="88.148" r="21.3333"/>
<circle fill="#006363" stroke="#006363" stroke-width="0" cx="-289.556" cy="150.121" r="21.3333"/>
<polygon points="744.62,325.868 704.442,311.51 778.395,104.563 818.573,118.921" style="fill:#006363; stroke:#000000;stroke-width:0"/>
<circle fill="#006363" stroke="#006363" stroke-width="0" cx="724.531" cy="318.689" r="21.3333"/>
<circle fill="#006363" stroke="#006363" stroke-width="0" cx="798.484" cy="111.742" r="21.3333"/>
<polygon points="1256,469.333 256,1469.33 -744,469.333" style="fill:#000000; stroke:#000000;stroke-width:0"/>
<polygon points="-744,42.6667 256,-957.333 1256,42.6667" style="fill:#000000; stroke:#000000;stroke-width:0"/>
<circle fill="#a64b00" stroke="#a64b00" stroke-width="0" cx="-96.5848" cy="88.148" r="21.3333"/>
<circle fill="#a64b00" stroke="#a64b00" stroke-width="0" cx="-289.556" cy="150.121" r="21.3333"/>
<circle fill="#a64b00" stroke="#a64b00" stroke-width="0" cx="724.531" cy="318.689" r="21.3333"/>
<circle fill="#a64b00" stroke="#a64b00" stroke-width="0" cx="798.484" cy="111.742" r="21.3333"/>
<circle fill="#a64b00" stroke="#a64b00" stroke-width="0" cx="83.2447" cy="163.617" r="21.3333"/>
</svg>
