<?xml version="1.0" encoding="utf-8"?> <!-- Generator: Adobe Illustrator 13.0.0, SVG Export Plug-In . SVG Version: 6.00 Build 14948)  --> <svg version="1.2" baseProfile="tiny" id="Layer_1" xmlns="http://www.w3.org/2000/svg" xmlns:xlink="http://www.w3.org/1999/xlink" x="0px" y="0px" width="512px" height="512px" viewBox="0 0 512 512" xml:space="preserve">
<polygon points="0,0 512,0 512,512 0,512" style="fill:#ffffff; stroke:#000000;stroke-width:0"/>
<polygon points="-201.648,180.566 -161.622,165.79 -87.4296,366.763 -127.456,381.539" style="fill:#006363; stroke:#000000;stroke-width:0"/>
<circle fill="#006363" stroke="#006363" stroke-width="0" cx="-181.635" cy="173.178" r="21.3333"/>
<circle fill="#006363" stroke="#006363" stroke-width="0" cx="-107.443" cy="374.151" r="21.3333"/>
<polygon points="633.602,434.306 606.384,401.448 771.514,264.664 798.731,297.521" style="fill:#006363; stroke:#000000;stroke-width:0"/>
<circle fill="#006363" stroke="#006363" stroke-width="0" cx="619.993" cy="417.877" r="21.3333"/>
<circle fill="#006363" stroke="#006363" stroke-width="0" cx="785.122" cy="281.093" r="21.3333"/>
<polygon points="1256,469.333 256,1469.33 -744,469.333" style="fill:#000000; stroke:#000000;stroke-width:0"/>
<polygon points="-744,42.6667 256,-957.333 1256,42.6667" style="fill:#000000; stroke:#000000;stroke-width:0"/>
<circle fill="#a64b00" stroke="#a64b00" stroke-width="0" cx="-181.635" cy="173.178" r="21.3333"/>
<circle fill="#a64b00" stroke="#a64b00" stroke-width="0" cx="-107.443" cy="374.151" r="21.3333"/>
<circle fill="#a64b00" stroke="#a64b00" stroke-width="0" cx="619.993" cy="417.877" r="21.3333"/>
<circle fill="#a64b00" stroke="#a64b00" stroke-width="0" cx="785.122" cy="281.093" r="21.3333"/>
<circle fill="#a64b00" stroke="#a64b00" stroke-width="0" cx="193.605" cy="363.968" r="21.3333"/>
</svg>
