<?xml version="1.0" encoding="utf-8"?> <!-- Generator: Adobe Illustrator 13.0.0, SVG Export Plug-In . SVG Version: 6.00 Build 14948)  --> <svg version="1.2" baseProfile="tiny" id="Layer_1" xmlns="http://www.w3.org/2000/svg" xmlns:xlink="http://www.w3.org/1999/xlink" x="0px" y="0px" width="512px" height="512px" viewBox="0 0 512 512" xml:space="preserve">
<polygon points="0,0 512,0 512,512 0,512" style="fill:#ffffff; stroke:#000000;stroke-width:0"/>
<polygon points="-85.252,190.947 -51.3505,165.04 75.4528,330.979 41.5513,356.885" style="fill:#006363; stroke:#000000;stroke-width:0"/>
<circle fill="#006363" stroke="#006363" stroke-width="0" cx="-68.3012" cy="177.994" r="21.3333"/>
<circle fill="#006363" stroke="#006363" stroke-width="0" cx="58.5021" cy="343.932" r="21.3333"/>
<polygon points="427.265,167.967 437.23,126.48 642.249,175.723 632.284,217.21" style="fill:#006363; stroke:#000000;stroke-width:0"/>
<circle fill="#006363" stroke="#006363" stroke-width="0" cx="432.248" cy="147.224" r="21.3333"/>
<circle fill="#006363" stroke="#006363" stroke-width="0" cx="637.267" cy="196.467" r="21.3333"/>
<polygon points="1256,469.333 256,1469.33 -744,469.333" style="fill:#000000; stroke:#000000;stroke-width:0"/>
<polygon points="-744,42.6667 256,-957.333 1256,42.6667" style="fill:#000000; stroke:#000000;stroke-width:0"/>
<circle fill="#a64b00" stroke="#a64b00" stroke-width="0" cx="-68.3012" cy="177.994" r="21.3333"/>
<circle fill="#a64b00" stroke="#a64b00" stroke-width="0" cx="58.5021" cy="343.932" r="21.3333"/>
<circle fill="#a64b00" stroke="#a64b00" stroke-width="0" cx="432.248" cy="147.224" r="21.3333"/>
<circle fill="#a64b00" stroke="#a64b00" stroke-width="0" cx="637.267" cy="196.467" r="21.3333"/>
<circle fill="#a64b00" stroke="#a64b00" stroke-width="0" cx="97.8097" cy="56.5261" r="21.3333"/>
</svg>
