<?xml version="1.0" encoding="utf-8"?> <!-- Generator: Adobe Illustrator 13.0.0, SVG Export Plug-In . SVG Version: 6.00 Build 14948)  --> <svg version="1.2" baseProfile="tiny" id="Layer_1" xmlns="http://www.w3.org/2000/svg" xmlns:xlink="http://www.w3.org/1999/xlink" x="0px" y="0px" width="512px" height="512px" viewBox="0 0 512 512" xml:space="preserve">
<polygon points="0,0 512,0 512,512 0,512" style="fill:#ffffff; stroke:#000000;stroke-width:0"/>
<polygon points="-199.802,315.353 -176.887,279.362 9.88551,398.276 -13.0292,434.267" style="fill:#006363; stroke:#000000;stroke-width:0"/>
<circle fill="#006363" stroke="#006363" stroke-width="0" cx="-188.344" cy="297.358" r="21.3333"/>
<circle fill="#006363" stroke="#006363" stroke-width="0" cx="-1.57185" cy="416.271" r="21.3333"/>
<polygon points="651.665,178.257 692.585,190.34 633.001,392.114 592.081,380.03" style="fill:#006363; stroke:#000000;stroke-width:0"/>
<circle fill="#006363" stroke="#006363" stroke-width="0" cx="672.125" cy="184.299" r="21.3333"/>
<circle fill="#006363" stroke="#006363" stroke-width="0" cx="612.541" cy="386.072" r="21.3333"/>
<polygon points="1256,469.333 256,1469.33 -744,469.333" style="fill:#000000; stroke:#000000;stroke-width:0"/>
<polygon points="-744,42.6667 256,-957.333 1256,42.6667" style="fill:#000000; stroke:#000000;stroke-width:0"/>
<circle fill="#a64b00" stroke="#a64b00" stroke-width="0" cx="-188.344" cy="297.358" r="21.3333"/>
<circle fill="#a64b00" stroke="#a64b00" stroke-width="0" cx="-1.57185" cy="416.271" r="21.3333"/>
<circle fill="#a64b00" stroke="#a64b00" stroke-width="0" cx="672.125" cy="184.299" r="21.3333"/>
<circle fill="#a64b00" stroke="#a64b00" stroke-width="0" cx="612.541" cy="386.072" r="21.3333"/>
<circle fill="#a64b00" stroke="#a64b00" stroke-width="0" cx="306.351" cy="297.185" r="21.3333"/>
</svg>
