<?xml version="1.0" encoding="utf-8"?> <!-- Generator: Adobe Illustrator 13.0.0, SVG Export Plug-In . SVG Version: 6.00 Build 14948)  --> <svg version="1.2" baseProfile="tiny" id="Layer_1" xmlns="http://www.w3.org/2000/svg" xmlns:xlink="http://www.w3.org/1999/xlink" x="0px" y="0px" width="512px" height="512px" viewBox="0 0 512 512" xml:space="preserve">
<polygon points="0,0 512,0 512,512 0,512" style="fill:#ffffff; stroke:#000000;stroke-width:0"/>
<polygon points="-124.539,196.289 -119.017,238.597 -341.351,267.616 -346.873,225.308" style="fill:#006363; stroke:#000000;stroke-width:0"/>
<circle fill="#006363" stroke="#006363" stroke-width="0" cx="-121.778" cy="217.443" r="21.3333"/>
<circle fill="#006363" stroke="#006363" stroke-width="0" cx="-344.112" cy="246.462" r="21.3333"/>
<polygon points="759.303,447.371 726.778,419.756 860.582,262.158 893.107,289.773" style="fill:#006363; stroke:#000000;stroke-width:0"/>
<circle fill="#006363" stroke="#006363" stroke-width="0" cx="743.04" cy="433.564" r="21.3333"/>
<circle fill="#006363" stroke="#006363" stroke-width="0" cx="876.844" cy="275.966" r="21.3333"/>
<polygon points="1256,469.333 256,1469.33 -744,469.333" style="fill:#000000; stroke:#000000;stroke-width:0"/>
<polygon points="-744,42.6667 256,-957.333 1256,42.6667" style="fill:#000000; stroke:#000000;stroke-width:0"/>
<circle fill="#a64b00" stroke="#a64b00" stroke-width="0" cx="-121.778" cy="217.443" r="21.3333"/>
<circle fill="#a64b00" stroke="#a64b00" stroke-width="0" cx="-344.112" cy="246.462" r="21.3333"/>
<circle fill="#a64b00" stroke="#a64b00" stroke-width="0" cx="743.04" cy="433.564" r="21.3333"/>
<circle fill="#a64b00" stroke="#a64b00" stroke-width="0" cx="876.844" cy="275.966" r="21.3333"/>
<circle fill="#a64b00" stroke="#a64b00" stroke-width="0" cx="-7.42971" cy="278.104" r="21.3333"/>
</svg>
