<?xml version="1.0" encoding="utf-8"?> <!-- Generator: Adobe Illustrator 13.0.0, SVG Export Plug-In . SVG Version: 6.00 Build 14948)  --> <svg version="1.2" baseProfile="tiny" id="Layer_1" xmlns="http://www.w3.org/2000/svg" xmlns:xlink="http://www.w3.org/1999/xlink" x="0px" y="0px" width="512px" height="512px" viewBox="0 0 512 512" xml:space="preserve">
<polygon points="0,0 512,0 512,512 0,512" style="fill:#ffffff; stroke:#000000;stroke-width:0"/>
<polygon points="-359.335,368.297 -395.996,346.469 -286.866,163.187 -250.206,185.015" style="fill:#006363; stroke:#000000;stroke-width:0"/>
<circle fill="#006363" stroke="#006363" stroke-width="0" cx="-377.665" cy="357.383" r="21.3333"/>
<circle fill="#006363" stroke="#006363" stroke-width="0" cx="-268.536" cy="174.101" r="21.3333"/>
<polygon points="949.389,218.922 986.019,240.802 880.167,418.013 843.537,396.133" style="fill:#006363; stroke:#000000;stroke-width:0"/>
<circle fill="#006363" stroke="#006363" stroke-width="0" cx="967.704" cy="229.862" r="21.3333"/>
<circle fill="#006363" stroke="#006363" stroke-width="0" cx="861.852" cy="407.073" r="21.3333"/>
<polygon points="1256,469.333 256,1469.33 -744,469.333" style="fill:#000000; stroke:#000000;stroke-width:0"/>
<polygon points="-744,42.6667 256,-957.333 1256,42.6667" style="fill:#000000; stroke:#000000;stroke-width:0"/>
<circle fill="#a64b00" stroke="#a64b00" stroke-width="0" cx="-377.665" cy="357.383" r="21.3333"/>
<circle fill="#a64b00" stroke="#a64b00" stroke-width="0" cx="-268.536" cy="174.101" r="21.3333"/>
<circle fill="#a64b00" stroke="#a64b00" stroke-width="0" cx="967.704" cy="229.862" r="21.3333"/>
<circle fill="#a64b00" stroke="#a64b00" stroke-width="0" cx="861.852" cy="407.073" r="21.3333"/>
<circle fill="#a64b00" stroke="#a64b00" stroke-width="0" cx="565.861" cy="259.461" r="21.3333"/>
</svg>
