<?xml version="1.0" encoding="utf-8"?> <!-- Generator: Adobe Illustrator 13.0.0, SVG Export Plug-In . SVG Version: 6.00 Build 14948)  --> <svg version="1.2" baseProfile="tiny" id="Layer_1" xmlns="http://www.w3.org/2000/svg" xmlns:xlink="http://www.w3.org/1999/xlink" x="0px" y="0px" width="512px" height="512px" viewBox="0 0 512 512" xml:space="preserve">
<polygon points="0,0 512,0 512,512 0,512" style="fill:#ffffff; stroke:#000000;stroke-width:0"/>
<polygon points="-61.554,363.772 -72.1886,405.092 -275.269,352.826 -264.634,311.506" style="fill:#006363; stroke:#000000;stroke-width:0"/>
<circle fill="#006363" stroke="#006363" stroke-width="0" cx="-66.8713" cy="384.432" r="21.3333"/>
<circle fill="#006363" stroke="#006363" stroke-width="0" cx="-269.951" cy="332.166" r="21.3333"/>
<polygon points="713.831,350.461 673.839,335.592 749.279,132.693 789.271,147.562" style="fill:#006363; stroke:#000000;stroke-width:0"/>
<circle fill="#006363" stroke="#006363" stroke-width="0" cx="693.835" cy="343.026" r="21.3333"/>
<circle fill="#006363" stroke="#006363" stroke-width="0" cx="769.275" cy="140.128" r="21.3333"/>
<polygon points="1256,469.333 256,1469.33 -744,469.333" style="fill:#000000; stroke:#000000;stroke-width:0"/>
<polygon points="-744,42.6667 256,-957.333 1256,42.6667" style="fill:#000000; stroke:#000000;stroke-width:0"/>
<circle fill="#a64b00" stroke="#a64b00" stroke-width="0" cx="-66.8713" cy="384.432" r="21.3333"/>
<circle fill="#a64b00" stroke="#a64b00" stroke-width="0" cx="-269.951" cy="332.166" r="21.3333"/>
<circle fill="#a64b00" stroke="#a64b00" stroke-width="0" cx="693.835" cy="343.026" r="21.3333"/>
<circle fill="#a64b00" stroke="#a64b00" stroke-width="0" cx="769.275" cy="140.128" r="21.3333"/>
<circle fill="#a64b00" stroke="#a64b00" stroke-width="0" cx="139.32" cy="278.104" r="21.3333"/>
</svg>
