<?xml version="1.0" encoding="utf-8"?> <!-- Generator: Adobe Illustrator 13.0.0, SVG Export Plug-In . SVG Version: 6.00 Build 14948)  --> <svg version="1.2" baseProfile="tiny" id="Layer_1" xmlns="http://www.w3.org/2000/svg" xmlns:xlink="http://www.w3.org/1999/xlink" x="0px" y="0px" width="512px" height="512px" viewBox="0 0 512 512" xml:space="preserve">
<polygon points="0,0 512,0 512,512 0,512" style="fill:#ffffff; stroke:#000000;stroke-width:0"/>
<polygon points="-9.67205,121.541 32.6771,116.346 58.8679,329.839 16.5187,335.035" style="fill:#006363; stroke:#000000;stroke-width:0"/>
<circle fill="#006363" stroke="#006363" stroke-width="0" cx="11.5025" cy="118.943" r="21.3333"/>
<circle fill="#006363" stroke="#006363" stroke-width="0" cx="37.6933" cy="332.437" r="21.3333"/>
<polygon points="453.919,192.811 495.78,184.557 537.378,395.511 495.518,403.766" style="fill:#006363; stroke:#000000;stroke-width:0"/>
<circle fill="#006363" stroke="#006363" stroke-width="0" cx="474.849" cy="188.684" r="21.3333"/>
<circle fill="#006363" stroke="#006363" stroke-width="0" cx="516.448" cy="399.638" r="21.3333"/>
<polygon points="1256,469.333 256,1469.33 -744,469.333" style="fill:#000000; stroke:#000000;stroke-width:0"/>
<polygon points="-744,42.6667 256,-957.333 1256,42.6667" style="fill:#000000; stroke:#000000;stroke-width:0"/>
<circle fill="#a64b00" stroke="#a64b00" stroke-width="0" cx="11.5025" cy="118.943" r="21.3333"/>
<circle fill="#a64b00" stroke="#a64b00" stroke-width="0" cx="37.6933" cy="332.437" r="21.3333"/>
<circle fill="#a64b00" stroke="#a64b00" stroke-width="0" cx="474.849" cy="188.684" r="21.3333"/>
<circle fill="#a64b00" stroke="#a64b00" stroke-width="0" cx="516.448" cy="399.638" r="21.3333"/>
<circle fill="#a64b00" stroke="#a64b00" stroke-width="0" cx="452.014" cy="405.748" r="21.3333"/>
</svg>
