<?xml version="1.0" encoding="utf-8"?> <!-- Generator: Adobe Illustrator 13.0.0, SVG Export Plug-In . SVG Version: 6.00 Build 14948)  --> <svg version="1.2" baseProfile="tiny" id="Layer_1" xmlns="http://www.w3.org/2000/svg" xmlns:xlink="http://www.w3.org/1999/xlink" x="0px" y="0px" width="512px" height="512px" viewBox="0 0 512 512" xml:space="preserve">
<polygon points="0,0 512,0 512,512 0,512" style="fill:#ffffff; stroke:#000000;stroke-width:0"/>
<polygon points="-224.388,182.968 -190.414,157.157 -59.9679,328.858 -93.9419,354.67" style="fill:#006363; stroke:#000000;stroke-width:0"/>
<circle fill="#006363" stroke="#006363" stroke-width="0" cx="-207.401" cy="170.063" r="21.3333"/>
<circle fill="#006363" stroke="#006363" stroke-width="0" cx="-76.9549" cy="341.764" r="21.3333"/>
<polygon points="620.697,422.447 597.658,386.535 778.683,270.399 801.722,306.311" style="fill:#006363; stroke:#000000;stroke-width:0"/>
<circle fill="#006363" stroke="#006363" stroke-width="0" cx="609.178" cy="404.491" r="21.3333"/>
<circle fill="#006363" stroke="#006363" stroke-width="0" cx="790.202" cy="288.355" r="21.3333"/>
<polygon points="1256,469.333 256,1469.33 -744,469.333" style="fill:#000000; stroke:#000000;stroke-width:0"/>
<polygon points="-744,42.6667 256,-957.333 1256,42.6667" style="fill:#000000; stroke:#000000;stroke-width:0"/>
<circle fill="#a64b00" stroke="#a64b00" stroke-width="0" cx="-207.401" cy="170.063" r="21.3333"/>
<circle fill="#a64b00" stroke="#a64b00" stroke-width="0" cx="-76.9549" cy="341.764" r="21.3333"/>
<circle fill="#a64b00" stroke="#a64b00" stroke-width="0" cx="609.178" cy="404.491" r="21.3333"/>
<circle fill="#a64b00" stroke="#a64b00" stroke-width="0" cx="790.202" cy="288.355" r="21.3333"/>
<circle fill="#a64b00" stroke="#a64b00" stroke-width="0" cx="198.974" cy="449.833" r="21.3333"/>
</svg>
