<?xml version="1.0" encoding="utf-8"?> <!-- Generator: Adobe Illustrator 13.0.0, SVG Export Plug-In . SVG Version: 6.00 Build 14948)  --> <svg version="1.2" baseProfile="tiny" id="Layer_1" xmlns="http://www.w3.org/2000/svg" xmlns:xlink="http://www.w3.org/1999/xlink" x="0px" y="0px" width="512px" height="512px" viewBox="0 0 512 512" xml:space="preserve">
<polygon points="0,0 512,0 512,512 0,512" style="fill:#ffffff; stroke:#000000;stroke-width:0"/>
<polygon points="-128.626,144.182 -87.343,133.405 -33.4826,339.728 -74.7658,350.505" style="fill:#006363; stroke:#000000;stroke-width:0"/>
<circle fill="#006363" stroke="#006363" stroke-width="0" cx="-107.985" cy="138.794" r="21.3333"/>
<circle fill="#006363" stroke="#006363" stroke-width="0" cx="-54.1242" cy="345.116" r="21.3333"/>
<polygon points="703.12,192.241 726.084,228.201 547.769,342.068 524.806,306.108" style="fill:#006363; stroke:#000000;stroke-width:0"/>
<circle fill="#006363" stroke="#006363" stroke-width="0" cx="714.602" cy="210.221" r="21.3333"/>
<circle fill="#006363" stroke="#006363" stroke-width="0" cx="536.287" cy="324.088" r="21.3333"/>
<polygon points="1256,469.333 256,1469.33 -744,469.333" style="fill:#000000; stroke:#000000;stroke-width:0"/>
<polygon points="-744,42.6667 256,-957.333 1256,42.6667" style="fill:#000000; stroke:#000000;stroke-width:0"/>
<circle fill="#a64b00" stroke="#a64b00" stroke-width="0" cx="-107.985" cy="138.794" r="21.3333"/>
<circle fill="#a64b00" stroke="#a64b00" stroke-width="0" cx="-54.1242" cy="345.116" r="21.3333"/>
<circle fill="#a64b00" stroke="#a64b00" stroke-width="0" cx="714.602" cy="210.221" r="21.3333"/>
<circle fill="#a64b00" stroke="#a64b00" stroke-width="0" cx="536.287" cy="324.088" r="21.3333"/>
<circle fill="#a64b00" stroke="#a64b00" stroke-width="0" cx="337.968" cy="325.806" r="21.3333"/>
</svg>
