<?xml version="1.0" encoding="utf-8"?> <!-- Generator: Adobe Illustrator 13.0.0, SVG Export Plug-In . SVG Version: 6.00 Build 14948)  --> <svg version="1.2" baseProfile="tiny" id="Layer_1" xmlns="http://www.w3.org/2000/svg" xmlns:xlink="http://www.w3.org/1999/xlink" x="0px" y="0px" width="512px" height="512px" viewBox="0 0 512 512" xml:space="preserve">
<polygon points="0,0 512,0 512,512 0,512" style="fill:#ffffff; stroke:#000000;stroke-width:0"/>
<polygon points="-12.4622,126.787 29.8337,121.174 58.8488,339.842 16.5529,345.454" style="fill:#006363; stroke:#000000;stroke-width:0"/>
<circle fill="#006363" stroke="#006363" stroke-width="0" cx="8.68575" cy="123.981" r="21.3333"/>
<circle fill="#006363" stroke="#006363" stroke-width="0" cx="37.7008" cy="342.648" r="21.3333"/>
<polygon points="453.147,183.373 494.761,173.956 541.875,382.148 500.261,391.565" style="fill:#006363; stroke:#000000;stroke-width:0"/>
<circle fill="#006363" stroke="#006363" stroke-width="0" cx="473.954" cy="178.665" r="21.3333"/>
<circle fill="#006363" stroke="#006363" stroke-width="0" cx="521.068" cy="386.857" r="21.3333"/>
<polygon points="1256,469.333 256,1469.33 -744,469.333" style="fill:#000000; stroke:#000000;stroke-width:0"/>
<polygon points="-744,42.6667 256,-957.333 1256,42.6667" style="fill:#000000; stroke:#000000;stroke-width:0"/>
<circle fill="#a64b00" stroke="#a64b00" stroke-width="0" cx="8.68575" cy="123.981" r="21.3333"/>
<circle fill="#a64b00" stroke="#a64b00" stroke-width="0" cx="37.7008" cy="342.648" r="21.3333"/>
<circle fill="#a64b00" stroke="#a64b00" stroke-width="0" cx="473.954" cy="178.665" r="21.3333"/>
<circle fill="#a64b00" stroke="#a64b00" stroke-width="0" cx="521.068" cy="386.857" r="21.3333"/>
<circle fill="#a64b00" stroke="#a64b00" stroke-width="0" cx="435.148" cy="351.425" r="21.3333"/>
</svg>
