<?xml version="1.0" encoding="utf-8"?> <!-- Generator: Adobe Illustrator 13.0.0, SVG Export Plug-In . SVG Version: 6.00 Build 14948)  --> <svg version="1.2" baseProfile="tiny" id="Layer_1" xmlns="http://www.w3.org/2000/svg" xmlns:xlink="http://www.w3.org/1999/xlink" x="0px" y="0px" width="512px" height="512px" viewBox="0 0 512 512" xml:space="preserve">
<polygon points="0,0 512,0 512,512 0,512" style="fill:#ffffff; stroke:#000000;stroke-width:0"/>
<polygon points="-105.541,44.6186 -91.692,84.9752 -285.847,151.602 -299.696,111.246" style="fill:#006363; stroke:#000000;stroke-width:0"/>
<circle fill="#006363" stroke="#006363" stroke-width="0" cx="-98.6165" cy="64.7969" r="21.3333"/>
<circle fill="#006363" stroke="#006363" stroke-width="0" cx="-292.771" cy="131.424" r="21.3333"/>
<polygon points="745.975,332.603 706.147,317.301 783.413,116.19 823.241,131.492" style="fill:#006363; stroke:#000000;stroke-width:0"/>
<circle fill="#006363" stroke="#006363" stroke-width="0" cx="726.061" cy="324.952" r="21.3333"/>
<circle fill="#006363" stroke="#006363" stroke-width="0" cx="803.327" cy="123.841" r="21.3333"/>
<polygon points="1256,469.333 256,1469.33 -744,469.333" style="fill:#000000; stroke:#000000;stroke-width:0"/>
<polygon points="-744,42.6667 256,-957.333 1256,42.6667" style="fill:#000000; stroke:#000000;stroke-width:0"/>
<circle fill="#a64b00" stroke="#a64b00" stroke-width="0" cx="-98.6165" cy="64.7969" r="21.3333"/>
<circle fill="#a64b00" stroke="#a64b00" stroke-width="0" cx="-292.771" cy="131.424" r="21.3333"/>
<circle fill="#a64b00" stroke="#a64b00" stroke-width="0" cx="726.061" cy="324.952" r="21.3333"/>
<circle fill="#a64b00" stroke="#a64b00" stroke-width="0" cx="803.327" cy="123.841" r="21.3333"/>
<circle fill="#a64b00" stroke="#a64b00" stroke-width="0" cx="77.2792" cy="68.2121" r="21.3333"/>
</svg>
