<?xml version="1.0" encoding="utf-8"?> <!-- Generator: Adobe Illustrator 13.0.0, SVG Export Plug-In . SVG Version: 6.00 Build 14948)  --> <svg version="1.2" baseProfile="tiny" id="Layer_1" xmlns="http://www.w3.org/2000/svg" xmlns:xlink="http://www.w3.org/1999/xlink" x="0px" y="0px" width="512px" height="512px" viewBox="0 0 512 512" xml:space="preserve">
<polygon points="0,0 512,0 512,512 0,512" style="fill:#ffffff; stroke:#000000;stroke-width:0"/>
<polygon points="-128.39,199.025 -122.602,241.298 -338.549,270.87 -344.338,228.597" style="fill:#006363; stroke:#000000;stroke-width:0"/>
<circle fill="#006363" stroke="#006363" stroke-width="0" cx="-125.496" cy="220.162" r="21.3333"/>
<circle fill="#006363" stroke="#006363" stroke-width="0" cx="-341.444" cy="249.734" r="21.3333"/>
<polygon points="757.153,451.68 724.763,423.907 864.006,261.522 896.396,289.295" style="fill:#006363; stroke:#000000;stroke-width:0"/>
<circle fill="#006363" stroke="#006363" stroke-width="0" cx="740.958" cy="437.793" r="21.3333"/>
<circle fill="#006363" stroke="#006363" stroke-width="0" cx="880.201" cy="275.408" r="21.3333"/>
<polygon points="1256,469.333 256,1469.33 -744,469.333" style="fill:#000000; stroke:#000000;stroke-width:0"/>
<polygon points="-744,42.6667 256,-957.333 1256,42.6667" style="fill:#000000; stroke:#000000;stroke-width:0"/>
<circle fill="#a64b00" stroke="#a64b00" stroke-width="0" cx="-125.496" cy="220.162" r="21.3333"/>
<circle fill="#a64b00" stroke="#a64b00" stroke-width="0" cx="-341.444" cy="249.734" r="21.3333"/>
<circle fill="#a64b00" stroke="#a64b00" stroke-width="0" cx="740.958" cy="437.793" r="21.3333"/>
<circle fill="#a64b00" stroke="#a64b00" stroke-width="0" cx="880.201" cy="275.408" r="21.3333"/>
<circle fill="#a64b00" stroke="#a64b00" stroke-width="0" cx="-8.62279" cy="259.023" r="21.3333"/>
</svg>
