<?xml version="1.0" encoding="utf-8"?> <!-- Generator: Adobe Illustrator 13.0.0, SVG Export Plug-In . SVG Version: 6.00 Build 14948)  --> <svg version="1.2" baseProfile="tiny" id="Layer_1" xmlns="http://www.w3.org/2000/svg" xmlns:xlink="http://www.w3.org/1999/xlink" x="0px" y="0px" width="512px" height="512px" viewBox="0 0 512 512" xml:space="preserve">
<polygon points="0,0 512,0 512,512 0,512" style="fill:#ffffff; stroke:#000000;stroke-width:0"/>
<polygon points="-197.207,415.049 -211.564,374.871 -13.6959,304.168 0.660936,344.346" style="fill:#006363; stroke:#000000;stroke-width:0"/>
<circle fill="#006363" stroke="#006363" stroke-width="0" cx="-204.385" cy="394.96" r="21.3333"/>
<circle fill="#006363" stroke="#006363" stroke-width="0" cx="-6.51749" cy="324.257" r="21.3333"/>
<polygon points="607.379,199.334 648.692,188.672 702.779,398.253 661.466,408.915" style="fill:#006363; stroke:#000000;stroke-width:0"/>
<circle fill="#006363" stroke="#006363" stroke-width="0" cx="628.035" cy="194.003" r="21.3333"/>
<circle fill="#006363" stroke="#006363" stroke-width="0" cx="682.123" cy="403.584" r="21.3333"/>
<polygon points="1256,469.333 256,1469.33 -744,469.333" style="fill:#000000; stroke:#000000;stroke-width:0"/>
<polygon points="-744,42.6667 256,-957.333 1256,42.6667" style="fill:#000000; stroke:#000000;stroke-width:0"/>
<circle fill="#a64b00" stroke="#a64b00" stroke-width="0" cx="-204.385" cy="394.96" r="21.3333"/>
<circle fill="#a64b00" stroke="#a64b00" stroke-width="0" cx="-6.51749" cy="324.257" r="21.3333"/>
<circle fill="#a64b00" stroke="#a64b00" stroke-width="0" cx="628.035" cy="194.003" r="21.3333"/>
<circle fill="#a64b00" stroke="#a64b00" stroke-width="0" cx="682.123" cy="403.584" r="21.3333"/>
<circle fill="#a64b00" stroke="#a64b00" stroke-width="0" cx="282.49" cy="220.861" r="21.3333"/>
</svg>
