<?xml version="1.0" encoding="utf-8"?> <!-- Generator: Adobe Illustrator 13.0.0, SVG Export Plug-In . SVG Version: 6.00 Build 14948)  --> <svg version="1.2" baseProfile="tiny" id="Layer_1" xmlns="http://www.w3.org/2000/svg" xmlns:xlink="http://www.w3.org/1999/xlink" x="0px" y="0px" width="512px" height="512px" viewBox="0 0 512 512" xml:space="preserve">
<polygon points="0,0 512,0 512,512 0,512" style="fill:#ffffff; stroke:#000000;stroke-width:0"/>
<polygon points="-63.0416,225.156 -24.0736,207.779 62.473,401.867 23.505,419.244" style="fill:#006363; stroke:#000000;stroke-width:0"/>
<circle fill="#006363" stroke="#006363" stroke-width="0" cx="-43.5576" cy="216.468" r="21.3333"/>
<circle fill="#006363" stroke="#006363" stroke-width="0" cx="42.989" cy="410.556" r="21.3333"/>
<polygon points="425.878,130.056 447.544,93.2997 631.398,201.674 609.732,238.43" style="fill:#006363; stroke:#000000;stroke-width:0"/>
<circle fill="#006363" stroke="#006363" stroke-width="0" cx="436.711" cy="111.678" r="21.3333"/>
<circle fill="#006363" stroke="#006363" stroke-width="0" cx="620.565" cy="220.052" r="21.3333"/>
<polygon points="1256,469.333 256,1469.33 -744,469.333" style="fill:#000000; stroke:#000000;stroke-width:0"/>
<polygon points="-744,42.6667 256,-957.333 1256,42.6667" style="fill:#000000; stroke:#000000;stroke-width:0"/>
<circle fill="#a64b00" stroke="#a64b00" stroke-width="0" cx="-43.5576" cy="216.468" r="21.3333"/>
<circle fill="#a64b00" stroke="#a64b00" stroke-width="0" cx="42.989" cy="410.556" r="21.3333"/>
<circle fill="#a64b00" stroke="#a64b00" stroke-width="0" cx="436.711" cy="111.678" r="21.3333"/>
<circle fill="#a64b00" stroke="#a64b00" stroke-width="0" cx="620.565" cy="220.052" r="21.3333"/>
<circle fill="#a64b00" stroke="#a64b00" stroke-width="0" cx="153.23" cy="235.017" r="21.3333"/>
</svg>
