<?xml version="1.0" encoding="utf-8"?> <!-- Generator: Adobe Illustrator 13.0.0, SVG Export Plug-In . SVG Version: 6.00 Build 14948)  --> <svg version="1.2" baseProfile="tiny" id="Layer_1" xmlns="http://www.w3.org/2000/svg" xmlns:xlink="http://www.w3.org/1999/xlink" x="0px" y="0px" width="512px" height="512px" viewBox="0 0 512 512" xml:space="preserve">
<polygon points="0,0 512,0 512,512 0,512" style="fill:#ffffff; stroke:#000000;stroke-width:0"/>
<polygon points="-162.942,346.87 -179.012,386.395 -380.075,304.647 -364.005,265.122" style="fill:#006363; stroke:#000000;stroke-width:0"/>
<circle fill="#006363" stroke="#006363" stroke-width="0" cx="-170.977" cy="366.633" r="21.3333"/>
<circle fill="#006363" stroke="#006363" stroke-width="0" cx="-372.04" cy="284.884" r="21.3333"/>
<polygon points="753.959,324.454 771.092,285.378 959.609,368.04 942.475,407.115" style="fill:#006363; stroke:#000000;stroke-width:0"/>
<circle fill="#006363" stroke="#006363" stroke-width="0" cx="762.526" cy="304.916" r="21.3333"/>
<circle fill="#006363" stroke="#006363" stroke-width="0" cx="951.042" cy="387.577" r="21.3333"/>
<polygon points="1256,469.333 256,1469.33 -744,469.333" style="fill:#000000; stroke:#000000;stroke-width:0"/>
<polygon points="-744,42.6667 256,-957.333 1256,42.6667" style="fill:#000000; stroke:#000000;stroke-width:0"/>
<circle fill="#a64b00" stroke="#a64b00" stroke-width="0" cx="-170.977" cy="366.633" r="21.3333"/>
<circle fill="#a64b00" stroke="#a64b00" stroke-width="0" cx="-372.04" cy="284.884" r="21.3333"/>
<circle fill="#a64b00" stroke="#a64b00" stroke-width="0" cx="762.526" cy="304.916" r="21.3333"/>
<circle fill="#a64b00" stroke="#a64b00" stroke-width="0" cx="951.042" cy="387.577" r="21.3333"/>
<circle fill="#a64b00" stroke="#a64b00" stroke-width="0" cx="-95.1214" cy="440.293" r="21.3333"/>
</svg>
