<?xml version="1.0" encoding="utf-8"?> <!-- Generator: Adobe Illustrator 13.0.0, SVG Export Plug-In . SVG Version: 6.00 Build 14948)  --> <svg version="1.2" baseProfile="tiny" id="Layer_1" xmlns="http://www.w3.org/2000/svg" xmlns:xlink="http://www.w3.org/1999/xlink" x="0px" y="0px" width="512px" height="512px" viewBox="0 0 512 512" xml:space="preserve">
<polygon points="0,0 512,0 512,512 0,512" style="fill:#ffffff; stroke:#000000;stroke-width:0"/>
<polygon points="-122.972,161.882 -122.004,204.537 -326.653,209.185 -327.622,166.53" style="fill:#006363; stroke:#000000;stroke-width:0"/>
<circle fill="#006363" stroke="#006363" stroke-width="0" cx="-122.488" cy="183.21" r="21.3333"/>
<circle fill="#006363" stroke="#006363" stroke-width="0" cx="-327.138" cy="187.858" r="21.3333"/>
<polygon points="752.475,427.715 718.008,402.565 847.654,224.893 882.12,250.043" style="fill:#006363; stroke:#000000;stroke-width:0"/>
<circle fill="#006363" stroke="#006363" stroke-width="0" cx="735.242" cy="415.14" r="21.3333"/>
<circle fill="#006363" stroke="#006363" stroke-width="0" cx="864.887" cy="237.468" r="21.3333"/>
<polygon points="1256,469.333 256,1469.33 -744,469.333" style="fill:#000000; stroke:#000000;stroke-width:0"/>
<polygon points="-744,42.6667 256,-957.333 1256,42.6667" style="fill:#000000; stroke:#000000;stroke-width:0"/>
<circle fill="#a64b00" stroke="#a64b00" stroke-width="0" cx="-122.488" cy="183.21" r="21.3333"/>
<circle fill="#a64b00" stroke="#a64b00" stroke-width="0" cx="-327.138" cy="187.858" r="21.3333"/>
<circle fill="#a64b00" stroke="#a64b00" stroke-width="0" cx="735.242" cy="415.14" r="21.3333"/>
<circle fill="#a64b00" stroke="#a64b00" stroke-width="0" cx="864.887" cy="237.468" r="21.3333"/>
<circle fill="#a64b00" stroke="#a64b00" stroke-width="0" cx="11.0631" cy="325.806" r="21.3333"/>
</svg>
