<?xml version="1.0" encoding="utf-8"?> <!-- Generator: Adobe Illustrator 13.0.0, SVG Export Plug-In . SVG Version: 6.00 Build 14948)  --> <svg version="1.2" baseProfile="tiny" id="Layer_1" xmlns="http://www.w3.org/2000/svg" xmlns:xlink="http://www.w3.org/1999/xlink" x="0px" y="0px" width="512px" height="512px" viewBox="0 0 512 512" xml:space="preserve">
<polygon points="0,0 512,0 512,512 0,512" style="fill:#ffffff; stroke:#000000;stroke-width:0"/>
<polygon points="-94.8918,44.0681 -82.5314,84.9052 -298.07,150.144 -310.43,109.307" style="fill:#006363; stroke:#000000;stroke-width:0"/>
<circle fill="#006363" stroke="#006363" stroke-width="0" cx="-88.7116" cy="64.4866" r="21.3333"/>
<circle fill="#006363" stroke="#006363" stroke-width="0" cx="-304.25" cy="129.725" r="21.3333"/>
<polygon points="747.706,331.218 707.991,315.623 783.595,123.084 823.309,138.678" style="fill:#006363; stroke:#000000;stroke-width:0"/>
<circle fill="#006363" stroke="#006363" stroke-width="0" cx="727.848" cy="323.421" r="21.3333"/>
<circle fill="#006363" stroke="#006363" stroke-width="0" cx="803.452" cy="130.881" r="21.3333"/>
<polygon points="1256,469.333 256,1469.33 -744,469.333" style="fill:#000000; stroke:#000000;stroke-width:0"/>
<polygon points="-744,42.6667 256,-957.333 1256,42.6667" style="fill:#000000; stroke:#000000;stroke-width:0"/>
<circle fill="#a64b00" stroke="#a64b00" stroke-width="0" cx="-88.7116" cy="64.4866" r="21.3333"/>
<circle fill="#a64b00" stroke="#a64b00" stroke-width="0" cx="-304.25" cy="129.725" r="21.3333"/>
<circle fill="#a64b00" stroke="#a64b00" stroke-width="0" cx="727.848" cy="323.421" r="21.3333"/>
<circle fill="#a64b00" stroke="#a64b00" stroke-width="0" cx="803.452" cy="130.881" r="21.3333"/>
<circle fill="#a64b00" stroke="#a64b00" stroke-width="0" cx="75.4896" cy="77.7526" r="21.3333"/>
</svg>
