<?xml version="1.0" encoding="utf-8"?> <!-- Generator: Adobe Illustrator 13.0.0, SVG Export Plug-In . SVG Version: 6.00 Build 14948)  --> <svg version="1.2" baseProfile="tiny" id="Layer_1" xmlns="http://www.w3.org/2000/svg" xmlns:xlink="http://www.w3.org/1999/xlink" x="0px" y="0px" width="512px" height="512px" viewBox="0 0 512 512" xml:space="preserve">
<polygon points="0,0 512,0 512,512 0,512" style="fill:#ffffff; stroke:#000000;stroke-width:0"/>
<polygon points="-204.784,243.047 -229.608,208.345 -54.9124,83.3785 -30.0887,118.08" style="fill:#006363; stroke:#000000;stroke-width:0"/>
<circle fill="#006363" stroke="#006363" stroke-width="0" cx="-217.196" cy="225.696" r="21.3333"/>
<circle fill="#006363" stroke="#006363" stroke-width="0" cx="-42.5005" cy="100.729" r="21.3333"/>
<polygon points="576.842,345.032 579.517,302.449 792.585,315.835 789.909,358.418" style="fill:#006363; stroke:#000000;stroke-width:0"/>
<circle fill="#006363" stroke="#006363" stroke-width="0" cx="578.18" cy="323.74" r="21.3333"/>
<circle fill="#006363" stroke="#006363" stroke-width="0" cx="791.247" cy="337.126" r="21.3333"/>
<polygon points="1256,469.333 256,1469.33 -744,469.333" style="fill:#000000; stroke:#000000;stroke-width:0"/>
<polygon points="-744,42.6667 256,-957.333 1256,42.6667" style="fill:#000000; stroke:#000000;stroke-width:0"/>
<circle fill="#a64b00" stroke="#a64b00" stroke-width="0" cx="-217.196" cy="225.696" r="21.3333"/>
<circle fill="#a64b00" stroke="#a64b00" stroke-width="0" cx="-42.5005" cy="100.729" r="21.3333"/>
<circle fill="#a64b00" stroke="#a64b00" stroke-width="0" cx="578.18" cy="323.74" r="21.3333"/>
<circle fill="#a64b00" stroke="#a64b00" stroke-width="0" cx="791.247" cy="337.126" r="21.3333"/>
<circle fill="#a64b00" stroke="#a64b00" stroke-width="0" cx="227.011" cy="115.915" r="21.3333"/>
</svg>
