<?xml version="1.0" encoding="utf-8"?> <!-- Generator: Adobe Illustrator 13.0.0, SVG Export Plug-In . SVG Version: 6.00 Build 14948)  --> <svg version="1.2" baseProfile="tiny" id="Layer_1" xmlns="http://www.w3.org/2000/svg" xmlns:xlink="http://www.w3.org/1999/xlink" x="0px" y="0px" width="512px" height="512px" viewBox="0 0 512 512" xml:space="preserve">
<polygon points="0,0 512,0 512,512 0,512" style="fill:#ffffff; stroke:#000000;stroke-width:0"/>
<polygon points="-112.202,157.152 -111.797,199.817 -335.325,201.936 -335.73,159.271" style="fill:#006363; stroke:#000000;stroke-width:0"/>
<circle fill="#006363" stroke="#006363" stroke-width="0" cx="-112" cy="178.484" r="21.3333"/>
<circle fill="#006363" stroke="#006363" stroke-width="0" cx="-335.527" cy="180.604" r="21.3333"/>
<polygon points="756.05,419.063 721.346,394.242 841.529,226.201 876.234,251.021" style="fill:#006363; stroke:#000000;stroke-width:0"/>
<circle fill="#006363" stroke="#006363" stroke-width="0" cx="738.698" cy="406.652" r="21.3333"/>
<circle fill="#006363" stroke="#006363" stroke-width="0" cx="858.882" cy="238.611" r="21.3333"/>
<polygon points="1256,469.333 256,1469.33 -744,469.333" style="fill:#000000; stroke:#000000;stroke-width:0"/>
<polygon points="-744,42.6667 256,-957.333 1256,42.6667" style="fill:#000000; stroke:#000000;stroke-width:0"/>
<circle fill="#a64b00" stroke="#a64b00" stroke-width="0" cx="-112" cy="178.484" r="21.3333"/>
<circle fill="#a64b00" stroke="#a64b00" stroke-width="0" cx="-335.527" cy="180.604" r="21.3333"/>
<circle fill="#a64b00" stroke="#a64b00" stroke-width="0" cx="738.698" cy="406.652" r="21.3333"/>
<circle fill="#a64b00" stroke="#a64b00" stroke-width="0" cx="858.882" cy="238.611" r="21.3333"/>
<circle fill="#a64b00" stroke="#a64b00" stroke-width="0" cx="13.4493" cy="287.644" r="21.3333"/>
</svg>
