<?xml version="1.0" encoding="utf-8"?> <!-- Generator: Adobe Illustrator 13.0.0, SVG Export Plug-In . SVG Version: 6.00 Build 14948)  --> <svg version="1.2" baseProfile="tiny" id="Layer_1" xmlns="http://www.w3.org/2000/svg" xmlns:xlink="http://www.w3.org/1999/xlink" x="0px" y="0px" width="512px" height="512px" viewBox="0 0 512 512" xml:space="preserve">
<polygon points="0,0 512,0 512,512 0,512" style="fill:#ffffff; stroke:#000000;stroke-width:0"/>
<polygon points="-125.489,197.925 -88.321,176.973 19.5194,368.276 -17.6485,389.228" style="fill:#006363; stroke:#000000;stroke-width:0"/>
<circle fill="#006363" stroke="#006363" stroke-width="0" cx="-106.905" cy="187.449" r="21.3333"/>
<circle fill="#006363" stroke="#006363" stroke-width="0" cx="0.93542" cy="378.752" r="21.3333"/>
<polygon points="677.12,300.184 644.37,327.531 505.578,161.321 538.328,133.973" style="fill:#006363; stroke:#000000;stroke-width:0"/>
<circle fill="#006363" stroke="#006363" stroke-width="0" cx="660.745" cy="313.857" r="21.3333"/>
<circle fill="#006363" stroke="#006363" stroke-width="0" cx="521.953" cy="147.647" r="21.3333"/>
<polygon points="1256,469.333 256,1469.33 -744,469.333" style="fill:#000000; stroke:#000000;stroke-width:0"/>
<polygon points="-744,42.6667 256,-957.333 1256,42.6667" style="fill:#000000; stroke:#000000;stroke-width:0"/>
<circle fill="#a64b00" stroke="#a64b00" stroke-width="0" cx="-106.905" cy="187.449" r="21.3333"/>
<circle fill="#a64b00" stroke="#a64b00" stroke-width="0" cx="0.93542" cy="378.752" r="21.3333"/>
<circle fill="#a64b00" stroke="#a64b00" stroke-width="0" cx="660.745" cy="313.857" r="21.3333"/>
<circle fill="#a64b00" stroke="#a64b00" stroke-width="0" cx="521.953" cy="147.647" r="21.3333"/>
<circle fill="#a64b00" stroke="#a64b00" stroke-width="0" cx="401.798" cy="335.347" r="21.3333"/>
</svg>
