<?xml version="1.0" encoding="utf-8"?> <!-- Generator: Adobe Illustrator 13.0.0, SVG Export Plug-In . SVG Version: 6.00 Build 14948)  --> <svg version="1.2" baseProfile="tiny" id="Layer_1" xmlns="http://www.w3.org/2000/svg" xmlns:xlink="http://www.w3.org/1999/xlink" x="0px" y="0px" width="512px" height="512px" viewBox="0 0 512 512" xml:space="preserve">
<polygon points="0,0 512,0 512,512 0,512" style="fill:#ffffff; stroke:#000000;stroke-width:0"/>
<polygon points="-140.803,199.624 -100.679,185.115 -28.1267,385.761 -68.2508,400.27" style="fill:#006363; stroke:#000000;stroke-width:0"/>
<circle fill="#006363" stroke="#006363" stroke-width="0" cx="-120.741" cy="192.369" r="21.3333"/>
<circle fill="#006363" stroke="#006363" stroke-width="0" cx="-48.1887" cy="393.015" r="21.3333"/>
<polygon points="694.252,182.977 723.165,214.352 564.922,360.178 536.009,328.802" style="fill:#006363; stroke:#000000;stroke-width:0"/>
<circle fill="#006363" stroke="#006363" stroke-width="0" cx="708.709" cy="198.665" r="21.3333"/>
<circle fill="#006363" stroke="#006363" stroke-width="0" cx="550.465" cy="344.49" r="21.3333"/>
<polygon points="1256,469.333 256,1469.33 -744,469.333" style="fill:#000000; stroke:#000000;stroke-width:0"/>
<polygon points="-744,42.6667 256,-957.333 1256,42.6667" style="fill:#000000; stroke:#000000;stroke-width:0"/>
<circle fill="#a64b00" stroke="#a64b00" stroke-width="0" cx="-120.741" cy="192.369" r="21.3333"/>
<circle fill="#a64b00" stroke="#a64b00" stroke-width="0" cx="-48.1887" cy="393.015" r="21.3333"/>
<circle fill="#a64b00" stroke="#a64b00" stroke-width="0" cx="708.709" cy="198.665" r="21.3333"/>
<circle fill="#a64b00" stroke="#a64b00" stroke-width="0" cx="550.465" cy="344.49" r="21.3333"/>
<circle fill="#a64b00" stroke="#a64b00" stroke-width="0" cx="330.213" cy="201.779" r="21.3333"/>
</svg>
