<?xml version="1.0" encoding="utf-8"?> <!-- Generator: Adobe Illustrator 13.0.0, SVG Export Plug-In . SVG Version: 6.00 Build 14948)  --> <svg version="1.2" baseProfile="tiny" id="Layer_1" xmlns="http://www.w3.org/2000/svg" xmlns:xlink="http://www.w3.org/1999/xlink" x="0px" y="0px" width="512px" height="512px" viewBox="0 0 512 512" xml:space="preserve">
<polygon points="0,0 512,0 512,512 0,512" style="fill:#ffffff; stroke:#000000;stroke-width:0"/>
<polygon points="18.6433,191.761 61.3077,191.313 63.549,404.772 20.8847,405.22" style="fill:#006363; stroke:#000000;stroke-width:0"/>
<circle fill="#006363" stroke="#006363" stroke-width="0" cx="39.9755" cy="191.537" r="21.3333"/>
<circle fill="#006363" stroke="#006363" stroke-width="0" cx="42.2169" cy="404.996" r="21.3333"/>
<polygon points="450.719,97.8549 493.375,96.9034 498.131,310.11 455.475,311.062" style="fill:#006363; stroke:#000000;stroke-width:0"/>
<circle fill="#006363" stroke="#006363" stroke-width="0" cx="472.047" cy="97.3791" r="21.3333"/>
<circle fill="#006363" stroke="#006363" stroke-width="0" cx="476.803" cy="310.586" r="21.3333"/>
<polygon points="1256,469.333 256,1469.33 -744,469.333" style="fill:#000000; stroke:#000000;stroke-width:0"/>
<polygon points="-744,42.6667 256,-957.333 1256,42.6667" style="fill:#000000; stroke:#000000;stroke-width:0"/>
<circle fill="#a64b00" stroke="#a64b00" stroke-width="0" cx="39.9755" cy="191.537" r="21.3333"/>
<circle fill="#a64b00" stroke="#a64b00" stroke-width="0" cx="42.2169" cy="404.996" r="21.3333"/>
<circle fill="#a64b00" stroke="#a64b00" stroke-width="0" cx="472.047" cy="97.3791" r="21.3333"/>
<circle fill="#a64b00" stroke="#a64b00" stroke-width="0" cx="476.803" cy="310.586" r="21.3333"/>
<circle fill="#a64b00" stroke="#a64b00" stroke-width="0" cx="234.374" cy="256" r="21.3333"/>
</svg>
