<?xml version="1.0" encoding="utf-8"?> <!-- Generator: Adobe Illustrator 13.0.0, SVG Export Plug-In . SVG Version: 6.00 Build 14948)  --> <svg version="1.2" baseProfile="tiny" id="Layer_1" xmlns="http://www.w3.org/2000/svg" xmlns:xlink="http://www.w3.org/1999/xlink" x="0px" y="0px" width="512px" height="512px" viewBox="0 0 512 512" xml:space="preserve">
<polygon points="0,0 512,0 512,512 0,512" style="fill:#ffffff; stroke:#000000;stroke-width:0"/>
<polygon points="-121.596,116.456 -79.8364,107.702 -36.8407,312.815 -78.5997,321.568" style="fill:#006363; stroke:#000000;stroke-width:0"/>
<circle fill="#006363" stroke="#006363" stroke-width="0" cx="-100.716" cy="112.079" r="21.3333"/>
<circle fill="#006363" stroke="#006363" stroke-width="0" cx="-57.7202" cy="317.191" r="21.3333"/>
<polygon points="707.015,197.754 726.507,235.708 539.413,331.792 519.921,293.837" style="fill:#006363; stroke:#000000;stroke-width:0"/>
<circle fill="#006363" stroke="#006363" stroke-width="0" cx="716.761" cy="216.731" r="21.3333"/>
<circle fill="#006363" stroke="#006363" stroke-width="0" cx="529.667" cy="312.815" r="21.3333"/>
<polygon points="1256,469.333 256,1469.33 -744,469.333" style="fill:#000000; stroke:#000000;stroke-width:0"/>
<polygon points="-744,42.6667 256,-957.333 1256,42.6667" style="fill:#000000; stroke:#000000;stroke-width:0"/>
<circle fill="#a64b00" stroke="#a64b00" stroke-width="0" cx="-100.716" cy="112.079" r="21.3333"/>
<circle fill="#a64b00" stroke="#a64b00" stroke-width="0" cx="-57.7202" cy="317.191" r="21.3333"/>
<circle fill="#a64b00" stroke="#a64b00" stroke-width="0" cx="716.761" cy="216.731" r="21.3333"/>
<circle fill="#a64b00" stroke="#a64b00" stroke-width="0" cx="529.667" cy="312.815" r="21.3333"/>
<circle fill="#a64b00" stroke="#a64b00" stroke-width="0" cx="342.144" cy="392.59" r="21.3333"/>
</svg>
