<?xml version="1.0" encoding="utf-8"?> <!-- Generator: Adobe Illustrator 13.0.0, SVG Export Plug-In . SVG Version: 6.00 Build 14948)  --> <svg version="1.2" baseProfile="tiny" id="Layer_1" xmlns="http://www.w3.org/2000/svg" xmlns:xlink="http://www.w3.org/1999/xlink" x="0px" y="0px" width="512px" height="512px" viewBox="0 0 512 512" xml:space="preserve">
<polygon points="0,0 512,0 512,512 0,512" style="fill:#ffffff; stroke:#000000;stroke-width:0"/>
<polygon points="-135.722,91.3185 -136.51,48.6591 80.6455,44.6502 81.433,87.3096" style="fill:#006363; stroke:#000000;stroke-width:0"/>
<circle fill="#006363" stroke="#006363" stroke-width="0" cx="-136.116" cy="69.9888" r="21.3333"/>
<circle fill="#006363" stroke="#006363" stroke-width="0" cx="81.0393" cy="65.9799" r="21.3333"/>
<polygon points="515.918,298.219 481.008,273.688 604.962,97.2848 639.872,121.815" style="fill:#006363; stroke:#000000;stroke-width:0"/>
<circle fill="#006363" stroke="#006363" stroke-width="0" cx="498.463" cy="285.954" r="21.3333"/>
<circle fill="#006363" stroke="#006363" stroke-width="0" cx="622.417" cy="109.55" r="21.3333"/>
<polygon points="1256,469.333 256,1469.33 -744,469.333" style="fill:#000000; stroke:#000000;stroke-width:0"/>
<polygon points="-744,42.6667 256,-957.333 1256,42.6667" style="fill:#000000; stroke:#000000;stroke-width:0"/>
<circle fill="#a64b00" stroke="#a64b00" stroke-width="0" cx="-136.116" cy="69.9888" r="21.3333"/>
<circle fill="#a64b00" stroke="#a64b00" stroke-width="0" cx="81.0393" cy="65.9799" r="21.3333"/>
<circle fill="#a64b00" stroke="#a64b00" stroke-width="0" cx="498.463" cy="285.954" r="21.3333"/>
<circle fill="#a64b00" stroke="#a64b00" stroke-width="0" cx="622.417" cy="109.55" r="21.3333"/>
<circle fill="#a64b00" stroke="#a64b00" stroke-width="0" cx="459.663" cy="192.239" r="21.3333"/>
</svg>
